<svg width="36" height="50" viewBox="0 0 36 50" fill="none" xmlns="http://www.w3.org/2000/svg">
<path d="M34.261 16.7406C33.4498 9.34894 27.9111 2 18.177 2C8.44281 2 2.92156 9.3746 2.1191 16.7406C0.897969 28.1362 9.25399 38.488 18.177 47.9073C27.1261 38.4624 35.4995 28.1362 34.261 16.7406ZM18.177 25.4328C16.6536 25.4192 15.1685 24.964 13.9084 24.1242C12.6484 23.2845 11.6699 22.0978 11.096 20.7137C10.5222 19.3296 10.3787 17.8098 10.6837 16.3459C10.9887 14.882 11.7285 13.5393 12.8099 12.4869C13.8913 11.4345 15.266 10.7195 16.7609 10.4319C18.2558 10.1443 19.804 10.297 21.2106 10.8707C22.6172 11.4444 23.8193 12.4135 24.6655 13.6559C25.5117 14.8984 25.9642 16.3586 25.966 17.8528C25.9684 18.8539 25.7681 19.8456 25.3767 20.7702C24.9853 21.6948 24.4107 22.5339 23.6862 23.239C22.9616 23.9442 22.1015 24.5011 21.1558 24.8777C20.2101 25.2543 19.1976 25.4429 18.177 25.4328Z" fill="#EC644E" stroke="#263238" stroke-width="2.5" stroke-linecap="round" stroke-linejoin="round"/>
</svg>
