<svg width="250" height="247" viewBox="0 0 250 247" fill="none" xmlns="http://www.w3.org/2000/svg">
<path d="M1 244.686H241.919" stroke="#263238" stroke-width="1.58111" stroke-linecap="round" stroke-linejoin="round"/>
<path d="M181.943 107.652C185.952 109.875 197.58 117.454 197.78 119.234C197.98 121.013 195.903 122.792 188.823 119.945C185.467 118.649 182.185 117.171 178.99 115.519L181.943 107.652Z" fill="#F0BA92" stroke="#263238" stroke-width="1.95349" stroke-linecap="round" stroke-linejoin="round"/>
<path d="M155.779 110.818C155.779 110.818 156.548 116.974 159.094 118.753C161.64 120.532 164.948 121.831 166.6 123.373C168.251 124.915 170.69 129.536 172.792 128.824C174.894 128.112 174.925 123.679 172.216 119.228C171.134 117.448 172.129 114.726 174.781 115.556C177.433 116.387 186.715 124.085 190.806 124.441C194.896 124.797 193.145 120.395 190.806 117.923C181.855 108.445 178.096 102.314 178.096 102.314L155.779 110.818Z" fill="#F0BA92" stroke="#263238" stroke-width="1.95349" stroke-linecap="round" stroke-linejoin="round"/>
<path d="M102.451 234.064V245.102H62.5084L75.0867 234.064H102.451Z" fill="#EC644E"/>
<path d="M102.451 234.064V245.102H62.5084L75.0867 234.064H102.451Z" stroke="#263238" stroke-width="1.95349" stroke-linecap="round" stroke-linejoin="round"/>
<path d="M74.5237 220.821C74.8552 228.457 75.0867 234.064 75.0867 234.064H102.457C102.457 234.064 103.896 228.326 105.46 220.821H74.5237Z" fill="#F0BA92" stroke="#263238" stroke-width="1.95349" stroke-linecap="round" stroke-linejoin="round"/>
<path d="M74.5237 220.821C74.8552 228.457 75.0867 234.064 75.0867 234.064H102.457C102.457 234.064 103.896 228.326 105.46 220.821H74.5237Z" stroke="#263238" stroke-width="1.95349" stroke-linecap="round" stroke-linejoin="round"/>
<path d="M116.606 99.167C116.606 99.167 111.714 149.739 106.329 168.251C106.329 168.251 109.926 181.081 109.369 194.88C108.812 208.678 106.398 225.029 106.398 225.029C106.398 225.029 100.143 225.029 86.3827 225.96C77.7511 226.546 72.4596 225.029 72.4596 225.029C72.4596 225.029 69.6012 170.711 69.6012 165.841C69.6012 153.791 73.4103 115.438 74.655 99.1545L116.606 99.167Z" fill="#263238"/>
<path d="M85.0066 226.053C77.2007 226.403 72.4408 225.029 72.4408 225.029C72.4408 225.029 69.5824 170.711 69.5824 165.841C69.5824 153.797 73.3915 115.437 74.6362 99.1606H79.7026C78.4516 115.437 74.6425 153.797 74.6425 165.841C74.6425 170.686 77.5071 225.029 77.5071 225.029C79.9642 225.631 82.4778 225.974 85.0066 226.053Z" fill="white"/>
<path d="M116.606 99.167C116.606 99.167 111.714 149.739 106.329 168.251C106.329 168.251 109.926 181.081 109.369 194.88C108.812 208.678 106.398 225.029 106.398 225.029C106.398 225.029 100.143 225.029 86.3827 225.96C77.7511 226.546 72.4596 225.029 72.4596 225.029C72.4596 225.029 69.6012 170.711 69.6012 165.841C69.6012 153.791 73.4103 115.438 74.655 99.1545L116.606 99.167Z" stroke="#263238" stroke-width="1.95349" stroke-linecap="round" stroke-linejoin="round"/>
<path d="M140.467 234.064V245.102H100.525L113.103 234.064H140.467Z" fill="#EC644E"/>
<path d="M140.467 234.064V245.102H100.525L113.103 234.064H140.467Z" stroke="#263238" stroke-width="1.95349" stroke-linecap="round" stroke-linejoin="round"/>
<path d="M111.289 220.821C111.464 225.284 112.071 229.718 113.103 234.064H140.474C140.713 229.611 141.298 225.183 142.225 220.821H111.289Z" fill="#F0BA92" stroke="#263238" stroke-width="1.95349" stroke-linecap="round" stroke-linejoin="round"/>
<path d="M111.289 220.821L113.103 234.064H140.474L142.225 220.821H111.289Z" stroke="#263238" stroke-width="1.95349" stroke-linecap="round" stroke-linejoin="round"/>
<path d="M101.307 99.1672H148.073C148.073 99.1672 153.959 119.771 142.444 168.251C142.444 168.251 146.04 181.082 145.484 194.88C144.927 208.678 142.519 225.092 142.519 225.092C142.519 225.092 133.193 225.573 123.129 226.547C118.61 226.871 114.069 226.379 109.725 225.092C109.725 225.092 105.722 170.711 105.722 165.854C105.722 158.849 105.46 137.683 105.46 121.494C105.46 121.494 102.451 119.209 99.1174 116.299" fill="#263238"/>
<path d="M101.307 99.1672H148.073C148.073 99.1672 153.959 119.771 142.444 168.251C142.444 168.251 146.04 181.082 145.484 194.88C144.927 208.678 142.519 225.092 142.519 225.092C142.519 225.092 133.193 225.573 123.129 226.547C118.61 226.871 114.069 226.379 109.725 225.092C109.725 225.092 109 215.327 108.168 203.695" stroke="#263238" stroke-width="1.95349" stroke-linecap="round" stroke-linejoin="round"/>
<path d="M108.193 203.695C107.061 187.887 105.722 168.645 105.722 165.854C105.722 158.849 105.46 137.683 105.46 121.494C105.46 121.494 102.451 119.209 99.1174 116.299" stroke="#9ABAE3" stroke-width="1.95349" stroke-linecap="round" stroke-linejoin="round"/>
<path d="M35.9195 71.7707L32.029 68.9612C27.1691 66.7697 17.5243 63.4107 15.529 58.7219C14.9411 57.3545 16.3171 52.2848 20.6329 44.6428C20.6329 44.6428 14.0029 41.0029 9.63081 35.902C9.2583 35.4069 9.04854 34.8089 9.03035 34.19C9.01215 33.5711 9.1864 32.9618 9.52919 32.4458C9.87198 31.9299 10.3665 31.5325 10.9447 31.3084C11.5229 31.0843 12.1564 31.0445 12.7582 31.1944C19.0129 32.7865 30.8531 41.7146 31.2034 41.34C33.1236 39.2859 42.0179 46.4222 42.0179 46.4222C42.0179 46.4222 41.0859 62.1121 35.9195 71.7707Z" fill="#F0BA92" stroke="#263238" stroke-width="1.95349" stroke-linecap="round" stroke-linejoin="round"/>
<path d="M16.5298 50.5491C14.0905 50.7614 11.2633 51.6167 11.6198 54.6823C11.9764 57.7478 19.751 59.8144 21.5399 59.9642C23.8916 60.1578 25.03 57.2109 21.9089 55.1006C19.0692 53.1776 18.1248 52.5532 18.1248 52.5532" fill="#F0BA92"/>
<path d="M16.5298 50.5491C14.0905 50.7614 11.2633 51.6167 11.6198 54.6823C11.9764 57.7478 19.751 59.8144 21.5399 59.9642C23.8916 60.1578 25.03 57.2109 21.9089 55.1006C19.0692 53.1776 18.1248 52.5532 18.1248 52.5532" stroke="#263238" stroke-width="1.95349" stroke-linecap="round" stroke-linejoin="round"/>
<path d="M20.7266 44.7929C18.0871 44.618 13.4461 44.5119 13.3148 47.8584C13.1834 51.2049 21.152 54.7262 23.0534 55.1508C25.5553 55.7751 27.2503 52.7845 24.2606 50.0062C23.294 49.1109 22.3891 48.1514 21.5523 47.1342" fill="#F0BA92"/>
<path d="M20.7266 44.7929C18.0871 44.618 13.4461 44.5119 13.3148 47.8584C13.1834 51.2049 21.152 54.7262 23.0534 55.1508C25.5553 55.7751 27.2503 52.7845 24.2606 50.0062C23.294 49.1109 22.3891 48.1514 21.5523 47.1342" stroke="#263238" stroke-width="1.95349" stroke-linecap="round" stroke-linejoin="round"/>
<path d="M39.9038 46.8843C39.9038 46.8843 36.939 42.0206 35.5692 40.4347C34.1995 38.8489 28.7453 36.4264 26.306 34.9904C23.8666 33.5544 20.0512 35.159 24.1981 39.6855C28.345 44.2121 28.1198 44.2121 28.1198 44.2121C27.8636 46.4198 28.3522 48.6498 29.5084 50.5492" fill="#F0BA92"/>
<path d="M39.9038 46.8843C39.9038 46.8843 36.939 42.0206 35.5692 40.4347C34.1995 38.8489 28.7453 36.4264 26.306 34.9904C23.8666 33.5544 20.0512 35.159 24.1981 39.6855C28.345 44.2121 28.1198 44.2121 28.1198 44.2121C27.8636 46.4198 28.3522 48.6498 29.5084 50.5492" stroke="#263238" stroke-width="1.95349" stroke-linecap="round" stroke-linejoin="round"/>
<path d="M90.5046 23.9084C98.0978 24.0396 106.016 25.6254 111.058 26.1374C116.099 26.6493 130.71 24.9574 136.865 26.1374C143.019 27.3174 146.572 32.6243 149.712 40.3975L109.988 45.8418L90.5046 23.9084Z" fill="#F0BA92" stroke="#263238" stroke-width="1.95349" stroke-linecap="round" stroke-linejoin="round"/>
<path d="M108.75 35.8835C125.531 44.1312 146.766 31.0636 149.043 33.3175C154.991 39.2051 182.08 102.514 181.167 103.201C181.167 103.201 169.108 113.084 154.985 110.693C153.552 110.456 150.025 103.482 150.025 103.482C149.012 103.446 147.999 103.521 147.004 103.706C142.181 104.955 126.776 108.701 105.46 105.879C84.1434 103.057 73.2102 97.1383 71.2399 98.5743C71.2399 98.5743 69.4886 99.8854 71.7841 91.7065C74.0796 83.5275 74.8239 82.1352 76.1624 75.9167C76.1624 75.9167 71.5464 84.6576 66.6927 85.1258C53.7016 86.3308 35.3127 75.7232 33.5426 74.5744C35.3998 73.0153 36.6631 70.8659 37.1203 68.487C39.0843 55.4756 40.6105 42.6015 40.6105 42.6015C40.6105 42.6015 42.5995 44.7306 57.3231 50.9054C58.13 51.2487 69.2447 31.3196 79.2585 24.7764C83.249 22.1666 90.173 22.0355 96.9532 22.5974C97.8914 22.6723 98.9484 22.4039 99.7553 22.8659C100.969 23.5652 100.124 31.638 108.75 35.8835Z" fill="#EC644E"/>
<path d="M74.4987 82.5034C75.5183 80.9925 76.1375 79.8125 76.1375 79.8125C74.824 86.056 74.0859 87.4233 71.7904 95.6085C71.4527 96.8197 71.165 97.8187 71.0211 98.6491C70.6333 98.6491 70.0391 97.9373 71.7904 91.7001C73.0414 87.2422 73.8295 84.8073 74.4987 82.5034Z" fill="#EC644E"/>
<path d="M99.7179 22.8595C98.911 22.4038 97.8414 22.6722 96.922 22.5911C90.1356 22.0292 83.2116 22.1603 79.2211 24.7701C69.2135 31.3132 58.0926 51.2424 57.2857 50.899C42.562 44.7242 40.573 42.5952 40.573 42.5952C40.573 42.5952 39.5973 50.8054 38.2087 60.7325H38.7466C39.8412 52.616 40.573 46.4974 40.573 46.4974C40.573 46.4974 42.562 48.6264 57.2857 54.8012C58.0926 55.1446 69.2072 35.2216 79.2211 28.6722C83.2116 26.0625 90.1356 25.9313 96.922 26.4933C97.3974 26.537 99.1862 26.4933 100.931 26.4933C100.4 24.614 100.237 23.1405 99.7179 22.8595Z" fill="white"/>
<path d="M108.75 35.8835C125.531 44.1312 146.766 31.0636 149.043 33.3175C154.991 39.2051 182.08 102.514 181.167 103.201C181.167 103.201 169.108 113.084 154.985 110.693C153.552 110.456 150.025 103.482 150.025 103.482C149.012 103.446 147.999 103.521 147.004 103.706C142.181 104.955 126.776 108.701 105.46 105.879C84.1434 103.057 73.2102 97.1383 71.2399 98.5743C71.2399 98.5743 69.4886 99.8854 71.7841 91.7065C74.0796 83.5275 74.8239 82.1352 76.1624 75.9167C76.1624 75.9167 71.5464 84.6576 66.6927 85.1258C53.7016 86.3308 35.3127 75.7232 33.5426 74.5744C35.3998 73.0153 36.6631 70.8659 37.1203 68.487C39.0843 55.4756 40.6105 42.6015 40.6105 42.6015C40.6105 42.6015 42.5995 44.7306 57.3231 50.9054C58.13 51.2487 69.2447 31.3196 79.2585 24.7764C83.249 22.1666 90.173 22.0355 96.9532 22.5974C97.8914 22.6723 98.9484 22.4039 99.7553 22.8659C100.969 23.5652 100.124 31.638 108.75 35.8835Z" stroke="#263238" stroke-width="1.95349" stroke-linecap="round" stroke-linejoin="round"/>
<path d="M130.06 58.4595L132.862 60.8257" stroke="#263238" stroke-width="1.95349" stroke-linecap="round" stroke-linejoin="round"/>
<path d="M82.1295 44.593L82.6612 48.2205" stroke="#263238" stroke-width="1.95349" stroke-linecap="round" stroke-linejoin="round"/>
<path d="M76.1375 75.9103C77.6886 64.6033 84.3812 44.5181 84.3812 44.5181" stroke="#263238" stroke-width="1.95349" stroke-linecap="round" stroke-linejoin="round"/>
<path d="M104.722 89.8079C104.722 89.8079 98.7046 86.4489 91.5867 78.1951" stroke="#263238" stroke-width="1.95349" stroke-linecap="round" stroke-linejoin="round"/>
<path d="M131.461 56.0933C131.461 56.0933 138.528 76.5406 150.025 103.481" stroke="#263238" stroke-width="1.95349" stroke-linecap="round" stroke-linejoin="round"/>
<path d="M70.4394 98.574C71.7779 97.7811 75.8873 99.1672 75.8873 99.1672L74.9991 102.189C74.9991 102.189 69.1759 99.317 70.4394 98.574Z" fill="#263238"/>
<path d="M108.8 27.2859C108.8 27.2859 105.898 30.6074 107.918 31.3004C111.083 32.3868 116.205 27.8041 116.205 27.8041L108.8 27.2859Z" fill="#263238"/>
<path d="M120.903 21.4919C122.779 16.1911 120.715 10.5907 116.243 9.0049C111.771 7.41906 106.598 10.3722 104.722 15.6792C102.845 20.9861 104.909 26.574 109.381 28.1661C113.854 29.7582 119.001 26.7738 120.903 21.4919Z" fill="#F0BA92" stroke="#263238" stroke-width="1.95349" stroke-linecap="round" stroke-linejoin="round"/>
<path d="M109.35 28.1788C110.578 28.6104 111.897 28.7158 113.178 28.4847C112.538 28.4412 111.907 28.3109 111.302 28.0976C107.061 26.5805 105.078 21.2735 106.88 16.235C108.681 11.1965 113.616 8.38073 117.857 9.88541L118.176 10.0103C117.586 9.56609 116.932 9.21447 116.237 8.96761C111.764 7.36928 106.598 10.3724 104.722 15.6794C102.845 20.9863 104.878 26.5742 109.35 28.1788Z" fill="white"/>
<path d="M120.903 21.4919C122.779 16.1911 120.715 10.5907 116.243 9.0049C111.771 7.41906 106.598 10.3722 104.722 15.6792C102.845 20.9861 104.909 26.574 109.381 28.1661C113.854 29.7582 119.001 26.7738 120.903 21.4919Z" stroke="#263238" stroke-width="1.95349" stroke-linecap="round" stroke-linejoin="round"/>
<path d="M110.22 9.36101C110.22 9.36101 110.845 19.5691 120.265 22.9343C120.265 22.9343 123.592 16.6909 119.808 11.6961C116.024 6.70129 110.22 9.36101 110.22 9.36101Z" fill="#263238"/>
<path d="M125.075 14.5182C129.068 14.5182 132.305 11.2868 132.305 7.30071C132.305 3.31462 129.068 0.083252 125.075 0.083252C121.081 0.083252 117.844 3.31462 117.844 7.30071C117.844 11.2868 121.081 14.5182 125.075 14.5182Z" fill="#263238"/>
<path d="M246.298 236.267C246.298 241.169 243.721 245.133 240.537 245.133H237.56V227.377H240.537C243.721 227.377 246.298 231.348 246.298 236.267Z" fill="#263238"/>
<path d="M245.278 241.262C245.673 239.967 245.871 238.62 245.866 237.267C245.866 232.122 243.152 227.951 239.805 227.951H237.56V227.365H240.537C243.721 227.365 246.304 231.335 246.304 236.224C246.32 237.957 245.97 239.673 245.278 241.262Z" fill="white"/>
<path d="M246.298 236.267C246.298 241.169 243.721 245.133 240.537 245.133H237.56V227.377H240.537C243.721 227.377 246.298 231.348 246.298 236.267Z" stroke="#263238" stroke-width="1.95349" stroke-linecap="round" stroke-linejoin="round"/>
<path d="M237.56 245.102C240.745 245.102 243.327 241.136 243.327 236.243C243.327 231.35 240.745 227.383 237.56 227.383C234.375 227.383 231.793 231.35 231.793 236.243C231.793 241.136 234.375 245.102 237.56 245.102Z" fill="#263238"/>
<path d="M243.327 236.267C243.327 239.502 242.201 242.33 240.512 243.872C241.927 241.889 242.656 239.5 242.589 237.067C242.589 232.172 240.005 228.207 236.822 228.207C235.715 228.236 234.66 228.682 233.87 229.456C234.284 228.852 234.833 228.353 235.473 227.996C236.113 227.64 236.828 227.436 237.56 227.402C240.743 227.377 243.327 231.348 243.327 236.267Z" fill="white"/>
<path d="M239.887 236.268C239.887 238.247 238.848 239.851 237.56 239.851C236.271 239.851 235.233 238.247 235.233 236.268C235.233 234.289 236.271 232.69 237.56 232.69C238.848 232.69 239.887 234.264 239.887 236.268Z" fill="#9ABAE3"/>
<path d="M237.56 245.102C240.745 245.102 243.327 241.136 243.327 236.243C243.327 231.35 240.745 227.383 237.56 227.383C234.375 227.383 231.793 231.35 231.793 236.243C231.793 241.136 234.375 245.102 237.56 245.102Z" stroke="#263238" stroke-width="1.95349" stroke-linecap="round" stroke-linejoin="round"/>
<path d="M203.109 236.267C203.109 241.169 200.526 245.133 197.342 245.133H194.365V227.377H197.342C200.526 227.377 203.109 231.348 203.109 236.267Z" fill="#263238"/>
<path d="M202.089 241.262C202.481 239.967 202.677 238.62 202.671 237.267C202.671 232.122 199.956 227.951 196.61 227.951H194.371V227.365H197.342C200.525 227.365 203.109 231.335 203.109 236.224C203.126 237.956 202.779 239.673 202.089 241.262Z" fill="white"/>
<path d="M203.109 236.267C203.109 241.169 200.526 245.133 197.342 245.133H194.365V227.377H197.342C200.526 227.377 203.109 231.348 203.109 236.267Z" stroke="#263238" stroke-width="1.95349" stroke-linecap="round" stroke-linejoin="round"/>
<path d="M194.371 245.102C197.556 245.102 200.138 241.136 200.138 236.243C200.138 231.35 197.556 227.383 194.371 227.383C191.186 227.383 188.604 231.35 188.604 236.243C188.604 241.136 191.186 245.102 194.371 245.102Z" fill="#263238"/>
<path d="M200.132 236.267C200.132 239.502 199.006 242.33 197.323 243.872C198.738 241.889 199.467 239.5 199.4 237.067C199.4 232.172 196.817 228.207 193.633 228.207C192.526 228.236 191.471 228.682 190.681 229.456C191.093 228.852 191.641 228.352 192.28 227.995C192.919 227.639 193.633 227.436 194.365 227.402C197.555 227.377 200.132 231.348 200.132 236.267Z" fill="white"/>
<path d="M196.698 236.268C196.698 238.247 195.653 239.851 194.371 239.851C193.089 239.851 192.038 238.247 192.038 236.268C192.038 234.289 193.082 232.69 194.371 232.69C195.659 232.69 196.698 234.264 196.698 236.268Z" fill="#9ABAE3"/>
<path d="M194.371 245.102C197.556 245.102 200.138 241.136 200.138 236.243C200.138 231.35 197.556 227.383 194.371 227.383C191.186 227.383 188.604 231.35 188.604 236.243C188.604 241.136 191.186 245.102 194.371 245.102Z" stroke="#263238" stroke-width="1.95349" stroke-linecap="round" stroke-linejoin="round"/>
<path d="M184.701 236.267C184.701 241.169 182.118 245.133 178.934 245.133H175.957V227.377H178.934C182.118 227.377 184.701 231.348 184.701 236.267Z" fill="#263238"/>
<path d="M183.675 241.262C184.073 239.968 184.271 238.621 184.263 237.267C184.263 232.122 181.549 227.951 178.202 227.951H175.957V227.365H178.934C182.118 227.365 184.701 231.335 184.701 236.224C184.72 237.957 184.37 239.674 183.675 241.262Z" fill="white"/>
<path d="M184.701 236.267C184.701 241.169 182.118 245.133 178.934 245.133H175.957V227.377H178.934C182.118 227.377 184.701 231.348 184.701 236.267Z" stroke="#263238" stroke-width="1.95349" stroke-linecap="round" stroke-linejoin="round"/>
<path d="M175.957 245.102C179.142 245.102 181.724 241.136 181.724 236.243C181.724 231.35 179.142 227.383 175.957 227.383C172.772 227.383 170.19 231.35 170.19 236.243C170.19 241.136 172.772 245.102 175.957 245.102Z" fill="#263238"/>
<path d="M181.724 236.267C181.724 239.502 180.598 242.33 178.915 243.872C180.327 241.888 181.056 239.5 180.992 237.067C180.992 232.172 178.409 228.207 175.219 228.207C174.112 228.236 173.057 228.682 172.266 229.456C172.681 228.852 173.23 228.353 173.87 227.996C174.51 227.64 175.225 227.436 175.957 227.402C179.153 227.377 181.724 231.348 181.724 236.267Z" fill="white"/>
<path d="M178.29 236.268C178.29 238.247 177.245 239.851 175.957 239.851C174.668 239.851 173.63 238.247 173.63 236.268C173.63 234.289 174.675 232.69 175.957 232.69C177.239 232.69 178.29 234.264 178.29 236.268Z" fill="#9ABAE3"/>
<path d="M175.957 245.102C179.142 245.102 181.724 241.136 181.724 236.243C181.724 231.35 179.142 227.383 175.957 227.383C172.772 227.383 170.19 231.35 170.19 236.243C170.19 241.136 172.772 245.102 175.957 245.102Z" stroke="#263238" stroke-width="1.95349" stroke-linecap="round" stroke-linejoin="round"/>
<path d="M195.853 232.971H169.521V130.303C169.521 129.54 169.825 128.808 170.365 128.268C170.906 127.728 171.64 127.425 172.404 127.425H192.97C193.735 127.425 194.468 127.728 195.009 128.268C195.549 128.808 195.853 129.54 195.853 130.303V232.971Z" fill="white" stroke="#263238" stroke-width="1.95349" stroke-linecap="round" stroke-linejoin="round"/>
<path d="M182.987 127.425C181.79 127.425 180.641 127.9 179.794 128.745C178.947 129.59 178.471 130.737 178.471 131.933V232.971" stroke="#263238" stroke-width="1.95349" stroke-linecap="round" stroke-linejoin="round"/>
<path d="M191.081 127.425H245.247C246.242 127.425 247.197 127.819 247.901 128.522C248.604 129.225 249 130.177 249 131.171V232.971H188.197V130.309C188.197 129.931 188.271 129.556 188.415 129.206C188.56 128.856 188.772 128.538 189.04 128.27C189.308 128.002 189.626 127.79 189.976 127.644C190.326 127.499 190.702 127.425 191.081 127.425Z" fill="white" stroke="#263238" stroke-width="1.95349" stroke-linecap="round" stroke-linejoin="round"/>
<path d="M237.078 222.569H237.391C238.617 222.569 239.611 221.577 239.611 220.353V140.037C239.611 138.813 238.617 137.82 237.391 137.82H237.078C235.852 137.82 234.858 138.813 234.858 140.037V220.353C234.858 221.577 235.852 222.569 237.078 222.569Z" stroke="#263238" stroke-width="1.95349" stroke-linecap="round" stroke-linejoin="round"/>
<path d="M224.644 222.569H224.957C226.183 222.569 227.177 221.577 227.177 220.353V140.037C227.177 138.813 226.183 137.82 224.957 137.82H224.644C223.418 137.82 222.423 138.813 222.423 140.037V220.353C222.423 221.577 223.418 222.569 224.644 222.569Z" stroke="#263238" stroke-width="1.95349" stroke-linecap="round" stroke-linejoin="round"/>
<path d="M212.216 222.569H212.528C213.755 222.569 214.749 221.577 214.749 220.353V140.037C214.749 138.813 213.755 137.82 212.528 137.82H212.216C210.989 137.82 209.995 138.813 209.995 140.037V220.353C209.995 221.577 210.989 222.569 212.216 222.569Z" stroke="#263238" stroke-width="1.95349" stroke-linecap="round" stroke-linejoin="round"/>
<path d="M199.787 222.569H200.1C201.326 222.569 202.321 221.577 202.321 220.353V140.037C202.321 138.813 201.326 137.82 200.1 137.82H199.787C198.561 137.82 197.567 138.813 197.567 140.037V220.353C197.567 221.577 198.561 222.569 199.787 222.569Z" stroke="#263238" stroke-width="1.95349" stroke-linecap="round" stroke-linejoin="round"/>
<path d="M203.522 82.6965V77.4457H219.502V82.6965H225.513V73.2251H197.573V82.6965H203.522Z" fill="#EC644E" stroke="#263238" stroke-width="1.95349" stroke-linecap="round" stroke-linejoin="round"/>
<path d="M221.01 127.425H224.162V82.6903H221.01V127.425Z" fill="white" stroke="#263238" stroke-width="1.95349" stroke-linecap="round" stroke-linejoin="round"/>
<path d="M198.774 127.425H201.927V82.6903H198.774V127.425Z" fill="white" stroke="#263238" stroke-width="1.95349" stroke-linecap="round" stroke-linejoin="round"/>
<path d="M190.918 133.344V129.286H178.565V133.344H173.924V126.021H195.522V133.344H190.918Z" fill="#EC644E" stroke="#263238" stroke-width="1.95349" stroke-linecap="round" stroke-linejoin="round"/>
<path d="M177.402 133.344H174.969V167.92H177.402V133.344Z" fill="white" stroke="#263238" stroke-width="1.95349" stroke-linecap="round" stroke-linejoin="round"/>
<path d="M194.583 133.344H192.15V167.92H194.583V133.344Z" fill="white" stroke="#263238" stroke-width="1.95349" stroke-linecap="round" stroke-linejoin="round"/>
<path d="M157.887 238.253C157.887 242.036 159.882 245.121 162.34 245.121H164.642V231.404H162.34C159.851 231.404 157.887 234.469 157.887 238.253Z" fill="#263238"/>
<path d="M158.644 242.149C158.342 241.146 158.19 240.105 158.193 239.058C158.193 235.081 160.289 231.853 162.878 231.853H164.611V231.404H162.309C159.851 231.404 157.856 234.469 157.856 238.272C157.844 239.605 158.113 240.926 158.644 242.149Z" fill="white"/>
<path d="M157.887 238.253C157.887 242.036 159.882 245.121 162.34 245.121H164.642V231.404H162.34C159.851 231.404 157.887 234.469 157.887 238.253Z" stroke="#263238" stroke-width="1.95349" stroke-linecap="round" stroke-linejoin="round"/>
<path d="M164.611 245.102C167.07 245.102 169.064 242.036 169.064 238.253C169.064 234.47 167.07 231.404 164.611 231.404C162.151 231.404 160.158 234.47 160.158 238.253C160.158 242.036 162.151 245.102 164.611 245.102Z" fill="#263238"/>
<path d="M160.151 238.253C160.151 240.75 161.027 242.941 162.328 244.134C161.233 242.6 160.669 240.753 160.72 238.871C160.72 235.087 162.716 232.003 165.18 232.003C166.036 232.025 166.852 232.371 167.463 232.971C167.142 232.505 166.718 232.119 166.223 231.844C165.728 231.569 165.177 231.412 164.611 231.385C162.146 231.403 160.151 234.469 160.151 238.253Z" fill="white"/>
<path d="M162.809 238.253C162.809 239.776 163.616 241.019 164.611 241.019C165.605 241.019 166.412 239.77 166.412 238.253C166.412 236.736 165.605 235.487 164.611 235.487C163.616 235.487 162.809 236.723 162.809 238.253Z" fill="white"/>
<path d="M164.611 245.102C167.07 245.102 169.064 242.036 169.064 238.253C169.064 234.47 167.07 231.404 164.611 231.404C162.151 231.404 160.158 234.47 160.158 238.253C160.158 242.036 162.151 245.102 164.611 245.102Z" stroke="#263238" stroke-width="1.95349" stroke-linecap="round" stroke-linejoin="round"/>
<path d="M191.237 238.253C191.237 242.036 193.232 245.121 195.697 245.121H197.992V231.404H195.697C193.232 231.404 191.237 234.469 191.237 238.253Z" fill="#263238"/>
<path d="M192.031 242.149C191.724 241.148 191.57 240.106 191.575 239.058C191.575 235.081 193.67 231.853 196.26 231.853H197.992V231.404H195.697C193.232 231.404 191.237 234.469 191.237 238.272C191.228 239.605 191.498 240.926 192.031 242.149Z" fill="white"/>
<path d="M191.237 238.253C191.237 242.036 193.232 245.121 195.697 245.121H197.992V231.404H195.697C193.232 231.404 191.237 234.469 191.237 238.253Z" stroke="#263238" stroke-width="1.95349" stroke-linecap="round" stroke-linejoin="round"/>
<path d="M193.539 238.253C193.539 242.036 195.534 245.12 197.992 245.12C200.45 245.12 202.452 242.055 202.452 238.253C202.452 234.45 200.457 231.385 197.992 231.385C195.528 231.385 193.539 234.469 193.539 238.253Z" fill="#263238"/>
<path d="M193.539 238.253C193.539 240.75 194.408 242.941 195.709 244.134C194.622 242.597 194.06 240.751 194.108 238.871C194.108 235.087 196.103 232.003 198.561 232.003C199.418 232.023 200.235 232.369 200.844 232.971C200.525 232.504 200.101 232.117 199.606 231.842C199.111 231.567 198.558 231.41 197.992 231.385C195.534 231.403 193.539 234.469 193.539 238.253Z" fill="white"/>
<path d="M196.197 238.253C196.197 239.776 196.998 241.019 197.992 241.019C198.987 241.019 199.794 239.77 199.794 238.253C199.794 236.736 198.987 235.487 197.992 235.487C196.998 235.487 196.197 236.723 196.197 238.253Z" fill="white"/>
<path d="M193.539 238.253C193.539 242.036 195.534 245.12 197.992 245.12C200.45 245.12 202.452 242.055 202.452 238.253C202.452 234.45 200.457 231.385 197.992 231.385C195.528 231.385 193.539 234.469 193.539 238.253Z" stroke="#263238" stroke-width="1.95349" stroke-linecap="round" stroke-linejoin="round"/>
<path d="M205.467 238.253C205.467 242.036 207.462 245.121 209.926 245.121H212.222V231.404H209.926C207.462 231.404 205.467 234.469 205.467 238.253Z" fill="#263238"/>
<path d="M206.255 242.149C205.953 241.146 205.801 240.105 205.805 239.058C205.805 235.081 207.9 231.853 210.489 231.853H212.222V231.404H209.92C207.462 231.404 205.467 234.469 205.467 238.272C205.456 239.605 205.724 240.926 206.255 242.149Z" fill="white"/>
<path d="M205.467 238.253C205.467 242.036 207.462 245.121 209.926 245.121H212.222V231.404H209.926C207.462 231.404 205.467 234.469 205.467 238.253Z" stroke="#263238" stroke-width="1.95349" stroke-linecap="round" stroke-linejoin="round"/>
<path d="M212.222 245.102C214.682 245.102 216.675 242.036 216.675 238.253C216.675 234.47 214.682 231.404 212.222 231.404C209.763 231.404 207.769 234.47 207.769 238.253C207.769 242.036 209.763 245.102 212.222 245.102Z" fill="#263238"/>
<path d="M207.769 238.253C207.769 240.75 208.638 242.941 209.939 244.134C208.847 242.6 208.285 240.752 208.338 238.871C208.338 235.087 210.333 232.003 212.791 232.003C213.648 232.024 214.464 232.37 215.074 232.971C214.755 232.504 214.331 232.117 213.836 231.842C213.34 231.567 212.788 231.41 212.222 231.385C209.764 231.403 207.769 234.469 207.769 238.253Z" fill="white"/>
<path d="M210.427 238.253C210.427 239.776 211.234 241.019 212.228 241.019C213.223 241.019 214.029 239.77 214.029 238.253C214.029 236.736 213.223 235.487 212.228 235.487C211.234 235.487 210.427 236.723 210.427 238.253Z" fill="white"/>
<path d="M212.222 245.102C214.682 245.102 216.675 242.036 216.675 238.253C216.675 234.47 214.682 231.404 212.222 231.404C209.763 231.404 207.769 234.47 207.769 238.253C207.769 242.036 209.763 245.102 212.222 245.102Z" stroke="#263238" stroke-width="1.95349" stroke-linecap="round" stroke-linejoin="round"/>
<path d="M199.731 166.853H214.311C215.076 166.853 215.809 167.156 216.35 167.696C216.891 168.235 217.194 168.967 217.194 169.731V235.724H196.842V169.731C196.842 169.352 196.916 168.977 197.062 168.628C197.207 168.278 197.42 167.961 197.688 167.693C197.957 167.426 198.275 167.214 198.626 167.07C198.976 166.926 199.352 166.852 199.731 166.853Z" fill="#9ABAE3" stroke="#263238" stroke-width="1.95349" stroke-linecap="round" stroke-linejoin="round"/>
<path d="M206.793 166.853C207.681 166.817 208.546 167.134 209.201 167.734C209.855 168.335 210.244 169.169 210.283 170.055V235.724" stroke="#263238" stroke-width="1.95349" stroke-linecap="round" stroke-linejoin="round"/>
<path d="M202.765 235.724H155.779V170.58C155.779 169.586 156.174 168.633 156.878 167.931C157.582 167.228 158.537 166.834 159.532 166.834H199.875C200.64 166.834 201.373 167.137 201.914 167.677C202.455 168.216 202.758 168.949 202.758 169.712V235.724H202.765Z" fill="#9ABAE3" stroke="#263238" stroke-width="1.95349" stroke-linecap="round" stroke-linejoin="round"/>
<path d="M164.861 228.326C164.62 228.326 164.381 228.278 164.158 228.186C163.935 228.094 163.733 227.958 163.563 227.788C163.393 227.617 163.258 227.415 163.166 227.192C163.074 226.97 163.028 226.731 163.028 226.49V176.081C163.028 175.595 163.221 175.13 163.565 174.787C163.909 174.444 164.375 174.251 164.861 174.251C165.348 174.251 165.814 174.444 166.159 174.787C166.504 175.13 166.698 175.595 166.7 176.081V226.49C166.7 226.731 166.652 226.97 166.56 227.193C166.467 227.416 166.332 227.618 166.161 227.788C165.991 227.959 165.788 228.094 165.565 228.186C165.342 228.278 165.102 228.326 164.861 228.326Z" stroke="#263238" stroke-width="1.95349" stroke-linecap="round" stroke-linejoin="round"/>
<path d="M174.468 228.326C174.227 228.326 173.988 228.278 173.766 228.186C173.543 228.094 173.34 227.958 173.17 227.788C173 227.617 172.865 227.415 172.773 227.192C172.682 226.97 172.635 226.731 172.636 226.49V176.081C172.636 175.595 172.829 175.13 173.172 174.787C173.516 174.444 173.982 174.251 174.468 174.251C174.955 174.251 175.422 174.444 175.766 174.787C176.111 175.13 176.306 175.595 176.307 176.081V226.49C176.307 226.731 176.26 226.97 176.167 227.193C176.075 227.416 175.939 227.618 175.769 227.788C175.598 227.959 175.395 228.094 175.172 228.186C174.949 228.278 174.71 228.326 174.468 228.326Z" stroke="#263238" stroke-width="1.95349" stroke-linecap="round" stroke-linejoin="round"/>
<path d="M184.076 228.326C183.834 228.326 183.596 228.278 183.373 228.186C183.15 228.094 182.948 227.958 182.778 227.788C182.607 227.617 182.472 227.415 182.381 227.192C182.289 226.97 182.242 226.731 182.243 226.49V176.081C182.243 175.595 182.436 175.13 182.78 174.787C183.123 174.444 183.59 174.251 184.076 174.251C184.562 174.251 185.029 174.444 185.374 174.787C185.718 175.13 185.913 175.595 185.915 176.081V226.49C185.915 226.731 185.867 226.97 185.775 227.193C185.682 227.416 185.547 227.618 185.376 227.788C185.205 227.959 185.002 228.094 184.779 228.186C184.556 228.278 184.317 228.326 184.076 228.326Z" stroke="#263238" stroke-width="1.95349" stroke-linecap="round" stroke-linejoin="round"/>
<path d="M193.683 228.326C193.195 228.326 192.727 228.133 192.383 227.788C192.038 227.444 191.844 226.977 191.844 226.49V176.081C191.846 175.595 192.04 175.13 192.385 174.787C192.73 174.444 193.196 174.251 193.683 174.251C194.17 174.251 194.636 174.444 194.981 174.787C195.326 175.13 195.52 175.595 195.522 176.081V226.49C195.522 226.731 195.474 226.97 195.382 227.193C195.289 227.416 195.154 227.618 194.983 227.788C194.812 227.959 194.61 228.094 194.387 228.186C194.164 228.278 193.924 228.326 193.683 228.326Z" stroke="#263238" stroke-width="1.95349" stroke-linecap="round" stroke-linejoin="round"/>
<path d="M186.04 209.102L193.858 216.907L165.618 245.102L166.687 228.42L186.04 209.102Z" fill="#9ABAE3" stroke="#263238" stroke-width="1.95349" stroke-linecap="round" stroke-linejoin="round"/>
<path d="M156.911 219.448C162.541 224.617 166.687 228.42 166.687 228.42L186.033 209.102L178.008 198.376L156.911 219.448Z" fill="#FCD8C3" stroke="#263238" stroke-width="1.95349" stroke-linecap="round" stroke-linejoin="round"/>
<path d="M189.667 124.178H144.683L143.951 127.088C143.951 127.088 123.117 131.714 112.984 139.818C104.753 146.405 101.819 158.592 106.398 168.832C113.309 184.303 141.831 212.011 159.995 225.572C159.995 225.572 171.56 217.762 176.076 210.07C179.735 203.826 183.287 202.322 183.287 202.322C183.287 202.322 160.827 169.581 154.028 166.259C148.818 163.706 147.279 162.245 147.279 162.245C147.279 162.245 173.862 162.794 183.556 149.371C193.251 135.947 189.667 124.178 189.667 124.178Z" fill="#EC644E" stroke="#263238" stroke-width="1.95349" stroke-linecap="round" stroke-linejoin="round"/>
<path d="M147.923 234.063V245.102H107.98L120.559 234.063H147.923Z" fill="#9ABAE3" stroke="#263238" stroke-width="1.95349" stroke-linecap="round" stroke-linejoin="round"/>
<path d="M119.996 220.821C120.327 228.457 120.559 234.063 120.559 234.063H147.929C147.929 234.063 149.368 228.326 150.932 220.821H119.996Z" fill="#FCD8C3" stroke="#263238" stroke-width="1.95349" stroke-linecap="round" stroke-linejoin="round"/>
<path d="M158.513 124.178H210.79C222.436 173.595 166.831 172.253 163.785 175.038C162.121 176.555 163.785 183.004 162.403 190.89C160.007 204.494 150.832 229.075 150.832 229.075C150.832 229.075 145.609 229.393 135.476 229.762C123.154 230.211 116.431 227.439 116.987 227.439C116.987 227.439 121.553 170.168 125.444 160.303C130.573 147.292 145.747 143.446 159.276 134.836C160.42 134.112 153.728 132.132 153.728 132.132" fill="#EC644E"/>
<path d="M158.513 124.178H210.79C222.436 173.595 166.831 172.253 163.785 175.038C162.121 176.555 163.785 183.004 162.403 190.89C160.007 204.494 150.832 229.075 150.832 229.075C150.832 229.075 145.609 229.393 135.476 229.762C123.154 230.211 116.431 227.439 116.987 227.439C116.987 227.439 121.553 170.168 125.444 160.303C130.573 147.292 145.747 143.446 159.276 134.836C160.42 134.112 153.728 132.132 153.728 132.132" stroke="#263238" stroke-width="1.95349" stroke-linecap="round" stroke-linejoin="round"/>
<path d="M205.579 127.088C205.579 127.088 218.089 160.996 166.337 169.025C166.337 169.025 157.749 166.528 158.006 167.227C158.262 167.926 159.989 171.654 159.989 171.654L156.236 172.209C156.236 172.209 158.025 188.617 146.51 221.702" stroke="#263238" stroke-width="1.95349" stroke-linecap="round" stroke-linejoin="round"/>
<path d="M148.774 81.7915C148.774 81.7915 135.801 105.442 130.01 107.427C120.627 110.643 94.5139 86.6739 93.3881 86.0371C90.8862 84.6198 84.2374 78.1578 85.3194 74.4617C85.8073 72.7884 86.7768 72.4076 86.7768 72.4076C86.7768 72.4076 85.5696 69.9539 86.9207 68.5304C88.1028 67.2817 90.6172 68.5304 90.6172 68.5304C90.6172 68.5304 88.4593 65.5772 90.1794 64.3847C92.4874 62.7739 102.376 69.4482 102.764 69.3795C103.89 69.1797 119.502 79.3691 120.427 79.0506C121.353 78.7322 130.241 69.3795 130.241 69.3795C130.241 69.3795 145.922 80.3555 148.774 81.7915Z" fill="#FCD8C3" stroke="#263238" stroke-width="1.95349" stroke-linecap="round" stroke-linejoin="round"/>
<path d="M112.002 76.1222C112.002 76.1222 110.22 71.0962 109.65 69.3043C109.119 67.6373 108.6 65.0276 108.312 63.9911C107.649 61.5687 104.453 61.4937 103.602 66.3137C103.152 68.8111 103.364 72.4635 103.045 75.9224" fill="#FCD8C3"/>
<path d="M112.002 76.1222C112.002 76.1222 110.22 71.0962 109.65 69.3043C109.119 67.6373 108.6 65.0276 108.312 63.9911C107.649 61.5687 104.453 61.4937 103.602 66.3137C103.152 68.8111 103.364 72.4635 103.045 75.9224" stroke="#263238" stroke-width="1.95349" stroke-linecap="round" stroke-linejoin="round"/>
<path d="M86.9519 72.6882C88.0215 75.2356 92.9627 79.0753 92.9627 79.0753" stroke="#263238" stroke-width="1.95349" stroke-linecap="round" stroke-linejoin="round"/>
<path d="M90.3357 68.1931C92.4113 70.2563 94.6493 72.15 97.0283 73.8559" stroke="#263238" stroke-width="1.95349" stroke-linecap="round" stroke-linejoin="round"/>
<path d="M174.912 52.4783C182.618 53.3025 195.24 51.6355 204.222 55.3878C211.89 58.5844 214.111 64.4471 218.814 72.0828C223.518 79.7186 225.482 83.8705 225.482 84.7946C225.482 84.7946 224.062 84.1702 221.004 84.7946C217.945 85.4189 212.91 87.5792 206.349 88.5407C206.349 88.5407 213.348 117.354 214.442 121.281C215.537 125.209 217.282 130.559 216.844 131.758C216.844 131.758 214.874 130.447 210.064 131.758C205.254 133.069 189.843 136.753 168.52 133.931C147.198 131.109 136.271 125.19 134.307 126.626C134.307 126.626 132.555 127.937 134.851 119.758C137.146 111.579 143.708 86.3679 145.021 80.1494C145.021 80.1494 139.798 76.8716 136.327 74.6052C132.856 72.3388 129.659 68.6614 128.071 68.7426C128.071 68.7426 137.29 56.0621 144.802 51.5918C152.314 47.1214 166.8 51.6042 174.912 52.4783Z" fill="#9ABAE3"/>
<path d="M134.851 119.771C132.555 127.962 134.3 126.639 134.3 126.639C134.651 126.389 135.289 126.464 136.227 126.776C136.475 125.123 136.841 123.489 137.321 121.887C139.617 113.702 144.758 87.9977 146.078 81.7854C146.207 81.3192 146.172 80.8231 145.98 80.3791C145.788 79.9352 145.449 79.5701 145.021 79.3442C143.295 86.9863 137.034 112.023 134.851 119.771Z" fill="white"/>
<path d="M128.077 68.7551C128.821 68.7114 129.953 69.5043 131.242 70.6281C133.531 67.6125 140.993 58.1411 147.266 54.3951C154.772 49.9185 169.264 54.3951 177.377 55.2692C185.083 56.0995 197.705 54.4325 206.687 58.1786C208.843 59.0574 210.817 60.3275 212.51 61.9247C210.412 59.0214 207.541 56.7633 204.222 55.4065C195.24 51.6604 182.618 53.3212 174.912 52.4908C166.781 51.623 152.308 47.1464 144.802 51.623C137.296 56.0995 128.077 68.7551 128.077 68.7551Z" fill="white"/>
<path d="M174.912 52.4782C182.618 53.3023 195.24 51.6353 204.222 55.3876C211.89 58.5843 214.111 64.4469 218.814 72.0827C223.518 79.7185 225.482 83.8704 225.482 84.7944C225.482 84.7944 224.062 84.1701 221.004 84.7944C217.945 85.4187 212.91 87.579 206.349 88.5405C206.349 88.5405 213.348 117.354 214.442 121.281C215.537 125.208 217.282 130.559 216.844 131.758C216.844 131.758 214.874 130.447 210.064 131.758C205.254 133.069 189.843 136.753 168.52 133.931C147.198 131.109 136.271 125.19 134.307 126.626C134.307 126.626 132.555 127.281 134.851 119.096C137.146 110.911 143.708 86.3615 145.021 80.143C145.021 80.143 139.798 76.8652 136.327 74.5988C132.856 72.3324 129.659 68.655 128.071 68.7362C128.071 68.7362 137.29 56.0557 144.802 51.5853C152.314 47.115 166.8 51.6041 174.912 52.4782Z" stroke="#263238" stroke-width="1.95349" stroke-linecap="round" stroke-linejoin="round"/>
<path d="M206.349 88.5596C202.927 89.2152 198.274 89.0528 197.905 88.8905C197.536 88.7282 195.578 81.1423 195.578 81.1423" stroke="#263238" stroke-width="1.95349" stroke-linecap="round" stroke-linejoin="round"/>
<path d="M193.777 82.5034L196.579 84.8697" stroke="#263238" stroke-width="1.95349" stroke-linecap="round" stroke-linejoin="round"/>
<path d="M145.021 80.181C145.671 77.6084 146.481 75.079 147.448 72.6077" stroke="#263238" stroke-width="1.95349" stroke-linecap="round" stroke-linejoin="round"/>
<path d="M226.139 85.0881C225.332 86.5428 223.105 86.9612 223.105 86.9612L222.342 84.5949C222.342 84.5949 226.583 84.2889 226.139 85.0881Z" fill="#263238"/>
<path d="M167.751 117.879C167.751 117.879 161.74 114.52 154.616 106.272" stroke="#263238" stroke-width="1.95349" stroke-linecap="round" stroke-linejoin="round"/>
<path d="M158.975 116.63C157.027 115.394 155.289 113.856 153.828 112.072" stroke="#263238" stroke-width="1.95349" stroke-linecap="round" stroke-linejoin="round"/>
<path d="M162.078 78.3076C163.073 77.3145 164.342 76.6383 165.722 76.3646C167.103 76.0909 168.534 76.232 169.834 76.7699C171.134 77.3078 172.246 78.2185 173.027 79.3868C173.809 80.5551 174.227 81.9286 174.227 83.3336C174.227 84.7386 173.809 86.1121 173.027 87.2804C172.246 88.4487 171.134 89.3594 169.834 89.8973C168.534 90.4352 167.103 90.5763 165.722 90.3026C164.342 90.0289 163.073 89.3527 162.078 88.3596C161.416 87.6998 160.891 86.9163 160.533 86.0539C160.175 85.1915 159.991 84.2671 159.991 83.3336C159.991 82.4001 160.175 81.4757 160.533 80.6133C160.891 79.7509 161.416 78.9674 162.078 78.3076Z" fill="#EC644E"/>
<path d="M164.286 70.5032C164.974 73.3877 160.57 74.5552 159.87 71.6208C159.138 68.5053 163.516 67.3502 164.286 70.5032Z" fill="#EC644E"/>
<path d="M177.84 76.7031C175.913 78.3576 174.85 76.0163 171.873 74.2057C169.371 72.7135 165.881 72.6199 165.849 70.6719C165.818 68.7239 168.351 66.8634 173.299 69.1735C177.452 71.1464 179.847 74.9737 177.84 76.7031Z" fill="#EC644E"/>
<path d="M184.576 107.646H170.546L168.983 84.3762H186.139L184.576 107.646Z" fill="white" stroke="#263238" stroke-width="1.95349" stroke-linecap="round" stroke-linejoin="round"/>
<path d="M187.685 80.655H167.438V84.3761H187.685V80.655Z" fill="white" stroke="#263238" stroke-width="1.95349" stroke-linecap="round" stroke-linejoin="round"/>
<path d="M185.977 78.4949H169.152V80.6551H185.977V78.4949Z" fill="white" stroke="#263238" stroke-width="1.95349" stroke-linecap="round" stroke-linejoin="round"/>
<path d="M222.061 84.8012C222.061 84.8012 228.566 104.056 227.014 110.774C225.588 117.018 221.929 119.359 215.224 120.139C208.519 120.92 191.181 120.108 179.835 117.224C168.489 114.339 165.311 112.285 163.779 110.63C163.118 109.988 162.653 109.173 162.437 108.278C162.221 107.383 162.264 106.445 162.559 105.573C162.25 104.977 162.063 104.326 162.009 103.657C161.955 102.988 162.036 102.315 162.247 101.677C162.664 100.591 163.474 99.6996 164.517 99.1799C164.517 99.1799 163.179 96.6014 165.236 94.5473C166.429 93.3317 167.95 92.4898 169.615 92.1248L169.765 95.4963C169.765 95.4963 179.935 96.3454 182.205 96.3454C182.205 96.3454 179.704 88.8158 181.949 87.4609C185.32 85.4006 187.578 94.4911 190.868 97.0135L201.701 96.002L199.825 88.9844C203.668 89.0138 207.497 88.5009 211.196 87.4609C216.056 86.0249 220.434 84.7013 222.061 84.8012Z" fill="#FCD8C3" stroke="#263238" stroke-width="1.95349" stroke-linecap="round" stroke-linejoin="round"/>
<path d="M181.949 87.4604C181.949 87.4604 183.119 92.2305 186.796 91.9557" stroke="#263238" stroke-width="1.95349" stroke-linecap="round" stroke-linejoin="round"/>
<path d="M164.517 99.1797C165.906 101.496 169.69 101.496 169.69 101.496" stroke="#263238" stroke-width="1.95349" stroke-linecap="round" stroke-linejoin="round"/>
<path d="M162.459 105.423C163.91 107.971 167.863 107.971 167.863 107.971" stroke="#263238" stroke-width="1.95349" stroke-linecap="round" stroke-linejoin="round"/>
<path d="M217.582 132.176C216.857 133.506 212.816 134.349 212.816 134.349L212.103 131.339C212.103 131.339 218.27 130.921 217.582 132.176Z" fill="#263238"/>
<path d="M133.493 126.645C134.832 125.852 138.948 127.269 138.948 127.269L137.596 129.336C137.596 129.336 132.242 127.388 133.493 126.645Z" fill="#263238"/>
<path d="M172.16 53.9019C172.16 53.9019 169.258 57.2234 171.278 57.9164C174.443 59.0028 179.566 54.4201 179.566 54.4201L172.16 53.9019Z" fill="#263238"/>
<path d="M184.263 48.0827C186.14 42.7819 184.076 37.1878 179.603 35.5957C175.131 34.0036 169.959 37.0005 168.051 42.3074C166.143 47.6144 168.239 53.2085 172.717 54.7944C177.195 56.3802 182.362 53.3896 184.263 48.0827Z" fill="#FCD8C3" stroke="#263238" stroke-width="1.95349" stroke-linecap="round" stroke-linejoin="round"/>
<path d="M172.717 54.7947C173.942 55.2278 175.26 55.3332 176.539 55.1006C175.898 55.0602 175.266 54.9299 174.662 54.7135C170.422 53.1964 168.445 47.8957 170.246 42.8509C172.048 37.8062 176.952 34.9779 181.192 36.4888L181.511 36.6137C180.923 36.1719 180.271 35.8205 179.578 35.571C175.1 33.979 169.934 36.9758 168.026 42.2828C166.118 47.5897 168.239 53.1901 172.717 54.7947Z" fill="white"/>
<path d="M184.263 48.0827C186.14 42.7819 184.076 37.1878 179.603 35.5957C175.131 34.0036 169.959 37.0005 168.051 42.3074C166.143 47.6144 168.239 53.2085 172.717 54.7944C177.195 56.3802 182.362 53.3896 184.263 48.0827Z" stroke="#263238" stroke-width="1.95349" stroke-linecap="round" stroke-linejoin="round"/>
<path d="M182.043 36.8074C182.043 36.8074 174.819 46.0602 182.387 51.6356C182.387 51.6356 189.786 42.6638 182.043 36.8074Z" fill="#263238"/>
<path d="M183.907 48.9633C180.519 44.4306 176.572 40.3422 172.16 36.7948C172.16 36.7948 177.439 32.6241 182.593 37.1631C186.496 40.6158 185.476 46.4659 183.907 48.9633Z" fill="#9ABAE3" stroke="#263238" stroke-width="1.95349" stroke-linecap="round" stroke-linejoin="round"/>
<path d="M179.829 43.8939C179.829 43.8939 180.648 39.1364 179.353 36.8075C178.152 34.6473 171.998 30.4017 170.315 30.7576C168.095 31.2321 170.565 37.9064 170.565 37.9064L171.816 36.7888C175.188 38.8429 179.829 43.8939 179.829 43.8939Z" fill="#9ABAE3" stroke="#263238" stroke-width="1.95349" stroke-linecap="round" stroke-linejoin="round"/>
<path d="M156.405 126.926C145.102 124.366 139.767 121.787 137.321 121.893" stroke="#263238" stroke-width="1.95349" stroke-linecap="round" stroke-linejoin="round"/>
<path d="M213.085 126.788C207.95 126.389 190.631 132.501 168.751 129.23C166.056 128.824 163.572 128.393 161.283 127.95" stroke="#263238" stroke-width="1.95349" stroke-linecap="round" stroke-linejoin="round"/>
<path d="M167.269 55.625C166.368 57.1734 165.843 61.65 171.116 62.0183C177.37 62.4491 183.488 57.1734 183.488 57.1734" stroke="#263238" stroke-width="1.95349" stroke-linecap="round" stroke-linejoin="round"/>
<path d="M107.03 62.7861C107.03 62.7861 105.81 67.0629 108.656 68.193" stroke="#263238" stroke-width="1.95349" stroke-linecap="round" stroke-linejoin="round"/>
</svg>
