<svg width="385" height="554" viewBox="0 0 385 554" fill="none" xmlns="http://www.w3.org/2000/svg">
<path d="M100.5 424.14H104.38V433.7H87.58V424.14H91.48V425.88H100.5V424.14ZM91.48 428.84V430.62H100.5V428.84H91.48ZM86.8 435.14H105.2V438.22H97.94V442.62H94.06V438.22H86.8V435.14ZM123.92 423.86V428.84H125.72V432.12H123.92V437.92H120.12V423.86H123.92ZM113.04 430.92C111.78 433.02 109.58 434.48 106.8 434.9V431.64C109.12 430.82 110.44 428.94 110.46 425.78V424.22H114.22V426.46C114.22 427 114.18 427.52 114.1 428.02C116.94 428.46 118.84 430.8 118.78 434.46H115.1C115.16 432.88 114.34 431.36 113.04 430.92ZM107.82 435.74H111.68V439.56H124.4V442.52H107.82V435.74ZM144.04 442.52H140.24V423.86H144.04V442.52ZM126.38 431.06V429.14C126.38 425.66 128.94 424.08 132.22 424.08C135.5 424.08 138.04 425.66 138.04 429.14V431.06C138.04 434.54 135.5 436.12 132.22 436.12C128.94 436.12 126.38 434.54 126.38 431.06ZM130.1 428.8V431.4C130.1 432.7 131.16 433.18 132.22 433.18C133.28 433.18 134.34 432.7 134.34 431.4V428.8C134.34 427.52 133.28 427.02 132.22 427.02C131.16 427.02 130.1 427.52 130.1 428.8ZM135.06 441.72H126.04V438.54H135.06C137.12 438.54 138.2 438.46 139.26 438.3V441.48C138.2 441.64 137.12 441.72 135.06 441.72ZM168.285 430.84H170.185V434.12H168.285V442.52H164.485V423.86H168.285V430.84ZM158.465 427.74H151.405V424.5H162.185V430.08C162.185 436.88 157.985 441.14 151.165 441.74V438.6C154.445 438.12 156.665 436.62 157.725 434.24H151.225V431.06H158.445C158.465 430.84 158.465 430.62 158.465 430.4V427.74ZM179.525 431.2H181.305V423.86H184.505V442.52H181.305V434.52H179.525V431.2ZM185.505 442.52V423.86H188.805V442.52H185.505ZM170.745 424.44H179.865V427.52H170.745V424.44ZM175.865 428.26H178.985V438.78H180.165V441.72H170.545V438.78H171.745V428.26H174.865V438.78H175.865V428.26ZM207.825 431.36H190.865V426.78H203.725V426.06H190.785V423.96H207.645V428.52H194.765V429.26H207.825V431.36ZM190.125 432.04H208.525V434.42H190.125V432.04ZM208.185 442.52H190.705V437.84H203.745V437.16H190.705V435.1H207.865V439.76H194.825V440.44H208.185V442.52ZM232.471 423.86V427.24H234.271V430.52H232.471V434.32H228.671V423.86H232.471ZM223.031 424.06H226.491V433.86H215.391V424.06H218.891V426.04H223.031V424.06ZM218.891 428.7V431.06H223.031V428.7H218.891ZM220.291 434.94H228.531C231.311 434.94 232.791 436.52 232.791 438.76C232.791 441 231.311 442.58 228.531 442.58H220.291C217.471 442.58 216.031 440.94 216.031 438.76C216.031 436.56 217.471 434.94 220.291 434.94ZM221.251 440.02H227.571C228.491 440.02 228.931 439.52 228.931 438.76C228.931 438 228.491 437.48 227.571 437.48H221.251C220.351 437.48 219.891 438 219.891 438.76C219.891 439.52 220.351 440.02 221.251 440.02ZM235.311 424.04H252.271V431.6H235.311V424.04ZM239.111 428.86H248.471V426.78H239.111V428.86ZM234.591 435.62V432.64H252.991V435.62H245.931V438.32H242.051V435.62H234.591ZM235.431 436.5H239.331V439.64H252.371V442.52H235.431V436.5ZM269.211 431.1V423.86H272.511V442.52H269.211V434.22H268.011V442.52H264.711V423.86H268.011V431.1H269.211ZM257.131 423.94H260.691V425.9H263.931V428.84H262.871C263.131 429.42 263.271 430.1 263.271 430.88V437.28C263.271 440.62 261.731 442.24 258.971 442.24C256.211 442.24 254.651 440.62 254.651 437.28V430.88C254.651 430.1 254.791 429.42 255.051 428.84H253.991V425.9H257.131V423.94ZM259.991 437.96V429.98C259.991 429.06 259.611 428.68 258.971 428.68C258.311 428.68 257.931 429.06 257.931 429.98V437.96C257.931 438.86 258.311 439.26 258.971 439.26C259.611 439.26 259.991 438.86 259.991 437.96ZM286.551 434.74H279.491C276.231 434.74 274.271 432.4 274.271 429.72V429.26C274.271 426.58 276.231 424.24 279.491 424.24H286.551C289.811 424.24 291.791 426.58 291.791 429.26V429.72C291.791 432.4 289.811 434.74 286.551 434.74ZM278.211 429.42V429.58C278.211 430.8 279.051 431.66 280.491 431.66H285.551C286.991 431.66 287.851 430.8 287.851 429.58V429.42C287.851 428.2 286.991 427.32 285.551 427.32H280.491C279.051 427.32 278.211 428.2 278.211 429.42ZM288.671 435.74V439.04H292.231V442.02H273.831V439.04H277.391V435.74H281.071V439.04H284.991V435.74H288.671ZM297.531 442.12H293.651V438.28H297.531V442.12Z" fill="#FF634C"/>
<circle cx="192.5" cy="383.5" r="16.5" fill="#FF634C"/>
<path d="M195.324 392.701H191.448V380.359H188.612V377.32C190.632 377.238 191.754 376.585 192.1 374.81H195.324V392.701Z" fill="white"/>
<path d="M86.8127 477.189V478.35H72.5041V477.189H86.8127ZM75.5802 465.922V468.84H83.7013V465.922H85.0548V474.061H74.1916V465.922H75.5802ZM75.5802 472.953H83.7013V469.947H75.5802V472.953ZM99.8915 465.43V469.49H90.4696V471.512H100.225V472.654H89.0809V468.4H98.4852V466.555H89.0458V465.43H99.8915ZM101.632 474.307V475.414H95.1278V480.459H93.7567V475.414H87.3231V474.307H101.632ZM115.08 464.814V474.113H113.709V464.814H115.08ZM109.859 474.43C113.111 474.43 115.115 475.52 115.132 477.4C115.115 479.299 113.111 480.389 109.859 480.389C106.572 480.389 104.586 479.299 104.586 477.4C104.586 475.52 106.572 474.43 109.859 474.43ZM109.859 475.52C107.433 475.52 105.974 476.223 105.974 477.4C105.974 478.578 107.433 479.281 109.859 479.281C112.267 479.281 113.761 478.578 113.761 477.4C113.761 476.223 112.267 475.52 109.859 475.52ZM106.642 465.799C109.015 465.816 110.738 467.293 110.738 469.455C110.738 471.617 109.015 473.076 106.642 473.094C104.269 473.076 102.546 471.617 102.546 469.455C102.546 467.293 104.269 465.816 106.642 465.799ZM106.642 466.994C105.043 466.977 103.882 467.979 103.9 469.455C103.882 470.914 105.043 471.916 106.642 471.934C108.224 471.916 109.384 470.914 109.384 469.455C109.384 467.979 108.224 466.977 106.642 466.994ZM135.103 474.078V475.203H128.581V480.424H127.228V475.203H120.794V474.078H135.103ZM123.993 465.447V467.609H131.868V465.447H133.257V472.18H122.622V465.447H123.993ZM123.993 471.055H131.868V468.734H123.993V471.055ZM140.904 467.75C140.886 469.895 142.521 471.881 144.824 472.689L144.121 473.797C142.345 473.155 140.966 471.828 140.271 470.158C139.612 472.03 138.197 473.472 136.351 474.184L135.595 473.076C137.969 472.232 139.533 470.123 139.551 467.697V465.764H140.904V467.75ZM147.865 464.797V469.596H150.22V470.773H147.865V476.346H146.494V464.797H147.865ZM148.586 478.93V480.09H138.109V475.238H139.515V478.93H148.586ZM163.37 464.797V480.459H161.981V464.797H163.37ZM155.055 466.01C157.375 466.027 159.045 468.137 159.045 471.459C159.045 474.781 157.375 476.891 155.055 476.891C152.717 476.891 151.065 474.781 151.065 471.459C151.065 468.137 152.717 466.027 155.055 466.01ZM155.055 467.24C153.491 467.258 152.401 468.91 152.401 471.459C152.401 474.008 153.491 475.66 155.055 475.66C156.62 475.66 157.709 474.008 157.709 471.459C157.709 468.91 156.62 467.258 155.055 467.24ZM183.428 477.242V478.385H169.119V477.242H175.518V473.41H176.871V477.242H183.428ZM176.906 467.064C176.906 469.684 180 471.969 182.725 472.443L182.109 473.586C179.727 473.103 177.214 471.485 176.203 469.227C175.175 471.477 172.679 473.103 170.297 473.586L169.682 472.443C172.406 471.969 175.465 469.684 175.465 467.064V465.869H176.906V467.064ZM197.298 464.797V480.424H195.944V472.25H193.782V479.65H192.464V465.219H193.782V471.107H195.944V464.797H197.298ZM190.688 466.836C190.671 470.809 189.282 474.57 184.782 477.066L183.973 476.1C187.603 474.078 189.106 471.213 189.335 467.979H184.571V466.836H190.688ZM210.886 464.797V471.248H213.505V472.391H210.886V480.424H209.515V464.797H210.886ZM208.003 467.311V468.453H198.704V467.311H202.73V464.99H204.101V467.311H208.003ZM203.433 469.754C205.648 469.754 207.247 471.23 207.265 473.34C207.247 475.449 205.648 476.926 203.433 476.926C201.201 476.926 199.583 475.449 199.601 473.34C199.583 471.23 201.201 469.754 203.433 469.754ZM203.433 470.914C201.974 470.914 200.902 471.934 200.919 473.34C200.902 474.764 201.974 475.766 203.433 475.748C204.874 475.766 205.929 474.764 205.947 473.34C205.929 471.934 204.874 470.914 203.433 470.914ZM226.268 469.543V470.65H215.563V465.377H216.934V469.543H226.268ZM227.92 472.777V473.902H213.611V472.777H227.92ZM226.356 478.895V480.037H215.475V475.502H216.846V478.895H226.356ZM244.814 465.43V469.49H235.392V471.512H245.148V472.654H234.003V468.4H243.408V466.555H233.968V465.43H244.814ZM246.554 474.307V475.414H240.05V480.459H238.679V475.414H232.246V474.307H246.554ZM259.756 473.252V474.377H248.946V466.15H259.58V467.311H250.352V469.631H259.246V470.738H250.352V473.252H259.756ZM261.408 477.242V478.385H247.1V477.242H261.408ZM280.025 472.654V473.797H265.734V472.654H272.168V470.246H273.521V472.654H280.025ZM273.539 465.781C273.539 467.855 276.351 469.596 279.111 469.982L278.549 471.09C276.175 470.677 273.829 469.42 272.853 467.609C271.869 469.429 269.513 470.677 267.123 471.09L266.595 469.982C269.355 469.596 272.15 467.855 272.15 465.781V465.043H273.539V465.781ZM278.215 475.326V480.424H276.826V476.434H267.316V475.326H278.215ZM296.585 464.797V468.629H298.941V469.771H296.585V473.674H295.214V464.797H296.585ZM292.314 465.816C292.296 469.754 289.536 472.566 284.913 473.832L284.351 472.725C288.2 471.688 290.547 469.604 290.837 466.959H285.054V465.816H292.314ZM296.585 474.395V480.213H286.689V474.395H296.585ZM288.06 475.537V479.088H295.214V475.537H288.06ZM304.584 467.258C304.566 469.49 306.148 471.459 308.451 472.232L307.678 473.305C305.955 472.654 304.601 471.389 303.933 469.736C303.257 471.608 301.824 473.067 299.943 473.779L299.187 472.654C301.596 471.811 303.195 469.736 303.213 467.311V465.693H304.584V467.258ZM312.16 464.797V474.061H310.771V469.297H307.291V468.154H310.771V464.797H312.16ZM306.974 474.518C310.226 474.518 312.213 475.59 312.213 477.471C312.213 479.334 310.226 480.389 306.974 480.389C303.723 480.389 301.736 479.334 301.736 477.471C301.736 475.59 303.723 474.518 306.974 474.518ZM306.974 475.607C304.584 475.607 303.09 476.311 303.107 477.471C303.09 478.596 304.584 479.281 306.974 479.281C309.365 479.281 310.842 478.596 310.842 477.471C310.842 476.311 309.365 475.607 306.974 475.607ZM101.623 502.33V503.49H87.3143V502.33H93.7479V499.377H89.1073V494.561H98.4589V492.1H89.0722V490.957H99.8124V495.686H90.4784V498.234H100.182V499.377H95.1014V502.33H101.623ZM110.237 490.57C110.237 494.49 107.969 497.127 103.118 498.41L102.608 497.32C105.218 496.661 106.923 495.598 107.864 494.244L102.766 494.613L102.538 493.506L108.409 493.242C108.611 492.75 108.734 492.223 108.778 491.678H103.329V490.57H110.237ZM115.106 489.797V497.9H113.717V494.719H110.29V493.576H113.717V489.797H115.106ZM115.106 498.604V502.348H106.37V504.105H115.633V505.213H105.016V501.311H113.735V499.711H104.981V498.604H115.106ZM128.889 491.432C128.871 495.949 127.342 500.08 121.717 502.84L120.943 501.785C123.888 500.361 125.654 498.551 126.604 496.441L121.242 496.951L121.014 495.738L127.025 495.334C127.298 494.455 127.456 493.532 127.518 492.574H121.805V491.432H128.889ZM132.879 489.797V496.16H135.41V497.32H132.879V505.424H131.508V489.797H132.879ZM149.069 489.797V505.424H147.733V489.797H149.069ZM146.011 490.184V504.598H144.692V496.986H142.512V495.738H144.692V490.184H146.011ZM142.969 491.801V492.943H141.651V500.168C142.24 500.133 142.803 500.08 143.321 500.01L143.409 501.029C140.948 501.486 137.661 501.557 135.622 501.557L135.446 500.379L137.098 500.361V492.943H135.78V491.801H142.969ZM138.364 500.344C139.014 500.326 139.7 500.3 140.368 500.256V492.943H138.364V500.344ZM164.749 497.057V498.146H150.441V497.057H164.749ZM162.957 499.395V502.717H153.57V504.211H163.466V505.213H152.181V501.768H161.585V500.432H152.164V499.395H162.957ZM162.904 490.271V493.506H153.675V494.877H163.185V495.879H152.304V492.557H161.515V491.273H152.251V490.271H162.904ZM174.718 492.697C174.718 494.807 176.388 496.723 178.726 497.479L178.022 498.551C176.203 497.936 174.753 496.644 174.05 494.982C173.364 496.767 171.896 498.173 170.042 498.85L169.321 497.777C171.659 496.951 173.329 494.912 173.329 492.697V492.029H169.673V490.904H178.321V492.029H174.718V492.697ZM181.995 489.797V499.254H180.624V489.797H181.995ZM181.995 500.08V505.424H180.624V501.223H171.483V500.08H181.995ZM196.867 489.797V498.287H195.496V494.754H192.332V493.594H195.496V489.797H196.867ZM188.201 499.043V500.994H195.496V499.043H196.867V505.213H186.812V499.043H188.201ZM188.201 504.088H195.496V502.102H188.201V504.088ZM189.361 492.346C189.361 494.35 190.925 496.318 193.211 497.109L192.49 498.182C190.723 497.54 189.361 496.23 188.693 494.613C188.016 496.424 186.575 497.874 184.72 498.551L184 497.461C186.302 496.635 187.972 494.561 187.972 492.346V491.889H184.439V490.746H192.859V491.889H189.361V492.346ZM207.89 493.066C207.89 494.93 209.472 496.652 211.775 497.338L211.124 498.393C209.322 497.856 207.916 496.696 207.239 495.193C206.554 496.846 205.104 498.103 203.249 498.709L202.564 497.619C204.884 496.916 206.536 495.123 206.536 493.066V492.768H203.003V491.625H206.536V489.727H207.925V491.625H211.423V492.768H207.89V493.066ZM214.78 489.797V493.664H217.136V494.824H214.78V498.885H213.409V489.797H214.78ZM215.062 499.729V500.854H210.632C210.86 502.488 213.154 503.895 215.659 504.299L215.15 505.371C212.856 504.993 210.781 503.859 209.894 502.295C208.997 503.851 206.941 504.958 204.673 505.354L204.146 504.299C206.668 503.895 208.936 502.515 209.173 500.854H204.761V499.729H215.062ZM221.584 491.01C223.887 491.027 225.521 493.137 225.539 496.459C225.521 499.781 223.887 501.891 221.584 501.891C219.263 501.891 217.646 499.781 217.646 496.459C217.646 493.137 219.263 491.027 221.584 491.01ZM221.584 492.24C220.037 492.258 218.947 493.91 218.947 496.459C218.947 499.008 220.037 500.66 221.584 500.66C223.148 500.66 224.203 499.008 224.203 496.459C224.203 493.91 223.148 492.258 221.584 492.24ZM229.494 489.797V496.037H232.113V497.232H229.494V505.424H228.123V489.797H229.494ZM244.331 489.797V496.16H246.862V497.32H244.331V505.424H242.96V489.797H244.331ZM240.288 491.484C240.288 495.914 238.213 499.939 233.116 502.453L232.342 501.363C236.385 499.351 238.583 496.345 238.899 492.645H233.063V491.484H240.288ZM265.18 502.277V503.42H250.871V502.277H257.305V498.902H252.559V490.904H253.947V493.734H262.068V490.904H263.422V498.902H258.658V502.277H265.18ZM253.947 497.777H262.068V494.859H253.947V497.777ZM270.348 494.244C270.348 496.723 271.561 499.412 273.635 500.643L272.844 501.715C271.341 500.801 270.26 499.131 269.716 497.232C269.135 499.307 267.975 501.091 266.411 502.049L265.532 501.012C267.694 499.746 269.012 496.969 269.012 494.297V491.273H270.348V494.244ZM279.102 489.797V505.424H277.766V489.797H279.102ZM275.868 490.131V504.633H274.567V496.582H271.913V495.404H274.567V490.131H275.868ZM294.853 502.26V503.42H280.544V502.26H284.095V498.041C282.759 497.347 281.951 496.222 281.951 494.807C281.951 492.381 284.324 490.799 287.663 490.781C291.003 490.799 293.376 492.381 293.376 494.807C293.376 496.195 292.594 497.312 291.302 498.006V502.26H294.853ZM287.663 491.924C285.097 491.906 283.287 493.066 283.287 494.807C283.287 496.547 285.097 497.725 287.663 497.725C290.212 497.725 292.04 496.547 292.04 494.807C292.04 493.066 290.212 491.906 287.663 491.924ZM285.449 502.26H289.913V498.533C289.237 498.718 288.481 498.814 287.663 498.814C286.864 498.814 286.117 498.727 285.449 498.551V502.26ZM297.033 504.105C296.418 504.105 295.891 503.596 295.908 502.963C295.891 502.348 296.418 501.838 297.033 501.838C297.649 501.838 298.158 502.348 298.158 502.963C298.158 503.596 297.649 504.105 297.033 504.105ZM63.9505 514.797V520.949H66.5697V522.145H63.9505V530.424H62.5795V514.797H63.9505ZM53.8783 516.133V520.264H58.4486V516.133H59.8197V526.68H52.5072V516.133H53.8783ZM53.8783 525.52H58.4486V521.371H53.8783V525.52ZM78.7872 514.797V520.984H81.4063V522.145H78.7872V530.459H77.4161V514.797H78.7872ZM74.6739 516.326V517.469H68.7501V525.379C71.5802 525.379 73.5841 525.247 75.9044 524.816L76.0802 526.012C73.6368 526.451 71.5802 526.539 68.6095 526.539H67.379V516.326H74.6739ZM84.0965 527.822L82.7254 532.604H81.4246L82.3914 527.822H84.0965ZM101.641 515.447V516.449C101.641 517.469 101.641 518.664 101.342 520.176L99.9709 520.035C100.261 518.603 100.27 517.539 100.27 516.572H90.9182V515.447H101.641ZM103.451 521.037V522.162H89.2307V521.037H95.1194V518.33H96.4729V521.037H103.451ZM101.694 523.621V527.33H92.3245V529.123H102.098V530.248H90.9358V526.346H100.322V524.746H90.9182V523.621H101.694ZM116.478 515.465V520.738H111.854V522.742H118.288V523.867H104.05V522.742H110.483V520.738H105.895V515.465H116.478ZM107.249 516.572V519.631H115.106V516.572H107.249ZM116.53 525.502V530.424H115.142V526.609H105.632V525.502H116.53ZM121.453 527.822L120.082 532.604H118.781L119.748 527.822H121.453ZM134.515 516.432C134.497 520.949 132.898 525.08 127.378 527.84L126.587 526.785C129.461 525.344 131.236 523.542 132.212 521.424L126.886 521.934L126.64 520.738L132.634 520.334C132.915 519.464 133.082 518.541 133.144 517.574H127.431V516.432H134.515ZM139.507 514.797V530.424H138.136V522.232H134.462V521.09H138.136V514.797H139.507ZM154.326 514.797V530.424H152.937V514.797H154.326ZM150.722 516.502V517.645H148.947V525.168C149.826 525.106 150.696 525.027 151.531 524.922L151.619 525.959C148.209 526.486 144.447 526.539 141.547 526.557L141.389 525.379L143.551 525.361V517.645H141.793V516.502H150.722ZM144.904 525.344C145.783 525.326 146.688 525.291 147.594 525.238V517.645H144.904V525.344ZM161.358 515.939C163.819 515.939 165.559 517.434 165.559 519.613C165.559 521.793 163.819 523.287 161.358 523.287C158.897 523.287 157.122 521.793 157.139 519.613C157.122 517.434 158.897 515.939 161.358 515.939ZM161.358 517.152C159.688 517.152 158.475 518.154 158.493 519.613C158.475 521.072 159.688 522.074 161.358 522.074C163.01 522.074 164.206 521.072 164.206 519.613C164.206 518.154 163.01 517.152 161.358 517.152ZM169.057 514.797V530.459H167.686V514.797H169.057ZM156.331 525.836C159.213 525.836 163.186 525.818 166.649 525.309L166.754 526.328C163.186 526.996 159.336 527.014 156.524 527.014L156.331 525.836ZM189.414 517.539V518.682H187.094V520.844H189.414V522.004H187.094V524.887H185.723V514.797H187.094V517.539H189.414ZM182.154 524.992C185.336 524.992 187.27 525.994 187.27 527.699C187.27 529.404 185.336 530.389 182.154 530.389C178.973 530.389 177.021 529.404 177.039 527.699C177.021 525.994 178.973 524.992 182.154 524.992ZM182.154 526.082C179.816 526.082 178.393 526.662 178.41 527.699C178.393 528.719 179.816 529.316 182.154 529.316C184.492 529.316 185.898 528.719 185.898 527.699C185.898 526.662 184.492 526.082 182.154 526.082ZM184.229 516.59V517.68H174.912V516.59H178.885V514.674H180.256V516.59H184.229ZM179.57 518.488C181.82 518.488 183.314 519.578 183.332 521.248C183.314 522.936 181.82 524.008 179.57 524.008C177.303 524.008 175.791 522.936 175.809 521.248C175.791 519.578 177.303 518.488 179.57 518.488ZM179.57 519.525C178.094 519.543 177.109 520.229 177.127 521.248C177.109 522.268 178.094 522.936 179.57 522.936C181.029 522.936 182.014 522.268 182.031 521.248C182.014 520.229 181.029 519.543 179.57 519.525ZM202.634 514.797V530.424H201.245V514.797H202.634ZM198.01 516.502C197.993 521.002 195.901 524.975 190.663 527.488L189.907 526.363C194.134 524.359 196.288 521.362 196.604 517.627H190.628V516.502H198.01ZM216.644 514.797V521.16H219.175V522.32H216.644V530.424H215.273V514.797H216.644ZM212.601 516.484C212.601 520.914 210.527 524.939 205.429 527.453L204.656 526.363C208.699 524.351 210.896 521.345 211.212 517.645H205.376V516.484H212.601ZM236.104 514.797V530.424H234.716V514.797H236.104ZM231.481 516.502C231.464 521.002 229.372 524.975 224.134 527.488L223.378 526.363C227.605 524.359 229.759 521.362 230.075 517.627H224.099V516.502H231.481ZM250.115 514.797V520.984H252.734V522.145H250.115V530.459H248.744V514.797H250.115ZM246.002 516.326V517.469H240.078V525.379C242.908 525.379 244.912 525.247 247.232 524.816L247.408 526.012C244.964 526.451 242.908 526.539 239.937 526.539H238.707V516.326H246.002ZM265.76 514.797V530.459H264.389V514.797H265.76ZM261.014 516.256V521.811H255.178V525.502C257.771 525.502 260.082 525.388 262.877 524.939L263.018 526.1C260.135 526.557 257.762 526.662 255.073 526.662H253.772V520.686H259.625V517.398H253.737V516.256H261.014ZM280.228 516.379V517.943C280.21 519.859 280.21 522.004 279.647 525.15L278.241 524.992C278.839 522.004 278.839 519.807 278.839 517.943V517.521H269.206V516.379H280.228ZM281.933 527.066V528.209H267.694V527.066H273.284V521.477H274.638V527.066H281.933ZM291.62 525.291C291.62 526.671 292.358 528.139 293.852 528.982C295.329 528.06 296.12 526.504 296.12 525.291V524.43H297.473V525.291C297.473 526.891 298.651 528.508 300.655 529.193L299.969 530.213C298.405 529.659 297.306 528.569 296.77 527.26C296.287 528.525 295.329 529.721 293.887 530.336C292.367 529.756 291.4 528.604 290.934 527.295C290.38 528.561 289.299 529.65 287.805 530.213L287.102 529.193C289.071 528.455 290.266 526.785 290.284 525.291V524.43H291.62V525.291ZM299.231 514.814V523.744H297.86V514.814H299.231ZM290.793 515.729C293.166 515.729 294.889 517.205 294.889 519.385C294.889 521.529 293.166 523.006 290.793 523.006C288.42 523.006 286.698 521.529 286.698 519.385C286.698 517.205 288.42 515.729 290.793 515.729ZM290.793 516.906C289.194 516.889 288.034 517.926 288.051 519.385C288.034 520.826 289.194 521.846 290.793 521.863C292.375 521.846 293.536 520.826 293.536 519.385C293.536 517.926 292.375 516.889 290.793 516.906ZM305.366 516.01C307.493 516.027 309.023 517.847 309.251 520.773H312.749V514.797H314.12V530.459H312.749V521.916H309.269C309.102 524.975 307.546 526.891 305.366 526.891C303.064 526.891 301.446 524.781 301.446 521.459C301.446 518.137 303.064 516.027 305.366 516.01ZM305.366 517.24C303.82 517.258 302.765 518.91 302.765 521.459C302.765 524.008 303.82 525.66 305.366 525.66C306.896 525.66 307.968 524.008 307.968 521.459C307.968 518.91 306.896 517.258 305.366 517.24ZM330.31 527.26V528.42H316.002V527.26H319.553V523.041C318.217 522.347 317.408 521.222 317.408 519.807C317.408 517.381 319.781 515.799 323.121 515.781C326.461 515.799 328.834 517.381 328.834 519.807C328.834 521.195 328.052 522.312 326.76 523.006V527.26H330.31ZM323.121 516.924C320.555 516.906 318.744 518.066 318.744 519.807C318.744 521.547 320.555 522.725 323.121 522.725C325.67 522.725 327.498 521.547 327.498 519.807C327.498 518.066 325.67 516.906 323.121 516.924ZM320.906 527.26H325.371V523.533C324.694 523.718 323.938 523.814 323.121 523.814C322.321 523.814 321.574 523.727 320.906 523.551V527.26ZM332.491 529.105C331.876 529.105 331.348 528.596 331.366 527.963C331.348 527.348 331.876 526.838 332.491 526.838C333.106 526.838 333.616 527.348 333.616 527.963C333.616 528.596 333.106 529.105 332.491 529.105Z" fill="#192D35"/>
<rect x="351.919" y="303.366" width="18.4762" height="22.1715" rx="8" fill="white"/>
<g clip-path="url(#clip0_468_593)">
<rect x="15.6514" y="303.366" width="13.3029" height="19.2153" rx="6.65145" fill="white"/>
<path d="M202.935 151.492C200.374 151.492 197.917 150.474 196.105 148.664C194.294 146.853 193.275 144.397 193.274 141.835V104.48C193.274 101.918 194.292 99.4604 196.104 97.6486C197.915 95.8368 200.373 94.8189 202.935 94.8189H244.622C246.63 89.0309 250.391 84.0123 255.382 80.4604C260.374 76.9086 266.348 75 272.474 75C278.6 75 284.574 76.9086 289.566 80.4604C294.557 84.0123 298.318 89.0309 300.326 94.8189H342.023C344.584 94.8202 347.04 95.8386 348.851 97.6503C350.662 99.462 351.679 101.919 351.679 104.48V141.835C351.679 144.396 350.662 146.852 348.851 148.663C347.04 150.474 344.584 151.492 342.023 151.492H202.935Z" fill="white"/>
<path d="M342.023 104.48H292.29C292.332 101.852 291.85 99.2412 290.872 96.8008C289.895 94.3605 288.442 92.139 286.597 90.2656C284.753 88.3923 282.555 86.9046 280.13 85.8891C277.705 84.8736 275.103 84.3506 272.474 84.3506C269.845 84.3506 267.243 84.8736 264.818 85.8891C262.393 86.9046 260.195 88.3923 258.351 90.2656C256.506 92.139 255.053 94.3605 254.076 96.8008C253.098 99.2412 252.616 101.852 252.658 104.48H202.935V141.835H342.023V104.48Z" fill="white"/>
<path d="M243.678 325.885C242.287 325.884 240.913 325.583 239.649 325.002C238.386 324.421 237.262 323.574 236.356 322.519C235.45 321.464 234.782 320.226 234.399 318.889C234.015 317.553 233.925 316.149 234.133 314.774C234.133 314.482 234.192 314.185 234.24 313.893L22.3116 312.681C20.44 312.669 18.6119 312.115 17.049 311.086C15.4862 310.056 14.2558 308.595 13.5069 306.879C12.1267 306.009 10.9894 304.803 10.2013 303.374C9.41323 301.945 8.99993 300.339 9 298.707L9 291.893C9 289.332 10.0174 286.876 11.8283 285.065C13.6392 283.254 16.0953 282.237 18.6564 282.237H27.0959C28.2202 276.09 30.6246 267.383 34.3966 253.755L34.6935 252.669L35.1802 247.938C33.7472 245.334 33.027 242.398 33.0922 239.426C33.0999 237.61 33.2824 235.799 33.6373 234.019C32.8781 231.585 32.99 228.621 33.978 225.17C34.4391 223.523 35.0165 221.912 35.7059 220.347C36.4397 218.836 37.5702 217.552 38.9766 216.633C37.4288 201.764 36.5722 176.815 42.0964 163.922C43.555 160.426 45.5683 157.189 48.0586 154.334H37.8863C35.3274 154.334 32.873 153.319 31.0617 151.511C29.2504 149.704 28.2303 147.251 28.2251 144.692V135.552C28.225 133.066 29.183 130.676 30.8998 128.879C32.6167 127.081 34.9603 126.014 37.4434 125.9V112.049C37.4409 109.381 38.234 106.773 39.7212 104.558V102.081C39.7219 100.811 39.9727 99.5542 40.4594 98.3817C40.9462 97.2091 41.6592 96.144 42.5578 95.2472C43.4564 94.3504 44.523 93.6395 45.6965 93.1551C46.87 92.6708 48.1275 92.4225 49.3971 92.4244H69.323C71.1911 92.4199 73.0198 92.9612 74.5844 93.9819C76.1553 92.9592 77.9908 92.4178 79.8652 92.4244H99.7912C102.353 92.4244 104.809 93.4416 106.621 95.2524C108.433 97.0631 109.451 99.5193 109.452 102.081V104.558C110.023 105.412 110.495 106.328 110.859 107.289H111.404C113.08 107.269 114.744 107.573 116.305 108.184C116.692 106.896 117.271 105.673 118.023 104.558V102.081C118.025 99.5209 119.042 97.0663 120.851 95.2558C122.661 93.4453 125.115 92.427 127.675 92.4244H147.601C150.162 92.4244 152.618 93.4417 154.429 95.2527C156.24 97.0636 157.257 99.5197 157.257 102.081V104.558C158.744 106.773 159.538 109.381 159.535 112.049V125.891H179.49C182.052 125.892 184.508 126.91 186.319 128.722C188.129 130.534 189.147 132.99 189.147 135.552V141.811C189.149 142.412 189.093 143.012 188.981 143.602V144.692C188.986 147.108 188.08 149.436 186.445 151.214L186.577 151.438C188.317 152.182 189.801 153.421 190.844 155.001C191.887 156.581 192.442 158.432 192.442 160.326V166.945C192.443 169.27 191.603 171.518 190.076 173.272L189.278 186.165C191.295 186.384 193.192 187.236 194.695 188.599C195.791 189.087 196.805 189.744 197.698 190.545H215.332C218.345 190.547 221.277 191.525 223.688 193.332C226.099 195.14 227.86 197.68 228.706 200.572C235.005 192.96 242.938 184.442 249.635 180.582C251.455 179.536 253.208 178.636 254.916 177.818C256.101 176.056 257.534 174.475 259.17 173.121C260.518 172.111 262.024 171.333 263.628 170.819C263.413 167.281 263.837 163.733 264.879 160.345C268.125 149.705 277.071 141.884 287.136 140.877H287.263C287.667 140.838 288.076 140.808 288.47 140.794H288.791H289.833H290.217C290.558 140.794 290.874 140.828 291.191 140.852L291.677 140.896C291.969 140.925 292.29 140.969 292.612 141.018C292.772 141.018 292.913 141.061 293.059 141.086L293.352 141.139C295.78 139.339 298.592 138.126 301.567 137.594C304.543 137.063 307.601 137.228 310.503 138.077C313.404 138.925 316.069 140.435 318.289 142.486C320.509 144.537 322.224 147.075 323.299 149.9C325.6 150.787 327.703 152.12 329.486 153.824C331.27 155.527 332.698 157.567 333.689 159.825C334.68 162.084 335.214 164.516 335.26 166.982C335.306 169.448 334.864 171.898 333.958 174.192C335.738 177.427 336.48 181.131 336.085 184.802C335.963 185.945 335.735 187.074 335.403 188.175C341.434 195.831 346.199 207.848 349.893 224.654C351.683 232.881 353.043 241.196 353.967 249.564C360.109 263.873 362.62 274.552 361.579 282.271H366.353C368.906 282.279 371.352 283.297 373.156 285.103C374.96 286.909 375.975 289.355 375.981 291.908V298.722C375.982 300.211 375.639 301.68 374.977 303.014C374.316 304.348 373.355 305.511 372.17 306.412C371.903 308.184 371.15 309.848 369.993 311.217C368.836 312.586 367.322 313.607 365.618 314.165C365.618 314.696 365.618 315.139 365.618 315.557C365.618 315.806 365.618 316.044 365.618 316.244C365.617 318.805 364.599 321.261 362.787 323.072C360.975 324.883 358.519 325.9 355.957 325.9L243.678 325.885ZM235.559 282.252C235.363 279.314 235.504 276.363 235.978 273.457C235.355 273.544 234.722 273.603 234.085 273.632C233.739 273.632 233.389 273.656 233.024 273.656C230.576 273.62 228.138 273.338 225.747 272.814C227.995 275.177 229.248 278.314 229.247 281.575V282.237L235.559 282.252Z" fill="white"/>
<path d="M351.538 291.908C350.968 289.849 350.326 287.6 349.591 285.177H350.199C350.199 285.143 350.414 284.982 350.71 284.568C352.049 282.704 354.867 275.686 344.49 252.017C344.49 252.017 340.159 204.806 325.075 191.178C324.954 191.071 324.837 190.959 324.715 190.857C324.228 190.433 323.742 190.029 323.211 189.64L323.177 189.616L323.382 189.47C324.396 188.654 325.209 187.615 325.755 186.434C326.301 185.252 326.567 183.96 326.531 182.659C326.496 181.358 326.159 180.082 325.549 178.932C324.938 177.783 324.07 176.79 323.012 176.032C322.854 175.435 322.583 174.875 322.213 174.382C323.699 173.187 324.768 171.553 325.268 169.713C325.768 167.874 325.673 165.924 324.998 164.141C324.322 162.359 323.1 160.836 321.506 159.79C319.912 158.745 318.029 158.23 316.125 158.32C315.676 158.348 315.231 158.408 314.791 158.5C315.165 156.291 314.78 154.02 313.697 152.058C312.614 150.096 310.898 148.559 308.829 147.697C306.761 146.836 304.461 146.701 302.306 147.315C300.151 147.929 298.267 149.256 296.963 151.078C296.356 151.235 295.78 151.493 295.259 151.842C294.644 151.545 294.006 151.298 293.351 151.102L292.982 150.976H292.889C292.665 150.912 292.441 150.849 292.217 150.796L291.994 150.752C291.809 150.708 291.624 150.674 291.439 150.64L291.195 150.606C291.014 150.577 290.834 150.552 290.655 150.533H290.412C290.227 150.533 290.047 150.504 289.862 150.499H289.638C289.443 150.499 289.244 150.499 289.044 150.499H288.859C288.63 150.499 288.397 150.523 288.168 150.547H288.1C282.031 151.151 276.312 156.057 274.126 163.202C272.738 167.542 272.977 172.239 274.798 176.416C270.067 177.389 268.996 179.497 268.996 179.497C268.996 179.497 266.315 179.852 265.103 180.796C263.531 182.013 261.559 185.386 261.559 185.386C262.002 185.245 262.484 185.104 262.986 184.963C260.028 186.046 257.176 187.396 254.463 188.998C243.191 195.481 225.665 220.463 225.665 220.463C223.714 219.22 221.685 218.103 219.59 217.12V204.426C219.59 203.297 219.142 202.214 218.343 201.415C217.544 200.616 216.461 200.168 215.332 200.168H191.639C192.344 198.167 191.152 196.668 188.232 197.335V195.768H178.984L180.785 166.945H182.775V160.325H179.617L178.157 156.183H155.666L154.206 160.325H151.047V166.945H153.037L154.532 190.793C154.166 190.878 153.805 190.984 153.451 191.11C153.451 190.798 153.451 190.482 153.451 190.171C153.451 190.171 151.889 189.513 147.581 190.881C145.805 185.337 143.77 179.643 141.702 174.435L142.189 166.93H144.179V160.311H140.996L139.536 156.169H132.625C132.474 155.979 132.318 155.789 132.172 155.624C129.693 152.876 126.23 151.218 122.535 151.01V150.961C121.586 150.8 120.588 150.65 119.615 150.508C119.615 150.236 119.639 149.958 119.639 149.681C119.642 147.974 119.342 146.28 118.753 144.678H179.349V141.796H179.515V135.552H149.879V112.048C149.876 111.035 149.472 110.064 148.755 109.348C148.038 108.632 147.066 108.229 146.053 108.228H145.25V105.337H147.601V102.081H127.675V105.337H130.016V108.228H129.218C128.205 108.229 127.235 108.632 126.519 109.349C125.804 110.065 125.402 111.036 125.402 112.048V135.552H116.597C116.597 135.42 116.597 135.289 116.597 135.157C116.591 133.175 115.941 131.247 114.743 129.667C113.545 128.086 111.866 126.939 109.959 126.397C111.38 124.357 115.176 118.522 112.791 117.212C111.331 116.4 106.079 117.675 102.05 119.369V112.068C102.048 111.055 101.645 110.084 100.929 109.368C100.213 108.651 99.2417 108.248 98.2288 108.247H97.4257V105.337H99.7717V102.081H79.8652V105.337H82.2111V108.228H81.4081C80.3952 108.229 79.4241 108.632 78.7079 109.348C77.9916 110.064 77.5887 111.036 77.5874 112.048V135.552H71.5862V112.048C71.5849 111.035 71.1813 110.063 70.464 109.346C69.7467 108.63 68.7744 108.228 67.7607 108.228H66.9576V105.337H69.3084V102.081H49.397V105.337H51.7381V108.228H50.9204C49.908 108.229 48.9374 108.632 48.222 109.349C47.5065 110.065 47.1046 111.036 47.1046 112.048V135.552H37.8863V144.692H77.2759C75.3509 145.401 73.5976 146.509 72.1313 147.943C70.665 149.377 69.5189 151.106 68.7682 153.015C59.3162 155.643 54.1912 160.272 50.9837 167.733C46.394 178.412 46.9051 203.696 49.1245 220.215C48.5453 221.257 47.8152 222.697 47.056 224.352C46.1406 224.396 45.2297 224.507 44.3304 224.683C44.1503 225.043 42.0964 230.587 42.9432 231.171L44.3644 231.137C42.4614 236.924 41.6535 242.906 45.1967 244.814L44.2233 254.47C37.5554 278.655 34.8882 288.053 36.4895 291.908H18.6563V298.722H22.3651V303.039L245.673 304.314C244.578 310.5 243.756 315.562 243.726 315.572H243.77C243.702 316.005 243.663 316.243 243.658 316.243H355.991V315.591C355.991 313.834 355.991 311.172 354.721 304.942L362.635 304.986V298.707H366.344V291.893L351.538 291.908ZM307.578 166.463C307.374 168.447 307.838 170.443 308.896 172.135C309.954 173.826 311.545 175.117 313.419 175.803C313.182 175.952 312.955 176.114 312.737 176.289C312.15 176.767 311.63 177.32 311.189 177.935C310.464 177.388 309.664 176.947 308.814 176.625C306.663 175.9 303.611 175.555 300.18 175.428C300.423 174.985 300.667 174.528 300.866 174.06C301.227 173.27 301.535 172.457 301.791 171.627C302.305 169.964 302.599 168.241 302.667 166.502C304.282 166.9 305.97 166.887 307.578 166.463ZM233.647 263.985C239.487 263.722 245.44 258.699 251.275 252.401C248.355 264.418 241.361 281.288 247.708 287.766C248.006 288.081 248.332 288.37 248.681 288.627C248.457 289.645 248.224 290.749 247.99 291.908H216.475C217.301 291.907 218.093 291.578 218.677 290.994C219.26 290.41 219.589 289.619 219.59 288.793V281.59C219.59 280.763 219.262 279.971 218.678 279.387C218.094 278.803 217.302 278.475 216.475 278.475H214.529V259.332C221.946 262.087 229.154 264.19 233.647 263.985ZM108.644 126.105L108.401 126.066C108.153 125.827 107.914 125.579 107.647 125.379C107.647 125.224 107.647 125.073 107.647 124.893L108.644 126.105Z" fill="white"/>
<path d="M342.023 104.48V141.835H202.935V104.48H252.658C252.616 101.852 253.098 99.2412 254.076 96.8008C255.053 94.3605 256.506 92.139 258.351 90.2656C260.195 88.3923 262.393 86.9046 264.818 85.8891C267.243 84.8736 269.845 84.3506 272.474 84.3506C275.103 84.3506 277.705 84.8736 280.13 85.8891C282.555 86.9046 284.753 88.3923 286.597 90.2656C288.442 92.139 289.895 94.3605 290.872 96.8008C291.85 99.2412 292.332 101.852 292.29 104.48H342.023Z" fill="#8DBAE4" stroke="#263238" stroke-width="1.64641" stroke-linecap="round" stroke-linejoin="round"/>
<path d="M217.824 124.065C217.837 121.685 218.748 119.398 220.374 117.66C221.236 116.754 222.266 116.024 223.406 115.509C224.809 114.918 226.324 114.64 227.845 114.693C229.366 114.746 230.857 115.129 232.216 115.816C233.482 116.499 234.52 117.538 235.204 118.804L231.242 121.622C231.09 121.197 230.851 120.807 230.541 120.478C230.261 120.185 229.931 119.943 229.568 119.763C229.22 119.588 228.85 119.462 228.468 119.388C228.103 119.321 227.734 119.287 227.363 119.286C226.737 119.269 226.115 119.403 225.552 119.678C224.988 119.952 224.499 120.359 224.127 120.863C223.777 121.345 223.517 121.886 223.358 122.459C223.191 123.033 223.106 123.628 223.104 124.226C223.102 124.867 223.201 125.504 223.396 126.114C223.578 126.695 223.867 127.237 224.248 127.711C224.62 128.171 225.087 128.546 225.616 128.811C226.181 129.093 226.805 129.235 227.436 129.224C227.803 129.224 228.169 129.183 228.526 129.103C228.903 129.024 229.265 128.889 229.602 128.704C229.949 128.518 230.263 128.276 230.532 127.988C230.819 127.677 231.041 127.311 231.184 126.913L235.408 129.439C235.116 130.143 234.676 130.777 234.119 131.298C233.541 131.851 232.885 132.317 232.172 132.68C231.42 133.056 230.626 133.34 229.806 133.527C229.009 133.716 228.192 133.814 227.373 133.819C226.046 133.834 224.733 133.548 223.533 132.982C222.397 132.444 221.377 131.69 220.53 130.762C219.694 129.846 219.034 128.783 218.583 127.628C218.105 126.5 217.847 125.29 217.824 124.065Z" fill="white"/>
<path d="M247.562 133.819C246.219 133.837 244.889 133.556 243.668 132.996C242.536 132.476 241.516 131.74 240.665 130.831C239.83 129.938 239.169 128.896 238.718 127.759C238.26 126.629 238.026 125.421 238.027 124.201C238.02 122.971 238.258 121.752 238.728 120.614C239.682 118.305 241.5 116.459 243.795 115.47C245.013 114.94 246.33 114.673 247.659 114.686C249.002 114.669 250.332 114.95 251.553 115.509C252.687 116.032 253.707 116.773 254.556 117.689C255.391 118.586 256.051 119.631 256.503 120.77C256.947 121.897 257.177 123.097 257.179 124.309C257.182 125.535 256.938 126.75 256.464 127.881C255.994 129.008 255.317 130.036 254.468 130.913C253.596 131.802 252.564 132.519 251.426 133.026C250.209 133.563 248.892 133.834 247.562 133.819ZM243.283 124.255C243.281 124.88 243.371 125.501 243.551 126.1C243.717 126.672 243.987 127.208 244.349 127.681C244.707 128.148 245.164 128.529 245.688 128.796C246.293 129.081 246.954 129.229 247.623 129.229C248.291 129.229 248.952 129.081 249.557 128.796C250.085 128.521 250.545 128.13 250.901 127.652C251.251 127.167 251.511 126.623 251.67 126.046C251.836 125.449 251.921 124.831 251.923 124.211C251.923 123.585 251.833 122.962 251.655 122.362C251.49 121.792 251.216 121.259 250.847 120.795C250.219 120.074 249.372 119.579 248.436 119.385C247.5 119.191 246.527 119.308 245.664 119.719C245.137 119.991 244.679 120.377 244.32 120.848C243.963 121.327 243.697 121.868 243.537 122.444C243.368 123.033 243.283 123.643 243.283 124.255Z" fill="white"/>
<path d="M261.516 133.663V114.793H274.457V119.291H266.699V122.425H273.026V126.625H266.699V133.644L261.516 133.663Z" fill="white"/>
<path d="M278.604 133.663V114.793H291.546V119.291H283.788V122.425H290.115V126.625H283.788V133.644L278.604 133.663Z" fill="white"/>
<path d="M309.14 129.142V133.663H295.673V114.793H308.882V119.291H300.876V121.968H307.729V126.168H300.876V129.142H309.14Z" fill="white"/>
<path d="M327.134 129.142V133.663H313.681V114.793H326.886V119.291H318.865V121.968H325.723V126.168H318.865V129.142H327.134Z" fill="white"/>
<path d="M261.54 102.587C261.54 102.587 263.166 103.56 265.891 103.073C268.617 102.587 271.698 100.474 276.711 101.039C281.724 101.604 283.019 103.891 283.019 103.891C283.019 103.891 281.559 110.131 272.287 110.131C263.015 110.131 261.54 104.237 261.54 102.587Z" fill="white"/>
<path d="M261.54 100.119C261.54 100.119 263.336 101.438 266.295 100.762C269.517 100.022 272.958 98.1286 277.606 99.0338C281.456 99.7834 283.418 101.248 283.418 101.248C283.418 101.248 283.52 92.0593 272.476 92.3562C261.175 92.6579 261.54 100.119 261.54 100.119Z" fill="white"/>
<path d="M212.747 111.917L219.59 105.074" stroke="#263238" stroke-width="1.64641" stroke-linecap="round" stroke-linejoin="round"/>
<path d="M335.875 135.372L342.023 129.225" stroke="#263238" stroke-width="1.64641" stroke-linecap="round" stroke-linejoin="round"/>
<path d="M206.868 122.785L218.627 111.031" stroke="#263238" stroke-width="1.64641" stroke-linecap="round" stroke-linejoin="round"/>
<path d="M280.994 141.485L292.748 129.731" stroke="#263238" stroke-width="1.64641" stroke-linecap="round" stroke-linejoin="round"/>
<path d="M329.996 136.856L341.75 125.102" stroke="#263238" stroke-width="1.64641" stroke-linecap="round" stroke-linejoin="round"/>
<path opacity="0.3" d="M179.334 141.811H37.8863V144.697H179.334V141.811Z" fill="#8DBAE4"/>
<path d="M179.5 135.552H37.8863V141.811H179.5V135.552Z" fill="white" stroke="#8DBAE4" stroke-width="1.64641" stroke-linecap="round" stroke-linejoin="round"/>
<path d="M71.5863 112.049V135.552H47.1047V112.049C47.1047 111.036 47.5065 110.065 48.222 109.349C48.9375 108.632 49.908 108.229 50.9205 108.228H51.7236V105.337H66.9576V108.228H67.7607C68.7745 108.228 69.7468 108.63 70.4641 109.347C71.1814 110.063 71.585 111.035 71.5863 112.049Z" fill="white" stroke="#8DBAE4" stroke-width="1.64641" stroke-linecap="round" stroke-linejoin="round"/>
<path d="M69.3084 102.081H49.3824V105.337H69.3084V102.081Z" fill="#8DBAE4"/>
<path d="M47.1047 116.419H71.5863" stroke="#8DBAE4" stroke-width="1.64641" stroke-linecap="round" stroke-linejoin="round"/>
<path d="M102.069 112.049V135.552H77.5874V112.049C77.5887 111.036 77.9917 110.065 78.7079 109.348C79.4241 108.632 80.3952 108.229 81.4081 108.228H82.2112V105.337H97.4453V108.228H98.2483C99.2613 108.229 100.232 108.632 100.949 109.348C101.665 110.065 102.068 111.036 102.069 112.049Z" fill="white" stroke="#8DBAE4" stroke-width="1.64641" stroke-linecap="round" stroke-linejoin="round"/>
<path d="M99.7912 102.081H79.8652V105.337H99.7912V102.081Z" fill="#8DBAE4"/>
<path d="M77.5874 123.53H102.069" stroke="#8DBAE4" stroke-width="1.64641" stroke-linecap="round" stroke-linejoin="round"/>
<path d="M149.879 112.049V135.552H125.397V112.049C125.397 111.035 125.8 110.064 126.516 109.347C127.233 108.631 128.204 108.228 129.218 108.228H130.021V105.337H145.255V108.228H146.058C147.071 108.231 148.041 108.634 148.757 109.35C149.473 110.066 149.876 111.036 149.879 112.049Z" fill="white" stroke="#8DBAE4" stroke-width="1.64641" stroke-linecap="round" stroke-linejoin="round"/>
<path d="M147.601 102.081H127.675V105.337H147.601V102.081Z" fill="#8DBAE4"/>
<path d="M125.397 118.77H149.879" stroke="#8DBAE4" stroke-width="1.64641" stroke-linecap="round" stroke-linejoin="round"/>
<path d="M214.543 232.553H96.9488V278.474H214.543V232.553Z" fill="#8DBAE4"/>
<path d="M215.332 200.167H96.1555C93.8035 200.167 91.8968 202.074 91.8968 204.426V228.295C91.8968 230.647 93.8035 232.553 96.1555 232.553H215.332C217.684 232.553 219.59 230.647 219.59 228.295V204.426C219.59 202.074 217.684 200.167 215.332 200.167Z" fill="white" stroke="#8DBAE4" stroke-width="1.64641" stroke-linecap="round" stroke-linejoin="round"/>
<path d="M155.082 206.125H124.02V226.591H155.082V206.125Z" fill="white" stroke="#8DBAE4" stroke-width="1.64641" stroke-linecap="round" stroke-linejoin="round"/>
<path d="M113.488 221.303C116.219 218.572 116.219 214.144 113.488 211.412C110.756 208.681 106.328 208.681 103.596 211.412C100.865 214.144 100.865 218.572 103.596 221.303C106.328 224.035 110.756 224.035 113.488 221.303Z" fill="#8DBAE4"/>
<path d="M209.398 219.062C210.889 215.499 209.209 211.402 205.646 209.91C202.083 208.419 197.985 210.099 196.494 213.662C195.003 217.225 196.683 221.323 200.246 222.814C203.809 224.305 207.907 222.626 209.398 219.062Z" fill="#8DBAE4"/>
<path d="M170.69 216.36C170.69 216.809 170.557 217.247 170.308 217.62C170.059 217.993 169.705 218.284 169.29 218.456C168.876 218.627 168.42 218.672 167.98 218.585C167.54 218.497 167.136 218.281 166.819 217.964C166.501 217.647 166.285 217.243 166.198 216.803C166.11 216.363 166.155 215.907 166.327 215.492C166.499 215.078 166.789 214.724 167.162 214.475C167.535 214.225 167.974 214.092 168.422 214.092C169.024 214.092 169.601 214.331 170.026 214.757C170.452 215.182 170.69 215.759 170.69 216.36Z" fill="#8DBAE4"/>
<path d="M180.147 216.36C180.147 216.809 180.014 217.247 179.765 217.62C179.516 217.993 179.162 218.284 178.747 218.456C178.333 218.627 177.877 218.672 177.437 218.585C176.997 218.497 176.593 218.281 176.275 217.964C175.958 217.647 175.742 217.243 175.655 216.803C175.567 216.363 175.612 215.907 175.784 215.492C175.955 215.078 176.246 214.724 176.619 214.475C176.992 214.225 177.431 214.092 177.879 214.092C178.177 214.092 178.472 214.151 178.747 214.265C179.022 214.379 179.272 214.546 179.483 214.757C179.694 214.967 179.861 215.217 179.975 215.492C180.089 215.768 180.147 216.063 180.147 216.36Z" fill="#8DBAE4"/>
<path d="M189.604 216.36C189.604 216.809 189.471 217.247 189.222 217.62C188.973 217.993 188.618 218.284 188.204 218.456C187.79 218.627 187.333 218.672 186.894 218.585C186.454 218.497 186.049 218.281 185.732 217.964C185.415 217.647 185.199 217.243 185.112 216.803C185.024 216.363 185.069 215.907 185.241 215.492C185.412 215.078 185.703 214.724 186.076 214.475C186.449 214.225 186.887 214.092 187.336 214.092C187.938 214.092 188.514 214.331 188.94 214.757C189.365 215.182 189.604 215.759 189.604 216.36Z" fill="#8DBAE4"/>
<path d="M216.475 278.475H95.0117C93.2914 278.475 91.8968 279.869 91.8968 281.59V288.793C91.8968 290.513 93.2914 291.908 95.0117 291.908H216.475C218.196 291.908 219.59 290.513 219.59 288.793V281.59C219.59 279.869 218.196 278.475 216.475 278.475Z" fill="white" stroke="#8DBAE4" stroke-width="1.64641" stroke-linecap="round" stroke-linejoin="round"/>
<path d="M143.06 232.553H112.232V239.873H143.06V232.553Z" fill="white" stroke="#8DBAE4" stroke-width="1.64641" stroke-linecap="round" stroke-linejoin="round"/>
<path d="M131.87 239.874H123.421V243.534H131.87V239.874Z" fill="white" stroke="#8DBAE4" stroke-width="1.64641" stroke-linecap="round" stroke-linejoin="round"/>
<path d="M188.066 239.874H179.617V243.534H188.066V239.874Z" fill="white" stroke="#8DBAE4" stroke-width="1.64641" stroke-linecap="round" stroke-linejoin="round"/>
<path d="M199.251 232.553H168.422V239.873H199.251V232.553Z" fill="white" stroke="#8DBAE4" stroke-width="1.64641" stroke-linecap="round" stroke-linejoin="round"/>
<path d="M200.482 263.504C199.845 262.53 198.647 262.224 197.484 262.17C196.834 262.151 196.183 262.179 195.537 262.253C195.839 260.359 196.024 259.016 196.024 259.016H168.797C168.797 259.016 169.62 265.674 170.958 270.357C171.99 273.983 173.645 277.526 177.237 278.261C178.565 278.538 180.396 278.465 182.391 278.465C184.387 278.465 186.221 278.538 187.545 278.261C189.706 277.818 191.171 276.363 192.208 274.479C192.5 274.636 192.807 274.765 193.123 274.863C194.122 275.19 195.193 275.229 196.213 274.975C197.233 274.721 198.161 274.185 198.891 273.428C200.837 271.432 202.371 266.385 200.482 263.504ZM197.231 271.953C196.717 272.513 196.026 272.878 195.274 272.988C194.523 273.098 193.756 272.946 193.104 272.556C193.381 271.841 193.619 271.096 193.829 270.357C194.354 268.517 194.802 266.37 195.148 264.443L195.532 264.404C195.917 264.355 196.253 264.331 196.554 264.312C198.161 264.224 198.53 264.467 198.603 264.594C199.791 266.351 198.818 270.361 197.231 271.953Z" fill="white"/>
<path d="M149.806 291.888H89.872C83.6226 261.002 80.1864 244.731 80.1864 244.731H143.663L143.926 254.884C146.087 263.426 149.791 291.864 149.806 291.888Z" fill="#8DBAE4" stroke="#263238" stroke-width="1.64641" stroke-linecap="round" stroke-linejoin="round"/>
<path d="M127.271 255.643C127.271 255.643 129.641 273.442 142.846 273.442" stroke="#263238" stroke-width="1.64641" stroke-linecap="round" stroke-linejoin="round"/>
<path d="M121.576 255.73C121.576 255.73 125.178 278.956 142.812 278.956" stroke="#263238" stroke-width="1.64641" stroke-linecap="round" stroke-linejoin="round"/>
<path d="M109.72 244.76H45.2016L44.2282 254.47C37.5602 278.655 34.8931 288.053 36.4943 291.908H97.4647L99.4407 280.061L106.299 278.528L108.859 263.357" fill="#8DBAE4"/>
<path d="M109.72 244.76H45.2016L44.2282 254.47C37.5602 278.655 34.8931 288.053 36.4943 291.908H97.4647L99.4407 280.061L106.299 278.528L108.859 263.357" stroke="#263238" stroke-width="1.64641" stroke-linecap="round" stroke-linejoin="round"/>
<path d="M61.0295 255.726C61.0295 255.726 58.6933 273.374 45.5034 273.374" stroke="#263238" stroke-width="1.64641" stroke-linecap="round" stroke-linejoin="round"/>
<path d="M66.7386 255.658C66.7386 255.658 63.1369 278.884 45.5034 278.884" stroke="#263238" stroke-width="1.64641" stroke-linecap="round" stroke-linejoin="round"/>
<path d="M100.293 275.223L102.634 261.352" stroke="#263238" stroke-width="1.64641" stroke-linecap="round" stroke-linejoin="round"/>
<path d="M87.0296 252.343V260.651H118.715" stroke="#263238" stroke-width="1.64641" stroke-linecap="round" stroke-linejoin="round"/>
<path d="M94.5542 255.726C94.5542 256.111 94.44 256.487 94.2261 256.807C94.0122 257.127 93.7081 257.377 93.3524 257.524C92.9966 257.672 92.6052 257.71 92.2275 257.635C91.8499 257.56 91.503 257.375 91.2307 257.102C90.9584 256.83 90.773 256.483 90.6979 256.105C90.6228 255.728 90.6613 255.336 90.8087 254.981C90.956 254.625 91.2056 254.321 91.5257 254.107C91.8459 253.893 92.2223 253.779 92.6073 253.779C93.1237 253.779 93.6189 253.984 93.984 254.349C94.3491 254.714 94.5542 255.209 94.5542 255.726Z" stroke="#263238" stroke-width="1.64641" stroke-linecap="round" stroke-linejoin="round"/>
<path d="M87.5893 153.448C92.6401 153.448 96.7346 149.354 96.7346 144.303C96.7346 139.252 92.6401 135.158 87.5893 135.158C82.5385 135.158 78.444 139.252 78.444 144.303C78.444 149.354 82.5385 153.448 87.5893 153.448Z" fill="#263238"/>
<path d="M82.2452 172.766C90.2394 172.766 96.72 166.285 96.72 158.291C96.72 150.297 90.2394 143.816 82.2452 143.816C74.251 143.816 67.7704 150.297 67.7704 158.291C67.7704 166.285 74.251 172.766 82.2452 172.766Z" fill="#263238"/>
<path d="M105.135 164.17C113.13 164.17 119.61 157.69 119.61 149.696C119.61 141.701 113.13 135.221 105.135 135.221C97.1411 135.221 90.6605 141.701 90.6605 149.696C90.6605 157.69 97.1411 164.17 105.135 164.17Z" fill="#263238"/>
<path d="M113.938 141.622C117.51 138.051 117.51 132.261 113.938 128.689C110.367 125.118 104.576 125.118 101.005 128.689C97.4334 132.261 97.4334 138.051 101.005 141.622C104.576 145.194 110.367 145.194 113.938 141.622Z" fill="#263238"/>
<path d="M153.417 217.188C152.337 231.921 133.598 237.722 124.307 225.589C117.376 216.531 106.469 178.378 106.333 162.774C106.24 152.115 123.956 146.338 132.157 155.639C139.56 164.029 154.171 206.899 153.417 217.188Z" fill="white" stroke="#263238" stroke-width="1.64641" stroke-linecap="round" stroke-linejoin="round"/>
<path d="M122.014 221.836C125.874 229.662 133.613 235.337 145.8 231.677C149.937 230.441 161.628 225.588 161.628 225.588C166.641 225.306 168.247 220.643 168.953 215.251C168.953 215.251 167.614 219.972 164.086 218.117C154.59 213.124 153.441 202.82 153.441 190.185C153.441 190.185 148.774 188.209 133.311 198.162" fill="white"/>
<path d="M122.014 221.836C125.874 229.662 133.613 235.337 145.8 231.677C149.937 230.441 161.628 225.588 161.628 225.588C166.641 225.306 168.247 220.643 168.953 215.251C168.953 215.251 167.614 219.972 164.086 218.117C154.59 213.124 153.441 202.82 153.441 190.185C153.441 190.185 148.774 188.209 133.311 198.162" stroke="#263238" stroke-width="1.64641" stroke-linecap="round" stroke-linejoin="round"/>
<path d="M161.628 225.589C161.628 225.589 153.441 227.238 147.601 221.398" stroke="#263238" stroke-width="1.64641" stroke-linecap="round" stroke-linejoin="round"/>
<path d="M169.824 212.185L163.229 217.811C163.229 217.811 165.58 220.001 168.432 217.543C170.432 215.82 169.824 212.185 169.824 212.185Z" fill="#263238"/>
<path d="M133.365 177.248C133.034 180.037 139.541 192.302 139.541 200.791C139.541 203.356 137.054 207.118 137.054 207.118C139.453 222.999 147.104 244.244 142.812 248.707C135.263 256.568 98.0342 245.179 98.0342 245.179L45.1967 244.814C38.0859 240.969 48.5064 220.746 50.1077 218.58C50.1077 218.58 51.9426 171.972 65.8966 158.101C74.9202 149.126 87.7597 149.525 98.0195 149.126C102.273 148.956 113.565 149.452 122.487 150.976" fill="white"/>
<path d="M133.365 177.248C133.034 180.037 139.541 192.302 139.541 200.791C139.541 203.356 137.054 207.118 137.054 207.118C139.453 222.999 147.104 244.244 142.812 248.707C135.263 256.568 98.0342 245.179 98.0342 245.179L45.1967 244.814C38.0859 240.969 48.5064 220.746 50.1077 218.58C50.1077 218.58 51.9426 171.972 65.8966 158.101C74.9202 149.126 87.7597 149.525 98.0195 149.126C102.273 148.956 113.565 149.452 122.487 150.976" stroke="#263238" stroke-width="1.64641" stroke-linecap="round" stroke-linejoin="round"/>
<path d="M98.0342 245.184C87.1513 240.317 81.8997 237.231 79.6511 239.694" stroke="#263238" stroke-width="1.64641" stroke-linecap="round" stroke-linejoin="round"/>
<path d="M95.5519 171.607C98.6377 174.401 101.796 176.475 106.746 175.827C111.438 175.209 117.361 171.632 113.911 150.1" stroke="#263238" stroke-width="1.64641" stroke-linecap="round" stroke-linejoin="round"/>
<path d="M83.2284 150.1C84.9173 154.743 88.0225 162.856 92.8458 168.741" stroke="#263238" stroke-width="1.64641" stroke-linecap="round" stroke-linejoin="round"/>
<path d="M107.472 217.217C107.472 217.217 116.977 214.978 126.818 218.04" stroke="#263238" stroke-width="1.64641" stroke-linecap="round" stroke-linejoin="round"/>
<path d="M108.153 222.206C108.153 222.206 112.329 219.334 117.376 219.057" stroke="#263238" stroke-width="1.64641" stroke-linecap="round" stroke-linejoin="round"/>
<path d="M42.9433 231.171L80.0599 230.334L71.669 291.908H154.488C154.488 291.908 140.154 217.699 137.687 207.755C132.196 185.629 117.863 149.778 117.863 149.778C118.276 149.973 117.045 148.897 112.373 149.126L123.942 183.157L91.2786 183.123C91.2786 183.123 84.6642 149.851 84.1239 149.578C83.5837 149.306 79.3785 150.026 79.1059 150.659C78.8334 151.292 85.0146 198.401 84.1775 202.844C83.3403 207.288 81.1258 221.87 81.1258 221.87C81.1258 221.87 44.5154 224.303 44.3304 224.683C44.1455 225.063 42.0964 230.587 42.9433 231.171Z" fill="#FF634C"/>
<path d="M154.488 291.908H151.426C151.426 291.908 137.093 217.699 134.625 207.756C129.174 185.805 115.025 150.324 114.806 149.783C115.093 149.915 114.519 149.384 112.373 149.18V149.121C117.031 148.898 118.272 149.963 117.873 149.783C118.092 150.338 132.24 185.8 137.691 207.756C140.154 217.699 154.488 291.908 154.488 291.908Z" fill="white"/>
<path d="M42.9433 231.171L80.0599 230.334L71.669 291.908H154.488C154.488 291.908 140.154 217.699 137.687 207.755C132.196 185.629 117.863 149.778 117.863 149.778C118.276 149.973 117.045 148.897 112.373 149.126L123.942 183.157L91.2786 183.123C91.2786 183.123 84.6642 149.851 84.1239 149.578C83.5837 149.306 79.3785 150.026 79.1059 150.659C78.8334 151.292 85.0146 198.401 84.1775 202.844C83.3403 207.288 81.1258 221.87 81.1258 221.87C81.1258 221.87 44.5154 224.303 44.3304 224.683C44.1455 225.063 42.0964 230.587 42.9433 231.171Z" stroke="#263238" stroke-width="1.64641" stroke-linecap="round" stroke-linejoin="round"/>
<path d="M94.6321 196.133L92.8458 188.209H125.894L130.084 204.684" stroke="#263238" stroke-width="1.64641" stroke-linecap="round" stroke-linejoin="round"/>
<path d="M105.369 202.309C105.369 202.309 115.283 199.389 120.832 194.668" stroke="#263238" stroke-width="1.64641" stroke-linecap="round" stroke-linejoin="round"/>
<path d="M105.369 196.469C105.369 196.469 108.401 197.247 114.334 195.982" stroke="#263238" stroke-width="1.64641" stroke-linecap="round" stroke-linejoin="round"/>
<path d="M130.756 253.764C130.756 253.764 122.521 268.852 97.0704 275.223" stroke="#263238" stroke-width="1.64641" stroke-linecap="round" stroke-linejoin="round"/>
<path d="M105.135 265.042C105.135 265.042 111.706 265.29 119.605 260.661" stroke="#263238" stroke-width="1.64641" stroke-linecap="round" stroke-linejoin="round"/>
<path d="M87.1513 149.618C87.1513 149.618 95.2113 172.075 105.16 172.075C115.108 172.075 109.881 149.379 109.881 149.379C109.881 149.379 95.4789 148.494 87.1513 149.618Z" fill="#FCD8C3" stroke="#263238" stroke-width="1.64641" stroke-linecap="round" stroke-linejoin="round"/>
<path d="M104.395 152.465C104.395 152.465 107.515 158.933 104.05 159.162C98.6133 159.513 92.5392 150.1 92.5392 150.1L104.395 152.465Z" fill="#263238"/>
<path d="M87.638 141.957C84.8735 133.581 88.2999 124.888 95.294 122.532C102.288 120.177 110.202 125.063 112.966 133.435C115.731 141.806 112.305 150.504 105.31 152.859C98.3164 155.215 90.4074 150.328 87.638 141.957Z" fill="#FCD8C3"/>
<path d="M105.31 152.874C103.396 153.515 101.345 153.636 99.3677 153.224C100.352 153.178 101.325 152.996 102.259 152.684C108.888 150.45 112.134 142.205 109.516 134.267C106.897 126.329 99.3872 121.7 92.7582 123.929C92.5927 123.987 92.4223 124.046 92.2715 124.114C93.1961 123.44 94.2188 122.911 95.3037 122.547C102.298 120.196 110.212 125.078 112.976 133.449C115.741 141.821 112.309 150.503 105.31 152.874Z" fill="white"/>
<path d="M87.638 141.957C84.8735 133.581 88.2999 124.888 95.294 122.532C102.288 120.177 110.202 125.063 112.966 133.435C115.731 141.806 112.305 150.504 105.31 152.859C98.3164 155.215 90.4074 150.328 87.638 141.957Z" stroke="#263238" stroke-width="1.64641" stroke-linecap="round" stroke-linejoin="round"/>
<path d="M88.7915 144.43C88.7915 144.43 107.871 139.859 107.647 124.912C107.647 124.912 98.8421 117.057 91.2251 124.294C82.2453 132.826 88.7915 144.43 88.7915 144.43Z" fill="#263238"/>
<path d="M94.4081 120.522C94.4386 120.892 94.3586 121.263 94.1783 121.588C93.9981 121.913 93.7256 122.177 93.3953 122.347C93.065 122.517 92.6918 122.585 92.3227 122.543C91.9537 122.501 91.6054 122.35 91.3219 122.11C91.0384 121.87 90.8324 121.551 90.7299 121.194C90.6275 120.837 90.6331 120.458 90.7462 120.104C90.8593 119.75 91.0747 119.438 91.3653 119.207C91.6558 118.975 92.0084 118.835 92.3785 118.804C92.8753 118.764 93.3679 118.922 93.7483 119.244C94.1287 119.566 94.366 120.026 94.4081 120.522Z" fill="#FF634C" stroke="#263238" stroke-width="1.64641" stroke-linecap="round" stroke-linejoin="round"/>
<path d="M86.5867 136.223C86.5867 136.223 94.1356 129.55 107.647 124.912C107.647 124.912 101.023 117.577 92.3785 121.938C86.5623 124.873 85.2823 131.814 86.5867 136.223Z" fill="#FF634C" stroke="#263238" stroke-width="1.64641" stroke-linecap="round" stroke-linejoin="round"/>
<path d="M93.1087 131.653C93.1087 131.653 94.8754 124.572 97.6643 121.861C100.249 119.344 110.616 115.986 112.811 117.188C115.731 118.78 109.467 127.073 109.467 127.073L107.647 124.912C102.069 126.363 93.1087 131.653 93.1087 131.653Z" fill="#FF634C" stroke="#263238" stroke-width="1.64641" stroke-linecap="round" stroke-linejoin="round"/>
<path d="M82.839 185.396C85.0682 203.044 88.7136 230.616 83.4718 237.372C74.4189 249.053 57.3743 247.437 51.8696 233.181C47.8542 222.776 44.822 182.077 50.9838 167.733C55.1159 158.111 62.4361 153.205 78.1131 151.209" fill="white"/>
<path d="M82.839 185.396C85.0682 203.044 88.7136 230.616 83.4718 237.372C74.4189 249.053 57.3743 247.437 51.8696 233.181C47.8542 222.776 44.822 182.077 50.9838 167.733C55.1159 158.111 62.4361 153.205 78.1131 151.209" stroke="#263238" stroke-width="1.64641" stroke-linecap="round" stroke-linejoin="round"/>
<path d="M63.9351 157.634C74.9981 157.079 80.0404 162.014 82.2452 181.376" stroke="#263238" stroke-width="1.64641" stroke-linecap="round" stroke-linejoin="round"/>
<path d="M158.158 216.322C161.823 216.059 178.721 209.79 180.58 208.841C183.528 207.348 186.32 205.564 188.913 203.516C193.118 200.348 192.714 196.269 188.173 197.35C182.776 198.63 181.233 199.194 179.592 199.374C173.947 200.002 171.362 200.08 165.964 198.202C160.567 196.323 142.714 195.685 139.283 205.2C136.854 211.975 145.484 217.232 158.158 216.322Z" fill="#FCD8C3" stroke="#263238" stroke-width="1.64641" stroke-linecap="round" stroke-linejoin="round"/>
<path d="M171.313 203.034C171.313 203.034 177.977 204.937 180.245 204.718C182.513 204.499 190.149 201.798 192.13 203.974C194.111 206.149 190.071 208.456 188.275 209.425C186.479 210.393 180.736 213.318 179.164 213.606C177.592 213.893 169.43 212.734 166.023 214.487" fill="#FCD8C3"/>
<path d="M171.313 203.034C171.313 203.034 177.977 204.937 180.245 204.718C182.513 204.499 190.149 201.798 192.13 203.974C194.111 206.149 190.071 208.456 188.275 209.425C186.479 210.393 180.736 213.318 179.164 213.606C177.592 213.893 169.43 212.734 166.023 214.487" stroke="#263238" stroke-width="1.64641" stroke-linecap="round" stroke-linejoin="round"/>
<path d="M166.042 207.604C166.042 207.604 171.644 209.274 173.883 209.688C176.122 210.101 185.375 209.201 186.679 211.853C187.983 214.506 183.467 215.596 181.471 216.029C179.476 216.463 171.985 217.743 170.394 217.933C168.447 218.156 158.902 216.721 155.067 216.424" fill="#FCD8C3"/>
<path d="M166.042 207.604C166.042 207.604 171.644 209.274 173.883 209.688C176.122 210.101 185.375 209.201 186.679 211.853C187.983 214.506 183.467 215.596 181.471 216.029C179.476 216.463 171.985 217.743 170.394 217.933C168.447 218.156 158.902 216.721 155.067 216.424" stroke="#263238" stroke-width="1.64641" stroke-linecap="round" stroke-linejoin="round"/>
<path d="M141.648 201.652C143.97 198.673 146.394 193.899 153.242 191.197C157.058 189.689 167.167 190.088 169.921 189.294C175.275 187.751 177.344 187.255 178.381 188.077C179.417 188.9 178.838 191.854 175.46 194.025C170.91 196.945 165.337 197.919 165.337 197.919C164.047 199.379 166.31 200.98 166.31 200.98" fill="#FCD8C3"/>
<path d="M141.648 201.652C143.97 198.673 146.394 193.899 153.242 191.197C157.058 189.689 167.167 190.088 169.921 189.294C175.275 187.751 177.344 187.255 178.381 188.077C179.417 188.9 178.838 191.854 175.46 194.025C170.91 196.945 165.337 197.919 165.337 197.919C164.047 199.379 166.31 200.98 166.31 200.98" stroke="#263238" stroke-width="1.64641" stroke-linecap="round" stroke-linejoin="round"/>
<path d="M178.288 207.181H155.549L152.93 165.266H180.907L178.288 207.181Z" fill="#FF634C"/>
<path d="M180.907 165.266L178.288 207.181H155.549L152.925 165.266H180.907Z" fill="white"/>
<path d="M176.589 165.266L173.971 207.181H155.549L152.925 165.266H176.589Z" fill="#FF634C"/>
<path d="M178.288 207.181H155.549L152.93 165.266H180.907L178.288 207.181Z" stroke="#263238" stroke-width="1.64641" stroke-linecap="round" stroke-linejoin="round"/>
<path d="M182.795 160.325H151.042V166.944H182.795V160.325Z" fill="white" stroke="#263238" stroke-width="1.64641" stroke-linecap="round" stroke-linejoin="round"/>
<path d="M178.176 156.184H155.661L154.201 160.326H179.636L178.176 156.184Z" fill="white" stroke="#263238" stroke-width="1.64641" stroke-linecap="round" stroke-linejoin="round"/>
<path d="M167.931 192.979C168.411 191.959 168.537 190.808 168.291 189.708C167.931 187.659 166.344 185.328 166.758 181.575C167.172 177.823 168.909 176.844 168.909 176.844C168.909 176.844 173.606 177.954 173.606 184.914C173.606 191.874 169.172 192.979 167.931 192.979Z" fill="white"/>
<path d="M166.072 192.979C166.393 192.449 166.601 191.858 166.685 191.243C166.769 190.629 166.726 190.004 166.558 189.407C165.999 186.973 164.577 184.394 165.259 180.899C165.507 179.34 166.074 177.849 166.923 176.519C166.923 176.519 160.012 176.441 160.236 184.744C160.465 193.271 166.072 192.979 166.072 192.979Z" fill="white"/>
<path d="M139.648 207.181H116.909L114.29 165.266H142.266L139.648 207.181Z" fill="#FF634C"/>
<path d="M142.267 165.266L139.648 207.181H116.909L114.285 165.266H142.267Z" fill="white"/>
<path d="M137.949 165.266L135.331 207.181H116.909L114.285 165.266H137.949Z" fill="#FF634C"/>
<path d="M139.648 207.181H116.909L114.29 165.266H142.266L139.648 207.181Z" stroke="#263238" stroke-width="1.64641" stroke-linecap="round" stroke-linejoin="round"/>
<path d="M144.155 160.325H112.402V166.944H144.155V160.325Z" fill="white" stroke="#263238" stroke-width="1.64641" stroke-linecap="round" stroke-linejoin="round"/>
<path d="M139.536 156.184H117.021L115.561 160.326H140.996L139.536 156.184Z" fill="white" stroke="#263238" stroke-width="1.64641" stroke-linecap="round" stroke-linejoin="round"/>
<path d="M129.291 192.979C129.771 191.959 129.897 190.808 129.651 189.708C129.291 187.659 127.704 185.328 128.118 181.575C128.532 177.823 130.269 176.844 130.269 176.844C130.269 176.844 134.966 177.954 134.966 184.914C134.966 191.874 130.532 192.979 129.291 192.979Z" fill="white"/>
<path d="M127.432 192.979C127.753 192.449 127.961 191.858 128.045 191.243C128.129 190.629 128.086 190.004 127.918 189.407C127.359 186.973 125.937 184.394 126.619 180.899C126.867 179.34 127.433 177.849 128.283 176.519C128.283 176.519 121.372 176.441 121.596 184.744C121.825 193.271 127.432 192.979 127.432 192.979Z" fill="white"/>
<path d="M188.251 195.768H106.951V199.905H188.251V195.768Z" fill="white" stroke="#263238" stroke-width="1.64641" stroke-linecap="round" stroke-linejoin="round"/>
<path d="M141.381 207.181H115.176L114.67 199.905H141.887L141.381 207.181Z" fill="white" stroke="#263238" stroke-width="1.64641" stroke-linecap="round" stroke-linejoin="round"/>
<path d="M180.021 207.181H153.816L153.31 199.905H180.527L180.021 207.181Z" fill="white" stroke="#263238" stroke-width="1.64641" stroke-linecap="round" stroke-linejoin="round"/>
<path d="M117.78 209.386C117.78 209.386 125.859 211.201 127.378 211.007C128.897 210.812 134.134 209.98 136.406 209.449C139.56 208.709 142.578 211.751 139.813 213.591C137.049 215.431 130.293 218.458 126.721 219.135C123.148 219.811 113.093 218.04 113.093 218.04" fill="#FCD8C3"/>
<path d="M117.78 209.386C117.78 209.386 125.859 211.201 127.378 211.007C128.897 210.812 134.134 209.98 136.406 209.449C139.56 208.709 142.578 211.751 139.813 213.591C137.049 215.431 130.293 218.458 126.721 219.135C123.148 219.811 113.093 218.04 113.093 218.04" stroke="#263238" stroke-width="1.64641" stroke-linecap="round" stroke-linejoin="round"/>
<path d="M120.092 206.456C120.092 206.456 129.296 208.515 130.824 208.476C132.352 208.437 137.925 207.342 140.252 207.162C144.739 206.816 145.878 210.705 142.972 212.267C140.067 213.83 133.019 216.161 129.393 216.502C125.767 216.842 118.311 215.674 118.311 215.674" fill="#FCD8C3"/>
<path d="M120.092 206.456C120.092 206.456 129.296 208.515 130.824 208.476C132.352 208.437 137.925 207.342 140.252 207.162C144.739 206.816 145.878 210.705 142.972 212.267C140.067 213.83 133.019 216.161 129.393 216.502C125.767 216.842 118.311 215.674 118.311 215.674" stroke="#263238" stroke-width="1.64641" stroke-linecap="round" stroke-linejoin="round"/>
<path d="M120.564 209.074C120.564 209.074 127.909 209.936 130.785 209.337C133.661 208.739 138.626 206.86 141.532 205.468C145.946 203.346 143.196 199.7 139.453 200.192C135.462 200.718 130.001 201.355 128.235 201.37C126.468 201.384 116.077 198.026 116.077 198.026L112.962 199.301C113.961 198.787 115.003 198.361 116.077 198.026C117.342 197.695 122.813 198.133 127.208 196.877C129.612 196.186 133.253 193.504 131.729 191.524C130.206 189.543 123.694 191.212 120.588 190.905C117.483 190.599 114.655 188.589 109.915 190.326C105.174 192.064 97.2165 197.826 96.7736 198.153C96.3307 198.479 76.429 205.925 76.429 205.925L90.6946 233.78L113.083 218.049" fill="#FCD8C3"/>
<path d="M120.564 209.074C120.564 209.074 127.909 209.936 130.785 209.337C133.661 208.739 138.626 206.86 141.532 205.468C145.946 203.346 143.196 199.7 139.453 200.192C135.462 200.718 130.001 201.355 128.235 201.37C126.468 201.384 116.077 198.026 116.077 198.026M116.077 198.026L112.962 199.301C113.961 198.787 115.003 198.361 116.077 198.026ZM116.077 198.026C117.342 197.695 122.813 198.133 127.208 196.877C129.612 196.186 133.253 193.504 131.729 191.524C130.206 189.543 123.694 191.212 120.588 190.905C117.483 190.599 114.655 188.589 109.915 190.326C105.174 192.064 97.2165 197.826 96.7736 198.153C96.3307 198.479 76.429 205.925 76.429 205.925L90.6946 233.78L113.083 218.049" stroke="#263238" stroke-width="1.64641" stroke-linecap="round" stroke-linejoin="round"/>
<path d="M51.8695 233.181C55.1159 241.28 62.402 247.534 74.8326 244.823C79.0475 243.908 79.7386 245.534 85.2531 243.884C88.48 242.911 91.0936 239.99 91.0936 239.99C96.1068 240.097 98.0731 235.571 99.1876 230.256C99.1876 230.256 97.489 234.86 94.121 232.743C85.0341 227.029 92.5392 207.498 85.5402 200.134C85.5402 200.134 80.9067 197.7 77.1591 202.465C77.1591 202.465 72.5061 200.839 68.3983 205.921C67.6398 206.719 66.714 207.339 65.6873 207.736" fill="white"/>
<path d="M51.8695 233.181C55.1159 241.28 62.402 247.534 74.8326 244.823C79.0475 243.908 79.7386 245.534 85.2531 243.884C88.48 242.911 91.0936 239.99 91.0936 239.99C96.1068 240.097 98.0731 235.571 99.1876 230.256C99.1876 230.256 97.489 234.86 94.121 232.743C85.0341 227.029 92.5392 207.498 85.5402 200.134C85.5402 200.134 80.9067 197.7 77.1591 202.465C77.1591 202.465 72.5061 200.839 68.3983 205.921C67.6398 206.719 66.714 207.339 65.6873 207.736" stroke="#263238" stroke-width="1.64641" stroke-linecap="round" stroke-linejoin="round"/>
<path d="M91.0839 239.995C85.3651 238.165 77.1396 231.01 79.5732 212.282" stroke="#263238" stroke-width="1.64641" stroke-linecap="round" stroke-linejoin="round"/>
<path d="M74.414 239.105C74.414 239.105 68.5394 232.485 70.1894 219.592" stroke="#263238" stroke-width="1.64641" stroke-linecap="round" stroke-linejoin="round"/>
<path d="M100.288 227.239L93.2741 232.339C93.2741 232.339 95.4497 234.705 98.4819 232.476C100.609 230.909 100.288 227.239 100.288 227.239Z" fill="#263238"/>
<path d="M366.344 291.908H18.6563V298.707H366.344V291.908Z" fill="white" stroke="#FF634C" stroke-width="1.64641" stroke-linecap="round" stroke-linejoin="round"/>
<path d="M22.3651 298.707V315.576" stroke="#FF634C" stroke-width="1.64641" stroke-linecap="round" stroke-linejoin="round"/>
<path d="M362.635 298.707V315.576" stroke="#FF634C" stroke-width="1.64641" stroke-linecap="round" stroke-linejoin="round"/>
<path opacity="0.2" d="M362.635 304.971L22.3651 303.024V298.707H362.635V304.971Z" fill="#FF634C"/>
<path d="M243.678 316.229C243.678 316.229 247.464 292.531 249.625 284.704L249.888 275.374H313.365H348.355L349.328 284.291C355.996 306.509 355.977 313.196 355.977 316.214" fill="#8DBAE4"/>
<path d="M355.991 316.229H351.514C351.514 312.944 351.236 305.745 344.729 284.062L343.755 275.389H348.345L349.318 284.306C356.025 306.524 355.991 313.212 355.991 316.229Z" fill="white"/>
<path d="M243.746 315.557C243.746 315.557 247.464 292.681 249.625 284.777L249.888 275.374H313.365H348.355L349.328 284.364C355.996 306.752 355.977 312.52 355.977 315.562" stroke="#263238" stroke-width="1.64641" stroke-linecap="round" stroke-linejoin="round"/>
<path d="M264.27 290.935L262.981 312.452L279.782 315.256L296.243 311.805L296.948 290.935H268.646" stroke="#263238" stroke-width="1.64641" stroke-linecap="round" stroke-linejoin="round"/>
<path d="M317.565 290.935L319.522 311.805L334.542 315.256L344.894 311.06L342.47 290.935H321.936" stroke="#263238" stroke-width="1.64641" stroke-linecap="round" stroke-linejoin="round"/>
<path d="M174.881 222.215C174.881 222.215 166.514 223.914 164.952 223.676C163.39 223.437 158.007 222.473 155.675 221.875C152.439 221.047 149.261 224.118 152.049 226.07C154.838 228.022 161.784 231.288 165.439 232.071C169.094 232.855 180.76 233.721 180.76 233.721" fill="#B5846B"/>
<path d="M174.881 222.215C174.881 222.215 166.514 223.914 164.952 223.676C163.39 223.437 158.007 222.473 155.675 221.875C152.439 221.047 149.261 224.118 152.049 226.07C154.838 228.022 161.784 231.288 165.439 232.071C169.094 232.855 180.76 233.721 180.76 233.721" stroke="#263238" stroke-width="1.64641" stroke-linecap="round" stroke-linejoin="round"/>
<path d="M172.306 218.604C172.306 218.604 162.572 219.091 161.039 218.779C159.506 218.468 154.021 216.385 151.684 215.796C147.182 214.657 145.357 218.414 148.029 220.512C150.701 222.61 157.447 226.221 161.088 227.19C164.728 228.158 172.501 228.314 172.501 228.314" fill="#B5846B"/>
<path d="M172.306 218.604C172.306 218.604 162.572 219.091 161.039 218.779C159.506 218.468 154.021 216.385 151.684 215.796C147.182 214.657 145.357 218.414 148.029 220.512C150.701 222.61 157.447 226.221 161.088 227.19C164.728 228.158 172.501 228.314 172.501 228.314" stroke="#263238" stroke-width="1.64641" stroke-linecap="round" stroke-linejoin="round"/>
<path d="M171.265 221.743C171.265 221.743 163.964 222.006 161.015 221.33C157.391 220.474 153.865 219.247 150.492 217.67C145.985 215.387 148.895 211.683 152.745 212.272C156.848 212.9 162.48 213.679 164.29 213.732C166.101 213.786 178.181 210.904 176.886 210.539C175.592 210.174 170.145 209.517 165.653 206.646C163.477 205.249 161.618 202.689 163.219 200.693C164.821 198.698 170.467 201.608 173.65 202.075C177.149 202.562 180.653 201.832 185.501 203.725C190.349 205.619 196.326 210.763 196.759 211.109C197.192 211.454 217.59 219.539 217.59 219.539L202.283 247.958L180.322 233.595" fill="#B5846B"/>
<path d="M171.265 221.743C171.265 221.743 163.964 222.006 161.015 221.33C157.391 220.474 153.865 219.247 150.492 217.67C145.985 215.387 148.895 211.683 152.745 212.272C156.848 212.9 162.48 213.679 164.29 213.732C166.101 213.786 178.181 210.904 176.886 210.539C175.592 210.174 170.145 209.517 165.653 206.646C163.477 205.249 161.618 202.689 163.219 200.693C164.821 198.698 170.467 201.608 173.65 202.075C177.149 202.562 180.653 201.832 185.501 203.725C190.349 205.619 196.326 210.763 196.759 211.109C197.192 211.454 217.59 219.539 217.59 219.539L202.283 247.958L180.322 233.595" stroke="#263238" stroke-width="1.64641" stroke-linecap="round" stroke-linejoin="round"/>
<path d="M284.557 182.213C284.557 182.213 281.339 188.788 284.912 189.124C290.514 189.65 296.861 180.13 296.861 180.13L284.557 182.213Z" fill="#263238"/>
<path d="M274.136 163.163C271.367 172.235 275.319 181.473 282.955 183.804C290.592 186.136 299.017 180.675 301.801 171.607C304.585 162.54 300.618 153.297 292.982 150.966C285.345 148.634 276.906 154.095 274.136 163.163Z" fill="#B5846B"/>
<path d="M292.977 150.961C290.884 150.328 288.662 150.256 286.533 150.752C287.598 150.772 288.655 150.936 289.677 151.238C296.914 153.453 300.657 162.214 298.039 170.814C295.42 179.414 287.414 184.588 280.171 182.378C279.991 182.32 279.801 182.266 279.626 182.198C280.649 182.895 281.772 183.433 282.955 183.794C290.592 186.121 299.017 180.66 301.801 171.593C304.585 162.525 300.623 153.297 292.977 150.961Z" fill="white"/>
<path d="M274.136 163.163C271.367 172.235 275.319 181.473 282.955 183.804C290.592 186.136 299.017 180.675 301.801 171.607C304.585 162.54 300.618 153.297 292.982 150.966C285.345 148.634 276.906 154.095 274.136 163.163Z" stroke="#263238" stroke-width="1.64641" stroke-linecap="round" stroke-linejoin="round"/>
<path d="M299.762 176.178C299.762 176.178 282.269 174.849 277.1 157.196C277.1 157.196 287.321 144.897 298.408 153.823C307.481 161.148 299.762 176.178 299.762 176.178Z" fill="#263238"/>
<path d="M350.214 285.177C350.165 284.992 357.179 280.923 344.505 252.017C344.505 252.017 340.124 204.047 324.735 190.867C310.036 178.271 287.389 179.507 272.705 186.735C263.891 191.066 258.469 209.041 250.93 234.778C250.453 236.455 250.343 238.216 250.609 239.939C250.874 241.663 251.508 243.309 252.468 244.765C252.468 255.677 239.813 279.726 247.708 287.766C257.525 298.342 312.805 285.177 312.805 285.177H350.214Z" fill="#FF634C"/>
<path d="M350.214 285.177H347.415C348.642 281.95 349.265 273.666 340.363 253.37C340.363 253.37 335.88 204.48 320.213 191.071C312.825 184.744 303.465 181.824 294.077 181.405C304.891 180.918 316.164 183.542 324.74 190.886C340.115 204.066 344.51 252.032 344.51 252.032C357.179 280.923 350.185 284.992 350.214 285.177Z" fill="white"/>
<path d="M350.214 285.177C350.165 284.992 357.179 280.923 344.505 252.017C344.505 252.017 340.124 204.047 324.735 190.867C310.036 178.271 287.389 179.507 272.705 186.735C263.891 191.066 258.469 209.041 250.93 234.778C250.453 236.455 250.343 238.216 250.609 239.939C250.874 241.663 251.508 243.309 252.468 244.765C252.468 255.677 239.813 279.726 247.708 287.766C257.525 298.342 312.805 285.177 312.805 285.177H350.214Z" stroke="#263238" stroke-width="1.64641" stroke-linecap="round" stroke-linejoin="round"/>
<path d="M312.805 285.177C320.763 282.655 326.263 278.947 329.986 280.567" stroke="#263238" stroke-width="1.64641" stroke-linecap="round" stroke-linejoin="round"/>
<path d="M294.077 281.536C307.004 282.509 316.689 279.589 321.396 276.518" stroke="#263238" stroke-width="1.64641" stroke-linecap="round" stroke-linejoin="round"/>
<path d="M306.692 223.642C305.164 224.002 300.365 214.91 292.879 217.373C284.708 220.059 284.766 228.533 287.857 234.471C292.933 244.234 307.753 252.567 309.841 252.854C311.929 253.141 319.327 240.623 321.902 232.159C324.822 222.508 322.009 216.394 316.256 215.465C309.199 214.326 308.055 223.32 306.692 223.642Z" fill="white"/>
<path d="M290.251 238.146C293.541 241.207 290.251 255.96 292.412 255.96C294.573 255.96 293.386 245.919 293.03 243.227C292.675 240.536 295.269 243.339 295.269 244.415C295.269 245.301 294.583 249.705 296.038 249.905C297.493 250.104 296.335 245.851 296.364 245.13C296.393 244.41 297.182 245.077 297.182 245.077" fill="white"/>
<path d="M312.182 251.005C312.82 250.192 313.75 250.241 313.857 251.701C313.964 253.161 313.209 260.656 314.665 260.656C316.12 260.656 314.47 250.479 314.665 249.111C314.881 247.608 315.408 246.166 316.212 244.877" fill="white"/>
<path d="M315.458 263.513C315.458 263.683 315.407 263.85 315.313 263.991C315.218 264.133 315.084 264.244 314.926 264.309C314.769 264.374 314.596 264.391 314.428 264.358C314.261 264.325 314.108 264.242 313.987 264.122C313.867 264.002 313.785 263.848 313.752 263.681C313.718 263.514 313.735 263.341 313.801 263.183C313.866 263.026 313.976 262.891 314.118 262.797C314.26 262.702 314.426 262.651 314.596 262.651C314.825 262.653 315.043 262.744 315.204 262.905C315.365 263.066 315.457 263.285 315.458 263.513Z" fill="white"/>
<path d="M273.075 228.893C261.19 237.464 247.119 263.372 233.651 263.985C224.959 264.379 206.094 256.134 195.289 251.253C195.289 251.253 190.986 251.224 188.504 250.036C183.515 247.641 184.377 241.893 184.377 241.893C185.414 245.217 187.073 246.59 188.806 238.647C190.393 231.395 190.505 219.665 199.027 209.103C199.027 209.103 217.478 215.071 225.669 220.424C225.669 220.424 243.191 195.441 254.468 188.958C263.716 183.634 269.42 182.816 279.777 181.994" fill="#FF634C"/>
<path d="M273.075 228.893C261.19 237.464 247.119 263.372 233.651 263.985C224.959 264.379 206.094 256.134 195.289 251.253C195.289 251.253 190.986 251.224 188.504 250.036C183.515 247.641 184.377 241.893 184.377 241.893C185.414 245.217 187.073 246.59 188.806 238.647C190.393 231.395 190.505 219.665 199.027 209.103C199.027 209.103 217.478 215.071 225.669 220.424C225.669 220.424 243.191 195.441 254.468 188.958C263.716 183.634 269.42 182.816 279.777 181.994" stroke="#263238" stroke-width="1.64641" stroke-linecap="round" stroke-linejoin="round"/>
<path d="M184.348 243.689C183.126 242.351 184.61 236.802 184.61 236.802L188.504 239.907C188.504 239.907 187.205 246.809 184.348 243.689Z" fill="#263238"/>
<path d="M225.665 220.425C232.683 226.752 233.905 231.42 233.905 231.42" stroke="#263238" stroke-width="1.64641" stroke-linecap="round" stroke-linejoin="round"/>
<path d="M225.665 220.425C225.665 220.425 231.817 222.016 234.542 224.941" stroke="#263238" stroke-width="1.64641" stroke-linecap="round" stroke-linejoin="round"/>
<path d="M265.585 235.868C269.478 233.473 272.437 232.831 273.25 234.617" stroke="#263238" stroke-width="1.64641" stroke-linecap="round" stroke-linejoin="round"/>
<path d="M195.284 251.253C202.526 251.783 207.977 249.306 209.696 252.494" stroke="#263238" stroke-width="1.64641" stroke-linecap="round" stroke-linejoin="round"/>
<path d="M207.35 212.53C204.431 216.555 202.272 221.079 200.979 225.88C198.852 233.814 199.338 239.372 196.764 243.699" stroke="#263238" stroke-width="1.64641" stroke-linecap="round" stroke-linejoin="round"/>
<path d="M261.56 185.347C261.56 185.347 263.531 181.974 265.103 180.758C266.324 179.813 268.996 179.458 268.996 179.458C268.996 179.458 270.661 176.134 279.057 175.934C287.453 175.735 302.288 174.421 308.814 176.626C310.596 177.224 312.796 179.268 312.796 179.268C312.796 179.268 317.536 179.268 320.661 184.647C322.097 187.119 323.026 198.474 319.425 205.964C313.677 217.913 299.956 213.153 294.388 209.264C281.086 200.017 269.868 183.211 269.868 183.211C269.868 183.211 264.743 184.34 261.56 185.347Z" fill="#FF634C" stroke="#263238" stroke-width="1.64641" stroke-linecap="round" stroke-linejoin="round"/>
<path d="M312.805 179.268C308.654 180.13 281.335 180.426 281.335 180.426" stroke="#263238" stroke-width="1.64641" stroke-linecap="round" stroke-linejoin="round"/>
<path d="M304.02 156.831C304.194 153.726 301.817 151.068 298.712 150.895C295.607 150.721 292.949 153.098 292.775 156.203C292.602 159.308 294.978 161.966 298.083 162.14C301.189 162.313 303.847 159.937 304.02 156.831Z" fill="#8DBAE4" stroke="#263238" stroke-width="1.64641" stroke-linecap="round" stroke-linejoin="round"/>
<path d="M314.116 160.767C316.271 155.722 313.928 149.885 308.883 147.73C303.838 145.575 298.001 147.918 295.846 152.963C293.69 158.008 296.033 163.845 301.079 166C306.124 168.155 311.961 165.813 314.116 160.767Z" fill="#263238"/>
<path d="M311.652 158.388C310.639 158.435 309.662 158.781 308.845 159.383C308.029 159.985 307.409 160.816 307.065 161.77C306.721 162.724 306.668 163.759 306.913 164.744C307.158 165.728 307.689 166.618 308.439 167.3C309.19 167.983 310.126 168.427 311.129 168.577C312.133 168.727 313.158 168.576 314.075 168.143C314.992 167.709 315.761 167.014 316.282 166.144C316.804 165.274 317.056 164.269 317.006 163.256C316.938 161.901 316.336 160.629 315.333 159.717C314.33 158.805 313.006 158.328 311.652 158.388Z" fill="#FF634C" stroke="#263238" stroke-width="1.64641" stroke-linecap="round" stroke-linejoin="round"/>
<path d="M317.737 176.271C322.683 175.624 326.168 171.088 325.521 166.142C324.873 161.195 320.338 157.71 315.391 158.357C310.444 159.005 306.959 163.54 307.607 168.487C308.255 173.434 312.79 176.919 317.737 176.271Z" fill="#263238"/>
<path d="M322.097 174.221C321.499 173.484 320.696 172.941 319.79 172.66C318.884 172.38 317.915 172.374 317.005 172.643C316.095 172.913 315.286 173.447 314.68 174.176C314.073 174.906 313.696 175.799 313.597 176.742C313.498 177.686 313.68 178.638 314.122 179.477C314.563 180.317 315.244 181.007 316.078 181.46C316.911 181.914 317.86 182.11 318.805 182.023C319.75 181.937 320.648 181.573 321.386 180.977C321.877 180.58 322.285 180.091 322.586 179.536C322.887 178.982 323.076 178.374 323.142 177.746C323.208 177.119 323.15 176.485 322.97 175.88C322.791 175.275 322.494 174.711 322.097 174.221Z" fill="#8DBAE4" stroke="#263238" stroke-width="1.64641" stroke-linecap="round" stroke-linejoin="round"/>
<path d="M324.601 188.23C327.56 184.611 327.025 179.279 323.406 176.32C319.787 173.361 314.455 173.896 311.496 177.515C308.537 181.134 309.072 186.466 312.691 189.425C316.31 192.384 321.642 191.849 324.601 188.23Z" fill="#263238"/>
<path d="M319.795 188.73C319.314 188.137 318.669 187.699 317.94 187.473C317.211 187.247 316.432 187.241 315.7 187.458C314.968 187.674 314.317 188.103 313.829 188.69C313.341 189.276 313.037 189.994 312.957 190.753C312.877 191.512 313.023 192.278 313.378 192.953C313.733 193.629 314.28 194.184 314.95 194.549C315.621 194.914 316.384 195.072 317.144 195.003C317.904 194.934 318.627 194.641 319.22 194.162C320.016 193.517 320.524 192.583 320.631 191.565C320.739 190.546 320.438 189.527 319.795 188.73Z" fill="#FF634C" stroke="#263238" stroke-width="1.64641" stroke-linecap="round" stroke-linejoin="round"/>
<path d="M322.97 197.444C323.67 193.749 321.243 190.186 317.548 189.486C313.853 188.786 310.29 191.213 309.59 194.908C308.89 198.603 311.318 202.166 315.012 202.866C318.707 203.566 322.27 201.138 322.97 197.444Z" fill="#263238"/>
<rect x="224.803" y="270.109" width="16.9981" height="14.781" fill="white"/>
</g>
<defs>
<clipPath id="clip0_468_593">
<rect width="367" height="250.885" fill="white" transform="translate(9 75)"/>
</clipPath>
</defs>
</svg>
