<svg width="385" height="554" viewBox="0 0 385 554" fill="none" xmlns="http://www.w3.org/2000/svg">
<path d="M79.16 436.64H75.3C76.1 434.16 76.42 432 76.42 429.36V427.58H63.46V424.34H80.16V429.36C80.16 432.36 79.9 434.18 79.16 436.64ZM62.8 438.84H81.2V442.02H62.8V438.84ZM96.5255 428.96C94.6655 430.84 91.7655 431.88 88.3055 431.9V428.86C92.1455 428.68 94.6255 426.82 94.9055 423.84H98.7255C98.6855 424.72 98.5255 425.52 98.2455 426.26C101.645 426.22 105.065 427.98 105.685 431.82H101.885C101.185 429.82 99.0055 428.74 96.5255 428.96ZM87.6455 435.62V432.64H106.045V435.62H98.9855V438.32H95.1055V435.62H87.6455ZM88.4855 436.5H92.3855V439.64H105.425V442.52H88.4855V436.5ZM124.765 423.86V428.84H126.565V432.12H124.765V437.92H120.965V423.86H124.765ZM118.605 424.38V427.06C118.605 432.28 114.165 434.72 107.745 434.98V431.94C111.885 431.68 114.825 430.12 114.825 427.74V427.38H108.105V424.38H118.605ZM108.665 435.94H112.525V439.58H125.245V442.52H108.665V435.94ZM127.405 427.18V427.1C127.405 425.04 128.805 423.94 131.285 423.94H140.865C143.345 423.94 144.765 425.04 144.765 427.1V427.18C144.765 429.22 143.345 430.34 140.865 430.34H131.285C128.805 430.34 127.405 429.22 127.405 427.18ZM140.905 427.16V427.14C140.905 426.74 140.665 426.46 140.125 426.46H132.045C131.485 426.46 131.265 426.74 131.265 427.14V427.16C131.265 427.56 131.485 427.82 132.045 427.82H140.125C140.665 427.82 140.905 427.56 140.905 427.16ZM126.885 431.14H145.285V433.72H126.885V431.14ZM144.945 442.52H127.465V437.56H140.505V436.74H127.465V434.6H144.625V439.54H131.585V440.36H144.945V442.52ZM157.211 442.4C154.991 442.4 152.991 441.7 151.371 440.64L151.971 437.22C153.151 438.06 155.171 438.94 157.011 438.94C158.271 438.94 159.271 438.4 159.291 437.22C159.311 436.12 158.431 435.5 156.611 434.82L155.711 434.48C152.831 433.4 151.431 431.8 151.431 429.16C151.431 426.1 153.731 424.22 157.271 424.22C159.051 424.22 160.811 424.72 162.191 425.52L161.691 428.76C160.231 427.98 158.831 427.68 157.551 427.68C156.371 427.68 155.391 428.14 155.371 429.26C155.351 430.42 156.351 430.84 157.971 431.46L158.871 431.8C161.531 432.8 163.251 434.26 163.251 437.22C163.251 440.46 160.691 442.4 157.211 442.4ZM174.223 436.28V424.54H177.663V442.08H173.183L168.003 430.34V442.08H164.563V424.54H169.043L174.223 436.28ZM184.771 442.4C182.551 442.4 180.551 441.7 178.931 440.64L179.531 437.22C180.711 438.06 182.731 438.94 184.571 438.94C185.831 438.94 186.831 438.4 186.851 437.22C186.871 436.12 185.991 435.5 184.171 434.82L183.271 434.48C180.391 433.4 178.991 431.8 178.991 429.16C178.991 426.1 181.291 424.22 184.831 424.22C186.611 424.22 188.371 424.72 189.751 425.52L189.251 428.76C187.791 427.98 186.391 427.68 185.111 427.68C183.931 427.68 182.951 428.14 182.931 429.26C182.911 430.42 183.911 430.84 185.531 431.46L186.431 431.8C189.091 432.8 190.811 434.26 190.811 437.22C190.811 440.46 188.251 442.4 184.771 442.4ZM200.764 431.3H202.324V423.86H205.524V442.52H202.324V434.42H200.764V437.2C200.764 440.16 199.324 442.04 196.384 442.04C193.424 442.04 191.984 440.16 191.984 437.2V429C191.984 426.06 193.404 424.16 196.364 424.16C199.324 424.16 200.764 426.04 200.764 429V431.3ZM206.724 442.52V423.86H210.024V442.52H206.724ZM197.444 437.82V428.36C197.444 427.52 197.004 427.04 196.364 427.06C195.724 427.08 195.304 427.52 195.304 428.36V437.82C195.304 438.66 195.724 439.14 196.364 439.14C197.004 439.14 197.444 438.66 197.444 437.82ZM227.709 430.34V431.34H234.969V433.72H216.569V431.34H223.829V430.34H220.969C218.489 430.34 217.089 429.22 217.089 427.18V427.1C217.089 425.04 218.489 423.94 220.969 423.94H230.549C233.029 423.94 234.449 425.04 234.449 427.1V427.18C234.449 429.22 233.029 430.34 230.549 430.34H227.709ZM220.949 427.14V427.16C220.949 427.56 221.169 427.82 221.729 427.82H229.809C230.349 427.82 230.589 427.56 230.589 427.16V427.14C230.589 426.74 230.349 426.46 229.809 426.46H221.729C221.169 426.46 220.949 426.74 220.949 427.14ZM234.309 439.54H221.269V440.36H234.629V442.52H217.149V437.56H230.189V436.74H217.149V434.6H234.309V439.54ZM250.389 427.9V423.86H254.189V442.52H250.389V436.92H247.109V433.8H250.389V431.02H247.109V427.9H250.389ZM246.129 434.44H240.269V438.6H248.749V441.68H236.569V431.38H242.429V427.62H236.649V424.48H246.129V434.44ZM273.989 434.34H270.209C269.589 432.48 267.629 431.02 265.189 431.12C263.249 433.02 259.989 434.2 256.269 434.36V431.34C260.129 431.04 262.949 429.3 263.129 427.2H256.649V424.16H273.369V427.2H267.029C267.009 427.66 266.929 428.12 266.809 428.54C270.229 428.56 273.689 430.5 273.989 434.34ZM255.809 435.14H274.209V438.22H266.949V442.62H263.069V438.22H255.809V435.14ZM283.149 429.46H286.029V423.86H289.229V442.52H286.029V432.68H283.149V429.46ZM290.429 442.52V423.86H293.729V442.52H290.429ZM281.489 432.62C284.109 434.12 285.249 437.18 285.029 441.38H281.609C281.749 439.46 281.669 437.56 280.749 436.32C279.789 439.1 278.049 440.88 275.269 441.94V438C277.229 436.56 278.189 434.42 278.189 429.84V424.54H281.629V429.62C281.629 430.7 281.589 431.7 281.489 432.62ZM307.769 434.74H300.709C297.449 434.74 295.489 432.4 295.489 429.72V429.26C295.489 426.58 297.449 424.24 300.709 424.24H307.769C311.029 424.24 313.009 426.58 313.009 429.26V429.72C313.009 432.4 311.029 434.74 307.769 434.74ZM299.429 429.42V429.58C299.429 430.8 300.269 431.66 301.709 431.66H306.769C308.209 431.66 309.069 430.8 309.069 429.58V429.42C309.069 428.2 308.209 427.32 306.769 427.32H301.709C300.269 427.32 299.429 428.2 299.429 429.42ZM309.889 435.74V439.04H313.449V442.02H295.049V439.04H298.609V435.74H302.289V439.04H306.209V435.74H309.889ZM318.749 442.12H314.869V438.28H318.749V442.12Z" fill="#FF634C"/>
<circle cx="191.5" cy="383.5" r="16.5" fill="#FF634C"/>
<path d="M194.139 385.704L190.814 389.274H197.342V392.701H185.816V389.764L191.773 383.093C192.976 381.726 193.507 380.849 193.507 379.747C193.507 378.646 192.711 377.911 191.487 377.911C190.263 377.911 189.366 378.564 189.284 380.4H185.816C185.796 376.504 188.407 374.484 191.548 374.484C194.833 374.484 197.322 376.504 197.322 379.625C197.322 382.032 196.179 383.501 194.139 385.704Z" fill="white"/>
<path d="M95.843 466.432C95.8254 470.949 94.2961 475.08 88.6711 477.84L87.8977 476.785C90.842 475.361 92.6086 473.551 93.5579 471.441L88.1965 471.951L87.968 470.738L93.9797 470.334C94.2522 469.455 94.4104 468.532 94.4719 467.574H88.759V466.432H95.843ZM99.8332 464.797V471.16H102.364V472.32H99.8332V480.424H98.4622V464.797H99.8332ZM116.023 464.797V480.424H114.687V464.797H116.023ZM112.965 465.184V479.598H111.646V471.986H109.467V470.738H111.646V465.184H112.965ZM109.924 466.801V467.943H108.605V475.168C109.194 475.133 109.757 475.08 110.275 475.01L110.363 476.029C107.902 476.486 104.615 476.557 102.576 476.557L102.4 475.379L104.053 475.361V467.943H102.734V466.801H109.924ZM105.318 475.344C105.969 475.326 106.654 475.3 107.322 475.256V467.943H105.318V475.344ZM130.807 464.797V480.424H129.471V464.797H130.807ZM127.661 465.131V479.633H126.342V472.039H124.339C124.189 475.08 122.897 476.979 120.964 476.979C118.924 476.979 117.606 474.869 117.606 471.547C117.606 468.225 118.924 466.115 120.964 466.115C122.862 466.115 124.145 467.952 124.321 470.896H126.342V465.131H127.661ZM120.964 467.416C119.698 467.416 118.889 468.998 118.907 471.547C118.889 474.078 119.698 475.678 120.964 475.66C122.229 475.678 123.038 474.078 123.038 471.547C123.038 468.998 122.229 467.416 120.964 467.416ZM137.751 468.998C137.751 471.828 139.562 474.676 141.829 475.713L141.003 476.838C139.228 475.924 137.76 474.052 137.066 471.828C136.371 474.166 134.904 476.17 133.128 477.119L132.232 476.012C134.517 474.887 136.345 471.881 136.345 468.998V466.15H137.751V468.998ZM145.204 464.797V480.459H143.833V471.266H140.124V470.141H143.833V464.797H145.204ZM152.201 465.939C154.662 465.939 156.402 467.434 156.402 469.613C156.402 471.793 154.662 473.287 152.201 473.287C149.74 473.287 147.965 471.793 147.983 469.613C147.965 467.434 149.74 465.939 152.201 465.939ZM152.201 467.152C150.531 467.152 149.318 468.154 149.336 469.613C149.318 471.072 150.531 472.074 152.201 472.074C153.854 472.074 155.049 471.072 155.049 469.613C155.049 468.154 153.854 467.152 152.201 467.152ZM159.901 464.797V480.459H158.529V464.797H159.901ZM147.174 475.836C150.057 475.836 154.029 475.818 157.492 475.309L157.598 476.328C154.029 476.996 150.18 477.014 147.367 477.014L147.174 475.836ZM177.937 464.797V468.629H180.293V469.771H177.937V473.674H176.566V464.797H177.937ZM173.666 465.816C173.648 469.754 170.888 472.566 166.265 473.832L165.703 472.725C169.552 471.688 171.899 469.604 172.189 466.959H166.406V465.816H173.666ZM177.937 474.395V480.213H168.041V474.395H177.937ZM169.412 475.537V479.088H176.566V475.537H169.412ZM185.936 467.258C185.918 469.49 187.5 471.459 189.803 472.232L189.03 473.305C187.307 472.654 185.953 471.389 185.285 469.736C184.609 471.608 183.176 473.067 181.295 473.779L180.539 472.654C182.948 471.811 184.547 469.736 184.565 467.311V465.693H185.936V467.258ZM193.512 464.797V474.061H192.123V469.297H188.643V468.154H192.123V464.797H193.512ZM188.326 474.518C191.578 474.518 193.565 475.59 193.565 477.471C193.565 479.334 191.578 480.389 188.326 480.389C185.074 480.389 183.088 479.334 183.088 477.471C183.088 475.59 185.074 474.518 188.326 474.518ZM188.326 475.607C185.936 475.607 184.442 476.311 184.459 477.471C184.442 478.596 185.936 479.281 188.326 479.281C190.717 479.281 192.194 478.596 192.194 477.471C192.194 476.311 190.717 475.607 188.326 475.607ZM211.285 464.797V471.16H213.816V472.32H211.285V480.424H209.914V464.797H211.285ZM207.242 466.484C207.242 470.914 205.168 474.939 200.07 477.453L199.297 476.363C203.34 474.351 205.537 471.345 205.853 467.645H200.017V466.484H207.242ZM228.284 472.408V473.551H214.028V472.408H228.284ZM226.526 475.432V480.512H225.155V476.557H215.61V475.432H226.526ZM226.649 469.543V470.668H215.838V465.412H226.508V466.537H217.209V469.543H226.649ZM241.081 464.814V469.965H243.437V471.125H241.081V476.521H239.71V464.814H241.081ZM238.216 466.73V467.855H228.9V466.73H232.872V464.814H234.243V466.73H238.216ZM233.558 468.717C235.79 468.717 237.302 469.859 237.319 471.635C237.302 473.393 235.79 474.518 233.558 474.518C231.308 474.518 229.778 473.393 229.796 471.635C229.778 469.859 231.308 468.717 233.558 468.717ZM233.558 469.807C232.081 469.807 231.097 470.527 231.114 471.635C231.097 472.742 232.081 473.445 233.558 473.428C235.017 473.445 236.001 472.742 236.019 471.635C236.001 470.527 235.017 469.807 233.558 469.807ZM241.802 478.93V480.09H231.308V475.59H232.661V478.93H241.802ZM255.338 465.992C255.338 468.031 258.186 469.895 260.893 470.316L260.348 471.406C257.975 471.002 255.629 469.684 254.635 467.855C253.651 469.719 251.278 471.02 248.905 471.424L248.36 470.334C251.085 469.912 253.915 468.102 253.915 465.992V465.201H255.338V465.992ZM261.79 472.76V473.902H255.426V477.102H254.055V473.902H247.481V472.76H261.79ZM260.19 478.93V480.09H249.309V475.572H250.698V478.93H260.19ZM274.552 464.797V469.561H276.908V470.721H274.552V476.24H273.163V464.797H274.552ZM270.333 466.01C270.333 470.035 267.451 473.023 262.951 474.43L262.353 473.322C266.097 472.153 268.54 469.921 268.839 467.17H263.003V466.01H270.333ZM275.273 478.93V480.09H264.761V475.08H266.132V478.93H275.273ZM284.291 465.078C287.772 465.078 289.811 466.027 289.811 467.768C289.811 469.543 287.772 470.492 284.291 470.51C280.811 470.492 278.754 469.543 278.754 467.768C278.754 466.027 280.811 465.078 284.291 465.078ZM284.291 466.115C281.689 466.115 280.178 466.748 280.195 467.768C280.178 468.857 281.689 469.455 284.291 469.455C286.875 469.455 288.404 468.857 288.404 467.768C288.404 466.748 286.875 466.115 284.291 466.115ZM291.41 471.564V472.689H277.172V471.564H291.41ZM289.582 474.043V477.541H280.301V479.158H290.057V480.248H278.93V476.521H288.229V475.098H278.895V474.043H289.582ZM35.2477 493.998C35.2477 496.758 37.0758 499.588 39.2907 500.678L38.4469 501.785C36.7243 500.88 35.2829 499.034 34.5973 496.863C33.8942 499.175 32.4176 501.144 30.6598 502.084L29.7809 500.977C32.0661 499.852 33.8766 496.846 33.8942 493.998V491.15H35.2477V493.998ZM42.1032 489.797V496.143H44.7223V497.338H42.1032V505.424H40.7321V489.797H42.1032ZM50.4711 493.154C50.4711 495.264 52.141 497.162 54.4789 497.9L53.7757 499.008C51.9564 498.393 50.5062 497.109 49.8031 495.457C49.1175 497.241 47.6498 498.647 45.7953 499.324L45.0746 498.217C47.4125 497.391 49.0824 495.369 49.0824 493.154V492.24H45.4261V491.115H54.0746V492.24H50.4711V493.154ZM57.7484 489.814V501.275H56.3773V489.814H57.7484ZM58.2406 503.93V505.09H47.6586V500.186H49.0296V503.93H58.2406ZM76.6463 497.057V498.182H70.9861V491.291H76.4529V492.416H72.3748V497.057H76.6463ZM77.7889 502.277V503.42H63.4803V502.277H69.8963V498.973H71.2498V502.277H77.7889ZM70.0369 491.291V492.434H66.0994V497.039C67.4178 497.03 68.7273 496.925 70.1775 496.6L70.3006 497.76C68.5955 498.146 67.1541 498.199 65.5896 498.182H64.7283V491.291H70.0369ZM90.9556 494.543V495.65H80.2505V490.377H81.6216V494.543H90.9556ZM92.6079 497.777V498.902H78.2993V497.777H92.6079ZM91.0435 503.895V505.037H80.1626V500.502H81.5337V503.895H91.0435ZM101.258 490.746C102.576 490.737 103.701 491.229 104.422 492.064H108.518V489.797H109.906V499.061H108.518V496.828H104.439C103.701 497.663 102.576 498.155 101.258 498.146C98.9199 498.164 97.1972 496.635 97.1972 494.455C97.1972 492.258 98.9199 490.729 101.258 490.746ZM101.258 491.941C99.6582 491.924 98.5156 492.979 98.5156 494.455C98.5156 495.914 99.6582 496.969 101.258 496.969C102.805 496.969 103.965 495.914 103.965 494.455C103.965 492.979 102.805 491.924 101.258 491.941ZM104.721 499.43C107.955 499.43 109.959 500.52 109.959 502.4C109.959 504.299 107.955 505.389 104.721 505.389C101.469 505.389 99.4824 504.299 99.4824 502.4C99.4824 500.52 101.469 499.43 104.721 499.43ZM104.721 500.502C102.33 500.502 100.836 501.223 100.836 502.4C100.836 503.578 102.33 504.281 104.721 504.281C107.129 504.281 108.605 503.578 108.605 502.4C108.605 501.223 107.129 500.502 104.721 500.502ZM105.09 493.189C105.222 493.576 105.301 493.998 105.301 494.455C105.301 494.895 105.222 495.308 105.09 495.686H108.518V493.189H105.09ZM117.008 492.328C117.008 494.455 118.626 496.406 120.893 497.18L120.137 498.27C118.406 497.637 117.044 496.345 116.358 494.719C115.69 496.556 114.301 498.006 112.473 498.709L111.735 497.602C114.073 496.723 115.637 494.631 115.655 492.223V490.605H117.008V492.328ZM124.005 489.797V493.875H126.36V495.035H124.005V499.307H122.633V489.797H124.005ZM118.995 499.711C122.212 499.711 124.145 500.748 124.145 502.541C124.145 504.369 122.212 505.389 118.995 505.389C115.778 505.389 113.809 504.369 113.809 502.541C113.809 500.748 115.778 499.711 118.995 499.711ZM118.995 500.818C116.639 500.818 115.18 501.469 115.198 502.541C115.18 503.648 116.639 504.281 118.995 504.299C121.368 504.281 122.809 503.648 122.809 502.541C122.809 501.469 121.368 500.818 118.995 500.818ZM133.744 490.816C137.013 490.816 139.456 492.521 139.456 495.105C139.456 497.707 137.013 499.412 133.744 499.395C130.474 499.412 128.031 497.707 128.031 495.105C128.031 492.521 130.474 490.816 133.744 490.816ZM133.744 491.941C131.23 491.924 129.331 493.242 129.349 495.105C129.331 497.004 131.23 498.27 133.744 498.27C136.24 498.27 138.121 497.004 138.121 495.105C138.121 493.242 136.24 491.924 133.744 491.941ZM140.933 502.189V503.35H126.624V502.189H140.933ZM155.77 502.33V503.49H141.461V502.33H147.895V499.377H143.254V494.561H152.606V492.1H143.219V490.957H153.959V495.686H144.625V498.234H154.328V499.377H149.248V502.33H155.77ZM172.998 489.814V501.24H171.627V489.814H172.998ZM173.49 503.93V505.09H162.908V500.08H164.279V503.93H173.49ZM164.56 490.904C166.898 490.904 168.656 492.486 168.656 494.736C168.656 497.021 166.898 498.586 164.56 498.586C162.222 498.586 160.464 497.021 160.464 494.736C160.464 492.486 162.222 490.904 164.56 490.904ZM164.56 492.117C162.978 492.117 161.8 493.207 161.818 494.736C161.8 496.301 162.978 497.373 164.56 497.373C166.107 497.373 167.302 496.301 167.302 494.736C167.302 493.207 166.107 492.117 164.56 492.117ZM182.719 492.1C182.719 494.771 185.778 497.162 188.502 497.672L187.869 498.832C185.514 498.287 183.027 496.608 182.016 494.297C181.005 496.6 178.527 498.278 176.162 498.832L175.53 497.672C178.237 497.145 181.278 494.789 181.278 492.1V490.904H182.719V492.1ZM189.241 502.154V503.297H174.932V502.154H189.241ZM197.784 491.221V492.381H191.843V495.615H197.433V496.74H191.843V500.52C194.655 500.52 196.633 500.405 198.979 500.01L199.138 501.152C196.694 501.557 194.638 501.645 191.685 501.662H190.454V491.221H197.784ZM201.862 489.797V496.09H204.481V497.268H201.862V505.424H200.491V489.797H201.862ZM216.927 491.467V493.031C216.927 495 216.927 497.232 216.347 500.625L214.941 500.484C215.574 497.285 215.574 494.947 215.574 493.031V492.609H206.152V491.467H216.927ZM218.843 501.979V503.121H204.605V501.979H218.843ZM232.713 489.814V499.131H231.395V494.93H229.198V498.92H227.914V490.113H229.198V493.787H231.395V489.814H232.713ZM232.713 499.869V505.213H222.395V499.869H232.713ZM223.748 500.994V504.088H231.36V500.994H223.748ZM226.051 490.834V495.088H221.498V497.338C223.555 497.329 225.128 497.232 226.983 496.863L227.141 497.988C225.12 498.375 223.45 498.428 221.182 498.428H220.163V494.016H224.733V491.959H220.127V490.834H226.051ZM247.673 489.797V505.424H246.337V489.797H247.673ZM244.527 490.131V504.633H243.208V497.039H241.204C241.055 500.08 239.763 501.979 237.829 501.979C235.79 501.979 234.472 499.869 234.472 496.547C234.472 493.225 235.79 491.115 237.829 491.115C239.728 491.115 241.011 492.952 241.187 495.896H243.208V490.131H244.527ZM237.829 492.416C236.564 492.416 235.755 493.998 235.773 496.547C235.755 499.078 236.564 500.678 237.829 500.66C239.095 500.678 239.903 499.078 239.903 496.547C239.903 493.998 239.095 492.416 237.829 492.416ZM259.979 499.676C263.337 499.676 265.463 500.73 265.463 502.541C265.463 504.334 263.337 505.389 259.979 505.389C256.639 505.389 254.512 504.334 254.512 502.541C254.512 500.73 256.639 499.676 259.979 499.676ZM259.979 500.73C257.483 500.748 255.866 501.434 255.883 502.541C255.866 503.631 257.483 504.299 259.979 504.299C262.475 504.299 264.075 503.631 264.092 502.541C264.075 501.434 262.475 500.748 259.979 500.73ZM265.34 490.605V491.924C265.34 493.189 265.34 494.455 264.901 496.072L263.547 495.914C263.969 494.297 263.969 493.154 263.969 491.924V491.73H254.618V490.605H265.34ZM267.151 497.092V498.217H252.93V497.092H258.819V494.068H260.172V497.092H267.151ZM282.04 498.709V499.852H278.261V505.424H276.872V499.852H272.865V505.424H271.441V499.852H267.732V498.709H282.04ZM274.851 490.43C278.138 490.43 280.353 491.748 280.353 493.84C280.353 495.914 278.138 497.232 274.851 497.215C271.564 497.232 269.349 495.914 269.349 493.84C269.349 491.748 271.564 490.43 274.851 490.43ZM274.851 491.555C272.408 491.555 270.755 492.451 270.773 493.84C270.755 495.229 272.408 496.107 274.851 496.107C277.277 496.107 278.947 495.229 278.947 493.84C278.947 492.451 277.277 491.555 274.851 491.555ZM290.391 492.504V493.629H282.551V492.504H285.803V490.271H287.174V492.504H290.391ZM286.471 494.684C288.439 494.684 289.846 496.16 289.863 498.234C289.846 500.326 288.439 501.82 286.471 501.82C284.52 501.82 283.113 500.326 283.113 498.234C283.113 496.16 284.52 494.684 286.471 494.684ZM286.471 495.844C285.24 495.861 284.344 496.863 284.344 498.234C284.344 499.623 285.24 500.625 286.471 500.607C287.719 500.625 288.633 499.623 288.633 498.234C288.633 496.863 287.719 495.861 286.471 495.844ZM295.893 489.797V505.424H294.574V497.531H292.5V504.65H291.199V490.184H292.5V496.389H294.574V489.797H295.893ZM309.113 492.012C309.095 494.104 311.89 495.879 314.615 496.283L314.105 497.373C311.662 496.96 309.289 495.659 308.339 493.77C307.39 495.659 305.008 496.96 302.609 497.373L302.064 496.283C304.771 495.879 307.566 494.104 307.566 492.012V491.906H302.556V490.781H314.105V491.906H309.113V492.012ZM315.458 498.709V499.852H308.99V505.424H307.636V499.852H301.22V498.709H315.458ZM320.697 494.244C320.697 496.723 321.91 499.412 323.985 500.643L323.194 501.715C321.691 500.801 320.61 499.131 320.065 497.232C319.485 499.307 318.324 501.091 316.76 502.049L315.881 501.012C318.043 499.746 319.362 496.969 319.362 494.297V491.273H320.697V494.244ZM329.451 489.797V505.424H328.115V489.797H329.451ZM326.217 490.131V504.633H324.916V496.582H322.262V495.404H324.916V490.131H326.217ZM345.202 502.26V503.42H330.893V502.26H334.444V498.041C333.108 497.347 332.3 496.222 332.3 494.807C332.3 492.381 334.673 490.799 338.013 490.781C341.352 490.799 343.726 492.381 343.726 494.807C343.726 496.195 342.943 497.312 341.651 498.006V502.26H345.202ZM338.013 491.924C335.446 491.906 333.636 493.066 333.636 494.807C333.636 496.547 335.446 497.725 338.013 497.725C340.561 497.725 342.39 496.547 342.39 494.807C342.39 493.066 340.561 491.906 338.013 491.924ZM335.798 502.26H340.263V498.533C339.586 498.718 338.83 498.814 338.013 498.814C337.213 498.814 336.466 498.727 335.798 498.551V502.26ZM347.382 504.105C346.767 504.105 346.24 503.596 346.257 502.963C346.24 502.348 346.767 501.838 347.382 501.838C347.998 501.838 348.507 502.348 348.507 502.963C348.507 503.596 347.998 504.105 347.382 504.105ZM67.6094 527.33C65.8516 527.33 64.5684 525.906 64.5684 523.621C64.5684 521.354 65.8691 519.93 67.627 519.93C68.8926 519.93 69.4199 520.738 69.6309 521.143H69.7188V520.07H71.0547V525.203C71.0723 525.889 71.3711 526.223 71.9336 526.223C73.0234 526.223 73.7441 524.957 73.7617 523.129C73.7793 519.807 71.3711 517.645 68.0137 517.645C64.5332 517.662 62.2832 520.352 62.2832 523.621C62.2832 527.189 64.2344 529.65 67.9434 529.615C69.1738 529.598 69.9824 529.527 71.0547 529.229V530.424C70.1406 530.67 69.1035 530.828 67.9434 530.828C63.6543 530.828 61.0176 528.086 61.0176 523.621C61 519.473 63.918 516.432 68.0137 516.432C72.2148 516.432 75.0449 519.297 75.0273 523.076C75.0273 525.801 73.6211 527.4 71.8457 527.4C70.7383 527.4 69.9033 526.776 69.8418 525.959H69.7188C69.5078 526.346 68.9805 527.33 67.6094 527.33ZM67.8379 526.047C69.0859 526.047 69.7188 525.062 69.7363 523.604C69.7188 522.18 69.1035 521.213 67.8379 521.213C66.6074 521.213 65.9395 522.268 65.9395 523.604C65.9395 524.975 66.625 526.047 67.8379 526.047ZM76.6277 529V516.273H78.1394V520.967H78.2624C78.5964 520.457 79.1589 519.332 81.0222 519.332C83.4128 519.332 85.1003 521.23 85.1003 524.254C85.1003 527.277 83.4128 529.193 81.0398 529.193C79.2116 529.193 78.5964 528.068 78.2624 527.541H78.0866V529H76.6277ZM78.1042 524.219C78.1042 526.363 79.071 527.84 80.8112 527.84C82.6218 527.84 83.571 526.258 83.571 524.219C83.571 522.232 82.657 520.686 80.8112 520.686C79.0534 520.686 78.1042 522.109 78.1042 524.219ZM86.3491 529V519.455H87.808V520.914H87.9135C88.2651 519.947 89.2495 519.297 90.3745 519.297C90.603 519.297 90.9897 519.314 91.1655 519.332V520.861C91.06 520.826 90.6381 520.756 90.2514 520.756C88.8803 520.756 87.8608 521.705 87.8608 522.988V529H86.3491ZM95.6134 529.193C92.8537 529.193 91.1486 527.242 91.1486 524.307C91.1486 521.371 92.8713 519.332 95.4728 519.332C97.4767 519.332 99.5861 520.562 99.5861 524.096V524.729H92.6603C92.7306 526.75 93.9084 527.857 95.6134 527.857C96.756 527.857 97.4767 527.365 97.8283 526.768H99.4455C98.9884 528.209 97.5822 529.193 95.6134 529.193ZM92.6779 523.445H98.0568C98.0568 521.846 97.0373 520.668 95.4728 520.668C93.8205 520.668 92.7658 521.969 92.6779 523.445ZM102.979 529L100.079 519.455H101.679L103.718 526.732H103.806L105.827 519.455H107.444L109.431 526.697H109.536L111.575 519.455H113.157L110.257 529H108.763L106.688 521.723H106.548L104.491 529H102.979ZM114.107 529V519.455H115.619V529H114.107ZM114.863 517.873C114.283 517.873 113.808 517.434 113.808 516.871C113.808 516.309 114.283 515.869 114.863 515.869C115.443 515.869 115.935 516.309 115.935 516.871C115.935 517.434 115.443 517.873 114.863 517.873ZM118.819 523.27V529H117.307V519.455H118.766V520.949H118.889C119.346 519.982 120.225 519.332 121.684 519.332C123.618 519.332 124.901 520.51 124.901 522.936V529H123.389V523.041C123.389 521.564 122.58 520.686 121.227 520.686C119.838 520.686 118.819 521.617 118.819 523.27ZM130.474 532.779C128.171 532.779 126.606 531.777 126.431 530.002H128.013C128.224 530.969 129.12 531.461 130.474 531.461C132.108 531.461 133.11 530.758 133.11 529.176V527.242H132.987C132.671 527.77 132.056 528.859 130.21 528.859C127.89 528.859 126.149 527.102 126.149 524.096C126.149 521.16 127.837 519.332 130.228 519.332C132.073 519.332 132.671 520.457 133.022 520.967H133.146V519.455H134.622V529.264C134.622 531.725 132.794 532.779 130.474 532.779ZM130.421 527.506C132.161 527.506 133.146 526.258 133.146 524.148C133.146 522.109 132.196 520.686 130.421 520.686C128.593 520.686 127.679 522.232 127.679 524.148C127.679 526.135 128.61 527.506 130.421 527.506ZM143.5 529V530.389H135.537V529H143.5ZM144.028 529V516.273H145.54V520.967H145.663C145.997 520.457 146.559 519.332 148.422 519.332C150.813 519.332 152.5 521.23 152.5 524.254C152.5 527.277 150.813 529.193 148.44 529.193C146.612 529.193 145.997 528.068 145.663 527.541H145.487V529H144.028ZM145.504 524.219C145.504 526.363 146.471 527.84 148.211 527.84C150.022 527.84 150.971 526.258 150.971 524.219C150.971 522.232 150.057 520.686 148.211 520.686C146.454 520.686 145.504 522.109 145.504 524.219ZM159.779 525.08V519.455H161.273V529H159.779V527.383H159.673C159.216 528.35 158.284 529.123 156.843 529.123C155.032 529.123 153.749 527.945 153.749 525.52V519.455H155.261V525.414C155.261 526.785 156.122 527.664 157.335 527.664C158.407 527.664 159.779 526.855 159.779 525.08ZM168.287 521.934C168.076 521.143 167.478 520.615 166.353 520.615C165.176 520.615 164.332 521.248 164.332 522.057C164.332 522.689 164.842 523.129 165.967 523.393L167.391 523.744C169.096 524.148 169.939 524.992 169.939 526.328C169.939 527.98 168.586 529.193 166.195 529.193C164.051 529.193 162.768 528.244 162.521 526.504H164.103C164.279 527.436 164.965 527.875 166.16 527.875C167.514 527.875 168.375 527.312 168.375 526.416C168.375 525.748 167.9 525.291 166.81 525.045L165.369 524.711C163.699 524.324 162.82 523.41 162.82 522.145C162.82 520.51 164.244 519.332 166.353 519.332C168.322 519.332 169.57 520.387 169.764 521.934H168.287ZM170.731 526.293C170.731 524.096 172.665 523.604 174.317 523.48C174.923 523.437 176.47 523.357 176.901 523.34V522.566C176.901 521.354 176.18 520.65 174.739 520.65C173.526 520.65 172.805 521.213 172.594 521.934H171.012C171.206 520.404 172.7 519.332 174.809 519.332C176.057 519.332 178.395 519.701 178.395 522.707V529H176.901V527.699H176.831C176.514 528.35 175.635 529.229 173.983 529.229C172.173 529.229 170.731 528.156 170.731 526.293ZM172.243 526.363C172.243 527.365 173.087 527.875 174.247 527.875C175.952 527.875 176.901 526.732 176.901 525.537V524.57L174.493 524.746C173.122 524.834 172.243 525.326 172.243 526.363ZM181.613 523.27V529H180.101V519.455H181.56V520.949H181.683C182.14 519.982 183.019 519.332 184.478 519.332C186.411 519.332 187.695 520.51 187.695 522.936V529H186.183V523.041C186.183 521.564 185.374 520.686 184.021 520.686C182.632 520.686 181.613 521.617 181.613 523.27ZM199.438 516.607V517.732H194.569V520.738H199.21V521.846H194.569V525.379C196.889 525.37 198.322 525.309 200.036 524.992L200.159 526.135C198.331 526.486 196.819 526.557 194.253 526.557H193.251V516.607H199.438ZM206.012 514.797V530.424H204.677V522.232H202.532V529.633H201.196V515.131H202.532V521.09H204.677V514.797H206.012ZM219.777 516.467V518.031C219.777 520 219.777 522.232 219.197 525.625L217.791 525.484C218.423 522.285 218.423 519.947 218.423 518.031V517.609H209.001V516.467H219.777ZM221.693 526.979V528.121H207.455V526.979H221.693ZM236.582 522.057V523.146H222.274V522.057H236.582ZM234.789 524.395V527.717H225.403V529.211H235.299V530.213H224.014V526.768H233.418V525.432H223.996V524.395H234.789ZM234.737 515.271V518.506H225.508V519.877H235.018V520.879H224.137V517.557H233.348V516.273H224.084V515.271H234.737ZM254.004 524.57V525.748H249.556C249.662 527.471 252.026 528.903 254.636 529.299L254.127 530.354C251.806 529.984 249.715 528.877 248.818 527.295C247.93 528.868 245.865 529.984 243.58 530.354L243.07 529.299C245.663 528.903 247.974 527.471 248.132 525.748H243.703V524.57H254.004ZM253.828 514.814V523.762H252.457V514.814H253.828ZM245.39 515.729C247.763 515.729 249.486 517.205 249.486 519.35C249.486 521.494 247.763 522.971 245.39 522.971C243.017 522.971 241.295 521.494 241.295 519.35C241.295 517.205 243.017 515.729 245.39 515.729ZM245.39 516.906C243.791 516.889 242.631 517.891 242.648 519.35C242.631 520.826 243.791 521.811 245.39 521.828C246.972 521.811 248.132 520.826 248.132 519.35C248.132 517.891 246.972 516.889 245.39 516.906ZM261.352 519.596C261.352 522.25 263.286 524.939 265.588 525.941L264.815 527.031C262.987 526.196 261.405 524.395 260.684 522.232C259.946 524.526 258.372 526.521 256.588 527.418L255.762 526.328C257.995 525.256 259.946 522.303 259.963 519.596V517.557H256.272V516.414H265.079V517.557H261.352V519.596ZM268.647 514.797V530.424H267.258V514.797H268.647ZM282.254 516.379V526.451H275.047V516.379H282.254ZM276.383 517.486V525.326H280.883V517.486H276.383ZM286.49 514.797V521.037H289.109V522.232H286.49V530.424H285.119V514.797H286.49ZM293.874 519.244C293.874 521.723 295.086 524.412 297.161 525.643L296.37 526.715C294.867 525.801 293.786 524.131 293.241 522.232C292.661 524.307 291.501 526.091 289.936 527.049L289.057 526.012C291.219 524.746 292.538 521.969 292.538 519.297V516.273H293.874V519.244ZM302.628 514.797V530.424H301.292V514.797H302.628ZM299.393 515.131V529.633H298.092V521.582H295.438V520.404H298.092V515.131H299.393ZM318.378 527.26V528.42H304.07V527.26H307.62V523.041C306.284 522.347 305.476 521.222 305.476 519.807C305.476 517.381 307.849 515.799 311.189 515.781C314.529 515.799 316.902 517.381 316.902 519.807C316.902 521.195 316.119 522.312 314.827 523.006V527.26H318.378ZM311.189 516.924C308.622 516.906 306.812 518.066 306.812 519.807C306.812 521.547 308.622 522.725 311.189 522.725C313.738 522.725 315.566 521.547 315.566 519.807C315.566 518.066 313.738 516.906 311.189 516.924ZM308.974 527.26H313.439V523.533C312.762 523.718 312.006 523.814 311.189 523.814C310.389 523.814 309.642 523.727 308.974 523.551V527.26ZM321.438 516.273L321.314 525.414H319.838L319.715 516.273H321.438ZM320.576 529.105C319.961 529.105 319.434 528.596 319.451 527.963C319.434 527.348 319.961 526.838 320.576 526.838C321.191 526.838 321.701 527.348 321.701 527.963C321.701 528.596 321.191 529.105 320.576 529.105Z" fill="#192D35"/>
<path d="M131.413 325C124.796 324.964 118.463 322.307 113.804 317.61C109.146 312.914 106.542 306.563 106.564 299.951V226.902C104.236 225.98 102.145 224.545 100.447 222.705C98.7494 220.865 97.4882 218.666 96.7573 216.272L90.5159 195.43C90.3569 194.911 90.2256 194.384 90.1226 193.851C89.6206 193.129 89.1847 192.364 88.8202 191.564L86.3572 190.971C84.3013 190.483 82.3619 189.594 80.6501 188.356C78.9382 187.118 77.4874 185.555 76.3807 183.756C75.274 181.958 74.5331 179.958 74.2004 177.873C73.8678 175.788 73.9498 173.658 74.4419 171.604L78.8715 153.12C79.3636 151.067 80.2558 149.131 81.497 147.423C82.7382 145.715 84.3041 144.267 86.1052 143.164C87.9063 142.061 89.9074 141.323 91.994 140.993C94.0806 140.662 96.2119 140.746 98.266 141.239L106.564 143.224V54.8548C106.564 54.7646 106.564 54.6744 106.564 54.5778V54.0624C106.54 47.4482 109.143 41.0947 113.802 36.3961C118.46 31.6974 124.794 29.0375 131.413 29H250.573C257.192 29.0375 263.527 31.6972 268.187 36.3957C272.846 41.0941 275.451 47.4476 275.428 54.0624V118.445L285.551 116.583C286.514 116.403 287.492 116.312 288.472 116.312C292.231 116.312 295.871 117.628 298.759 120.032C301.648 122.435 303.602 125.775 304.282 129.468L307.731 148.153C308.116 150.228 308.087 152.358 307.647 154.422C307.207 156.487 306.364 158.444 305.167 160.182C303.969 161.921 302.44 163.406 300.667 164.553C298.895 165.701 296.913 166.487 294.836 166.869L292.734 167.262C291.504 169.572 289.668 171.505 287.422 172.852C285.176 174.2 282.606 174.911 279.987 174.909C278.44 174.91 276.903 174.662 275.435 174.175V299.951C275.455 306.564 272.85 312.915 268.19 317.611C263.531 322.307 257.197 324.964 250.579 325H131.413Z" fill="white"/>
<path d="M262 54.2518V298.787C262.017 301.999 260.768 305.087 258.528 307.376C256.287 309.665 253.237 310.968 250.043 311H131.944C128.752 310.968 125.703 309.664 123.464 307.375C121.226 305.086 119.98 301.998 120.001 298.787V54.2518C119.97 51.0342 121.211 47.936 123.451 45.6385C125.69 43.341 128.745 42.0322 131.944 42H250.043C253.243 42.0322 256.3 43.3406 258.541 45.6377C260.783 47.9348 262.027 51.033 262 54.2518Z" fill="white"/>
<path d="M250.044 43H131.95C128.751 43.0305 125.696 44.3377 123.455 46.6341C121.214 48.9304 119.972 52.028 120 55.2457V299.786C119.982 302.998 121.229 306.086 123.468 308.375C125.708 310.664 128.757 311.968 131.95 312H250.044C253.237 311.968 256.287 310.665 258.528 308.376C260.768 306.087 262.017 302.999 262 299.786V55.2457C262.027 52.0274 260.783 48.9298 258.541 46.6337C256.299 44.3375 253.243 43.0306 250.044 43ZM254.517 292.227C254.517 298.655 249.731 303.868 243.82 303.868H138.18C132.257 303.868 127.464 298.662 127.464 292.227V64.5087C127.464 51.4016 132.257 50.7588 138.18 50.7588H159.344C160.571 50.7588 161.58 52.1666 161.58 53.9086V54.6607C161.58 58.7426 163.798 58.7555 166.526 58.7555H215.461C218.215 58.7555 220.42 58.7555 220.42 54.6607V53.9086C220.42 52.1666 221.417 50.7588 222.663 50.7588H243.826C249.737 50.7588 254.523 52.5008 254.523 64.5087L254.517 292.227Z" fill="#263238"/>
<path d="M202.752 54H179.248C179.084 54 178.922 53.9483 178.771 53.8478C178.619 53.7472 178.481 53.5999 178.366 53.4142C178.25 53.2285 178.158 53.008 178.095 52.7654C178.032 52.5227 178 52.2626 178 52C178 51.7374 178.032 51.4773 178.095 51.2346C178.158 50.992 178.25 50.7715 178.366 50.5858C178.481 50.4001 178.619 50.2528 178.771 50.1522C178.922 50.0517 179.084 50 179.248 50H202.752C203.083 50 203.4 50.2107 203.634 50.5858C203.868 50.9609 204 51.4696 204 52C204 52.5304 203.868 53.0391 203.634 53.4142C203.4 53.7893 203.083 54 202.752 54Z" fill="white"/>
<path opacity="0.5" d="M247 107H135V266H247V107Z" fill="#8DBAE4"/>
<path d="M147.639 99.2861C150.115 96.8108 150.115 92.7976 147.639 90.3223C145.164 87.847 141.15 87.847 138.674 90.3223C136.198 92.7976 136.198 96.8108 138.674 99.2861C141.15 101.761 145.164 101.761 147.639 99.2861Z" fill="#8DBAE4"/>
<path d="M200 92H156V97H200V92Z" fill="#8DBAE4"/>
<path d="M144.177 277.282C143.009 278.874 141.394 280.157 139.497 281C137.604 280.156 135.994 278.873 134.831 277.282C133.632 275.449 133.496 272.761 136.01 272.104C138.247 271.522 139.497 273.576 139.497 273.576C139.497 273.576 140.748 271.522 142.991 272.104C145.498 272.761 145.369 275.449 144.177 277.282Z" fill="#FF634C"/>
<path d="M159.983 278.281L161 281L158.299 280.112C157.664 280.491 156.944 280.69 156.211 280.69C155.378 280.69 154.564 280.435 153.872 279.957C153.179 279.48 152.639 278.801 152.321 278.008C152.002 277.214 151.918 276.34 152.081 275.497C152.243 274.654 152.644 273.88 153.233 273.273C153.822 272.665 154.573 272.251 155.39 272.083C156.207 271.916 157.053 272.002 157.823 272.331C158.592 272.66 159.25 273.216 159.713 273.931C160.175 274.645 160.422 275.485 160.422 276.345C160.426 277.017 160.275 277.68 159.983 278.281Z" fill="white" stroke="#263238" stroke-width="1.5" stroke-linecap="round" stroke-linejoin="round"/>
<path d="M170 272H180L173.845 281L173.141 275.796L170 272Z" fill="white" stroke="#263238" stroke-width="1.5" stroke-linecap="round" stroke-linejoin="round"/>
<path d="M173 276L180 272" stroke="#263238" stroke-width="1.5" stroke-linecap="round" stroke-linejoin="round"/>
<path d="M247 281L243 277.943L239 281V272H247V281Z" fill="white" stroke="#263238" stroke-width="1.5" stroke-linecap="round" stroke-linejoin="round"/>
<path d="M236 95C236 95.3959 235.882 95.7829 235.662 96.112C235.442 96.4411 235.129 96.6974 234.763 96.8485C234.398 96.9997 233.995 97.0388 233.607 96.961C233.219 96.8831 232.862 96.6919 232.583 96.4114C232.304 96.1308 232.114 95.7737 232.037 95.3852C231.961 94.9967 232.002 94.5944 232.155 94.229C232.307 93.8637 232.565 93.5519 232.895 93.3331C233.225 93.1144 233.612 92.9984 234.008 93C234.27 93 234.53 93.0518 234.772 93.1524C235.014 93.253 235.234 93.4005 235.419 93.5863C235.604 93.7721 235.751 93.9927 235.851 94.2353C235.95 94.4779 236.001 94.7378 236 95Z" fill="#8DBAE4"/>
<path d="M241 95C241 95.3956 240.912 95.7822 240.747 96.1111C240.582 96.44 240.348 96.6964 240.074 96.8478C239.8 96.9991 239.498 97.0387 239.207 96.9616C238.916 96.8844 238.649 96.6939 238.439 96.4142C238.23 96.1345 238.087 95.7781 238.029 95.3902C237.971 95.0022 238.001 94.6001 238.114 94.2346C238.228 93.8692 238.42 93.5568 238.667 93.3371C238.913 93.1173 239.203 93 239.5 93C239.697 93 239.892 93.0517 240.074 93.1522C240.256 93.2528 240.421 93.4001 240.561 93.5858C240.7 93.7715 240.81 93.992 240.886 94.2346C240.961 94.4773 241 94.7374 241 95Z" fill="#8DBAE4"/>
<path d="M247 95C247 95.3956 246.941 95.7822 246.831 96.1111C246.722 96.44 246.565 96.6964 246.383 96.8478C246.2 96.9991 245.999 97.0387 245.805 96.9616C245.611 96.8844 245.433 96.6939 245.293 96.4142C245.153 96.1345 245.058 95.7781 245.019 95.3902C244.981 95.0022 245 94.6001 245.076 94.2346C245.152 93.8692 245.28 93.5568 245.444 93.3371C245.609 93.1173 245.802 93 246 93C246.131 93 246.261 93.0517 246.383 93.1522C246.504 93.2528 246.614 93.4001 246.707 93.5858C246.8 93.7715 246.874 93.992 246.924 94.2346C246.974 94.4773 247 94.7374 247 95Z" fill="#8DBAE4"/>
<path d="M205.444 256L157 247.245L167.384 156L227 166.775L205.444 256Z" fill="#FF634C"/>
<path d="M227 166.768L205.448 256L157 247.246L167.379 156L227 166.768Z" fill="white"/>
<path d="M219 165.076L197.024 254L157 246.931L167.584 156L219 165.076Z" fill="#FF634C"/>
<path d="M205.444 256L157 247.245L167.384 156L227 166.775L205.444 256Z" stroke="#263238" stroke-width="1.5" stroke-linecap="round" stroke-linejoin="round"/>
<path d="M233.602 155.977L164.938 143.699L162.378 158.01L231.042 170.288L233.602 155.977Z" fill="white" stroke="#263238" stroke-width="1.5" stroke-linecap="round" stroke-linejoin="round"/>
<path d="M224.469 146.074L176.674 137L172 145.744L226 156L224.469 146.074Z" fill="white" stroke="#263238" stroke-width="1.5" stroke-linecap="round" stroke-linejoin="round"/>
<path d="M189 220.902C189 220.902 191.041 218.579 191.054 214.093C191.067 209.607 188.493 204.077 190.885 196.231C193.278 188.386 197.432 187 197.432 187C197.432 187 207.242 191.144 204.524 205.919C201.807 220.693 191.698 221.376 189 220.902Z" fill="white"/>
<path d="M184.829 221C184.829 221 187.495 218.491 187.251 213.543C186.981 208.15 184.913 202.081 187.726 194.866C190.064 188.887 193 186.161 193 186.161C193 186.161 178.136 183.353 175.412 201.189C172.631 219.44 184.829 221 184.829 221Z" fill="white"/>
<path d="M291.574 131.67L294.947 150.347C295.101 151.204 294.916 152.088 294.433 152.805C293.949 153.523 293.207 154.014 292.368 154.173L283.768 155.795L281.587 161.006C281.486 161.247 281.33 161.46 281.132 161.626C280.934 161.793 280.7 161.909 280.449 161.964C280.198 162.019 279.938 162.011 279.69 161.942C279.443 161.873 279.215 161.744 279.027 161.566L274.765 157.502L266.165 159.119C265.328 159.275 264.465 159.086 263.764 158.593C263.064 158.101 262.582 157.345 262.426 156.491L259.053 137.814C258.977 137.39 258.983 136.954 259.071 136.532C259.16 136.11 259.329 135.71 259.569 135.354C259.809 134.999 260.116 134.695 260.471 134.461C260.826 134.227 261.222 134.066 261.638 133.989L287.86 129.049C288.692 128.9 289.548 129.092 290.243 129.582C290.938 130.073 291.416 130.823 291.574 131.67Z" fill="#FF634C" stroke="#263238" stroke-width="1.5" stroke-linecap="round" stroke-linejoin="round"/>
<path d="M281.613 143.794C280.708 145.861 279.252 147.658 277.393 149C275.165 148.386 273.144 147.212 271.536 145.595C269.843 143.704 269.108 140.617 271.672 139.372C273.958 138.271 275.756 140.407 275.756 140.407C275.756 140.407 276.652 137.787 279.197 138.014C282.015 138.307 282.466 141.443 281.613 143.794Z" fill="white"/>
<path d="M124.907 164.544L120.422 183.262C120.322 183.689 120.139 184.093 119.883 184.449C119.627 184.805 119.303 185.108 118.93 185.339C118.557 185.57 118.142 185.725 117.709 185.795C117.276 185.866 116.834 185.85 116.407 185.75L107.599 183.641L103.395 187.558C103.2 187.739 102.965 187.87 102.709 187.94C102.453 188.011 102.184 188.019 101.924 187.964C101.664 187.909 101.421 187.792 101.216 187.624C101.011 187.456 100.849 187.241 100.744 186.997L98.348 181.428L89.5472 179.319C88.6895 179.111 87.9492 178.572 87.4889 177.819C87.0286 177.066 86.886 176.161 87.0924 175.304L91.5842 156.572C91.7861 155.714 92.3198 154.97 93.0686 154.504C93.8174 154.038 94.7203 153.887 95.5798 154.085L122.433 160.522C122.86 160.623 123.263 160.807 123.619 161.064C123.975 161.32 124.276 161.645 124.506 162.019C124.736 162.392 124.89 162.808 124.959 163.241C125.028 163.675 125.01 164.117 124.907 164.544Z" fill="#FF634C" stroke="#263238" stroke-width="1.5" stroke-linecap="round" stroke-linejoin="round"/>
<path d="M110.268 171.626C108.573 173.294 106.489 174.458 104.227 175C102.45 173.444 101.094 171.422 100.295 169.139C99.5404 166.533 100.159 163.147 103.028 163.003C105.581 162.886 106.329 165.778 106.329 165.778C106.329 165.778 108.246 163.557 110.472 164.886C112.952 166.351 112.067 169.666 110.268 171.626Z" fill="white"/>
<path d="M238.75 95.3236L231.545 112.977C231.213 113.787 230.586 114.427 229.8 114.757C229.014 115.087 228.134 115.081 227.353 114.739L219.352 111.222L214.753 114.375C214.541 114.521 214.297 114.612 214.044 114.641C213.791 114.669 213.535 114.633 213.297 114.537C213.06 114.441 212.848 114.286 212.681 114.087C212.513 113.888 212.394 113.65 212.334 113.393L210.943 107.543L202.942 104.033C202.165 103.69 201.551 103.04 201.233 102.228C200.916 101.415 200.922 100.506 201.25 99.698L208.456 82.0248C208.619 81.6234 208.857 81.2594 209.157 80.9536C209.456 80.6477 209.81 80.4061 210.2 80.2425C210.589 80.0789 211.005 79.9965 211.426 80.0001C211.846 80.0037 212.261 80.0931 212.647 80.2633L237.052 90.9751C237.831 91.3204 238.447 91.9714 238.765 92.7861C239.083 93.6009 239.078 94.513 238.75 95.3236Z" fill="#FF634C" stroke="#263238" stroke-width="1.5" stroke-linecap="round" stroke-linejoin="round"/>
<path d="M223.784 101.519C222.002 102.98 219.934 103.836 217.792 104C216.385 102.01 215.44 99.597 215.054 97.0115C214.739 94.1043 215.793 90.645 218.434 91.0294C220.782 91.3718 221.051 94.5726 221.051 94.5726C221.051 94.5726 223.125 92.5808 224.969 94.3978C227.009 96.4385 225.708 99.8069 223.784 101.519Z" fill="white"/>
<path d="M156.852 99.485L167.443 115.507C167.684 115.87 167.852 116.278 167.936 116.707C168.021 117.135 168.021 117.577 167.936 118.006C167.851 118.434 167.684 118.842 167.442 119.205C167.201 119.569 166.89 119.88 166.529 120.123L159.054 125.143V130.889C159.055 131.154 158.992 131.416 158.871 131.653C158.751 131.889 158.575 132.093 158.36 132.246C158.145 132.4 157.896 132.499 157.635 132.535C157.373 132.572 157.107 132.544 156.859 132.455L151.191 130.425L143.723 135.446C142.994 135.933 142.103 136.108 141.246 135.935C140.389 135.761 139.635 135.252 139.15 134.519L128.553 118.49C128.068 117.755 127.892 116.856 128.065 115.99C128.237 115.125 128.744 114.364 129.473 113.874L152.266 98.5579C152.997 98.0685 153.89 97.8913 154.75 98.0652C155.609 98.239 156.366 98.7496 156.852 99.485Z" fill="#FF634C" stroke="#263238" stroke-width="1.5" stroke-linecap="round" stroke-linejoin="round"/>
<path d="M153 115.481C153.009 117.731 152.387 119.943 151.195 121.892C148.829 122.185 146.424 121.878 144.227 121.003C141.839 119.916 139.863 117.367 141.757 115.254C143.448 113.368 146.039 114.657 146.039 114.657C146.039 114.657 145.791 111.917 148.287 111.171C151.112 110.288 152.848 112.986 153 115.481Z" fill="white"/>
<path d="M139.695 180.69L145.84 201.706C146.125 202.667 146.027 203.705 145.566 204.592C145.106 205.479 144.321 206.143 143.383 206.438L133.728 209.402L131.868 215.662C131.781 215.951 131.628 216.215 131.422 216.431C131.215 216.647 130.961 216.81 130.681 216.905C130.401 216.999 130.102 217.024 129.81 216.976C129.519 216.929 129.243 216.81 129.005 216.631L123.59 212.509L113.935 215.467C113.469 215.615 112.979 215.667 112.493 215.62C112.007 215.573 111.536 215.427 111.105 215.192C110.675 214.957 110.294 214.637 109.986 214.25C109.677 213.863 109.446 213.417 109.307 212.938L103.156 191.916C103.016 191.438 102.97 190.937 103.019 190.441C103.069 189.945 103.213 189.464 103.444 189.025C103.675 188.587 103.988 188.199 104.366 187.884C104.743 187.569 105.178 187.333 105.644 187.19L135.08 178.161C136.019 177.872 137.033 177.975 137.898 178.449C138.763 178.923 139.409 179.729 139.695 180.69Z" fill="#FF634C" stroke="#263238" stroke-width="1.5" stroke-linecap="round" stroke-linejoin="round"/>
<path d="M130.77 196.914C130.138 199.613 128.11 202.509 126.537 204C124.439 203.657 121.223 202.397 119.277 200.503C117.06 198.353 115.803 194.566 118.646 192.685C121.173 190.996 123.536 193.437 123.536 193.437C123.536 193.437 124.237 190.033 127.225 190C130.555 189.974 131.496 193.84 130.77 196.914Z" fill="white"/>
<path d="M266.864 154.721L261.072 175.381C260.94 175.85 260.714 176.289 260.407 176.674C260.1 177.058 259.717 177.38 259.282 177.621C258.846 177.863 258.366 178.018 257.868 178.08C257.37 178.141 256.864 178.107 256.38 177.979L246.361 175.343L241.401 179.545C241.171 179.739 240.897 179.877 240.601 179.947C240.304 180.017 239.995 180.018 239.699 179.948C239.403 179.879 239.128 179.741 238.898 179.547C238.668 179.354 238.489 179.109 238.377 178.835L235.825 172.567L225.813 169.912C225.329 169.785 224.876 169.568 224.479 169.272C224.083 168.975 223.751 168.606 223.502 168.185C223.253 167.764 223.093 167.299 223.03 166.818C222.967 166.337 223.003 165.848 223.136 165.38L228.928 144.733C229.194 143.786 229.838 142.979 230.717 142.491C231.597 142.003 232.641 141.872 233.62 142.128L264.187 150.177C264.671 150.305 265.125 150.523 265.521 150.821C265.918 151.119 266.25 151.489 266.499 151.911C266.747 152.333 266.908 152.799 266.97 153.281C267.033 153.763 266.997 154.252 266.864 154.721Z" fill="#FF634C" stroke="#263238" stroke-width="1.5" stroke-linecap="round" stroke-linejoin="round"/>
<path d="M250.685 162.575C248.508 164.313 245.863 165.495 243.021 166C241.307 164.656 239.067 162.011 238.298 159.519C237.448 156.677 238.345 153.056 241.921 153C245.119 152.957 245.969 156.106 245.969 156.106C245.969 156.106 248.445 153.774 251.171 155.284C254.247 156.972 252.999 160.513 250.685 162.575Z" fill="white"/>
<path d="M210 72.6026V93.4226C210 94.3781 209.611 95.2944 208.918 95.97C208.225 96.6457 207.286 97.0252 206.306 97.0252H196.275L192.746 102.201C192.582 102.44 192.363 102.637 192.105 102.776C191.847 102.915 191.559 102.991 191.265 102.999C190.97 103.007 190.679 102.946 190.413 102.821C190.148 102.696 189.918 102.511 189.741 102.281L185.725 97.0252H175.687C174.709 97.0252 173.772 96.6463 173.08 95.9718C172.389 95.2974 172 94.3826 172 93.4288V72.6026C172 71.6472 172.389 70.7308 173.082 70.0552C173.775 69.3796 174.714 69 175.694 69H206.306C206.792 68.9992 207.272 69.0918 207.721 69.2726C208.169 69.4533 208.577 69.7187 208.92 70.0534C209.263 70.3881 209.535 70.7855 209.721 71.223C209.906 71.6605 210.001 72.1293 210 72.6026Z" fill="#FF634C" stroke="#263238" stroke-width="1.5" stroke-linecap="round" stroke-linejoin="round"/>
<path d="M196.114 83.6277C194.968 85.9576 192.64 88.0693 191.01 89C189.397 88.0693 187.047 85.9576 185.907 83.6277C184.594 80.9769 184.454 77.0936 187.197 76.1501C189.644 75.3093 191.01 78.2747 191.01 78.2747C191.01 78.2747 192.376 75.3093 194.818 76.1501C197.539 77.0936 197.399 80.9769 196.114 83.6277Z" fill="white"/>
</svg>
