<svg width="385" height="554" viewBox="0 0 385 554" fill="none" xmlns="http://www.w3.org/2000/svg">
<path d="M61.4491 432.24C60.0291 433.74 57.8291 434.7 55.3491 434.72V431.92C57.7891 431.7 59.4891 430.16 59.5091 428.4H55.4491V425.48H59.4291V423.78H63.0891V425.48H67.1491V428.4H63.0491C63.0491 428.82 62.9891 429.22 62.9091 429.6C65.5891 429.7 67.6091 431.34 67.5691 434.48H64.0491C64.0091 432.96 62.9291 432.04 61.4491 432.24ZM72.6291 423.86V427.44H74.4291V430.72H72.6291V434.72H68.8291V423.86H72.6291ZM72.7491 442.52H56.3091V435.42H72.7491V442.52ZM69.0091 437.94H60.0491V439.98H69.0091V437.94ZM88.9491 428.1V423.86H92.7491V442.52H88.9491V437.62H86.0491C85.7291 440.54 83.5891 442.14 80.6091 442.14C77.3691 442.14 75.1091 440.26 75.1091 436.86V429.32C75.1091 425.96 77.3491 424.06 80.5891 424.06C83.4091 424.06 85.4891 425.5 85.9891 428.1H88.9491ZM82.4491 437.24V428.96C82.4491 427.74 81.6291 427.08 80.5891 427.1C79.5491 427.12 78.7491 427.76 78.7491 428.96V437.24C78.7491 438.46 79.5491 439.08 80.5891 439.08C81.6291 439.08 82.4491 438.46 82.4491 437.24ZM86.0891 431.22V434.5H88.9491V431.22H86.0891ZM109.369 431.1V423.86H112.669V442.52H109.369V434.22H108.169V442.52H104.869V423.86H108.169V431.1H109.369ZM97.2891 423.94H100.849V425.9H104.089V428.84H103.029C103.289 429.42 103.429 430.1 103.429 430.88V437.28C103.429 440.62 101.889 442.24 99.1291 442.24C96.3691 442.24 94.8091 440.62 94.8091 437.28V430.88C94.8091 430.1 94.9491 429.42 95.2091 428.84H94.1491V425.9H97.2891V423.94ZM100.149 437.96V429.98C100.149 429.06 99.7691 428.68 99.1291 428.68C98.4691 428.68 98.0891 429.06 98.0891 429.98V437.96C98.0891 438.86 98.4691 439.26 99.1291 439.26C99.7691 439.26 100.149 438.86 100.149 437.96ZM132.169 434.34H128.389C127.769 432.48 125.809 431.02 123.369 431.12C121.429 433.02 118.169 434.2 114.449 434.36V431.34C118.309 431.04 121.129 429.3 121.309 427.2H114.829V424.16H131.549V427.2H125.209C125.189 427.66 125.109 428.12 124.989 428.54C128.409 428.56 131.869 430.5 132.169 434.34ZM113.989 435.14H132.389V438.22H125.129V442.62H121.249V438.22H113.989V435.14ZM147.809 423.86H151.609V437.92H147.809V423.86ZM140.329 430.84C139.069 432.98 136.829 434.48 133.989 434.9V431.62C136.349 430.82 137.689 428.92 137.729 425.74V424.22H141.509V426.44C141.509 426.96 141.469 427.46 141.389 427.96C144.269 428.34 146.209 430.72 146.169 434.46H142.449C142.489 432.84 141.669 431.28 140.329 430.84ZM138.869 435.74V439.56H151.989V442.52H135.009V435.74H138.869ZM172.235 423.96H176.115V431.8H159.155V423.96H163.055V425.3H172.235V423.96ZM163.055 427.78V429.18H172.235V427.78H163.055ZM158.455 435.82V432.84H176.855V435.82H169.795V438.32H165.915V435.82H158.455ZM159.295 436.7H163.195V439.66H176.235V442.52H159.295V436.7ZM178.795 424.08H195.595V426.58H182.495V427.74H195.635V430.24H178.795V424.08ZM178.075 431.14H196.475V433.72H178.075V431.14ZM196.135 442.52H178.655V437.56H191.695V436.74H178.655V434.6H195.815V439.54H182.775V440.36H196.135V442.52ZM221.28 431.44H217.38C216.14 430 213.72 429.58 211.3 429.98C209.34 430.9 206.58 431.4 203.4 431.44V428.66C207.04 428.66 209.86 427.86 210.36 426.78H203.76V424.06H220.48V426.78H214.3C214.24 427.14 214.12 427.5 213.94 427.82C217.5 427.6 220.42 428.82 221.28 431.44ZM221.32 432.04V434.82H214.06V435.98H217.2C219.72 435.98 220.92 437.3 220.92 439.28C220.92 441.26 219.72 442.58 217.2 442.58H207.04C204.52 442.58 203.32 441.26 203.32 439.28C203.32 437.3 204.52 435.98 207.04 435.98H210.18V434.82H202.92V432.04H221.32ZM217.06 439.28C217.06 438.64 216.6 438.44 215.88 438.44H208.36C207.64 438.44 207.18 438.64 207.18 439.28C207.18 439.92 207.64 440.12 208.36 440.12H215.88C216.6 440.12 217.06 439.92 217.06 439.28ZM245.925 434.56H242.185C241.645 432.96 239.345 431.7 236.805 432.06C234.965 433.62 231.965 434.58 228.105 434.66V431.7C232.285 431.5 234.685 430.02 234.985 428.16H228.525V425.24H234.925V423.48H239.005L239.025 425.24H245.405V428.16H238.865C238.845 428.6 238.765 429.04 238.625 429.44C242.105 429.24 245.505 430.92 245.925 434.56ZM227.765 435.38H246.165V438.46H238.905V442.62H235.025V438.46H227.765V435.38ZM253.605 432.22C252.225 433.72 250.065 434.7 247.605 434.72V431.9C250.005 431.66 251.645 430.14 251.645 428.34V428.28H247.705V425.36H251.565V423.78H255.205V425.36H258.945V428.28H255.165V428.34C255.165 428.78 255.105 429.2 255.025 429.6C257.685 429.7 259.585 431.38 259.545 434.48H256.065C256.045 432.98 255.045 432.08 253.605 432.22ZM258.905 431.42V428.5H261.585V423.86H265.385V434.72H261.585V431.42H258.905ZM248.565 442.52V435.42H265.405V442.52H248.565ZM252.305 439.98H261.665V437.94H252.305V439.98ZM267.525 427.18V427.1C267.525 425.04 268.925 423.94 271.405 423.94H280.985C283.465 423.94 284.885 425.04 284.885 427.1V427.18C284.885 429.22 283.465 430.34 280.985 430.34H271.405C268.925 430.34 267.525 429.22 267.525 427.18ZM281.025 427.16V427.14C281.025 426.74 280.785 426.46 280.245 426.46H272.165C271.605 426.46 271.385 426.74 271.385 427.14V427.16C271.385 427.56 271.605 427.82 272.165 427.82H280.245C280.785 427.82 281.025 427.56 281.025 427.16ZM267.005 431.14H285.405V433.72H267.005V431.14ZM285.065 442.52H267.585V437.56H280.625V436.74H267.585V434.6H284.745V439.54H271.705V440.36H285.065V442.52ZM302.991 431.82V432.74H310.251V435.32H291.851V432.74H299.111V431.82H292.511V423.94H309.311V426.16H296.311V426.96H309.191V428.88H296.311V429.68H309.551V431.82H302.991ZM295.971 436.08H306.131C308.651 436.08 309.851 437.36 309.851 439.32C309.851 441.3 308.651 442.58 306.131 442.58H295.971C293.451 442.58 292.251 441.3 292.251 439.32C292.251 437.36 293.451 436.08 295.971 436.08ZM297.271 440.12H304.851C305.551 440.12 305.991 439.94 305.991 439.32C305.991 438.7 305.551 438.52 304.851 438.52H297.271C296.551 438.52 296.111 438.7 296.111 439.32C296.111 439.94 296.551 440.12 297.271 440.12ZM326.471 431.1V423.86H329.771V442.52H326.471V434.22H325.271V442.52H321.971V423.86H325.271V431.1H326.471ZM314.391 423.94H317.951V425.9H321.191V428.84H320.131C320.391 429.42 320.531 430.1 320.531 430.88V437.28C320.531 440.62 318.991 442.24 316.231 442.24C313.471 442.24 311.911 440.62 311.911 437.28V430.88C311.911 430.1 312.051 429.42 312.311 428.84H311.251V425.9H314.391V423.94ZM317.251 437.96V429.98C317.251 429.06 316.871 428.68 316.231 428.68C315.571 428.68 315.191 429.06 315.191 429.98V437.96C315.191 438.86 315.571 439.26 316.231 439.26C316.871 439.26 317.251 438.86 317.251 437.96ZM93.4778 454.26H97.3578V465.6H80.6778V454.26H84.5778V456.92H93.4778V454.26ZM84.5778 459.84V462.56H93.4778V459.84H84.5778ZM79.8378 472.02V468.84H98.2378V472.02H79.8378ZM100.218 457.96H112.978V456.86H100.118V454.14H116.918V460.44H104.138V461.58H117.158V464.26H100.218V457.96ZM99.4578 465.34H117.858V468.42H110.598V472.62H106.718V468.42H99.4578V465.34ZM137.078 464.12H133.278V453.86H137.078V464.12ZM119.438 459.52V458.38C119.438 455.48 121.838 453.96 125.118 453.96C128.418 453.96 130.818 455.46 130.818 458.38V459.52C130.818 462.44 128.418 463.94 125.138 463.94C121.858 463.94 119.438 462.44 119.438 459.52ZM123.138 458.38V459.52C123.138 460.48 123.878 461.18 125.118 461.18C126.358 461.18 127.118 460.48 127.118 459.52V458.38C127.118 457.42 126.358 456.7 125.118 456.72C123.878 456.74 123.138 457.42 123.138 458.38ZM120.138 468.66C120.138 466.38 121.598 464.74 124.478 464.74H132.958C135.798 464.74 137.298 466.34 137.298 468.66C137.298 470.98 135.798 472.58 132.958 472.58H124.478C121.598 472.58 120.138 470.94 120.138 468.66ZM123.998 468.66C123.998 469.46 124.498 470 125.458 470H131.978C132.938 470 133.438 469.46 133.438 468.66C133.438 467.86 132.938 467.3 131.978 467.3H125.458C124.498 467.3 123.998 467.86 123.998 468.66ZM152.398 454.14H156.278V463.7H139.478V454.14H143.378V455.88H152.398V454.14ZM143.378 458.84V460.62H152.398V458.84H143.378ZM138.698 465.14H157.098V468.22H149.838V472.62H145.958V468.22H138.698V465.14ZM175.818 453.86V458.84H177.618V462.12H175.818V467.92H172.018V453.86H175.818ZM164.938 460.92C163.678 463.02 161.478 464.48 158.698 464.9V461.64C161.018 460.82 162.338 458.94 162.358 455.78V454.22H166.118V456.46C166.118 457 166.078 457.52 165.998 458.02C168.838 458.46 170.738 460.8 170.678 464.46H166.998C167.058 462.88 166.238 461.36 164.938 460.92ZM159.718 465.74H163.578V469.56H176.298V472.52H159.718V465.74ZM199.963 460.84H201.563V463.82H194.303V465.72H190.423V463.82H183.163V460.84H196.243C196.603 460.08 196.823 459.06 196.823 457.94V456.96H184.003V454.02H200.583V457.26C200.583 458.92 200.363 460 199.963 460.84ZM194.083 467.78C197.283 467.62 200.723 469.16 201.383 472.52H197.503C196.743 470.88 194.603 470.04 192.283 470.42C190.143 472.18 186.683 472.84 183.563 472.62V469.78C187.403 469.78 190.083 468.62 190.403 466.3H194.323C194.303 466.82 194.223 467.32 194.083 467.78ZM212.023 462.16C210.063 464.26 206.823 465.56 203.243 465.76V462.64C207.143 462.2 209.923 460.08 210.003 457.54H203.623V454.36H220.343V457.54H213.943C213.923 458.18 213.843 458.78 213.663 459.34C217.143 459.34 220.623 461.48 220.903 465.74H217.163C216.683 463.6 214.643 461.94 212.023 462.16ZM202.783 472.02V468.84H221.183V472.02H202.783ZM240.103 461.36H223.143V456.78H236.003V456.06H223.063V453.96H239.923V458.52H227.043V459.26H240.103V461.36ZM222.403 462.04H240.803V464.42H222.403V462.04ZM240.463 472.52H222.983V467.84H236.023V467.16H222.983V465.1H240.143V469.76H227.103V470.44H240.463V472.52ZM248.149 454.38H264.289V457.52H252.029V462.1H264.629V465.24H248.149V454.38ZM247.249 468.84H265.649V472.02H247.249V468.84ZM281.069 457.9V453.86H284.869V472.52H281.069V466.92H277.789V463.8H281.069V461.02H277.789V457.9H281.069ZM276.809 464.44H270.949V468.6H279.429V471.68H267.249V461.38H273.109V457.62H267.329V454.48H276.809V464.44ZM299.209 464.74H292.149C288.889 464.74 286.929 462.4 286.929 459.72V459.26C286.929 456.58 288.889 454.24 292.149 454.24H299.209C302.469 454.24 304.449 456.58 304.449 459.26V459.72C304.449 462.4 302.469 464.74 299.209 464.74ZM290.869 459.42V459.58C290.869 460.8 291.709 461.66 293.149 461.66H298.209C299.649 461.66 300.509 460.8 300.509 459.58V459.42C300.509 458.2 299.649 457.32 298.209 457.32H293.149C291.709 457.32 290.869 458.2 290.869 459.42ZM301.329 465.74V469.04H304.889V472.02H286.489V469.04H290.049V465.74H293.729V469.04H297.649V465.74H301.329ZM310.189 472.12H306.309V468.28H310.189V472.12Z" fill="#FF634C"/>
<circle cx="192.5" cy="383.5" r="16.5" fill="#FF634C"/>
<path d="M197.914 378.176L194.058 381.91C196.73 382.195 198.587 384.256 198.587 386.826V387.377C198.587 391.008 195.71 393.028 192.365 393.028C189.244 393.028 186.836 391.253 186.408 388.478L189.856 387.744C190.141 388.846 191.1 389.6 192.365 389.6C193.711 389.6 194.792 388.744 194.792 387.173V387.03C194.792 385.48 193.711 384.562 191.855 384.562H189.59V381.869L193.405 378.176H187.387V374.81H197.914V378.176Z" fill="white"/>
<path d="M87.6655 494.797V510.424H86.3295V502.145H84.1498V509.633H82.8315V495.131H84.1498V501.002H86.3295V494.797H87.6655ZM80.8276 496.625V506.223H74.851V496.625H80.8276ZM76.1518 497.732V505.115H79.5268V497.732H76.1518ZM101.992 494.814V504.025H100.604V503.164H97.4396V502.25H100.604V494.814H101.992ZM89.0548 500.703C92.0783 500.721 95.9455 500.686 99.3205 500.316L99.4084 501.213C97.8791 501.433 96.2882 501.564 94.7326 501.635V504.078H93.3791V501.688C91.9025 501.74 90.4875 501.749 89.213 501.74L89.0548 500.703ZM101.992 504.588V507.822H92.8693V509.229H102.502V510.248H91.5158V506.855H100.621V505.59H91.4455V504.588H101.992ZM94.1525 495.113C96.4728 495.113 98.0197 496.027 98.0373 497.469C98.0197 498.928 96.4728 499.807 94.1525 499.807C91.797 499.807 90.2677 498.928 90.2677 497.469C90.2677 496.027 91.797 495.113 94.1525 495.113ZM94.1525 496.08C92.5705 496.08 91.5509 496.625 91.5685 497.469C91.5509 498.295 92.5705 498.857 94.1525 498.857C95.7169 498.857 96.7365 498.295 96.7365 497.469C96.7365 496.625 95.7169 496.08 94.1525 496.08ZM121.98 504.254V505.414H115.529V510.459H114.175V505.414H107.742V504.254H121.98ZM115.546 497.891C115.546 499.842 118.271 501.547 121.066 501.934L120.556 503.041C118.139 502.672 115.863 501.459 114.879 499.754C113.877 501.477 111.565 502.672 109.148 503.041L108.638 501.934C111.416 501.547 114.175 499.859 114.175 497.891V497.873H109.13V496.748H114.175V494.797H115.529V496.748H120.609V497.873H115.546V497.891ZM127.905 498.119C127.905 500.07 129.592 501.74 131.895 502.408L131.262 503.498C129.416 502.953 127.957 501.793 127.254 500.264C126.569 501.916 125.118 503.19 123.264 503.797L122.578 502.725C124.899 502.021 126.551 500.193 126.551 498.119V497.768H123.018V496.66H126.551V494.727H127.94V496.66H131.438V497.768H127.905V498.119ZM135.534 494.797V504.061H134.145V500.334H130.981V499.191H134.145V494.797H135.534ZM135.534 504.869V510.213H125.321V504.869H135.534ZM126.692 505.994V509.088H134.18V505.994H126.692ZM144.534 495.078C148.015 495.078 150.054 496.027 150.054 497.768C150.054 499.543 148.015 500.492 144.534 500.51C141.054 500.492 138.997 499.543 138.997 497.768C138.997 496.027 141.054 495.078 144.534 495.078ZM144.534 496.115C141.933 496.115 140.421 496.748 140.439 497.768C140.421 498.857 141.933 499.455 144.534 499.455C147.118 499.455 148.647 498.857 148.647 497.768C148.647 496.748 147.118 496.115 144.534 496.115ZM151.653 501.564V502.689H137.415V501.564H151.653ZM149.825 504.043V507.541H140.544V509.158H150.3V510.248H139.173V506.521H148.472V505.098H139.138V504.043H149.825ZM170.288 503.094V504.219H156.032V503.094H162.465V501.547H157.93V495.254H168.512V496.379H159.319V497.838H168.09V498.893H159.319V500.439H168.6V501.547H163.836V503.094H170.288ZM163.168 505.396C166.596 505.379 168.53 506.258 168.547 507.893C168.53 509.527 166.596 510.389 163.168 510.389C159.706 510.389 157.772 509.527 157.772 507.893C157.772 506.258 159.706 505.379 163.168 505.396ZM163.168 506.434C160.584 506.434 159.143 506.961 159.161 507.893C159.143 508.842 160.584 509.334 163.168 509.316C165.717 509.334 167.159 508.842 167.159 507.893C167.159 506.961 165.717 506.434 163.168 506.434ZM178.691 497.504V498.629H170.851V497.504H174.103V495.271H175.474V497.504H178.691ZM174.771 499.684C176.739 499.684 178.146 501.16 178.163 503.234C178.146 505.326 176.739 506.82 174.771 506.82C172.82 506.82 171.413 505.326 171.413 503.234C171.413 501.16 172.82 499.684 174.771 499.684ZM174.771 500.844C173.54 500.861 172.644 501.863 172.644 503.234C172.644 504.623 173.54 505.625 174.771 505.607C176.019 505.625 176.933 504.623 176.933 503.234C176.933 501.863 176.019 500.861 174.771 500.844ZM184.193 494.797V510.424H182.874V502.531H180.8V509.65H179.499V495.184H180.8V501.389H182.874V494.797H184.193ZM193.335 501.055L194.706 496.273H196.007L195.04 501.055H193.335ZM210.879 507.189V508.35H196.57V507.189H210.879ZM199.647 495.922V498.84H207.768V495.922H209.121V504.061H198.258V495.922H199.647ZM199.647 502.953H207.768V499.947H199.647V502.953ZM223.958 495.43V499.49H214.536V501.512H224.292V502.654H213.147V498.4H222.552V496.555H213.112V495.43H223.958ZM225.698 504.307V505.414H219.194V510.459H217.823V505.414H211.389V504.307H225.698ZM239.146 494.814V504.113H237.775V494.814H239.146ZM233.925 504.43C237.177 504.43 239.181 505.52 239.199 507.4C239.181 509.299 237.177 510.389 233.925 510.389C230.638 510.389 228.652 509.299 228.652 507.4C228.652 505.52 230.638 504.43 233.925 504.43ZM233.925 505.52C231.5 505.52 230.041 506.223 230.041 507.4C230.041 508.578 231.5 509.281 233.925 509.281C236.334 509.281 237.828 508.578 237.828 507.4C237.828 506.223 236.334 505.52 233.925 505.52ZM230.709 495.799C233.082 495.816 234.804 497.293 234.804 499.455C234.804 501.617 233.082 503.076 230.709 503.094C228.335 503.076 226.613 501.617 226.613 499.455C226.613 497.293 228.335 495.816 230.709 495.799ZM230.709 496.994C229.109 496.977 227.949 497.979 227.966 499.455C227.949 500.914 229.109 501.916 230.709 501.934C232.291 501.916 233.451 500.914 233.451 499.455C233.451 497.979 232.291 496.977 230.709 496.994ZM259.169 504.078V505.203H252.647V510.424H251.294V505.203H244.86V504.078H259.169ZM248.06 495.447V497.609H255.935V495.447H257.323V502.18H246.688V495.447H248.06ZM248.06 501.055H255.935V498.734H248.06V501.055ZM264.97 497.75C264.953 499.895 266.588 501.881 268.89 502.689L268.187 503.797C266.412 503.155 265.032 501.828 264.338 500.158C263.678 502.03 262.263 503.472 260.418 504.184L259.662 503.076C262.035 502.232 263.599 500.123 263.617 497.697V495.764H264.97V497.75ZM271.931 494.797V499.596H274.287V500.773H271.931V506.346H270.56V494.797H271.931ZM272.652 508.93V510.09H262.175V505.238H263.582V508.93H272.652ZM290.776 495.465V496.502C290.776 497.618 290.776 499.06 290.39 500.984H292.657V502.127H286.118V504.57H284.765V502.127H278.349V500.984H289.019C289.397 499.06 289.405 497.688 289.405 496.59H280.159V495.465H290.776ZM286.136 505.766C286.136 507.611 288.65 508.947 291.462 509.299L290.987 510.354C288.544 510.037 286.364 509.044 285.45 507.471C284.51 509.018 282.33 510.037 279.931 510.354L279.439 509.299C282.216 508.947 284.747 507.559 284.747 505.766V505.221H286.136V505.766ZM307.494 507.189V508.35H293.185V507.189H307.494ZM301.025 498.242C301.025 500.738 304.119 502.865 306.808 503.305L306.246 504.395C303.855 503.929 301.333 502.399 300.34 500.246C299.329 502.417 296.815 503.99 294.469 504.465L293.889 503.357C296.525 502.9 299.601 500.738 299.601 498.242V497.521H294.363V496.379H306.264V497.521H301.025V498.242ZM308.04 501.055L309.411 496.273H310.711L309.745 501.055H308.04ZM32.0722 529.148C32.0898 525.826 32.9863 523.066 34.6034 520.729H35.9394C34.7441 522.469 33.6366 526.02 33.6366 529.148C33.6366 532.277 34.7441 535.846 35.9394 537.586H34.6034C32.9863 535.23 32.0898 532.471 32.0722 529.148ZM49.4752 519.797V529.061H48.0866V524.877H45.028V523.717H48.0866V519.797H49.4752ZM49.4752 529.869V535.213H39.2623V529.869H49.4752ZM40.6334 530.994V534.088H48.1217V530.994H40.6334ZM44.36 520.746V521.871H38.6998V523.875H43.9381V524.965H38.6998V527.127C41.5827 527.145 43.2174 527.065 45.2038 526.723L45.3268 527.865C43.2526 528.217 41.5299 528.287 38.4713 528.287H37.3288V520.746H44.36ZM54.6263 520.078V521.59H62.3607V520.078H63.7318V525.229H53.2552V520.078H54.6263ZM54.6263 524.174H62.3607V522.645H54.6263V524.174ZM65.5951 526.582V527.689H51.3568V526.582H65.5951ZM63.767 529.131V532.594H54.4857V534.158H64.2416V535.248H53.1146V531.574H62.4134V530.186H53.0795V529.131H63.767ZM79.1309 519.797V535.459H77.7598V526.969H74.7188V525.809H77.7598V519.797H79.1309ZM73.7696 521.256V526.723H68.1622V530.52C70.8516 530.52 72.8028 530.44 75.088 530.01L75.1934 531.17C72.838 531.592 70.8165 531.68 67.9864 531.697H66.7911V525.58H72.4337V522.398H66.7384V521.256H73.7696ZM83.5965 532.822L82.2254 537.604H80.9246L81.8914 532.822H83.5965ZM101.598 519.797V535.459H100.209V519.797H101.598ZM90.9983 521.133V525.264H95.6565V521.133H97.01V531.68H89.6272V521.133H90.9983ZM90.9983 530.52H95.6565V526.371H90.9983V530.52ZM116.435 519.797V535.424H115.046V519.797H116.435ZM109.315 524.895C109.315 527.514 111.144 530.045 113.499 531.047L112.726 532.119C110.924 531.319 109.394 529.623 108.665 527.549C107.962 529.746 106.441 531.548 104.64 532.4L103.866 531.328C106.186 530.273 107.962 527.637 107.962 524.895V523.646H104.288V522.521H107.944V520.096H109.315V522.521H112.954V523.646H109.315V524.895ZM126.402 521.221V522.381H120.461V525.615H126.05V526.74H120.461V530.52C123.273 530.52 125.251 530.405 127.597 530.01L127.756 531.152C125.312 531.557 123.256 531.645 120.302 531.662H119.072V521.221H126.402ZM130.48 519.797V526.09H133.099V527.268H130.48V535.424H129.109V519.797H130.48ZM140.342 519.99C143.823 519.99 145.862 520.957 145.862 522.697C145.862 524.341 144.078 525.281 140.993 525.404V526.6H147.461V527.725H133.223V526.6H139.639V525.404C136.589 525.272 134.805 524.332 134.805 522.697C134.805 520.957 136.862 519.99 140.342 519.99ZM140.342 521.045C137.741 521.062 136.229 521.66 136.246 522.697C136.229 523.77 137.741 524.35 140.342 524.367C142.926 524.35 144.455 523.77 144.455 522.697C144.455 521.66 142.926 521.062 140.342 521.045ZM145.633 529.043V532.541H136.352V534.158H146.108V535.248H134.981V531.521H144.28V530.115H134.946V529.043H145.633ZM150.626 532.822L149.255 537.604H147.954L148.921 532.822H150.626ZM163.53 522.1C163.53 524.771 166.588 527.162 169.313 527.672L168.68 528.832C166.325 528.287 163.837 526.608 162.827 524.297C161.816 526.6 159.337 528.278 156.973 528.832L156.34 527.672C159.047 527.145 162.088 524.789 162.088 522.1V520.904H163.53V522.1ZM170.051 532.154V533.297H155.743V532.154H170.051ZM179.193 521.221V522.381H172.952V525.615H178.63V526.74H172.952V530.52C175.87 530.52 177.874 530.405 180.265 530.01L180.406 531.152C177.945 531.557 175.835 531.645 172.829 531.662H171.581V521.221H179.193ZM183.499 519.797V535.424H182.111V519.797H183.499ZM193.361 521.432C193.344 525.949 191.744 530.08 186.225 532.84L185.434 531.785C188.308 530.344 190.083 528.542 191.059 526.424L185.732 526.934L185.486 525.738L191.48 525.334C191.762 524.464 191.929 523.541 191.99 522.574H186.277V521.432H193.361ZM198.354 519.797V535.424H196.982V527.232H193.309V526.09H196.982V519.797H198.354ZM218.306 527.232V528.393H204.05V527.232H218.306ZM216.636 524.613V525.738H205.861V520.43H216.531V521.59H207.214V524.613H216.636ZM211.169 529.764C214.527 529.764 216.531 530.783 216.548 532.576C216.531 534.387 214.527 535.389 211.169 535.389C207.794 535.389 205.773 534.387 205.773 532.576C205.773 530.783 207.794 529.764 211.169 529.764ZM211.169 530.836C208.656 530.854 207.162 531.486 207.179 532.576C207.162 533.684 208.656 534.299 211.169 534.299C213.648 534.299 215.16 533.684 215.16 532.576C215.16 531.486 213.648 530.854 211.169 530.836ZM222.789 529.148C222.772 532.471 221.875 535.23 220.258 537.586H218.922C220.117 535.846 221.225 532.277 221.225 529.148C221.225 526.02 220.117 522.469 218.922 520.729H220.258C221.875 523.066 222.772 525.826 222.789 529.148ZM238.593 527.057V528.146H224.284V527.057H238.593ZM236.8 529.395V532.717H227.413V534.211H237.309V535.213H226.024V531.768H235.429V530.432H226.007V529.395H236.8ZM236.747 520.271V523.506H227.518V524.877H237.028V525.879H226.147V522.557H235.358V521.273H226.095V520.271H236.747ZM248.28 522.75C248.28 524.93 249.862 526.986 252.147 527.812L251.373 528.885C249.66 528.199 248.297 526.837 247.629 525.141C246.961 527.03 245.537 528.533 243.692 529.271L242.953 528.146C245.291 527.285 246.909 525.105 246.926 522.697V520.764H248.28V522.75ZM255.891 519.814V531.521H254.502V524.648H251.022V523.488H254.502V519.814H255.891ZM256.243 533.93V535.09H245.784V530.186H247.172V533.93H256.243ZM272.011 526.406V527.531H265.56V529.078H270.183V532.576H260.901V534.158H270.657V535.248H259.53V531.539H268.829V530.15H259.495V529.078H264.189V527.531H257.773V526.406H272.011ZM270.165 520.324V525.088H259.618V520.324H270.165ZM260.989 521.432V523.98H268.794V521.432H260.989ZM286.918 532.33V533.49H272.609V532.33H279.043V529.377H274.402V524.561H283.754V522.1H274.367V520.957H285.107V525.686H275.773V528.234H285.476V529.377H280.396V532.33H286.918ZM303.864 527.32V528.463H293.071V521.256H303.706V522.398H294.443V527.32H303.864ZM305.552 532.137V533.297H291.243V532.137H305.552ZM318.982 519.814V528.393H317.611V519.814H318.982ZM314.008 520.57V524.789H308.242V526.916C311.037 526.898 313.129 526.846 315.66 526.424L315.818 527.566C313.199 527.988 311.055 528.059 308.172 528.076H306.906V523.699H312.637V521.713H306.871V520.57H314.008ZM310.211 529.184V531.047H317.611V529.184H318.982V535.213H308.822V529.184H310.211ZM310.211 534.088H317.611V532.154H310.211V534.088ZM333.801 519.797V535.424H332.43V519.797H333.801ZM323.29 521.344V530.203C325.672 530.194 328.141 530.001 330.76 529.447L330.954 530.625C328.176 531.205 325.698 531.398 323.202 531.398H321.936V521.344H323.29ZM347.847 519.797V525.984H350.466V527.145H347.847V535.459H346.476V519.797H347.847ZM343.734 521.326V522.469H337.81V530.379C340.64 530.379 342.644 530.247 344.964 529.816L345.14 531.012C342.697 531.451 340.64 531.539 337.669 531.539H336.439V521.326H343.734ZM352.242 534.105C351.627 534.105 351.1 533.596 351.117 532.963C351.1 532.348 351.627 531.838 352.242 531.838C352.857 531.838 353.367 532.348 353.367 532.963C353.367 533.596 352.857 534.105 352.242 534.105Z" fill="#192D35"/>
<g clip-path="url(#clip0_468_595)">
<path d="M192.007 315.068C150.957 315.068 112.276 312.025 83.0771 306.495C46.3272 299.484 30 289.973 30 275.666C30 266.155 37.701 260.149 44.0822 256.712V185.57C44.0923 183.368 44.7715 181.222 46.0301 179.414C47.2886 177.607 49.0671 176.223 51.1301 175.447C53.4159 164.469 60.1101 151.412 75.621 148.599C76.6498 148.414 77.6916 148.31 78.7367 148.287H79.417C80.4094 148.284 81.4006 148.352 82.3832 148.491L82.9818 148.586C83.7577 148.713 84.5255 148.885 85.2812 149.102L85.7438 149.224C86.6031 149.482 87.4479 149.786 88.2746 150.135L88.778 150.352C89.4583 150.651 90.1386 150.977 90.7645 151.33L91.0638 151.493C91.8257 151.928 92.4244 152.336 93.1591 152.852L93.5129 153.097C94.1932 153.558 94.7782 153.993 95.3633 154.455C95.9483 154.917 96.5878 155.474 97.1321 155.95C97.1321 155.95 97.962 156.697 98.1525 156.887L99.1866 155.95L100.847 154.591L101.078 154.428C101.608 154.007 102.166 153.599 102.724 153.219L103.187 152.893C103.84 152.472 104.547 152.05 105.187 151.656L105.609 151.439C106.207 151.113 106.86 150.787 107.527 150.488L108.003 150.284C108.817 149.942 109.648 149.642 110.493 149.387L111.105 149.211C111.849 149.008 112.603 148.845 113.364 148.721L114.004 148.613C114.955 148.484 115.914 148.42 116.874 148.423H117.582C118.627 148.446 119.669 148.55 120.698 148.735C125.34 149.504 129.712 151.434 133.406 154.347C140.699 160.243 143.828 168.803 145.161 175.447C147.233 176.211 149.021 177.591 150.284 179.401C151.547 181.211 152.223 183.364 152.223 185.57V194.646C152.522 194.102 152.835 193.559 153.162 193.029C153.834 191.936 154.57 190.883 155.366 189.877C159.585 184.546 165.618 180.949 172.319 179.768C173.352 179.582 174.399 179.477 175.448 179.455H176.088C177.08 179.452 178.071 179.52 179.054 179.659L179.612 179.754C180.401 179.89 181.149 180.053 181.898 180.257L182.401 180.393C183.252 180.649 184.088 180.953 184.904 181.303L185.394 181.507C186.061 181.806 186.755 182.132 187.367 182.485L187.653 182.635C188.388 183.056 189.013 183.464 189.735 183.926L190.184 184.225C190.714 184.591 191.258 184.999 191.803 185.407L192.02 185.583C192.592 186.032 193.136 186.507 193.68 186.942L194.02 187.254L194.578 187.771L195.095 187.295L195.517 186.915C196.034 186.466 196.578 185.991 197.15 185.556L197.34 185.407C197.871 184.999 198.415 184.591 198.987 184.197L199.436 183.885C200.116 183.436 200.796 183.029 201.463 182.648L201.858 182.431C202.443 182.105 203.096 181.792 203.749 181.494L204.211 181.29C205.02 180.945 205.846 180.646 206.688 180.393L207.246 180.23C208.035 180.026 208.81 179.849 209.559 179.727L210.184 179.619C211.131 179.489 212.086 179.426 213.042 179.428H213.613H214.416V162.798C214.429 160.362 215.261 158.001 216.778 156.094C218.296 154.187 220.411 152.845 222.784 152.281C223.879 145.481 226.422 138.995 230.24 133.259C231.118 132.007 232.077 130.813 233.111 129.686C237.847 124.473 244.193 120.991 251.139 119.795C251.86 119.672 252.608 119.577 253.411 119.509H254.159H255.329H255.724H256.458C256.976 119.509 257.506 119.577 258.023 119.632L258.663 119.713C259.34 119.799 260.012 119.922 260.676 120.08L261.166 120.202C261.642 120.311 262.159 120.447 262.676 120.61L263.37 120.841L264.581 121.276L265.166 121.507C265.697 121.738 266.187 121.941 266.663 122.172L266.894 122.295C267.507 122.58 268.064 122.879 268.609 123.191L269.003 123.422L270.187 124.142L270.718 124.482L271.765 125.216L272.173 125.501C272.636 125.827 273.099 126.181 273.534 126.561L274.786 127.607L275.112 127.893C275.452 128.178 275.752 128.45 276.065 128.735L276.459 129.102L277.385 129.999L277.616 130.229C277.861 130.46 278.092 130.705 278.337 130.95C278.568 130.691 278.8 130.46 279.044 130.229L279.303 129.971L280.215 129.102L280.609 128.735L281.521 127.906L281.915 127.566L283.126 126.561L283.276 126.439L284.637 125.433L284.977 125.202C285.358 124.917 285.725 124.672 286.092 124.428L286.555 124.129C286.963 123.871 287.358 123.626 287.739 123.409L288.215 123.137C288.718 122.838 289.276 122.553 289.834 122.267L290.188 122.104C290.664 121.873 291.127 121.67 291.548 121.479L292.011 121.289C292.555 121.072 292.991 120.922 293.372 120.773L293.997 120.569C294.487 120.42 294.991 120.284 295.494 120.161L295.998 120.039C296.678 119.89 297.358 119.754 298.066 119.659H298.692C299.168 119.659 299.698 119.564 300.215 119.536H301.045H301.345H302.515H303.29C304.061 119.6 304.81 119.695 305.535 119.822C312.475 121.016 318.816 124.492 323.55 129.7C325.077 131.38 326.443 133.2 327.632 135.134C329.056 137.475 330.254 139.945 331.21 142.512C332.247 145.276 333.052 148.121 333.618 151.018C333.713 151.466 333.795 151.928 333.877 152.376C336.25 152.94 338.364 154.282 339.882 156.189C341.399 158.096 342.231 160.457 342.244 162.893V258.22C349.973 263.057 353.878 268.926 353.878 275.693C353.878 290.068 337.55 299.579 300.814 306.522C271.724 311.957 233.043 315.068 192.007 315.068Z" fill="white"/>
<path d="M192.007 304.212C275.514 304.212 343.21 291.401 343.21 275.597C343.21 259.794 275.514 246.983 192.007 246.983C108.499 246.983 40.8032 259.794 40.8032 275.597C40.8032 291.401 108.499 304.212 192.007 304.212Z" fill="#FFD6B6"/>
<path d="M331.564 162.798H299.794C299.549 162.512 299.29 162.241 299.045 161.969L324.094 162.064C324.094 162.064 324.57 134.143 303.685 130.352C292.406 128.3 282.201 142.268 278.323 148.395C274.446 142.268 264.255 128.3 252.975 130.352C232.117 134.143 232.566 162.064 232.566 162.064L257.248 161.969L256.472 162.798H225.151V196.439C222.575 193.23 218.911 191.074 214.851 190.379C205.803 188.735 197.626 199.89 194.442 204.85C191.34 199.931 183.163 188.735 174.115 190.379C157.393 193.409 157.788 215.801 157.788 215.801L177.584 215.733L177.408 215.91H141.352V185.57H115.5L114.888 184.904L135.297 184.985C135.297 184.985 135.678 162.281 118.738 159.17C109.568 157.499 101.282 168.844 98.1253 173.83C94.9823 168.844 86.6962 157.526 77.5258 159.17C60.5863 162.241 60.9673 184.985 60.9673 184.985L81.0225 184.904L80.383 185.57H54.8854V271.916H114.153V279.823H274.908V269.062H331.605V162.798H331.564ZM303.141 140.624C311.644 142.159 311.44 153.545 311.44 153.545L293.086 153.477L292.12 149.116C292.12 149.116 297.263 139.55 303.141 140.624ZM253.574 140.624C259.452 139.55 264.595 149.116 264.595 149.116L263.629 153.477L245.274 153.545C245.274 153.545 245.07 142.159 253.574 140.624ZM277.629 161.901V161.806C278.075 161.913 278.532 161.967 278.99 161.969C279.23 161.982 279.471 161.982 279.711 161.969H280.854L281.779 162.866H274.5L275.466 161.969L277.629 161.901ZM225.137 215.787V215.882H211.259L211.082 215.706L225.137 215.787ZM214.375 198.613C221.178 199.85 221.028 208.98 221.028 208.98H206.307L205.518 205.42C205.518 205.42 209.681 197.757 214.389 198.613H214.375ZM174.632 198.613C179.34 197.757 183.462 205.407 183.462 205.407L182.687 208.912H167.965C167.965 208.912 167.829 199.85 174.646 198.613H174.632ZM192.32 215.679H193.993V215.611C194.359 215.698 194.733 215.743 195.109 215.747C195.313 215.747 195.49 215.747 195.694 215.747H196.619L196.864 215.978H192.034L192.32 215.679ZM225.205 247.731V248.002H141.352V247.731H225.205ZM118.303 167.567C125.215 168.817 125.106 178.07 125.106 178.07H110.139L109.35 174.523C109.35 174.523 113.486 166.684 118.249 167.553L118.303 167.567ZM78.0428 167.567C82.8049 166.697 86.9956 174.469 86.9956 174.469L86.2064 178.015H71.2398C71.2398 178.015 71.0765 168.803 77.9884 167.553L78.0428 167.567ZM97.5947 184.85V184.782C97.9695 184.869 98.3528 184.914 98.7376 184.917C98.9416 184.917 99.1321 184.917 99.3226 184.917H100.261L101.01 185.638H95.0503L95.8395 184.917L97.5947 184.85Z" fill="#FF634C" stroke="#263238" stroke-width="2" stroke-linecap="round" stroke-linejoin="round"/>
<path d="M331.577 162.797H225.151V269.075H331.577V162.797Z" fill="#FF634C"/>
<path d="M225.151 162.797V168.952H325.795V269.062H331.564V162.797H225.151Z" fill="white"/>
<path d="M331.577 162.797H225.151V269.075H331.577V162.797Z" stroke="#263238" stroke-width="2" stroke-linecap="round" stroke-linejoin="round"/>
<path d="M246.24 162.797L225.137 187.798" stroke="#263238" stroke-width="2" stroke-linecap="round" stroke-linejoin="round"/>
<path d="M265.37 162.797L225.137 205.61" stroke="#263238" stroke-width="2" stroke-linecap="round" stroke-linejoin="round"/>
<path d="M285.562 162.797L225.137 227.105" stroke="#263238" stroke-width="2" stroke-linecap="round" stroke-linejoin="round"/>
<path d="M305.739 162.797L225.137 248.573" stroke="#263238" stroke-width="2" stroke-linecap="round" stroke-linejoin="round"/>
<path d="M325.931 162.797L226.063 269.075" stroke="#263238" stroke-width="2" stroke-linecap="round" stroke-linejoin="round"/>
<path d="M331.564 178.3L246.268 269.076" stroke="#263238" stroke-width="2" stroke-linecap="round" stroke-linejoin="round"/>
<path d="M331.564 199.795L266.459 269.076" stroke="#263238" stroke-width="2" stroke-linecap="round" stroke-linejoin="round"/>
<path d="M331.564 221.263L286.637 269.076" stroke="#263238" stroke-width="2" stroke-linecap="round" stroke-linejoin="round"/>
<path d="M331.564 242.771L306.828 269.076" stroke="#263238" stroke-width="2" stroke-linecap="round" stroke-linejoin="round"/>
<path d="M285.249 162.797H271.452V269.075H285.249V162.797Z" fill="white" stroke="#263238" stroke-width="2" stroke-linecap="round" stroke-linejoin="round"/>
<path d="M253.003 130.352C232.145 134.142 232.594 162.064 232.594 162.064L277.616 161.901L279.983 151.181C279.983 151.181 267.398 127.743 253.003 130.352ZM263.629 153.45L245.274 153.518C245.274 153.518 245.07 142.132 253.574 140.596C259.452 139.523 264.595 149.088 264.595 149.088L263.629 153.45Z" fill="white" stroke="#263238" stroke-width="2" stroke-linecap="round" stroke-linejoin="round"/>
<path d="M254.935 194.252C257.343 187.245 260.62 180.567 264.69 174.374C268.5 168.685 273.194 163.64 278.595 159.428L268.01 153.585C268.01 153.585 258.05 158.64 249.206 172.05C241.723 183.395 241.941 185.461 241.941 185.461L251.887 183.246L254.935 194.252Z" fill="white" stroke="#263238" stroke-width="2" stroke-linecap="round" stroke-linejoin="round"/>
<path d="M264.595 149.115L277.643 161.901" stroke="#263238" stroke-width="2" stroke-linecap="round" stroke-linejoin="round"/>
<path d="M276.691 151.181L279.072 161.901L324.094 162.064C324.094 162.064 324.57 134.142 303.685 130.352C289.317 127.743 276.691 151.181 276.691 151.181ZM292.12 149.115C292.12 149.115 297.263 139.604 303.141 140.623C311.645 142.159 311.44 153.545 311.44 153.545L293.086 153.477L292.12 149.115Z" fill="white" stroke="#263238" stroke-width="2" stroke-linecap="round" stroke-linejoin="round"/>
<path d="M300.365 193.151C297.958 186.141 294.676 179.463 290.596 173.273C286.791 167.581 282.096 162.534 276.691 158.327L287.29 152.485C287.29 152.485 297.236 157.539 306.08 170.95C313.577 182.295 313.359 184.36 313.359 184.36L303.399 182.145L300.365 193.151Z" fill="white" stroke="#263238" stroke-width="2" stroke-linecap="round" stroke-linejoin="round"/>
<path d="M292.12 149.115L279.072 161.901" stroke="#263238" stroke-width="2" stroke-linecap="round" stroke-linejoin="round"/>
<path d="M285.548 155.501C285.548 156.78 285.168 158.031 284.457 159.094C283.745 160.158 282.734 160.987 281.55 161.476C280.367 161.966 279.064 162.094 277.808 161.844C276.552 161.595 275.398 160.979 274.492 160.074C273.586 159.17 272.97 158.017 272.72 156.763C272.47 155.508 272.598 154.208 273.088 153.026C273.578 151.844 274.408 150.834 275.474 150.124C276.539 149.413 277.791 149.034 279.072 149.034C280.789 149.034 282.437 149.715 283.651 150.928C284.866 152.141 285.548 153.786 285.548 155.501Z" fill="white" stroke="#263238" stroke-width="2" stroke-linecap="round" stroke-linejoin="round"/>
<path d="M141.352 185.569H54.8854V271.915H141.352V185.569Z" fill="#FF634C"/>
<path d="M54.8854 185.569V191.534H135.746V271.915H141.352V185.569H54.8854Z" fill="white"/>
<path d="M141.352 185.569H54.8854V271.915H141.352V185.569Z" stroke="#263238" stroke-width="2" stroke-linecap="round" stroke-linejoin="round"/>
<path d="M103.717 185.569H92.506V271.915H103.717V185.569Z" fill="white" stroke="#263238" stroke-width="2" stroke-linecap="round" stroke-linejoin="round"/>
<path d="M77.5122 159.211C60.5727 162.281 60.9537 185.026 60.9537 185.026L97.5403 184.877L99.4723 176.167C99.4723 176.167 89.2134 157.091 77.5122 159.211ZM86.152 178.002H71.1854C71.1854 178.002 71.0358 168.749 77.9884 167.499C82.7505 166.629 86.9412 174.401 86.9412 174.401L86.152 178.002Z" fill="white" stroke="#263238" stroke-width="2" stroke-linecap="round" stroke-linejoin="round"/>
<path d="M79.0905 211.127C81.039 205.435 83.6996 200.012 87.0092 194.985C90.0991 190.332 93.9164 186.203 98.3158 182.757L89.7032 178.015C89.7032 178.015 81.6212 182.091 74.4372 192.961C68.3553 202.173 68.5322 203.831 68.5322 203.831L76.6142 202.037L79.0905 211.127Z" fill="white" stroke="#263238" stroke-width="2" stroke-linecap="round" stroke-linejoin="round"/>
<path d="M86.9412 174.455L97.5402 184.836" stroke="#263238" stroke-width="2" stroke-linecap="round" stroke-linejoin="round"/>
<path d="M96.7647 176.127L98.6968 184.836L135.283 184.985C135.283 184.985 135.664 162.281 118.725 159.17C107.024 157.091 96.7647 176.127 96.7647 176.127ZM109.296 174.455C109.296 174.455 113.487 166.684 118.249 167.553C125.16 168.803 125.052 178.056 125.052 178.056H110.085L109.296 174.455Z" fill="white" stroke="#263238" stroke-width="2" stroke-linecap="round" stroke-linejoin="round"/>
<path d="M115.99 210.23C114.037 204.557 111.377 199.152 108.071 194.143C104.981 189.49 101.164 185.361 96.7647 181.915L105.377 177.173C105.377 177.173 113.459 181.249 120.643 192.119C126.725 201.331 126.548 202.988 126.548 202.988L118.439 201.263L115.99 210.23Z" fill="white" stroke="#263238" stroke-width="2" stroke-linecap="round" stroke-linejoin="round"/>
<path d="M109.296 174.455L98.6968 184.836" stroke="#263238" stroke-width="2" stroke-linecap="round" stroke-linejoin="round"/>
<path d="M103.962 179.645C103.962 180.685 103.653 181.702 103.075 182.567C102.496 183.431 101.674 184.105 100.712 184.503C99.7496 184.901 98.6909 185.005 97.6695 184.803C96.6481 184.6 95.7099 184.099 94.9735 183.364C94.2371 182.628 93.7356 181.691 93.5324 180.671C93.3292 179.651 93.4335 178.594 93.832 177.633C94.2306 176.672 94.9055 175.851 95.7714 175.273C96.6373 174.696 97.6553 174.387 98.6967 174.387C100.093 174.387 101.433 174.941 102.42 175.927C103.408 176.913 103.962 178.251 103.962 179.645Z" fill="white" stroke="#263238" stroke-width="2" stroke-linecap="round" stroke-linejoin="round"/>
<path d="M274.867 248.016H114.153V279.823H274.867V248.016Z" fill="#8DBAE4"/>
<path d="M114.153 248.016V253.899H269.071V279.823H274.867V248.016H114.153Z" fill="white"/>
<path d="M274.867 248.016H114.153V279.823H274.867V248.016Z" stroke="#263238" stroke-width="2" stroke-linecap="round" stroke-linejoin="round"/>
<path d="M260.227 215.91H128.807V247.717H260.227V215.91Z" fill="white" stroke="#263238" stroke-width="2" stroke-linecap="round" stroke-linejoin="round"/>
<path d="M174.224 190.379C157.502 193.409 157.897 215.801 157.897 215.801L193.993 215.665L195.898 207.078C195.898 207.078 185.721 188.287 174.224 190.379ZM182.741 208.926H168.019C168.019 208.926 167.87 199.795 174.686 198.559C179.394 197.703 183.517 205.352 183.517 205.352L182.741 208.926Z" fill="#FF634C" stroke="#263238" stroke-width="2" stroke-linecap="round" stroke-linejoin="round"/>
<path d="M175.734 241.616C177.662 235.997 180.291 230.642 183.557 225.679C186.61 221.105 190.371 217.046 194.701 213.654L186.211 208.98C186.211 208.98 178.238 213.056 171.135 223.776C165.135 232.866 165.312 234.537 165.312 234.537L173.299 232.757L175.734 241.616Z" fill="#FF634C" stroke="#263238" stroke-width="2" stroke-linecap="round" stroke-linejoin="round"/>
<path d="M183.476 205.42L193.939 215.665" stroke="#263238" stroke-width="2" stroke-linecap="round" stroke-linejoin="round"/>
<path d="M193.191 207.078L195.082 215.665L231.192 215.801C231.192 215.801 231.573 193.409 214.865 190.379C203.3 188.287 193.191 207.078 193.191 207.078ZM205.518 205.42C205.518 205.42 209.599 197.757 214.362 198.627C221.165 199.863 221.015 208.994 221.015 208.994H206.293L205.518 205.42Z" fill="#FF634C" stroke="#263238" stroke-width="2" stroke-linecap="round" stroke-linejoin="round"/>
<path d="M212.157 240.733C210.229 235.114 207.601 229.76 204.334 224.796C201.282 220.222 197.52 216.163 193.191 212.771L201.667 208.083C201.667 208.083 209.654 212.16 216.743 222.893C222.743 231.983 222.58 233.641 222.58 233.641L214.593 231.874L212.157 240.733Z" fill="#FF634C" stroke="#263238" stroke-width="2" stroke-linecap="round" stroke-linejoin="round"/>
<path d="M205.545 205.42L195.082 215.665" stroke="#263238" stroke-width="2" stroke-linecap="round" stroke-linejoin="round"/>
<path d="M200.279 210.543C200.279 211.569 199.974 212.573 199.403 213.426C198.832 214.28 198.02 214.945 197.071 215.338C196.121 215.731 195.076 215.834 194.068 215.633C193.06 215.433 192.133 214.939 191.407 214.213C190.68 213.487 190.185 212.562 189.984 211.555C189.784 210.549 189.887 209.505 190.28 208.557C190.673 207.608 191.339 206.798 192.194 206.227C193.049 205.657 194.054 205.353 195.082 205.353C196.46 205.353 197.782 205.899 198.757 206.873C199.732 207.846 200.279 209.166 200.279 210.543Z" fill="#FF634C" stroke="#263238" stroke-width="2" stroke-linecap="round" stroke-linejoin="round"/>
<path d="M97.3905 57.5249C96.1059 57.4967 94.8668 57.044 93.8673 56.2376C92.8678 55.4312 92.1641 54.3166 91.8665 53.0683L89.4855 42.946C89.3748 42.468 89.1328 42.0304 88.7867 41.6824C88.4405 41.3343 88.004 41.0896 87.5262 40.9758L77.0904 38.3671C75.8369 38.0566 74.7236 37.3361 73.9279 36.3203C73.1323 35.3046 72.7 34.0521 72.7 32.7624C72.7 31.4728 73.1323 30.2203 73.9279 29.2045C74.7236 28.1888 75.8369 27.4683 77.0904 27.1578L87.5262 24.5491C88 24.4269 88.432 24.1795 88.7768 23.8327C89.1216 23.486 89.3664 23.0529 89.4855 22.5789L91.8665 12.4566C92.162 11.2072 92.865 10.0913 93.865 9.28454C94.865 8.47778 96.1052 8.0259 97.3905 8L97.4994 8C98.7676 7.99993 100.001 8.41617 101.009 9.18462C102.017 9.95308 102.744 11.0311 103.078 12.2528L105.935 22.674C106.064 23.1239 106.307 23.5329 106.641 23.8614C106.975 24.1899 107.388 24.4268 107.84 24.5491L117.963 27.1714C119.204 27.4915 120.304 28.2143 121.089 29.2264C121.874 30.2385 122.3 31.4823 122.3 32.7624C122.3 34.0426 121.874 35.2864 121.089 36.2985C120.304 37.3106 119.204 38.0334 117.963 38.3535L107.84 40.9758C107.388 41.0981 106.975 41.335 106.641 41.6635C106.307 41.992 106.064 42.401 105.935 42.8509L103.078 53.2721C102.744 54.4938 102.017 55.5718 101.009 56.3403C100.001 57.1087 98.7676 57.525 97.4994 57.5249H97.3905Z" fill="white"/>
<path d="M97.4994 13.7744L100.357 24.1957C100.748 25.628 101.512 26.9316 102.57 27.9743C103.629 29.017 104.945 29.7618 106.384 30.1333L116.507 32.7556L106.384 35.3779C104.942 35.7492 103.625 36.4956 102.566 37.541C101.507 38.5865 100.745 39.8935 100.357 41.329L97.4994 51.7367L95.1048 41.6143C94.7502 40.1061 93.986 38.7246 92.8962 37.622C91.8064 36.5193 90.4332 35.7381 88.9276 35.3643L78.4918 32.7556L88.9276 30.1604C90.4343 29.7841 91.8079 29.0004 92.8976 27.8954C93.9874 26.7904 94.751 25.4069 95.1048 23.8968L97.4994 13.7744Z" fill="#FF634C"/>
<path d="M279.82 82.2807C278.534 82.2571 277.293 81.8061 276.292 80.999C275.292 80.1918 274.589 79.0747 274.296 77.8241L271.901 67.7018C271.783 67.2295 271.541 66.7974 271.198 66.4509C270.856 66.1043 270.427 65.8559 269.956 65.7316L259.52 63.1229C258.266 62.8124 257.153 62.0919 256.357 61.0761C255.562 60.0604 255.129 58.8079 255.129 57.5182C255.129 56.2286 255.562 54.9761 256.357 53.9603C257.153 52.9446 258.266 52.224 259.52 51.9136L269.956 49.3049C270.422 49.1943 270.85 48.9588 271.193 48.6236C271.536 48.2885 271.781 47.8664 271.901 47.4027L274.296 37.2803C274.594 36.032 275.297 34.9174 276.297 34.1111C277.296 33.3047 278.535 32.8519 279.82 32.8237H279.929C281.196 32.8259 282.428 33.243 283.436 34.0111C284.443 34.7792 285.171 35.856 285.507 37.0765L288.365 47.4978C288.492 47.946 288.733 48.3539 289.065 48.6823C289.396 49.0107 289.806 49.2484 290.256 49.3728L300.392 51.9951C301.633 52.3152 302.733 53.0381 303.518 54.0501C304.303 55.0622 304.729 56.306 304.729 57.5862C304.729 58.8663 304.303 60.1102 303.518 61.1222C302.733 62.1343 301.633 62.8572 300.392 63.1773L290.256 65.7996C289.806 65.9239 289.396 66.1617 289.065 66.4901C288.733 66.8184 288.492 67.2263 288.365 67.6746L285.507 78.0959C285.171 79.3164 284.443 80.3931 283.436 81.1612C282.428 81.9293 281.196 82.3464 279.929 82.3486L279.82 82.2807Z" fill="white"/>
<path d="M279.929 38.5439L282.773 48.9516C283.166 50.3869 283.931 51.693 284.992 52.738C286.053 53.7829 287.371 54.5297 288.814 54.9028L298.936 57.5251L288.814 60.1474C287.373 60.5206 286.057 61.2657 284.996 62.308C283.936 63.3502 283.169 64.6529 282.773 66.085L279.929 76.5062L277.534 66.4246C277.18 64.9145 276.417 63.531 275.327 62.426C274.237 61.321 272.864 60.5373 271.357 60.161L260.921 57.5659L271.357 54.9571C272.863 54.5833 274.236 53.8021 275.326 52.6995C276.415 51.5968 277.18 50.2154 277.534 48.7071L279.929 38.5439Z" fill="#FF634C"/>
<path d="M130.48 88.3948C129.194 88.375 127.951 87.9273 126.948 87.1225C125.945 86.3178 125.239 85.2021 124.943 83.9518L123.201 76.5197C123.184 76.4448 123.145 76.3766 123.089 76.3235C123.034 76.2704 122.964 76.2347 122.888 76.2208L115.242 74.305C113.988 73.9945 112.875 73.274 112.079 72.2582C111.284 71.2425 110.851 69.99 110.851 68.7003C110.851 67.4107 111.284 66.1582 112.079 65.1424C112.875 64.1267 113.988 63.4061 115.242 63.0957L122.902 61.1799C122.975 61.1636 123.042 61.1268 123.095 61.0739C123.148 61.021 123.185 60.954 123.201 60.881L124.943 53.4488C125.239 52.1986 125.945 51.0828 126.948 50.2781C127.951 49.4734 129.194 49.0257 130.48 49.0059H130.576C131.84 49.0095 133.068 49.4276 134.071 50.1959C135.074 50.9643 135.796 52.0403 136.127 53.2586L138.222 60.8946C138.241 60.9651 138.279 61.0292 138.331 61.0795C138.384 61.1299 138.45 61.1647 138.522 61.1799L145.95 63.1092C147.192 63.4293 148.291 64.1522 149.076 65.1643C149.861 66.1763 150.287 67.4202 150.287 68.7003C150.287 69.9805 149.861 71.2243 149.076 72.2364C148.291 73.2484 147.192 73.9713 145.95 74.2914L138.522 76.2208C138.45 76.236 138.384 76.2707 138.331 76.3211C138.279 76.3715 138.241 76.4355 138.222 76.5061L136.127 84.0877C135.79 85.3104 135.06 86.3888 134.05 87.1572C133.04 87.9255 131.805 88.3412 130.535 88.3404L130.48 88.3948Z" fill="white"/>
<path d="M130.576 54.7803L132.671 62.4162C132.958 63.4679 133.518 64.4253 134.294 65.1912C135.071 65.9572 136.036 66.5045 137.093 66.7777L144.522 68.707L137.093 70.6228C136.037 70.8972 135.072 71.445 134.296 72.2107C133.519 72.9765 132.959 73.9332 132.671 74.9843L130.576 82.6202L128.834 75.2016C128.571 74.096 128.009 73.0834 127.211 72.2739C126.412 71.4643 125.406 70.8886 124.303 70.6092L116.643 68.707L124.303 66.7912C125.406 66.5119 126.412 65.9362 127.211 65.1266C128.009 64.317 128.571 63.3045 128.834 62.1988L130.576 54.7803Z" fill="#8DBAE4"/>
<path d="M97.4994 13.7744L100.357 24.1957C100.748 25.628 101.512 26.9316 102.57 27.9743C103.629 29.017 104.945 29.7618 106.384 30.1333L116.507 32.7556L106.384 35.3779C104.942 35.7492 103.625 36.4956 102.566 37.541C101.507 38.5865 100.745 39.8935 100.357 41.329L97.4994 51.7367L95.1048 41.6143C94.7502 40.1061 93.986 38.7246 92.8962 37.622C91.8064 36.5193 90.4332 35.7381 88.9276 35.3643L78.4918 32.7556L88.9276 30.1604C90.4343 29.7841 91.8079 29.0004 92.8976 27.8954C93.9874 26.7904 94.751 25.4069 95.1048 23.8968L97.4994 13.7744Z" fill="#FF634C"/>
<path d="M279.929 38.5439L282.773 48.9516C283.166 50.3869 283.931 51.693 284.992 52.738C286.053 53.7829 287.371 54.5297 288.814 54.9028L298.936 57.5251L288.814 60.1474C287.373 60.5206 286.057 61.2657 284.996 62.308C283.936 63.3502 283.169 64.6529 282.773 66.085L279.929 76.5062L277.534 66.4246C277.18 64.9145 276.417 63.531 275.327 62.426C274.237 61.321 272.864 60.5373 271.357 60.161L260.921 57.5659L271.357 54.9571C272.863 54.5833 274.236 53.8021 275.326 52.6995C276.415 51.5968 277.18 50.2154 277.534 48.7071L279.929 38.5439Z" fill="#FF634C"/>
<path d="M130.576 54.7803L132.671 62.4162C132.958 63.4679 133.518 64.4253 134.294 65.1912C135.071 65.9572 136.036 66.5045 137.093 66.7777L144.522 68.707L137.093 70.6228C136.037 70.8972 135.072 71.445 134.296 72.2107C133.519 72.9765 132.959 73.9332 132.671 74.9843L130.576 82.6202L128.834 75.2016C128.571 74.096 128.009 73.0834 127.211 72.2739C126.412 71.4643 125.406 70.8886 124.303 70.6092L116.643 68.707L124.303 66.7912C125.406 66.5119 126.412 65.9362 127.211 65.1266C128.009 64.317 128.571 63.3045 128.834 62.1988L130.576 54.7803Z" fill="#8DBAE4"/>
</g>
<defs>
<clipPath id="clip0_468_595">
<rect width="324" height="307" fill="white" transform="translate(30 8)"/>
</clipPath>
</defs>
</svg>
