<svg width="262" height="31" viewBox="0 0 262 31" fill="none" xmlns="http://www.w3.org/2000/svg">
<path d="M258.117 1.83008C259.557 1.83008 260.847 2.85008 260.847 4.68008V26.1001C260.847 27.9301 259.257 28.8601 257.907 28.9801C256.467 29.1001 254.607 28.5601 253.977 27.2401L246.657 12.1201V28.6201H241.197V4.89008C241.197 3.03008 242.817 2.04008 244.197 1.89008C245.637 1.74008 247.407 2.31008 248.067 3.63008L255.387 18.6301V4.68008C255.387 2.85008 256.677 1.83008 258.117 1.83008Z" fill="white"/>
<path d="M239.673 28.6201H233.073L231.663 23.4601H224.463L223.053 28.6201H216.573L224.283 4.32008C224.823 2.64008 226.533 1.83008 228.153 1.83008C229.683 1.83008 231.333 2.70008 231.843 4.32008L239.673 28.6201ZM228.063 10.1701L225.843 18.3901H230.283L228.063 10.1701Z" fill="white"/>
<path d="M204.437 9.45008C204.407 11.1601 206.387 11.8501 208.787 12.6901L210.257 13.2001C213.767 14.4301 216.317 17.0701 216.107 21.5401C215.867 26.6101 212.207 29.1001 206.747 29.1001C204.077 29.1001 200.807 28.4101 199.187 27.1201C198.047 26.1901 197.507 24.5701 198.407 23.1901C198.857 22.5301 199.637 22.1101 200.447 22.1101C201.437 22.1101 202.097 22.6201 202.667 22.8901C203.567 23.3101 204.887 23.7901 206.627 23.7901C208.727 23.7901 209.867 22.7701 209.897 21.2401C209.927 19.3501 207.587 18.6001 205.157 17.7001L203.717 17.1601C199.127 15.4501 197.717 11.2201 198.707 7.41008C199.667 3.69008 203.057 1.83008 207.167 1.83008C210.107 1.83008 211.907 2.43008 213.017 3.03008C214.397 3.78008 215.357 5.28008 214.907 6.72008C214.517 7.95008 213.467 8.43008 212.327 8.43008C211.877 8.43008 211.217 8.25008 210.947 8.04008C210.227 7.56008 209.177 7.14008 207.377 7.14008C205.937 7.14008 204.467 7.71008 204.437 9.45008Z" fill="white"/>
<path d="M190.242 20.5201V4.80008C190.242 2.76008 191.682 1.83008 193.332 1.83008C195.012 1.83008 196.422 2.76008 196.422 4.80008V20.2801C196.422 26.9701 191.082 29.1001 186.762 29.1001C182.442 29.1001 177.102 26.9701 177.102 20.2801V4.80008C177.102 2.76008 178.542 1.83008 180.192 1.83008C181.872 1.83008 183.282 2.76008 183.282 4.80008V20.5201C183.282 22.7701 185.172 23.8801 186.762 23.8801C188.352 23.8801 190.242 22.7701 190.242 20.5201Z" fill="white"/>
<path d="M174.531 9.75006V10.1101C174.531 12.4201 173.601 14.1001 171.681 15.1801C174.261 16.2001 175.431 18.1801 175.431 20.9401V21.2101C175.431 26.7301 171.471 28.6201 166.131 28.6201H160.911C157.311 28.6201 156.231 27.3301 156.231 23.8801V7.05006C156.231 3.60006 157.311 2.31006 160.911 2.31006H165.291C170.781 2.31006 174.531 4.83006 174.531 9.75006ZM165.591 7.41006H163.191C162.501 7.41006 162.321 7.56006 162.321 8.28006V13.0201H165.591C167.571 13.0201 168.441 11.8801 168.441 10.4101V10.0201C168.441 8.49006 167.571 7.41006 165.591 7.41006ZM166.491 17.9101H162.321V22.6501C162.321 23.3701 162.501 23.5201 163.191 23.5201H166.491C168.471 23.5201 169.341 22.4401 169.341 20.9401V20.4901C169.341 18.9901 168.471 17.9101 166.491 17.9101Z" fill="white"/>
<path d="M146.106 17.7001V20.5801C146.106 26.6701 141.816 29.1001 136.686 29.1001C131.496 29.1001 126.276 26.5501 126.276 19.9801V10.9501C126.276 4.32008 131.496 1.83008 136.776 1.83008C139.536 1.83008 141.966 2.46008 143.136 3.30008C144.366 4.17008 144.966 5.61008 144.246 6.87008C143.646 7.92008 142.536 8.34008 141.516 8.16008C140.826 8.04008 140.316 7.71008 139.866 7.53008C139.146 7.26008 138.096 7.14008 136.776 7.14008C134.676 7.14008 132.396 8.46008 132.396 11.2201V19.7101C132.396 22.4701 134.526 23.7901 136.686 23.7901C138.726 23.7901 140.616 22.8001 140.616 20.6701V19.0501C140.616 18.4501 140.496 18.3601 139.926 18.3601H138.936C137.196 18.3601 136.536 17.0401 136.536 15.8401C136.536 14.6401 137.226 13.2301 138.936 13.2301H141.666C145.206 13.2301 146.106 14.3401 146.106 17.7001Z" fill="white"/>
<path d="M121.277 1.83008C122.717 1.83008 124.007 2.85008 124.007 4.68008V26.1001C124.007 27.9301 122.417 28.8601 121.067 28.9801C119.627 29.1001 117.767 28.5601 117.137 27.2401L109.817 12.1201V28.6201H104.357V4.89008C104.357 3.03008 105.977 2.04008 107.357 1.89008C108.797 1.74008 110.567 2.31008 111.227 3.63008L118.547 18.6301V4.68008C118.547 2.85008 119.837 1.83008 121.277 1.83008Z" fill="white"/>
<path d="M95.3759 28.6201V4.83008C95.3759 2.76008 96.8158 1.83008 98.4958 1.83008C100.176 1.83008 101.616 2.76008 101.616 4.83008V28.6201H95.3759Z" fill="white"/>
<path d="M91.5445 1.82979C92.9845 2.06979 94.1545 3.35979 93.7945 5.15979L89.0545 28.6198H82.4545L78.6445 11.9698L74.8345 28.6198H68.2345L63.1945 5.15979C62.8045 3.35979 64.0045 2.06979 65.4445 1.82979C66.9745 1.58979 68.5945 2.15979 68.9545 3.98979L72.1645 20.0698L75.4645 5.03979C75.8545 3.20979 77.5345 2.75979 78.6445 2.75979C79.7545 2.75979 81.4345 3.20979 81.8245 5.03979L85.0945 19.9798L88.0345 3.98979C88.3645 2.15979 90.0145 1.58979 91.5445 1.82979Z" fill="white"/>
<path d="M51.162 8.43006V12.7201H59.352C61.092 12.7201 61.782 14.1601 61.782 15.3601C61.782 16.5601 61.122 17.9101 59.352 17.9101H51.162V22.5001C51.162 23.2201 51.342 23.3701 52.032 23.3701H59.922C61.692 23.3701 62.352 24.7201 62.352 25.9501C62.352 27.1801 61.662 28.6201 59.922 28.6201H49.692C46.092 28.6201 45.012 27.3301 45.012 23.8801V7.05006C45.012 3.60006 46.092 2.31006 49.692 2.31006H59.622C61.362 2.31006 62.052 3.75006 62.052 4.98006C62.052 6.21006 61.392 7.56006 59.622 7.56006H52.032C51.342 7.56006 51.162 7.71006 51.162 8.43006Z" fill="white"/>
<path d="M43.9418 28.6201H37.1618L32.3318 19.9501H28.8218V28.6201H22.6718V7.05006C22.6718 3.60006 23.7518 2.31006 27.3518 2.31006H32.8718C38.0618 2.31006 41.8718 4.77006 41.8718 10.1401V12.0601C41.8718 15.0301 40.2518 17.2801 37.9718 18.6301L43.9418 28.6201ZM28.8218 8.34006V14.8801H32.7218C34.7318 14.8801 35.7818 13.5901 35.7818 12.0601V10.2901C35.7818 8.76006 34.7318 7.47006 32.7218 7.47006H29.6918C29.0018 7.47006 28.8218 7.62006 28.8218 8.34006Z" fill="white"/>
<path d="M19.95 9.75006V10.1101C19.95 12.4201 19.02 14.1001 17.1 15.1801C19.68 16.2001 20.85 18.1801 20.85 20.9401V21.2101C20.85 26.7301 16.89 28.6201 11.55 28.6201H6.33002C2.73002 28.6201 1.65002 27.3301 1.65002 23.8801V7.05006C1.65002 3.60006 2.73002 2.31006 6.33002 2.31006H10.71C16.2 2.31006 19.95 4.83006 19.95 9.75006ZM11.01 7.41006H8.61002C7.92002 7.41006 7.74003 7.56006 7.74003 8.28006V13.0201H11.01C12.99 13.0201 13.86 11.8801 13.86 10.4101V10.0201C13.86 8.49006 12.99 7.41006 11.01 7.41006ZM11.91 17.9101H7.74003V22.6501C7.74003 23.3701 7.92002 23.5201 8.61002 23.5201H11.91C13.89 23.5201 14.76 22.4401 14.76 20.9401V20.4901C14.76 18.9901 13.89 17.9101 11.91 17.9101Z" fill="white"/>
<path d="M253.977 27.2402C254.567 28.4775 256.239 29.0297 257.632 28.9951L257.906 28.9805C259.256 28.8605 260.847 27.9296 260.847 26.0996V4.67969C260.847 2.96428 259.713 1.96058 258.385 1.8418L258.117 1.83008C256.677 1.83008 255.387 2.84988 255.387 4.67969V18.6299L248.066 3.62988C247.406 2.31004 245.636 1.73966 244.196 1.88965C242.816 2.03978 241.196 3.03005 241.196 4.88965V28.6201H246.656V12.1201L253.977 27.2402ZM261.847 26.0996C261.847 28.6659 259.61 29.832 257.995 29.9756L257.99 29.9766C257.126 30.0486 256.146 29.9244 255.271 29.5801C254.404 29.2384 253.536 28.6356 253.076 27.6748L247.656 16.4785V29.6201H240.196V4.88965C240.196 2.30835 242.443 1.07437 244.089 0.895508H244.093C244.972 0.803916 245.942 0.93009 246.804 1.2832C247.665 1.63596 248.494 2.24879 248.961 3.18262L248.966 3.19141L254.387 14.3008V4.67969C254.387 3.51695 254.804 2.53681 255.519 1.84863C256.224 1.16942 257.163 0.830078 258.117 0.830078C259.071 0.830188 260.009 1.16954 260.715 1.84863C261.43 2.53681 261.847 3.51695 261.847 4.67969V26.0996Z" fill="#39B0CE"/>
<path d="M228.152 0.830078C229.995 0.830078 232.122 1.87623 232.797 4.01953L241.046 29.6201H232.31L230.899 24.46H225.226L223.816 29.6201H215.206L223.329 4.01758L223.33 4.01367C224.048 1.77991 226.266 0.830156 228.152 0.830078ZM228.152 1.83008C226.532 1.83016 224.822 2.64039 224.282 4.32031L216.572 28.6201H223.053L224.463 23.46H231.662L233.072 28.6201H239.673L231.843 4.32031C231.365 2.80151 229.884 1.94131 228.44 1.83984L228.152 1.83008ZM230.282 18.3896H225.843L228.062 10.1699L230.282 18.3896ZM227.148 17.3896H228.977L228.062 14.0049L227.148 17.3896Z" fill="#39B0CE"/>
<path d="M207.167 0.830078C210.057 0.830123 211.967 1.38405 213.245 2.02148L213.492 2.15039L213.494 2.15137C215.104 3.02625 216.51 4.94391 215.861 7.01855L215.86 7.02246C215.297 8.7994 213.746 9.42969 212.326 9.42969C211.987 9.42963 211.617 9.36595 211.3 9.27734C211.024 9.2004 210.673 9.07147 210.392 8.87109C209.854 8.51259 209.001 8.1397 207.377 8.13965C206.765 8.13965 206.253 8.26491 205.925 8.47949C205.652 8.65774 205.446 8.92794 205.436 9.4668V9.46777C205.43 9.82648 205.589 10.1501 206.228 10.5469C206.904 10.967 207.878 11.3125 209.114 11.7451L210.584 12.2549L210.587 12.2559C212.476 12.918 214.174 13.9836 215.371 15.5479C216.578 17.1251 217.22 19.1397 217.105 21.5869C216.973 24.3755 215.884 26.5545 213.995 28.0127C212.136 29.4476 209.614 30.0995 206.747 30.0996C205.333 30.0996 203.768 29.9179 202.334 29.5645C200.92 29.2158 199.536 28.677 198.563 27.9023L198.555 27.8945C197.133 26.735 196.316 24.5653 197.569 22.6436L197.574 22.6348L197.58 22.627C198.214 21.6972 199.302 21.1105 200.446 21.1104C201.728 21.1104 202.734 21.813 203.089 21.9834C203.907 22.365 205.08 22.79 206.627 22.79V23.79L206.306 23.7842C204.934 23.7372 203.84 23.3955 203.023 23.0488L202.667 22.8896C202.133 22.6366 201.519 22.1734 200.629 22.1162L200.446 22.1104C199.636 22.1105 198.856 22.5305 198.406 23.1904L198.326 23.3203C197.541 24.6708 198.082 26.2192 199.186 27.1201C200.705 28.3294 203.674 29.0112 206.239 29.0918L206.747 29.0996C212.036 29.0995 215.636 26.7631 216.074 22.0078L216.106 21.54C216.316 17.0701 213.767 14.4302 210.257 13.2002L208.787 12.6904C206.462 11.8767 204.531 11.2033 204.439 9.60742L204.436 9.4502C204.466 7.7102 205.937 7.13965 207.377 7.13965L207.705 7.14453C209.306 7.19237 210.271 7.59007 210.946 8.04004C211.216 8.24997 211.876 8.42956 212.326 8.42969C213.466 8.42969 214.516 7.94973 214.906 6.71973C215.356 5.2798 214.396 3.78026 213.017 3.03027C211.976 2.4678 210.329 1.90508 207.705 1.83691L207.167 1.83008C203.057 1.83008 199.667 3.69016 198.707 7.41016L198.621 7.76855C197.808 11.4821 199.27 15.5036 203.717 17.1602L205.156 17.7002C207.586 18.6002 209.926 19.3502 209.896 21.2402C209.866 22.77 208.727 23.7899 206.627 23.79V22.79C207.526 22.79 208.089 22.571 208.409 22.3115C208.707 22.0701 208.887 21.7226 208.896 21.2207C208.902 20.7981 208.685 20.4111 207.931 19.9541C207.149 19.4807 206.076 19.1069 204.81 18.6377L204.806 18.6367L203.365 18.0967V18.0957C198.216 16.1762 196.643 11.377 197.738 7.16016L197.851 6.7627C199.097 2.72401 202.914 0.830078 207.167 0.830078Z" fill="#39B0CE"/>
<path d="M183.282 20.5195V4.7998C183.282 2.8874 182.043 1.95043 180.504 1.84082L180.192 1.83008C178.542 1.83009 177.103 2.75995 177.103 4.7998V20.2803L177.106 20.5898C177.264 26.8313 182.182 28.9646 186.354 29.0938L186.763 29.0996C191.015 29.0995 196.256 27.0358 196.419 20.5898L196.423 20.2803V4.7998C196.423 2.88726 195.183 1.95032 193.644 1.84082L193.332 1.83008C191.682 1.83022 190.242 2.7601 190.242 4.7998V20.5195C190.242 22.7694 188.353 23.8798 186.763 23.8799V22.8799C187.98 22.8798 189.242 22.0532 189.242 20.5195V4.7998C189.242 3.52492 189.704 2.49183 190.517 1.79199C191.307 1.11201 192.33 0.830151 193.332 0.830078C194.345 0.830078 195.373 1.1101 196.162 1.79395C196.973 2.49713 197.423 3.53171 197.423 4.7998V20.2803C197.423 23.9325 195.944 26.4429 193.802 28.0068C191.706 29.5366 189.063 30.0996 186.763 30.0996C184.462 30.0996 181.819 29.5368 179.723 28.0068C177.58 26.4429 176.103 23.9325 176.103 20.2803V4.7998C176.103 3.52495 176.563 2.49183 177.376 1.79199C178.166 1.11174 179.191 0.830085 180.192 0.830078C181.206 0.830078 182.233 1.10997 183.022 1.79395C183.834 2.49713 184.282 3.53171 184.282 4.7998V20.5195C184.282 22.0533 185.545 22.8799 186.763 22.8799V23.8799L186.461 23.8672C184.943 23.7369 183.282 22.6287 183.282 20.5195Z" fill="#39B0CE"/>
<path d="M175.431 21.21V20.9404C175.431 18.1804 174.261 16.1997 171.681 15.1797C173.48 14.1673 174.41 12.6278 174.52 10.5361L174.53 10.1104V9.75C174.53 4.98364 171.011 2.46974 165.8 2.31738L165.291 2.30957V1.30957C168.172 1.30963 170.723 1.96932 172.578 3.3916C174.469 4.84181 175.53 7.00632 175.53 9.75V10.1104C175.53 11.4006 175.27 12.5736 174.698 13.5947C174.396 14.134 174.015 14.6134 173.562 15.0381C174.301 15.5349 174.906 16.1455 175.367 16.8711C176.108 18.0365 176.431 19.4205 176.431 20.9404V21.21C176.431 24.2422 175.323 26.4252 173.357 27.8037C171.456 29.1373 168.889 29.6201 166.131 29.6201H160.91C159.042 29.6201 157.512 29.2964 156.497 28.2344C155.494 27.1839 155.23 25.6512 155.23 23.8799V7.0498C155.23 5.27849 155.494 3.74578 156.497 2.69531C157.512 1.63332 159.042 1.30962 160.91 1.30957V2.30957C157.311 2.30968 156.231 3.6001 156.23 7.0498V23.8799C156.23 27.2219 157.244 28.5372 160.58 28.6162L160.91 28.6201H166.131L166.627 28.6143C171.55 28.502 175.189 26.6808 175.419 21.7168L175.431 21.21ZM168.341 20.9404V20.4902C168.341 19.9305 168.182 19.5717 167.957 19.3506C167.732 19.1291 167.303 18.9102 166.49 18.9102H163.32V22.5195H166.49V23.5195H163.19C162.587 23.5195 162.374 23.4051 162.33 22.8945L162.32 22.6504V17.9102H166.49C168.47 17.9102 169.341 18.9902 169.341 20.4902V20.9404L169.33 21.2158C169.227 22.5706 168.347 23.5195 166.49 23.5195V22.5195C167.303 22.5195 167.732 22.3015 167.957 22.0801C168.182 21.8591 168.341 21.5002 168.341 20.9404ZM167.44 10.4102V10.0195C167.44 9.43993 167.278 9.07444 167.054 8.85156C166.83 8.62917 166.403 8.41019 165.591 8.41016H163.32V12.0195H165.591V13.0195H162.32V8.28027C162.32 7.6503 162.458 7.45654 162.955 7.41797L163.19 7.41016H165.591C167.57 7.41023 168.44 8.48983 168.44 10.0195V10.4102L168.431 10.6816C168.328 12.0181 167.447 13.0195 165.591 13.0195V12.0195C166.388 12.0195 166.817 11.7941 167.048 11.5615C167.283 11.3248 167.44 10.9516 167.44 10.4102ZM165.291 1.30957V2.30957H160.91V1.30957H165.291Z" fill="#39B0CE"/>
<path d="M125.276 19.9805V10.9502C125.276 7.33488 126.718 4.74928 128.952 3.09961C131.142 1.48209 134 0.830078 136.776 0.830078C138.229 0.830099 139.605 0.995472 140.785 1.27734C141.948 1.55527 142.988 1.96185 143.72 2.4873H143.719C145.194 3.53349 146.181 5.49881 145.114 7.36621C144.29 8.8091 142.748 9.39122 141.345 9.14453C140.888 9.06503 140.504 8.91852 140.195 8.78125C140.045 8.71426 139.9 8.64412 139.786 8.58984C139.675 8.53666 139.589 8.49749 139.515 8.4668L139.293 8.39355C138.736 8.23298 137.904 8.13966 136.776 8.13965C135.921 8.13965 135.058 8.41193 134.429 8.92188C133.826 9.41083 133.397 10.1474 133.396 11.2197V19.71C133.396 20.8065 133.807 21.5419 134.375 22.0195C134.966 22.517 135.798 22.79 136.687 22.79V23.79L136.483 23.7861C134.462 23.7086 132.525 22.4677 132.402 19.9648L132.396 19.71V11.2197C132.397 8.45991 134.676 7.13965 136.776 7.13965L137.259 7.14551C138.354 7.17219 139.236 7.29406 139.866 7.53027C140.316 7.71025 140.826 8.04011 141.516 8.16016C142.472 8.32891 143.508 7.97025 144.128 7.05957L144.246 6.87012C144.966 5.61012 144.366 4.1698 143.136 3.2998C142.039 2.51237 139.834 1.90914 137.289 1.83691L136.776 1.83008C131.496 1.83008 126.276 4.32019 126.276 10.9502V19.9805L126.28 20.2852C126.435 26.4275 131.256 28.9394 136.199 29.0928L136.687 29.0996C141.656 29.0995 145.837 26.8194 146.094 21.1406L146.106 20.5801V17.7002C146.106 14.5504 145.315 13.3775 142.3 13.2432L141.666 13.2305V12.2305C143.471 12.2305 144.963 12.4962 145.937 13.5137C146.899 14.5195 147.106 16.006 147.106 17.7002V20.5801C147.106 23.8835 145.929 26.3201 143.944 27.9053C141.996 29.4617 139.391 30.0995 136.687 30.0996C133.947 30.0996 131.113 29.4294 128.937 27.8047C126.72 26.1496 125.276 23.5676 125.276 19.9805ZM141.666 12.2305V13.2305H138.937V12.2305H141.666ZM140.616 20.6699L140.61 20.8662C140.498 22.8607 138.663 23.7899 136.687 23.79V22.79C137.562 22.79 138.325 22.5746 138.839 22.2119C139.315 21.8754 139.616 21.3928 139.616 20.6699V19.3604H138.937C137.783 19.3604 136.887 18.9068 136.302 18.1729C135.744 17.4733 135.536 16.6052 135.536 15.8398C135.536 15.0679 135.755 14.1876 136.302 13.4756C136.876 12.7287 137.769 12.2305 138.937 12.2305V13.2305L138.778 13.2344C137.184 13.3184 136.536 14.6775 136.536 15.8398L136.544 16.0664C136.62 17.1624 137.26 18.2831 138.776 18.3564L138.937 18.3604H139.926C140.496 18.3604 140.616 18.45 140.616 19.0498V20.6699Z" fill="#39B0CE"/>
<path d="M117.137 27.2402C117.727 28.4775 119.399 29.0298 120.792 28.9951L121.066 28.9805C122.374 28.8642 123.908 27.9872 124.002 26.2686L124.007 26.0996V4.67969C124.007 2.96438 122.873 1.96068 121.545 1.8418L121.276 1.83008C119.837 1.83021 118.547 2.85 118.547 4.67969V18.6299L111.227 3.62988C110.567 2.30997 108.796 1.73965 107.356 1.88965C105.977 2.0397 104.357 3.02995 104.356 4.88965V28.6201H109.816V12.1201L117.137 27.2402ZM125.007 26.0996C125.007 28.6658 122.77 29.832 121.155 29.9756L121.149 29.9766C120.285 30.0485 119.306 29.9244 118.432 29.5801C117.564 29.2385 116.697 28.6356 116.236 27.6748L110.816 16.4785V29.6201H103.356V4.88965C103.357 2.30835 105.604 1.07437 107.249 0.895508H107.253C108.132 0.803926 109.101 0.930179 109.963 1.2832C110.77 1.61395 111.55 2.17335 112.029 3.01172L112.121 3.18262L112.125 3.19141L117.547 14.3008V4.67969C117.547 3.51714 117.963 2.5368 118.678 1.84863C119.383 1.16945 120.322 0.830143 121.276 0.830078C122.231 0.830078 123.169 1.16939 123.875 1.84863C124.59 2.53681 125.007 3.51699 125.007 4.67969V26.0996Z" fill="#39B0CE"/>
<path d="M101.616 4.83008C101.616 2.88939 100.35 1.95052 98.8076 1.84082L98.4961 1.83008C96.8161 1.83008 95.376 2.76008 95.376 4.83008V28.6201H101.616V4.83008ZM102.616 29.6201H94.376V4.83008C94.376 3.54453 94.834 2.50201 95.6533 1.7959C96.4496 1.10985 97.4831 0.830078 98.4961 0.830078C99.5091 0.830121 100.543 1.10974 101.339 1.7959C102.158 2.50201 102.616 3.54453 102.616 4.83008V29.6201Z" fill="#39B0CE"/>
<path d="M88.8721 1.24984C89.7517 0.784467 90.776 0.696867 91.6992 0.841638L91.709 0.843591C93.6426 1.1659 95.2584 2.94114 94.7754 5.35629L94.7744 5.35824L89.8731 29.62H81.6572L78.6445 16.452L75.6319 29.62H67.4268L62.2168 5.37191L62.1738 5.14437C61.7932 2.82052 63.4249 1.15282 65.2803 0.843591L65.2901 0.841638C66.2135 0.696876 67.2316 0.784229 68.1084 1.25082C69.0177 1.73478 69.6967 2.58921 69.9346 3.79379L72.211 15.1932L74.4873 4.82992C74.7484 3.60722 75.463 2.80898 76.2949 2.34164C77.0943 1.89266 77.9742 1.75961 78.6445 1.75961C79.3149 1.75961 80.1948 1.89266 80.9942 2.34164C81.8253 2.80851 82.5401 3.60542 82.8018 4.82601L85.0088 14.9129L87.0508 3.80941C87.2712 2.59201 87.9578 1.73357 88.8721 1.24984ZM91.5449 1.82992C90.0149 1.58992 88.3642 2.16007 88.0342 3.99008L85.0947 19.9803L81.8242 5.03988C81.4342 3.2099 79.7545 2.75961 78.6445 2.75961C77.5346 2.75961 75.8549 3.2099 75.4649 5.03988L72.1641 20.0702L68.9541 3.99008C68.5941 2.16007 66.9744 1.58992 65.4444 1.82992C64.0044 2.07001 62.8044 3.36008 63.1944 5.16L68.2344 28.62H74.835L78.6445 11.9696L82.4541 28.62H89.0547L93.7949 5.16C94.1549 3.36016 92.9848 2.07009 91.5449 1.82992Z" fill="#39B0CE"/>
<path d="M44.0117 23.8799V7.0498C44.0117 5.27842 44.2759 3.74578 45.2793 2.69531C46.2938 1.6335 47.8246 1.30957 49.6924 1.30957V2.30957L49.3613 2.31348C46.0255 2.39251 45.0118 3.70791 45.0117 7.0498V23.8799C45.0117 27.2219 46.0254 28.5372 49.3613 28.6162L49.6924 28.6201H59.9219L60.082 28.6162C61.5998 28.5361 62.2643 27.3153 62.3438 26.1826L62.3516 25.9502C62.3516 24.7587 61.7326 23.4545 60.085 23.374L59.9219 23.3701V22.3701C61.0931 22.3701 61.9988 22.833 62.5869 23.5811C63.1465 24.2929 63.3516 25.1751 63.3516 25.9502C63.3515 26.7321 63.1358 27.6261 62.5859 28.3506C62.0084 29.1114 61.1071 29.6201 59.9219 29.6201H49.6924C47.8246 29.6201 46.2938 29.2963 45.2793 28.2344C44.2758 27.1839 44.0117 25.6513 44.0117 23.8799ZM51.1621 22.5V17.9102H59.3516L59.5146 17.9062C61.0565 17.8311 61.6982 16.6853 61.7744 15.5859L61.7822 15.3604C61.7822 14.1604 61.0916 12.7197 59.3516 12.7197V11.7197C60.5363 11.7197 61.4365 12.2277 62.0137 12.9824C62.5637 13.7016 62.7822 14.589 62.7822 15.3604C62.7822 16.125 62.5743 16.9996 62.0146 17.7061C61.4269 18.4479 60.5225 18.9102 59.3516 18.9102H52.1621V22.3701H59.9219V23.3701H52.0322L51.7969 23.3623C51.3708 23.3293 51.2085 23.1823 51.1709 22.7441L51.1621 22.5ZM62.0518 4.98047C62.0518 3.78896 61.4045 2.4002 59.7822 2.31445L59.6221 2.30957V1.30957C60.8072 1.3096 61.7086 1.81831 62.2861 2.5791C62.8361 3.30367 63.0518 4.19852 63.0518 4.98047C63.0517 5.75559 62.8467 6.63785 62.2871 7.34961C61.699 8.09762 60.7932 8.55954 59.6221 8.55957H52.1621V11.7197H59.3516V12.7197H51.1621V8.42969C51.1622 7.79975 51.2999 7.60585 51.7969 7.56738L52.0322 7.55957H59.6221L59.7842 7.55566C61.326 7.48071 61.9675 6.33502 62.0439 5.21191L62.0518 4.98047ZM59.6221 1.30957V2.30957H49.6924V1.30957H59.6221Z" fill="#39B0CE"/>
<path d="M41.8721 12.0596V10.1396C41.8719 4.93779 38.2962 2.46683 33.3545 2.31738L32.8721 2.30957V1.30957C35.6081 1.30961 38.1082 1.95668 39.9443 3.43164C41.8138 4.93339 42.872 7.19541 42.8721 10.1396V12.0596C42.8721 15.0573 41.4092 17.3993 39.3184 18.9355L45.7041 29.6201H36.5742L31.7441 20.9502H29.8223V29.6201H21.6719V7.0498C21.6719 5.27842 21.935 3.74578 22.9385 2.69531C23.953 1.63328 25.4837 1.3096 27.3516 1.30957V2.30957C23.7518 2.30963 22.6719 3.60003 22.6719 7.0498V28.6201H28.8223V19.9502H32.332L37.1621 28.6201H43.9414L37.9717 18.6299C40.1805 17.322 41.7701 15.1696 41.8672 12.3359L41.8721 12.0596ZM34.7822 12.0596V10.29C34.7822 9.75478 34.601 9.31606 34.2988 9.01367C34.0016 8.71647 33.5055 8.46973 32.7217 8.46973H29.8223V13.8799H32.7217V14.8799H28.8223V8.33984C28.8223 7.62011 29.0018 7.46978 29.6914 7.46973H32.7217C34.7317 7.46973 35.7822 8.76004 35.7822 10.29V12.0596L35.7695 12.3438C35.6468 13.7462 34.6061 14.8799 32.7217 14.8799V13.8799C33.5055 13.8799 34.0016 13.6341 34.2988 13.3369C34.6012 13.0345 34.7822 12.595 34.7822 12.0596ZM32.8721 1.30957V2.30957H27.3516V1.30957H32.8721Z" fill="#39B0CE"/>
<path d="M20.8496 21.21V20.9404C20.8496 18.1804 19.6796 16.1997 17.0996 15.1797C18.8995 14.1672 19.8302 12.6279 19.9395 10.5361L19.9502 10.1104V9.75C19.9502 4.83 16.2 2.30957 10.71 2.30957V1.30957C13.5908 1.30957 16.142 1.96926 17.9971 3.3916C19.8885 4.84181 20.9502 7.0062 20.9502 9.75V10.1104C20.9501 11.4007 20.6891 12.5735 20.1172 13.5947C19.8153 14.1338 19.4345 14.6135 18.9824 15.0381C19.7208 15.5348 20.325 16.1457 20.7861 16.8711C21.5269 18.0365 21.8496 19.4204 21.8496 20.9404V21.21C21.8496 24.2423 20.7419 26.4252 18.7764 27.8037C16.8749 29.1372 14.3075 29.6201 11.5498 29.6201H6.33008C4.46215 29.6201 2.93152 29.2965 1.91699 28.2344C0.913529 27.1839 0.650391 25.6513 0.650391 23.8799V7.0498C0.65041 5.27842 0.913562 3.74578 1.91699 2.69531C2.93152 1.63336 4.46224 1.30957 6.33008 1.30957V2.30957L6 2.31348C2.66365 2.39236 1.65043 3.7077 1.65039 7.0498V23.8799L1.66309 24.502C1.79057 27.3868 2.8789 28.5424 6 28.6162L6.33008 28.6201H11.5498L12.0469 28.6143C17.1338 28.4981 20.8496 26.5573 20.8496 21.21ZM13.7598 20.9404V20.4902C13.7598 19.9303 13.6007 19.5717 13.376 19.3506C13.1509 19.1291 12.7225 18.9102 11.9102 18.9102H8.74023V22.5195H11.9102V23.5195H8.61035L8.375 23.5117C7.94906 23.4788 7.78672 23.3324 7.74902 22.8945L7.74023 22.6504V17.9102H11.9102C13.89 17.9102 14.7598 18.9903 14.7598 20.4902V20.9404L14.75 21.2158C14.6473 22.5706 13.7665 23.5195 11.9102 23.5195V22.5195C12.7222 22.5195 13.1508 22.3014 13.376 22.0801C13.6006 21.8591 13.7597 21.5002 13.7598 20.9404ZM12.8604 10.4102V10.0195C12.8603 9.44017 12.6981 9.07447 12.4736 8.85156C12.2494 8.62915 11.8223 8.41016 11.0098 8.41016H8.74023V12.0195H11.0098V13.0195H7.74023V8.28027C7.74023 7.65007 7.87791 7.45644 8.375 7.41797L8.61035 7.41016H11.0098C12.9896 7.41016 13.8602 8.48978 13.8604 10.0195V10.4102L13.8496 10.6816C13.7467 12.0181 12.866 13.0195 11.0098 13.0195V12.0195C11.8073 12.0195 12.237 11.7941 12.4678 11.5615C12.7024 11.3247 12.8603 10.9514 12.8604 10.4102ZM10.71 1.30957V2.30957H6.33008V1.30957H10.71Z" fill="#39B0CE"/>
</svg>
