<svg width="1920" height="393" viewBox="0 0 1920 393" fill="none" xmlns="http://www.w3.org/2000/svg">
<path d="M2084.53 26.0855C2079.6 32.105 2073.35 36.992 2066.24 40.3947C2059.12 43.7975 2051.32 45.6313 2043.38 45.7641C2035.41 45.6331 2027.57 43.8014 2020.41 40.3998C2013.26 36.9982 2006.97 32.1104 2001.99 26.0855C1994.97 17.9348 1986.18 11.3745 1976.25 6.8673C1966.32 2.36013 1955.49 0.0159061 1944.52 0C1933.57 0.107686 1922.77 2.49278 1912.85 6.99355C1902.94 11.4943 1894.14 18.0055 1887.05 26.0855C1882.12 32.105 1875.88 36.992 1868.76 40.3947C1861.65 43.7975 1853.84 45.6313 1845.9 45.7641C1837.97 45.6313 1830.16 43.7975 1823.04 40.3947C1815.93 36.992 1809.68 32.105 1804.75 26.0855C1797.7 17.9705 1788.9 11.435 1778.98 6.93111C1769.06 2.42719 1758.24 0.0623052 1747.28 0C1736.33 0.107686 1725.53 2.49278 1715.61 6.99355C1705.7 11.4943 1696.9 18.0055 1689.81 26.0855C1684.91 32.1293 1678.66 37.0336 1671.54 40.4388C1664.42 43.8439 1656.6 45.6635 1648.66 45.7641C1640.76 45.6296 1632.99 43.7938 1625.91 40.3899C1618.83 36.986 1612.63 32.0995 1607.75 26.0855C1600.71 18.0632 1591.99 11.5863 1582.16 7.08775C1572.33 2.58923 1561.62 0.172791 1550.75 0C1539.79 0.0623052 1528.97 2.42719 1519.05 6.93111C1509.13 11.435 1500.34 17.9705 1493.28 26.0855C1488.29 32.1521 1481.96 37.0662 1474.76 40.4702C1467.56 43.8743 1459.67 45.6828 1451.66 45.7641C1443.72 45.6313 1435.91 43.7975 1428.8 40.3947C1421.68 36.992 1415.43 32.105 1410.51 26.0855C1403.45 17.9705 1394.66 11.435 1384.73 6.93111C1374.81 2.42719 1364 0.0623052 1353.04 0C1342.08 0.107686 1331.28 2.49278 1321.37 6.99355C1311.45 11.4943 1302.65 18.0055 1295.57 26.0855C1290.64 32.105 1284.39 36.992 1277.27 40.3947C1270.16 43.7975 1262.35 45.6313 1254.42 45.7641C1246.51 45.6296 1238.74 43.7938 1231.66 40.3899C1224.59 36.986 1218.38 32.0995 1213.5 26.0855C1206.41 18.0055 1197.61 11.4943 1187.7 6.99355C1177.78 2.49278 1166.98 0.107686 1156.03 0C1145.07 0.0623052 1134.26 2.42719 1124.33 6.93111C1114.41 11.435 1105.62 17.9705 1098.56 26.0855C1093.63 32.105 1087.39 36.992 1080.27 40.3947C1073.15 43.7975 1065.35 45.6313 1057.41 45.7641C1049.51 45.6296 1041.74 43.7938 1034.66 40.3899C1027.58 36.986 1021.38 32.0995 1016.5 26.0855C1009.48 17.9231 1000.7 11.3546 990.766 6.84665C980.834 2.33866 969.998 0.00169913 959.027 0.00169913C948.056 0.00169913 937.22 2.33866 927.287 6.84665C917.355 11.3546 908.57 17.9231 901.557 26.0855C896.628 32.105 890.381 36.992 883.265 40.3947C876.15 43.7975 868.343 45.6313 860.406 45.7641C852.504 45.6296 844.732 43.7938 837.655 40.3899C830.578 36.986 824.373 32.0995 819.492 26.0855C812.479 17.9231 803.694 11.3546 793.762 6.84665C783.829 2.33866 772.993 0.00169913 762.022 0.00169913C751.052 0.00169913 740.215 2.33866 730.283 6.84665C720.351 11.3546 711.566 17.9231 704.553 26.0855C699.672 32.0995 693.467 36.986 686.39 40.3899C679.313 43.7938 671.541 45.6296 663.638 45.7641C655.702 45.6313 647.895 43.7975 640.779 40.3947C633.664 36.992 627.416 32.105 622.487 26.0855C615.474 17.9231 606.69 11.3546 596.757 6.84665C586.825 2.33866 575.989 0.00169913 565.018 0.00169913C554.047 0.00169913 543.211 2.33866 533.279 6.84665C523.346 11.3546 514.562 17.9231 507.548 26.0855C502.619 32.105 496.372 36.992 489.256 40.3947C482.141 43.7975 474.334 45.6313 466.397 45.7641C458.495 45.6296 450.723 43.7938 443.646 40.3899C436.569 36.986 430.364 32.0995 425.483 26.0855C418.47 17.9231 409.685 11.3546 399.753 6.84665C389.82 2.33866 378.984 0.00169913 368.013 0.00169913C357.043 0.00169913 346.206 2.33866 336.274 6.84665C326.342 11.3546 317.557 17.9231 310.544 26.0855C305.615 32.105 299.368 36.992 292.252 40.3947C285.136 43.7975 277.329 45.6313 269.393 45.7641C261.491 45.6296 253.719 43.7938 246.642 40.3899C239.564 36.986 233.36 32.0995 228.478 26.0855C221.465 17.9231 212.681 11.3546 202.748 6.84665C192.816 2.33866 181.98 0.00169913 171.009 0.00169913C160.038 0.00169913 149.202 2.33866 139.27 6.84665C129.337 11.3546 120.553 17.9231 113.539 26.0855C108.61 32.105 102.363 36.992 95.2474 40.3947C88.1317 43.7975 80.3246 45.6313 72.3884 45.7641C64.4862 45.6296 56.7143 43.7938 49.6371 40.3899C42.5599 36.986 36.3553 32.0995 31.474 26.0855C24.4607 17.9231 15.6761 11.3546 5.7438 6.84665C-4.18846 2.33866 -15.0247 0.00169913 -25.9955 0.00169913C-36.9663 0.00169913 -47.8026 2.33866 -57.7349 6.84665C-67.6671 11.3546 -76.4518 17.9231 -83.465 26.0855C-88.3941 32.105 -94.6414 36.992 -101.757 40.3947C-108.873 43.7975 -116.68 45.6313 -124.616 45.7641C-132.518 45.6296 -140.29 43.7938 -147.367 40.3899C-154.445 36.986 -160.649 32.0995 -165.531 26.0855C-172.617 18.0055 -181.416 11.4943 -191.332 6.99355C-201.248 2.49278 -212.048 0.107686 -223 0L-223 393L2142 393V0C2131.03 0.0314878 2120.21 2.38265 2110.28 6.88872C2100.35 11.3948 2091.56 17.9468 2084.53 26.0855Z" fill="#FF634C"/>
</svg>
