<svg width="42" height="42" viewBox="0 0 42 42" fill="none" xmlns="http://www.w3.org/2000/svg">
<path d="M37.6613 14.1998C37.6613 14.1998 37.3293 11.8557 36.3066 10.8264C35.0117 9.47168 33.5641 9.46504 32.9 9.38535C28.1453 9.04004 21.0066 9.04004 21.0066 9.04004H20.9934C20.9934 9.04004 13.8547 9.04004 9.1 9.38535C8.43594 9.46504 6.98828 9.47168 5.69336 10.8264C4.6707 11.8557 4.34531 14.1998 4.34531 14.1998C4.34531 14.1998 4 16.9557 4 19.7049V22.2814C4 25.0307 4.33867 27.7865 4.33867 27.7865C4.33867 27.7865 4.6707 30.1307 5.68672 31.16C6.98164 32.5146 8.68164 32.4682 9.43867 32.6143C12.1613 32.8732 21 32.9529 21 32.9529C21 32.9529 28.1453 32.9396 32.9 32.601C33.5641 32.5213 35.0117 32.5146 36.3066 31.16C37.3293 30.1307 37.6613 27.7865 37.6613 27.7865C37.6613 27.7865 38 25.0373 38 22.2814V19.7049C38 16.9557 37.6613 14.1998 37.6613 14.1998ZM17.4871 25.4092V15.8533L26.6711 20.6479L17.4871 25.4092Z" fill="white"/>
</svg>
