<svg width="42" height="42" viewBox="0 0 42 42" fill="none" xmlns="http://www.w3.org/2000/svg">
<g clip-path="url(#clip0_473_283)">
<path d="M21 8.70117C25.0078 8.70117 25.4824 8.71875 27.0586 8.78906C28.5234 8.85352 29.3145 9.09961 29.8418 9.30469C30.5391 9.57422 31.043 9.90234 31.5645 10.4238C32.0918 10.9512 32.4141 11.4492 32.6836 12.1465C32.8887 12.6738 33.1348 13.4707 33.1992 14.9297C33.2695 16.5117 33.2871 16.9863 33.2871 20.9883C33.2871 24.9961 33.2695 25.4707 33.1992 27.0469C33.1348 28.5117 32.8887 29.3027 32.6836 29.8301C32.4141 30.5273 32.0859 31.0313 31.5645 31.5527C31.0371 32.0801 30.5391 32.4023 29.8418 32.6719C29.3145 32.877 28.5176 33.123 27.0586 33.1875C25.4766 33.2578 25.002 33.2754 21 33.2754C16.9922 33.2754 16.5176 33.2578 14.9414 33.1875C13.4766 33.123 12.6855 32.877 12.1582 32.6719C11.4609 32.4023 10.957 32.0742 10.4355 31.5527C9.9082 31.0254 9.58594 30.5273 9.31641 29.8301C9.11133 29.3027 8.86523 28.5059 8.80078 27.0469C8.73047 25.4648 8.71289 24.9902 8.71289 20.9883C8.71289 16.9805 8.73047 16.5059 8.80078 14.9297C8.86523 13.4648 9.11133 12.6738 9.31641 12.1465C9.58594 11.4492 9.91406 10.9453 10.4355 10.4238C10.9629 9.89648 11.4609 9.57422 12.1582 9.30469C12.6855 9.09961 13.4824 8.85352 14.9414 8.78906C16.5176 8.71875 16.9922 8.70117 21 8.70117ZM21 6C16.9277 6 16.418 6.01758 14.8184 6.08789C13.2246 6.1582 12.1289 6.41602 11.1797 6.78516C10.1895 7.17187 9.35156 7.68164 8.51953 8.51953C7.68164 9.35156 7.17188 10.1895 6.78516 11.1738C6.41602 12.1289 6.1582 13.2187 6.08789 14.8125C6.01758 16.418 6 16.9277 6 21C6 25.0723 6.01758 25.582 6.08789 27.1816C6.1582 28.7754 6.41602 29.8711 6.78516 30.8203C7.17188 31.8105 7.68164 32.6484 8.51953 33.4805C9.35156 34.3125 10.1895 34.8281 11.1738 35.209C12.1289 35.5781 13.2188 35.8359 14.8125 35.9062C16.4121 35.9766 16.9219 35.9941 20.9941 35.9941C25.0664 35.9941 25.5762 35.9766 27.1758 35.9062C28.7695 35.8359 29.8652 35.5781 30.8145 35.209C31.7988 34.8281 32.6367 34.3125 33.4688 33.4805C34.3008 32.6484 34.8164 31.8105 35.1973 30.8262C35.5664 29.8711 35.8242 28.7813 35.8945 27.1875C35.9648 25.5879 35.9824 25.0781 35.9824 21.0059C35.9824 16.9336 35.9648 16.4238 35.8945 14.8242C35.8242 13.2305 35.5664 12.1348 35.1973 11.1855C34.8281 10.1895 34.3184 9.35156 33.4805 8.51953C32.6484 7.6875 31.8105 7.17188 30.8262 6.79102C29.8711 6.42187 28.7813 6.16406 27.1875 6.09375C25.582 6.01758 25.0723 6 21 6Z" fill="white"/>
<path d="M21 13.2949C16.7461 13.2949 13.2949 16.7461 13.2949 21C13.2949 25.2539 16.7461 28.7051 21 28.7051C25.2539 28.7051 28.7051 25.2539 28.7051 21C28.7051 16.7461 25.2539 13.2949 21 13.2949ZM21 25.998C18.2402 25.998 16.002 23.7598 16.002 21C16.002 18.2402 18.2402 16.002 21 16.002C23.7598 16.002 25.998 18.2402 25.998 21C25.998 23.7598 23.7598 25.998 21 25.998Z" fill="white"/>
<path d="M30.8086 12.9902C30.8086 13.9863 30 14.7891 29.0098 14.7891C28.0137 14.7891 27.2109 13.9805 27.2109 12.9902C27.2109 11.9941 28.0195 11.1914 29.0098 11.1914C30 11.1914 30.8086 12 30.8086 12.9902Z" fill="white"/>
</g>
<defs>
<clipPath id="clip0_473_283">
<rect width="30" height="30" fill="white" transform="translate(6 6)"/>
</clipPath>
</defs>
</svg>
