<svg width="49" height="91" viewBox="0 0 49 91" fill="none" xmlns="http://www.w3.org/2000/svg">
<g clip-path="url(#clip0_607_85)">
<path d="M23.1816 22.6974C22.7726 22.6979 22.3676 22.6163 21.9896 22.4572C21.6116 22.298 21.2681 22.0645 20.9787 21.7699C20.6893 21.4752 20.4597 21.1254 20.3031 20.7402C20.1464 20.3551 20.0658 19.9422 20.0658 19.5253V12.1865C20.0658 9.40869 22.1489 6.92659 25.9282 5.21062L35.3371 0.344985C35.7743 0.118912 36.2576 0.0007412 36.7478 0C37.0761 0.00103604 37.4022 0.0539343 37.7146 0.156812C38.4992 0.419721 39.1501 0.988228 39.5252 1.73837L40.7161 4.13534C40.9019 4.50709 41.0139 4.91254 41.0457 5.32848C41.0775 5.74442 41.0286 6.16267 40.9016 6.55929C40.7747 6.95591 40.5722 7.3231 40.3059 7.63983C40.0395 7.95656 39.7145 8.21662 39.3494 8.4051L29.7648 13.3603L29.6065 13.4365C29.3692 13.5396 29.1407 13.665 28.9298 13.7815V19.5253C28.9298 20.3666 28.602 21.1734 28.0185 21.7683C27.435 22.3632 26.6436 22.6974 25.8184 22.6974H23.1816Z" fill="white"/>
<path d="M6.03821 34.5746C5.21302 34.5746 4.42162 34.2404 3.83812 33.6455C3.25462 33.0507 2.92682 32.2438 2.92682 31.4025C2.93031 27.4119 4.48652 23.5856 7.25396 20.7633C10.0214 17.9411 13.774 16.3534 17.6883 16.3486H31.3117C35.2268 16.3522 38.9805 17.9394 41.7489 20.7618C44.5173 23.5841 46.0741 27.4111 46.0776 31.4025C46.0776 31.8195 45.997 32.2323 45.8403 32.6175C45.6837 33.0026 45.4541 33.3525 45.1647 33.6471C44.8753 33.9417 44.5318 34.1753 44.1538 34.3344C43.7758 34.4936 43.3708 34.5752 42.9618 34.5746H6.03821Z" fill="white"/>
<path d="M49 35.1485V34.1225C49 31.8139 47.1643 29.9424 44.8998 29.9424L4.10018 29.9424C1.83571 29.9424 0 31.8139 0 34.1225V35.1485C0 37.4572 1.83571 39.3287 4.10018 39.3287H44.8998C47.1643 39.3287 49 37.4572 49 35.1485Z" fill="white"/>
<path d="M9.46601 91.0003C6.79408 91.0003 4.60117 89.0334 4.47372 86.52L4.1661 80.3505C4.14465 79.9204 4.20922 79.4903 4.35589 79.0864C4.50257 78.6825 4.72828 78.3132 5.0193 78.001C5.31032 77.6888 5.66058 77.4402 6.04879 77.2703C6.43699 77.1004 6.85503 77.0127 7.27749 77.0127H41.7225C42.145 77.0127 42.563 77.1004 42.9512 77.2703C43.3394 77.4402 43.6897 77.6888 43.9807 78.001C44.2717 78.3132 44.4974 78.6825 44.6441 79.0864C44.7908 79.4903 44.8554 79.9204 44.8339 80.3505L44.5219 86.5155C44.3988 89.0289 42.2059 90.9958 39.5296 90.9958L9.46601 91.0003Z" fill="white"/>
<path d="M5.89758 45.2245C5.09327 45.2251 4.31997 44.9082 3.73988 44.3402C3.1598 43.7722 2.818 42.9972 2.78619 42.1779L2.63678 38.0022C2.61907 37.5777 2.68533 37.1539 2.83159 36.756C2.97786 36.3581 3.20115 35.9943 3.48817 35.6862C3.77519 35.3782 4.12007 35.1321 4.50229 34.9627C4.88451 34.7933 5.29625 34.704 5.71301 34.7002H43.2694C43.6891 34.6992 44.1047 34.7849 44.491 34.9522C44.8774 35.1194 45.2265 35.3648 45.5172 35.6734C45.808 35.9819 46.0344 36.3474 46.1829 36.7477C46.3313 37.1479 46.3986 37.5747 46.3808 38.0022L46.2138 42.1779C46.1809 42.9969 45.8388 43.7712 45.2589 44.339C44.6791 44.9067 43.9064 45.224 43.1024 45.2245H5.89758Z" fill="white"/>
<path d="M7.91031 81.6496C6.62171 81.646 5.38429 81.135 4.45648 80.2233C3.52867 79.3116 2.9822 78.0697 2.93121 76.757L1.61282 45.9279C1.58138 45.2405 1.68675 44.5537 1.92258 43.909C2.15841 43.2642 2.51983 42.6748 2.98505 42.1762C3.45027 41.6776 4.00967 41.2802 4.62955 41.0079C5.24943 40.7356 5.91696 40.5941 6.59192 40.5918H42.3905C43.0622 40.5941 43.7266 40.7342 44.3441 41.0036C44.9617 41.2729 45.5198 41.6662 45.9853 42.1599C46.4521 42.6614 46.8155 43.2533 47.0541 43.9005C47.2926 44.5477 47.4014 45.2371 47.374 45.9279L46.0556 76.757C46.0067 78.0713 45.4603 79.3151 44.5311 80.2273C43.6019 81.1396 42.3621 81.6493 41.0721 81.6496H7.91031Z" fill="white"/>
<path d="M17.6883 19.5254H31.3117C34.4007 19.5266 37.3628 20.7785 39.5467 23.0058C41.7306 25.2331 42.9574 28.2535 42.9574 31.4027H6.0426C6.0426 28.2535 7.26942 25.2331 9.45329 23.0058C11.6372 20.7785 14.5993 19.5266 17.6883 19.5254Z" fill="#C6E5E8"/>
<path d="M44.8998 33.1182H4.10018C3.55651 33.1182 3.11578 33.5675 3.11578 34.1218V35.1478C3.11578 35.702 3.55651 36.1514 4.10018 36.1514H44.8998C45.4435 36.1514 45.8842 35.702 45.8842 35.1478V34.1218C45.8842 33.5675 45.4435 33.1182 44.8998 33.1182Z" fill="#EC6351"/>
<path d="M9.46602 87.8146H39.5516C40.5623 87.8146 41.3929 87.1694 41.4369 86.3495L41.7445 80.1846H7.2775L7.58512 86.3495C7.62467 87.1784 8.45525 87.8146 9.46602 87.8146Z" fill="#C6E5E8"/>
<path d="M43.2694 37.8721H5.73059L5.89759 42.0522H43.1024L43.2694 37.8721Z" fill="#C6E5E8"/>
<path d="M4.7374 45.7938L6.05578 76.623C6.07373 77.1149 6.27608 77.5809 6.62111 77.9252C6.96615 78.2695 7.42759 78.4657 7.91031 78.4734H41.0809C41.5681 78.4702 42.0352 78.2748 42.3843 77.9281C42.7333 77.5815 42.9371 77.1105 42.953 76.614L44.2714 45.7849C44.2844 45.5252 44.2458 45.2655 44.1578 45.0215C44.0698 44.7775 43.9343 44.5541 43.7594 44.3649C43.5844 44.1757 43.3738 44.0245 43.14 43.9205C42.9063 43.8165 42.6543 43.7618 42.3993 43.7598H6.59193C6.33761 43.7642 6.08679 43.8209 5.85449 43.9265C5.62219 44.0321 5.41319 44.1845 5.24002 44.3744C5.06686 44.5643 4.93308 44.7879 4.84671 45.0319C4.76034 45.2758 4.72316 45.5349 4.7374 45.7938Z" fill="#EC6351"/>
<path d="M8.71453 49.118C8.69011 48.773 8.77483 48.4291 8.95623 48.1368C9.18583 47.8532 9.47194 47.6226 9.79561 47.4602C9.90561 47.3856 10.0293 47.3345 10.1592 47.3098C10.2891 47.2852 10.4225 47.2876 10.5515 47.3169C10.7668 47.3841 10.8767 47.5857 10.8723 47.9128V48.4146C12.6829 47.5767 13.6101 47.3393 15.4207 47.4423V46.9181C15.4085 46.7784 15.4311 46.6378 15.4865 46.5093C15.5418 46.3809 15.628 46.2688 15.7371 46.1834C15.8508 46.1096 15.9781 46.0604 16.1111 46.0388C16.2441 46.0173 16.3801 46.0237 16.5106 46.0579C16.8049 46.1195 17.0716 46.2767 17.2709 46.5059C17.4747 46.7399 17.5831 47.0444 17.5741 47.3572L17.5477 52.7829C14.5154 52.1153 13.0081 52.3348 10.2263 53.6028C9.92722 53.7785 9.60442 53.9083 9.26825 53.9881C9.1798 54.0087 9.08702 53.9966 9.00651 53.954C8.926 53.9113 8.86301 53.8408 8.82879 53.7551C8.73275 53.4454 8.69255 53.1206 8.71014 52.7963L8.71453 49.118ZM10.9426 51.3805C10.9843 51.3928 11.0279 51.3964 11.071 51.391C11.1141 51.3856 11.1556 51.3714 11.1931 51.3492C12.4938 50.7059 13.9406 50.4319 15.3812 50.5562V49.2121C13.5706 49.109 12.6477 49.333 10.8415 50.1574V51.17C10.8679 51.2775 10.8899 51.3492 10.9426 51.3805Z" fill="white"/>
<path d="M19.5912 52.0568C19.2943 51.6727 19.1264 51.2015 19.1122 50.7127V50.2646C19.0891 50.0602 19.1206 49.8532 19.2034 49.6655C19.2862 49.4778 19.4171 49.3164 19.5824 49.1983C19.7998 49.1008 20.0352 49.0523 20.2726 49.0562C20.51 49.06 20.7438 49.1162 20.9579 49.2207C22.9311 49.9017 23.9331 50.3542 25.9063 50.7619V50.4886C25.9112 50.4135 25.8875 50.3393 25.8399 50.2817C25.7924 50.2241 25.7248 50.1874 25.6514 50.1795C23.3706 49.6732 22.2192 49.0908 19.9384 48.356C19.7301 48.2817 19.5488 48.1447 19.4186 47.9631C19.2883 47.7815 19.2152 47.5639 19.2089 47.339C19.2041 47.2484 19.2194 47.1578 19.2537 47.0741C19.2879 46.9903 19.3402 46.9155 19.4066 46.8551C19.4811 46.7959 19.5701 46.7587 19.6639 46.7476C19.7577 46.7366 19.8527 46.752 19.9384 46.7924C22.5444 47.6884 23.8936 48.3784 26.4908 48.7772C26.9461 48.8027 27.3817 48.9753 27.7345 49.27C27.9895 49.5692 28.119 49.9586 28.0948 50.3542V52.4241C25.5547 52.4241 24.2583 51.7745 21.6962 50.8784C21.4897 50.8067 21.3623 50.8291 21.3447 51.0352C21.3198 51.1258 21.3211 51.2217 21.3484 51.3115C21.3756 51.4013 21.4278 51.4812 21.4985 51.5415C21.5673 51.6041 21.6481 51.6514 21.7358 51.6804C24.1089 52.5093 25.3086 53.0827 27.6641 53.2216C27.7675 53.2186 27.8702 53.2387 27.9651 53.2805C28.06 53.3223 28.1448 53.3848 28.2135 53.4636C28.3222 53.63 28.3733 53.8287 28.3585 54.0281C28.3616 54.2246 28.2979 54.4161 28.1783 54.5702C28.1105 54.6482 28.025 54.7082 27.9292 54.7449C27.8335 54.7816 27.7304 54.7939 27.629 54.7808C26.3603 54.6586 25.1054 54.4171 23.8804 54.0595C23.0014 53.8086 22.0566 53.5039 20.9008 53.0603C20.3604 52.8967 19.8956 52.5405 19.5912 52.0568Z" fill="white"/>
<path d="M30.736 49.2437C31.3886 48.7539 32.1387 48.416 32.9333 48.2536C33.643 48.0099 34.4078 47.9866 35.1306 48.1863C35.6843 48.4059 35.9656 48.9032 35.9656 49.7007V50.2876C35.965 51.0852 35.6664 51.8526 35.1306 52.4337C34.55 53.1 33.7832 53.569 32.9333 53.7778C32.5692 53.8988 32.1835 53.9362 31.8036 53.8874C31.4238 53.8386 31.0592 53.7048 30.736 53.4955C30.454 53.287 30.2281 53.0094 30.0791 52.6883C29.9301 52.3673 29.8628 52.0131 29.8834 51.6586V51.0762C29.8701 50.7233 29.9407 50.3724 30.0892 50.0533C30.2376 49.7342 30.4595 49.4565 30.736 49.2437ZM32.2433 52.0618C32.3449 52.1212 32.4575 52.1587 32.5739 52.1718C32.6904 52.1849 32.8082 52.1734 32.9201 52.138C33.19 52.0651 33.4311 51.9085 33.61 51.69C33.7874 51.5004 33.8865 51.2485 33.8869 50.9866V50.4444C33.8972 50.3381 33.8774 50.2309 33.8299 50.1357C33.7824 50.0404 33.7092 49.961 33.6188 49.9068C33.4066 49.8066 33.1653 49.7906 32.9421 49.862C32.6791 49.9232 32.4375 50.0564 32.2433 50.2473C32.1558 50.3364 32.0868 50.4427 32.0408 50.5598C31.9947 50.6768 31.9724 50.8022 31.9752 50.9283V51.4704C31.9635 51.5845 31.9822 51.6997 32.0294 51.8038C32.0766 51.9079 32.1505 51.997 32.2433 52.0618ZM37.4597 46.7974C37.6516 46.5333 37.914 46.3311 38.2156 46.215C38.3337 46.1577 38.4628 46.1279 38.5935 46.1279C38.7243 46.1279 38.8534 46.1577 38.9715 46.215C39.0808 46.2914 39.1674 46.3971 39.2217 46.5204C39.276 46.6437 39.2958 46.7799 39.2791 46.9139V51.5645C38.4309 51.8647 38.0047 52.0394 37.1521 52.3799V47.7294C37.1505 47.3925 37.2587 47.0647 37.4597 46.7974Z" fill="white"/>
<path d="M13.6233 65.0771C13.6189 64.7293 13.7357 64.3911 13.9529 64.1228C14.1669 63.8457 14.451 63.6335 14.7747 63.509C14.9019 63.4509 15.0396 63.4209 15.179 63.4209C15.3184 63.4209 15.4561 63.4509 15.5833 63.509C15.7019 63.577 15.7981 63.6792 15.8599 63.8027C15.9216 63.9263 15.9462 64.0657 15.9305 64.2035V64.8262C17.5047 64.388 19.1724 64.449 20.7118 65.001V64.9651C20.7118 64.6112 20.8129 64.1407 21.0107 64.0422C21.263 63.9383 21.545 63.9383 21.7973 64.0422C22.0998 64.1377 22.3725 64.3122 22.5883 64.5485C22.6971 64.6638 22.7823 64.8 22.8389 64.9493C22.8954 65.0985 22.9223 65.2577 22.9179 65.4176V70.2295C19.7758 69.311 18.3431 68.5494 15.1175 69.6112C14.8159 69.7299 14.4992 69.8038 14.177 69.8308C14.0844 69.8378 13.9919 69.8146 13.913 69.7647C13.834 69.7148 13.7726 69.6407 13.7376 69.553C13.64 69.2653 13.5996 68.9607 13.6189 68.6569L13.6233 65.0771ZM16.0184 67.4293C16.0604 67.4525 16.1066 67.4668 16.1541 67.4715C16.2017 67.4761 16.2497 67.4709 16.2952 67.4562C17.763 67.1212 19.293 67.2065 20.7162 67.7026V66.7573C19.1771 66.211 17.512 66.1517 15.9393 66.587V67.2053C15.9373 67.2465 15.9438 67.2876 15.9581 67.3262C15.9725 67.3647 15.9945 67.3998 16.0228 67.4293H16.0184Z" fill="white"/>
<path d="M26.0865 68.1009C26.3838 67.608 26.5264 67.0343 26.4952 66.4566V66.0354C26.4875 65.9073 26.5131 65.7793 26.5695 65.6645C26.6258 65.5496 26.7108 65.4519 26.816 65.3813C27.044 65.2495 27.3126 65.2111 27.5674 65.2738C27.8509 65.3202 28.1134 65.4548 28.3189 65.6591C28.4172 65.7584 28.4945 65.8773 28.5459 66.0083C28.5973 66.1393 28.6218 66.2797 28.6178 66.4207V66.8195C28.617 67.0817 28.5993 67.3436 28.565 67.6035C29.2745 67.6838 29.9293 68.0304 30.402 68.5758C30.8195 69.1134 31.0128 69.9199 30.9777 71.0175C30.3048 71.1726 29.6143 71.2329 28.9254 71.1968C28.9312 71.1013 28.9312 71.0055 28.9254 70.91C28.9392 70.5377 28.8606 70.1678 28.6969 69.8347C28.5458 69.5659 28.3083 69.3586 28.0245 69.2478C27.8188 69.6196 27.5389 69.9432 27.2027 70.1976C26.9034 70.4287 26.5609 70.5949 26.1963 70.686C25.871 70.7626 25.5328 70.7626 25.2075 70.686C24.937 70.627 24.6931 70.4791 24.5132 70.2649C24.3316 70.0482 24.236 69.7701 24.2451 69.4853C24.2363 69.3052 24.2962 69.1286 24.4121 68.9924C24.5431 68.8625 24.7136 68.7819 24.8955 68.7639C25.3627 68.7114 25.7906 68.4732 26.0865 68.1009ZM31.883 65.0811C32.099 64.8785 32.3553 64.7257 32.6344 64.6331C32.8703 64.5112 33.1386 64.4703 33.3991 64.5166C33.4989 64.5475 33.5846 64.6137 33.641 64.7031C33.6973 64.7926 33.7206 64.8996 33.7067 65.0049V66.3087L34.0319 66.1519C34.3308 66.0085 34.5461 65.9682 34.6779 66.0399C34.7449 66.0853 34.7983 66.1486 34.8324 66.2229C34.8665 66.2972 34.88 66.3795 34.8713 66.461C34.8654 66.6899 34.7953 66.9123 34.6691 67.1017C34.5113 67.3476 34.2847 67.5396 34.0187 67.6528C33.8913 67.72 33.8254 67.7514 33.6935 67.8096V70.1484C33.0193 70.5167 32.3113 70.8168 31.5797 71.0444V65.8024C31.5791 65.6674 31.6057 65.5338 31.6579 65.4097C31.71 65.2856 31.7867 65.1738 31.883 65.0811Z" fill="white"/>
<path d="M41.4413 57.1107C40.7162 55.2514 38.7562 54.2522 36.6687 54.4583C36.1043 54.5094 35.5505 54.6453 35.0251 54.8616C34.8493 54.9512 34.6779 55.0273 34.5066 55.108C25.2119 59.4494 18.8749 50.7531 9.10566 55.7935C8.83731 55.8807 8.60181 56.05 8.43119 56.2785C8.26057 56.507 8.16309 56.7834 8.15202 57.0704C8.14134 57.1928 8.16075 57.3159 8.2085 57.4288C8.25624 57.5416 8.33082 57.6405 8.42548 57.7165C8.52015 57.7926 8.63191 57.8434 8.75067 57.8643C8.86943 57.8853 8.99143 57.8757 9.10566 57.8365C14.41 55.099 18.7035 56.4118 23.0102 57.4915V59.4136C23.0507 59.6833 23.1708 59.9341 23.3545 60.1326C23.5382 60.331 23.7768 60.4678 24.0386 60.5247C24.1491 60.5732 24.2695 60.5933 24.3894 60.5831C24.5093 60.573 24.6249 60.533 24.726 60.4666C24.8272 60.4002 24.9108 60.3095 24.9694 60.2024C25.0281 60.0954 25.0601 59.9753 25.0625 59.8527V57.9664C27.0518 58.4395 29.1107 58.5261 31.1315 58.2218H31.1886C31.4025 58.183 31.6178 58.1382 31.8346 58.0874C33.0875 57.7584 34.3095 57.3176 35.4866 56.7702C35.5525 56.7343 35.6184 56.694 35.6887 56.6627C36.1702 56.4562 36.6869 56.3481 37.2092 56.3446C38.3431 56.3446 39.3362 56.8912 39.7054 57.841C40.2415 59.1851 39.3055 60.8921 37.6223 61.6045C36.8421 61.9519 35.968 62.0136 35.1482 61.7792C33.7814 61.4611 32.2697 59.8303 31.7951 60.3007C31.571 60.5337 31.7248 60.8652 31.883 61.1609C32.2794 61.9629 32.8849 62.6381 33.633 63.1123C34.3811 63.5865 35.2429 63.8415 36.1238 63.8491C36.878 63.8491 37.6248 63.6968 38.3211 63.4011C40.971 62.2765 42.3641 59.4629 41.4413 57.1107Z" fill="white"/>
<path d="M35.7458 71.4297C35.6887 71.1743 35.4338 71.2102 35.258 71.3222C35.0032 71.4789 34.7607 71.6557 34.5329 71.8509C27.0137 78.3698 25.1328 69.539 13.7508 71.3222C13.0652 71.4387 12.4324 72.039 12.4324 72.5588C12.4328 72.6795 12.4609 72.7984 12.5143 72.9061C12.5678 73.0138 12.6452 73.1073 12.7404 73.1791C12.8356 73.2509 12.9459 73.299 13.0626 73.3197C13.1792 73.3403 13.299 73.3329 13.4124 73.298C14.7845 73.0277 16.1813 72.909 17.5785 72.9441V74.7586C17.5785 75.0176 17.6794 75.2661 17.8591 75.4492C18.0387 75.6324 18.2824 75.7353 18.5365 75.7353C18.7906 75.7353 19.0343 75.6324 19.2139 75.4492C19.3936 75.2661 19.4945 75.0176 19.4945 74.7586V73.1546C21.1527 73.4742 22.7571 74.0355 24.2583 74.8213C24.6406 75.014 25.0317 75.1977 25.4273 75.359C25.9702 75.5858 26.5282 75.7729 27.0972 75.919C27.594 76.0508 28.1014 76.1363 28.6134 76.1744C29.0799 76.2162 29.5493 76.2132 30.0152 76.1654C30.4629 76.1118 30.9044 76.0143 31.3336 75.8742C31.7656 75.7356 32.1859 75.5618 32.5905 75.3545C33.0207 75.1355 33.4375 74.8901 33.8386 74.6197C34.1371 74.4147 34.4166 74.1823 34.6735 73.9253C34.7439 73.8625 34.8098 73.7953 34.8713 73.7326C35.3071 73.3005 35.6121 72.7501 35.7502 72.1466C35.8014 71.9103 35.7999 71.6653 35.7458 71.4297Z" fill="white"/>
<path d="M25.8184 19.5255H23.1816V12.1867C23.1816 10.1392 26.0074 8.64276 27.2642 8.07824L36.7478 3.17676L37.9387 5.57373L28.3541 10.529C27.2334 11.0308 26.0293 11.8731 25.8184 12.2629V19.5255Z" fill="#EC6351"/>
</g>
<defs>
<clipPath id="clip0_607_85">
<rect width="49" height="91" fill="white"/>
</clipPath>
</defs>
</svg>
