<svg width="630" height="682" viewBox="0 0 630 682" fill="none" xmlns="http://www.w3.org/2000/svg">
<path d="M172.376 446.888C179.545 437.102 182.328 424.856 185.025 413.006C186.195 407.85 187.404 402.519 188.962 397.417C194.573 379.025 204.068 362.438 213.244 346.392C223.769 328 234.651 308.984 239.325 287.576C240.1 283.958 240.1 279.663 240.1 275.513C240.053 266.275 240.014 256.725 248.873 253.709C250.54 253.138 253.833 253.206 259.073 253.366C263.173 253.488 270.04 253.694 271.28 252.825C274.256 250.739 275.155 246.657 275.721 242.925C276.729 235.72 276.898 228.425 276.225 221.182C275.992 218.677 275.558 216.164 273.961 214.709C273.19 214.088 272.334 213.576 271.419 213.186C270.033 212.607 268.775 211.769 267.715 210.718C265.118 207.862 265.63 203.765 266.467 200.133C275.629 160.681 288.898 122.261 306.064 85.4783C308.296 80.7033 310.567 76.0882 313.768 72.1128C315.664 69.8556 317.709 67.7237 319.891 65.7309C321.239 64.4362 322.642 63.0958 323.921 61.725C329.343 55.873 333.241 48.8178 335.283 41.1626C327.53 38.4237 319.363 36.9871 311.125 36.9131C275.295 36.9131 248.052 66.698 217.677 85.3793C190.853 101.875 157.937 111.547 139.529 136.831C122.478 160.211 122.238 191.146 122.362 219.903C122.571 265.787 122.091 311.786 116.758 357.374C113.178 387.951 107.404 418.589 109.613 449.295C110.217 457.726 111.411 466.24 112.627 474.762C122.331 466.819 133.213 464.1 143.746 461.511C154.999 458.723 165.633 456.096 172.376 446.888Z" fill="#7ABFFF"/>
<path d="M302.522 154.568C305.506 155.391 308.598 156.243 311.606 156.807C325.076 159.335 340.375 156.693 357.078 148.963C364.193 145.665 372.958 140.852 377.632 132.802C378.05 132.041 378.407 131.333 378.841 130.518C379.337 129.573 379.841 128.591 380.391 127.631C381.48 125.919 382.681 124.278 383.987 122.719C388.948 116.535 394.063 110.138 399.543 104.167C407.409 95.5769 416.167 87.6566 424.639 79.9952L430.529 74.6642C426.027 76.2964 421.201 76.8778 416.431 76.3625C387.638 72.9964 364.727 52.1294 338.151 42.1681C335.969 50.2012 331.857 57.6027 326.161 63.751C324.82 65.1903 323.386 66.5611 322.007 67.8787C319.923 69.782 317.968 71.8172 316.155 73.9712C313.156 77.6877 311.071 81.9448 308.839 86.7199C298.987 107.822 290.421 129.481 283.185 151.583C289.788 151.057 296.252 152.839 302.522 154.568Z" fill="#86C4FF"/>
<path d="M626.663 148.102C614.083 119.802 583.632 100.123 552.204 99.9633C539.508 99.9023 525.178 102.248 515.497 94.2058C511.258 90.6721 508.677 85.6382 505.422 81.2591C495.703 68.2211 478.636 62.0219 462.531 63.0424C454.648 63.545 448.13 66.6675 441.767 69.7899L427.297 82.8127C418.888 90.4284 410.199 98.2802 402.449 106.734C397.07 112.621 391.978 118.964 387.064 125.095C385.863 126.531 384.755 128.039 383.747 129.611C383.235 130.449 382.778 131.332 382.298 132.261C381.895 133.023 381.468 133.876 381.003 134.683C377.19 141.248 371.121 145.817 365.154 149.153L365.533 162.1L392.009 164.834C396.659 165.313 401.992 165.862 406.572 168.405C414.888 173.028 418.244 182.449 420.965 191.702C421.678 194.131 422.391 196.271 423.879 197.475C425.367 198.678 427.514 198.998 429.645 199.173C433.735 199.429 437.836 199.472 441.93 199.302C444.968 199.226 448.13 199.15 451.23 199.249C464.941 199.691 478.163 203.491 490.959 207.169C501.477 210.216 511.149 213.262 519.202 218.113C542.994 192.22 575.44 175.561 610.658 171.155C616.959 170.393 624.244 169.51 627.585 164.209C630.6 159.427 628.949 153.22 626.663 148.102Z" fill="#9DD0FF"/>
<path d="M308.234 266.48L346.405 268.224C352.435 268.498 358.674 268.78 364.425 267.074C375.02 263.921 382.445 254.333 387.103 247.388C388.475 245.347 389.831 243.214 391.141 241.15C395.52 234.258 400.046 227.122 406.332 221.51C407.27 220.672 408.247 219.865 409.192 219.088C411.207 217.546 413.063 215.814 414.734 213.917C418.221 209.667 419.609 204.016 420.399 199.447C418.609 197.429 417.826 194.786 417.237 192.776C414.757 184.238 411.703 175.617 404.681 171.711C400.806 169.555 395.923 169.053 391.622 168.611L361.775 165.565L361.333 151.148C360.449 151.582 359.581 151.994 358.736 152.39C345.561 158.482 333.23 161.528 321.821 161.528C318.149 161.537 314.485 161.206 310.877 160.538C307.707 159.937 304.537 159.069 301.476 158.254C294.71 156.38 288.3 154.621 281.937 155.619C277.168 170.53 273.014 185.599 269.474 200.825C268.777 203.872 268.358 206.918 270.009 208.7C270.817 209.457 271.761 210.061 272.791 210.482C273.973 210.999 275.072 211.681 276.054 212.508C278.418 214.655 279.007 217.839 279.302 220.931C279.995 228.407 279.818 235.937 278.775 243.374C278.193 247.479 277.023 252.513 273.063 255.323C272.531 255.681 271.937 255.939 271.311 256.085C277.682 259.702 284.293 263.076 291.462 264.744C296.88 265.962 302.646 266.229 308.234 266.48Z" fill="#91CAFF"/>
<path d="M559.226 345.539C547.507 338.076 528.27 340.886 522.543 328.366C518.791 320.156 523.953 310.987 526.953 302.472C532.758 286.007 529.782 266.892 519.566 252.696C514.477 256.124 509.953 260.297 506.15 265.072C503.097 268.818 500.252 272.878 497.509 276.815C493.37 282.748 489.084 288.886 483.86 294.209C477.869 300.302 470.777 305.237 463.926 309.989C461.081 311.961 458.144 313.995 454.726 315.32C448.309 317.749 441.821 317.117 435.404 315.396C430.909 319.79 428.088 325.434 425.119 331.389C422.244 337.192 419.26 343.186 414.586 347.976C409.331 353.391 402.356 356.772 396.156 359.506L395.946 359.597C391.885 361.41 387.692 363.283 385.413 366.65C384.26 368.598 383.411 370.706 382.894 372.902L373.4 405.421C383.251 407.98 393.799 407.942 403.79 407.66C407.316 407.561 414.64 407.355 418.097 412.329C418.778 413.324 419.248 414.444 419.477 415.622C419.706 416.8 419.69 418.011 419.43 419.183C418.5 423.805 414.733 427.689 411.517 429.784C407.814 432.193 403.704 433.936 399.38 434.932L398.752 435.069C396.962 435.473 395.28 435.831 394.373 436.874C393.839 437.591 393.474 438.416 393.303 439.288C390.474 450.293 396.807 461.884 403.379 471.769C405.208 474.526 406.921 476.917 409.324 478.235C411.556 479.461 414.323 479.712 417.004 479.956L441.434 482.187C447.634 482.758 454.61 483.398 460.678 486.581C466.879 489.849 471.289 495.332 475.117 500.511C479.002 499.391 482.999 498.691 487.038 498.424C502.81 497.152 519.055 499.703 534.316 495.507C549.576 491.311 563.822 476.651 559.582 461.671C558.11 456.492 554.661 452.075 552.607 447.079C545.763 430.164 556.265 411.864 563.922 395.292C571.58 378.72 574.773 355.439 559.226 345.539Z" fill="#D9EBFF"/>
<path d="M234.263 327.071C235.471 328.083 236.55 329.234 237.48 330.498C237.984 331.13 238.456 331.732 238.968 332.28C243.068 336.682 249.431 338.106 256.717 339.393L289.594 345.204C297.345 346.575 306.924 348.25 314.899 344.983C317.547 343.788 320.072 342.347 322.441 340.68C326.13 338.266 329.935 335.768 334.516 334.877C339.096 333.986 343.553 334.877 347.885 335.707C350.908 336.417 354.001 336.8 357.109 336.849C368.463 336.575 377.322 326.515 380.197 316.721C380.345 316.226 380.484 315.716 380.624 315.198C381.592 311.695 382.693 307.727 386.049 305.381C387.724 304.327 389.603 303.624 391.567 303.318C398.182 301.993 405.008 302.06 411.594 303.516C416.324 304.706 420.964 306.215 425.483 308.032C435.264 311.672 444.503 315.114 453.331 311.771C456.307 310.652 459.043 308.725 461.686 306.92C468.398 302.267 475.334 297.461 481.062 291.605C486.061 286.51 490.254 280.501 494.308 274.698C497.098 270.715 500.012 266.549 503.112 262.696C507.115 257.682 511.865 253.292 517.202 249.673C516.815 249.208 516.427 248.759 516.009 248.309C512.986 244.943 509.359 241.615 508.685 237.175C507.91 232.278 511.064 227.671 514.226 223.81C515.001 222.865 515.776 221.931 516.551 221.007C508.956 216.583 499.787 213.673 489.805 210.802C477.249 207.192 464.228 203.453 451.052 203.034C448.045 202.935 444.96 203.034 441.969 203.08C437.755 203.254 433.536 203.206 429.328 202.935C427.471 202.833 425.642 202.453 423.902 201.808C422.972 206.515 421.345 211.929 417.764 216.278C415.936 218.37 413.903 220.281 411.695 221.982C410.781 222.744 409.835 223.505 408.952 224.267C403.061 229.529 398.682 236.452 394.443 243.108C393.117 245.187 391.753 247.342 390.35 249.429C385.359 256.862 377.361 267.151 365.549 270.654C361.514 271.758 357.335 272.271 353.148 272.177C350.769 272.177 348.428 272.07 346.173 271.971L307.994 270.235C302.235 269.969 296.283 269.702 290.478 268.339C281.123 266.153 272.876 261.363 264.901 256.732L265.048 256.473C263.266 256.473 261.22 256.428 258.91 256.359C255.213 256.245 251.028 256.116 249.819 256.534C243.053 258.819 243.091 266.534 243.13 275.444C243.13 279.755 243.13 284.217 242.301 288.162C239.425 301.322 234.287 313.53 228.35 325.22C230.491 325.057 232.613 325.721 234.263 327.071Z" fill="#A9D5FF"/>
<path d="M150.264 510.609C153.364 511.256 156.821 512.132 159.564 514.417C162.386 516.846 163.765 520.342 164.835 523.761C165.742 526.686 166.548 529.709 167.323 532.626C169.764 541.871 172.081 550.607 177.817 557.552C179.236 559.45 181.121 560.964 183.296 561.954C187.854 563.774 193.054 561.39 195.953 558.405C199.665 554.597 201.332 549.228 202.37 544.986C203.92 538.589 204.734 531.857 205.509 525.353C206.525 516.778 207.571 507.913 210.392 499.498C212.547 493.055 215.717 486.97 218.778 481.083C220.088 478.577 221.437 475.988 222.653 473.422C233.259 451.472 238.169 427.283 236.945 403.015C236.852 401.103 236.55 395.262 240.96 393.487C242.407 393.005 243.957 392.905 245.455 393.198C257.995 394.767 270.544 397.31 282.658 399.77C291.338 401.529 300.313 403.342 309.18 404.781C333.408 408.719 352.683 408.841 369.455 405.139L379.19 371.813C379.81 369.236 380.83 366.768 382.212 364.494C385.103 360.222 390.025 358.021 394.365 356.117L394.605 356.011C400.418 353.414 407.006 350.238 411.819 345.311C416.074 340.947 418.795 335.479 421.67 329.691C424.36 324.276 427.134 318.694 431.296 314.094C428.894 313.332 426.514 312.411 424.143 311.535C419.787 309.816 415.318 308.391 410.765 307.27C404.714 305.932 398.444 305.867 392.366 307.08C390.927 307.293 389.546 307.788 388.304 308.534C386.064 310.057 385.243 313.104 384.367 316.234C384.22 316.767 384.073 317.3 383.918 317.818C380.647 328.944 370.424 340.376 357.202 340.665C353.808 340.63 350.428 340.224 347.126 339.454C342.98 338.647 339.066 337.885 335.26 338.624C331.455 339.363 328.106 341.548 324.58 343.856C322.007 345.661 319.264 347.219 316.388 348.509C312.472 350.039 308.285 350.784 304.072 350.702C298.763 350.702 293.516 349.781 288.897 348.966L256.027 343.148C249.827 342.059 241.417 340.566 236.1 334.854C235.488 334.199 234.946 333.514 234.411 332.844C233.663 331.82 232.8 330.882 231.838 330.049C230.691 329.15 228.923 328.655 227.962 329.378L226.963 328.061C223.436 334.793 219.677 341.373 215.965 347.862C206.866 363.763 197.464 380.206 191.938 398.27C190.388 403.266 189.218 408.544 188.063 413.646C185.304 425.831 182.452 438.359 174.887 448.678C167.478 458.784 156.286 461.549 144.49 464.473C134.019 467.062 123.191 469.736 113.844 477.724L113.124 478.364C114.55 488.447 115.883 498.523 116.224 508.446C127.617 507.554 139.082 508.283 150.264 510.609Z" fill="#B5DAFF"/>
<path d="M458.872 489.963C453.509 487.137 446.913 486.536 441.093 486.003L416.671 483.771C413.734 483.505 410.401 483.2 407.456 481.578C404.286 479.842 402.193 476.94 400.155 473.871C393.125 463.293 386.374 450.803 389.568 438.382C389.879 436.93 390.529 435.569 391.466 434.406C393.202 432.434 395.706 431.87 397.915 431.36L398.519 431.223C402.387 430.331 406.061 428.768 409.37 426.608C412.54 424.544 415.059 421.277 415.625 418.452C415.781 417.767 415.793 417.059 415.66 416.37C415.527 415.681 415.251 415.026 414.85 414.446C412.881 411.59 408.401 411.323 403.852 411.445C393.117 411.742 381.747 411.765 370.997 408.696C353.543 412.679 333.578 412.641 308.474 408.566C299.53 407.112 290.524 405.284 281.805 403.517C269.745 401.073 257.267 398.552 244.882 396.998C244.046 396.802 243.175 396.802 242.339 396.998C241.099 397.501 240.565 399.45 240.735 402.809C241.988 427.708 236.948 452.525 226.063 475.044C224.8 477.656 223.436 480.276 222.126 482.804C219.127 488.554 216.027 494.509 213.965 500.671C211.268 508.72 210.245 517.425 209.245 525.802C208.687 530.539 208.106 535.39 207.23 540.188C211.524 532.801 216.267 527.661 221.901 524.264C229.877 519.466 242.146 518.217 250.16 525.124C251.926 526.74 253.523 528.526 254.926 530.455C255.624 531.347 256.283 532.192 256.98 533.014C261.453 538.207 267.466 541.895 274.178 543.562C276.905 544.172 279.667 544.62 282.448 544.902C286.951 545.451 291.609 546.014 295.934 547.949C300.011 549.746 303.367 552.518 306.614 555.222C314.163 561.474 322.727 568.572 328.052 577.772C332.896 586.149 334.849 595.775 336.577 605.744L337.012 608.303C338.283 615.652 339.569 623.116 341.453 630.389C343.81 629.824 346.195 629.377 348.598 629.048C367.2 626.581 386.824 631.82 404.704 626.078C420.624 620.96 432.753 607.602 439.698 592.622C446.642 577.642 448.998 561.055 450.665 544.644C452.122 530.029 454.075 513.419 466.165 504.791C467.776 503.646 469.507 502.673 471.327 501.889C467.94 497.342 464.011 492.674 458.872 489.963Z" fill="#CDE5FF"/>
<path d="M332.826 606.407C331.09 596.423 329.292 587.52 324.75 579.676C319.767 571.07 311.846 564.505 304.188 558.154C301.142 555.633 297.988 553.021 294.415 551.444C290.625 549.777 286.455 549.274 282.014 548.733C279.073 548.432 276.154 547.956 273.272 547.309C265.773 545.444 259.055 541.322 254.058 535.52C253.283 534.629 252.578 533.708 251.888 532.816C250.639 531.082 249.216 529.474 247.641 528.019C241.037 522.322 230.729 523.449 223.963 527.546C217.6 531.354 212.407 537.82 207.641 547.812L207.145 548.855C205.718 551.901 204.246 555.001 201.789 557.545L201.587 557.362C200.754 558.7 199.78 559.948 198.681 561.086C195.782 564.071 191.31 566.455 186.629 566.455C184.964 566.46 183.313 566.147 181.769 565.534C179.305 564.551 177.011 562.739 174.74 559.997C168.47 552.381 165.943 542.862 163.502 533.631C162.727 530.753 161.951 527.767 161.06 524.927C160.014 521.599 158.921 519.032 156.945 517.311C154.968 515.59 152.015 514.874 149.427 514.333C138.522 512.051 127.336 511.343 116.224 512.231C116.224 522.992 114.898 533.555 110.953 543.737C105.908 556.745 96.9017 568.108 92.6079 581.336C86.0355 601.746 92.1662 625.606 107.838 640.441C112.178 644.546 117.502 648.126 123.509 648.499C127.873 648.773 132.128 647.341 136.406 646.465C173.12 638.941 205.184 671.491 241.735 679.716C245.998 680.675 250.415 681.3 254.732 680.599C260.367 679.685 265.366 676.593 270.063 673.387C292.067 658.361 312.629 638.69 337.771 631.364C335.857 623.984 334.547 616.414 333.26 608.958L332.826 606.407Z" fill="#C1E0FF"/>
<rect x="517" y="124" width="83" height="29" rx="14.5" fill="#736463"/>
<path d="M541.47 131.43H543.465V145.365H541.47V131.43ZM532.785 140.4H533.985C534.955 140.4 535.805 140.39 536.535 140.37C537.275 140.35 537.95 140.31 538.56 140.25C539.18 140.19 539.8 140.1 540.42 139.98L540.6 141.63C539.97 141.75 539.335 141.845 538.695 141.915C538.065 141.975 537.37 142.015 536.61 142.035C535.85 142.045 534.975 142.05 533.985 142.05H532.785V140.4ZM532.785 132.66H539.475V134.28H534.765V141.03H532.785V132.66ZM545.849 132.705H547.724V135.885H549.524V132.705H551.354V142.035H545.849V132.705ZM547.724 137.445V140.445H549.524V137.445H547.724ZM555.479 131.43H557.384V145.32H555.479V131.43ZM551.039 136.515H553.334V138.12H551.039V136.515ZM552.659 131.67H554.519V144.72H552.659V131.67ZM558.973 142.14H571.558V143.775H558.973V142.14ZM560.398 132.36H570.133V137.01H562.393V139.335H560.413V135.45H568.153V133.965H560.398V132.36ZM560.413 138.555H570.448V140.145H560.413V138.555ZM572.486 142.08H585.071V143.7H572.486V142.08ZM577.706 138.99H579.701V142.515H577.706V138.99ZM577.646 132.21H579.386V133.215C579.386 133.805 579.301 134.375 579.131 134.925C578.971 135.475 578.726 135.995 578.396 136.485C578.076 136.975 577.681 137.42 577.211 137.82C576.741 138.21 576.201 138.545 575.591 138.825C574.991 139.105 574.326 139.31 573.596 139.44L572.771 137.775C573.411 137.675 573.986 137.515 574.496 137.295C575.006 137.075 575.456 136.815 575.846 136.515C576.246 136.205 576.576 135.87 576.836 135.51C577.106 135.14 577.306 134.76 577.436 134.37C577.576 133.98 577.646 133.595 577.646 133.215V132.21ZM578.021 132.21H579.776V133.215C579.776 133.605 579.841 133.995 579.971 134.385C580.111 134.775 580.311 135.15 580.571 135.51C580.841 135.87 581.171 136.205 581.561 136.515C581.951 136.815 582.401 137.075 582.911 137.295C583.431 137.515 584.006 137.675 584.636 137.775L583.811 139.44C583.081 139.3 582.416 139.095 581.816 138.825C581.216 138.545 580.681 138.21 580.211 137.82C579.741 137.43 579.341 136.995 579.011 136.515C578.691 136.025 578.446 135.505 578.276 134.955C578.106 134.395 578.021 133.815 578.021 133.215V132.21Z" fill="white"/>
<rect x="280" y="291" width="83" height="29" rx="14.5" fill="#736463"/>
<path d="M300.06 299.765H302.01C302.01 300.835 301.92 301.86 301.74 302.84C301.57 303.82 301.265 304.755 300.825 305.645C300.385 306.525 299.765 307.35 298.965 308.12C298.175 308.88 297.155 309.585 295.905 310.235L294.81 308.72C295.84 308.19 296.69 307.62 297.36 307.01C298.04 306.4 298.575 305.745 298.965 305.045C299.365 304.335 299.645 303.565 299.805 302.735C299.975 301.905 300.06 301 300.06 300.02V299.765ZM295.65 299.765H301.275V301.355H295.65V299.765ZM300.255 303.17V304.7L295.155 305.15L294.9 303.485L300.255 303.17ZM304.56 298.445H306.555V312.335H304.56V298.445ZM301.98 303.755H305.625V305.375H301.98V303.755ZM318.029 298.445H320.024V312.335H318.029V298.445ZM308.789 299.72H316.589V301.295H308.789V299.72ZM308.624 309.155L308.429 307.535C309.269 307.535 310.179 307.53 311.159 307.52C312.139 307.5 313.139 307.465 314.159 307.415C315.189 307.355 316.179 307.265 317.129 307.145L317.249 308.585C316.279 308.745 315.284 308.87 314.264 308.96C313.254 309.04 312.269 309.09 311.309 309.11C310.349 309.13 309.454 309.145 308.624 309.155ZM309.989 300.965H311.924V307.97H309.989V300.965ZM313.454 300.965H315.389V307.97H313.454V300.965ZM322.723 304.505H323.923C324.873 304.505 325.708 304.5 326.428 304.49C327.158 304.47 327.833 304.435 328.453 304.385C329.083 304.335 329.718 304.26 330.358 304.16L330.553 305.705C329.893 305.805 329.238 305.885 328.588 305.945C327.948 305.995 327.253 306.03 326.503 306.05C325.753 306.06 324.893 306.065 323.923 306.065H322.723V304.505ZM322.723 299.225H329.413V300.8H324.703V305.135H322.723V299.225ZM324.088 301.85H329.008V303.41H324.088V301.85ZM331.513 298.445H333.508V306.695H331.513V298.445ZM324.268 307.265H333.508V312.185H324.268V307.265ZM331.558 308.825H326.233V310.61H331.558V308.825ZM345.146 298.415H347.141V312.35H345.146V298.415ZM341.996 303.305H345.716V304.91H341.996V303.305ZM335.996 299.51H337.976V302.885H340.706V299.51H342.671V309.08H335.996V299.51ZM337.976 304.43V307.49H340.706V304.43H337.976Z" fill="white"/>
<rect x="459" y="344" width="137" height="29" rx="14.5" fill="#736463"/>
<path d="M483.472 351.415H485.482V365.35H483.472V351.415ZM474.667 360.49H475.897C476.717 360.49 477.492 360.48 478.222 360.46C478.952 360.43 479.667 360.385 480.367 360.325C481.067 360.255 481.782 360.155 482.512 360.025L482.722 361.63C481.602 361.83 480.497 361.965 479.407 362.035C478.327 362.095 477.157 362.125 475.897 362.125H474.667V360.49ZM474.637 352.6H481.192V357.985H476.692V361.105H474.667V356.41H479.167V354.205H474.637V352.6ZM490.791 352.555H492.426V353.395C492.426 354.215 492.281 354.99 491.991 355.72C491.701 356.45 491.261 357.085 490.671 357.625C490.091 358.155 489.346 358.55 488.436 358.81L487.476 357.265C488.056 357.105 488.551 356.89 488.961 356.62C489.381 356.35 489.726 356.04 489.996 355.69C490.266 355.34 490.466 354.975 490.596 354.595C490.726 354.205 490.791 353.805 490.791 353.395V352.555ZM491.211 352.555H492.831V353.395C492.831 353.775 492.896 354.15 493.026 354.52C493.156 354.88 493.351 355.225 493.611 355.555C493.881 355.875 494.221 356.165 494.631 356.425C495.041 356.685 495.531 356.89 496.101 357.04L495.126 358.585C494.256 358.345 493.526 357.965 492.936 357.445C492.356 356.925 491.921 356.32 491.631 355.63C491.351 354.93 491.211 354.185 491.211 353.395V352.555ZM488.016 352.12H495.576V353.68H488.016V352.12ZM489.726 359.32H499.041V360.775H491.706V364.36H489.726V359.32ZM489.726 363.685H499.296V365.185H489.726V363.685ZM491.061 361.54H498.891V362.89H491.061V361.54ZM496.971 351.445H498.966V358.72H496.971V351.445ZM506.06 352.765H508.01C508.01 353.835 507.92 354.86 507.74 355.84C507.57 356.82 507.265 357.755 506.825 358.645C506.385 359.525 505.765 360.35 504.965 361.12C504.175 361.88 503.155 362.585 501.905 363.235L500.81 361.72C501.84 361.19 502.69 360.62 503.36 360.01C504.04 359.4 504.575 358.745 504.965 358.045C505.365 357.335 505.645 356.565 505.805 355.735C505.975 354.905 506.06 354 506.06 353.02V352.765ZM501.65 352.765H507.275V354.355H501.65V352.765ZM506.255 356.17V357.7L501.155 358.15L500.9 356.485L506.255 356.17ZM510.56 351.445H512.555V365.335H510.56V351.445ZM507.98 356.755H511.625V358.375H507.98V356.755ZM524.029 351.445H526.024V365.335H524.029V351.445ZM514.789 352.72H522.589V354.295H514.789V352.72ZM514.624 362.155L514.429 360.535C515.269 360.535 516.179 360.53 517.159 360.52C518.139 360.5 519.139 360.465 520.159 360.415C521.189 360.355 522.179 360.265 523.129 360.145L523.249 361.585C522.279 361.745 521.284 361.87 520.264 361.96C519.254 362.04 518.269 362.09 517.309 362.11C516.349 362.13 515.454 362.145 514.624 362.155ZM515.989 353.965H517.924V360.97H515.989V353.965ZM519.454 353.965H521.389V360.97H519.454V353.965ZM527.973 362.185H540.558V363.805H527.973V362.185ZM533.253 359.545H535.233V362.83H533.253V359.545ZM529.398 352.33H539.133V356.965H531.393V359.29H529.413V355.405H537.153V353.92H529.398V352.33ZM529.413 358.51H539.448V360.1H529.413V358.51ZM546.646 352.24H548.371V353.245C548.371 353.845 548.286 354.43 548.116 355C547.956 355.56 547.716 356.09 547.396 356.59C547.076 357.09 546.681 357.545 546.211 357.955C545.751 358.355 545.221 358.7 544.621 358.99C544.021 359.28 543.361 359.495 542.641 359.635L541.786 357.97C542.406 357.86 542.971 357.695 543.481 357.475C544.001 357.245 544.456 356.97 544.846 356.65C545.236 356.33 545.566 355.985 545.836 355.615C546.106 355.235 546.306 354.845 546.436 354.445C546.576 354.035 546.646 353.635 546.646 353.245V352.24ZM547.036 352.24H548.776V353.245C548.776 353.645 548.841 354.05 548.971 354.46C549.111 354.87 549.311 355.265 549.571 355.645C549.841 356.015 550.171 356.355 550.561 356.665C550.951 356.975 551.401 357.245 551.911 357.475C552.421 357.695 552.996 357.86 553.636 357.97L552.781 359.635C552.061 359.495 551.401 359.28 550.801 358.99C550.201 358.7 549.666 358.355 549.196 357.955C548.736 357.555 548.341 357.105 548.011 356.605C547.691 356.105 547.446 355.57 547.276 355C547.116 354.43 547.036 353.845 547.036 353.245V352.24ZM541.486 362.005H554.071V363.64H541.486V362.005ZM564.66 351.415H566.655V365.35H564.66V351.415ZM562.275 356.32H564.9V357.94H562.275V356.32ZM555.615 360.61H556.74C557.51 360.61 558.22 360.6 558.87 360.58C559.53 360.56 560.17 360.525 560.79 360.475C561.41 360.425 562.045 360.355 562.695 360.265L562.89 361.84C562.22 361.95 561.56 362.03 560.91 362.08C560.27 362.13 559.61 362.165 558.93 362.185C558.25 362.205 557.52 362.215 556.74 362.215H555.615V360.61ZM555.615 352.585H562.05V354.205H557.61V361.105H555.615V352.585ZM557.145 356.455H561.585V358.015H557.145V356.455ZM573.674 352.24H575.399V353.245C575.399 353.845 575.314 354.43 575.144 355C574.984 355.56 574.744 356.09 574.424 356.59C574.104 357.09 573.709 357.545 573.239 357.955C572.779 358.355 572.249 358.7 571.649 358.99C571.049 359.28 570.389 359.495 569.669 359.635L568.814 357.97C569.434 357.86 569.999 357.695 570.509 357.475C571.029 357.245 571.484 356.97 571.874 356.65C572.264 356.33 572.594 355.985 572.864 355.615C573.134 355.235 573.334 354.845 573.464 354.445C573.604 354.035 573.674 353.635 573.674 353.245V352.24ZM574.064 352.24H575.804V353.245C575.804 353.645 575.869 354.05 575.999 354.46C576.139 354.87 576.339 355.265 576.599 355.645C576.869 356.015 577.199 356.355 577.589 356.665C577.979 356.975 578.429 357.245 578.939 357.475C579.449 357.695 580.024 357.86 580.664 357.97L579.809 359.635C579.089 359.495 578.429 359.28 577.829 358.99C577.229 358.7 576.694 358.355 576.224 357.955C575.764 357.555 575.369 357.105 575.039 356.605C574.719 356.105 574.474 355.57 574.304 355C574.144 354.43 574.064 353.845 574.064 353.245V352.24ZM568.514 362.005H581.099V363.64H568.514V362.005Z" fill="white"/>
<rect x="324" y="514" width="96" height="29" rx="14.5" fill="#736463"/>
<path d="M348.213 521.43H350.208V535.365H348.213V521.43ZM339.528 530.4H340.728C341.698 530.4 342.548 530.39 343.278 530.37C344.018 530.35 344.693 530.31 345.303 530.25C345.923 530.19 346.543 530.1 347.163 529.98L347.343 531.63C346.713 531.75 346.078 531.845 345.438 531.915C344.808 531.975 344.113 532.015 343.353 532.035C342.593 532.045 341.718 532.05 340.728 532.05H339.528V530.4ZM339.528 522.66H346.218V524.28H341.508V531.03H339.528V522.66ZM352.592 522.705H354.467V525.885H356.267V522.705H358.097V532.035H352.592V522.705ZM354.467 527.445V530.445H356.267V527.445H354.467ZM362.222 521.43H364.127V535.32H362.222V521.43ZM357.782 526.515H360.077V528.12H357.782V526.515ZM359.402 521.67H361.262V534.72H359.402V521.67ZM365.716 532.14H378.301V533.775H365.716V532.14ZM367.141 522.36H376.876V527.01H369.136V529.335H367.156V525.45H374.896V523.965H367.141V522.36ZM367.156 528.555H377.191V530.145H367.156V528.555ZM379.964 530.58H381.164C381.974 530.58 382.734 530.575 383.444 530.565C384.154 530.545 384.844 530.51 385.514 530.46C386.194 530.4 386.889 530.315 387.599 530.205L387.779 531.795C387.059 531.905 386.349 531.99 385.649 532.05C384.949 532.11 384.234 532.15 383.504 532.17C382.774 532.18 381.994 532.185 381.164 532.185H379.964V530.58ZM379.964 522.585H386.999V524.205H381.944V531.105H379.964V522.585ZM381.494 526.455H386.414V528.015H381.494V526.455ZM388.799 521.445H390.794V535.335H388.799V521.445ZM393.478 530.58H394.678C395.488 530.58 396.248 530.575 396.958 530.565C397.668 530.545 398.358 530.51 399.028 530.46C399.708 530.4 400.403 530.315 401.113 530.205L401.293 531.795C400.573 531.905 399.863 531.99 399.163 532.05C398.463 532.11 397.748 532.15 397.018 532.17C396.288 532.18 395.508 532.185 394.678 532.185H393.478V530.58ZM393.478 522.585H400.513V524.205H395.458V531.105H393.478V522.585ZM395.008 526.455H399.928V528.015H395.008V526.455ZM402.313 521.445H404.308V535.335H402.313V521.445Z" fill="white"/>
<rect x="495" y="453" width="83" height="29" rx="14.5" fill="#736463"/>
<path d="M515.195 461.765H517.13C517.13 462.845 517.045 463.875 516.875 464.855C516.715 465.835 516.415 466.765 515.975 467.645C515.535 468.525 514.91 469.35 514.1 470.12C513.29 470.89 512.235 471.605 510.935 472.265L509.87 470.735C510.95 470.195 511.835 469.62 512.525 469.01C513.225 468.39 513.765 467.73 514.145 467.03C514.535 466.32 514.805 465.55 514.955 464.72C515.115 463.89 515.195 462.99 515.195 462.02V461.765ZM510.74 461.765H516.365V463.355H510.74V461.765ZM515.24 465.17V466.7L510.26 467.18L510.005 465.485L515.24 465.17ZM518.81 460.415H520.82V474.305H518.81V460.415ZM520.31 465.74H522.755V467.375H520.31V465.74ZM533.614 460.445H535.504V474.335H533.614V460.445ZM529.534 465.5H531.394V467.24H529.534V465.5ZM530.854 460.7H532.714V473.675H530.854V460.7ZM523.549 462.005H529.879V463.595H523.549V462.005ZM523.534 471.185L523.324 469.55C523.754 469.55 524.249 469.55 524.809 469.55C525.369 469.54 525.954 469.525 526.564 469.505C527.174 469.475 527.779 469.44 528.379 469.4C528.989 469.35 529.559 469.29 530.089 469.22L530.209 470.66C529.499 470.82 528.734 470.94 527.914 471.02C527.094 471.09 526.299 471.135 525.529 471.155C524.769 471.175 524.104 471.185 523.534 471.185ZM524.404 463.01H526.204V469.985H524.404V463.01ZM527.209 463.01H528.994V469.985H527.209V463.01ZM543.663 462.47H547.203V464.06H543.663V462.47ZM543.663 465.335H547.263V466.91H543.663V465.335ZM537.543 461.255H539.523V463.175H542.163V461.255H544.128V468.11H537.543V461.255ZM539.523 464.72V466.52H542.163V464.72H539.523ZM539.118 469.34H548.598V474.335H546.588V470.93H539.118V469.34ZM546.588 460.445H548.598V468.725H546.588V460.445ZM555.766 464.36H557.746V467.015H555.766V464.36ZM552.046 463.625H561.571V465.185H552.046V463.625ZM552.046 460.895H561.451V462.47H554.026V464.465H552.046V460.895ZM550.471 466.055H563.041V467.63H550.471V466.055ZM551.911 468.35H561.511V471.935H553.906V473.15H551.926V470.555H559.546V469.835H551.911V468.35ZM551.926 472.73H561.886V474.23H551.926V472.73Z" fill="white"/>
<rect x="179" y="595" width="123" height="29" rx="14.5" fill="#736463"/>
<path d="M193.659 604.53H200.304V606.105H193.659V604.53ZM197.004 606.735C197.594 606.735 198.114 606.875 198.564 607.155C199.024 607.435 199.384 607.825 199.644 608.325C199.914 608.815 200.049 609.385 200.049 610.035C200.049 610.685 199.914 611.26 199.644 611.76C199.384 612.25 199.024 612.635 198.564 612.915C198.114 613.195 197.594 613.335 197.004 613.335C196.414 613.335 195.889 613.195 195.429 612.915C194.969 612.635 194.609 612.25 194.349 611.76C194.089 611.26 193.959 610.685 193.959 610.035C193.959 609.385 194.089 608.815 194.349 608.325C194.609 607.825 194.969 607.435 195.429 607.155C195.899 606.875 196.424 606.735 197.004 606.735ZM197.004 608.385C196.764 608.385 196.544 608.45 196.344 608.58C196.144 608.71 195.989 608.9 195.879 609.15C195.769 609.39 195.714 609.685 195.714 610.035C195.714 610.385 195.769 610.685 195.879 610.935C195.989 611.185 196.144 611.375 196.344 611.505C196.544 611.625 196.764 611.685 197.004 611.685C197.254 611.685 197.474 611.625 197.664 611.505C197.854 611.375 198.004 611.185 198.114 610.935C198.224 610.685 198.279 610.385 198.279 610.035C198.279 609.685 198.224 609.39 198.114 609.15C198.004 608.9 197.854 608.71 197.664 608.58C197.474 608.45 197.254 608.385 197.004 608.385ZM203.709 602.43H205.599V616.32H203.709V602.43ZM202.044 608.085H204.324V609.69H202.044V608.085ZM200.784 602.685H202.644V615.735H200.784V602.685ZM196.029 602.805H197.994V605.52H196.029V602.805ZM216.758 602.445H218.753V616.335H216.758V602.445ZM207.518 603.72H215.318V605.295H207.518V603.72ZM207.353 613.155L207.158 611.535C207.998 611.535 208.908 611.53 209.888 611.52C210.868 611.5 211.868 611.465 212.888 611.415C213.918 611.355 214.908 611.265 215.858 611.145L215.978 612.585C215.008 612.745 214.013 612.87 212.993 612.96C211.983 613.04 210.998 613.09 210.038 613.11C209.078 613.13 208.183 613.145 207.353 613.155ZM208.718 604.965H210.653V611.97H208.718V604.965ZM212.183 604.965H214.118V611.97H212.183V604.965ZM220.882 603.72H228.547V605.295H220.882V603.72ZM220.732 613.155L220.522 611.535C221.322 611.535 222.197 611.53 223.147 611.52C224.107 611.5 225.082 611.465 226.072 611.415C227.072 611.355 228.032 611.27 228.952 611.16L229.057 612.6C228.117 612.76 227.152 612.88 226.162 612.96C225.182 613.04 224.227 613.095 223.297 613.125C222.377 613.145 221.522 613.155 220.732 613.155ZM222.067 604.965H224.002V611.97H222.067V604.965ZM225.427 604.965H227.347V611.97H225.427V604.965ZM229.567 602.445H231.577V616.335H229.567V602.445ZM231.142 607.695H233.587V609.345H231.142V607.695ZM243.741 602.415H245.736V616.35H243.741V602.415ZM238.251 603.39C238.961 603.39 239.591 603.595 240.141 604.005C240.691 604.405 241.121 604.98 241.431 605.73C241.751 606.47 241.911 607.345 241.911 608.355C241.911 609.375 241.751 610.26 241.431 611.01C241.121 611.75 240.691 612.325 240.141 612.735C239.591 613.135 238.961 613.335 238.251 613.335C237.551 613.335 236.926 613.135 236.376 612.735C235.826 612.325 235.391 611.75 235.071 611.01C234.761 610.26 234.606 609.375 234.606 608.355C234.606 607.345 234.761 606.47 235.071 605.73C235.391 604.98 235.826 604.405 236.376 604.005C236.926 603.595 237.551 603.39 238.251 603.39ZM238.251 605.205C237.911 605.205 237.611 605.325 237.351 605.565C237.091 605.805 236.886 606.16 236.736 606.63C236.596 607.09 236.526 607.665 236.526 608.355C236.526 609.035 236.596 609.615 236.736 610.095C236.886 610.565 237.091 610.92 237.351 611.16C237.611 611.4 237.911 611.52 238.251 611.52C238.601 611.52 238.906 611.4 239.166 611.16C239.426 610.92 239.626 610.565 239.766 610.095C239.916 609.615 239.991 609.035 239.991 608.355C239.991 607.665 239.916 607.09 239.766 606.63C239.626 606.16 239.426 605.805 239.166 605.565C238.906 605.325 238.601 605.205 238.251 605.205ZM257.659 602.43H259.564V609.375H257.659V602.43ZM255.979 605.235H258.184V606.825H255.979V605.235ZM254.629 602.685H256.489V609.285H254.629V602.685ZM251.659 603.255H253.684C253.684 604.365 253.499 605.345 253.129 606.195C252.769 607.045 252.209 607.775 251.449 608.385C250.699 608.995 249.744 609.505 248.584 609.915L247.654 608.46C248.614 608.16 249.384 607.795 249.964 607.365C250.554 606.935 250.984 606.445 251.254 605.895C251.524 605.335 251.659 604.715 251.659 604.035V603.255ZM248.314 603.255H252.469V604.815H248.314V603.255ZM250.114 609.945H259.564V613.74H252.124V615.36H250.144V612.285H257.599V611.475H250.114V609.945ZM250.144 614.625H260.014V616.185H250.144V614.625ZM270.873 602.415H272.853V616.35H270.873V602.415ZM268.698 607.425H271.278V609.03H268.698V607.425ZM261.708 611.505H262.848C263.608 611.505 264.318 611.495 264.978 611.475C265.648 611.455 266.303 611.42 266.943 611.37C267.583 611.31 268.238 611.225 268.908 611.115L269.088 612.735C268.398 612.845 267.723 612.93 267.063 612.99C266.403 613.05 265.728 613.09 265.038 613.11C264.358 613.13 263.628 613.14 262.848 613.14H261.708V611.505ZM261.693 603.6H267.948V608.835H263.688V611.985H261.708V607.26H265.983V605.19H261.693V603.6ZM284.312 602.415H286.322V616.35H284.312V602.415ZM275.507 611.49H276.737C277.557 611.49 278.332 611.48 279.062 611.46C279.792 611.43 280.507 611.385 281.207 611.325C281.907 611.255 282.622 611.155 283.352 611.025L283.562 612.63C282.442 612.83 281.337 612.965 280.247 613.035C279.167 613.095 277.997 613.125 276.737 613.125H275.507V611.49ZM275.477 603.6H282.032V608.985H277.532V612.105H275.507V607.41H280.007V605.205H275.477V603.6Z" fill="white"/>
<path d="M506.764 87.6531H495.406C495.307 87.6532 495.21 87.6316 495.121 87.59C495.031 87.5483 494.952 87.4876 494.889 87.4121C494.826 87.3365 494.78 87.2481 494.755 87.1529C494.73 87.0578 494.726 86.9583 494.743 86.8615L500.423 55.171C500.45 55.0155 500.531 54.8747 500.653 54.7732C500.774 54.6717 500.927 54.6161 501.085 54.6161C501.243 54.6161 501.396 54.6717 501.518 54.7732C501.639 54.8747 501.72 55.0155 501.748 55.171L507.427 86.8615C507.445 86.9583 507.441 87.0578 507.415 87.1529C507.39 87.2481 507.345 87.3365 507.281 87.4121C507.218 87.4876 507.139 87.5483 507.05 87.59C506.96 87.6316 506.863 87.6532 506.764 87.6531Z" fill="#5CB56B" stroke="#263238" stroke-width="1.2" stroke-linecap="round" stroke-linejoin="round"/>
<path d="M501.085 70.5566V93.8712" stroke="#263238" stroke-width="1.2" stroke-linecap="round" stroke-linejoin="round"/>
<path d="M498.545 76.7825L501.006 79.2391" stroke="#263238" stroke-width="1.2" stroke-linecap="round" stroke-linejoin="round"/>
<path d="M504.416 81.2234L501.085 84.5482" stroke="#263238" stroke-width="1.2" stroke-linecap="round" stroke-linejoin="round"/>
<path d="M502.751 73.0441L501.085 74.7065" stroke="#263238" stroke-width="1.2" stroke-linecap="round" stroke-linejoin="round"/>
<path d="M293.112 250.512H282.622C282.531 250.512 282.441 250.492 282.358 250.454C282.276 250.415 282.203 250.359 282.145 250.29C282.086 250.22 282.044 250.138 282.021 250.05C281.997 249.962 281.994 249.87 282.01 249.781L287.255 220.513C287.281 220.369 287.356 220.239 287.468 220.145C287.58 220.051 287.721 220 287.867 220C288.013 220 288.155 220.051 288.267 220.145C288.378 220.239 288.454 220.369 288.479 220.513L293.724 249.781C293.741 249.87 293.737 249.962 293.714 250.05C293.691 250.138 293.648 250.22 293.59 250.29C293.531 250.359 293.458 250.415 293.376 250.454C293.293 250.492 293.203 250.512 293.112 250.512Z" fill="#8DD27F" stroke="#263238" stroke-width="1.2" stroke-linecap="round" stroke-linejoin="round"/>
<path d="M287.867 234.722V256.255" stroke="#263238" stroke-width="1.2" stroke-linecap="round" stroke-linejoin="round"/>
<path d="M285.521 240.472L287.794 242.741" stroke="#263238" stroke-width="1.2" stroke-linecap="round" stroke-linejoin="round"/>
<path d="M290.943 244.574L287.867 247.645" stroke="#263238" stroke-width="1.2" stroke-linecap="round" stroke-linejoin="round"/>
<path d="M289.405 237.02L287.867 238.555" stroke="#263238" stroke-width="1.2" stroke-linecap="round" stroke-linejoin="round"/>
<path d="M108.258 587.403H95.742C95.6334 587.403 95.5261 587.38 95.4276 587.334C95.3292 587.288 95.2421 587.221 95.1724 587.138C95.1028 587.055 95.0523 586.957 95.0246 586.852C94.9968 586.747 94.9925 586.638 95.0119 586.531L101.27 551.611C101.3 551.44 101.39 551.285 101.523 551.173C101.657 551.061 101.826 551 102 551C102.174 551 102.343 551.061 102.477 551.173C102.61 551.285 102.7 551.44 102.73 551.611L108.988 586.531C109.007 586.638 109.003 586.747 108.975 586.852C108.948 586.957 108.897 587.055 108.828 587.138C108.758 587.221 108.671 587.288 108.572 587.334C108.474 587.38 108.367 587.403 108.258 587.403Z" fill="#8DD27F" stroke="#263238" stroke-width="1.2" stroke-linecap="round" stroke-linejoin="round"/>
<path d="M102 568.565V594.255" stroke="#263238" stroke-width="1.2" stroke-linecap="round" stroke-linejoin="round"/>
<path d="M99.2009 575.425L101.913 578.132" stroke="#263238" stroke-width="1.2" stroke-linecap="round" stroke-linejoin="round"/>
<path d="M105.67 580.319L102 583.982" stroke="#263238" stroke-width="1.2" stroke-linecap="round" stroke-linejoin="round"/>
<path d="M103.835 571.306L102 573.138" stroke="#263238" stroke-width="1.2" stroke-linecap="round" stroke-linejoin="round"/>
<path d="M348.499 48.829H338.588C338.502 48.8291 338.417 48.8103 338.339 48.7739C338.261 48.7376 338.192 48.6846 338.137 48.6187C338.081 48.5528 338.041 48.4756 338.019 48.3926C337.997 48.3095 337.994 48.2227 338.009 48.1382L342.965 20.4842C342.989 20.3486 343.06 20.2257 343.166 20.1371C343.272 20.0485 343.406 20 343.544 20C343.682 20 343.815 20.0485 343.921 20.1371C344.027 20.2257 344.098 20.3486 344.122 20.4842L349.078 48.1382C349.093 48.2227 349.09 48.3095 349.068 48.3926C349.046 48.4756 349.006 48.5528 348.95 48.6187C348.895 48.6846 348.826 48.7376 348.748 48.7739C348.67 48.8103 348.585 48.8291 348.499 48.829Z" fill="#8DD27F" stroke="#263238" stroke-width="1.2" stroke-linecap="round" stroke-linejoin="round"/>
<path d="M343.543 33.9102V54.2551" stroke="#263238" stroke-width="1.2" stroke-linecap="round" stroke-linejoin="round"/>
<path d="M341.327 39.3431L343.474 41.4868" stroke="#263238" stroke-width="1.2" stroke-linecap="round" stroke-linejoin="round"/>
<path d="M346.45 43.2183L343.543 46.1196" stroke="#263238" stroke-width="1.2" stroke-linecap="round" stroke-linejoin="round"/>
<path d="M344.997 36.0808L343.543 37.5315" stroke="#263238" stroke-width="1.2" stroke-linecap="round" stroke-linejoin="round"/>
<path d="M429.258 359.403H416.742C416.633 359.403 416.526 359.38 416.428 359.334C416.329 359.288 416.242 359.221 416.172 359.138C416.103 359.055 416.052 358.957 416.025 358.852C415.997 358.747 415.993 358.638 416.012 358.531L422.27 323.611C422.3 323.44 422.39 323.285 422.523 323.173C422.657 323.061 422.826 323 423 323C423.174 323 423.343 323.061 423.477 323.173C423.61 323.285 423.7 323.44 423.73 323.611L429.988 358.531C430.007 358.638 430.003 358.747 429.975 358.852C429.948 358.957 429.897 359.055 429.828 359.138C429.758 359.221 429.671 359.288 429.572 359.334C429.474 359.38 429.367 359.403 429.258 359.403Z" fill="#8DD27F" stroke="#263238" stroke-width="1.2" stroke-linecap="round" stroke-linejoin="round"/>
<path d="M423 340.565V366.255" stroke="#263238" stroke-width="1.2" stroke-linecap="round" stroke-linejoin="round"/>
<path d="M420.201 347.425L422.913 350.132" stroke="#263238" stroke-width="1.2" stroke-linecap="round" stroke-linejoin="round"/>
<path d="M426.67 352.319L423 355.982" stroke="#263238" stroke-width="1.2" stroke-linecap="round" stroke-linejoin="round"/>
<path d="M424.835 343.306L423 345.137" stroke="#263238" stroke-width="1.2" stroke-linecap="round" stroke-linejoin="round"/>
<path d="M361.481 64.4326L366.818 34.6473C366.85 34.4659 366.945 34.3016 367.087 34.1832C367.228 34.0649 367.407 34 367.592 34C367.776 34 367.955 34.0649 368.096 34.1832C368.238 34.3016 368.333 34.4659 368.366 34.6473L374.988 71.6028C375.008 71.7157 375.003 71.8315 374.973 71.9422C374.943 72.0529 374.89 72.1558 374.816 72.2437C374.743 72.3315 374.65 72.4023 374.547 72.4509C374.443 72.4996 374.329 72.525 374.214 72.5254H363.055" fill="#5CB56B"/>
<path d="M361.481 64.4326L366.818 34.6473C366.85 34.4659 366.945 34.3016 367.087 34.1832C367.228 34.0649 367.407 34 367.592 34C367.776 34 367.955 34.0649 368.096 34.1832C368.238 34.3016 368.333 34.4659 368.366 34.6473L374.988 71.6028C375.008 71.7157 375.003 71.8315 374.973 71.9422C374.943 72.0529 374.89 72.1558 374.816 72.2437C374.743 72.3315 374.65 72.4023 374.547 72.4509C374.443 72.4996 374.329 72.525 374.214 72.5254H363.055" stroke="#263238" stroke-width="1.2" stroke-linecap="round" stroke-linejoin="round"/>
<path d="M367.592 52.5881V79.7751" stroke="#263238" stroke-width="1.2" stroke-linecap="round" stroke-linejoin="round"/>
<path d="M364.627 59.8481L367.499 62.7129" stroke="#263238" stroke-width="1.2" stroke-linecap="round" stroke-linejoin="round"/>
<path d="M371.475 65.028L367.592 68.9049" stroke="#263238" stroke-width="1.2" stroke-linecap="round" stroke-linejoin="round"/>
<path d="M369.532 55.4894L367.592 57.4291" stroke="#263238" stroke-width="1.2" stroke-linecap="round" stroke-linejoin="round"/>
<path d="M362.41 73.879H351.639C351.545 73.879 351.453 73.8586 351.368 73.8191C351.283 73.7796 351.208 73.722 351.148 73.6504C351.088 73.5788 351.045 73.4949 351.021 73.4047C350.997 73.3145 350.994 73.2201 351.01 73.1283L356.396 43.0766C356.422 42.9292 356.499 42.7956 356.614 42.6994C356.729 42.6032 356.874 42.5504 357.024 42.5504C357.174 42.5504 357.319 42.6032 357.434 42.6994C357.549 42.7956 357.626 42.9292 357.652 43.0766L363.038 73.1283C363.055 73.2201 363.051 73.3145 363.027 73.4047C363.003 73.4949 362.96 73.5788 362.9 73.6504C362.84 73.722 362.765 73.7796 362.68 73.8191C362.596 73.8586 362.503 73.879 362.41 73.879Z" fill="#5CB56B" stroke="#263238" stroke-width="1.2" stroke-linecap="round" stroke-linejoin="round"/>
<path d="M357.024 57.6663V79.7752" stroke="#263238" stroke-width="1.2" stroke-linecap="round" stroke-linejoin="round"/>
<path d="M354.615 63.5701L356.949 65.8996" stroke="#263238" stroke-width="1.2" stroke-linecap="round" stroke-linejoin="round"/>
<path d="M360.183 67.7816L357.024 70.9345" stroke="#263238" stroke-width="1.2" stroke-linecap="round" stroke-linejoin="round"/>
<path d="M358.603 60.0254L357.024 61.6018" stroke="#263238" stroke-width="1.2" stroke-linecap="round" stroke-linejoin="round"/>
<path d="M220.519 261.543L225.875 231.65C225.907 231.468 226.003 231.303 226.145 231.184C226.287 231.065 226.466 231 226.652 231C226.837 231 227.016 231.065 227.158 231.184C227.3 231.303 227.396 231.468 227.428 231.65L234.075 268.739C234.095 268.852 234.09 268.968 234.06 269.08C234.03 269.191 233.976 269.294 233.902 269.382C233.828 269.47 233.736 269.541 233.632 269.59C233.527 269.639 233.414 269.664 233.298 269.665H222.099" fill="#5CB56B"/>
<path d="M220.519 261.543L225.875 231.65C225.907 231.468 226.003 231.303 226.145 231.184C226.287 231.065 226.466 231 226.652 231C226.837 231 227.016 231.065 227.158 231.184C227.3 231.303 227.396 231.468 227.428 231.65L234.075 268.739C234.095 268.852 234.09 268.968 234.06 269.08C234.03 269.191 233.976 269.294 233.902 269.382C233.828 269.47 233.736 269.541 233.632 269.59C233.527 269.639 233.414 269.664 233.298 269.665H222.099" stroke="#263238" stroke-width="1.2" stroke-linecap="round" stroke-linejoin="round"/>
<path d="M226.652 249.655V276.941" stroke="#263238" stroke-width="1.2" stroke-linecap="round" stroke-linejoin="round"/>
<path d="M223.676 256.942L226.559 259.817" stroke="#263238" stroke-width="1.2" stroke-linecap="round" stroke-linejoin="round"/>
<path d="M230.55 262.14L226.652 266.031" stroke="#263238" stroke-width="1.2" stroke-linecap="round" stroke-linejoin="round"/>
<path d="M228.599 252.567L226.652 254.514" stroke="#263238" stroke-width="1.2" stroke-linecap="round" stroke-linejoin="round"/>
<path d="M221.451 271.023H210.641C210.547 271.023 210.454 271.003 210.369 270.963C210.284 270.924 210.209 270.866 210.149 270.794C210.089 270.722 210.045 270.638 210.021 270.547C209.997 270.457 209.994 270.362 210.01 270.27L215.415 240.109C215.442 239.961 215.519 239.827 215.634 239.731C215.75 239.634 215.895 239.581 216.046 239.581C216.196 239.581 216.342 239.634 216.458 239.731C216.573 239.827 216.65 239.961 216.677 240.109L222.082 270.27C222.098 270.362 222.095 270.457 222.071 270.547C222.047 270.638 222.003 270.722 221.943 270.794C221.883 270.866 221.808 270.924 221.723 270.963C221.638 271.003 221.545 271.023 221.451 271.023Z" fill="#5CB56B" stroke="#263238" stroke-width="1.2" stroke-linecap="round" stroke-linejoin="round"/>
<path d="M216.046 254.752V276.941" stroke="#263238" stroke-width="1.2" stroke-linecap="round" stroke-linejoin="round"/>
<path d="M213.628 260.677L215.97 263.015" stroke="#263238" stroke-width="1.2" stroke-linecap="round" stroke-linejoin="round"/>
<path d="M219.216 264.904L216.046 268.068" stroke="#263238" stroke-width="1.2" stroke-linecap="round" stroke-linejoin="round"/>
<path d="M217.631 257.12L216.046 258.702" stroke="#263238" stroke-width="1.2" stroke-linecap="round" stroke-linejoin="round"/>
<path d="M125.579 614.526L131.985 578.777C132.024 578.559 132.138 578.362 132.308 578.22C132.478 578.078 132.692 578 132.914 578C133.135 578 133.35 578.078 133.52 578.22C133.689 578.362 133.804 578.559 133.842 578.777L141.791 623.132C141.815 623.268 141.809 623.407 141.773 623.539C141.738 623.672 141.673 623.796 141.585 623.901C141.496 624.007 141.386 624.092 141.261 624.15C141.136 624.208 141 624.239 140.863 624.239H127.469" fill="#5CB56B"/>
<path d="M125.579 614.526L131.985 578.777C132.024 578.559 132.138 578.362 132.308 578.22C132.478 578.078 132.692 578 132.914 578C133.135 578 133.35 578.078 133.52 578.22C133.689 578.362 133.804 578.559 133.842 578.777L141.791 623.132C141.815 623.268 141.809 623.407 141.773 623.539C141.738 623.672 141.673 623.796 141.585 623.901C141.496 624.007 141.386 624.092 141.261 624.15C141.136 624.208 141 624.239 140.863 624.239H127.469" stroke="#263238" stroke-width="1.2" stroke-linecap="round" stroke-linejoin="round"/>
<path d="M132.914 600.31V632.941" stroke="#263238" stroke-width="1.2" stroke-linecap="round" stroke-linejoin="round"/>
<path d="M129.356 609.024L132.803 612.462" stroke="#263238" stroke-width="1.2" stroke-linecap="round" stroke-linejoin="round"/>
<path d="M137.575 615.241L132.914 619.894" stroke="#263238" stroke-width="1.2" stroke-linecap="round" stroke-linejoin="round"/>
<path d="M135.243 603.792L132.914 606.12" stroke="#263238" stroke-width="1.2" stroke-linecap="round" stroke-linejoin="round"/>
<path d="M126.694 625.864H113.766C113.654 625.864 113.543 625.84 113.442 625.792C113.34 625.745 113.25 625.676 113.178 625.59C113.106 625.504 113.054 625.403 113.025 625.295C112.997 625.186 112.992 625.073 113.012 624.963L119.476 588.894C119.508 588.717 119.6 588.557 119.738 588.441C119.876 588.326 120.05 588.262 120.23 588.262C120.41 588.262 120.585 588.326 120.723 588.441C120.861 588.557 120.953 588.717 120.985 588.894L127.448 624.963C127.469 625.073 127.464 625.186 127.435 625.295C127.407 625.403 127.355 625.504 127.283 625.59C127.211 625.676 127.121 625.745 127.019 625.792C126.917 625.84 126.807 625.864 126.694 625.864Z" fill="#5CB56B" stroke="#263238" stroke-width="1.2" stroke-linecap="round" stroke-linejoin="round"/>
<path d="M120.23 606.405V632.941" stroke="#263238" stroke-width="1.2" stroke-linecap="round" stroke-linejoin="round"/>
<path d="M117.339 613.491L120.14 616.287" stroke="#263238" stroke-width="1.2" stroke-linecap="round" stroke-linejoin="round"/>
<path d="M124.021 618.546L120.23 622.33" stroke="#263238" stroke-width="1.2" stroke-linecap="round" stroke-linejoin="round"/>
<path d="M122.126 609.237L120.23 611.129" stroke="#263238" stroke-width="1.2" stroke-linecap="round" stroke-linejoin="round"/>
<path d="M392.101 383.041L398.772 345.809C398.813 345.582 398.932 345.377 399.108 345.229C399.285 345.081 399.509 345 399.739 345C399.97 345 400.194 345.081 400.371 345.229C400.547 345.377 400.666 345.582 400.707 345.809L408.985 392.004C409.01 392.145 409.004 392.289 408.966 392.428C408.929 392.566 408.862 392.695 408.77 392.805C408.678 392.914 408.563 393.003 408.433 393.064C408.303 393.125 408.162 393.156 408.018 393.157H394.069" fill="#5CB56B"/>
<path d="M392.101 383.041L398.772 345.809C398.813 345.582 398.932 345.377 399.108 345.229C399.285 345.081 399.509 345 399.739 345C399.97 345 400.194 345.081 400.371 345.229C400.547 345.377 400.666 345.582 400.707 345.809L408.985 392.004C409.01 392.145 409.004 392.289 408.966 392.428C408.929 392.566 408.862 392.695 408.77 392.805C408.678 392.914 408.563 393.003 408.433 393.064C408.303 393.125 408.162 393.156 408.018 393.157H394.069" stroke="#263238" stroke-width="1.2" stroke-linecap="round" stroke-linejoin="round"/>
<path d="M399.74 368.235V402.219" stroke="#263238" stroke-width="1.2" stroke-linecap="round" stroke-linejoin="round"/>
<path d="M396.034 377.31L399.624 380.891" stroke="#263238" stroke-width="1.2" stroke-linecap="round" stroke-linejoin="round"/>
<path d="M404.594 383.785L399.74 388.631" stroke="#263238" stroke-width="1.2" stroke-linecap="round" stroke-linejoin="round"/>
<path d="M402.165 371.862L399.74 374.286" stroke="#263238" stroke-width="1.2" stroke-linecap="round" stroke-linejoin="round"/>
<path d="M393.262 394.849H379.798C379.681 394.849 379.566 394.823 379.46 394.774C379.354 394.725 379.26 394.653 379.185 394.563C379.111 394.473 379.056 394.369 379.026 394.256C378.997 394.143 378.992 394.025 379.013 393.91L385.745 356.346C385.777 356.161 385.874 355.995 386.018 355.874C386.161 355.754 386.343 355.688 386.53 355.688C386.718 355.688 386.899 355.754 387.043 355.874C387.186 355.995 387.283 356.161 387.316 356.346L394.048 393.91C394.068 394.025 394.064 394.143 394.034 394.256C394.004 394.369 393.95 394.473 393.875 394.563C393.8 394.653 393.706 394.725 393.6 394.774C393.494 394.823 393.379 394.849 393.262 394.849Z" fill="#5CB56B" stroke="#263238" stroke-width="1.2" stroke-linecap="round" stroke-linejoin="round"/>
<path d="M386.53 374.583V402.219" stroke="#263238" stroke-width="1.2" stroke-linecap="round" stroke-linejoin="round"/>
<path d="M383.519 381.963L386.436 384.875" stroke="#263238" stroke-width="1.2" stroke-linecap="round" stroke-linejoin="round"/>
<path d="M390.478 387.227L386.53 391.168" stroke="#263238" stroke-width="1.2" stroke-linecap="round" stroke-linejoin="round"/>
<path d="M388.504 377.532L386.53 379.502" stroke="#263238" stroke-width="1.2" stroke-linecap="round" stroke-linejoin="round"/>
<path d="M266.501 213.871V240.907H237.701V213.871H266.501Z" fill="white" stroke="#263238"/>
<path d="M264.691 203.079L271.178 215.616H234.799L241.164 202.508L264.691 203.079Z" fill="#FF6B43" stroke="#263238"/>
<path d="M251.25 233.179C251.894 233.179 252.509 233.43 252.961 233.874C253.413 234.316 253.665 234.915 253.666 235.537V241.007H248.835V235.537L248.847 235.305C248.902 234.768 249.144 234.261 249.54 233.874C249.992 233.43 250.607 233.179 251.25 233.179Z" fill="#2E292B" stroke="#263238"/>
<rect x="241" y="218.907" width="4" height="4.91304" rx="1" fill="#8CBBE5"/>
<rect x="241" y="225.785" width="4" height="4.91304" rx="1" fill="#8CBBE5"/>
<rect x="247" y="218.907" width="4" height="4.91304" rx="1" fill="#8CBBE5"/>
<rect x="247" y="225.785" width="4" height="4.91304" rx="1" fill="#8CBBE5"/>
<path d="M253 219.907C253 219.355 253.448 218.907 254 218.907H256C256.552 218.907 257 219.355 257 219.907V222.82C257 223.372 256.552 223.82 256 223.82H254C253.448 223.82 253 223.372 253 222.82V219.907Z" fill="#8CBBE5"/>
<path d="M259 219.907C259 219.355 259.448 218.907 260 218.907H262C262.552 218.907 263 219.355 263 219.907V222.82C263 223.372 262.552 223.82 262 223.82H260C259.448 223.82 259 223.372 259 222.82V219.907Z" fill="#8CBBE5"/>
<path d="M253 226.785C253 226.233 253.448 225.785 254 225.785H256C256.552 225.785 257 226.233 257 226.785V229.698C257 230.251 256.552 230.698 256 230.698H254C253.448 230.698 253 230.251 253 229.698V226.785Z" fill="#8CBBE5"/>
<path d="M259 226.785C259 226.233 259.448 225.785 260 225.785H262C262.552 225.785 263 226.233 263 226.785V229.698C263 230.251 262.552 230.698 262 230.698H260C259.448 230.698 259 230.251 259 229.698V226.785Z" fill="#8CBBE5"/>
<path d="M406.532 56.6444V83.6805H377.731V56.6444H406.532Z" fill="white" stroke="#263238"/>
<path d="M404.722 45.853L411.208 58.3901H374.83L381.195 45.2817L404.722 45.853Z" fill="#FF6B43" stroke="#263238"/>
<path d="M391.281 75.9531C391.925 75.9531 392.54 76.2042 392.992 76.6475C393.444 77.0904 393.696 77.6886 393.696 78.3105V83.7812H388.866V78.3105L388.878 78.0791C388.932 77.5417 389.175 77.0351 389.57 76.6475C390.022 76.2042 390.638 75.9531 391.281 75.9531Z" fill="#2E292B" stroke="#263238"/>
<rect x="381.031" y="61.681" width="4" height="4.91304" rx="1" fill="#525252"/>
<rect x="381.031" y="68.5592" width="4" height="4.91304" rx="1" fill="#525252"/>
<rect x="387.031" y="61.681" width="4" height="4.91304" rx="1" fill="#525252"/>
<rect x="387.031" y="68.5592" width="4" height="4.91304" rx="1" fill="#525252"/>
<path d="M393.031 62.681C393.031 62.1287 393.478 61.681 394.031 61.681H396.031C396.583 61.681 397.031 62.1287 397.031 62.681V65.5941C397.031 66.1464 396.583 66.5941 396.031 66.5941H394.031C393.478 66.5941 393.031 66.1464 393.031 65.5941V62.681Z" fill="#525252"/>
<path d="M399.031 62.681C399.031 62.1287 399.478 61.681 400.031 61.681H402.031C402.583 61.681 403.031 62.1287 403.031 62.681V65.5941C403.031 66.1464 402.583 66.5941 402.031 66.5941H400.031C399.478 66.5941 399.031 66.1464 399.031 65.5941V62.681Z" fill="#525252"/>
<path d="M393.031 69.5592C393.031 69.0069 393.478 68.5592 394.031 68.5592H396.031C396.583 68.5592 397.031 69.0069 397.031 69.5592V72.4722C397.031 73.0245 396.583 73.4722 396.031 73.4722H394.031C393.478 73.4722 393.031 73.0245 393.031 72.4722V69.5592Z" fill="#525252"/>
<path d="M399.031 69.5592C399.031 69.0069 399.478 68.5592 400.031 68.5592H402.031C402.583 68.5592 403.031 69.0069 403.031 69.5592V72.4722C403.031 73.0245 402.583 73.4722 402.031 73.4722H400.031C399.478 73.4722 399.031 73.0245 399.031 72.4722V69.5592Z" fill="#525252"/>
<path d="M511.635 268.785L517.56 235.719C517.596 235.517 517.702 235.335 517.859 235.203C518.016 235.072 518.214 235 518.419 235C518.624 235 518.823 235.072 518.98 235.203C519.137 235.335 519.243 235.517 519.279 235.719L526.631 276.745C526.653 276.871 526.647 276.999 526.614 277.122C526.581 277.245 526.522 277.359 526.44 277.457C526.358 277.554 526.256 277.633 526.14 277.687C526.025 277.741 525.899 277.769 525.772 277.77H513.383" fill="#8DD27F"/>
<path d="M511.635 268.785L517.56 235.719C517.596 235.517 517.702 235.335 517.859 235.203C518.016 235.072 518.214 235 518.419 235C518.624 235 518.823 235.072 518.98 235.203C519.137 235.335 519.243 235.517 519.279 235.719L526.631 276.745C526.653 276.871 526.647 276.999 526.614 277.122C526.581 277.245 526.522 277.359 526.44 277.457C526.358 277.554 526.256 277.633 526.14 277.687C526.025 277.741 525.899 277.769 525.772 277.77H513.383" stroke="#263238" stroke-width="1.2" stroke-linecap="round" stroke-linejoin="round"/>
<path d="M518.419 255.636V285.818" stroke="#263238" stroke-width="1.2" stroke-linecap="round" stroke-linejoin="round"/>
<path d="M515.128 263.696L518.317 266.876" stroke="#263238" stroke-width="1.2" stroke-linecap="round" stroke-linejoin="round"/>
<path d="M522.731 269.446L518.419 273.75" stroke="#263238" stroke-width="1.2" stroke-linecap="round" stroke-linejoin="round"/>
<path d="M520.574 258.857L518.419 261.01" stroke="#263238" stroke-width="1.2" stroke-linecap="round" stroke-linejoin="round"/>
<path d="M512.667 279.272H500.709C500.605 279.272 500.503 279.25 500.409 279.206C500.315 279.162 500.231 279.098 500.165 279.019C500.098 278.939 500.05 278.846 500.023 278.746C499.997 278.646 499.993 278.541 500.011 278.439L505.99 245.077C506.019 244.913 506.105 244.765 506.233 244.658C506.36 244.551 506.521 244.492 506.688 244.492C506.854 244.492 507.016 244.551 507.143 244.658C507.271 244.765 507.356 244.913 507.385 245.077L513.364 278.439C513.383 278.541 513.379 278.646 513.352 278.746C513.326 278.846 513.277 278.939 513.211 279.019C513.144 279.098 513.061 279.162 512.967 279.206C512.873 279.25 512.77 279.272 512.667 279.272Z" fill="#8DD27F" stroke="#263238" stroke-width="1.2" stroke-linecap="round" stroke-linejoin="round"/>
<path d="M506.688 261.274V285.818" stroke="#263238" stroke-width="1.2" stroke-linecap="round" stroke-linejoin="round"/>
<path d="M504.013 267.828L506.604 270.414" stroke="#263238" stroke-width="1.2" stroke-linecap="round" stroke-linejoin="round"/>
<path d="M510.194 272.503L506.688 276.003" stroke="#263238" stroke-width="1.2" stroke-linecap="round" stroke-linejoin="round"/>
<path d="M508.441 263.893L506.688 265.643" stroke="#263238" stroke-width="1.2" stroke-linecap="round" stroke-linejoin="round"/>
<path d="M302.238 39.4389L308.979 1.81757C309.02 1.58841 309.14 1.3809 309.319 1.23141C309.498 1.08193 309.723 1 309.956 1C310.19 1 310.415 1.08193 310.594 1.23141C310.773 1.3809 310.893 1.58841 310.934 1.81757L319.299 48.4955C319.324 48.6381 319.318 48.7844 319.28 48.9242C319.242 49.064 319.175 49.194 319.082 49.3049C318.989 49.4159 318.872 49.5053 318.741 49.5667C318.61 49.6282 318.467 49.6603 318.322 49.6608H304.226" fill="#8DD27F"/>
<path d="M302.238 39.4389L308.979 1.81757C309.02 1.58841 309.14 1.3809 309.319 1.23141C309.498 1.08193 309.723 1 309.956 1C310.19 1 310.415 1.08193 310.594 1.23141C310.773 1.3809 310.893 1.58841 310.934 1.81757L319.299 48.4955C319.324 48.6381 319.318 48.7844 319.28 48.9242C319.242 49.064 319.175 49.194 319.082 49.3049C318.989 49.4159 318.872 49.5053 318.741 49.5667C318.61 49.6282 318.467 49.6603 318.322 49.6608H304.226" stroke="#263238" stroke-width="1.2" stroke-linecap="round" stroke-linejoin="round"/>
<path d="M309.957 24.4788V58.8181" stroke="#263238" stroke-width="1.2" stroke-linecap="round" stroke-linejoin="round"/>
<path d="M306.212 33.6486L309.84 37.2669" stroke="#263238" stroke-width="1.2" stroke-linecap="round" stroke-linejoin="round"/>
<path d="M314.862 40.1912L309.957 45.088" stroke="#263238" stroke-width="1.2" stroke-linecap="round" stroke-linejoin="round"/>
<path d="M312.408 28.1431L309.957 30.593" stroke="#263238" stroke-width="1.2" stroke-linecap="round" stroke-linejoin="round"/>
<path d="M303.411 51.3705H289.807C289.689 51.3706 289.572 51.3448 289.465 51.2949C289.358 51.2451 289.263 51.1723 289.187 51.0818C289.112 50.9914 289.057 50.8854 289.027 50.7715C288.997 50.6575 288.992 50.5383 289.013 50.4223L295.815 12.4646C295.848 12.2784 295.946 12.1097 296.091 11.9881C296.236 11.8666 296.42 11.7999 296.609 11.7999C296.798 11.7999 296.982 11.8666 297.127 11.9881C297.272 12.1097 297.37 12.2784 297.403 12.4646L304.205 50.4223C304.226 50.5383 304.221 50.6575 304.191 50.7715C304.161 50.8854 304.106 50.9914 304.031 51.0818C303.955 51.1723 303.86 51.2451 303.753 51.2949C303.646 51.3448 303.53 51.3706 303.411 51.3705Z" fill="#8DD27F" stroke="#263238" stroke-width="1.2" stroke-linecap="round" stroke-linejoin="round"/>
<path d="M296.609 30.8927V58.8181" stroke="#263238" stroke-width="1.2" stroke-linecap="round" stroke-linejoin="round"/>
<path d="M293.566 38.35L296.514 41.2924" stroke="#263238" stroke-width="1.2" stroke-linecap="round" stroke-linejoin="round"/>
<path d="M300.599 43.6691L296.609 47.6514" stroke="#263238" stroke-width="1.2" stroke-linecap="round" stroke-linejoin="round"/>
<path d="M298.604 33.8723L296.609 35.8635" stroke="#263238" stroke-width="1.2" stroke-linecap="round" stroke-linejoin="round"/>
<path d="M466.564 66.394L472.947 30.774C472.986 30.557 473.1 30.3605 473.269 30.219C473.438 30.0774 473.652 29.9999 473.872 29.9999C474.093 29.9999 474.307 30.0774 474.476 30.219C474.645 30.3605 474.759 30.557 474.798 30.774L482.718 74.9688C482.742 75.1038 482.736 75.2424 482.7 75.3747C482.664 75.5071 482.6 75.6301 482.512 75.7352C482.424 75.8403 482.314 75.9249 482.19 75.9831C482.065 76.0413 481.93 76.0717 481.793 76.0722H468.447" fill="#8DD27F"/>
<path d="M466.564 66.394L472.947 30.774C472.986 30.557 473.1 30.3605 473.269 30.219C473.438 30.0774 473.652 29.9999 473.872 29.9999C474.093 29.9999 474.307 30.0774 474.476 30.219C474.645 30.3605 474.759 30.557 474.798 30.774L482.718 74.9688C482.742 75.1038 482.736 75.2424 482.7 75.3747C482.665 75.5071 482.6 75.6301 482.512 75.7352C482.424 75.8403 482.314 75.9249 482.19 75.9831C482.065 76.0413 481.93 76.0717 481.793 76.0722H468.447" stroke="#263238" stroke-width="1.2" stroke-linecap="round" stroke-linejoin="round"/>
<path d="M473.873 52.2296V84.7423" stroke="#263238" stroke-width="1.2" stroke-linecap="round" stroke-linejoin="round"/>
<path d="M470.327 60.9117L473.762 64.3376" stroke="#263238" stroke-width="1.2" stroke-linecap="round" stroke-linejoin="round"/>
<path d="M478.517 67.1063L473.873 71.7427" stroke="#263238" stroke-width="1.2" stroke-linecap="round" stroke-linejoin="round"/>
<path d="M476.193 55.6991L473.873 58.0187" stroke="#263238" stroke-width="1.2" stroke-linecap="round" stroke-linejoin="round"/>
<path d="M467.676 77.6908H454.794C454.683 77.6909 454.572 77.6665 454.471 77.6193C454.37 77.572 454.28 77.5032 454.208 77.4175C454.137 77.3319 454.085 77.2315 454.056 77.1236C454.028 77.0157 454.023 76.9029 454.043 76.7931L460.484 40.8545C460.515 40.6782 460.607 40.5185 460.745 40.4034C460.882 40.2883 461.056 40.2252 461.235 40.2252C461.414 40.2252 461.588 40.2883 461.725 40.4034C461.863 40.5185 461.955 40.6782 461.986 40.8545L468.427 76.7931C468.447 76.9029 468.443 77.0157 468.414 77.1236C468.385 77.2315 468.333 77.3319 468.262 77.4175C468.19 77.5032 468.1 77.572 467.999 77.6193C467.898 77.6665 467.787 77.6909 467.676 77.6908Z" fill="#8DD27F" stroke="#263238" stroke-width="1.2" stroke-linecap="round" stroke-linejoin="round"/>
<path d="M461.235 58.3024V84.7423" stroke="#263238" stroke-width="1.2" stroke-linecap="round" stroke-linejoin="round"/>
<path d="M458.354 65.3629L461.145 68.1488" stroke="#263238" stroke-width="1.2" stroke-linecap="round" stroke-linejoin="round"/>
<path d="M465.012 70.399L461.235 74.1696" stroke="#263238" stroke-width="1.2" stroke-linecap="round" stroke-linejoin="round"/>
<path d="M463.124 61.1235L461.235 63.0088" stroke="#263238" stroke-width="1.2" stroke-linecap="round" stroke-linejoin="round"/>
<path d="M362.791 601.237L368.795 567.728C368.831 567.524 368.938 567.339 369.098 567.206C369.257 567.073 369.458 567 369.666 567C369.873 567 370.074 567.073 370.233 567.206C370.393 567.339 370.5 567.524 370.536 567.728L377.987 609.303C378.009 609.43 378.003 609.56 377.97 609.685C377.936 609.809 377.876 609.925 377.793 610.024C377.71 610.123 377.607 610.202 377.49 610.257C377.373 610.312 377.245 610.341 377.116 610.341H364.562" fill="#8DD27F"/>
<path d="M362.791 601.237L368.795 567.728C368.831 567.524 368.938 567.339 369.098 567.206C369.257 567.073 369.458 567 369.666 567C369.873 567 370.074 567.073 370.233 567.206C370.393 567.339 370.5 567.524 370.536 567.728L377.987 609.303C378.009 609.43 378.003 609.56 377.97 609.685C377.936 609.809 377.876 609.925 377.793 610.024C377.71 610.123 377.607 610.202 377.49 610.257C377.373 610.312 377.245 610.341 377.116 610.341H364.562" stroke="#263238" stroke-width="1.2" stroke-linecap="round" stroke-linejoin="round"/>
<path d="M369.666 587.912V618.497" stroke="#263238" stroke-width="1.2" stroke-linecap="round" stroke-linejoin="round"/>
<path d="M366.33 596.079L369.562 599.302" stroke="#263238" stroke-width="1.2" stroke-linecap="round" stroke-linejoin="round"/>
<path d="M374.035 601.907L369.666 606.268" stroke="#263238" stroke-width="1.2" stroke-linecap="round" stroke-linejoin="round"/>
<path d="M371.849 591.176L369.666 593.358" stroke="#263238" stroke-width="1.2" stroke-linecap="round" stroke-linejoin="round"/>
<path d="M363.836 611.864H351.718C351.613 611.864 351.509 611.841 351.414 611.796C351.319 611.752 351.234 611.687 351.167 611.607C351.1 611.526 351.051 611.432 351.024 611.33C350.997 611.229 350.993 611.122 351.012 611.019L357.07 577.211C357.1 577.045 357.187 576.895 357.316 576.787C357.445 576.678 357.608 576.619 357.777 576.619C357.946 576.619 358.109 576.678 358.239 576.787C358.368 576.895 358.455 577.045 358.484 577.211L364.543 611.019C364.562 611.122 364.557 611.229 364.531 611.33C364.504 611.432 364.455 611.526 364.387 611.607C364.32 611.687 364.236 611.752 364.14 611.796C364.045 611.841 363.941 611.864 363.836 611.864Z" fill="#8DD27F" stroke="#263238" stroke-width="1.2" stroke-linecap="round" stroke-linejoin="round"/>
<path d="M357.777 593.625V618.497" stroke="#263238" stroke-width="1.2" stroke-linecap="round" stroke-linejoin="round"/>
<path d="M355.067 600.267L357.693 602.887" stroke="#263238" stroke-width="1.2" stroke-linecap="round" stroke-linejoin="round"/>
<path d="M361.33 605.004L357.777 608.551" stroke="#263238" stroke-width="1.2" stroke-linecap="round" stroke-linejoin="round"/>
<path d="M359.554 596.279L357.777 598.052" stroke="#263238" stroke-width="1.2" stroke-linecap="round" stroke-linejoin="round"/>
<path d="M173.03 414.882V486.397L146.634 487.098L147.024 413.629L173.03 414.882Z" fill="#FBEDEA" stroke="#263238" stroke-width="1.2"/>
<path d="M154.665 421.308C155.118 421.308 155.269 421.681 155.255 422.077C155.253 422.104 155.253 422.13 155.255 422.157L155.322 424.993L155.406 428.788C155.427 429.723 155.438 430.71 154.971 431.524C154.504 432.338 153.387 432.877 152.572 432.397C151.758 431.917 151.691 430.906 151.667 430.027L151.512 424.199C151.491 423.43 151.487 422.598 151.93 421.967L151.969 421.912C152.053 421.774 152.618 421.032 154.546 421.305L154.665 421.308Z" fill="#525252"/>
<path d="M161.108 421.163C161.561 421.163 161.712 421.536 161.698 421.932C161.697 421.959 161.697 421.985 161.698 422.012L161.765 424.848L161.849 428.643C161.87 429.578 161.881 430.565 161.414 431.379C160.947 432.193 159.83 432.732 159.012 432.252C158.194 431.772 158.134 430.762 158.11 429.882L157.948 424.041C157.931 423.271 157.927 422.44 158.37 421.808L158.408 421.753C158.492 421.615 159.058 420.873 160.985 421.146L161.108 421.163Z" fill="#525252"/>
<path d="M167.495 421.212C167.945 421.212 168.099 421.584 168.082 421.981V422.06L168.145 424.896L168.233 428.692C168.254 429.627 168.261 430.613 167.797 431.428C167.334 432.242 166.214 432.78 165.396 432.301C164.578 431.821 164.514 430.81 164.493 429.93L164.335 424.093C164.314 423.323 164.314 422.492 164.757 421.86L164.792 421.805C164.879 421.667 165.445 420.925 167.372 421.198L167.495 421.212Z" fill="#525252"/>
<path d="M154.567 436.265C155.02 436.265 155.171 436.637 155.157 437.034C155.155 437.062 155.155 437.089 155.157 437.117L155.223 439.953L155.308 443.748C155.329 444.683 155.339 445.67 154.872 446.484C154.405 447.298 153.289 447.837 152.474 447.357C151.659 446.878 151.593 445.87 151.568 444.987L151.414 439.163C151.393 438.39 151.389 437.562 151.832 436.927L151.87 436.872C151.954 436.734 152.52 435.996 154.447 436.268C154.504 436.258 154.525 436.265 154.567 436.265Z" fill="#525252"/>
<path d="M161.01 436.116C161.463 436.116 161.614 436.489 161.6 436.886C161.598 436.913 161.598 436.941 161.6 436.969L161.667 439.805L161.751 443.6C161.772 444.535 161.783 445.522 161.316 446.336C160.849 447.15 159.732 447.688 158.914 447.209C158.096 446.729 158.036 445.722 158.012 444.839L157.854 439.015C157.836 438.242 157.832 437.414 158.275 436.779L158.31 436.724C158.398 436.586 158.963 435.847 160.891 436.12C160.926 436.116 160.968 436.116 161.01 436.116Z" fill="#525252"/>
<path d="M167.404 436.168C167.854 436.168 168.008 436.541 167.99 436.938V437.02L168.054 439.857L168.141 443.652C168.163 444.587 168.17 445.574 167.706 446.388C167.243 447.202 166.122 447.74 165.304 447.261C164.486 446.781 164.423 445.774 164.402 444.89L164.244 439.066C164.223 438.294 164.223 437.466 164.665 436.831L164.7 436.775C164.788 436.637 165.353 435.899 167.281 436.172C167.32 436.161 167.362 436.168 167.404 436.168Z" fill="#525252"/>
<path d="M154.469 452.677C154.922 452.677 155.073 453.05 155.059 453.447C155.057 453.474 155.057 453.502 155.059 453.53L155.125 456.366L155.21 460.161C155.231 461.096 155.241 462.083 154.774 462.897C154.307 463.711 153.191 464.249 152.372 463.77C151.554 463.29 151.495 462.283 151.47 461.4L151.316 455.576C151.294 454.803 151.291 453.971 151.733 453.34L151.772 453.285C151.856 453.147 152.422 452.408 154.349 452.677C154.389 452.681 154.429 452.681 154.469 452.677Z" fill="#525252"/>
<path d="M160.912 452.543C161.365 452.543 161.516 452.916 161.502 453.312C161.5 453.34 161.5 453.368 161.502 453.395L161.568 456.231L161.653 460.026C161.674 460.961 161.684 461.948 161.217 462.762C160.75 463.577 159.634 464.115 158.816 463.635C157.997 463.156 157.938 462.148 157.913 461.265L157.752 455.438C157.734 454.665 157.731 453.833 158.173 453.202L158.208 453.147C158.296 453.009 158.861 452.27 160.789 452.539C160.83 452.544 160.871 452.545 160.912 452.543Z" fill="#525252"/>
<path d="M167.306 452.591C167.755 452.591 167.91 452.964 167.892 453.361V453.443L167.956 456.28L168.043 460.075C168.064 461.01 168.071 461.997 167.608 462.811C167.144 463.625 166.024 464.163 165.206 463.684C164.388 463.204 164.325 462.197 164.304 461.313L164.146 455.489C164.125 454.717 164.125 453.885 164.567 453.254L164.602 453.198C164.69 453.06 165.255 452.322 167.183 452.591C167.224 452.595 167.265 452.595 167.306 452.591Z" fill="#525252"/>
<path d="M154.469 467.824C154.922 467.824 155.073 468.196 155.059 468.593C155.057 468.621 155.057 468.648 155.059 468.676L155.125 471.512L155.21 475.307C155.231 476.242 155.241 477.229 154.774 478.047C154.307 478.864 153.191 479.396 152.372 478.916C151.554 478.437 151.495 477.429 151.47 476.546L151.316 470.722C151.294 469.953 151.291 469.121 151.733 468.486L151.772 468.431C151.856 468.296 152.422 467.555 154.349 467.827C154.388 467.817 154.427 467.824 154.469 467.824Z" fill="#525252"/>
<path d="M160.912 467.679C161.365 467.679 161.516 468.052 161.502 468.448C161.5 468.476 161.5 468.504 161.502 468.531L161.568 471.367L161.653 475.163C161.674 476.098 161.684 477.084 161.217 477.902C160.75 478.72 159.634 479.251 158.816 478.771C157.997 478.292 157.938 477.284 157.913 476.401L157.755 470.577C157.738 469.808 157.734 468.976 158.176 468.341C158.176 468.324 158.201 468.307 158.212 468.286C158.299 468.152 158.865 467.41 160.792 467.682C160.824 467.672 160.87 467.679 160.912 467.679Z" fill="#525252"/>
<path d="M167.306 467.727C167.755 467.727 167.91 468.1 167.892 468.497V468.579L167.956 471.415L168.043 475.211C168.064 476.146 168.071 477.132 167.608 477.95C167.144 478.768 166.024 479.299 165.206 478.82C164.388 478.34 164.325 477.333 164.304 476.449L164.146 470.618C164.125 469.849 164.125 469.018 164.567 468.383C164.567 468.365 164.592 468.348 164.602 468.328C164.69 468.193 165.255 467.451 167.183 467.724C167.222 467.72 167.264 467.727 167.306 467.727Z" fill="#525252"/>
<path d="M374.431 119.293V186.599L349.633 187.258L350 118.116L374.431 119.293Z" fill="#FBEDEA" stroke="#263238" stroke-width="1.2"/>
<path d="M357.165 125.314C357.592 125.314 357.734 125.665 357.721 126.039C357.719 126.064 357.719 126.089 357.721 126.113L357.784 128.785L357.863 132.361C357.883 133.241 357.893 134.171 357.453 134.938C357.013 135.705 355.961 136.212 355.193 135.761C354.426 135.309 354.363 134.356 354.34 133.528L354.195 128.038C354.175 127.313 354.171 126.529 354.588 125.935L354.625 125.883C354.704 125.753 355.236 125.054 357.053 125.311L357.165 125.314Z" fill="#525252"/>
<path d="M363.235 125.177C363.662 125.177 363.804 125.528 363.791 125.902C363.789 125.927 363.789 125.952 363.791 125.977L363.853 128.649L363.933 132.224C363.953 133.105 363.963 134.035 363.523 134.802C363.083 135.569 362.031 136.076 361.26 135.624C360.489 135.172 360.433 134.22 360.41 133.391L360.258 127.888C360.241 127.163 360.238 126.38 360.655 125.785L360.691 125.733C360.77 125.603 361.303 124.904 363.119 125.161L363.235 125.177Z" fill="#525252"/>
<path d="M369.252 125.223C369.675 125.223 369.821 125.574 369.804 125.948V126.022L369.864 128.694L369.947 132.27C369.966 133.15 369.973 134.08 369.536 134.847C369.1 135.614 368.045 136.121 367.274 135.669C366.503 135.218 366.443 134.265 366.424 133.436L366.275 127.937C366.255 127.212 366.255 126.429 366.672 125.834L366.705 125.782C366.788 125.652 367.32 124.953 369.136 125.21L369.252 125.223Z" fill="#525252"/>
<path d="M357.072 139.404C357.499 139.404 357.641 139.755 357.628 140.129C357.626 140.155 357.626 140.181 357.628 140.207L357.691 142.879L357.77 146.454C357.79 147.335 357.8 148.265 357.36 149.032C356.92 149.799 355.868 150.306 355.101 149.854C354.333 149.402 354.27 148.453 354.247 147.621L354.102 142.135C354.082 141.406 354.079 140.626 354.495 140.028L354.532 139.976C354.611 139.846 355.144 139.151 356.96 139.407C357.013 139.398 357.033 139.404 357.072 139.404Z" fill="#525252"/>
<path d="M363.142 139.264C363.569 139.264 363.711 139.615 363.698 139.989C363.696 140.015 363.696 140.041 363.698 140.067L363.761 142.739L363.84 146.314C363.86 147.195 363.87 148.125 363.43 148.892C362.99 149.659 361.938 150.166 361.167 149.714C360.397 149.262 360.34 148.313 360.317 147.481L360.168 141.995C360.152 141.267 360.149 140.486 360.565 139.888L360.598 139.836C360.681 139.706 361.214 139.011 363.03 139.268C363.063 139.264 363.102 139.264 363.142 139.264Z" fill="#525252"/>
<path d="M369.166 139.313C369.589 139.313 369.735 139.664 369.718 140.038V140.116L369.778 142.788L369.861 146.363C369.88 147.244 369.887 148.174 369.45 148.941C369.014 149.708 367.959 150.215 367.188 149.763C366.417 149.311 366.358 148.362 366.338 147.53L366.189 142.043C366.169 141.315 366.169 140.535 366.586 139.937L366.619 139.885C366.702 139.755 367.234 139.06 369.05 139.316C369.087 139.307 369.126 139.313 369.166 139.313Z" fill="#525252"/>
<path d="M356.98 154.866C357.406 154.866 357.549 155.217 357.535 155.591C357.534 155.617 357.534 155.643 357.535 155.669L357.598 158.341L357.678 161.916C357.697 162.797 357.707 163.727 357.267 164.494C356.828 165.261 355.776 165.768 355.005 165.316C354.234 164.864 354.178 163.915 354.155 163.083L354.009 157.596C353.989 156.868 353.986 156.085 354.403 155.49L354.439 155.438C354.519 155.308 355.051 154.613 356.867 154.866C356.905 154.869 356.942 154.869 356.98 154.866Z" fill="#525252"/>
<path d="M363.05 154.739C363.476 154.739 363.618 155.09 363.605 155.464C363.604 155.49 363.604 155.516 363.605 155.542L363.668 158.214L363.747 161.789C363.767 162.67 363.777 163.6 363.337 164.367C362.897 165.134 361.845 165.641 361.075 165.189C360.304 164.737 360.248 163.788 360.225 162.956L360.072 157.466C360.056 156.738 360.053 155.955 360.469 155.36L360.502 155.308C360.585 155.178 361.118 154.483 362.934 154.736C362.972 154.74 363.011 154.742 363.05 154.739Z" fill="#525252"/>
<path d="M369.073 154.785C369.497 154.785 369.642 155.136 369.626 155.51V155.588L369.685 158.26L369.768 161.835C369.788 162.716 369.795 163.645 369.358 164.412C368.921 165.18 367.866 165.687 367.095 165.235C366.325 164.783 366.265 163.834 366.245 163.002L366.096 157.515C366.076 156.787 366.076 156.004 366.493 155.409L366.526 155.357C366.609 155.227 367.142 154.531 368.958 154.785C368.996 154.788 369.035 154.788 369.073 154.785Z" fill="#525252"/>
<path d="M356.98 169.135C357.406 169.135 357.549 169.486 357.535 169.86C357.534 169.886 357.534 169.912 357.535 169.938L357.598 172.61L357.678 176.185C357.697 177.066 357.707 177.996 357.267 178.766C356.828 179.536 355.776 180.037 355.005 179.585C354.234 179.133 354.178 178.184 354.155 177.352L354.009 171.866C353.989 171.141 353.986 170.357 354.403 169.759L354.439 169.707C354.519 169.581 355.051 168.882 356.867 169.138C356.904 169.129 356.94 169.135 356.98 169.135Z" fill="#525252"/>
<path d="M363.05 168.999C363.476 168.999 363.619 169.35 363.605 169.724C363.604 169.75 363.604 169.776 363.605 169.802L363.668 172.473L363.748 176.049C363.767 176.93 363.777 177.859 363.337 178.63C362.897 179.4 361.846 179.9 361.075 179.449C360.304 178.997 360.248 178.048 360.225 177.216L360.076 171.729C360.059 171.004 360.056 170.221 360.473 169.623C360.473 169.607 360.496 169.59 360.506 169.571C360.589 169.444 361.121 168.745 362.937 169.002C362.967 168.992 363.01 168.999 363.05 168.999Z" fill="#525252"/>
<path d="M369.073 169.044C369.497 169.044 369.642 169.395 369.626 169.769V169.847L369.685 172.519L369.768 176.094C369.788 176.975 369.795 177.905 369.358 178.675C368.921 179.445 367.866 179.946 367.095 179.494C366.325 179.042 366.265 178.093 366.245 177.261L366.096 171.768C366.076 171.043 366.076 170.26 366.493 169.662C366.493 169.645 366.516 169.629 366.526 169.61C366.609 169.483 367.142 168.784 368.958 169.041C368.994 169.038 369.034 169.044 369.073 169.044Z" fill="#525252"/>
<path d="M369.03 377.498V432.523L342.634 432.972L343.023 377.495L369.03 377.498Z" fill="#EC644E" stroke="#263238" stroke-width="1.2"/>
<path d="M350.567 383.875C351.02 383.875 351.171 384.248 351.157 384.645V384.728L351.22 387.564L351.308 391.359C351.329 392.294 351.336 393.281 350.872 394.095C350.409 394.909 349.289 395.447 348.47 394.968C347.652 394.488 347.589 393.481 347.565 392.597L347.41 386.773C347.389 386.001 347.385 385.173 347.828 384.538L347.866 384.483C347.954 384.348 348.52 383.606 350.444 383.879L350.567 383.875Z" fill="white"/>
<path d="M357.01 383.73C357.463 383.73 357.614 384.103 357.6 384.5C357.598 384.527 357.598 384.555 357.6 384.583L357.663 387.419L357.747 391.214C357.768 392.149 357.779 393.136 357.315 393.95C356.852 394.764 355.732 395.302 354.914 394.823C354.095 394.343 354.032 393.336 354.008 392.453L353.853 386.601C353.832 385.828 353.829 385 354.271 384.365L354.32 384.324C354.408 384.186 354.973 383.447 356.897 383.72L357.01 383.73Z" fill="white"/>
<path d="M363.404 383.779C363.857 383.779 364.008 384.151 363.994 384.548C363.992 384.576 363.992 384.603 363.994 384.631L364.057 387.467L364.141 391.262C364.162 392.197 364.173 393.184 363.706 393.998C363.239 394.812 362.122 395.351 361.308 394.871C360.493 394.391 360.426 393.384 360.402 392.501L360.247 386.677C360.226 385.904 360.223 385.076 360.665 384.441L360.704 384.386C360.788 384.248 361.353 383.509 363.281 383.782C363.323 383.772 363.362 383.779 363.404 383.779Z" fill="white"/>
<path d="M350.458 399.274C350.911 399.274 351.062 399.646 351.048 400.043V400.126L351.111 402.958L351.199 406.754C351.22 407.689 351.227 408.675 350.763 409.49C350.3 410.304 349.18 410.842 348.362 410.362C347.543 409.883 347.48 408.875 347.456 407.992L347.298 402.154C347.277 401.385 347.273 400.554 347.716 399.922L347.754 399.867C347.842 399.729 348.407 398.991 350.331 399.26L350.458 399.274Z" fill="white"/>
<path d="M356.912 399.129C357.365 399.129 357.516 399.501 357.502 399.898C357.5 399.926 357.5 399.953 357.502 399.981L357.565 402.813L357.649 406.609C357.67 407.544 357.681 408.53 357.217 409.345C356.754 410.159 355.634 410.697 354.815 410.218C353.997 409.738 353.934 408.727 353.909 407.847L353.755 402.02C353.734 401.251 353.73 400.419 354.173 399.788L354.211 399.732C354.299 399.594 354.861 398.856 356.789 399.125L356.912 399.129Z" fill="white"/>
<path d="M363.306 399.177C363.759 399.177 363.91 399.549 363.896 399.946C363.894 399.974 363.894 400.001 363.896 400.029L363.959 402.862L364.043 406.657C364.064 407.592 364.075 408.579 363.608 409.393C363.141 410.207 362.024 410.745 361.209 410.266C360.395 409.786 360.328 408.779 360.304 407.896L360.149 402.058C360.128 401.288 360.124 400.457 360.567 399.825L360.605 399.77C360.69 399.632 361.255 398.894 363.183 399.163L363.306 399.177Z" fill="white"/>
<path d="M350.458 415.434C350.911 415.434 351.062 415.807 351.048 416.204V416.273L351.111 419.109L351.199 422.904C351.22 423.839 351.227 424.826 350.763 425.643C350.3 426.461 349.18 426.992 348.362 426.513C347.543 426.033 347.48 425.026 347.456 424.143L347.298 418.319C347.277 417.549 347.273 416.718 347.716 416.083C347.73 416.066 347.743 416.047 347.754 416.028C347.842 415.893 348.407 415.151 350.331 415.424L350.458 415.434Z" fill="white"/>
<path d="M356.912 415.289C357.365 415.289 357.516 415.662 357.502 416.059C357.5 416.086 357.5 416.114 357.502 416.142L357.565 418.978L357.649 422.773C357.67 423.708 357.681 424.695 357.217 425.512C356.754 426.33 355.634 426.861 354.815 426.382C353.997 425.902 353.934 424.895 353.909 424.012L353.755 418.188C353.734 417.418 353.73 416.587 354.173 415.952L354.211 415.897C354.299 415.762 354.861 415.02 356.789 415.293L356.912 415.289Z" fill="white"/>
<path d="M363.306 415.338C363.759 415.338 363.91 415.71 363.896 416.107C363.894 416.135 363.894 416.162 363.896 416.19L363.959 419.026L364.043 422.821C364.064 423.756 364.075 424.743 363.608 425.561C363.141 426.378 362.024 426.91 361.209 426.43C360.395 425.951 360.328 424.943 360.304 424.06L360.149 418.236C360.128 417.467 360.124 416.635 360.567 416L360.605 415.945C360.69 415.81 361.255 415.069 363.183 415.341C363.225 415.331 363.264 415.338 363.306 415.338Z" fill="white"/>
<path d="M409.674 189.752H359.387C359.034 188.805 358.941 187.783 359.118 186.789C359.43 185.142 360.625 183.671 362.153 183.302C362.94 183.127 363.764 183.229 364.482 183.591C365.2 183.953 365.765 184.552 366.078 185.282C366.154 183.763 366.455 182.263 366.972 180.829C367.465 179.423 368.451 178.235 369.753 177.477C370.23 177.195 370.795 177.097 371.34 177.201C371.876 177.395 372.344 177.736 372.689 178.183C373.455 179.028 374.133 179.946 374.714 180.922C374.993 179.199 375.483 177.515 376.174 175.907C376.925 174.348 378.126 172.955 379.686 172.404C380.809 172.05 382.011 172.021 383.15 172.321C384.971 172.687 386.594 173.692 387.715 175.148C388.936 176.837 389.301 179.051 389.587 181.161C389.777 179.041 391.591 177.471 393.469 176.733C393.918 176.53 394.408 176.43 394.902 176.442C395.325 176.512 395.73 176.663 396.093 176.886C396.456 177.11 396.77 177.403 397.018 177.747C398.364 179.382 399.055 181.445 398.959 183.547C399.086 182.736 399.475 181.988 400.069 181.412C400.662 180.835 401.428 180.462 402.254 180.345C403.065 180.289 403.878 180.42 404.628 180.728C405.378 181.036 406.045 181.512 406.575 182.117C407.694 183.386 408.505 184.888 408.949 186.509C409.284 187.568 409.527 188.652 409.674 189.752Z" fill="#B6DB6B" stroke="#263238" stroke-miterlimit="10" stroke-linejoin="round"/>
<path d="M404.821 189.34H364.673C364.676 189.321 364.676 189.301 364.673 189.282C364.632 188.988 364.673 188.688 364.79 188.413C364.907 188.139 365.097 187.901 365.34 187.723C365.638 187.558 365.976 187.475 366.318 187.484C366.804 187.485 367.284 187.585 367.729 187.776C368.174 187.967 368.574 188.247 368.904 188.596C369.195 187.89 369.491 187.183 369.782 186.481C370.253 185.343 370.798 184.122 371.898 183.514C372.482 183.233 373.131 183.107 373.78 183.147C374.429 183.187 375.056 183.392 375.6 183.742C376.673 184.445 377.585 185.36 378.276 186.429C378.493 185.262 378.835 184.121 379.297 183.025C379.514 182.428 379.877 181.893 380.355 181.466C381.196 180.822 382.396 180.879 383.422 181.175C384.539 181.509 385.566 182.083 386.43 182.855C387.293 183.627 387.971 184.578 388.415 185.639C388.821 184.603 389.468 183.674 390.303 182.927C390.729 182.556 391.245 182.3 391.801 182.184C392.357 182.067 392.934 182.094 393.477 182.261C394.936 182.781 395.55 184.465 395.989 185.936C397.171 185.3 398.531 185.058 399.866 185.246C401.2 185.435 402.436 186.043 403.388 186.98C404.022 187.664 404.509 188.467 404.821 189.34Z" fill="#92C25A"/>
<path d="M338.674 430.888H288.387C288.034 429.941 287.941 428.92 288.118 427.926C288.43 426.279 289.625 424.808 291.153 424.439C291.94 424.263 292.764 424.365 293.482 424.727C294.2 425.089 294.765 425.688 295.078 426.419C295.154 424.9 295.455 423.399 295.972 421.965C296.465 420.559 297.451 419.371 298.753 418.613C299.23 418.332 299.795 418.234 300.34 418.338C300.876 418.531 301.344 418.872 301.689 419.32C302.455 420.165 303.133 421.082 303.714 422.059C303.993 420.335 304.483 418.651 305.174 417.044C305.925 415.485 307.126 414.092 308.686 413.541C309.809 413.187 311.011 413.158 312.15 413.458C313.971 413.824 315.594 414.829 316.715 416.285C317.936 417.974 318.301 420.188 318.587 422.298C318.777 420.177 320.591 418.608 322.469 417.87C322.918 417.666 323.408 417.567 323.902 417.579C324.325 417.648 324.73 417.799 325.093 418.023C325.456 418.247 325.77 418.539 326.018 418.883C327.364 420.519 328.055 422.582 327.959 424.683C328.086 423.873 328.475 423.125 329.069 422.548C329.662 421.972 330.428 421.598 331.254 421.482C332.065 421.426 332.878 421.557 333.628 421.865C334.378 422.172 335.045 422.648 335.575 423.254C336.694 424.523 337.505 426.024 337.949 427.645C338.284 428.704 338.527 429.789 338.674 430.888Z" fill="#B6DB6B" stroke="#263238" stroke-miterlimit="10" stroke-linejoin="round"/>
<path d="M333.821 430.476H293.673C293.676 430.457 293.676 430.438 293.673 430.419C293.632 430.124 293.673 429.824 293.79 429.55C293.907 429.276 294.097 429.037 294.34 428.86C294.638 428.694 294.976 428.612 295.318 428.621C295.804 428.622 296.284 428.721 296.729 428.912C297.174 429.104 297.574 429.383 297.904 429.733C298.195 429.026 298.491 428.319 298.782 427.618C299.253 426.48 299.798 425.258 300.898 424.65C301.482 424.37 302.131 424.243 302.78 424.283C303.429 424.323 304.056 424.529 304.6 424.879C305.673 425.581 306.585 426.496 307.276 427.566C307.493 426.399 307.835 425.258 308.297 424.162C308.514 423.565 308.877 423.029 309.355 422.603C310.196 421.958 311.396 422.015 312.422 422.312C313.539 422.646 314.566 423.22 315.43 423.992C316.293 424.764 316.971 425.715 317.415 426.776C317.821 425.74 318.468 424.811 319.303 424.063C319.729 423.693 320.245 423.437 320.801 423.32C321.357 423.203 321.934 423.23 322.477 423.398C323.936 423.918 324.55 425.601 324.989 427.072C326.171 426.436 327.531 426.194 328.866 426.383C330.2 426.571 331.436 427.18 332.388 428.117C333.022 428.801 333.509 429.603 333.821 430.476Z" fill="#92C25A"/>
<path d="M347.532 406.453V433.489H318.731V406.453H347.532Z" fill="white" stroke="#263238"/>
<path d="M345.722 395.662L352.208 408.199H315.83L322.195 395.09L345.722 395.662Z" fill="#FF6B43" stroke="#263238"/>
<path d="M332.281 425.762C332.925 425.762 333.54 426.013 333.992 426.456C334.444 426.899 334.696 427.497 334.696 428.119V433.59H329.866V428.119L329.878 427.888C329.932 427.35 330.175 426.844 330.57 426.456C331.022 426.013 331.638 425.762 332.281 425.762Z" fill="#2E292B" stroke="#263238"/>
<rect x="322.031" y="411.49" width="4" height="4.91304" rx="1" fill="#8CBBE5"/>
<rect x="322.031" y="418.368" width="4" height="4.91304" rx="1" fill="#8CBBE5"/>
<rect x="328.031" y="411.49" width="4" height="4.91304" rx="1" fill="#8CBBE5"/>
<rect x="328.031" y="418.368" width="4" height="4.91304" rx="1" fill="#8CBBE5"/>
<path d="M334.031 412.49C334.031 411.937 334.478 411.49 335.031 411.49H337.031C337.583 411.49 338.031 411.937 338.031 412.49V415.403C338.031 415.955 337.583 416.403 337.031 416.403H335.031C334.478 416.403 334.031 415.955 334.031 415.403V412.49Z" fill="#8CBBE5"/>
<path d="M340.031 412.49C340.031 411.937 340.478 411.49 341.031 411.49H343.031C343.583 411.49 344.031 411.937 344.031 412.49V415.403C344.031 415.955 343.583 416.403 343.031 416.403H341.031C340.478 416.403 340.031 415.955 340.031 415.403V412.49Z" fill="#8CBBE5"/>
<path d="M334.031 419.368C334.031 418.816 334.478 418.368 335.031 418.368H337.031C337.583 418.368 338.031 418.816 338.031 419.368V422.281C338.031 422.833 337.583 423.281 337.031 423.281H335.031C334.478 423.281 334.031 422.833 334.031 422.281V419.368Z" fill="#8CBBE5"/>
<path d="M340.031 419.368C340.031 418.816 340.478 418.368 341.031 418.368H343.031C343.583 418.368 344.031 418.816 344.031 419.368V422.281C344.031 422.833 343.583 423.281 343.031 423.281H341.031C340.478 423.281 340.031 422.833 340.031 422.281V419.368Z" fill="#8CBBE5"/>
<path d="M203.96 489.02H153.266C152.783 487.454 153.035 485.483 154.105 484.485C155.263 483.384 157.286 484.048 157.621 485.829C158.792 483.062 158.389 479.257 160.236 477.17C160.797 476.53 161.581 476.118 162.434 476.015C163.287 475.913 164.149 476.126 164.851 476.614C166.312 477.562 167.31 479.413 167.789 481.401C167.789 480.048 168.456 478.729 169.438 478.193C169.93 477.947 170.495 477.879 171.033 478C171.572 478.121 172.049 478.425 172.384 478.857C172.938 476.906 173.521 474.919 174.561 473.315C176.739 469.946 180.935 468.981 183.911 471.146C186.886 473.311 188.333 478.354 187.121 482.419C188.145 481.442 189.219 480.465 190.398 479.883C191.577 479.302 192.983 479.141 194.174 479.801C194.818 480.215 195.333 480.797 195.66 481.481C195.988 482.165 196.115 482.925 196.029 483.677C197.469 481.203 200.645 480.79 202.466 482.819C203.809 484.336 204.212 486.691 203.96 489.02Z" fill="#87C880" stroke="#263238" stroke-width="1.2" stroke-miterlimit="10" stroke-linejoin="round"/>
<path d="M199.394 488.214H158.44C158.517 487.839 158.734 487.503 159.05 487.267C159.442 487.012 159.924 486.914 160.391 486.994C160.858 487.075 161.273 487.328 161.547 487.698C162.103 486.596 162.658 485.496 163.212 484.399C163.501 483.821 163.848 483.194 164.476 482.967C165.105 482.739 165.788 482.987 166.362 483.311C167.666 484.011 168.736 485.048 169.447 486.303L171.3 483.583C171.509 483.214 171.809 482.898 172.175 482.664C172.453 482.54 172.76 482.484 173.067 482.504C173.374 482.523 173.671 482.616 173.93 482.774C174.444 483.095 174.893 483.502 175.256 483.976C176.015 482.466 177.006 481.074 178.197 479.844C178.445 479.538 178.774 479.3 179.15 479.155C179.547 479.066 179.964 479.091 180.346 479.228C181.705 479.645 182.887 480.469 183.718 481.576C184.549 482.683 184.984 484.016 184.959 485.377C185.711 484.72 186.564 484.177 187.488 483.766C188.297 483.421 189.294 483.16 190.053 483.6C190.941 484.113 191.082 485.267 191.136 486.258C192.624 485.849 194.162 485.631 195.71 485.611C196.442 485.551 197.177 485.697 197.823 486.031C198.252 486.329 198.603 486.718 198.849 487.167C199.053 487.505 199.235 487.855 199.394 488.214Z" fill="#7ABC71"/>
<path d="M147.03 433.255V488.28L120.634 488.728L121.023 433.252L147.03 433.255Z" fill="#EC644E" stroke="#263238" stroke-width="1.2"/>
<path d="M128.567 439.632C129.02 439.632 129.171 440.005 129.157 440.401V440.484L129.22 443.32L129.308 447.115C129.329 448.05 129.336 449.037 128.872 449.851C128.409 450.666 127.289 451.204 126.47 450.724C125.652 450.245 125.589 449.237 125.565 448.354L125.41 442.53C125.389 441.757 125.385 440.929 125.828 440.294L125.866 440.239C125.954 440.105 126.52 439.363 128.444 439.635L128.567 439.632Z" fill="white"/>
<path d="M135.01 439.487C135.463 439.487 135.614 439.86 135.6 440.256C135.598 440.284 135.598 440.312 135.6 440.339L135.663 443.175L135.747 446.97C135.768 447.905 135.779 448.892 135.315 449.707C134.852 450.521 133.732 451.059 132.914 450.579C132.095 450.1 132.032 449.092 132.008 448.209L131.853 442.358C131.832 441.585 131.829 440.757 132.271 440.122L132.32 440.08C132.408 439.942 132.973 439.204 134.897 439.477L135.01 439.487Z" fill="white"/>
<path d="M141.404 439.535C141.857 439.535 142.008 439.908 141.994 440.305C141.992 440.332 141.992 440.36 141.994 440.387L142.057 443.223L142.141 447.019C142.162 447.954 142.173 448.94 141.706 449.755C141.239 450.569 140.122 451.107 139.308 450.628C138.493 450.148 138.426 449.141 138.402 448.257L138.247 442.433C138.226 441.661 138.223 440.832 138.665 440.198L138.704 440.142C138.788 440.004 139.353 439.266 141.281 439.539C141.323 439.528 141.362 439.535 141.404 439.535Z" fill="white"/>
<path d="M128.458 455.03C128.911 455.03 129.062 455.403 129.048 455.799V455.882L129.111 458.715L129.199 462.51C129.22 463.445 129.227 464.432 128.763 465.246C128.3 466.06 127.18 466.599 126.362 466.119C125.543 465.639 125.48 464.632 125.456 463.749L125.298 457.911C125.277 457.142 125.273 456.31 125.716 455.679L125.754 455.624C125.842 455.486 126.407 454.747 128.331 455.016L128.458 455.03Z" fill="white"/>
<path d="M134.912 454.885C135.365 454.885 135.516 455.258 135.502 455.655C135.5 455.682 135.5 455.71 135.502 455.737L135.565 458.57L135.649 462.365C135.67 463.3 135.681 464.287 135.217 465.101C134.754 465.916 133.634 466.454 132.815 465.974C131.997 465.495 131.934 464.484 131.909 463.604L131.755 457.777C131.734 457.007 131.73 456.176 132.173 455.544L132.211 455.489C132.299 455.351 132.861 454.613 134.789 454.882L134.912 454.885Z" fill="white"/>
<path d="M141.306 454.933C141.759 454.933 141.91 455.306 141.896 455.703C141.894 455.73 141.894 455.758 141.896 455.786L141.959 458.618L142.043 462.413C142.064 463.348 142.075 464.335 141.608 465.149C141.141 465.964 140.024 466.502 139.209 466.022C138.395 465.543 138.328 464.535 138.304 463.652L138.149 457.814C138.128 457.045 138.124 456.213 138.567 455.582L138.605 455.527C138.69 455.389 139.255 454.651 141.183 454.92L141.306 454.933Z" fill="white"/>
<path d="M128.458 471.191C128.911 471.191 129.062 471.564 129.048 471.96V472.029L129.111 474.865L129.199 478.661C129.22 479.596 129.227 480.582 128.763 481.4C128.3 482.218 127.18 482.749 126.362 482.27C125.543 481.79 125.48 480.782 125.456 479.899L125.298 474.075C125.277 473.306 125.273 472.474 125.716 471.84C125.73 471.823 125.743 471.804 125.754 471.784C125.842 471.65 126.407 470.908 128.331 471.181L128.458 471.191Z" fill="white"/>
<path d="M134.912 471.046C135.365 471.046 135.516 471.419 135.502 471.815C135.5 471.843 135.5 471.871 135.502 471.898L135.565 474.734L135.649 478.529C135.67 479.464 135.681 480.451 135.217 481.269C134.754 482.087 133.634 482.618 132.815 482.138C131.997 481.659 131.934 480.651 131.909 479.768L131.755 473.944C131.734 473.175 131.73 472.343 132.173 471.708L132.211 471.653C132.299 471.519 132.861 470.777 134.789 471.049L134.912 471.046Z" fill="white"/>
<path d="M141.306 471.094C141.759 471.094 141.91 471.467 141.896 471.864C141.894 471.891 141.894 471.919 141.896 471.947L141.959 474.783L142.043 478.578C142.064 479.513 142.075 480.5 141.608 481.317C141.141 482.135 140.024 482.666 139.209 482.187C138.395 481.707 138.328 480.7 138.304 479.816L138.149 473.992C138.128 473.223 138.124 472.392 138.567 471.757L138.605 471.702C138.69 471.567 139.255 470.825 141.183 471.098C141.225 471.087 141.264 471.094 141.306 471.094Z" fill="white"/>
<path d="M266.076 40.6638V92.2126H228.795V40.655L246.896 23.3318L266.076 40.6638Z" fill="white" stroke="#263238"/>
<path d="M241.011 56.2949H235.96V64.3425H241.011V56.2949Z" fill="#8CBBE5"/>
<path d="M241.051 45.5479H236V53.5954H241.051V45.5479Z" fill="#8CBBE5"/>
<path d="M249.385 56.4259H244.334V64.4735H249.385V56.4259Z" fill="#8CBBE5"/>
<path d="M249.426 45.5479H244.375V53.5954H249.426V45.5479Z" fill="#8CBBE5"/>
<path d="M257.847 55.8752H252.796V63.9228H257.847V55.8752Z" fill="#8CBBE5"/>
<path d="M257.887 45.5479H252.836V53.5954H257.887V45.5479Z" fill="#8CBBE5"/>
<path d="M240.479 67.9773H235.428V76.0249H240.479V67.9773Z" fill="#8CBBE5"/>
<path d="M248.853 68.1083H243.802V76.1558H248.853V68.1083Z" fill="#8CBBE5"/>
<path d="M257.315 67.5615H252.264V75.6091H257.315V67.5615Z" fill="#8CBBE5"/>
<path d="M240.817 79.3209H235.767V87.3685H240.817V79.3209Z" fill="#8CBBE5"/>
<path d="M249.188 79.4519H244.137V87.4995H249.188V79.4519Z" fill="#8CBBE5"/>
<path d="M257.65 78.9052H252.599V86.9527H257.65V78.9052Z" fill="#8CBBE5"/>
<path d="M275.284 46.4854L273.254 48.6152L247.206 24.9287L246.874 24.626L246.538 24.9248L220.718 47.8496L218.714 45.6973L246.897 20.6719L275.284 46.4854Z" fill="#FF6B43" stroke="#263238"/>
<path d="M246.5 40.6347C248.985 40.6347 251 38.6551 251 36.213C251 33.7709 248.985 31.7913 246.5 31.7913C244.015 31.7913 242 33.7709 242 36.213C242 38.6551 244.015 40.6347 246.5 40.6347Z" fill="#8CBBE5"/>
<path d="M293.929 97.0029H243.235C242.752 95.4361 243.004 93.4652 244.074 92.4674C245.232 91.3665 247.255 92.0303 247.591 93.8115C248.761 91.0449 248.359 87.2391 250.205 85.1528C250.766 84.5126 251.55 84.101 252.403 83.998C253.257 83.8951 254.119 84.1084 254.821 84.5961C256.281 85.5445 257.28 87.3958 257.758 89.3832C257.758 88.0308 258.425 86.7113 259.407 86.1753C259.9 85.9295 260.464 85.8613 261.002 85.9826C261.541 86.104 262.019 86.4071 262.353 86.8392C262.907 84.8889 263.49 82.9015 264.531 81.2975C266.709 77.9289 270.905 76.964 273.88 79.1287C276.855 81.2934 278.303 86.3361 277.09 90.4016C278.114 89.4244 279.188 88.4472 280.367 87.8658C281.546 87.2845 282.952 87.1237 284.144 87.7834C284.788 88.1975 285.302 88.7791 285.629 89.4634C285.957 90.1477 286.085 90.9078 285.998 91.6592C287.438 89.1853 290.614 88.773 292.435 90.8016C293.778 92.3189 294.181 94.6733 293.929 97.0029Z" fill="#87C880" stroke="#263238" stroke-width="1.2" stroke-miterlimit="10" stroke-linejoin="round"/>
<path d="M289.364 96.1967H248.409C248.487 95.8214 248.703 95.4852 249.02 95.2498C249.412 94.9945 249.893 94.8965 250.36 94.9771C250.828 95.0576 251.243 95.3102 251.516 95.6802C252.072 94.5784 252.627 93.4789 253.181 92.3817C253.47 91.8033 253.817 91.1766 254.446 90.9494C255.074 90.7221 255.757 90.97 256.331 91.2937C257.635 91.9934 258.705 93.0308 259.416 94.2857L261.27 91.5657C261.478 91.1962 261.778 90.8807 262.144 90.6464C262.422 90.5222 262.73 90.4671 263.036 90.4864C263.343 90.5057 263.64 90.5986 263.899 90.7566C264.414 91.0779 264.863 91.4849 265.225 91.9582C265.984 90.4489 266.975 89.0563 268.166 87.8265C268.414 87.5205 268.743 87.2828 269.119 87.1379C269.517 87.0483 269.933 87.0734 270.315 87.2102C271.674 87.628 272.857 88.4514 273.687 89.5587C274.518 90.666 274.953 91.9985 274.928 93.3596C275.68 92.7027 276.533 92.1592 277.457 91.7482C278.266 91.4039 279.263 91.1422 280.022 91.5829C280.911 92.0959 281.051 93.2494 281.106 94.241C282.593 93.8316 284.131 93.6139 285.679 93.5937C286.411 93.5332 287.146 93.6793 287.792 94.0137C288.222 94.3121 288.573 94.701 288.818 95.15C289.022 95.488 289.204 95.8376 289.364 96.1967Z" fill="#7ABC71"/>
</svg>
