<svg width="662" height="609" viewBox="0 0 662 609" fill="none" xmlns="http://www.w3.org/2000/svg">
<path d="M196.949 212.838C201.007 223.627 204.837 233.818 212.437 242.435C213.282 243.411 214.229 244.32 215.266 245.152C215.859 245.623 216.556 245.989 217.316 246.229C218.077 246.47 218.886 246.579 219.696 246.551C220.507 246.523 221.303 246.359 222.038 246.067C222.773 245.776 223.433 245.363 223.98 244.853L224.94 243.973C229.845 239.366 234.904 234.609 243.35 234.767C248.667 234.864 257.805 238.944 267.593 243.27C276.194 247.086 285.93 251.412 290.122 251.412C299.208 251.412 306.529 247.992 314.283 244.378C328.263 237.854 344.092 230.468 373.074 242.531C379.001 244.993 386.414 244.343 393.59 243.71C404.049 242.786 413.61 237.555 422.056 232.886C430.502 228.217 439.402 223.363 445.69 216.558C449.892 212.003 452.918 206.587 455.84 201.337L486.216 146.875C483.118 145.574 480.021 144.193 476.923 142.698C451.606 130.186 431.989 110.956 412.877 92.0695L374.891 54.5684C362.863 42.6894 349.264 27.091 330.173 23.9432C311.309 20.8042 285.714 19.5468 266.581 20.2415C246.788 20.9537 228.884 29.9135 211.931 38.6359C207.863 40.7286 203.671 42.8916 200.821 46.101C192.974 54.841 197.29 67.2036 200.821 77.8429C209.771 105.15 210.795 133.901 203.805 161.62C201.585 170.413 198.405 179.276 191.735 186.24C190.284 187.736 188.662 189.106 186.892 190.329C187.027 190.549 187.161 190.751 187.285 190.971C191.353 197.97 194.203 205.523 196.949 212.838Z" fill="#B7B7FA"/>
<path d="M181.72 535.436C188.865 531.497 194.234 524.454 196.825 515.599C199.21 507.448 199.148 498.796 199.086 490.426L198.642 430.872C198.591 423.495 198.529 415.863 201.089 408.486C202.305 405.218 203.756 402.017 205.436 398.902C208.689 392.536 211.765 386.521 210.485 380.349C209.669 376.427 207.15 372.919 204.486 369.209C203.216 367.45 201.905 365.612 200.78 363.713C189.887 345.442 196.856 323.671 205.106 304.802C211.838 289.388 213.366 274.493 215.039 257.242C215.255 255.008 215.493 252.74 215.73 250.453C214.256 250.021 212.905 249.329 211.765 248.422C210.487 247.4 209.319 246.281 208.276 245.081C200.191 235.875 196.04 224.858 192.034 214.192C189.339 207.044 186.562 199.649 182.628 192.966C182.632 192.946 182.632 192.925 182.628 192.905C176.929 195.754 170.3 197.073 163.919 195.815C158.942 194.839 154.389 192.404 149.299 192.061C133.326 190.953 126.274 208.521 114.431 217.718C103.827 225.904 88.1642 227.566 76.8789 235.119C68.2471 240.896 63.0639 249.548 58.1389 257.91C34.6597 297.855 10.7262 339.375 8.76443 384.016C8.03135 401.144 10.974 419.187 22.7549 433.053C33.1626 445.319 49.218 453.03 62.6613 462.948C92.1393 484.64 107.575 515.239 121.514 546.787L159.304 541.344C166.759 540.254 175.163 539.049 181.72 535.436Z" fill="#CECEFD"/>
<path d="M659.677 310.447C655.423 301.179 645.139 295.112 635.403 289.608L598.098 268.505C582.115 259.475 564.088 246.778 566.906 230.617C569.384 216.487 587.557 206.393 587.391 192.105C587.154 176.005 564.996 167.845 546.7 163.792C527.805 159.615 508.652 155.483 490.945 148.73L460.548 203.245C457.502 208.705 454.353 214.359 449.779 219.301C447.467 221.764 444.892 224.04 442.087 226.098C440.28 240.658 430.172 252.819 420.352 264.583C413.404 272.875 406.176 281.466 402.098 290.786C397.844 300.458 396.822 310.596 395.748 321.358C395.192 328.51 394.137 335.627 392.588 342.672C391.68 346.374 390.523 350.058 389.346 353.61C387.168 360.337 385.113 366.685 384.731 373.315C384.401 379.162 385.412 385.15 386.404 390.944L392.867 428.92C396.367 449.513 401.798 472.374 421.891 482.855C422.366 483.11 422.861 483.347 423.347 483.594C425.794 484.661 427.992 486.1 429.831 487.841C432.257 490.373 433.094 493.617 433.548 496.158C435.666 508.425 432.548 520.932 424.761 531.409C423.946 532.49 423.078 533.554 422.242 534.583C420.358 536.737 418.725 539.043 417.368 541.468C415.644 544.87 415.066 548.713 414.663 552.019C412.887 566.553 425.123 585.748 439.629 601.768C442.588 600.565 445.253 598.897 447.487 596.853C462.83 582.908 454.115 557.286 470.202 543.974C483.624 532.895 505.493 536.939 523.283 541.767C526.883 519.761 530.493 497.753 534.114 475.742C534.94 470.686 535.735 465.357 533.505 460.618C528.239 449.399 510.552 448.036 498.472 441.687C481.322 432.666 476.263 413.753 472.742 396.844C470.037 383.884 469.851 366.755 484.213 361.884C492.731 359 502.654 362.5 509.189 367.978C515.725 373.455 519.814 380.639 524.749 387.216C539.451 406.669 561.762 421.062 587.732 427.848C591.191 428.727 594.877 429.492 598.387 428.727C603.55 427.654 607.061 423.715 610.148 420.031C617.427 411.344 625.078 401.337 622.786 390.839C620.597 380.833 610.117 373.939 600.391 367.978L563.509 345.521C553.897 339.665 543.747 333.211 539.762 323.732C535.776 314.254 541.765 301.205 553.546 300.361C558.708 299.992 563.726 301.997 568.414 303.94L631.397 330.142C636.208 332.147 641.35 334.196 646.667 333.712C658.448 332.754 663.921 319.714 659.677 310.447Z" fill="#BFBEFB"/>
<path d="M409.563 551.605C410.007 547.939 410.657 543.692 412.66 539.717C413.954 537.322 415.525 535.043 417.348 532.912C412.985 530.786 409.132 527.979 405.99 524.638C405.474 524.084 404.958 523.521 404.472 522.95C403.349 521.535 402.025 520.244 400.528 519.107C394.963 515.265 386.321 516.953 381.664 518.298L380.931 518.518C374.53 520.373 366.569 522.695 360.797 518.386C356.843 515.423 356.254 510.71 356.192 506.489C356.1 498.761 355.573 492.105 350.132 488.904C349.626 488.605 349.099 488.315 348.438 488.025C346.435 487.031 344.174 485.897 343.08 483.628C342.443 482.04 342.29 480.339 342.636 478.687V478.599C343.3 473.158 343.345 467.675 342.77 462.227C342.605 460.706 342.367 459.149 341.438 458.208C340.874 457.725 340.243 457.303 339.559 456.951C338.662 456.473 337.825 455.92 337.06 455.298C334.417 453.038 333.963 450.022 333.498 447.323C333.343 446.075 333.056 444.842 332.641 443.639C331.989 442.101 330.828 440.756 329.298 439.769C327.768 438.781 325.935 438.192 324.02 438.073C319.6 437.88 315.512 440.192 311.196 442.628C310.029 443.287 308.821 443.973 307.613 444.606C300.447 448.317 290.742 449.222 286.065 443.78C283.865 441.23 283.607 438.161 283.39 435.453C283.341 433.883 283.07 432.325 282.585 430.81C281.088 426.977 276.204 424.462 272.663 422.897C262.049 418.346 250.378 415.865 238.498 415.634C226.619 415.403 214.827 417.427 203.98 421.56L203.898 421.393C203.712 424.55 203.722 427.724 203.743 430.854L204.187 490.399C204.249 499.042 204.321 507.984 201.771 516.672C198.859 526.607 192.716 534.582 184.456 539.137C177.011 543.234 168.049 544.527 160.14 545.661L123.342 550.937C130.569 567.318 137.477 583.857 145.943 599.464C147.492 602.331 149.258 605.329 152.396 607.008C155.318 608.573 158.942 608.767 162.391 608.767C230.413 609.33 293.705 572.374 361.665 575.513C365.305 575.56 368.914 576.091 372.362 577.087C379.682 579.496 384.545 585.281 389.914 590.144C401.148 600.282 419.681 606.621 434.498 603.333C419.537 586.6 407.684 567.098 409.563 551.605Z" fill="#DDDBFF"/>
<path d="M275.1 418.976C279.446 420.893 285.425 424.049 287.541 429.413C288.169 431.273 288.516 433.193 288.574 435.128C288.78 437.546 288.945 439.639 290.267 441.169C293.086 444.44 299.942 443.437 304.97 440.826C306.095 440.245 307.21 439.621 308.388 438.953C313.209 436.218 318.186 433.405 324.329 433.677C327.28 433.838 330.11 434.735 332.466 436.256C334.821 437.778 336.599 439.856 337.576 442.233C338.087 443.696 338.433 445.198 338.609 446.717C338.981 448.994 339.301 450.973 340.726 452.195C341.252 452.606 341.822 452.974 342.429 453.294C343.52 453.861 344.511 454.557 345.372 455.36C347.282 457.277 347.685 459.704 347.912 461.823C348.519 467.552 348.471 473.318 347.767 479.039V479.136C347.549 480.061 347.577 481.017 347.85 481.932C348.273 482.811 349.564 483.453 351.051 484.192C351.722 484.526 352.414 484.878 353.116 485.273C361.169 490.074 361.293 499.535 361.376 506.446C361.427 509.867 361.799 513.278 364.225 515.089C367.746 517.727 373.869 515.969 379.279 514.368L380.023 514.149C389.811 511.317 398.247 511.862 403.77 515.696C405.603 517.062 407.226 518.619 408.603 520.33C409.067 520.866 409.532 521.394 410.017 521.904C412.822 524.9 416.287 527.4 420.218 529.263L420.384 529.052C427.484 519.475 430.322 508.05 428.385 496.844C428.003 494.734 427.353 492.343 425.773 490.637C424.303 489.32 422.578 488.228 420.673 487.41C420.156 487.155 419.64 486.9 419.134 486.636C397.131 475.153 391.37 451.157 387.694 429.571L381.231 391.577C380.198 385.581 379.166 379.382 379.517 373.113C379.93 365.999 382.15 359.115 384.308 352.458C385.433 348.941 386.6 345.345 387.478 341.793C388.995 334.917 390.03 327.97 390.575 320.989C391.608 310.438 392.743 299.464 397.245 289.247C401.602 279.391 408.964 270.571 416.088 262.034C424.813 251.57 433.104 241.608 436.047 230.16C432.309 232.499 428.468 234.609 424.834 236.605C415.902 241.503 405.784 247.068 394.106 248.097C386.579 248.765 378.051 249.522 370.782 246.497C344.205 235.436 330.246 241.951 316.751 248.255C308.77 251.984 300.509 255.835 290.102 255.835C284.65 255.835 275.192 251.632 265.187 247.192C256.814 243.481 247.325 239.278 243.216 239.19C237.165 239.085 233.438 242.549 228.761 246.954L227.79 247.833C225.984 249.522 223.525 250.602 220.862 250.876C220.624 253.135 220.397 255.378 220.181 257.576C218.508 274.414 216.928 290.32 209.948 306.305C202.091 324.295 195.4 344.949 205.385 361.7C206.417 363.458 207.625 365.129 208.895 366.896C211.693 370.8 214.584 374.81 215.565 379.567C217.114 387.049 213.583 393.96 210.176 400.669C208.581 403.616 207.201 406.643 206.045 409.735C205.288 411.986 204.746 414.285 204.424 416.611C215.72 412.685 227.872 410.866 240.063 411.274C252.253 411.682 264.2 414.308 275.1 418.976Z" fill="#C6C6FC"/>
<rect x="310" y="354" width="83" height="29" rx="14.5" fill="#736463"/>
<path d="M330.195 362.765H332.13C332.13 363.845 332.045 364.875 331.875 365.855C331.715 366.835 331.415 367.765 330.975 368.645C330.535 369.525 329.91 370.35 329.1 371.12C328.29 371.89 327.235 372.605 325.935 373.265L324.87 371.735C325.95 371.195 326.835 370.62 327.525 370.01C328.225 369.39 328.765 368.73 329.145 368.03C329.535 367.32 329.805 366.55 329.955 365.72C330.115 364.89 330.195 363.99 330.195 363.02V362.765ZM325.74 362.765H331.365V364.355H325.74V362.765ZM330.24 366.17V367.7L325.26 368.18L325.005 366.485L330.24 366.17ZM333.81 361.415H335.82V375.305H333.81V361.415ZM335.31 366.74H337.755V368.375H335.31V366.74ZM348.614 361.445H350.504V375.335H348.614V361.445ZM344.534 366.5H346.394V368.24H344.534V366.5ZM345.854 361.7H347.714V374.675H345.854V361.7ZM338.549 363.005H344.879V364.595H338.549V363.005ZM338.534 372.185L338.324 370.55C338.754 370.55 339.249 370.55 339.809 370.55C340.369 370.54 340.954 370.525 341.564 370.505C342.174 370.475 342.779 370.44 343.379 370.4C343.989 370.35 344.559 370.29 345.089 370.22L345.209 371.66C344.499 371.82 343.734 371.94 342.914 372.02C342.094 372.09 341.299 372.135 340.529 372.155C339.769 372.175 339.104 372.185 338.534 372.185ZM339.404 364.01H341.204V370.985H339.404V364.01ZM342.209 364.01H343.994V370.985H342.209V364.01ZM358.663 363.47H362.203V365.06H358.663V363.47ZM358.663 366.335H362.263V367.91H358.663V366.335ZM352.543 362.255H354.523V364.175H357.163V362.255H359.128V369.11H352.543V362.255ZM354.523 365.72V367.52H357.163V365.72H354.523ZM354.118 370.34H363.598V375.335H361.588V371.93H354.118V370.34ZM361.588 361.445H363.598V369.725H361.588V361.445ZM370.766 365.36H372.746V368.015H370.766V365.36ZM367.046 364.625H376.571V366.185H367.046V364.625ZM367.046 361.895H376.451V363.47H369.026V365.465H367.046V361.895ZM365.471 367.055H378.041V368.63H365.471V367.055ZM366.911 369.35H376.511V372.935H368.906V374.15H366.926V371.555H374.546V370.835H366.911V369.35ZM366.926 373.73H376.886V375.23H366.926V373.73Z" fill="white"/>
<rect x="288" y="119" width="83" height="29" rx="14.5" fill="#736463"/>
<path d="M308.105 127.24H309.83V128.245C309.83 128.845 309.745 129.43 309.575 130C309.415 130.56 309.175 131.09 308.855 131.59C308.535 132.09 308.14 132.545 307.67 132.955C307.21 133.355 306.68 133.7 306.08 133.99C305.48 134.28 304.82 134.495 304.1 134.635L303.245 132.97C303.865 132.86 304.43 132.695 304.94 132.475C305.46 132.245 305.915 131.97 306.305 131.65C306.695 131.33 307.025 130.985 307.295 130.615C307.565 130.235 307.765 129.845 307.895 129.445C308.035 129.035 308.105 128.635 308.105 128.245V127.24ZM308.495 127.24H310.235V128.245C310.235 128.645 310.3 129.05 310.43 129.46C310.57 129.87 310.77 130.265 311.03 130.645C311.3 131.015 311.63 131.355 312.02 131.665C312.41 131.975 312.86 132.245 313.37 132.475C313.88 132.695 314.455 132.86 315.095 132.97L314.24 134.635C313.52 134.495 312.86 134.28 312.26 133.99C311.66 133.7 311.125 133.355 310.655 132.955C310.195 132.555 309.8 132.105 309.47 131.605C309.15 131.105 308.905 130.57 308.735 130C308.575 129.43 308.495 128.845 308.495 128.245V127.24ZM302.945 137.005H315.53V138.64H302.945V137.005ZM317.869 127.645H326.629V129.25H317.869V127.645ZM316.459 137.065H329.029V138.7H316.459V137.065ZM325.789 127.645H327.754V129.265C327.754 129.935 327.744 130.615 327.724 131.305C327.704 131.985 327.649 132.725 327.559 133.525C327.469 134.315 327.319 135.215 327.109 136.225L325.129 136.045C325.349 135.115 325.504 134.26 325.594 133.48C325.684 132.7 325.739 131.965 325.759 131.275C325.779 130.585 325.789 129.915 325.789 129.265V127.645ZM326.194 131.455V132.925L317.719 133.345L317.464 131.74L326.194 131.455ZM339.603 126.415H341.583V140.35H339.603V126.415ZM337.428 131.425H340.008V133.03H337.428V131.425ZM330.438 135.505H331.578C332.338 135.505 333.048 135.495 333.708 135.475C334.378 135.455 335.033 135.42 335.673 135.37C336.313 135.31 336.968 135.225 337.638 135.115L337.818 136.735C337.128 136.845 336.453 136.93 335.793 136.99C335.133 137.05 334.458 137.09 333.768 137.11C333.088 137.13 332.358 137.14 331.578 137.14H330.438V135.505ZM330.423 127.6H336.678V132.835H332.418V135.985H330.438V131.26H334.713V129.19H330.423V127.6ZM353.056 126.445H355.051V140.335H353.056V126.445ZM343.816 127.72H351.616V129.295H343.816V127.72ZM343.651 137.155L343.456 135.535C344.296 135.535 345.206 135.53 346.186 135.52C347.166 135.5 348.166 135.465 349.186 135.415C350.216 135.355 351.206 135.265 352.156 135.145L352.276 136.585C351.306 136.745 350.311 136.87 349.291 136.96C348.281 137.04 347.296 137.09 346.336 137.11C345.376 137.13 344.481 137.145 343.651 137.155ZM345.016 128.965H346.951V135.97H345.016V128.965ZM348.481 128.965H350.416V135.97H348.481V128.965Z" fill="white"/>
<rect y="331" width="137" height="29" rx="14.5" fill="#736463"/>
<path d="M24.4722 338.415H26.4822V352.35H24.4722V338.415ZM15.6672 347.49H16.8972C17.7172 347.49 18.4922 347.48 19.2222 347.46C19.9522 347.43 20.6672 347.385 21.3672 347.325C22.0672 347.255 22.7822 347.155 23.5122 347.025L23.7222 348.63C22.6022 348.83 21.4972 348.965 20.4072 349.035C19.3272 349.095 18.1572 349.125 16.8972 349.125H15.6672V347.49ZM15.6372 339.6H22.1922V344.985H17.6922V348.105H15.6672V343.41H20.1672V341.205H15.6372V339.6ZM31.791 339.555H33.426V340.395C33.426 341.215 33.281 341.99 32.991 342.72C32.701 343.45 32.261 344.085 31.671 344.625C31.091 345.155 30.346 345.55 29.436 345.81L28.476 344.265C29.056 344.105 29.551 343.89 29.961 343.62C30.381 343.35 30.726 343.04 30.996 342.69C31.266 342.34 31.466 341.975 31.596 341.595C31.726 341.205 31.791 340.805 31.791 340.395V339.555ZM32.211 339.555H33.831V340.395C33.831 340.775 33.896 341.15 34.026 341.52C34.156 341.88 34.351 342.225 34.611 342.555C34.881 342.875 35.221 343.165 35.631 343.425C36.041 343.685 36.531 343.89 37.101 344.04L36.126 345.585C35.256 345.345 34.526 344.965 33.936 344.445C33.356 343.925 32.921 343.32 32.631 342.63C32.351 341.93 32.211 341.185 32.211 340.395V339.555ZM29.016 339.12H36.576V340.68H29.016V339.12ZM30.726 346.32H40.041V347.775H32.706V351.36H30.726V346.32ZM30.726 350.685H40.296V352.185H30.726V350.685ZM32.061 348.54H39.891V349.89H32.061V348.54ZM37.971 338.445H39.966V345.72H37.971V338.445ZM47.0598 339.765H49.0098C49.0098 340.835 48.9198 341.86 48.7398 342.84C48.5698 343.82 48.2648 344.755 47.8248 345.645C47.3848 346.525 46.7648 347.35 45.9648 348.12C45.1748 348.88 44.1548 349.585 42.9048 350.235L41.8098 348.72C42.8398 348.19 43.6898 347.62 44.3598 347.01C45.0398 346.4 45.5748 345.745 45.9648 345.045C46.3648 344.335 46.6448 343.565 46.8048 342.735C46.9748 341.905 47.0598 341 47.0598 340.02V339.765ZM42.6498 339.765H48.2748V341.355H42.6498V339.765ZM47.2548 343.17V344.7L42.1548 345.15L41.8998 343.485L47.2548 343.17ZM51.5598 338.445H53.5548V352.335H51.5598V338.445ZM48.9798 343.755H52.6248V345.375H48.9798V343.755ZM65.0287 338.445H67.0237V352.335H65.0287V338.445ZM55.7887 339.72H63.5887V341.295H55.7887V339.72ZM55.6237 349.155L55.4287 347.535C56.2687 347.535 57.1787 347.53 58.1587 347.52C59.1387 347.5 60.1387 347.465 61.1587 347.415C62.1887 347.355 63.1787 347.265 64.1287 347.145L64.2487 348.585C63.2787 348.745 62.2837 348.87 61.2637 348.96C60.2537 349.04 59.2687 349.09 58.3087 349.11C57.3487 349.13 56.4537 349.145 55.6237 349.155ZM56.9887 340.965H58.9237V347.97H56.9887V340.965ZM60.4537 340.965H62.3887V347.97H60.4537V340.965ZM68.9725 349.185H81.5575V350.805H68.9725V349.185ZM74.2525 346.545H76.2325V349.83H74.2525V346.545ZM70.3975 339.33H80.1325V343.965H72.3925V346.29H70.4125V342.405H78.1525V340.92H70.3975V339.33ZM70.4125 345.51H80.4475V347.1H70.4125V345.51ZM87.6463 339.24H89.3713V340.245C89.3713 340.845 89.2863 341.43 89.1163 342C88.9563 342.56 88.7163 343.09 88.3963 343.59C88.0763 344.09 87.6813 344.545 87.2113 344.955C86.7513 345.355 86.2213 345.7 85.6213 345.99C85.0213 346.28 84.3613 346.495 83.6413 346.635L82.7863 344.97C83.4063 344.86 83.9713 344.695 84.4813 344.475C85.0013 344.245 85.4563 343.97 85.8463 343.65C86.2363 343.33 86.5663 342.985 86.8363 342.615C87.1063 342.235 87.3063 341.845 87.4363 341.445C87.5763 341.035 87.6463 340.635 87.6463 340.245V339.24ZM88.0363 339.24H89.7763V340.245C89.7763 340.645 89.8413 341.05 89.9713 341.46C90.1113 341.87 90.3113 342.265 90.5713 342.645C90.8413 343.015 91.1713 343.355 91.5613 343.665C91.9513 343.975 92.4013 344.245 92.9113 344.475C93.4213 344.695 93.9963 344.86 94.6363 344.97L93.7813 346.635C93.0613 346.495 92.4013 346.28 91.8013 345.99C91.2013 345.7 90.6663 345.355 90.1963 344.955C89.7363 344.555 89.3413 344.105 89.0113 343.605C88.6913 343.105 88.4463 342.57 88.2763 342C88.1163 341.43 88.0363 340.845 88.0363 340.245V339.24ZM82.4863 349.005H95.0713V350.64H82.4863V349.005ZM105.66 338.415H107.655V352.35H105.66V338.415ZM103.275 343.32H105.9V344.94H103.275V343.32ZM96.6152 347.61H97.7402C98.5102 347.61 99.2202 347.6 99.8702 347.58C100.53 347.56 101.17 347.525 101.79 347.475C102.41 347.425 103.045 347.355 103.695 347.265L103.89 348.84C103.22 348.95 102.56 349.03 101.91 349.08C101.27 349.13 100.61 349.165 99.9302 349.185C99.2502 349.205 98.5202 349.215 97.7402 349.215H96.6152V347.61ZM96.6152 339.585H103.05V341.205H98.6102V348.105H96.6152V339.585ZM98.1452 343.455H102.585V345.015H98.1452V343.455ZM114.674 339.24H116.399V340.245C116.399 340.845 116.314 341.43 116.144 342C115.984 342.56 115.744 343.09 115.424 343.59C115.104 344.09 114.709 344.545 114.239 344.955C113.779 345.355 113.249 345.7 112.649 345.99C112.049 346.28 111.389 346.495 110.669 346.635L109.814 344.97C110.434 344.86 110.999 344.695 111.509 344.475C112.029 344.245 112.484 343.97 112.874 343.65C113.264 343.33 113.594 342.985 113.864 342.615C114.134 342.235 114.334 341.845 114.464 341.445C114.604 341.035 114.674 340.635 114.674 340.245V339.24ZM115.064 339.24H116.804V340.245C116.804 340.645 116.869 341.05 116.999 341.46C117.139 341.87 117.339 342.265 117.599 342.645C117.869 343.015 118.199 343.355 118.589 343.665C118.979 343.975 119.429 344.245 119.939 344.475C120.449 344.695 121.024 344.86 121.664 344.97L120.809 346.635C120.089 346.495 119.429 346.28 118.829 345.99C118.229 345.7 117.694 345.355 117.224 344.955C116.764 344.555 116.369 344.105 116.039 343.605C115.719 343.105 115.474 342.57 115.304 342C115.144 341.43 115.064 340.845 115.064 340.245V339.24ZM109.514 349.005H122.099V350.64H109.514V349.005Z" fill="white"/>
<rect x="520" y="248" width="83" height="29" rx="14.5" fill="#736463"/>
<path d="M540.06 256.765H542.01C542.01 257.835 541.92 258.86 541.74 259.84C541.57 260.82 541.265 261.755 540.825 262.645C540.385 263.525 539.765 264.35 538.965 265.12C538.175 265.88 537.155 266.585 535.905 267.235L534.81 265.72C535.84 265.19 536.69 264.62 537.36 264.01C538.04 263.4 538.575 262.745 538.965 262.045C539.365 261.335 539.645 260.565 539.805 259.735C539.975 258.905 540.06 258 540.06 257.02V256.765ZM535.65 256.765H541.275V258.355H535.65V256.765ZM540.255 260.17V261.7L535.155 262.15L534.9 260.485L540.255 260.17ZM544.56 255.445H546.555V269.335H544.56V255.445ZM541.98 260.755H545.625V262.375H541.98V260.755ZM558.029 255.445H560.024V269.335H558.029V255.445ZM548.789 256.72H556.589V258.295H548.789V256.72ZM548.624 266.155L548.429 264.535C549.269 264.535 550.179 264.53 551.159 264.52C552.139 264.5 553.139 264.465 554.159 264.415C555.189 264.355 556.179 264.265 557.129 264.145L557.249 265.585C556.279 265.745 555.284 265.87 554.264 265.96C553.254 266.04 552.269 266.09 551.309 266.11C550.349 266.13 549.454 266.145 548.624 266.155ZM549.989 257.965H551.924V264.97H549.989V257.965ZM553.454 257.965H555.389V264.97H553.454V257.965ZM562.723 261.505H563.923C564.873 261.505 565.708 261.5 566.428 261.49C567.158 261.47 567.833 261.435 568.453 261.385C569.083 261.335 569.718 261.26 570.358 261.16L570.553 262.705C569.893 262.805 569.238 262.885 568.588 262.945C567.948 262.995 567.253 263.03 566.503 263.05C565.753 263.06 564.893 263.065 563.923 263.065H562.723V261.505ZM562.723 256.225H569.413V257.8H564.703V262.135H562.723V256.225ZM564.088 258.85H569.008V260.41H564.088V258.85ZM571.513 255.445H573.508V263.695H571.513V255.445ZM564.268 264.265H573.508V269.185H564.268V264.265ZM571.558 265.825H566.233V267.61H571.558V265.825ZM585.146 255.415H587.141V269.35H585.146V255.415ZM581.996 260.305H585.716V261.91H581.996V260.305ZM575.996 256.51H577.976V259.885H580.706V256.51H582.671V266.08H575.996V256.51ZM577.976 261.43V264.49H580.706V261.43H577.976Z" fill="white"/>
<rect x="252" y="504" width="123" height="29" rx="14.5" fill="#736463"/>
<path d="M266.659 513.53H273.304V515.105H266.659V513.53ZM270.004 515.735C270.594 515.735 271.114 515.875 271.564 516.155C272.024 516.435 272.384 516.825 272.644 517.325C272.914 517.815 273.049 518.385 273.049 519.035C273.049 519.685 272.914 520.26 272.644 520.76C272.384 521.25 272.024 521.635 271.564 521.915C271.114 522.195 270.594 522.335 270.004 522.335C269.414 522.335 268.889 522.195 268.429 521.915C267.969 521.635 267.609 521.25 267.349 520.76C267.089 520.26 266.959 519.685 266.959 519.035C266.959 518.385 267.089 517.815 267.349 517.325C267.609 516.825 267.969 516.435 268.429 516.155C268.899 515.875 269.424 515.735 270.004 515.735ZM270.004 517.385C269.764 517.385 269.544 517.45 269.344 517.58C269.144 517.71 268.989 517.9 268.879 518.15C268.769 518.39 268.714 518.685 268.714 519.035C268.714 519.385 268.769 519.685 268.879 519.935C268.989 520.185 269.144 520.375 269.344 520.505C269.544 520.625 269.764 520.685 270.004 520.685C270.254 520.685 270.474 520.625 270.664 520.505C270.854 520.375 271.004 520.185 271.114 519.935C271.224 519.685 271.279 519.385 271.279 519.035C271.279 518.685 271.224 518.39 271.114 518.15C271.004 517.9 270.854 517.71 270.664 517.58C270.474 517.45 270.254 517.385 270.004 517.385ZM276.709 511.43H278.599V525.32H276.709V511.43ZM275.044 517.085H277.324V518.69H275.044V517.085ZM273.784 511.685H275.644V524.735H273.784V511.685ZM269.029 511.805H270.994V514.52H269.029V511.805ZM289.758 511.445H291.753V525.335H289.758V511.445ZM280.518 512.72H288.318V514.295H280.518V512.72ZM280.353 522.155L280.158 520.535C280.998 520.535 281.908 520.53 282.888 520.52C283.868 520.5 284.868 520.465 285.888 520.415C286.918 520.355 287.908 520.265 288.858 520.145L288.978 521.585C288.008 521.745 287.013 521.87 285.993 521.96C284.983 522.04 283.998 522.09 283.038 522.11C282.078 522.13 281.183 522.145 280.353 522.155ZM281.718 513.965H283.653V520.97H281.718V513.965ZM285.183 513.965H287.118V520.97H285.183V513.965ZM293.882 512.72H301.547V514.295H293.882V512.72ZM293.732 522.155L293.522 520.535C294.322 520.535 295.197 520.53 296.147 520.52C297.107 520.5 298.082 520.465 299.072 520.415C300.072 520.355 301.032 520.27 301.952 520.16L302.057 521.6C301.117 521.76 300.152 521.88 299.162 521.96C298.182 522.04 297.227 522.095 296.297 522.125C295.377 522.145 294.522 522.155 293.732 522.155ZM295.067 513.965H297.002V520.97H295.067V513.965ZM298.427 513.965H300.347V520.97H298.427V513.965ZM302.567 511.445H304.577V525.335H302.567V511.445ZM304.142 516.695H306.587V518.345H304.142V516.695ZM316.741 511.415H318.736V525.35H316.741V511.415ZM311.251 512.39C311.961 512.39 312.591 512.595 313.141 513.005C313.691 513.405 314.121 513.98 314.431 514.73C314.751 515.47 314.911 516.345 314.911 517.355C314.911 518.375 314.751 519.26 314.431 520.01C314.121 520.75 313.691 521.325 313.141 521.735C312.591 522.135 311.961 522.335 311.251 522.335C310.551 522.335 309.926 522.135 309.376 521.735C308.826 521.325 308.391 520.75 308.071 520.01C307.761 519.26 307.606 518.375 307.606 517.355C307.606 516.345 307.761 515.47 308.071 514.73C308.391 513.98 308.826 513.405 309.376 513.005C309.926 512.595 310.551 512.39 311.251 512.39ZM311.251 514.205C310.911 514.205 310.611 514.325 310.351 514.565C310.091 514.805 309.886 515.16 309.736 515.63C309.596 516.09 309.526 516.665 309.526 517.355C309.526 518.035 309.596 518.615 309.736 519.095C309.886 519.565 310.091 519.92 310.351 520.16C310.611 520.4 310.911 520.52 311.251 520.52C311.601 520.52 311.906 520.4 312.166 520.16C312.426 519.92 312.626 519.565 312.766 519.095C312.916 518.615 312.991 518.035 312.991 517.355C312.991 516.665 312.916 516.09 312.766 515.63C312.626 515.16 312.426 514.805 312.166 514.565C311.906 514.325 311.601 514.205 311.251 514.205ZM330.659 511.43H332.564V518.375H330.659V511.43ZM328.979 514.235H331.184V515.825H328.979V514.235ZM327.629 511.685H329.489V518.285H327.629V511.685ZM324.659 512.255H326.684C326.684 513.365 326.499 514.345 326.129 515.195C325.769 516.045 325.209 516.775 324.449 517.385C323.699 517.995 322.744 518.505 321.584 518.915L320.654 517.46C321.614 517.16 322.384 516.795 322.964 516.365C323.554 515.935 323.984 515.445 324.254 514.895C324.524 514.335 324.659 513.715 324.659 513.035V512.255ZM321.314 512.255H325.469V513.815H321.314V512.255ZM323.114 518.945H332.564V522.74H325.124V524.36H323.144V521.285H330.599V520.475H323.114V518.945ZM323.144 523.625H333.014V525.185H323.144V523.625ZM343.873 511.415H345.853V525.35H343.873V511.415ZM341.698 516.425H344.278V518.03H341.698V516.425ZM334.708 520.505H335.848C336.608 520.505 337.318 520.495 337.978 520.475C338.648 520.455 339.303 520.42 339.943 520.37C340.583 520.31 341.238 520.225 341.908 520.115L342.088 521.735C341.398 521.845 340.723 521.93 340.063 521.99C339.403 522.05 338.728 522.09 338.038 522.11C337.358 522.13 336.628 522.14 335.848 522.14H334.708V520.505ZM334.693 512.6H340.948V517.835H336.688V520.985H334.708V516.26H338.983V514.19H334.693V512.6ZM357.312 511.415H359.322V525.35H357.312V511.415ZM348.507 520.49H349.737C350.557 520.49 351.332 520.48 352.062 520.46C352.792 520.43 353.507 520.385 354.207 520.325C354.907 520.255 355.622 520.155 356.352 520.025L356.562 521.63C355.442 521.83 354.337 521.965 353.247 522.035C352.167 522.095 350.997 522.125 349.737 522.125H348.507V520.49ZM348.477 512.6H355.032V517.985H350.532V521.105H348.507V516.41H353.007V514.205H348.477V512.6Z" fill="white"/>
<rect x="97" y="420" width="96" height="29" rx="14.5" fill="#736463"/>
<path d="M121.213 427.43H123.208V441.365H121.213V427.43ZM112.528 436.4H113.728C114.698 436.4 115.548 436.39 116.278 436.37C117.018 436.35 117.693 436.31 118.303 436.25C118.923 436.19 119.543 436.1 120.163 435.98L120.343 437.63C119.713 437.75 119.078 437.845 118.438 437.915C117.808 437.975 117.113 438.015 116.353 438.035C115.593 438.045 114.718 438.05 113.728 438.05H112.528V436.4ZM112.528 428.66H119.218V430.28H114.508V437.03H112.528V428.66ZM125.592 428.705H127.467V431.885H129.267V428.705H131.097V438.035H125.592V428.705ZM127.467 433.445V436.445H129.267V433.445H127.467ZM135.222 427.43H137.127V441.32H135.222V427.43ZM130.782 432.515H133.077V434.12H130.782V432.515ZM132.402 427.67H134.262V440.72H132.402V427.67ZM138.716 438.14H151.301V439.775H138.716V438.14ZM140.141 428.36H149.876V433.01H142.136V435.335H140.156V431.45H147.896V429.965H140.141V428.36ZM140.156 434.555H150.191V436.145H140.156V434.555ZM152.964 436.58H154.164C154.974 436.58 155.734 436.575 156.444 436.565C157.154 436.545 157.844 436.51 158.514 436.46C159.194 436.4 159.889 436.315 160.599 436.205L160.779 437.795C160.059 437.905 159.349 437.99 158.649 438.05C157.949 438.11 157.234 438.15 156.504 438.17C155.774 438.18 154.994 438.185 154.164 438.185H152.964V436.58ZM152.964 428.585H159.999V430.205H154.944V437.105H152.964V428.585ZM154.494 432.455H159.414V434.015H154.494V432.455ZM161.799 427.445H163.794V441.335H161.799V427.445ZM166.478 436.58H167.678C168.488 436.58 169.248 436.575 169.958 436.565C170.668 436.545 171.358 436.51 172.028 436.46C172.708 436.4 173.403 436.315 174.113 436.205L174.293 437.795C173.573 437.905 172.863 437.99 172.163 438.05C171.463 438.11 170.748 438.15 170.018 438.17C169.288 438.18 168.508 438.185 167.678 438.185H166.478V436.58ZM166.478 428.585H173.513V430.205H168.458V437.105H166.478V428.585ZM168.008 432.455H172.928V434.015H168.008V432.455ZM175.313 427.445H177.308V441.335H175.313V427.445Z" fill="white"/>
<path d="M222.258 78.4036H209.742C209.633 78.4037 209.526 78.38 209.428 78.3341C209.329 78.2882 209.242 78.2213 209.172 78.138C209.103 78.0548 209.052 77.9573 209.025 77.8525C208.997 77.7477 208.993 77.638 209.012 77.5313L215.27 42.6117C215.3 42.4404 215.39 42.2852 215.523 42.1734C215.657 42.0615 215.826 42.0002 216 42.0002C216.174 42.0002 216.343 42.0615 216.477 42.1734C216.61 42.2852 216.7 42.4404 216.73 42.6117L222.988 77.5313C223.007 77.638 223.003 77.7477 222.975 77.8525C222.948 77.9573 222.897 78.0548 222.828 78.138C222.758 78.2213 222.671 78.2882 222.572 78.3341C222.474 78.38 222.367 78.4037 222.258 78.4036Z" fill="#8DD27F" stroke="#263238" stroke-width="1.2" stroke-linecap="round" stroke-linejoin="round"/>
<path d="M216 59.5652V85.2554" stroke="#263238" stroke-width="1.2" stroke-linecap="round" stroke-linejoin="round"/>
<path d="M213.201 66.4255L215.913 69.1324" stroke="#263238" stroke-width="1.2" stroke-linecap="round" stroke-linejoin="round"/>
<path d="M219.67 71.3188L216 74.9825" stroke="#263238" stroke-width="1.2" stroke-linecap="round" stroke-linejoin="round"/>
<path d="M217.835 62.3062L216 64.138" stroke="#263238" stroke-width="1.2" stroke-linecap="round" stroke-linejoin="round"/>
<path d="M412.258 254.403H399.742C399.633 254.403 399.526 254.38 399.428 254.334C399.329 254.288 399.242 254.221 399.172 254.138C399.103 254.055 399.052 253.957 399.025 253.852C398.997 253.747 398.993 253.638 399.012 253.531L405.27 218.611C405.3 218.44 405.39 218.285 405.523 218.173C405.657 218.061 405.826 218 406 218C406.174 218 406.343 218.061 406.477 218.173C406.61 218.285 406.7 218.44 406.73 218.611L412.988 253.531C413.007 253.638 413.003 253.747 412.975 253.852C412.948 253.957 412.897 254.055 412.828 254.138C412.758 254.221 412.671 254.288 412.572 254.334C412.474 254.38 412.367 254.403 412.258 254.403Z" fill="#8DD27F" stroke="#263238" stroke-width="1.2" stroke-linecap="round" stroke-linejoin="round"/>
<path d="M406 235.565V261.255" stroke="#263238" stroke-width="1.2" stroke-linecap="round" stroke-linejoin="round"/>
<path d="M403.201 242.425L405.913 245.132" stroke="#263238" stroke-width="1.2" stroke-linecap="round" stroke-linejoin="round"/>
<path d="M409.67 247.319L406 250.982" stroke="#263238" stroke-width="1.2" stroke-linecap="round" stroke-linejoin="round"/>
<path d="M407.835 238.306L406 240.137" stroke="#263238" stroke-width="1.2" stroke-linecap="round" stroke-linejoin="round"/>
<path d="M585.258 189.404H572.742C572.633 189.404 572.526 189.38 572.428 189.334C572.329 189.288 572.242 189.221 572.172 189.138C572.103 189.055 572.052 188.957 572.025 188.853C571.997 188.748 571.993 188.638 572.012 188.531L578.27 153.612C578.3 153.44 578.39 153.285 578.523 153.173C578.657 153.062 578.826 153 579 153C579.174 153 579.343 153.062 579.477 153.173C579.61 153.285 579.7 153.44 579.73 153.612L585.988 188.531C586.007 188.638 586.003 188.748 585.975 188.853C585.948 188.957 585.897 189.055 585.828 189.138C585.758 189.221 585.671 189.288 585.572 189.334C585.474 189.38 585.367 189.404 585.258 189.404Z" fill="#8DD27F" stroke="#263238" stroke-width="1.2" stroke-linecap="round" stroke-linejoin="round"/>
<path d="M579 170.565V196.255" stroke="#263238" stroke-width="1.2" stroke-linecap="round" stroke-linejoin="round"/>
<path d="M576.201 177.425L578.913 180.132" stroke="#263238" stroke-width="1.2" stroke-linecap="round" stroke-linejoin="round"/>
<path d="M582.67 182.319L579 185.982" stroke="#263238" stroke-width="1.2" stroke-linecap="round" stroke-linejoin="round"/>
<path d="M580.835 173.306L579 175.138" stroke="#263238" stroke-width="1.2" stroke-linecap="round" stroke-linejoin="round"/>
<path d="M202.258 385.403H189.742C189.633 385.403 189.526 385.38 189.428 385.334C189.329 385.288 189.242 385.221 189.172 385.138C189.103 385.055 189.052 384.957 189.025 384.852C188.997 384.747 188.993 384.638 189.012 384.531L195.27 349.611C195.3 349.44 195.39 349.285 195.523 349.173C195.657 349.061 195.826 349 196 349C196.174 349 196.343 349.061 196.477 349.173C196.61 349.285 196.7 349.44 196.73 349.611L202.988 384.531C203.007 384.638 203.003 384.747 202.975 384.852C202.948 384.957 202.897 385.055 202.828 385.138C202.758 385.221 202.671 385.288 202.572 385.334C202.474 385.38 202.367 385.403 202.258 385.403Z" fill="#5CB56B" stroke="#263238" stroke-width="1.2" stroke-linecap="round" stroke-linejoin="round"/>
<path d="M196 366.565V392.255" stroke="#263238" stroke-width="1.2" stroke-linecap="round" stroke-linejoin="round"/>
<path d="M193.201 373.425L195.913 376.132" stroke="#263238" stroke-width="1.2" stroke-linecap="round" stroke-linejoin="round"/>
<path d="M199.67 378.319L196 381.982" stroke="#263238" stroke-width="1.2" stroke-linecap="round" stroke-linejoin="round"/>
<path d="M197.835 369.306L196 371.137" stroke="#263238" stroke-width="1.2" stroke-linecap="round" stroke-linejoin="round"/>
<path d="M412.258 533.403H399.742C399.633 533.403 399.526 533.38 399.428 533.334C399.329 533.288 399.242 533.221 399.172 533.138C399.103 533.055 399.052 532.957 399.025 532.852C398.997 532.747 398.993 532.638 399.012 532.531L405.27 497.611C405.3 497.44 405.39 497.285 405.523 497.173C405.657 497.061 405.826 497 406 497C406.174 497 406.343 497.061 406.477 497.173C406.61 497.285 406.7 497.44 406.73 497.611L412.988 532.531C413.007 532.638 413.003 532.747 412.975 532.852C412.948 532.957 412.897 533.055 412.828 533.138C412.758 533.221 412.671 533.288 412.572 533.334C412.474 533.38 412.367 533.403 412.258 533.403Z" fill="#8DD27F" stroke="#263238" stroke-width="1.2" stroke-linecap="round" stroke-linejoin="round"/>
<path d="M406 514.565V540.255" stroke="#263238" stroke-width="1.2" stroke-linecap="round" stroke-linejoin="round"/>
<path d="M403.201 521.425L405.913 524.132" stroke="#263238" stroke-width="1.2" stroke-linecap="round" stroke-linejoin="round"/>
<path d="M409.67 526.319L406 529.982" stroke="#263238" stroke-width="1.2" stroke-linecap="round" stroke-linejoin="round"/>
<path d="M407.835 517.306L406 519.137" stroke="#263238" stroke-width="1.2" stroke-linecap="round" stroke-linejoin="round"/>
<path d="M238.64 43.5096L246.095 1.90415C246.14 1.65072 246.273 1.42124 246.471 1.25592C246.668 1.0906 246.918 1 247.176 1C247.434 1 247.683 1.0906 247.881 1.25592C248.079 1.42124 248.212 1.65072 248.257 1.90415L257.508 53.5253C257.535 53.683 257.528 53.8448 257.487 53.9994C257.445 54.154 257.37 54.2977 257.267 54.4205C257.164 54.5432 257.036 54.642 256.891 54.71C256.745 54.778 256.587 54.8135 256.427 54.814H240.839" fill="#5CB56B"/>
<path d="M238.64 43.5096L246.095 1.90415C246.14 1.65072 246.273 1.42124 246.471 1.25592C246.668 1.0906 246.918 1 247.176 1C247.434 1 247.683 1.0906 247.881 1.25592C248.079 1.42124 248.212 1.65072 248.257 1.90415L257.508 53.5253C257.535 53.683 257.528 53.8448 257.487 53.9994C257.445 54.154 257.37 54.2977 257.267 54.4205C257.164 54.5432 257.036 54.642 256.891 54.71C256.745 54.778 256.587 54.8135 256.427 54.814H240.839" stroke="#263238" stroke-width="1.2" stroke-linecap="round" stroke-linejoin="round"/>
<path d="M247.176 26.9648V64.9408" stroke="#263238" stroke-width="1.2" stroke-linecap="round" stroke-linejoin="round"/>
<path d="M243.035 37.106L247.047 41.1075" stroke="#263238" stroke-width="1.2" stroke-linecap="round" stroke-linejoin="round"/>
<path d="M252.601 44.3413L247.176 49.7568" stroke="#263238" stroke-width="1.2" stroke-linecap="round" stroke-linejoin="round"/>
<path d="M249.887 31.0173L247.176 33.7268" stroke="#263238" stroke-width="1.2" stroke-linecap="round" stroke-linejoin="round"/>
<path d="M239.938 56.7047H224.892C224.761 56.7048 224.632 56.6763 224.514 56.6212C224.396 56.566 224.291 56.4855 224.207 56.3855C224.124 56.2855 224.063 56.1683 224.03 56.0422C223.996 55.9162 223.991 55.7844 224.014 55.6561L231.537 13.6787C231.574 13.4727 231.681 13.2861 231.842 13.1517C232.002 13.0173 232.205 12.9436 232.415 12.9436C232.624 12.9436 232.827 13.0173 232.988 13.1517C233.148 13.2861 233.256 13.4727 233.292 13.6787L240.815 55.6561C240.839 55.7844 240.833 55.9162 240.8 56.0422C240.767 56.1683 240.706 56.2855 240.622 56.3855C240.539 56.4855 240.434 56.566 240.316 56.6212C240.197 56.6763 240.068 56.7048 239.938 56.7047Z" fill="#5CB56B" stroke="#263238" stroke-width="1.2" stroke-linecap="round" stroke-linejoin="round"/>
<path d="M232.415 34.0581V64.9408" stroke="#263238" stroke-width="1.2" stroke-linecap="round" stroke-linejoin="round"/>
<path d="M229.05 42.3049L232.31 45.5589" stroke="#263238" stroke-width="1.2" stroke-linecap="round" stroke-linejoin="round"/>
<path d="M236.827 48.1877L232.415 52.5918" stroke="#263238" stroke-width="1.2" stroke-linecap="round" stroke-linejoin="round"/>
<path d="M234.621 37.3535L232.415 39.5556" stroke="#263238" stroke-width="1.2" stroke-linecap="round" stroke-linejoin="round"/>
<path d="M437.507 567.317L443.876 531.772C443.915 531.556 444.028 531.36 444.197 531.219C444.366 531.077 444.579 531 444.8 531C445.02 531 445.233 531.077 445.402 531.219C445.571 531.36 445.684 531.556 445.723 531.772L453.626 575.873C453.65 576.008 453.644 576.146 453.608 576.278C453.573 576.411 453.509 576.533 453.421 576.638C453.333 576.743 453.223 576.827 453.099 576.885C452.975 576.944 452.84 576.974 452.703 576.974H439.386" fill="#5CB56B"/>
<path d="M437.507 567.317L443.876 531.772C443.915 531.556 444.028 531.36 444.197 531.219C444.366 531.077 444.579 531 444.8 531C445.02 531 445.233 531.077 445.402 531.219C445.571 531.36 445.684 531.556 445.723 531.772L453.626 575.873C453.65 576.008 453.644 576.146 453.608 576.278C453.573 576.411 453.509 576.533 453.421 576.638C453.333 576.743 453.223 576.827 453.099 576.885C452.975 576.944 452.84 576.974 452.703 576.974H439.386" stroke="#263238" stroke-width="1.2" stroke-linecap="round" stroke-linejoin="round"/>
<path d="M444.799 553.182V585.626" stroke="#263238" stroke-width="1.2" stroke-linecap="round" stroke-linejoin="round"/>
<path d="M441.262 561.846L444.69 565.265" stroke="#263238" stroke-width="1.2" stroke-linecap="round" stroke-linejoin="round"/>
<path d="M449.434 568.027L444.799 572.654" stroke="#263238" stroke-width="1.2" stroke-linecap="round" stroke-linejoin="round"/>
<path d="M447.115 556.645L444.799 558.959" stroke="#263238" stroke-width="1.2" stroke-linecap="round" stroke-linejoin="round"/>
<path d="M438.616 578.59H425.762C425.65 578.59 425.54 578.565 425.439 578.518C425.338 578.471 425.249 578.402 425.177 578.317C425.106 578.231 425.054 578.131 425.025 578.024C424.997 577.916 424.992 577.803 425.012 577.694L431.439 541.832C431.47 541.656 431.562 541.496 431.7 541.381C431.837 541.267 432.01 541.204 432.189 541.204C432.368 541.204 432.541 541.267 432.678 541.381C432.815 541.496 432.908 541.656 432.939 541.832L439.366 577.694C439.386 577.803 439.381 577.916 439.353 578.024C439.324 578.131 439.272 578.231 439.201 578.317C439.129 578.402 439.04 578.471 438.939 578.518C438.838 578.565 438.727 578.59 438.616 578.59Z" fill="#5CB56B" stroke="#263238" stroke-width="1.2" stroke-linecap="round" stroke-linejoin="round"/>
<path d="M432.189 559.242V585.626" stroke="#263238" stroke-width="1.2" stroke-linecap="round" stroke-linejoin="round"/>
<path d="M429.314 566.288L432.099 569.068" stroke="#263238" stroke-width="1.2" stroke-linecap="round" stroke-linejoin="round"/>
<path d="M435.958 571.313L432.189 575.076" stroke="#263238" stroke-width="1.2" stroke-linecap="round" stroke-linejoin="round"/>
<path d="M434.074 562.058L432.189 563.939" stroke="#263238" stroke-width="1.2" stroke-linecap="round" stroke-linejoin="round"/>
<path d="M431.507 263.317L437.876 227.772C437.915 227.556 438.028 227.36 438.197 227.219C438.366 227.077 438.579 227 438.8 227C439.02 227 439.233 227.077 439.402 227.219C439.571 227.36 439.684 227.556 439.723 227.772L447.626 271.873C447.65 272.008 447.644 272.146 447.608 272.278C447.573 272.411 447.509 272.533 447.421 272.638C447.333 272.743 447.223 272.827 447.099 272.885C446.975 272.944 446.84 272.974 446.703 272.974H433.386" fill="#5CB56B"/>
<path d="M431.507 263.317L437.876 227.772C437.915 227.556 438.028 227.36 438.197 227.219C438.366 227.077 438.579 227 438.8 227C439.02 227 439.233 227.077 439.402 227.219C439.571 227.36 439.684 227.556 439.723 227.772L447.626 271.873C447.65 272.008 447.644 272.146 447.608 272.278C447.573 272.411 447.509 272.533 447.421 272.638C447.333 272.743 447.223 272.827 447.099 272.885C446.975 272.944 446.84 272.974 446.703 272.974H433.386" stroke="#263238" stroke-width="1.2" stroke-linecap="round" stroke-linejoin="round"/>
<path d="M438.799 249.182V281.626" stroke="#263238" stroke-width="1.2" stroke-linecap="round" stroke-linejoin="round"/>
<path d="M435.262 257.846L438.69 261.265" stroke="#263238" stroke-width="1.2" stroke-linecap="round" stroke-linejoin="round"/>
<path d="M443.434 264.027L438.799 268.654" stroke="#263238" stroke-width="1.2" stroke-linecap="round" stroke-linejoin="round"/>
<path d="M441.115 252.644L438.799 254.959" stroke="#263238" stroke-width="1.2" stroke-linecap="round" stroke-linejoin="round"/>
<path d="M432.616 274.59H419.762C419.65 274.59 419.54 274.565 419.439 274.518C419.338 274.471 419.249 274.402 419.177 274.317C419.106 274.231 419.054 274.131 419.025 274.024C418.997 273.916 418.992 273.803 419.012 273.694L425.439 237.832C425.47 237.656 425.562 237.496 425.7 237.381C425.837 237.267 426.01 237.204 426.189 237.204C426.368 237.204 426.541 237.267 426.678 237.381C426.815 237.496 426.908 237.656 426.939 237.832L433.366 273.694C433.386 273.803 433.381 273.916 433.353 274.024C433.324 274.131 433.272 274.231 433.201 274.317C433.129 274.402 433.04 274.471 432.939 274.518C432.838 274.565 432.727 274.59 432.616 274.59Z" fill="#5CB56B" stroke="#263238" stroke-width="1.2" stroke-linecap="round" stroke-linejoin="round"/>
<path d="M426.189 255.242V281.626" stroke="#263238" stroke-width="1.2" stroke-linecap="round" stroke-linejoin="round"/>
<path d="M423.314 262.288L426.099 265.068" stroke="#263238" stroke-width="1.2" stroke-linecap="round" stroke-linejoin="round"/>
<path d="M429.958 267.313L426.189 271.076" stroke="#263238" stroke-width="1.2" stroke-linecap="round" stroke-linejoin="round"/>
<path d="M428.074 258.057L426.189 259.939" stroke="#263238" stroke-width="1.2" stroke-linecap="round" stroke-linejoin="round"/>
<path d="M458.507 143.317L464.876 107.773C464.915 107.556 465.028 107.36 465.197 107.219C465.366 107.078 465.579 107 465.8 107C466.02 107 466.233 107.078 466.402 107.219C466.571 107.36 466.684 107.556 466.723 107.773L474.626 151.874C474.65 152.008 474.644 152.147 474.608 152.279C474.573 152.411 474.509 152.534 474.421 152.638C474.333 152.743 474.223 152.828 474.099 152.886C473.975 152.944 473.84 152.974 473.703 152.975H460.386" fill="#5CB56B"/>
<path d="M458.507 143.317L464.876 107.773C464.915 107.556 465.028 107.36 465.197 107.219C465.366 107.078 465.579 107 465.8 107C466.02 107 466.233 107.078 466.402 107.219C466.571 107.36 466.684 107.556 466.723 107.773L474.626 151.874C474.65 152.008 474.644 152.147 474.608 152.279C474.573 152.411 474.509 152.534 474.421 152.638C474.333 152.743 474.223 152.828 474.099 152.886C473.975 152.944 473.84 152.974 473.703 152.975H460.386" stroke="#263238" stroke-width="1.2" stroke-linecap="round" stroke-linejoin="round"/>
<path d="M465.799 129.182V161.626" stroke="#263238" stroke-width="1.2" stroke-linecap="round" stroke-linejoin="round"/>
<path d="M462.262 137.846L465.69 141.265" stroke="#263238" stroke-width="1.2" stroke-linecap="round" stroke-linejoin="round"/>
<path d="M470.434 144.028L465.799 148.654" stroke="#263238" stroke-width="1.2" stroke-linecap="round" stroke-linejoin="round"/>
<path d="M468.115 132.645L465.799 134.959" stroke="#263238" stroke-width="1.2" stroke-linecap="round" stroke-linejoin="round"/>
<path d="M459.616 154.59H446.762C446.65 154.59 446.54 154.566 446.439 154.518C446.338 154.471 446.249 154.403 446.177 154.317C446.106 154.232 446.054 154.132 446.025 154.024C445.997 153.916 445.992 153.804 446.012 153.694L452.439 117.832C452.47 117.656 452.562 117.496 452.7 117.382C452.837 117.267 453.01 117.204 453.189 117.204C453.368 117.204 453.541 117.267 453.678 117.382C453.815 117.496 453.908 117.656 453.939 117.832L460.366 153.694C460.386 153.804 460.381 153.916 460.353 154.024C460.324 154.132 460.272 154.232 460.201 154.317C460.129 154.403 460.04 154.471 459.939 154.518C459.838 154.566 459.727 154.59 459.616 154.59Z" fill="#5CB56B" stroke="#263238" stroke-width="1.2" stroke-linecap="round" stroke-linejoin="round"/>
<path d="M453.189 135.242V161.626" stroke="#263238" stroke-width="1.2" stroke-linecap="round" stroke-linejoin="round"/>
<path d="M450.314 142.288L453.099 145.068" stroke="#263238" stroke-width="1.2" stroke-linecap="round" stroke-linejoin="round"/>
<path d="M456.958 147.314L453.189 151.076" stroke="#263238" stroke-width="1.2" stroke-linecap="round" stroke-linejoin="round"/>
<path d="M455.074 138.058L453.189 139.939" stroke="#263238" stroke-width="1.2" stroke-linecap="round" stroke-linejoin="round"/>
<path d="M517.076 416.899V468.448H479.795V416.89L497.896 399.567L517.076 416.899Z" fill="white" stroke="#263238"/>
<path d="M492.011 432.53H486.96V440.577H492.011V432.53Z" fill="#8CBBE5"/>
<path d="M492.051 421.783H487V429.83H492.051V421.783Z" fill="#8CBBE5"/>
<path d="M500.385 432.661H495.335V440.708H500.385V432.661Z" fill="#8CBBE5"/>
<path d="M500.426 421.783H495.375V429.83H500.426V421.783Z" fill="#8CBBE5"/>
<path d="M508.847 432.11H503.796V440.158H508.847V432.11Z" fill="#8CBBE5"/>
<path d="M508.887 421.783H503.836V429.83H508.887V421.783Z" fill="#8CBBE5"/>
<path d="M491.478 444.212H486.428V452.26H491.478V444.212Z" fill="#8CBBE5"/>
<path d="M499.853 444.343H494.802V452.391H499.853V444.343Z" fill="#8CBBE5"/>
<path d="M508.315 443.796H503.264V451.844H508.315V443.796Z" fill="#8CBBE5"/>
<path d="M491.818 455.556H486.767V463.603H491.818V455.556Z" fill="#8CBBE5"/>
<path d="M500.188 455.687H495.137V463.734H500.188V455.687Z" fill="#8CBBE5"/>
<path d="M508.65 455.14H503.599V463.187H508.65V455.14Z" fill="#8CBBE5"/>
<path d="M526.284 422.72L524.254 424.85L498.206 401.164L497.874 400.861L497.538 401.16L471.718 424.084L469.714 421.932L497.897 396.907L526.284 422.72Z" fill="#FF6B43" stroke="#263238"/>
<path d="M497.5 416.87C499.985 416.87 502 414.89 502 412.448C502 410.006 499.985 408.026 497.5 408.026C495.015 408.026 493 410.006 493 412.448C493 414.89 495.015 416.87 497.5 416.87Z" fill="#8CBBE5"/>
<path d="M152.238 197.439L158.979 159.818C159.02 159.588 159.14 159.381 159.319 159.231C159.498 159.082 159.723 159 159.957 159C160.19 159 160.415 159.082 160.594 159.231C160.773 159.381 160.893 159.588 160.934 159.818L169.299 206.495C169.324 206.638 169.318 206.784 169.28 206.924C169.243 207.064 169.175 207.194 169.082 207.305C168.989 207.416 168.872 207.505 168.741 207.567C168.61 207.628 168.467 207.66 168.322 207.661H154.227" fill="#8DD27F"/>
<path d="M152.238 197.439L158.979 159.818C159.02 159.588 159.14 159.381 159.319 159.231C159.498 159.082 159.723 159 159.957 159C160.19 159 160.415 159.082 160.594 159.231C160.773 159.381 160.893 159.588 160.934 159.818L169.299 206.495C169.324 206.638 169.318 206.784 169.28 206.924C169.243 207.064 169.175 207.194 169.082 207.305C168.989 207.416 168.872 207.505 168.741 207.567C168.61 207.628 168.467 207.66 168.322 207.661H154.227" stroke="#263238" stroke-width="1.2" stroke-linecap="round" stroke-linejoin="round"/>
<path d="M159.957 182.479V216.818" stroke="#263238" stroke-width="1.2" stroke-linecap="round" stroke-linejoin="round"/>
<path d="M156.212 191.648L159.84 195.267" stroke="#263238" stroke-width="1.2" stroke-linecap="round" stroke-linejoin="round"/>
<path d="M164.862 198.191L159.957 203.088" stroke="#263238" stroke-width="1.2" stroke-linecap="round" stroke-linejoin="round"/>
<path d="M162.408 186.143L159.957 188.593" stroke="#263238" stroke-width="1.2" stroke-linecap="round" stroke-linejoin="round"/>
<path d="M153.411 209.37H139.807C139.689 209.37 139.572 209.345 139.465 209.295C139.358 209.245 139.263 209.172 139.187 209.082C139.112 208.991 139.057 208.885 139.027 208.771C138.997 208.657 138.992 208.538 139.013 208.422L145.815 170.464C145.848 170.278 145.946 170.11 146.091 169.988C146.236 169.866 146.42 169.8 146.609 169.8C146.798 169.8 146.982 169.866 147.127 169.988C147.272 170.11 147.37 170.278 147.403 170.464L154.205 208.422C154.226 208.538 154.221 208.657 154.191 208.771C154.161 208.885 154.106 208.991 154.031 209.082C153.955 209.172 153.86 209.245 153.753 209.295C153.646 209.345 153.53 209.37 153.411 209.37Z" fill="#8DD27F" stroke="#263238" stroke-width="1.2" stroke-linecap="round" stroke-linejoin="round"/>
<path d="M146.609 188.893V216.818" stroke="#263238" stroke-width="1.2" stroke-linecap="round" stroke-linejoin="round"/>
<path d="M143.566 196.35L146.514 199.292" stroke="#263238" stroke-width="1.2" stroke-linecap="round" stroke-linejoin="round"/>
<path d="M150.599 201.669L146.609 205.651" stroke="#263238" stroke-width="1.2" stroke-linecap="round" stroke-linejoin="round"/>
<path d="M148.604 191.872L146.609 193.863" stroke="#263238" stroke-width="1.2" stroke-linecap="round" stroke-linejoin="round"/>
<path d="M347.917 42.1313L353.477 13.6196C353.51 13.4459 353.61 13.2887 353.757 13.1754C353.904 13.0621 354.091 13 354.283 13C354.475 13 354.661 13.0621 354.809 13.1754C354.956 13.2887 355.055 13.4459 355.089 13.6196L361.988 48.995C362.008 49.1031 362.003 49.2139 361.972 49.3199C361.941 49.4259 361.885 49.5243 361.808 49.6084C361.732 49.6926 361.636 49.7603 361.527 49.8069C361.419 49.8534 361.301 49.8778 361.182 49.8782H349.557" fill="#8DD27F"/>
<path d="M347.917 42.1313L353.477 13.6196C353.51 13.4459 353.61 13.2887 353.757 13.1754C353.904 13.0621 354.091 13 354.283 13C354.475 13 354.661 13.0621 354.809 13.1754C354.956 13.2887 355.055 13.4459 355.089 13.6196L361.988 48.995C362.008 49.1031 362.003 49.2139 361.972 49.3199C361.941 49.4259 361.885 49.5243 361.808 49.6084C361.732 49.6926 361.636 49.7603 361.527 49.8069C361.419 49.8534 361.301 49.8778 361.182 49.8782H349.557" stroke="#263238" stroke-width="1.2" stroke-linecap="round" stroke-linejoin="round"/>
<path d="M354.283 30.7937V56.8182" stroke="#263238" stroke-width="1.2" stroke-linecap="round" stroke-linejoin="round"/>
<path d="M351.195 37.7432L354.187 40.4854" stroke="#263238" stroke-width="1.2" stroke-linecap="round" stroke-linejoin="round"/>
<path d="M358.329 42.7014L354.283 46.4126" stroke="#263238" stroke-width="1.2" stroke-linecap="round" stroke-linejoin="round"/>
<path d="M356.305 33.5708L354.283 35.4275" stroke="#263238" stroke-width="1.2" stroke-linecap="round" stroke-linejoin="round"/>
<path d="M348.885 51.1738H337.665C337.568 51.1739 337.472 51.1544 337.383 51.1166C337.295 51.0788 337.217 51.0236 337.155 50.9551C337.092 50.8865 337.047 50.8062 337.022 50.7198C336.997 50.6335 336.993 50.5431 337.011 50.4552L342.621 21.6885C342.648 21.5474 342.728 21.4195 342.848 21.3274C342.968 21.2353 343.119 21.1848 343.275 21.1848C343.431 21.1848 343.583 21.2353 343.702 21.3274C343.822 21.4195 343.903 21.5474 343.93 21.6885L349.54 50.4552C349.557 50.5431 349.553 50.6335 349.528 50.7198C349.503 50.8062 349.458 50.8865 349.396 50.9551C349.333 51.0236 349.255 51.0788 349.167 51.1166C349.079 51.1544 348.983 51.1739 348.885 51.1738Z" fill="#8DD27F" stroke="#263238" stroke-width="1.2" stroke-linecap="round" stroke-linejoin="round"/>
<path d="M343.275 35.6545V56.8181" stroke="#263238" stroke-width="1.2" stroke-linecap="round" stroke-linejoin="round"/>
<path d="M340.766 41.3062L343.197 43.5361" stroke="#263238" stroke-width="1.2" stroke-linecap="round" stroke-linejoin="round"/>
<path d="M346.565 45.3372L343.275 48.3552" stroke="#263238" stroke-width="1.2" stroke-linecap="round" stroke-linejoin="round"/>
<path d="M344.92 37.9128L343.275 39.4219" stroke="#263238" stroke-width="1.2" stroke-linecap="round" stroke-linejoin="round"/>
<path d="M223.238 419.439L229.979 381.818C230.02 381.588 230.14 381.381 230.319 381.231C230.498 381.082 230.723 381 230.957 381C231.19 381 231.415 381.082 231.594 381.231C231.773 381.381 231.893 381.588 231.934 381.818L240.299 428.495C240.324 428.638 240.318 428.784 240.28 428.924C240.243 429.064 240.175 429.194 240.082 429.305C239.989 429.416 239.872 429.505 239.741 429.567C239.61 429.628 239.467 429.66 239.322 429.661H225.227" fill="#8DD27F"/>
<path d="M223.238 419.439L229.979 381.818C230.02 381.588 230.14 381.381 230.319 381.231C230.498 381.082 230.723 381 230.957 381C231.19 381 231.415 381.082 231.594 381.231C231.773 381.381 231.893 381.588 231.934 381.818L240.299 428.495C240.324 428.638 240.318 428.784 240.28 428.924C240.243 429.064 240.175 429.194 240.082 429.305C239.989 429.416 239.872 429.505 239.741 429.567C239.61 429.628 239.467 429.66 239.322 429.661H225.227" stroke="#263238" stroke-width="1.2" stroke-linecap="round" stroke-linejoin="round"/>
<path d="M230.957 404.479V438.818" stroke="#263238" stroke-width="1.2" stroke-linecap="round" stroke-linejoin="round"/>
<path d="M227.212 413.648L230.84 417.267" stroke="#263238" stroke-width="1.2" stroke-linecap="round" stroke-linejoin="round"/>
<path d="M235.862 420.191L230.957 425.088" stroke="#263238" stroke-width="1.2" stroke-linecap="round" stroke-linejoin="round"/>
<path d="M233.408 408.143L230.957 410.593" stroke="#263238" stroke-width="1.2" stroke-linecap="round" stroke-linejoin="round"/>
<path d="M224.411 431.37H210.807C210.689 431.37 210.572 431.345 210.465 431.295C210.358 431.245 210.263 431.172 210.187 431.082C210.112 430.991 210.057 430.885 210.027 430.771C209.997 430.657 209.992 430.538 210.013 430.422L216.815 392.464C216.848 392.278 216.946 392.11 217.091 391.988C217.236 391.866 217.42 391.8 217.609 391.8C217.798 391.8 217.982 391.866 218.127 391.988C218.272 392.11 218.37 392.278 218.403 392.464L225.205 430.422C225.226 430.538 225.221 430.657 225.191 430.771C225.161 430.885 225.106 430.991 225.031 431.082C224.955 431.172 224.86 431.245 224.753 431.295C224.646 431.345 224.53 431.37 224.411 431.37Z" fill="#8DD27F" stroke="#263238" stroke-width="1.2" stroke-linecap="round" stroke-linejoin="round"/>
<path d="M217.609 410.893V438.818" stroke="#263238" stroke-width="1.2" stroke-linecap="round" stroke-linejoin="round"/>
<path d="M214.566 418.35L217.514 421.292" stroke="#263238" stroke-width="1.2" stroke-linecap="round" stroke-linejoin="round"/>
<path d="M221.599 423.669L217.609 427.651" stroke="#263238" stroke-width="1.2" stroke-linecap="round" stroke-linejoin="round"/>
<path d="M219.604 413.872L217.609 415.863" stroke="#263238" stroke-width="1.2" stroke-linecap="round" stroke-linejoin="round"/>
<path d="M506.643 472.827H456.357C456.004 471.88 455.911 470.859 456.087 469.865C456.399 468.218 457.594 466.747 459.123 466.378C459.909 466.202 460.734 466.304 461.451 466.667C462.169 467.029 462.734 467.627 463.047 468.358C463.124 466.839 463.425 465.338 463.941 463.904C464.434 462.498 465.42 461.31 466.723 460.552C467.199 460.271 467.764 460.173 468.309 460.277C468.846 460.47 469.314 460.811 469.658 461.259C470.424 462.104 471.102 463.021 471.684 463.998C471.962 462.274 472.453 460.59 473.143 458.983C473.894 457.424 475.095 456.031 476.655 455.48C477.778 455.126 478.981 455.097 480.119 455.397C481.94 455.763 483.563 456.768 484.684 458.224C485.906 459.913 486.27 462.127 486.556 464.237C486.746 462.117 488.561 460.547 490.438 459.809C490.887 459.606 491.377 459.506 491.871 459.518C492.294 459.587 492.699 459.738 493.062 459.962C493.425 460.186 493.74 460.478 493.987 460.823C495.334 462.458 496.024 464.521 495.928 466.622C496.056 465.812 496.445 465.064 497.038 464.487C497.631 463.911 498.397 463.537 499.223 463.421C500.034 463.365 500.847 463.496 501.597 463.804C502.348 464.111 503.014 464.587 503.544 465.193C504.663 466.462 505.475 467.963 505.919 469.585C506.254 470.643 506.496 471.728 506.643 472.827Z" fill="#B6DB6B" stroke="#263238" stroke-miterlimit="10" stroke-linejoin="round"/>
<path d="M501.791 472.415H461.643C461.645 472.396 461.645 472.377 461.643 472.358C461.602 472.063 461.642 471.763 461.759 471.489C461.876 471.215 462.066 470.977 462.309 470.799C462.607 470.633 462.945 470.551 463.287 470.56C463.773 470.561 464.253 470.66 464.698 470.852C465.143 471.043 465.543 471.322 465.874 471.672C466.165 470.965 466.461 470.259 466.752 469.557C467.222 468.419 467.767 467.198 468.867 466.589C469.452 466.309 470.1 466.182 470.749 466.222C471.398 466.263 472.025 466.468 472.569 466.818C473.643 467.52 474.554 468.436 475.246 469.505C475.462 468.338 475.804 467.197 476.266 466.101C476.484 465.504 476.847 464.969 477.324 464.542C478.165 463.897 479.366 463.955 480.392 464.251C481.508 464.585 482.536 465.159 483.399 465.931C484.263 466.703 484.941 467.654 485.384 468.715C485.791 467.679 486.437 466.75 487.273 466.002C487.698 465.632 488.214 465.376 488.77 465.259C489.326 465.143 489.903 465.169 490.446 465.337C491.906 465.857 492.519 467.541 492.958 469.011C494.14 468.376 495.501 468.134 496.835 468.322C498.169 468.51 499.405 469.119 500.357 470.056C500.991 470.74 501.478 471.542 501.791 472.415Z" fill="#92C25A"/>
<path d="M120.643 250.758H70.3565C70.0037 249.811 69.9106 248.789 70.0868 247.796C70.3988 246.148 71.5941 244.677 73.1226 244.308C73.9092 244.133 74.7337 244.235 75.4514 244.597C76.169 244.959 76.7339 245.558 77.047 246.288C77.1235 244.769 77.4246 243.269 77.9408 241.835C78.4343 240.429 79.4203 239.241 80.7227 238.483C81.1988 238.201 81.764 238.103 82.3094 238.207C82.8455 238.401 83.3137 238.742 83.6581 239.189C84.4239 240.034 85.1025 240.952 85.6837 241.928C85.9624 240.205 86.4526 238.521 87.1434 236.913C87.8945 235.354 89.095 233.961 90.6553 233.411C91.7779 233.056 92.9806 233.027 94.1195 233.327C95.9401 233.693 97.5628 234.698 98.6838 236.154C99.9055 237.843 100.27 240.057 100.556 242.167C100.746 240.047 102.561 238.478 104.438 237.74C104.887 237.536 105.377 237.437 105.871 237.449C106.294 237.518 106.699 237.669 107.062 237.893C107.425 238.116 107.74 238.409 107.987 238.753C109.334 240.388 110.024 242.451 109.928 244.553C110.056 243.743 110.445 242.994 111.038 242.418C111.631 241.841 112.397 241.468 113.223 241.351C114.034 241.295 114.847 241.426 115.597 241.734C116.348 242.042 117.014 242.518 117.544 243.124C118.663 244.392 119.475 245.894 119.919 247.515C120.254 248.574 120.496 249.659 120.643 250.758Z" fill="#B6DB6B" stroke="#263238" stroke-miterlimit="10" stroke-linejoin="round"/>
<path d="M115.791 250.346H75.6426C75.645 250.327 75.645 250.307 75.6426 250.288C75.6017 249.994 75.6419 249.694 75.7591 249.42C75.8763 249.145 76.0662 248.907 76.309 248.729C76.607 248.564 76.9453 248.481 77.2875 248.49C77.7731 248.491 78.2534 248.591 78.6984 248.782C79.1433 248.973 79.5434 249.253 79.8737 249.602C80.1646 248.896 80.4608 248.189 80.7517 247.487C81.2224 246.349 81.7671 245.128 82.8672 244.52C83.4515 244.239 84.1001 244.113 84.7491 244.153C85.3982 244.193 86.0255 244.398 86.5695 244.749C87.6427 245.451 88.5544 246.366 89.2456 247.435C89.4623 246.268 89.8044 245.127 90.2664 244.031C90.4836 243.434 90.8468 242.899 91.3242 242.472C92.1651 241.828 93.3657 241.885 94.3917 242.181C95.5085 242.516 96.5357 243.089 97.3992 243.861C98.2626 244.634 98.9407 245.584 99.3844 246.645C99.7908 245.609 100.437 244.68 101.273 243.933C101.698 243.562 102.214 243.306 102.77 243.19C103.326 243.073 103.904 243.1 104.446 243.267C105.906 243.787 106.519 245.471 106.958 246.942C108.14 246.306 109.501 246.064 110.835 246.252C112.169 246.441 113.405 247.049 114.357 247.986C114.991 248.67 115.478 249.473 115.791 250.346Z" fill="#92C25A"/>
<path d="M321.915 278.482H261.281C260.704 276.608 261.005 274.251 262.285 273.057C263.67 271.74 266.089 272.534 266.491 274.665C267.891 271.356 267.409 266.804 269.618 264.308C270.289 263.543 271.226 263.05 272.247 262.927C273.268 262.804 274.299 263.059 275.138 263.643C276.885 264.777 278.08 266.991 278.652 269.368C278.652 267.751 279.45 266.173 280.624 265.531C281.213 265.237 281.888 265.156 282.532 265.301C283.176 265.446 283.748 265.809 284.148 266.325C284.81 263.993 285.508 261.616 286.752 259.697C289.357 255.668 294.376 254.514 297.935 257.103C301.493 259.692 303.225 265.724 301.774 270.586C302.999 269.418 304.284 268.249 305.694 267.553C307.104 266.858 308.786 266.666 310.211 267.455C310.981 267.95 311.596 268.646 311.988 269.464C312.38 270.283 312.532 271.192 312.43 272.091C314.151 269.132 317.95 268.638 320.129 271.065C321.735 272.88 322.217 275.696 321.915 278.482Z" fill="#87C880" stroke="#263238" stroke-width="1.2" stroke-miterlimit="10" stroke-linejoin="round"/>
<path d="M316.455 277.518H267.47C267.562 277.069 267.822 276.667 268.2 276.385C268.669 276.08 269.245 275.963 269.804 276.059C270.362 276.155 270.859 276.457 271.186 276.9C271.851 275.582 272.515 274.267 273.177 272.955C273.523 272.263 273.938 271.513 274.69 271.241C275.442 270.97 276.258 271.266 276.945 271.653C278.505 272.49 279.784 273.731 280.635 275.232L282.852 271.979C283.102 271.537 283.46 271.159 283.897 270.879C284.231 270.731 284.598 270.665 284.965 270.688C285.332 270.711 285.687 270.822 285.997 271.011C286.612 271.395 287.149 271.882 287.583 272.448C288.49 270.643 289.676 268.977 291.1 267.506C291.397 267.14 291.791 266.856 292.241 266.683C292.716 266.575 293.214 266.606 293.671 266.769C295.297 267.269 296.711 268.254 297.704 269.578C298.698 270.903 299.218 272.496 299.189 274.124C300.088 273.339 301.108 272.689 302.213 272.197C303.181 271.785 304.374 271.472 305.281 271.999C306.344 272.613 306.512 273.992 306.577 275.179C308.356 274.689 310.196 274.428 312.047 274.404C312.923 274.332 313.802 274.507 314.575 274.907C315.088 275.264 315.508 275.729 315.802 276.266C316.046 276.67 316.264 277.088 316.455 277.518Z" fill="#7ABC71"/>
<path d="M275.83 212.404V283.919L249.434 284.619L249.824 211.151L275.83 212.404Z" fill="#FCEDEA" stroke="#263238" stroke-width="1.2"/>
<path d="M257.465 218.83C257.918 218.83 258.069 219.202 258.055 219.599C258.054 219.626 258.054 219.652 258.055 219.678L258.122 222.515L258.206 226.31C258.227 227.245 258.238 228.232 257.771 229.046C257.304 229.86 256.187 230.398 255.373 229.919C254.558 229.439 254.491 228.428 254.467 227.548L254.312 221.721C254.291 220.952 254.288 220.12 254.73 219.489L254.769 219.434C254.853 219.295 255.418 218.554 257.346 218.826L257.465 218.83Z" fill="#525252"/>
<path d="M263.908 218.685C264.361 218.685 264.512 219.057 264.498 219.454C264.497 219.481 264.497 219.507 264.498 219.534L264.565 222.37L264.649 226.165C264.67 227.1 264.681 228.087 264.214 228.901C263.747 229.715 262.63 230.253 261.812 229.774C260.994 229.294 260.934 228.283 260.91 227.404L260.748 221.562C260.731 220.793 260.727 219.961 261.17 219.33L261.208 219.275C261.293 219.137 261.858 218.395 263.786 218.668L263.908 218.685Z" fill="#525252"/>
<path d="M270.295 218.733C270.745 218.733 270.899 219.106 270.882 219.503V219.582L270.945 222.418L271.033 226.213C271.054 227.148 271.061 228.135 270.597 228.949C270.134 229.764 269.014 230.302 268.196 229.822C267.378 229.343 267.314 228.332 267.293 227.452L267.135 221.614C267.114 220.845 267.114 220.013 267.557 219.382L267.592 219.327C267.68 219.189 268.245 218.447 270.173 218.72L270.295 218.733Z" fill="#525252"/>
<path d="M257.367 233.786C257.82 233.786 257.971 234.159 257.957 234.556C257.955 234.583 257.955 234.611 257.957 234.639L258.024 237.475L258.108 241.27C258.129 242.205 258.139 243.192 257.672 244.006C257.205 244.82 256.089 245.358 255.274 244.879C254.46 244.399 254.393 243.392 254.368 242.509L254.214 236.685C254.193 235.912 254.189 235.084 254.632 234.449L254.67 234.394C254.755 234.256 255.32 233.517 257.248 233.79C257.304 233.78 257.325 233.786 257.367 233.786Z" fill="#525252"/>
<path d="M263.81 233.638C264.263 233.638 264.414 234.011 264.4 234.408C264.398 234.435 264.398 234.463 264.4 234.49L264.467 237.326L264.551 241.122C264.572 242.057 264.583 243.043 264.116 243.858C263.649 244.672 262.532 245.21 261.714 244.731C260.896 244.251 260.836 243.244 260.812 242.36L260.654 236.536C260.636 235.764 260.633 234.936 261.075 234.301L261.11 234.245C261.198 234.107 261.763 233.369 263.691 233.642C263.726 233.638 263.768 233.638 263.81 233.638Z" fill="#525252"/>
<path d="M270.204 233.69C270.654 233.69 270.808 234.062 270.791 234.459V234.542L270.854 237.378L270.942 241.173C270.963 242.108 270.97 243.095 270.506 243.909C270.043 244.724 268.923 245.262 268.105 244.782C267.286 244.303 267.223 243.295 267.202 242.412L267.044 236.588C267.023 235.815 267.023 234.987 267.465 234.352L267.501 234.297C267.588 234.159 268.154 233.421 270.081 233.693C270.12 233.683 270.162 233.69 270.204 233.69Z" fill="#525252"/>
<path d="M257.269 250.199C257.722 250.199 257.873 250.572 257.859 250.969C257.857 250.996 257.857 251.024 257.859 251.051L257.925 253.887L258.01 257.683C258.031 258.618 258.041 259.604 257.574 260.419C257.107 261.233 255.991 261.771 255.172 261.292C254.354 260.812 254.295 259.805 254.27 258.921L254.116 253.097C254.094 252.324 254.091 251.493 254.533 250.862L254.572 250.806C254.656 250.668 255.222 249.93 257.149 250.199C257.189 250.202 257.229 250.202 257.269 250.199Z" fill="#525252"/>
<path d="M263.712 250.065C264.165 250.065 264.316 250.437 264.302 250.834C264.3 250.862 264.3 250.889 264.302 250.917L264.368 253.753L264.453 257.548C264.474 258.483 264.484 259.47 264.017 260.284C263.55 261.098 262.434 261.637 261.616 261.157C260.797 260.678 260.738 259.67 260.713 258.787L260.552 252.959C260.534 252.187 260.531 251.355 260.973 250.724L261.008 250.668C261.096 250.53 261.661 249.792 263.589 250.061C263.63 250.066 263.671 250.067 263.712 250.065Z" fill="#525252"/>
<path d="M270.106 250.113C270.555 250.113 270.71 250.486 270.692 250.882V250.965L270.756 253.801L270.843 257.596C270.864 258.531 270.871 259.518 270.408 260.332C269.944 261.147 268.824 261.685 268.006 261.205C267.188 260.726 267.125 259.718 267.104 258.835L266.946 253.011C266.925 252.238 266.925 251.407 267.367 250.775L267.402 250.72C267.49 250.582 268.055 249.844 269.983 250.113C270.024 250.117 270.065 250.117 270.106 250.113Z" fill="#525252"/>
<path d="M257.269 265.346C257.722 265.346 257.873 265.718 257.859 266.115C257.857 266.143 257.857 266.17 257.859 266.198L257.925 269.034L258.01 272.829C258.031 273.764 258.041 274.751 257.574 275.569C257.107 276.386 255.991 276.918 255.172 276.438C254.354 275.958 254.295 274.951 254.27 274.068L254.116 268.244C254.094 267.474 254.091 266.643 254.533 266.008L254.572 265.953C254.656 265.818 255.222 265.076 257.149 265.349C257.188 265.339 257.227 265.346 257.269 265.346Z" fill="#525252"/>
<path d="M263.712 265.201C264.165 265.201 264.316 265.573 264.302 265.97C264.3 265.998 264.3 266.025 264.302 266.053L264.368 268.889L264.453 272.684C264.474 273.619 264.484 274.606 264.017 275.424C263.55 276.241 262.434 276.773 261.616 276.293C260.798 275.814 260.738 274.806 260.713 273.923L260.555 268.099C260.538 267.33 260.534 266.498 260.977 265.863C260.977 265.846 261.001 265.829 261.012 265.808C261.099 265.673 261.665 264.932 263.592 265.204C263.624 265.194 263.67 265.201 263.712 265.201Z" fill="#525252"/>
<path d="M270.106 265.249C270.555 265.249 270.71 265.622 270.692 266.018V266.101L270.756 268.937L270.843 272.732C270.864 273.667 270.871 274.654 270.408 275.472C269.944 276.29 268.824 276.821 268.006 276.341C267.188 275.862 267.125 274.854 267.104 273.971L266.946 268.14C266.925 267.371 266.925 266.539 267.367 265.904C267.367 265.887 267.392 265.87 267.402 265.849C267.49 265.715 268.055 264.973 269.983 265.245C270.022 265.242 270.064 265.249 270.106 265.249Z" fill="#525252"/>
<path d="M517.999 93.8818V165.397L491.603 166.098L491.993 92.6289L517.999 93.8818Z" fill="#FCEDEA" stroke="#263238" stroke-width="1.2"/>
<path d="M499.634 100.308C500.087 100.308 500.238 100.681 500.224 101.077C500.222 101.104 500.222 101.13 500.224 101.157L500.291 103.993L500.375 107.788C500.396 108.723 500.407 109.71 499.94 110.524C499.473 111.338 498.356 111.877 497.542 111.397C496.727 110.917 496.66 109.906 496.636 109.027L496.481 103.199C496.46 102.43 496.457 101.598 496.899 100.967L496.938 100.912C497.022 100.774 497.587 100.032 499.515 100.305L499.634 100.308Z" fill="#525252"/>
<path d="M506.077 100.163C506.53 100.163 506.681 100.536 506.667 100.932C506.666 100.959 506.666 100.985 506.667 101.012L506.734 103.848L506.818 107.643C506.839 108.578 506.85 109.565 506.383 110.379C505.916 111.193 504.799 111.732 503.981 111.252C503.163 110.772 503.103 109.762 503.079 108.882L502.917 103.041C502.9 102.271 502.896 101.44 503.339 100.808L503.377 100.753C503.462 100.615 504.027 99.8733 505.955 100.146L506.077 100.163Z" fill="#525252"/>
<path d="M512.464 100.211C512.914 100.211 513.068 100.584 513.051 100.981V101.06L513.114 103.896L513.202 107.691C513.223 108.626 513.23 109.613 512.766 110.427C512.303 111.242 511.183 111.78 510.365 111.3C509.547 110.821 509.483 109.81 509.462 108.93L509.304 103.092C509.283 102.323 509.283 101.491 509.726 100.86L509.761 100.805C509.849 100.667 510.414 99.925 512.342 100.198L512.464 100.211Z" fill="#525252"/>
<path d="M499.536 115.265C499.989 115.265 500.14 115.637 500.126 116.034C500.124 116.062 500.124 116.089 500.126 116.117L500.193 118.953L500.277 122.748C500.298 123.683 500.308 124.67 499.841 125.484C499.374 126.298 498.258 126.837 497.443 126.357C496.629 125.878 496.562 124.87 496.537 123.987L496.383 118.163C496.362 117.39 496.358 116.562 496.801 115.927L496.839 115.872C496.924 115.734 497.489 114.996 499.417 115.268C499.473 115.258 499.494 115.265 499.536 115.265Z" fill="#525252"/>
<path d="M505.979 115.116C506.432 115.116 506.583 115.489 506.569 115.886C506.567 115.913 506.567 115.941 506.569 115.968L506.636 118.805L506.72 122.6C506.741 123.535 506.752 124.522 506.285 125.336C505.818 126.15 504.701 126.688 503.883 126.209C503.065 125.729 503.005 124.722 502.981 123.838L502.823 118.014C502.805 117.242 502.801 116.414 503.244 115.779L503.279 115.723C503.367 115.585 503.932 114.847 505.86 115.12C505.895 115.116 505.937 115.116 505.979 115.116Z" fill="#525252"/>
<path d="M512.373 115.168C512.823 115.168 512.977 115.541 512.96 115.937V116.02L513.023 118.856L513.111 122.652C513.132 123.587 513.139 124.573 512.675 125.388C512.212 126.202 511.092 126.74 510.273 126.26C509.455 125.781 509.392 124.773 509.371 123.89L509.213 118.066C509.192 117.293 509.192 116.465 509.634 115.83L509.67 115.775C509.757 115.637 510.323 114.899 512.25 115.171C512.289 115.161 512.331 115.168 512.373 115.168Z" fill="#525252"/>
<path d="M499.438 131.677C499.891 131.677 500.042 132.05 500.027 132.447C500.026 132.474 500.026 132.502 500.027 132.53L500.094 135.366L500.178 139.161C500.2 140.096 500.21 141.083 499.743 141.897C499.276 142.711 498.159 143.249 497.341 142.77C496.523 142.29 496.464 141.283 496.439 140.4L496.284 134.576C496.263 133.803 496.26 132.971 496.702 132.34L496.741 132.285C496.825 132.147 497.391 131.408 499.318 131.677C499.358 131.681 499.398 131.681 499.438 131.677Z" fill="#525252"/>
<path d="M505.881 131.543C506.334 131.543 506.485 131.916 506.471 132.312C506.469 132.34 506.469 132.368 506.471 132.395L506.537 135.231L506.622 139.026C506.643 139.961 506.653 140.948 506.186 141.762C505.719 142.577 504.603 143.115 503.785 142.635C502.966 142.156 502.907 141.148 502.882 140.265L502.721 134.438C502.703 133.665 502.7 132.833 503.142 132.202L503.177 132.147C503.265 132.009 503.83 131.27 505.758 131.539C505.799 131.544 505.84 131.545 505.881 131.543Z" fill="#525252"/>
<path d="M512.275 131.591C512.724 131.591 512.879 131.964 512.861 132.36V132.443L512.924 135.279L513.012 139.075C513.033 140.01 513.04 140.996 512.577 141.811C512.113 142.625 510.993 143.163 510.175 142.683C509.357 142.204 509.294 141.196 509.273 140.313L509.115 134.489C509.094 133.716 509.094 132.885 509.536 132.253L509.571 132.198C509.659 132.06 510.224 131.322 512.152 131.591C512.193 131.595 512.234 131.595 512.275 131.591Z" fill="#525252"/>
<path d="M499.438 146.824C499.891 146.824 500.042 147.196 500.027 147.593C500.026 147.621 500.026 147.648 500.027 147.676L500.094 150.512L500.178 154.307C500.2 155.242 500.21 156.229 499.743 157.047C499.276 157.864 498.159 158.396 497.341 157.916C496.523 157.437 496.464 156.429 496.439 155.546L496.284 149.722C496.263 148.953 496.26 148.121 496.702 147.486L496.741 147.431C496.825 147.296 497.391 146.555 499.318 146.827C499.357 146.817 499.395 146.824 499.438 146.824Z" fill="#525252"/>
<path d="M505.881 146.679C506.334 146.679 506.485 147.051 506.471 147.448C506.469 147.476 506.469 147.503 506.471 147.531L506.537 150.367L506.622 154.162C506.643 155.097 506.653 156.084 506.186 156.902C505.719 157.719 504.603 158.251 503.785 157.771C502.966 157.292 502.907 156.284 502.882 155.401L502.724 149.577C502.707 148.808 502.703 147.976 503.146 147.341C503.146 147.324 503.17 147.307 503.181 147.286C503.268 147.151 503.834 146.41 505.761 146.682C505.793 146.672 505.839 146.679 505.881 146.679Z" fill="#525252"/>
<path d="M512.275 146.727C512.724 146.727 512.879 147.1 512.861 147.497V147.579L512.924 150.415L513.012 154.211C513.033 155.146 513.04 156.132 512.577 156.95C512.113 157.768 510.993 158.299 510.175 157.82C509.357 157.34 509.294 156.333 509.273 155.449L509.115 149.618C509.094 148.849 509.094 148.018 509.536 147.383C509.536 147.365 509.561 147.348 509.571 147.328C509.659 147.193 510.224 146.451 512.152 146.724C512.191 146.72 512.233 146.727 512.275 146.727Z" fill="#525252"/>
<path d="M251.999 229.41V284.436L225.604 284.884L225.992 229.407L251.999 229.41Z" fill="#EC644E" stroke="#263238" stroke-width="1.2"/>
<path d="M233.536 235.788C233.989 235.788 234.14 236.16 234.126 236.557V236.64L234.189 239.476L234.277 243.271C234.298 244.206 234.305 245.193 233.841 246.007C233.378 246.821 232.258 247.36 231.44 246.88C230.622 246.401 230.558 245.393 230.534 244.51L230.379 238.686C230.358 237.913 230.355 237.085 230.797 236.45L230.836 236.395C230.923 236.26 231.489 235.519 233.413 235.791L233.536 235.788Z" fill="white"/>
<path d="M239.979 235.643C240.432 235.643 240.583 236.015 240.569 236.412C240.567 236.44 240.567 236.467 240.569 236.495L240.632 239.331L240.716 243.126C240.738 244.061 240.748 245.048 240.285 245.862C239.821 246.677 238.701 247.215 237.883 246.735C237.065 246.256 237.002 245.248 236.977 244.365L236.822 238.513C236.801 237.74 236.798 236.912 237.24 236.278L237.289 236.236C237.377 236.098 237.943 235.36 239.867 235.632L239.979 235.643Z" fill="white"/>
<path d="M246.373 235.691C246.826 235.691 246.977 236.064 246.963 236.46C246.961 236.488 246.961 236.516 246.963 236.543L247.026 239.379L247.111 243.174C247.132 244.109 247.142 245.096 246.675 245.91C246.208 246.725 245.092 247.263 244.277 246.783C243.462 246.304 243.396 245.296 243.371 244.413L243.217 238.589C243.195 237.816 243.192 236.988 243.634 236.353L243.673 236.298C243.757 236.16 244.323 235.422 246.25 235.694C246.292 235.684 246.331 235.691 246.373 235.691Z" fill="white"/>
<path d="M233.427 251.186C233.88 251.186 234.031 251.558 234.017 251.955V252.038L234.08 254.871L234.168 258.666C234.189 259.601 234.196 260.588 233.733 261.402C233.269 262.216 232.149 262.754 231.331 262.275C230.513 261.795 230.449 260.788 230.425 259.905L230.267 254.067C230.246 253.297 230.242 252.466 230.685 251.834L230.723 251.779C230.811 251.641 231.376 250.903 233.301 251.172L233.427 251.186Z" fill="white"/>
<path d="M239.881 251.041C240.334 251.041 240.485 251.414 240.471 251.81C240.469 251.838 240.469 251.866 240.471 251.893L240.534 254.726L240.618 258.521C240.639 259.456 240.65 260.443 240.186 261.257C239.723 262.071 238.603 262.61 237.785 262.13C236.966 261.65 236.903 260.639 236.879 259.76L236.724 253.932C236.703 253.163 236.7 252.331 237.142 251.7L237.181 251.645C237.268 251.507 237.83 250.768 239.758 251.038L239.881 251.041Z" fill="white"/>
<path d="M246.275 251.089C246.728 251.089 246.879 251.462 246.865 251.859C246.863 251.886 246.863 251.914 246.865 251.941L246.928 254.774L247.012 258.569C247.033 259.504 247.044 260.491 246.577 261.305C246.11 262.119 244.993 262.658 244.179 262.178C243.364 261.699 243.297 260.691 243.273 259.808L243.118 253.97C243.097 253.201 243.094 252.369 243.536 251.738L243.575 251.683C243.659 251.545 244.224 250.806 246.152 251.075L246.275 251.089Z" fill="white"/>
<path d="M233.427 267.347C233.88 267.347 234.031 267.719 234.017 268.116V268.185L234.08 271.021L234.168 274.816C234.189 275.751 234.196 276.738 233.733 277.556C233.269 278.374 232.149 278.905 231.331 278.425C230.513 277.946 230.449 276.938 230.425 276.055L230.267 270.231C230.246 269.462 230.242 268.63 230.685 267.995C230.7 267.978 230.713 267.96 230.723 267.94C230.811 267.806 231.376 267.064 233.301 267.336L233.427 267.347Z" fill="white"/>
<path d="M239.881 267.202C240.334 267.202 240.485 267.574 240.471 267.971C240.469 267.999 240.469 268.026 240.471 268.054L240.534 270.89L240.618 274.685C240.639 275.62 240.65 276.607 240.186 277.425C239.723 278.242 238.603 278.774 237.785 278.294C236.966 277.815 236.903 276.807 236.879 275.924L236.724 270.1C236.703 269.331 236.7 268.499 237.142 267.864L237.181 267.809C237.268 267.674 237.83 266.933 239.758 267.205L239.881 267.202Z" fill="white"/>
<path d="M246.275 267.25C246.728 267.25 246.879 267.623 246.865 268.019C246.863 268.047 246.863 268.075 246.865 268.102L246.928 270.938L247.012 274.734C247.033 275.669 247.044 276.655 246.577 277.473C246.11 278.291 244.993 278.822 244.179 278.343C243.364 277.863 243.297 276.855 243.273 275.972L243.118 270.148C243.097 269.379 243.094 268.547 243.536 267.913L243.575 267.857C243.659 267.723 244.224 266.981 246.152 267.254C246.194 267.243 246.233 267.25 246.275 267.25Z" fill="white"/>
<path d="M170.999 528.507V583.532L144.604 583.98L144.992 528.504L170.999 528.507Z" fill="#EC644E" stroke="#263238" stroke-width="1.2"/>
<path d="M152.536 534.884C152.989 534.884 153.14 535.256 153.126 535.653V535.736L153.189 538.572L153.277 542.367C153.298 543.302 153.305 544.289 152.841 545.103C152.378 545.918 151.258 546.456 150.44 545.976C149.622 545.497 149.558 544.489 149.534 543.606L149.379 537.782C149.358 537.009 149.355 536.181 149.797 535.546L149.836 535.491C149.924 535.357 150.489 534.615 152.413 534.887L152.536 534.884Z" fill="white"/>
<path d="M158.979 534.739C159.432 534.739 159.583 535.112 159.569 535.508C159.567 535.536 159.567 535.564 159.569 535.591L159.632 538.427L159.716 542.222C159.738 543.157 159.748 544.144 159.285 544.958C158.821 545.773 157.701 546.311 156.883 545.831C156.065 545.352 156.002 544.344 155.977 543.461L155.822 537.61C155.801 536.837 155.798 536.009 156.24 535.374L156.289 535.332C156.377 535.194 156.943 534.456 158.867 534.729L158.979 534.739Z" fill="white"/>
<path d="M165.373 534.787C165.826 534.787 165.977 535.16 165.963 535.557C165.961 535.584 165.961 535.612 165.963 535.64L166.026 538.476L166.111 542.271C166.132 543.206 166.142 544.193 165.675 545.007C165.208 545.821 164.092 546.359 163.277 545.88C162.462 545.4 162.396 544.393 162.371 543.51L162.217 537.686C162.195 536.913 162.192 536.085 162.634 535.45L162.673 535.395C162.757 535.257 163.323 534.518 165.25 534.791C165.292 534.78 165.331 534.787 165.373 534.787Z" fill="white"/>
<path d="M152.427 550.282C152.88 550.282 153.031 550.655 153.017 551.052V551.134L153.08 553.967L153.168 557.762C153.189 558.697 153.196 559.684 152.733 560.498C152.269 561.313 151.149 561.851 150.331 561.371C149.513 560.892 149.449 559.884 149.425 559.001L149.267 553.163C149.246 552.394 149.242 551.562 149.685 550.931L149.723 550.876C149.811 550.738 150.376 549.999 152.301 550.268L152.427 550.282Z" fill="white"/>
<path d="M158.881 550.137C159.334 550.137 159.485 550.51 159.471 550.907C159.469 550.934 159.469 550.962 159.471 550.99L159.534 553.822L159.618 557.617C159.639 558.552 159.65 559.539 159.186 560.353C158.723 561.168 157.603 561.706 156.785 561.226C155.966 560.747 155.903 559.736 155.879 558.856L155.724 553.029C155.703 552.259 155.7 551.428 156.142 550.796L156.181 550.741C156.268 550.603 156.83 549.865 158.758 550.134L158.881 550.137Z" fill="white"/>
<path d="M165.275 550.186C165.728 550.186 165.879 550.558 165.865 550.955C165.863 550.983 165.863 551.01 165.865 551.038L165.928 553.87L166.012 557.666C166.033 558.601 166.044 559.587 165.577 560.402C165.11 561.216 163.993 561.754 163.179 561.275C162.364 560.795 162.297 559.788 162.273 558.904L162.118 553.067C162.097 552.297 162.094 551.466 162.536 550.834L162.575 550.779C162.659 550.641 163.224 549.903 165.152 550.172L165.275 550.186Z" fill="white"/>
<path d="M152.427 566.443C152.88 566.443 153.031 566.816 153.017 567.212V567.281L153.08 570.118L153.168 573.913C153.189 574.848 153.196 575.835 152.733 576.652C152.269 577.47 151.149 578.001 150.331 577.522C149.513 577.042 149.449 576.035 149.425 575.151L149.267 569.327C149.246 568.558 149.242 567.727 149.685 567.092C149.7 567.075 149.713 567.056 149.723 567.037C149.811 566.902 150.376 566.16 152.301 566.433L152.427 566.443Z" fill="white"/>
<path d="M158.881 566.298C159.334 566.298 159.485 566.671 159.471 567.068C159.469 567.095 159.469 567.123 159.471 567.15L159.534 569.986L159.618 573.782C159.639 574.717 159.65 575.703 159.186 576.521C158.723 577.339 157.603 577.87 156.785 577.391C155.966 576.911 155.903 575.904 155.879 575.02L155.724 569.196C155.703 568.427 155.7 567.595 156.142 566.961L156.181 566.905C156.268 566.771 156.83 566.029 158.758 566.302L158.881 566.298Z" fill="white"/>
<path d="M165.275 566.347C165.728 566.347 165.879 566.719 165.865 567.116C165.863 567.143 165.863 567.171 165.865 567.199L165.928 570.035L166.012 573.83C166.033 574.765 166.044 575.752 165.577 576.569C165.11 577.387 163.993 577.919 163.179 577.439C162.364 576.959 162.297 575.952 162.273 575.069L162.118 569.245C162.097 568.475 162.094 567.644 162.536 567.009L162.575 566.954C162.659 566.819 163.224 566.077 165.152 566.35C165.194 566.34 165.233 566.347 165.275 566.347Z" fill="white"/>
<path d="M138.501 225.34V252.376H109.701V225.34H138.501Z" fill="white" stroke="#263238"/>
<path d="M136.691 214.549L143.178 227.086H106.799L113.164 213.977L136.691 214.549Z" fill="#FF6B43" stroke="#263238"/>
<path d="M123.25 244.649C123.894 244.649 124.509 244.9 124.961 245.343C125.413 245.786 125.665 246.384 125.666 247.006V252.477H120.835V247.006L120.847 246.775C120.902 246.237 121.144 245.731 121.54 245.343C121.992 244.9 122.607 244.649 123.25 244.649Z" fill="#2E292B" stroke="#263238"/>
<rect x="113" y="230.377" width="4" height="4.91304" rx="1" fill="#8CBBE5"/>
<rect x="113" y="237.255" width="4" height="4.91304" rx="1" fill="#8CBBE5"/>
<rect x="119" y="230.377" width="4" height="4.91304" rx="1" fill="#8CBBE5"/>
<rect x="119" y="237.255" width="4" height="4.91304" rx="1" fill="#8CBBE5"/>
<path d="M125 231.377C125 230.824 125.448 230.377 126 230.377H128C128.552 230.377 129 230.824 129 231.377V234.29C129 234.842 128.552 235.29 128 235.29H126C125.448 235.29 125 234.842 125 234.29V231.377Z" fill="#8CBBE5"/>
<path d="M131 231.377C131 230.824 131.448 230.377 132 230.377H134C134.552 230.377 135 230.824 135 231.377V234.29C135 234.842 134.552 235.29 134 235.29H132C131.448 235.29 131 234.842 131 234.29V231.377Z" fill="#8CBBE5"/>
<path d="M125 238.255C125 237.703 125.448 237.255 126 237.255H128C128.552 237.255 129 237.703 129 238.255V241.168C129 241.72 128.552 242.168 128 242.168H126C125.448 242.168 125 241.72 125 241.168V238.255Z" fill="#8CBBE5"/>
<path d="M131 238.255C131 237.703 131.448 237.255 132 237.255H134C134.552 237.255 135 237.703 135 238.255V241.168C135 241.72 134.552 242.168 134 242.168H132C131.448 242.168 131 241.72 131 241.168V238.255Z" fill="#8CBBE5"/>
<path d="M543.501 151.036V178.072H514.701V151.036H543.501Z" fill="white" stroke="#263238"/>
<path d="M541.691 140.244L548.178 152.781H511.799L518.164 139.673L541.691 140.244Z" fill="#FF6B43" stroke="#263238"/>
<path d="M528.25 170.344C528.894 170.344 529.509 170.595 529.961 171.039C530.413 171.481 530.665 172.08 530.666 172.702V178.172H525.835V172.702L525.847 172.47C525.902 171.933 526.144 171.426 526.54 171.039C526.992 170.595 527.607 170.344 528.25 170.344Z" fill="#2E292B" stroke="#263238"/>
<rect x="518" y="156.072" width="4" height="4.91304" rx="1" fill="#8CBBE5"/>
<rect x="518" y="162.95" width="4" height="4.91304" rx="1" fill="#8CBBE5"/>
<rect x="524" y="156.072" width="4" height="4.91304" rx="1" fill="#8CBBE5"/>
<rect x="524" y="162.95" width="4" height="4.91304" rx="1" fill="#8CBBE5"/>
<path d="M530 157.072C530 156.52 530.448 156.072 531 156.072H533C533.552 156.072 534 156.52 534 157.072V159.985C534 160.538 533.552 160.985 533 160.985H531C530.448 160.985 530 160.538 530 159.985V157.072Z" fill="#8CBBE5"/>
<path d="M536 157.072C536 156.52 536.448 156.072 537 156.072H539C539.552 156.072 540 156.52 540 157.072V159.985C540 160.538 539.552 160.985 539 160.985H537C536.448 160.985 536 160.538 536 159.985V157.072Z" fill="#8CBBE5"/>
<path d="M530 163.95C530 163.398 530.448 162.95 531 162.95H533C533.552 162.95 534 163.398 534 163.95V166.863C534 167.416 533.552 167.863 533 167.863H531C530.448 167.863 530 167.416 530 166.863V163.95Z" fill="#8CBBE5"/>
<path d="M536 163.95C536 163.398 536.448 162.95 537 162.95H539C539.552 162.95 540 163.398 540 163.95V166.863C540 167.416 539.552 167.863 539 167.863H537C536.448 167.863 536 167.416 536 166.863V163.95Z" fill="#8CBBE5"/>
<path d="M232.643 590.34H182.357C182.004 589.393 181.911 588.372 182.087 587.378C182.399 585.731 183.594 584.26 185.123 583.891C185.909 583.715 186.734 583.817 187.451 584.179C188.169 584.542 188.734 585.14 189.047 585.871C189.124 584.352 189.425 582.851 189.941 581.417C190.434 580.011 191.42 578.823 192.723 578.065C193.199 577.784 193.764 577.686 194.309 577.79C194.846 577.983 195.314 578.324 195.658 578.772C196.424 579.617 197.102 580.534 197.684 581.511C197.962 579.787 198.453 578.103 199.143 576.496C199.894 574.937 201.095 573.544 202.655 572.993C203.778 572.639 204.981 572.61 206.119 572.91C207.94 573.276 209.563 574.281 210.684 575.737C211.906 577.426 212.27 579.64 212.556 581.75C212.746 579.629 214.561 578.06 216.438 577.322C216.887 577.119 217.377 577.019 217.871 577.031C218.294 577.1 218.699 577.251 219.062 577.475C219.425 577.699 219.74 577.991 219.987 578.335C221.334 579.971 222.024 582.034 221.928 584.135C222.056 583.325 222.445 582.577 223.038 582C223.631 581.424 224.397 581.05 225.223 580.934C226.034 580.878 226.847 581.009 227.597 581.317C228.348 581.624 229.014 582.1 229.544 582.706C230.663 583.975 231.475 585.476 231.919 587.097C232.254 588.156 232.496 589.241 232.643 590.34Z" fill="#B6DB6B" stroke="#263238" stroke-miterlimit="10" stroke-linejoin="round"/>
<path d="M227.791 589.928H187.643C187.645 589.909 187.645 589.89 187.643 589.871C187.602 589.576 187.642 589.276 187.759 589.002C187.876 588.728 188.066 588.49 188.309 588.312C188.607 588.146 188.945 588.064 189.287 588.073C189.773 588.074 190.253 588.173 190.698 588.365C191.143 588.556 191.543 588.835 191.874 589.185C192.165 588.478 192.461 587.771 192.752 587.07C193.222 585.932 193.767 584.71 194.867 584.102C195.452 583.822 196.1 583.695 196.749 583.735C197.398 583.776 198.026 583.981 198.569 584.331C199.643 585.033 200.554 585.948 201.246 587.018C201.462 585.851 201.804 584.71 202.266 583.614C202.484 583.017 202.847 582.481 203.324 582.055C204.165 581.41 205.366 581.468 206.392 581.764C207.508 582.098 208.536 582.672 209.399 583.444C210.263 584.216 210.941 585.167 211.384 586.228C211.791 585.192 212.437 584.263 213.273 583.515C213.698 583.145 214.214 582.889 214.77 582.772C215.326 582.656 215.904 582.682 216.446 582.85C217.906 583.37 218.519 585.053 218.958 586.524C220.14 585.888 221.501 585.647 222.835 585.835C224.169 586.023 225.405 586.632 226.357 587.569C226.991 588.253 227.478 589.055 227.791 589.928Z" fill="#92C25A"/>
<path d="M194.501 567.871V594.907H165.701V567.871H194.501Z" fill="white" stroke="#263238"/>
<path d="M192.691 557.079L199.178 569.616H162.799L169.164 556.508L192.691 557.079Z" fill="#FF6B43" stroke="#263238"/>
<path d="M179.25 587.179C179.894 587.179 180.509 587.43 180.961 587.874C181.413 588.316 181.665 588.915 181.666 589.537V595.007H176.835V589.537L176.847 589.305C176.902 588.768 177.144 588.261 177.54 587.874C177.992 587.43 178.607 587.179 179.25 587.179Z" fill="#2E292B" stroke="#263238"/>
<rect x="169" y="572.907" width="4" height="4.91304" rx="1" fill="#525252"/>
<rect x="169" y="579.785" width="4" height="4.91304" rx="1" fill="#525252"/>
<rect x="175" y="572.907" width="4" height="4.91304" rx="1" fill="#525252"/>
<rect x="175" y="579.785" width="4" height="4.91304" rx="1" fill="#525252"/>
<path d="M181 573.907C181 573.355 181.448 572.907 182 572.907H184C184.552 572.907 185 573.355 185 573.907V576.82C185 577.372 184.552 577.82 184 577.82H182C181.448 577.82 181 577.372 181 576.82V573.907Z" fill="#525252"/>
<path d="M187 573.907C187 573.355 187.448 572.907 188 572.907H190C190.552 572.907 191 573.355 191 573.907V576.82C191 577.372 190.552 577.82 190 577.82H188C187.448 577.82 187 577.372 187 576.82V573.907Z" fill="#525252"/>
<path d="M181 580.785C181 580.233 181.448 579.785 182 579.785H184C184.552 579.785 185 580.233 185 580.785V583.698C185 584.251 184.552 584.698 184 584.698H182C181.448 584.698 181 584.251 181 583.698V580.785Z" fill="#525252"/>
<path d="M187 580.785C187 580.233 187.448 579.785 188 579.785H190C190.552 579.785 191 580.233 191 580.785V583.698C191 584.251 190.552 584.698 190 584.698H188C187.448 584.698 187 584.251 187 583.698V580.785Z" fill="#525252"/>
<path d="M282.501 13.6096V40.6458H253.701V13.6096H282.501Z" fill="white" stroke="#263238"/>
<path d="M280.691 2.81812L287.178 15.3552H250.799L257.164 2.24683L280.691 2.81812Z" fill="#FF6B43" stroke="#263238"/>
<path d="M267.25 32.9182C267.894 32.9182 268.509 33.1693 268.961 33.6125C269.413 34.0554 269.665 34.6537 269.666 35.2756V40.7463H264.835V35.2756L264.847 35.0442C264.902 34.5067 265.144 34.0002 265.54 33.6125C265.992 33.1693 266.607 32.9182 267.25 32.9182Z" fill="#2E292B" stroke="#263238"/>
<rect x="257" y="18.6462" width="4" height="4.91304" rx="1" fill="#525252"/>
<rect x="257" y="25.5244" width="4" height="4.91304" rx="1" fill="#525252"/>
<rect x="263" y="18.6462" width="4" height="4.91304" rx="1" fill="#525252"/>
<rect x="263" y="25.5244" width="4" height="4.91304" rx="1" fill="#525252"/>
<path d="M269 19.6462C269 19.094 269.448 18.6462 270 18.6462H272C272.552 18.6462 273 19.094 273 19.6462V22.5593C273 23.1116 272.552 23.5593 272 23.5593H270C269.448 23.5593 269 23.1116 269 22.5593V19.6462Z" fill="#525252"/>
<path d="M275 19.6462C275 19.094 275.448 18.6462 276 18.6462H278C278.552 18.6462 279 19.094 279 19.6462V22.5593C279 23.1116 278.552 23.5593 278 23.5593H276C275.448 23.5593 275 23.1116 275 22.5593V19.6462Z" fill="#525252"/>
<path d="M269 26.5244C269 25.9721 269.448 25.5244 270 25.5244H272C272.552 25.5244 273 25.9721 273 26.5244V29.4375C273 29.9897 272.552 30.4375 272 30.4375H270C269.448 30.4375 269 29.9897 269 29.4375V26.5244Z" fill="#525252"/>
<path d="M275 26.5244C275 25.9721 275.448 25.5244 276 25.5244H278C278.552 25.5244 279 25.9721 279 26.5244V29.4375C279 29.9897 278.552 30.4375 278 30.4375H276C275.448 30.4375 275 29.9897 275 29.4375V26.5244Z" fill="#525252"/>
</svg>
