<svg width="713" height="624" viewBox="0 0 713 624" fill="none" xmlns="http://www.w3.org/2000/svg">
<path d="M184.144 356.794C183.563 355.701 182.996 354.603 182.443 353.498L187.562 351.615C188.106 352.696 188.664 353.773 189.235 354.846L184.144 356.794Z" fill="#FF580F"/>
<path d="M287.529 470.85C286.364 469.662 285.179 468.439 284.042 467.287L281.95 465.208L286.211 462.137L288.303 464.216C289.475 465.404 290.682 466.592 291.881 467.851L287.529 470.85ZM276.315 459.566L270.68 453.906L274.927 450.829L280.569 456.489L276.315 459.566ZM264.975 448.656C264.075 447.935 263.13 447.257 262.143 446.624C260.983 445.892 259.767 445.225 258.503 444.629L261.223 440.471C262.702 441.168 264.126 441.948 265.484 442.806C266.637 443.544 267.741 444.337 268.79 445.181L264.975 448.656ZM250.894 441.618C249.815 441.242 248.73 440.877 247.637 440.525C246.033 439.99 244.373 439.444 242.755 438.868L244.903 434.485C246.458 435.037 248.083 435.572 249.652 436.094C250.761 436.462 251.877 436.831 252.979 437.205L250.894 441.618ZM234.567 435.388C232.557 434.342 230.686 433.114 228.988 431.723C228.402 431.23 227.823 430.713 227.279 430.173L231.464 427.061C231.91 427.494 232.377 427.922 232.859 428.32C234.262 429.469 235.808 430.485 237.469 431.349L234.567 435.388ZM222.16 423.456C220.854 421.143 219.719 418.763 218.764 416.329L224.036 414.785C224.92 417.038 225.971 419.242 227.182 421.383L222.16 423.456ZM216.044 409.202C215.402 407.568 214.858 406.232 214.328 405.086C213.938 404.225 213.512 403.346 213.059 402.467L218.171 400.56C218.659 401.505 219.12 402.449 219.531 403.375C220.103 404.623 220.675 406.001 221.337 407.711L216.044 409.202ZM209.314 395.987C208.135 394.128 206.775 392.115 205.032 389.638L209.816 387.197C211.601 389.733 213.003 391.806 214.217 393.73L209.314 395.987ZM200.533 383.313L198.894 380.997C197.96 379.648 197.011 378.259 196.105 376.839L200.987 374.493C201.893 375.865 202.821 377.225 203.741 378.55L205.359 380.842L200.533 383.313ZM191.857 370.247C190.463 368.043 189.158 365.798 187.882 363.559L192.897 361.475C194.152 363.672 195.463 365.876 196.795 368.008L191.857 370.247Z" fill="#FF580F"/>
<path d="M294.601 479.509C294.001 478.564 293.325 477.596 292.572 476.616L297.244 474.021C298.081 475.108 298.841 476.195 299.511 477.252L294.601 479.509Z" fill="#FF580F"/>
<path d="M235.097 176.095C238.113 175.021 241.233 174.172 244.422 173.559C248.397 172.894 252.442 172.965 256.348 173.007H258.314C261.146 173.007 264.047 173.007 266.851 172.953C274.285 172.846 281.971 172.739 289.496 173.82C301.659 175.572 311.486 180.597 316.465 187.611C318.223 190.287 319.656 193.109 320.74 196.033C321.729 198.691 323.013 201.262 324.576 203.712C328.663 209.622 336.007 213.565 342.576 216.778C348.951 219.92 355.548 222.896 362.174 225.616C368.639 228.276 378.005 231.371 384.582 227.588C388.334 225.426 390.105 221.648 391.988 217.687C393.095 215.082 394.516 212.582 396.229 210.227C401.062 204.074 409.117 201.105 416.977 198.296L418.135 196.882C418.176 196.021 418.253 195.16 418.365 194.31C419.76 183.822 425.144 174.076 428.707 163.967C438.841 135.251 433.52 102.853 414.522 77.5999C399.932 58.2204 365.682 31.1794 336.132 31.7733C321.18 32.0702 310.586 53.3265 302.656 62.8054L264.996 107.866C260.707 113.003 256.306 118.23 250.35 121.971C242.309 127.014 231.973 128.98 224.246 134.378C209.321 144.802 209.098 163.611 202.856 179.373C202.757 179.619 202.73 179.882 202.778 180.139C202.825 180.395 202.944 180.638 203.126 180.847C203.308 181.055 203.546 181.223 203.821 181.336C204.096 181.449 204.399 181.503 204.704 181.494C214.171 181.231 223.529 179.688 232.426 176.921C233.326 176.689 234.212 176.368 235.097 176.095Z" fill="#FFA379"/>
<path d="M265.756 371.999C273.79 367.206 279.007 359.402 283.589 352.518L301.024 326.386C308.773 314.769 316.793 302.754 328.335 293.162C330.218 291.6 332.199 290.098 334.117 288.648C336.035 287.199 337.911 285.774 339.696 284.277C355.479 271.018 364.526 253.016 364.894 234.139C364.907 232.931 364.515 231.745 363.764 230.72C363.013 229.695 361.934 228.874 360.654 228.354H360.619C353.91 225.598 347.235 222.587 340.784 219.41C333.81 215.983 326.048 211.784 321.528 205.257C319.85 202.642 318.472 199.895 317.414 197.055C316.249 194.245 315.147 191.591 313.438 189.185C308.989 182.908 300.034 178.394 288.868 176.784C281.671 175.751 274.146 175.858 266.865 175.959C264.075 175.994 261.118 176.036 258.238 176.012H256.25C252.352 175.959 248.669 175.905 245.057 176.511C242.064 177.085 239.135 177.88 236.304 178.887C235.404 179.184 234.498 179.481 233.591 179.766C224.34 182.643 214.61 184.246 204.767 184.517C203.5 184.554 202.267 184.872 201.188 185.438C200.11 186.005 199.223 186.801 198.616 187.748C197.206 189.976 195.513 192.066 193.566 193.978C183.524 203.754 166.151 208.167 160.23 220.182C157.984 224.767 157.782 229.863 157.621 234.828C157.064 251.457 156.554 268.449 162.197 284.39C169.108 303.918 185.162 322.597 185.525 342.131C185.526 342.943 185.703 343.749 186.048 344.506C191.386 355.872 197.745 366.87 205.067 377.403C206.204 379.031 207.361 380.646 208.519 382.267L210.437 384.958C211.279 386.143 212.554 387.06 214.068 387.568C215.581 388.075 217.248 388.145 218.813 387.767C231.444 384.807 243.799 381.051 255.776 376.53C259.265 375.295 262.607 373.778 265.756 371.999Z" fill="#FFAA84"/>
<path d="M393.097 465.688C393.097 461.632 393.097 457.438 395.043 453.554C396.57 450.466 399.144 447.954 401.627 445.525C404.11 443.095 406.634 440.631 407.904 437.744C408.586 435.901 409.023 433.998 409.208 432.072L418.1 370.602C418.393 368.6 418.748 366.106 417.66 364.247C416.963 363.059 415.631 362.061 414.236 361.034C413.685 360.63 413.113 360.208 412.562 359.763C405.532 354.014 403.984 343.953 409.075 336.862C409.403 336.398 409.773 335.947 410.114 335.496C410.879 334.616 411.512 333.658 411.997 332.645C413.392 329.313 411.042 325.488 408.573 322.186C408.064 321.497 407.541 320.814 407.018 320.119C401.222 312.44 395.224 304.499 395.517 295.287C395.517 294.533 395.608 293.761 395.671 293.013C395.887 290.411 396.096 287.953 394.667 286.129C393.648 284.829 391.772 283.932 390.112 283.16L362.481 269.933H362.432C361.356 269.418 360.087 269.281 358.895 269.552C357.703 269.823 356.682 270.479 356.051 271.382C352.23 276.89 347.573 281.944 342.2 286.414C340.345 287.958 338.385 289.437 336.488 290.875C334.591 292.312 332.652 293.785 330.832 295.299C319.631 304.6 311.744 316.425 304.107 327.864L286.671 353.996C281.894 361.153 276.482 369.266 267.841 374.445C264.496 376.333 260.947 377.944 257.24 379.255C243.615 384.388 229.511 388.546 215.075 391.686C217.311 395.075 219.275 398.589 220.954 402.204C222.021 404.58 222.948 407.021 223.841 409.397C226.408 416.185 228.828 422.593 234.302 427.137C238.78 430.843 244.764 432.815 251.04 434.911C256.452 436.693 262.039 438.552 266.858 441.611C270.861 444.158 274.027 447.342 277.096 450.418L289.649 463.027C293.667 467.054 297.816 471.223 300.885 476.093C302.667 479.014 304.166 482.053 305.369 485.18C319.945 492.01 326.626 495.936 345.122 495.384C361.49 494.891 375.99 487.538 390.9 481.379C392.198 477.227 392.921 472.959 393.056 468.663C393.097 467.654 393.097 466.674 393.097 465.688Z" fill="#FFB18E"/>
<path d="M569.021 445.371C563.931 445.051 558.884 444.344 553.943 443.257C540.134 440.441 532.323 435.441 530.663 428.409C529.324 422.671 532.588 417.57 535.747 412.64C537.686 409.611 539.694 406.475 540.538 403.292C541.884 398.22 540.392 393.077 538.802 387.636C537.47 383.039 536.082 378.288 536.493 373.454C536.727 371.341 537.137 369.245 537.721 367.182C538.221 365.395 538.594 363.584 538.836 361.759C539.29 357.602 537.93 354.11 535.196 352.399C534.363 351.919 533.48 351.504 532.56 351.158C531.198 350.66 529.921 350.006 528.766 349.216C525.976 347.173 525.049 344.114 524.442 341.121C520.786 322.704 524.627 303.776 535.329 287.472C535.669 286.951 535.803 286.35 535.711 285.758C535.62 285.167 535.307 284.616 534.819 284.188C533.117 282.677 531.705 280.947 530.635 279.062C527.427 273.408 526.743 266.988 524.735 260.942C517.963 240.559 494.439 225.117 469.569 224.713C456.597 224.517 442.495 227.784 431.351 222.13C424.153 218.471 420.122 211.831 418.699 204.668C418.614 204.25 418.419 203.854 418.127 203.51C417.836 203.166 417.457 202.883 417.018 202.682C416.579 202.481 416.093 202.368 415.595 202.351C415.097 202.334 414.602 202.414 414.145 202.584C408.071 204.888 402.61 207.478 399.13 211.902C397.567 214.091 396.27 216.409 395.259 218.821C393.265 223.044 391.207 227.409 386.562 230.106C383.824 231.643 380.601 232.435 377.322 232.375C375.656 232.365 373.995 232.216 372.363 231.929C371.892 231.851 371.407 231.862 370.942 231.96C370.477 232.058 370.042 232.242 369.669 232.498C369.295 232.755 368.992 233.077 368.781 233.444C368.569 233.81 368.454 234.211 368.444 234.62C368.187 244.406 365.683 254.054 361.072 263.021C360.733 263.676 360.703 264.417 360.988 265.091C361.274 265.764 361.853 266.318 362.606 266.638C363.143 266.869 363.673 267.113 364.182 267.356L391.772 280.529C393.669 281.438 396.033 282.566 397.519 284.461C399.611 287.122 399.339 290.353 399.095 293.204C399.032 293.946 398.976 294.653 398.956 295.348C398.691 303.662 404.388 311.187 409.905 318.51C410.428 319.205 410.951 319.894 411.467 320.589C414.382 324.491 417.116 329.1 415.24 333.626C414.662 334.877 413.895 336.058 412.96 337.141C412.639 337.557 412.311 337.973 412.004 338.395C407.757 344.334 409.054 352.791 414.954 357.614C415.442 358.006 415.952 358.386 416.496 358.802C418.086 359.989 419.732 361.177 420.757 362.929C422.319 365.59 421.873 368.708 421.545 370.983L412.695 432.412C412.475 434.57 411.967 436.7 411.181 438.761C409.724 442.17 406.997 444.866 404.291 447.479C401.878 449.855 399.604 452.058 398.286 454.707C396.633 458.045 396.626 461.757 396.619 465.689C396.619 466.698 396.619 467.708 396.619 468.712C396.555 470.73 396.369 472.744 396.061 474.746C395.989 475.228 396.067 475.718 396.286 476.166C396.504 476.615 396.857 477.007 397.309 477.304C397.761 477.6 398.296 477.791 398.862 477.857C399.427 477.923 400.003 477.862 400.532 477.68C401.048 477.496 401.564 477.324 402.08 477.151C423.533 470.082 447.131 469.268 469.185 474.835C479.312 477.425 489.097 481.368 499.621 482.223C520.913 483.952 540.489 472.946 557.506 461.923C563.148 458.271 568.839 454.428 574.168 450.3C574.659 449.919 575.003 449.419 575.154 448.867C575.304 448.315 575.255 447.737 575.011 447.21C574.768 446.683 574.342 446.231 573.791 445.914C573.239 445.597 572.587 445.431 571.922 445.436H571.831C570.911 445.436 569.969 445.412 569.021 445.371Z" fill="#FFC1A3"/>
<path d="M655.849 310.641C644.342 298.032 632.367 285.067 615.929 277.381C599.491 269.696 577.243 268.668 563.204 279.252C557.925 283.231 553.489 288.868 546.529 289.806C544.165 290.112 541.748 289.845 539.555 289.034C539.131 288.884 538.657 288.872 538.223 288.999C537.789 289.126 537.425 289.383 537.198 289.723C526.707 305.517 522.922 323.906 526.478 341.797C526.981 344.25 527.713 346.721 529.652 348.152C530.578 348.766 531.596 349.273 532.678 349.661C533.795 350.083 534.862 350.594 535.866 351.187C539.597 353.521 541.445 358.017 540.915 363.214C540.658 365.159 540.265 367.088 539.736 368.993C539.186 370.917 538.797 372.872 538.572 374.843C538.209 379.208 539.52 383.752 540.796 388.105C542.407 393.64 544.074 399.389 542.547 405.127C541.591 408.69 539.471 412.034 537.414 415.223C534.422 419.897 531.597 424.31 532.685 428.996C534.045 434.817 541.02 439.033 553.357 441.575C558.093 442.619 562.929 443.301 567.807 443.612C572.788 443.795 577.776 443.432 582.648 442.532C583.067 442.455 583.445 442.263 583.722 441.985C590.369 435.321 595.578 427.903 598.201 419.416C601.688 407.912 599.875 395.778 600.614 383.912C601.353 372.046 605.649 359.134 617.408 352.737C625.386 348.39 635.303 347.855 644.481 345.866C653.659 343.876 663.395 339.261 665.355 331.368C667.252 323.855 661.373 316.698 655.849 310.641Z" fill="#FFC8AE"/>
<path d="M49.696 451.749C55.2265 450.84 60.5199 449.801 64.5022 447.087C70.9533 442.704 72.6829 435.036 74.3567 427.624L74.5031 426.983C76.2258 419.363 79.3851 410.133 88.4515 406.315C90.0939 405.663 91.7967 405.129 93.5426 404.717C94.8818 404.386 96.1975 403.989 97.483 403.529C99.7218 402.692 102.191 401.047 102.421 398.938C102.454 398.465 102.442 397.99 102.386 397.519C102.284 396.729 102.295 395.931 102.421 395.143C103.209 391.312 108.049 389.542 112.324 389.168C112.973 389.109 113.635 389.067 114.298 389.026C117.164 388.842 119.877 388.663 121.718 387.351C123.371 386.163 124.11 384.256 124.892 382.219C125.449 380.446 126.311 378.753 127.451 377.195C131.092 372.782 138.226 371.392 148.667 373.037C153.751 373.851 158.87 374.849 163.877 376.007C165.07 376.28 166.269 376.565 167.476 376.85C174.45 378.501 181.564 380.188 188.447 380.313C189.165 380.318 189.873 380.163 190.499 379.863C191.125 379.563 191.647 379.128 192.014 378.602C192.381 378.076 192.58 377.478 192.59 376.866C192.601 376.254 192.423 375.651 192.074 375.116C187.987 368.781 184.232 362.282 180.81 355.618C180.577 355.17 180.237 354.767 179.812 354.436C179.387 354.105 178.886 353.852 178.342 353.694C164.819 349.667 162.922 320.25 119.8 346.442C112.352 351.015 53.7759 322.792 32.156 354.864C28.5573 360.209 36.6822 398.51 30.6495 401.902C14.5532 410.959 7.99046 428.004 2.50876 443.755C1.63135 446.082 0.975974 448.465 0.54902 450.882C0.48324 451.345 0.526864 451.815 0.677324 452.263C0.827785 452.712 1.08204 453.13 1.42515 453.494C1.76825 453.857 2.19326 454.159 2.67519 454.38C3.15711 454.602 3.68622 454.739 4.23138 454.784C19.6722 455.996 35.4338 454.089 49.696 451.749Z" fill="#FFA379"/>
<path d="M158.388 413.602C162.943 414.837 167.825 413.917 172.992 412.943C178.16 411.969 183.551 410.953 188.845 412.183C192.673 413.073 195.875 415.016 198.964 416.886L199.592 417.267C201.684 418.538 203.881 420.04 206.203 421.632C211.085 424.982 216.4 428.628 221.309 430.297C221.561 430.38 221.837 430.393 222.098 430.333C222.359 430.273 222.59 430.144 222.759 429.965C222.928 429.785 223.025 429.565 223.037 429.335C223.048 429.105 222.973 428.879 222.823 428.688C219.134 424.019 217.062 418.555 215.047 413.246C214.175 410.935 213.268 408.542 212.257 406.309C209.223 399.598 204.683 393.243 200.289 387.107C199.376 385.831 198.462 384.554 197.562 383.277C197.426 383.084 197.222 382.932 196.98 382.843C196.737 382.753 196.468 382.731 196.209 382.778C186.446 384.47 176.368 382.077 166.569 379.761C165.37 379.476 164.184 379.167 162.998 378.923C158.075 377.789 153.046 376.809 148.046 376.007C139.077 374.57 133.114 375.55 130.331 378.929C129.378 380.249 128.654 381.679 128.183 383.176C127.284 385.551 126.356 387.927 123.929 389.673C123.779 389.776 123.658 389.905 123.575 390.053C123.492 390.2 123.449 390.362 123.449 390.525C123.449 390.689 123.492 390.851 123.575 390.998C123.658 391.146 123.779 391.275 123.929 391.378L149.768 409.029C152.446 410.846 155.208 412.735 158.388 413.602Z" fill="#FFAA84"/>
<path d="M179.541 562.985C173.962 558.53 167.301 554.955 160.878 551.486L139.754 540.101C137.361 538.812 134.872 537.482 132.242 536.769C128.497 535.759 124.487 535.967 120.24 536.175C118.406 536.276 116.502 536.371 114.66 536.365C100.831 536.312 88.3957 530.604 76.3722 525.081C73.6523 523.834 70.8347 522.539 68.0799 521.351C65.7994 520.293 63.3878 519.455 60.8896 518.851C57.2769 518.084 53.5248 518.257 49.5565 518.393H49.4798C49.0366 518.412 48.6043 518.517 48.2164 518.7C47.8284 518.883 47.4951 519.14 47.2424 519.451C46.9896 519.762 46.824 520.117 46.7585 520.491C46.693 520.865 46.7293 521.246 46.8645 521.606C48.5386 525.837 49.7686 530.186 50.5399 534.601C52.2346 546.195 56.8167 557.823 66.1132 566.435C75.4098 575.047 84.4623 623.908 137.466 623.908C164.916 623.908 176.159 587.923 182.91 567.617C183.045 567.204 183.052 566.767 182.93 566.351C182.808 565.934 182.56 565.552 182.212 565.241C181.34 564.469 180.455 563.715 179.541 562.985Z" fill="#FFCFB8"/>
<path d="M292.509 480.697C289.719 476.284 285.758 472.311 281.929 468.468L269.375 455.865C266.509 452.985 263.545 450.009 260.051 447.788C255.866 445.115 250.845 443.458 245.552 441.706C239.826 439.812 233.933 437.852 229.009 434.472C228.83 434.345 228.624 434.248 228.401 434.189C228.178 434.13 227.944 434.109 227.712 434.128C227.249 434.176 226.783 434.199 226.317 434.199C222.83 434.199 219.196 432.97 215.605 431.164C215.227 430.972 214.778 430.91 214.349 430.991C213.92 431.071 213.543 431.289 213.296 431.598C209.99 435.791 209.112 441.231 211.246 445.692C212.243 447.812 213.826 449.695 215.5 451.69L216.044 452.332C228.249 466.96 233.947 480.287 233.479 493.092C233.479 493.484 233.444 493.876 233.424 494.28C233.304 495.581 233.318 496.889 233.465 498.188C233.825 500.23 234.726 502.176 236.102 503.878C236.238 504.059 236.419 504.213 236.633 504.329C236.846 504.445 237.086 504.52 237.337 504.549C237.588 504.578 237.843 504.56 238.085 504.496C238.327 504.433 238.55 504.325 238.738 504.18C246.27 498.295 253.014 493.763 257.666 491.762C273.211 485.068 278.072 479.236 290.444 482.817C290.772 482.913 291.126 482.923 291.46 482.845C291.794 482.768 292.094 482.607 292.319 482.383C292.544 482.159 292.686 481.882 292.725 481.589C292.763 481.296 292.698 481 292.537 480.739L292.509 480.697Z" fill="#FFB18E"/>
<path d="M228.904 494.844C229.228 494.619 229.491 494.338 229.676 494.02C229.861 493.701 229.964 493.353 229.978 492.997C230.432 480.87 224.943 468.13 213.198 454.054L212.668 453.419C210.81 451.38 209.246 449.159 208.01 446.803C206.98 444.476 206.518 441.995 206.652 439.512C206.786 437.028 207.514 434.594 208.791 432.358C209.381 431.271 209.521 430.045 209.188 428.882C208.855 427.718 208.068 426.684 206.957 425.95C205.959 425.285 204.976 424.608 204.007 423.943C201.726 422.381 199.578 420.908 197.569 419.69L196.935 419.31C194.089 417.582 191.153 415.8 187.917 415.052C183.454 414.012 178.739 414.903 173.739 415.842C168.348 416.863 162.775 417.914 157.314 416.436C153.52 415.402 150.34 413.246 147.551 411.352L118.782 391.687L118.887 391.574C117.451 391.8 116 391.947 114.542 392.014C113.907 392.055 113.279 392.097 112.659 392.15C109.792 392.406 106.291 393.481 105.838 395.714C105.765 396.262 105.765 396.816 105.838 397.365C105.917 398 105.928 398.64 105.873 399.277C105.559 402.158 102.937 404.795 98.8639 406.315C97.4547 406.814 96.0134 407.244 94.5469 407.604C92.9785 407.969 91.4483 408.444 89.9718 409.023C82.3002 412.26 79.5106 420.646 77.9274 427.589L77.781 428.237C76.0723 435.809 74.1335 444.385 66.6851 449.457C62.0821 452.587 56.3354 453.728 50.3585 454.713C38.9767 456.578 26.6463 458.176 14.2463 458.176C11.6309 458.176 9.0226 458.105 6.40729 457.95C5.85295 457.918 5.29924 458.021 4.81136 458.247C4.32348 458.474 3.92177 458.814 3.65354 459.229C3.38531 459.643 3.26174 460.114 3.29739 460.586C3.33303 461.058 3.52641 461.512 3.85474 461.894C7.5929 466.212 13.6186 469.472 17.9356 473.576C26.3255 481.458 36.8565 498.592 43.6912 513.921C43.9013 514.404 44.2829 514.819 44.7829 515.108C45.2829 515.398 45.8764 515.548 46.4809 515.536C47.4224 515.536 48.3779 515.477 49.3473 515.435C53.3993 515.275 57.5838 515.109 61.6916 515.982C64.4445 516.636 67.1022 517.553 69.6142 518.714C72.4039 519.902 75.2493 521.22 77.9832 522.479C89.6301 527.825 101.695 533.36 114.626 533.407C116.404 533.407 118.231 533.318 120.01 533.223C124.389 532.998 128.916 532.76 133.261 533.936C136.336 534.762 139.007 536.205 141.588 537.595L162.545 548.879C162.654 548.939 162.759 549.004 162.859 549.075C165.523 550.975 166.646 551.623 169.136 552.223C169.573 552.343 169.989 552.515 170.37 552.733C170.652 552.885 170.971 552.979 171.303 553.01C171.635 553.041 171.97 553.007 172.284 552.911C172.598 552.814 172.882 552.659 173.115 552.455C173.347 552.252 173.523 552.005 173.627 551.736C173.78 551.338 173.934 550.958 174.08 550.595C178.565 539.697 202.507 515.554 222.732 499.091L222.907 498.96L228.904 494.844Z" fill="#FFB18E"/>
<path d="M285.437 337.335V401.232L261.935 401.856L262.284 336.22L285.437 337.335Z" fill="#F2E5E2" stroke="#263238" stroke-width="1.2"/>
<path d="M269.061 343.028C269.467 343.028 269.602 343.362 269.589 343.717C269.588 343.741 269.588 343.764 269.589 343.788L269.649 346.327L269.725 349.724C269.743 350.561 269.753 351.444 269.335 352.173C268.917 352.902 267.917 353.384 267.188 352.954C266.459 352.525 266.399 351.62 266.377 350.833L266.239 345.616C266.22 344.928 266.217 344.183 266.613 343.618L266.647 343.569C266.723 343.445 267.229 342.781 268.954 343.025L269.061 343.028Z" fill="#525252"/>
<path d="M274.829 342.899C275.234 342.899 275.37 343.232 275.357 343.587C275.355 343.611 275.355 343.635 275.357 343.658L275.417 346.197L275.492 349.594C275.511 350.431 275.52 351.315 275.102 352.044C274.684 352.772 273.685 353.254 272.953 352.825C272.22 352.396 272.167 351.491 272.145 350.703L272 345.474C271.984 344.786 271.981 344.041 272.377 343.476L272.412 343.427C272.487 343.303 272.993 342.639 274.719 342.883L274.829 342.899Z" fill="#525252"/>
<path d="M280.546 342.942C280.949 342.942 281.087 343.275 281.071 343.63V343.702L281.128 346.24L281.206 349.638C281.225 350.474 281.232 351.358 280.817 352.087C280.402 352.816 279.399 353.297 278.667 352.868C277.934 352.439 277.878 351.534 277.859 350.746L277.718 345.521C277.699 344.832 277.699 344.088 278.095 343.522L278.126 343.473C278.205 343.349 278.711 342.685 280.436 342.929L280.546 342.942Z" fill="#525252"/>
<path d="M268.973 356.417C269.379 356.417 269.514 356.75 269.501 357.105C269.5 357.13 269.5 357.155 269.501 357.18L269.561 359.718L269.636 363.116C269.655 363.953 269.665 364.836 269.247 365.565C268.829 366.294 267.829 366.775 267.1 366.346C266.371 365.917 266.311 365.015 266.289 364.224L266.151 359.011C266.132 358.319 266.129 357.578 266.525 357.01L266.559 356.96C266.635 356.837 267.141 356.176 268.866 356.42C268.917 356.411 268.936 356.417 268.973 356.417Z" fill="#525252"/>
<path d="M274.741 356.284C275.146 356.284 275.282 356.617 275.269 356.973C275.267 356.997 275.267 357.022 275.269 357.047L275.329 359.585L275.404 362.983C275.423 363.82 275.432 364.703 275.014 365.432C274.596 366.161 273.597 366.643 272.865 366.213C272.132 365.784 272.079 364.882 272.057 364.092L271.915 358.878C271.9 358.186 271.896 357.445 272.292 356.877L272.324 356.827C272.402 356.704 272.909 356.043 274.634 356.287C274.666 356.284 274.703 356.284 274.741 356.284Z" fill="#525252"/>
<path d="M280.465 356.33C280.867 356.33 281.005 356.664 280.989 357.019V357.093L281.046 359.632L281.125 363.029C281.144 363.866 281.15 364.749 280.735 365.478C280.32 366.207 279.317 366.689 278.585 366.26C277.853 365.83 277.796 364.929 277.777 364.138L277.636 358.925C277.617 358.233 277.617 357.492 278.013 356.923L278.044 356.874C278.123 356.75 278.629 356.089 280.355 356.333C280.389 356.324 280.427 356.33 280.465 356.33Z" fill="#525252"/>
<path d="M268.885 371.109C269.291 371.109 269.426 371.442 269.413 371.797C269.412 371.822 269.412 371.847 269.413 371.871L269.473 374.41L269.548 377.807C269.567 378.644 269.577 379.528 269.159 380.257C268.741 380.985 267.741 381.467 267.009 381.038C266.276 380.609 266.223 379.707 266.201 378.916L266.063 373.703C266.044 373.011 266.041 372.267 266.437 371.702L266.471 371.652C266.547 371.529 267.053 370.868 268.778 371.109C268.814 371.111 268.85 371.111 268.885 371.109Z" fill="#525252"/>
<path d="M274.653 370.988C275.058 370.988 275.194 371.322 275.181 371.677C275.179 371.702 275.179 371.726 275.181 371.751L275.241 374.29L275.316 377.687C275.335 378.524 275.344 379.407 274.926 380.136C274.508 380.865 273.509 381.347 272.776 380.917C272.044 380.488 271.991 379.586 271.969 378.796L271.824 373.579C271.808 372.888 271.805 372.143 272.201 371.578L272.233 371.529C272.311 371.405 272.817 370.744 274.543 370.985C274.579 370.989 274.616 370.99 274.653 370.988Z" fill="#525252"/>
<path d="M280.377 371.031C280.779 371.031 280.917 371.365 280.901 371.72V371.794L280.958 374.333L281.037 377.73C281.055 378.567 281.062 379.451 280.647 380.179C280.232 380.908 279.229 381.39 278.497 380.961C277.765 380.531 277.708 379.63 277.689 378.839L277.548 373.626C277.529 372.934 277.529 372.19 277.925 371.624L277.956 371.575C278.035 371.451 278.541 370.791 280.267 371.031C280.303 371.035 280.34 371.035 280.377 371.031Z" fill="#525252"/>
<path d="M268.885 384.667C269.291 384.667 269.426 385.001 269.413 385.356C269.412 385.38 269.412 385.405 269.413 385.43L269.473 387.969L269.548 391.366C269.567 392.203 269.577 393.086 269.159 393.818C268.741 394.55 267.741 395.026 267.009 394.596C266.276 394.167 266.223 393.265 266.201 392.475L266.063 387.261C266.044 386.573 266.041 385.828 266.437 385.26L266.471 385.211C266.547 385.09 267.053 384.426 268.778 384.67C268.813 384.661 268.848 384.667 268.885 384.667Z" fill="#525252"/>
<path d="M274.653 384.537C275.058 384.537 275.194 384.871 275.181 385.226C275.179 385.251 275.179 385.276 275.181 385.3L275.241 387.839L275.316 391.236C275.335 392.073 275.344 392.957 274.926 393.688C274.508 394.42 273.509 394.896 272.777 394.467C272.044 394.037 271.991 393.136 271.969 392.345L271.827 387.132C271.812 386.443 271.808 385.699 272.204 385.13C272.204 385.115 272.226 385.099 272.236 385.081C272.314 384.961 272.821 384.296 274.546 384.54C274.574 384.531 274.615 384.537 274.653 384.537Z" fill="#525252"/>
<path d="M280.377 384.58C280.779 384.58 280.917 384.914 280.901 385.269V385.343L280.958 387.882L281.037 391.279C281.055 392.116 281.062 393 280.647 393.732C280.232 394.464 279.229 394.939 278.497 394.51C277.765 394.081 277.708 393.179 277.689 392.388L277.548 387.169C277.529 386.48 277.529 385.736 277.925 385.167C277.925 385.152 277.947 385.136 277.956 385.118C278.035 384.997 278.541 384.333 280.267 384.577C280.301 384.574 280.339 384.58 280.377 384.58Z" fill="#525252"/>
<path d="M264.104 352.563V401.694L240.604 402.093L240.95 352.56L264.104 352.563Z" fill="#EC644E" stroke="#263238" stroke-width="1.2"/>
<path d="M247.641 358.208C248.046 358.208 248.182 358.542 248.169 358.897V358.971L248.226 361.51L248.304 364.907C248.323 365.744 248.329 366.627 247.914 367.356C247.499 368.085 246.497 368.567 245.764 368.137C245.032 367.708 244.976 366.806 244.954 366.016L244.815 360.802C244.796 360.111 244.793 359.369 245.189 358.801L245.224 358.752C245.302 358.631 245.808 357.967 247.531 358.211L247.641 358.208Z" fill="white"/>
<path d="M253.409 358.078C253.814 358.078 253.949 358.412 253.937 358.767C253.935 358.792 253.935 358.817 253.937 358.841L253.993 361.38L254.069 364.777C254.087 365.614 254.097 366.498 253.682 367.227C253.267 367.955 252.264 368.437 251.532 368.008C250.8 367.579 250.743 366.677 250.721 365.886L250.583 360.648C250.564 359.956 250.561 359.215 250.957 358.647L251.001 358.61C251.08 358.486 251.586 357.825 253.308 358.069L253.409 358.078Z" fill="white"/>
<path d="M259.132 358.122C259.538 358.122 259.673 358.455 259.66 358.81C259.659 358.835 259.659 358.86 259.66 358.884L259.717 361.423L259.792 364.82C259.811 365.657 259.821 366.541 259.403 367.27C258.984 367.998 257.985 368.48 257.256 368.051C256.527 367.622 256.467 366.72 256.445 365.929L256.307 360.716C256.288 360.024 256.285 359.283 256.681 358.715L256.715 358.665C256.791 358.542 257.297 357.881 259.022 358.125C259.06 358.115 259.094 358.122 259.132 358.122Z" fill="white"/>
<path d="M247.543 371.992C247.949 371.992 248.084 372.326 248.072 372.681V372.755L248.128 375.29L248.207 378.688C248.226 379.525 248.232 380.408 247.817 381.137C247.402 381.866 246.399 382.348 245.667 381.918C244.935 381.489 244.878 380.587 244.856 379.797L244.715 374.571C244.696 373.882 244.693 373.138 245.089 372.573L245.123 372.523C245.202 372.4 245.708 371.739 247.43 371.98L247.543 371.992Z" fill="white"/>
<path d="M253.321 371.862C253.726 371.862 253.861 372.196 253.849 372.551C253.847 372.576 253.847 372.6 253.849 372.625L253.905 375.161L253.981 378.558C253.999 379.395 254.009 380.278 253.594 381.007C253.179 381.736 252.176 382.218 251.444 381.788C250.712 381.359 250.655 380.454 250.633 379.667L250.495 374.45C250.476 373.762 250.473 373.017 250.869 372.452L250.903 372.403C250.982 372.279 251.485 371.618 253.211 371.859L253.321 371.862Z" fill="white"/>
<path d="M259.044 371.905C259.45 371.905 259.585 372.239 259.572 372.594C259.571 372.619 259.571 372.643 259.572 372.668L259.629 375.204L259.704 378.601C259.723 379.438 259.733 380.321 259.314 381.05C258.896 381.779 257.897 382.261 257.168 381.832C256.439 381.402 256.379 380.501 256.357 379.71L256.219 374.484C256.2 373.795 256.197 373.051 256.593 372.486L256.627 372.437C256.703 372.313 257.209 371.652 258.934 371.893L259.044 371.905Z" fill="white"/>
<path d="M247.543 386.458C247.949 386.458 248.084 386.792 248.072 387.147V387.208L248.128 389.747L248.207 393.144C248.226 393.981 248.232 394.865 247.817 395.597C247.402 396.329 246.399 396.804 245.667 396.375C244.935 395.946 244.878 395.044 244.856 394.253L244.715 389.04C244.696 388.351 244.693 387.607 245.089 387.039C245.102 387.023 245.114 387.007 245.123 386.989C245.202 386.869 245.708 386.205 247.43 386.449L247.543 386.458Z" fill="white"/>
<path d="M253.321 386.328C253.726 386.328 253.861 386.662 253.849 387.017C253.847 387.042 253.847 387.067 253.849 387.091L253.905 389.63L253.981 393.027C253.999 393.864 254.009 394.748 253.594 395.48C253.179 396.211 252.176 396.687 251.444 396.258C250.712 395.829 250.655 394.927 250.633 394.136L250.495 388.923C250.476 388.234 250.473 387.49 250.869 386.921L250.903 386.872C250.982 386.752 251.485 386.088 253.211 386.331L253.321 386.328Z" fill="white"/>
<path d="M259.044 386.372C259.45 386.372 259.585 386.705 259.572 387.06C259.571 387.085 259.571 387.11 259.572 387.134L259.629 389.673L259.704 393.07C259.723 393.907 259.733 394.791 259.314 395.523C258.896 396.255 257.897 396.73 257.168 396.301C256.439 395.872 256.379 394.97 256.357 394.179L256.219 388.966C256.2 388.277 256.197 387.533 256.593 386.965L256.627 386.915C256.703 386.795 257.209 386.131 258.934 386.375C258.972 386.365 259.006 386.372 259.044 386.372Z" fill="white"/>
<path d="M76.2379 340.439L82.9791 302.817C83.0199 302.588 83.1402 302.381 83.3189 302.231C83.4976 302.082 83.7234 302 83.9565 302C84.1897 302 84.4154 302.082 84.5942 302.231C84.7729 302.381 84.8932 302.588 84.934 302.817L93.2992 349.495C93.3241 349.638 93.3176 349.784 93.2801 349.924C93.2425 350.064 93.1748 350.194 93.0818 350.305C92.9887 350.416 92.8724 350.505 92.7411 350.567C92.6098 350.628 92.4667 350.66 92.3217 350.661H78.2266" fill="#8DD27F"/>
<path d="M76.2379 340.439L82.9791 302.817C83.0199 302.588 83.1402 302.381 83.3189 302.231C83.4976 302.082 83.7234 302 83.9565 302C84.1897 302 84.4154 302.082 84.5942 302.231C84.7729 302.381 84.8932 302.588 84.934 302.817L93.2992 349.495C93.3241 349.638 93.3176 349.784 93.2801 349.924C93.2425 350.064 93.1748 350.194 93.0818 350.305C92.9887 350.416 92.8724 350.505 92.7411 350.567C92.6098 350.628 92.4667 350.66 92.3217 350.661H78.2266" stroke="#263238" stroke-width="1.2" stroke-linecap="round" stroke-linejoin="round"/>
<path d="M83.9566 325.479V359.818" stroke="#263238" stroke-width="1.2" stroke-linecap="round" stroke-linejoin="round"/>
<path d="M80.2121 334.648L83.8401 338.267" stroke="#263238" stroke-width="1.2" stroke-linecap="round" stroke-linejoin="round"/>
<path d="M88.8623 341.191L83.9566 346.088" stroke="#263238" stroke-width="1.2" stroke-linecap="round" stroke-linejoin="round"/>
<path d="M86.4079 329.143L83.9566 331.593" stroke="#263238" stroke-width="1.2" stroke-linecap="round" stroke-linejoin="round"/>
<path d="M77.4115 352.37H63.8066C63.6885 352.37 63.5718 352.345 63.4648 352.295C63.3579 352.245 63.2632 352.172 63.1874 352.082C63.1117 351.991 63.0569 351.885 63.0267 351.771C62.9966 351.657 62.9919 351.538 63.013 351.422L69.8154 313.464C69.8483 313.278 69.9459 313.11 70.091 312.988C70.2362 312.866 70.4196 312.8 70.609 312.8C70.7985 312.8 70.9819 312.866 71.127 312.988C71.2721 313.11 71.3697 313.278 71.4026 313.464L78.2051 351.422C78.2262 351.538 78.2215 351.657 78.1913 351.771C78.1612 351.885 78.1063 351.991 78.0306 352.082C77.9549 352.172 77.8602 352.245 77.7532 352.295C77.6462 352.345 77.5295 352.37 77.4115 352.37Z" fill="#8DD27F" stroke="#263238" stroke-width="1.2" stroke-linecap="round" stroke-linejoin="round"/>
<path d="M70.609 331.893V359.818" stroke="#263238" stroke-width="1.2" stroke-linecap="round" stroke-linejoin="round"/>
<path d="M67.5663 339.35L70.5141 342.292" stroke="#263238" stroke-width="1.2" stroke-linecap="round" stroke-linejoin="round"/>
<path d="M74.5986 344.669L70.609 348.651" stroke="#263238" stroke-width="1.2" stroke-linecap="round" stroke-linejoin="round"/>
<path d="M72.6038 334.872L70.609 336.863" stroke="#263238" stroke-width="1.2" stroke-linecap="round" stroke-linejoin="round"/>
<path d="M450.076 185.664V237.213H412.795V185.655L430.896 168.332L450.076 185.664Z" fill="white" stroke="#263238"/>
<path d="M425.011 201.295H419.96V209.342H425.011V201.295Z" fill="#8CBBE5"/>
<path d="M425.051 190.548H420V198.595H425.051V190.548Z" fill="#8CBBE5"/>
<path d="M433.385 201.426H428.335V209.473H433.385V201.426Z" fill="#8CBBE5"/>
<path d="M433.426 190.548H428.375V198.595H433.426V190.548Z" fill="#8CBBE5"/>
<path d="M441.847 200.875H436.796V208.923H441.847V200.875Z" fill="#8CBBE5"/>
<path d="M441.887 190.548H436.836V198.595H441.887V190.548Z" fill="#8CBBE5"/>
<path d="M424.478 212.977H419.428V221.025H424.478V212.977Z" fill="#8CBBE5"/>
<path d="M432.853 213.108H427.802V221.156H432.853V213.108Z" fill="#8CBBE5"/>
<path d="M441.315 212.562H436.264V220.609H441.315V212.562Z" fill="#8CBBE5"/>
<path d="M424.818 224.321H419.767V232.368H424.818V224.321Z" fill="#8CBBE5"/>
<path d="M433.188 224.452H428.137V232.499H433.188V224.452Z" fill="#8CBBE5"/>
<path d="M441.65 223.905H436.599V231.953H441.65V223.905Z" fill="#8CBBE5"/>
<path d="M459.284 191.485L457.254 193.615L431.206 169.929L430.874 169.626L430.538 169.925L404.718 192.85L402.714 190.697L430.897 165.672L459.284 191.485Z" fill="#FF6B43" stroke="#263238"/>
<path d="M430.5 185.635C432.985 185.635 435 183.655 435 181.213C435 178.771 432.985 176.791 430.5 176.791C428.015 176.791 426 178.771 426 181.213C426 183.655 428.015 185.635 430.5 185.635Z" fill="#8CBBE5"/>
<path d="M445.915 242.786H385.281C384.704 240.912 385.005 238.555 386.285 237.361C387.67 236.045 390.089 236.839 390.491 238.969C391.891 235.66 391.409 231.108 393.618 228.613C394.289 227.847 395.226 227.354 396.247 227.231C397.268 227.108 398.299 227.363 399.138 227.947C400.885 229.081 402.08 231.295 402.652 233.672C402.652 232.055 403.45 230.477 404.624 229.836C405.213 229.542 405.888 229.46 406.532 229.605C407.176 229.75 407.748 230.113 408.148 230.63C408.81 228.297 409.508 225.92 410.752 224.001C413.357 219.972 418.376 218.818 421.935 221.407C425.493 223.996 427.225 230.028 425.774 234.891C426.999 233.722 428.284 232.553 429.694 231.858C431.104 231.162 432.786 230.97 434.211 231.759C434.981 232.254 435.596 232.95 435.988 233.768C436.38 234.587 436.532 235.496 436.43 236.395C438.151 233.436 441.95 232.943 444.129 235.369C445.735 237.184 446.217 240 445.915 242.786Z" fill="#87C880" stroke="#263238" stroke-width="1.2" stroke-miterlimit="10" stroke-linejoin="round"/>
<path d="M440.455 241.822H391.47C391.562 241.373 391.822 240.971 392.2 240.69C392.669 240.384 393.245 240.267 393.804 240.363C394.362 240.46 394.859 240.762 395.186 241.204C395.851 239.887 396.515 238.571 397.177 237.259C397.523 236.567 397.938 235.818 398.69 235.546C399.442 235.274 400.258 235.571 400.945 235.958C402.505 236.795 403.784 238.035 404.635 239.536L406.852 236.283C407.102 235.841 407.46 235.464 407.897 235.184C408.231 235.035 408.598 234.969 408.965 234.992C409.332 235.015 409.687 235.126 409.997 235.315C410.612 235.7 411.149 236.186 411.583 236.753C412.49 234.947 413.676 233.282 415.1 231.811C415.397 231.445 415.791 231.16 416.241 230.987C416.716 230.88 417.214 230.91 417.671 231.074C419.297 231.573 420.711 232.558 421.704 233.883C422.698 235.207 423.218 236.801 423.189 238.429C424.088 237.643 425.108 236.993 426.213 236.501C427.181 236.09 428.374 235.777 429.281 236.304C430.344 236.917 430.512 238.297 430.577 239.483C432.356 238.993 434.196 238.733 436.047 238.709C436.923 238.636 437.802 238.811 438.575 239.211C439.088 239.568 439.508 240.033 439.802 240.57C440.046 240.974 440.264 241.393 440.455 241.822Z" fill="#7ABC71"/>
<path d="M471.501 217.157V244.194H442.701V217.157H471.501Z" fill="white" stroke="#263238"/>
<path d="M469.691 206.366L476.178 218.903H439.799L446.164 205.795L469.691 206.366Z" fill="#FF6B43" stroke="#263238"/>
<path d="M456.25 236.466C456.894 236.466 457.509 236.717 457.961 237.16C458.413 237.603 458.665 238.202 458.666 238.823V244.294H453.835V238.823L453.847 238.592C453.902 238.055 454.144 237.548 454.54 237.16C454.992 236.717 455.607 236.466 456.25 236.466Z" fill="#2E292B" stroke="#263238"/>
<rect x="446" y="222.194" width="4" height="4.91304" rx="1" fill="#525252"/>
<rect x="446" y="229.072" width="4" height="4.91304" rx="1" fill="#525252"/>
<rect x="452" y="222.194" width="4" height="4.91304" rx="1" fill="#525252"/>
<rect x="452" y="229.072" width="4" height="4.91304" rx="1" fill="#525252"/>
<path d="M458 223.194C458 222.642 458.448 222.194 459 222.194H461C461.552 222.194 462 222.642 462 223.194V226.107C462 226.659 461.552 227.107 461 227.107H459C458.448 227.107 458 226.659 458 226.107V223.194Z" fill="#525252"/>
<path d="M464 223.194C464 222.642 464.448 222.194 465 222.194H467C467.552 222.194 468 222.642 468 223.194V226.107C468 226.659 467.552 227.107 467 227.107H465C464.448 227.107 464 226.659 464 226.107V223.194Z" fill="#525252"/>
<path d="M458 230.072C458 229.52 458.448 229.072 459 229.072H461C461.552 229.072 462 229.52 462 230.072V232.985C462 233.538 461.552 233.985 461 233.985H459C458.448 233.985 458 233.538 458 232.985V230.072Z" fill="#525252"/>
<path d="M464 230.072C464 229.52 464.448 229.072 465 229.072H467C467.552 229.072 468 229.52 468 230.072V232.985C468 233.538 467.552 233.985 467 233.985H465C464.448 233.985 464 233.538 464 232.985V230.072Z" fill="#525252"/>
<path d="M526.238 455.36L532.979 417.739C533.02 417.51 533.14 417.303 533.319 417.153C533.498 417.004 533.723 416.922 533.957 416.922C534.19 416.922 534.415 417.004 534.594 417.153C534.773 417.303 534.893 417.51 534.934 417.739L543.299 464.417C543.324 464.56 543.318 464.706 543.28 464.846C543.243 464.986 543.175 465.116 543.082 465.227C542.989 465.338 542.872 465.427 542.741 465.488C542.61 465.55 542.467 465.582 542.322 465.582H528.227" fill="#8DD27F"/>
<path d="M526.238 455.36L532.979 417.739C533.02 417.51 533.14 417.303 533.319 417.153C533.498 417.004 533.723 416.922 533.957 416.922C534.19 416.922 534.415 417.004 534.594 417.153C534.773 417.303 534.893 417.51 534.934 417.739L543.299 464.417C543.324 464.56 543.318 464.706 543.28 464.846C543.243 464.986 543.175 465.116 543.082 465.227C542.989 465.338 542.872 465.427 542.741 465.488C542.61 465.55 542.467 465.582 542.322 465.582H528.227" stroke="#263238" stroke-width="1.2" stroke-linecap="round" stroke-linejoin="round"/>
<path d="M533.957 440.4V474.74" stroke="#263238" stroke-width="1.2" stroke-linecap="round" stroke-linejoin="round"/>
<path d="M530.212 449.57L533.84 453.188" stroke="#263238" stroke-width="1.2" stroke-linecap="round" stroke-linejoin="round"/>
<path d="M538.862 456.113L533.957 461.01" stroke="#263238" stroke-width="1.2" stroke-linecap="round" stroke-linejoin="round"/>
<path d="M536.408 444.064L533.957 446.514" stroke="#263238" stroke-width="1.2" stroke-linecap="round" stroke-linejoin="round"/>
<path d="M527.411 467.292H513.807C513.689 467.292 513.572 467.266 513.465 467.216C513.358 467.167 513.263 467.094 513.187 467.003C513.112 466.913 513.057 466.807 513.027 466.693C512.997 466.579 512.992 466.46 513.013 466.344L519.815 428.386C519.848 428.2 519.946 428.031 520.091 427.91C520.236 427.788 520.42 427.721 520.609 427.721C520.798 427.721 520.982 427.788 521.127 427.91C521.272 428.031 521.37 428.2 521.403 428.386L528.205 466.344C528.226 466.46 528.221 466.579 528.191 466.693C528.161 466.807 528.106 466.913 528.031 467.003C527.955 467.094 527.86 467.167 527.753 467.216C527.646 467.266 527.53 467.292 527.411 467.292Z" fill="#8DD27F" stroke="#263238" stroke-width="1.2" stroke-linecap="round" stroke-linejoin="round"/>
<path d="M520.609 446.814V474.74" stroke="#263238" stroke-width="1.2" stroke-linecap="round" stroke-linejoin="round"/>
<path d="M517.566 454.271L520.514 457.214" stroke="#263238" stroke-width="1.2" stroke-linecap="round" stroke-linejoin="round"/>
<path d="M524.599 459.591L520.609 463.573" stroke="#263238" stroke-width="1.2" stroke-linecap="round" stroke-linejoin="round"/>
<path d="M522.604 449.794L520.609 451.785" stroke="#263238" stroke-width="1.2" stroke-linecap="round" stroke-linejoin="round"/>
<path d="M577.501 404.87V431.906H548.701V404.87H577.501Z" fill="white" stroke="#263238"/>
<path d="M575.691 394.079L582.178 406.616H545.799L552.164 393.508L575.691 394.079Z" fill="#FF6B43" stroke="#263238"/>
<path d="M562.25 424.179C562.894 424.179 563.509 424.43 563.961 424.873C564.413 425.316 564.665 425.914 564.666 426.536V432.007H559.835V426.536L559.847 426.305C559.902 425.767 560.144 425.261 560.54 424.873C560.992 424.43 561.607 424.179 562.25 424.179Z" fill="#2E292B" stroke="#263238"/>
<rect x="552" y="409.907" width="4" height="4.91304" rx="1" fill="#8CBBE5"/>
<rect x="552" y="416.785" width="4" height="4.91304" rx="1" fill="#8CBBE5"/>
<rect x="558" y="409.907" width="4" height="4.91304" rx="1" fill="#8CBBE5"/>
<rect x="558" y="416.785" width="4" height="4.91304" rx="1" fill="#8CBBE5"/>
<path d="M564 410.907C564 410.355 564.448 409.907 565 409.907H567C567.552 409.907 568 410.355 568 410.907V413.82C568 414.372 567.552 414.82 567 414.82H565C564.448 414.82 564 414.372 564 413.82V410.907Z" fill="#8CBBE5"/>
<path d="M570 410.907C570 410.355 570.448 409.907 571 409.907H573C573.552 409.907 574 410.355 574 410.907V413.82C574 414.372 573.552 414.82 573 414.82H571C570.448 414.82 570 414.372 570 413.82V410.907Z" fill="#8CBBE5"/>
<path d="M564 417.785C564 417.233 564.448 416.785 565 416.785H567C567.552 416.785 568 417.233 568 417.785V420.698C568 421.25 567.552 421.698 567 421.698H565C564.448 421.698 564 421.25 564 420.698V417.785Z" fill="#8CBBE5"/>
<path d="M570 417.785C570 417.233 570.448 416.785 571 416.785H573C573.552 416.785 574 417.233 574 417.785V420.698C574 421.25 573.552 421.698 573 421.698H571C570.448 421.698 570 421.25 570 420.698V417.785Z" fill="#8CBBE5"/>
<path d="M317.643 405.306H267.357C267.004 404.359 266.911 403.337 267.087 402.343C267.399 400.696 268.594 399.225 270.123 398.856C270.909 398.681 271.734 398.783 272.451 399.145C273.169 399.507 273.734 400.106 274.047 400.836C274.124 399.317 274.425 397.817 274.941 396.383C275.434 394.976 276.42 393.788 277.723 393.031C278.199 392.749 278.764 392.651 279.309 392.755C279.846 392.949 280.314 393.29 280.658 393.737C281.424 394.582 282.102 395.5 282.684 396.476C282.962 394.753 283.453 393.069 284.143 391.461C284.894 389.902 286.095 388.509 287.655 387.958C288.778 387.604 289.981 387.575 291.119 387.875C292.94 388.241 294.563 389.246 295.684 390.702C296.906 392.391 297.27 394.605 297.556 396.715C297.746 394.595 299.561 393.025 301.438 392.287C301.887 392.084 302.377 391.984 302.871 391.996C303.294 392.066 303.699 392.216 304.062 392.44C304.425 392.664 304.74 392.957 304.987 393.301C306.334 394.936 307.024 396.999 306.928 399.101C307.056 398.29 307.445 397.542 308.038 396.966C308.631 396.389 309.397 396.015 310.223 395.899C311.034 395.843 311.847 395.974 312.597 396.282C313.348 396.59 314.014 397.065 314.544 397.671C315.663 398.94 316.475 400.442 316.919 402.063C317.254 403.122 317.496 404.206 317.643 405.306Z" fill="#B6DB6B" stroke="#263238" stroke-miterlimit="10" stroke-linejoin="round"/>
<path d="M312.791 404.893H272.643C272.645 404.875 272.645 404.855 272.643 404.836C272.602 404.542 272.642 404.242 272.759 403.967C272.876 403.693 273.066 403.455 273.309 403.277C273.607 403.112 273.945 403.029 274.287 403.038C274.773 403.039 275.253 403.139 275.698 403.33C276.143 403.521 276.543 403.8 276.874 404.15C277.165 403.444 277.461 402.737 277.752 402.035C278.222 400.897 278.767 399.676 279.867 399.068C280.452 398.787 281.1 398.661 281.749 398.701C282.398 398.741 283.025 398.946 283.569 399.296C284.643 399.999 285.554 400.914 286.246 401.983C286.462 400.816 286.804 399.675 287.266 398.579C287.484 397.982 287.847 397.447 288.324 397.02C289.165 396.376 290.366 396.433 291.392 396.729C292.508 397.063 293.536 397.637 294.399 398.409C295.263 399.181 295.941 400.132 296.384 401.193C296.791 400.157 297.437 399.228 298.273 398.481C298.698 398.11 299.214 397.854 299.77 397.737C300.326 397.621 300.903 397.648 301.446 397.815C302.906 398.335 303.519 400.019 303.958 401.49C305.14 400.854 306.501 400.612 307.835 400.8C309.169 400.989 310.405 401.597 311.357 402.534C311.991 403.218 312.478 404.021 312.791 404.893Z" fill="#92C25A"/>
<path d="M367.422 43.3205L374.844 1.90013C374.889 1.64783 375.021 1.41937 375.218 1.25478C375.415 1.0902 375.663 1 375.92 1C376.177 1 376.425 1.0902 376.622 1.25478C376.819 1.41937 376.951 1.64783 376.996 1.90013L386.206 53.2917C386.234 53.4486 386.227 53.6097 386.185 53.7637C386.144 53.9176 386.069 54.0607 385.967 54.1828C385.864 54.305 385.736 54.4034 385.592 54.4711C385.447 54.5388 385.29 54.5741 385.13 54.5747H369.612" fill="#5CB56B"/>
<path d="M367.422 43.3205L374.844 1.90013C374.889 1.64783 375.021 1.41937 375.218 1.25478C375.415 1.0902 375.663 1 375.92 1C376.177 1 376.425 1.0902 376.622 1.25478C376.819 1.41937 376.951 1.64783 376.996 1.90013L386.206 53.2917C386.234 53.4486 386.227 53.6097 386.185 53.7637C386.144 53.9176 386.069 54.0607 385.967 54.1828C385.864 54.305 385.736 54.4034 385.592 54.4711C385.447 54.5388 385.29 54.5741 385.13 54.5747H369.612" stroke="#263238" stroke-width="1.2" stroke-linecap="round" stroke-linejoin="round"/>
<path d="M375.92 26.8491V64.6561" stroke="#263238" stroke-width="1.2" stroke-linecap="round" stroke-linejoin="round"/>
<path d="M371.798 36.9453L375.792 40.9291" stroke="#263238" stroke-width="1.2" stroke-linecap="round" stroke-linejoin="round"/>
<path d="M381.321 44.1487L375.92 49.5401" stroke="#263238" stroke-width="1.2" stroke-linecap="round" stroke-linejoin="round"/>
<path d="M378.619 30.8838L375.92 33.5812" stroke="#263238" stroke-width="1.2" stroke-linecap="round" stroke-linejoin="round"/>
<path d="M368.714 56.4568H353.735C353.605 56.457 353.477 56.4286 353.359 56.3736C353.241 56.3187 353.137 56.2386 353.054 56.139C352.97 56.0394 352.91 55.9228 352.877 55.7973C352.844 55.6718 352.838 55.5406 352.862 55.4129L360.351 13.6222C360.387 13.4171 360.495 13.2314 360.655 13.0976C360.814 12.9637 361.016 12.8904 361.225 12.8904C361.433 12.8904 361.635 12.9637 361.795 13.0976C361.955 13.2314 362.062 13.4171 362.099 13.6222L369.588 55.4129C369.611 55.5406 369.606 55.6718 369.573 55.7973C369.54 55.9228 369.479 56.0394 369.396 56.139C369.312 56.2386 369.208 56.3187 369.09 56.3736C368.973 56.4286 368.844 56.457 368.714 56.4568Z" fill="#5CB56B" stroke="#263238" stroke-width="1.2" stroke-linecap="round" stroke-linejoin="round"/>
<path d="M361.225 33.9111V64.6565" stroke="#263238" stroke-width="1.2" stroke-linecap="round" stroke-linejoin="round"/>
<path d="M357.875 42.1211L361.12 45.3606" stroke="#263238" stroke-width="1.2" stroke-linecap="round" stroke-linejoin="round"/>
<path d="M365.617 47.9778L361.225 52.3623" stroke="#263238" stroke-width="1.2" stroke-linecap="round" stroke-linejoin="round"/>
<path d="M363.421 37.1919L361.225 39.3841" stroke="#263238" stroke-width="1.2" stroke-linecap="round" stroke-linejoin="round"/>
<path d="M275.607 106.896L280.5 79.5933C280.529 79.427 280.616 79.2764 280.746 79.1679C280.876 79.0595 281.04 79 281.209 79C281.378 79 281.542 79.0595 281.672 79.1679C281.801 79.2764 281.889 79.427 281.918 79.5933L287.989 113.469C288.007 113.573 288.003 113.679 287.975 113.78C287.948 113.882 287.899 113.976 287.831 114.057C287.764 114.137 287.679 114.202 287.584 114.247C287.489 114.291 287.385 114.315 287.28 114.315H277.05" fill="#8DD27F"/>
<path d="M275.607 106.896L280.5 79.5933C280.529 79.427 280.616 79.2764 280.746 79.1679C280.876 79.0595 281.04 79 281.209 79C281.378 79 281.542 79.0595 281.672 79.1679C281.801 79.2764 281.889 79.427 281.918 79.5933L287.989 113.469C288.007 113.573 288.003 113.679 287.975 113.78C287.948 113.882 287.899 113.976 287.831 114.057C287.764 114.137 287.679 114.202 287.584 114.247C287.489 114.291 287.385 114.315 287.28 114.315H277.05" stroke="#263238" stroke-width="1.2" stroke-linecap="round" stroke-linejoin="round"/>
<path d="M281.209 96.0396V120.961" stroke="#263238" stroke-width="1.2" stroke-linecap="round" stroke-linejoin="round"/>
<path d="M278.491 102.694L281.124 105.32" stroke="#263238" stroke-width="1.2" stroke-linecap="round" stroke-linejoin="round"/>
<path d="M284.769 107.443L281.209 110.996" stroke="#263238" stroke-width="1.2" stroke-linecap="round" stroke-linejoin="round"/>
<path d="M282.988 98.6987L281.209 100.477" stroke="#263238" stroke-width="1.2" stroke-linecap="round" stroke-linejoin="round"/>
<path d="M276.459 115.556H266.585C266.5 115.556 266.415 115.537 266.337 115.501C266.26 115.465 266.191 115.412 266.136 115.346C266.081 115.281 266.041 115.204 266.019 115.121C265.998 115.038 265.994 114.952 266.009 114.868L270.946 87.3203C270.97 87.1851 271.041 87.0627 271.146 86.9745C271.252 86.8862 271.385 86.8379 271.522 86.8379C271.66 86.8379 271.793 86.8862 271.898 86.9745C272.003 87.0627 272.074 87.1851 272.098 87.3203L277.035 114.868C277.05 114.952 277.047 115.038 277.025 115.121C277.003 115.204 276.963 115.281 276.908 115.346C276.853 115.412 276.785 115.465 276.707 115.501C276.629 115.537 276.545 115.556 276.459 115.556Z" fill="#8DD27F" stroke="#263238" stroke-width="1.2" stroke-linecap="round" stroke-linejoin="round"/>
<path d="M271.522 100.694V120.961" stroke="#263238" stroke-width="1.2" stroke-linecap="round" stroke-linejoin="round"/>
<path d="M269.314 106.106L271.453 108.242" stroke="#263238" stroke-width="1.2" stroke-linecap="round" stroke-linejoin="round"/>
<path d="M274.418 109.967L271.522 112.857" stroke="#263238" stroke-width="1.2" stroke-linecap="round" stroke-linejoin="round"/>
<path d="M272.97 102.857L271.522 104.302" stroke="#263238" stroke-width="1.2" stroke-linecap="round" stroke-linejoin="round"/>
<path d="M372.238 201.439L378.979 163.818C379.02 163.588 379.14 163.381 379.319 163.231C379.498 163.082 379.723 163 379.957 163C380.19 163 380.415 163.082 380.594 163.231C380.773 163.381 380.893 163.588 380.934 163.818L389.299 210.495C389.324 210.638 389.318 210.784 389.28 210.924C389.243 211.064 389.175 211.194 389.082 211.305C388.989 211.416 388.872 211.505 388.741 211.567C388.61 211.628 388.467 211.66 388.322 211.661H374.227" fill="#8DD27F"/>
<path d="M372.238 201.439L378.979 163.818C379.02 163.588 379.14 163.381 379.319 163.231C379.498 163.082 379.723 163 379.957 163C380.19 163 380.415 163.082 380.594 163.231C380.773 163.381 380.893 163.588 380.934 163.818L389.299 210.495C389.324 210.638 389.318 210.784 389.28 210.924C389.243 211.064 389.175 211.194 389.082 211.305C388.989 211.416 388.872 211.505 388.741 211.567C388.61 211.628 388.467 211.66 388.322 211.661H374.227" stroke="#263238" stroke-width="1.2" stroke-linecap="round" stroke-linejoin="round"/>
<path d="M379.957 186.479V220.818" stroke="#263238" stroke-width="1.2" stroke-linecap="round" stroke-linejoin="round"/>
<path d="M376.212 195.648L379.84 199.267" stroke="#263238" stroke-width="1.2" stroke-linecap="round" stroke-linejoin="round"/>
<path d="M384.862 202.191L379.957 207.088" stroke="#263238" stroke-width="1.2" stroke-linecap="round" stroke-linejoin="round"/>
<path d="M382.408 190.143L379.957 192.593" stroke="#263238" stroke-width="1.2" stroke-linecap="round" stroke-linejoin="round"/>
<path d="M373.411 213.37H359.807C359.689 213.37 359.572 213.345 359.465 213.295C359.358 213.245 359.263 213.172 359.187 213.082C359.112 212.991 359.057 212.885 359.027 212.771C358.997 212.657 358.992 212.538 359.013 212.422L365.815 174.464C365.848 174.278 365.946 174.11 366.091 173.988C366.236 173.866 366.42 173.8 366.609 173.8C366.798 173.8 366.982 173.866 367.127 173.988C367.272 174.11 367.37 174.278 367.403 174.464L374.205 212.422C374.226 212.538 374.221 212.657 374.191 212.771C374.161 212.885 374.106 212.991 374.031 213.082C373.955 213.172 373.86 213.245 373.753 213.295C373.646 213.345 373.53 213.37 373.411 213.37Z" fill="#8DD27F" stroke="#263238" stroke-width="1.2" stroke-linecap="round" stroke-linejoin="round"/>
<path d="M366.609 192.893V220.818" stroke="#263238" stroke-width="1.2" stroke-linecap="round" stroke-linejoin="round"/>
<path d="M363.566 200.35L366.514 203.292" stroke="#263238" stroke-width="1.2" stroke-linecap="round" stroke-linejoin="round"/>
<path d="M370.599 205.669L366.609 209.651" stroke="#263238" stroke-width="1.2" stroke-linecap="round" stroke-linejoin="round"/>
<path d="M368.604 195.872L366.609 197.863" stroke="#263238" stroke-width="1.2" stroke-linecap="round" stroke-linejoin="round"/>
<path d="M36.258 469.403H23.742C23.6334 469.403 23.5261 469.38 23.4276 469.334C23.3292 469.288 23.2421 469.221 23.1724 469.138C23.1028 469.055 23.0523 468.957 23.0246 468.852C22.9968 468.747 22.9925 468.638 23.0119 468.531L29.2699 433.611C29.3002 433.44 29.39 433.285 29.5235 433.173C29.657 433.061 29.8257 433 30 433C30.1743 433 30.343 433.061 30.4765 433.173C30.61 433.285 30.6998 433.44 30.7301 433.611L36.9881 468.531C37.0075 468.638 37.0032 468.747 36.9754 468.852C36.9477 468.957 36.8972 469.055 36.8276 469.138C36.7579 469.221 36.6708 469.288 36.5724 469.334C36.4739 469.38 36.3666 469.403 36.258 469.403Z" fill="#8DD27F" stroke="#263238" stroke-width="1.2" stroke-linecap="round" stroke-linejoin="round"/>
<path d="M30 450.565V476.255" stroke="#263238" stroke-width="1.2" stroke-linecap="round" stroke-linejoin="round"/>
<path d="M27.2008 457.425L29.9126 460.132" stroke="#263238" stroke-width="1.2" stroke-linecap="round" stroke-linejoin="round"/>
<path d="M33.6702 462.319L30 465.982" stroke="#263238" stroke-width="1.2" stroke-linecap="round" stroke-linejoin="round"/>
<path d="M31.8351 453.306L30 455.137" stroke="#263238" stroke-width="1.2" stroke-linecap="round" stroke-linejoin="round"/>
<path d="M47.417 367.603H37.583C37.4977 367.603 37.4133 367.584 37.336 367.548C37.2587 367.512 37.1902 367.459 37.1355 367.394C37.0808 367.329 37.0411 367.252 37.0193 367.17C36.9975 367.087 36.9941 367.001 37.0094 366.917L41.9264 339.48C41.9501 339.346 42.0207 339.224 42.1256 339.136C42.2305 339.048 42.3631 339 42.5 339C42.6369 339 42.7695 339.048 42.8744 339.136C42.9793 339.224 43.0499 339.346 43.0736 339.48L47.9906 366.917C48.0059 367.001 48.0025 367.087 47.9807 367.17C47.9589 367.252 47.9192 367.329 47.8645 367.394C47.8098 367.459 47.7413 367.512 47.664 367.548C47.5867 367.584 47.5023 367.603 47.417 367.603Z" fill="#5CB56B" stroke="#263238" stroke-width="1.2" stroke-linecap="round" stroke-linejoin="round"/>
<path d="M42.5 352.801V372.986" stroke="#263238" stroke-width="1.2" stroke-linecap="round" stroke-linejoin="round"/>
<path d="M40.3007 358.191L42.4313 360.318" stroke="#263238" stroke-width="1.2" stroke-linecap="round" stroke-linejoin="round"/>
<path d="M45.3837 362.036L42.5 364.914" stroke="#263238" stroke-width="1.2" stroke-linecap="round" stroke-linejoin="round"/>
<path d="M43.9419 354.954L42.5 356.394" stroke="#263238" stroke-width="1.2" stroke-linecap="round" stroke-linejoin="round"/>
<path d="M553.258 302.403H540.742C540.633 302.403 540.526 302.38 540.428 302.334C540.329 302.288 540.242 302.221 540.172 302.138C540.103 302.055 540.052 301.957 540.025 301.852C539.997 301.747 539.993 301.638 540.012 301.531L546.27 266.611C546.3 266.44 546.39 266.285 546.523 266.173C546.657 266.061 546.826 266 547 266C547.174 266 547.343 266.061 547.477 266.173C547.61 266.285 547.7 266.44 547.73 266.611L553.988 301.531C554.007 301.638 554.003 301.747 553.975 301.852C553.948 301.957 553.897 302.055 553.828 302.138C553.758 302.221 553.671 302.288 553.572 302.334C553.474 302.38 553.367 302.403 553.258 302.403Z" fill="#8DD27F" stroke="#263238" stroke-width="1.2" stroke-linecap="round" stroke-linejoin="round"/>
<path d="M547 283.565V309.255" stroke="#263238" stroke-width="1.2" stroke-linecap="round" stroke-linejoin="round"/>
<path d="M544.201 290.425L546.913 293.132" stroke="#263238" stroke-width="1.2" stroke-linecap="round" stroke-linejoin="round"/>
<path d="M550.67 295.318L547 298.982" stroke="#263238" stroke-width="1.2" stroke-linecap="round" stroke-linejoin="round"/>
<path d="M548.835 286.306L547 288.137" stroke="#263238" stroke-width="1.2" stroke-linecap="round" stroke-linejoin="round"/>
<path d="M145.101 587.041L151.772 549.809C151.812 549.582 151.932 549.377 152.108 549.229C152.285 549.081 152.509 549 152.739 549C152.97 549 153.194 549.081 153.37 549.229C153.547 549.377 153.666 549.582 153.707 549.809L161.985 596.003C162.01 596.145 162.004 596.289 161.966 596.428C161.929 596.566 161.862 596.695 161.77 596.805C161.678 596.914 161.563 597.003 161.433 597.064C161.303 597.124 161.161 597.156 161.018 597.157H147.069" fill="#5CB56B"/>
<path d="M145.101 587.041L151.772 549.809C151.812 549.582 151.932 549.377 152.108 549.229C152.285 549.081 152.509 549 152.739 549C152.97 549 153.194 549.081 153.37 549.229C153.547 549.377 153.666 549.582 153.707 549.809L161.985 596.003C162.01 596.145 162.004 596.289 161.966 596.428C161.929 596.566 161.862 596.695 161.77 596.805C161.678 596.914 161.563 597.003 161.433 597.064C161.303 597.124 161.161 597.156 161.018 597.157H147.069" stroke="#263238" stroke-width="1.2" stroke-linecap="round" stroke-linejoin="round"/>
<path d="M152.739 572.235V606.219" stroke="#263238" stroke-width="1.2" stroke-linecap="round" stroke-linejoin="round"/>
<path d="M149.034 581.31L152.624 584.891" stroke="#263238" stroke-width="1.2" stroke-linecap="round" stroke-linejoin="round"/>
<path d="M157.594 587.785L152.739 592.631" stroke="#263238" stroke-width="1.2" stroke-linecap="round" stroke-linejoin="round"/>
<path d="M155.165 575.862L152.739 578.286" stroke="#263238" stroke-width="1.2" stroke-linecap="round" stroke-linejoin="round"/>
<path d="M146.262 598.849H132.798C132.681 598.849 132.566 598.823 132.46 598.774C132.354 598.724 132.26 598.652 132.185 598.563C132.111 598.473 132.056 598.369 132.026 598.256C131.997 598.143 131.992 598.025 132.013 597.91L138.745 560.346C138.777 560.161 138.874 559.995 139.018 559.874C139.161 559.754 139.343 559.688 139.53 559.688C139.718 559.688 139.899 559.754 140.043 559.874C140.186 559.995 140.283 560.161 140.316 560.346L147.048 597.91C147.068 598.025 147.064 598.143 147.034 598.256C147.004 598.369 146.95 598.473 146.875 598.563C146.8 598.652 146.706 598.724 146.6 598.774C146.494 598.823 146.379 598.849 146.262 598.849Z" fill="#5CB56B" stroke="#263238" stroke-width="1.2" stroke-linecap="round" stroke-linejoin="round"/>
<path d="M139.53 578.583V606.219" stroke="#263238" stroke-width="1.2" stroke-linecap="round" stroke-linejoin="round"/>
<path d="M136.519 585.963L139.436 588.875" stroke="#263238" stroke-width="1.2" stroke-linecap="round" stroke-linejoin="round"/>
<path d="M143.478 591.227L139.53 595.168" stroke="#263238" stroke-width="1.2" stroke-linecap="round" stroke-linejoin="round"/>
<path d="M141.504 581.532L139.53 583.502" stroke="#263238" stroke-width="1.2" stroke-linecap="round" stroke-linejoin="round"/>
<path d="M354.456 51.4763V75.0759H329.308V51.4763H354.456Z" fill="white" stroke="#263238"/>
<path d="M352.891 42.0078L358.52 52.8848H326.799L332.324 41.5078L352.891 42.0078Z" fill="#FF6B43" stroke="#263238"/>
<path d="M341.136 68.418C341.684 68.418 342.209 68.6322 342.595 69.0098C342.979 69.3869 343.193 69.896 343.193 70.4248V75.1641H339.078V70.4248C339.078 69.8958 339.293 69.3869 339.678 69.0098C340.063 68.6322 340.587 68.418 341.136 68.418Z" fill="#2E292B" stroke="#263238"/>
<rect x="332.142" y="55.834" width="3.50961" height="4.31072" rx="1" fill="#525252"/>
<rect x="332.142" y="61.8691" width="3.50961" height="4.31072" rx="1" fill="#525252"/>
<rect x="337.406" y="55.834" width="3.50961" height="4.31072" rx="1" fill="#525252"/>
<rect x="337.406" y="61.8691" width="3.50961" height="4.31072" rx="1" fill="#525252"/>
<path d="M342.671 56.834C342.671 56.2817 343.118 55.834 343.671 55.834H345.18C345.733 55.834 346.18 56.2817 346.18 56.834V59.1447C346.18 59.697 345.733 60.1447 345.18 60.1447H343.671C343.118 60.1447 342.671 59.697 342.671 59.1447V56.834Z" fill="#525252"/>
<path d="M347.935 56.834C347.935 56.2817 348.383 55.834 348.935 55.834H350.445C350.997 55.834 351.445 56.2817 351.445 56.834V59.1447C351.445 59.697 350.997 60.1447 350.445 60.1447H348.935C348.383 60.1447 347.935 59.697 347.935 59.1447V56.834Z" fill="#525252"/>
<path d="M342.671 62.8691C342.671 62.3169 343.118 61.8691 343.671 61.8691H345.18C345.733 61.8691 346.18 62.3169 346.18 62.8691V65.1799C346.18 65.7321 345.733 66.1799 345.18 66.1799H343.671C343.118 66.1799 342.671 65.7321 342.671 65.1799V62.8691Z" fill="#525252"/>
<path d="M347.935 62.8691C347.935 62.3169 348.383 61.8691 348.935 61.8691H350.445C350.997 61.8691 351.445 62.3169 351.445 62.8691V65.1799C351.445 65.7321 350.997 66.1799 350.445 66.1799H348.935C348.383 66.1799 347.935 65.7321 347.935 65.1799V62.8691Z" fill="#525252"/>
<rect x="85" y="412" width="83" height="29" rx="14.5" fill="#736463"/>
<path d="M105.195 420.765H107.13C107.13 421.845 107.045 422.875 106.875 423.855C106.715 424.835 106.415 425.765 105.975 426.645C105.535 427.525 104.91 428.35 104.1 429.12C103.29 429.89 102.235 430.605 100.935 431.265L99.8698 429.735C100.95 429.195 101.835 428.62 102.525 428.01C103.225 427.39 103.765 426.73 104.145 426.03C104.535 425.32 104.805 424.55 104.955 423.72C105.115 422.89 105.195 421.99 105.195 421.02V420.765ZM100.74 420.765H106.365V422.355H100.74V420.765ZM105.24 424.17V425.7L100.26 426.18L100.005 424.485L105.24 424.17ZM108.81 419.415H110.82V433.305H108.81V419.415ZM110.31 424.74H112.755V426.375H110.31V424.74ZM123.614 419.445H125.504V433.335H123.614V419.445ZM119.534 424.5H121.394V426.24H119.534V424.5ZM120.854 419.7H122.714V432.675H120.854V419.7ZM113.549 421.005H119.879V422.595H113.549V421.005ZM113.534 430.185L113.324 428.55C113.754 428.55 114.249 428.55 114.809 428.55C115.369 428.54 115.954 428.525 116.564 428.505C117.174 428.475 117.779 428.44 118.379 428.4C118.989 428.35 119.559 428.29 120.089 428.22L120.209 429.66C119.499 429.82 118.734 429.94 117.914 430.02C117.094 430.09 116.299 430.135 115.529 430.155C114.769 430.175 114.104 430.185 113.534 430.185ZM114.404 422.01H116.204V428.985H114.404V422.01ZM117.209 422.01H118.994V428.985H117.209V422.01ZM133.663 421.47H137.203V423.06H133.663V421.47ZM133.663 424.335H137.263V425.91H133.663V424.335ZM127.543 420.255H129.523V422.175H132.163V420.255H134.128V427.11H127.543V420.255ZM129.523 423.72V425.52H132.163V423.72H129.523ZM129.118 428.34H138.598V433.335H136.588V429.93H129.118V428.34ZM136.588 419.445H138.598V427.725H136.588V419.445ZM145.766 423.36H147.746V426.015H145.766V423.36ZM142.046 422.625H151.571V424.185H142.046V422.625ZM142.046 419.895H151.451V421.47H144.026V423.465H142.046V419.895ZM140.471 425.055H153.041V426.63H140.471V425.055ZM141.911 427.35H151.511V430.935H143.906V432.15H141.926V429.555H149.546V428.835H141.911V427.35ZM141.926 431.73H151.886V433.23H141.926V431.73Z" fill="white"/>
<rect x="391" y="329" width="83" height="29" rx="14.5" fill="#736463"/>
<path d="M411.06 337.765H413.01C413.01 338.835 412.92 339.86 412.74 340.84C412.57 341.82 412.265 342.755 411.825 343.645C411.385 344.525 410.765 345.35 409.965 346.12C409.175 346.88 408.155 347.585 406.905 348.235L405.81 346.72C406.84 346.19 407.69 345.62 408.36 345.01C409.04 344.4 409.575 343.745 409.965 343.045C410.365 342.335 410.645 341.565 410.805 340.735C410.975 339.905 411.06 339 411.06 338.02V337.765ZM406.65 337.765H412.275V339.355H406.65V337.765ZM411.255 341.17V342.7L406.155 343.15L405.9 341.485L411.255 341.17ZM415.56 336.445H417.555V350.335H415.56V336.445ZM412.98 341.755H416.625V343.375H412.98V341.755ZM429.029 336.445H431.024V350.335H429.029V336.445ZM419.789 337.72H427.589V339.295H419.789V337.72ZM419.624 347.155L419.429 345.535C420.269 345.535 421.179 345.53 422.159 345.52C423.139 345.5 424.139 345.465 425.159 345.415C426.189 345.355 427.179 345.265 428.129 345.145L428.249 346.585C427.279 346.745 426.284 346.87 425.264 346.96C424.254 347.04 423.269 347.09 422.309 347.11C421.349 347.13 420.454 347.145 419.624 347.155ZM420.989 338.965H422.924V345.97H420.989V338.965ZM424.454 338.965H426.389V345.97H424.454V338.965ZM433.723 342.505H434.923C435.873 342.505 436.708 342.5 437.428 342.49C438.158 342.47 438.833 342.435 439.453 342.385C440.083 342.335 440.718 342.26 441.358 342.16L441.553 343.705C440.893 343.805 440.238 343.885 439.588 343.945C438.948 343.995 438.253 344.03 437.503 344.05C436.753 344.06 435.893 344.065 434.923 344.065H433.723V342.505ZM433.723 337.225H440.413V338.8H435.703V343.135H433.723V337.225ZM435.088 339.85H440.008V341.41H435.088V339.85ZM442.513 336.445H444.508V344.695H442.513V336.445ZM435.268 345.265H444.508V350.185H435.268V345.265ZM442.558 346.825H437.233V348.61H442.558V346.825ZM456.146 336.415H458.141V350.35H456.146V336.415ZM452.996 341.305H456.716V342.91H452.996V341.305ZM446.996 337.51H448.976V340.885H451.706V337.51H453.671V347.08H446.996V337.51ZM448.976 342.43V345.49H451.706V342.43H448.976Z" fill="white"/>
<rect x="344" y="432" width="96" height="29" rx="14.5" fill="#736463"/>
<path d="M368.213 439.43H370.208V453.365H368.213V439.43ZM359.528 448.4H360.728C361.698 448.4 362.548 448.39 363.278 448.37C364.018 448.35 364.693 448.31 365.303 448.25C365.923 448.19 366.543 448.1 367.163 447.98L367.343 449.63C366.713 449.75 366.078 449.845 365.438 449.915C364.808 449.975 364.113 450.015 363.353 450.035C362.593 450.045 361.718 450.05 360.728 450.05H359.528V448.4ZM359.528 440.66H366.218V442.28H361.508V449.03H359.528V440.66ZM372.592 440.705H374.467V443.885H376.267V440.705H378.097V450.035H372.592V440.705ZM374.467 445.445V448.445H376.267V445.445H374.467ZM382.222 439.43H384.127V453.32H382.222V439.43ZM377.782 444.515H380.077V446.12H377.782V444.515ZM379.402 439.67H381.262V452.72H379.402V439.67ZM385.716 450.14H398.301V451.775H385.716V450.14ZM387.141 440.36H396.876V445.01H389.136V447.335H387.156V443.45H394.896V441.965H387.141V440.36ZM387.156 446.555H397.191V448.145H387.156V446.555ZM399.964 448.58H401.164C401.974 448.58 402.734 448.575 403.444 448.565C404.154 448.545 404.844 448.51 405.514 448.46C406.194 448.4 406.889 448.315 407.599 448.205L407.779 449.795C407.059 449.905 406.349 449.99 405.649 450.05C404.949 450.11 404.234 450.15 403.504 450.17C402.774 450.18 401.994 450.185 401.164 450.185H399.964V448.58ZM399.964 440.585H406.999V442.205H401.944V449.105H399.964V440.585ZM401.494 444.455H406.414V446.015H401.494V444.455ZM408.799 439.445H410.794V453.335H408.799V439.445ZM413.478 448.58H414.678C415.488 448.58 416.248 448.575 416.958 448.565C417.668 448.545 418.358 448.51 419.028 448.46C419.708 448.4 420.403 448.315 421.113 448.205L421.293 449.795C420.573 449.905 419.863 449.99 419.163 450.05C418.463 450.11 417.748 450.15 417.018 450.17C416.288 450.18 415.508 450.185 414.678 450.185H413.478V448.58ZM413.478 440.585H420.513V442.205H415.458V449.105H413.478V440.585ZM415.008 444.455H419.928V446.015H415.008V444.455ZM422.313 439.445H424.308V453.335H422.313V439.445Z" fill="white"/>
<rect x="244" y="223" width="110" height="29" rx="14.5" fill="#736463"/>
<path d="M265.891 234.09H269.401V235.68H265.891V234.09ZM268.546 230.445H270.556V240.585H268.546V230.445ZM261.376 242.49H270.871V244.095H261.376V242.49ZM261.376 239.595H263.371V243.315H261.376V239.595ZM262.756 231.27C263.446 231.27 264.066 231.425 264.616 231.735C265.176 232.035 265.616 232.455 265.936 232.995C266.266 233.535 266.431 234.15 266.431 234.84C266.431 235.52 266.266 236.13 265.936 236.67C265.616 237.2 265.176 237.62 264.616 237.93C264.066 238.24 263.446 238.395 262.756 238.395C262.076 238.395 261.456 238.24 260.896 237.93C260.346 237.62 259.906 237.2 259.576 236.67C259.256 236.13 259.096 235.52 259.096 234.84C259.096 234.15 259.256 233.535 259.576 232.995C259.906 232.455 260.346 232.035 260.896 231.735C261.456 231.425 262.076 231.27 262.756 231.27ZM262.756 233.01C262.426 233.01 262.126 233.085 261.856 233.235C261.596 233.375 261.386 233.58 261.226 233.85C261.076 234.12 261.001 234.445 261.001 234.825C261.001 235.215 261.076 235.545 261.226 235.815C261.386 236.085 261.596 236.29 261.856 236.43C262.126 236.57 262.431 236.64 262.771 236.64C263.101 236.64 263.396 236.57 263.656 236.43C263.916 236.29 264.121 236.085 264.271 235.815C264.431 235.545 264.511 235.215 264.511 234.825C264.511 234.445 264.431 234.12 264.271 233.85C264.121 233.58 263.916 233.375 263.656 233.235C263.396 233.085 263.096 233.01 262.756 233.01ZM273.105 239.37H274.23C275.05 239.37 275.785 239.36 276.435 239.34C277.095 239.32 277.72 239.285 278.31 239.235C278.9 239.175 279.495 239.09 280.095 238.98L280.29 240.6C279.66 240.71 279.04 240.795 278.43 240.855C277.83 240.915 277.19 240.955 276.51 240.975C275.84 240.995 275.08 241.005 274.23 241.005H273.105V239.37ZM273.105 231.66H279.39V233.25H275.1V240H273.105V231.66ZM282.105 230.43H284.1V244.365H282.105V230.43ZM278.715 235.23H282.96V236.85H278.715V235.23ZM291.074 231.765H293.024C293.024 232.835 292.934 233.86 292.754 234.84C292.584 235.82 292.279 236.755 291.839 237.645C291.399 238.525 290.779 239.35 289.979 240.12C289.189 240.88 288.169 241.585 286.919 242.235L285.824 240.72C286.854 240.19 287.704 239.62 288.374 239.01C289.054 238.4 289.589 237.745 289.979 237.045C290.379 236.335 290.659 235.565 290.819 234.735C290.989 233.905 291.074 233 291.074 232.02V231.765ZM286.664 231.765H292.289V233.355H286.664V231.765ZM291.269 235.17V236.7L286.169 237.15L285.914 235.485L291.269 235.17ZM295.574 230.445H297.569V244.335H295.574V230.445ZM292.994 235.755H296.639V237.375H292.994V235.755ZM309.043 230.445H311.038V244.335H309.043V230.445ZM299.803 231.72H307.603V233.295H299.803V231.72ZM299.638 241.155L299.443 239.535C300.283 239.535 301.193 239.53 302.173 239.52C303.153 239.5 304.153 239.465 305.173 239.415C306.203 239.355 307.193 239.265 308.143 239.145L308.263 240.585C307.293 240.745 306.298 240.87 305.278 240.96C304.268 241.04 303.283 241.09 302.323 241.11C301.363 241.13 300.468 241.145 299.638 241.155ZM301.003 232.965H302.938V239.97H301.003V232.965ZM304.468 232.965H306.403V239.97H304.468V232.965ZM313.601 231.195H319.541V232.77H313.601V231.195ZM315.311 234.3H317.276V237.72H315.311V234.3ZM318.746 231.195H320.726V232.095C320.726 232.555 320.711 233.09 320.681 233.7C320.651 234.31 320.556 234.995 320.396 235.755L318.461 235.59C318.611 234.85 318.696 234.2 318.716 233.64C318.736 233.07 318.746 232.555 318.746 232.095V231.195ZM322.061 230.43H324.071V238.905H322.061V230.43ZM323.291 233.85H325.736V235.485H323.291V233.85ZM312.971 238.335L312.776 236.745C313.616 236.745 314.516 236.74 315.476 236.73C316.446 236.72 317.431 236.69 318.431 236.64C319.431 236.58 320.391 236.495 321.311 236.385L321.446 237.795C320.496 237.955 319.526 238.075 318.536 238.155C317.546 238.225 316.576 238.275 315.626 238.305C314.686 238.325 313.801 238.335 312.971 238.335ZM319.391 239.055C320.381 239.055 321.231 239.16 321.941 239.37C322.661 239.58 323.216 239.88 323.606 240.27C323.996 240.66 324.191 241.13 324.191 241.68C324.191 242.23 323.996 242.7 323.606 243.09C323.216 243.49 322.661 243.795 321.941 244.005C321.231 244.215 320.381 244.32 319.391 244.32C318.411 244.32 317.556 244.215 316.826 244.005C316.106 243.795 315.551 243.49 315.161 243.09C314.771 242.7 314.576 242.23 314.576 241.68C314.576 241.13 314.771 240.66 315.161 240.27C315.551 239.88 316.106 239.58 316.826 239.37C317.556 239.16 318.411 239.055 319.391 239.055ZM319.391 240.585C318.491 240.585 317.801 240.675 317.321 240.855C316.851 241.035 316.616 241.31 316.616 241.68C316.616 242.04 316.851 242.31 317.321 242.49C317.801 242.67 318.491 242.76 319.391 242.76C320.281 242.76 320.961 242.67 321.431 242.49C321.911 242.31 322.151 242.04 322.151 241.68C322.151 241.31 321.911 241.035 321.431 240.855C320.961 240.675 320.281 240.585 319.391 240.585ZM335.425 230.445H337.42V240.54H335.425V230.445ZM336.865 234.405H339.265V236.055H336.865V234.405ZM328.465 242.49H337.915V244.095H328.465V242.49ZM328.465 239.49H330.475V243.21H328.465V239.49ZM330.355 231.33C331.065 231.33 331.705 231.48 332.275 231.78C332.845 232.08 333.295 232.495 333.625 233.025C333.965 233.555 334.135 234.165 334.135 234.855C334.135 235.535 333.965 236.145 333.625 236.685C333.295 237.215 332.845 237.635 332.275 237.945C331.705 238.245 331.065 238.395 330.355 238.395C329.645 238.395 329.005 238.245 328.435 237.945C327.865 237.635 327.415 237.215 327.085 236.685C326.755 236.145 326.59 235.535 326.59 234.855C326.59 234.165 326.755 233.555 327.085 233.025C327.415 232.495 327.865 232.08 328.435 231.78C329.005 231.48 329.645 231.33 330.355 231.33ZM330.355 233.055C330.015 233.055 329.705 233.13 329.425 233.28C329.155 233.42 328.94 233.625 328.78 233.895C328.62 234.155 328.54 234.475 328.54 234.855C328.54 235.235 328.62 235.56 328.78 235.83C328.94 236.09 329.155 236.295 329.425 236.445C329.705 236.585 330.015 236.655 330.355 236.655C330.705 236.655 331.015 236.585 331.285 236.445C331.565 236.295 331.785 236.09 331.945 235.83C332.105 235.56 332.185 235.235 332.185 234.855C332.185 234.475 332.105 234.155 331.945 233.895C331.785 233.625 331.565 233.42 331.285 233.28C331.015 233.13 330.705 233.055 330.355 233.055Z" fill="white"/>
<rect x="575.5" y="326" width="137" height="29" rx="14.5" fill="#736463"/>
<path d="M599.972 333.415H601.982V347.35H599.972V333.415ZM591.167 342.49H592.397C593.217 342.49 593.992 342.48 594.722 342.46C595.452 342.43 596.167 342.385 596.867 342.325C597.567 342.255 598.282 342.155 599.012 342.025L599.222 343.63C598.102 343.83 596.997 343.965 595.907 344.035C594.827 344.095 593.657 344.125 592.397 344.125H591.167V342.49ZM591.137 334.6H597.692V339.985H593.192V343.105H591.167V338.41H595.667V336.205H591.137V334.6ZM607.291 334.555H608.926V335.395C608.926 336.215 608.781 336.99 608.491 337.72C608.201 338.45 607.761 339.085 607.171 339.625C606.591 340.155 605.846 340.55 604.936 340.81L603.976 339.265C604.556 339.105 605.051 338.89 605.461 338.62C605.881 338.35 606.226 338.04 606.496 337.69C606.766 337.34 606.966 336.975 607.096 336.595C607.226 336.205 607.291 335.805 607.291 335.395V334.555ZM607.711 334.555H609.331V335.395C609.331 335.775 609.396 336.15 609.526 336.52C609.656 336.88 609.851 337.225 610.111 337.555C610.381 337.875 610.721 338.165 611.131 338.425C611.541 338.685 612.031 338.89 612.601 339.04L611.626 340.585C610.756 340.345 610.026 339.965 609.436 339.445C608.856 338.925 608.421 338.32 608.131 337.63C607.851 336.93 607.711 336.185 607.711 335.395V334.555ZM604.516 334.12H612.076V335.68H604.516V334.12ZM606.226 341.32H615.541V342.775H608.206V346.36H606.226V341.32ZM606.226 345.685H615.796V347.185H606.226V345.685ZM607.561 343.54H615.391V344.89H607.561V343.54ZM613.471 333.445H615.466V340.72H613.471V333.445ZM622.56 334.765H624.51C624.51 335.835 624.42 336.86 624.24 337.84C624.07 338.82 623.765 339.755 623.325 340.645C622.885 341.525 622.265 342.35 621.465 343.12C620.675 343.88 619.655 344.585 618.405 345.235L617.31 343.72C618.34 343.19 619.19 342.62 619.86 342.01C620.54 341.4 621.075 340.745 621.465 340.045C621.865 339.335 622.145 338.565 622.305 337.735C622.475 336.905 622.56 336 622.56 335.02V334.765ZM618.15 334.765H623.775V336.355H618.15V334.765ZM622.755 338.17V339.7L617.655 340.15L617.4 338.485L622.755 338.17ZM627.06 333.445H629.055V347.335H627.06V333.445ZM624.48 338.755H628.125V340.375H624.48V338.755ZM640.529 333.445H642.524V347.335H640.529V333.445ZM631.289 334.72H639.089V336.295H631.289V334.72ZM631.124 344.155L630.929 342.535C631.769 342.535 632.679 342.53 633.659 342.52C634.639 342.5 635.639 342.465 636.659 342.415C637.689 342.355 638.679 342.265 639.629 342.145L639.749 343.585C638.779 343.745 637.784 343.87 636.764 343.96C635.754 344.04 634.769 344.09 633.809 344.11C632.849 344.13 631.954 344.145 631.124 344.155ZM632.489 335.965H634.424V342.97H632.489V335.965ZM635.954 335.965H637.889V342.97H635.954V335.965ZM644.473 344.185H657.058V345.805H644.473V344.185ZM649.753 341.545H651.733V344.83H649.753V341.545ZM645.898 334.33H655.633V338.965H647.893V341.29H645.913V337.405H653.653V335.92H645.898V334.33ZM645.913 340.51H655.948V342.1H645.913V340.51ZM663.146 334.24H664.871V335.245C664.871 335.845 664.786 336.43 664.616 337C664.456 337.56 664.216 338.09 663.896 338.59C663.576 339.09 663.181 339.545 662.711 339.955C662.251 340.355 661.721 340.7 661.121 340.99C660.521 341.28 659.861 341.495 659.141 341.635L658.286 339.97C658.906 339.86 659.471 339.695 659.981 339.475C660.501 339.245 660.956 338.97 661.346 338.65C661.736 338.33 662.066 337.985 662.336 337.615C662.606 337.235 662.806 336.845 662.936 336.445C663.076 336.035 663.146 335.635 663.146 335.245V334.24ZM663.536 334.24H665.276V335.245C665.276 335.645 665.341 336.05 665.471 336.46C665.611 336.87 665.811 337.265 666.071 337.645C666.341 338.015 666.671 338.355 667.061 338.665C667.451 338.975 667.901 339.245 668.411 339.475C668.921 339.695 669.496 339.86 670.136 339.97L669.281 341.635C668.561 341.495 667.901 341.28 667.301 340.99C666.701 340.7 666.166 340.355 665.696 339.955C665.236 339.555 664.841 339.105 664.511 338.605C664.191 338.105 663.946 337.57 663.776 337C663.616 336.43 663.536 335.845 663.536 335.245V334.24ZM657.986 344.005H670.571V345.64H657.986V344.005ZM681.16 333.415H683.155V347.35H681.16V333.415ZM678.775 338.32H681.4V339.94H678.775V338.32ZM672.115 342.61H673.24C674.01 342.61 674.72 342.6 675.37 342.58C676.03 342.56 676.67 342.525 677.29 342.475C677.91 342.425 678.545 342.355 679.195 342.265L679.39 343.84C678.72 343.95 678.06 344.03 677.41 344.08C676.77 344.13 676.11 344.165 675.43 344.185C674.75 344.205 674.02 344.215 673.24 344.215H672.115V342.61ZM672.115 334.585H678.55V336.205H674.11V343.105H672.115V334.585ZM673.645 338.455H678.085V340.015H673.645V338.455ZM690.174 334.24H691.899V335.245C691.899 335.845 691.814 336.43 691.644 337C691.484 337.56 691.244 338.09 690.924 338.59C690.604 339.09 690.209 339.545 689.739 339.955C689.279 340.355 688.749 340.7 688.149 340.99C687.549 341.28 686.889 341.495 686.169 341.635L685.314 339.97C685.934 339.86 686.499 339.695 687.009 339.475C687.529 339.245 687.984 338.97 688.374 338.65C688.764 338.33 689.094 337.985 689.364 337.615C689.634 337.235 689.834 336.845 689.964 336.445C690.104 336.035 690.174 335.635 690.174 335.245V334.24ZM690.564 334.24H692.304V335.245C692.304 335.645 692.369 336.05 692.499 336.46C692.639 336.87 692.839 337.265 693.099 337.645C693.369 338.015 693.699 338.355 694.089 338.665C694.479 338.975 694.929 339.245 695.439 339.475C695.949 339.695 696.524 339.86 697.164 339.97L696.309 341.635C695.589 341.495 694.929 341.28 694.329 340.99C693.729 340.7 693.194 340.355 692.724 339.955C692.264 339.555 691.869 339.105 691.539 338.605C691.219 338.105 690.974 337.57 690.804 337C690.644 336.43 690.564 335.845 690.564 335.245V334.24ZM685.014 344.005H697.599V345.64H685.014V344.005Z" fill="white"/>
<rect x="136" y="500" width="123" height="29" rx="14.5" fill="#736463"/>
<path d="M150.659 509.53H157.304V511.105H150.659V509.53ZM154.004 511.735C154.594 511.735 155.114 511.875 155.564 512.155C156.024 512.435 156.384 512.825 156.644 513.325C156.914 513.815 157.049 514.385 157.049 515.035C157.049 515.685 156.914 516.26 156.644 516.76C156.384 517.25 156.024 517.635 155.564 517.915C155.114 518.195 154.594 518.335 154.004 518.335C153.414 518.335 152.889 518.195 152.429 517.915C151.969 517.635 151.609 517.25 151.349 516.76C151.089 516.26 150.959 515.685 150.959 515.035C150.959 514.385 151.089 513.815 151.349 513.325C151.609 512.825 151.969 512.435 152.429 512.155C152.899 511.875 153.424 511.735 154.004 511.735ZM154.004 513.385C153.764 513.385 153.544 513.45 153.344 513.58C153.144 513.71 152.989 513.9 152.879 514.15C152.769 514.39 152.714 514.685 152.714 515.035C152.714 515.385 152.769 515.685 152.879 515.935C152.989 516.185 153.144 516.375 153.344 516.505C153.544 516.625 153.764 516.685 154.004 516.685C154.254 516.685 154.474 516.625 154.664 516.505C154.854 516.375 155.004 516.185 155.114 515.935C155.224 515.685 155.279 515.385 155.279 515.035C155.279 514.685 155.224 514.39 155.114 514.15C155.004 513.9 154.854 513.71 154.664 513.58C154.474 513.45 154.254 513.385 154.004 513.385ZM160.709 507.43H162.599V521.32H160.709V507.43ZM159.044 513.085H161.324V514.69H159.044V513.085ZM157.784 507.685H159.644V520.735H157.784V507.685ZM153.029 507.805H154.994V510.52H153.029V507.805ZM173.758 507.445H175.753V521.335H173.758V507.445ZM164.518 508.72H172.318V510.295H164.518V508.72ZM164.353 518.155L164.158 516.535C164.998 516.535 165.908 516.53 166.888 516.52C167.868 516.5 168.868 516.465 169.888 516.415C170.918 516.355 171.908 516.265 172.858 516.145L172.978 517.585C172.008 517.745 171.013 517.87 169.993 517.96C168.983 518.04 167.998 518.09 167.038 518.11C166.078 518.13 165.183 518.145 164.353 518.155ZM165.718 509.965H167.653V516.97H165.718V509.965ZM169.183 509.965H171.118V516.97H169.183V509.965ZM177.882 508.72H185.547V510.295H177.882V508.72ZM177.732 518.155L177.522 516.535C178.322 516.535 179.197 516.53 180.147 516.52C181.107 516.5 182.082 516.465 183.072 516.415C184.072 516.355 185.032 516.27 185.952 516.16L186.057 517.6C185.117 517.76 184.152 517.88 183.162 517.96C182.182 518.04 181.227 518.095 180.297 518.125C179.377 518.145 178.522 518.155 177.732 518.155ZM179.067 509.965H181.002V516.97H179.067V509.965ZM182.427 509.965H184.347V516.97H182.427V509.965ZM186.567 507.445H188.577V521.335H186.567V507.445ZM188.142 512.695H190.587V514.345H188.142V512.695ZM200.741 507.415H202.736V521.35H200.741V507.415ZM195.251 508.39C195.961 508.39 196.591 508.595 197.141 509.005C197.691 509.405 198.121 509.98 198.431 510.73C198.751 511.47 198.911 512.345 198.911 513.355C198.911 514.375 198.751 515.26 198.431 516.01C198.121 516.75 197.691 517.325 197.141 517.735C196.591 518.135 195.961 518.335 195.251 518.335C194.551 518.335 193.926 518.135 193.376 517.735C192.826 517.325 192.391 516.75 192.071 516.01C191.761 515.26 191.606 514.375 191.606 513.355C191.606 512.345 191.761 511.47 192.071 510.73C192.391 509.98 192.826 509.405 193.376 509.005C193.926 508.595 194.551 508.39 195.251 508.39ZM195.251 510.205C194.911 510.205 194.611 510.325 194.351 510.565C194.091 510.805 193.886 511.16 193.736 511.63C193.596 512.09 193.526 512.665 193.526 513.355C193.526 514.035 193.596 514.615 193.736 515.095C193.886 515.565 194.091 515.92 194.351 516.16C194.611 516.4 194.911 516.52 195.251 516.52C195.601 516.52 195.906 516.4 196.166 516.16C196.426 515.92 196.626 515.565 196.766 515.095C196.916 514.615 196.991 514.035 196.991 513.355C196.991 512.665 196.916 512.09 196.766 511.63C196.626 511.16 196.426 510.805 196.166 510.565C195.906 510.325 195.601 510.205 195.251 510.205ZM214.659 507.43H216.564V514.375H214.659V507.43ZM212.979 510.235H215.184V511.825H212.979V510.235ZM211.629 507.685H213.489V514.285H211.629V507.685ZM208.659 508.255H210.684C210.684 509.365 210.499 510.345 210.129 511.195C209.769 512.045 209.209 512.775 208.449 513.385C207.699 513.995 206.744 514.505 205.584 514.915L204.654 513.46C205.614 513.16 206.384 512.795 206.964 512.365C207.554 511.935 207.984 511.445 208.254 510.895C208.524 510.335 208.659 509.715 208.659 509.035V508.255ZM205.314 508.255H209.469V509.815H205.314V508.255ZM207.114 514.945H216.564V518.74H209.124V520.36H207.144V517.285H214.599V516.475H207.114V514.945ZM207.144 519.625H217.014V521.185H207.144V519.625ZM227.873 507.415H229.853V521.35H227.873V507.415ZM225.698 512.425H228.278V514.03H225.698V512.425ZM218.708 516.505H219.848C220.608 516.505 221.318 516.495 221.978 516.475C222.648 516.455 223.303 516.42 223.943 516.37C224.583 516.31 225.238 516.225 225.908 516.115L226.088 517.735C225.398 517.845 224.723 517.93 224.063 517.99C223.403 518.05 222.728 518.09 222.038 518.11C221.358 518.13 220.628 518.14 219.848 518.14H218.708V516.505ZM218.693 508.6H224.948V513.835H220.688V516.985H218.708V512.26H222.983V510.19H218.693V508.6ZM241.312 507.415H243.322V521.35H241.312V507.415ZM232.507 516.49H233.737C234.557 516.49 235.332 516.48 236.062 516.46C236.792 516.43 237.507 516.385 238.207 516.325C238.907 516.255 239.622 516.155 240.352 516.025L240.562 517.63C239.442 517.83 238.337 517.965 237.247 518.035C236.167 518.095 234.997 518.125 233.737 518.125H232.507V516.49ZM232.477 508.6H239.032V513.985H234.532V517.105H232.507V512.41H237.007V510.205H232.477V508.6Z" fill="white"/>
</svg>
