<svg width="561" height="682" viewBox="0 0 561 682" fill="none" xmlns="http://www.w3.org/2000/svg">
<path d="M226.225 560.674C234.521 556.266 240.285 548.001 245.42 540.707C251.613 531.859 258.63 521.839 261.074 510.674C262.265 505.215 262.372 499.435 262.48 493.842L262.513 492.315C262.983 469.649 265.043 447.044 268.679 424.667L268.766 424.125C269.389 420.334 270.025 416.415 269.717 412.645C269.289 407.38 267.099 402.517 264.789 397.373C264.214 396.081 263.611 394.748 263.049 393.422C257.786 380.99 255.209 367.548 252.718 354.574C250.616 343.57 248.433 332.197 244.637 321.574C241.048 311.527 235.933 301.943 230.985 292.653L214.395 261.488C210.846 254.837 207.184 247.951 202.344 242.131C196.954 235.681 190.071 230.49 183.416 225.467L119.531 177.242C115.072 173.893 110.158 170.203 104.849 167.691C101.995 185.33 96.8657 202.524 89.5902 218.842C79.9224 240.517 66.4852 260.557 59.6294 283.336C59.2097 284.685 58.9975 286.089 59 287.502C59.1005 296.966 63.8272 304.206 71.4196 306.577C88.6663 311.936 110.252 295.191 109.964 340.221C109.81 365.117 98.6622 387.775 89.2957 410.849C84.9505 421.566 80.1099 431.814 89.4965 438.525C98.9903 445.317 115.4 442.658 126.32 446.703C138.097 451.05 151.36 462.108 151.092 474.693C150.824 487.279 138.813 504.305 144.337 515.55C150.202 527.506 163.344 533.594 174.358 541.069C185.371 548.544 203.348 553.078 199.297 565.757C199.122 566.273 198.912 566.777 198.668 567.264C202.739 566.702 206.794 566.047 210.833 565.302C215.747 564.418 221.398 563.246 226.225 560.674Z" fill="#FBCCC6"/>
<path d="M276.365 270.59C291.55 268.059 307.257 265.433 321.805 259.968C325.501 258.574 329.21 256.967 332.792 255.42C338.978 252.741 345.379 249.968 352.041 248.153C359.575 246.102 367.39 245.281 375.186 245.721C374.911 244.683 374.911 243.591 375.186 242.553C375.34 242.004 375.601 241.341 375.956 240.423C377.563 236.516 378.724 232.441 379.417 228.273C379.899 225.4 380.341 212.433 380.087 209.265C378.621 192.199 370.198 179.011 359.526 162.313C355.777 156.446 351.907 150.377 347.89 143.492C343.203 135.508 338.423 127.256 332.39 120.137C327.034 113.821 320.614 108.288 314.407 102.93L285.618 78.1479C283.523 76.2624 281.257 74.5761 278.849 73.1111C279.187 76.9884 279.281 80.883 279.13 84.772C278.039 101.276 270.735 117.591 258.114 128.435C243.572 140.947 222.094 145.388 204.265 138.315C194.617 134.49 186.483 127.745 177.719 122.186C163.266 113.032 147.025 107.072 130.083 104.705C123.642 103.807 116.237 103.747 111.631 108.342C106.85 113.111 107.098 120.766 107.339 127.518C107.772 139.812 107.1 152.121 105.331 164.296C111.356 166.975 116.659 170.993 121.506 174.617L185.391 222.841C192.2 227.979 199.237 233.283 204.874 240.028C209.963 246.123 213.712 253.156 217.334 259.961L228.95 281.762C234.34 279.833 239.883 278.125 245.427 276.705C255.63 274.053 266.169 272.292 276.365 270.59Z" fill="#FDADA1"/>
<path d="M539.632 193.203C531.699 190.022 522.546 190.832 514.747 187.343C495.645 178.79 495.639 152.407 495.331 131.476C495.037 110.576 491.454 89.8538 484.712 70.0701C483.018 65.184 480.048 60.8408 476.109 57.4916C472.179 54.1427 468.945 50.6665 464.486 48.282C437.705 33.9754 416.281 32.5622 394.187 46.7013C380.796 55.2411 361.514 61.5103 333.167 56.929C319.656 54.7522 298.667 34.5582 286.575 44.3906C278.762 50.7468 278.253 59.9162 278.695 69.1726C282.043 70.7131 285.089 73.1913 287.874 75.5758L316.663 100.358C322.97 105.796 329.491 111.416 335.015 117.926C341.241 125.294 346.129 133.653 350.856 141.764C354.833 148.596 358.689 154.63 362.418 160.464C373.338 177.55 381.961 191.047 383.495 208.943C383.756 212.044 383.367 225.433 382.825 228.782C382.091 233.18 380.87 237.482 379.183 241.609C378.875 242.399 378.627 243.015 378.513 243.397C378.078 244.984 379.33 246.88 380.616 248.521C385.589 254.884 390.986 260.903 396.771 266.538C397.956 267.697 399.134 268.762 400.42 269.016C401.705 269.271 403.306 268.708 404.919 268.092L405.147 268.005C419.207 262.68 434.036 257.838 447.694 258.481C449.083 258.548 450.422 258.673 451.712 258.856C455.227 250.329 460.228 242.627 467.485 237.034C485.194 223.384 514.117 228.2 526.456 246.853C530.092 252.345 532.817 259.13 540.101 260.416C542.21 260.737 544.363 260.583 546.405 259.967C548.447 259.351 550.325 258.287 551.905 256.853C558.151 251.428 559.845 243.109 560.26 235.172C561.057 218.575 555.112 199.399 539.632 193.203Z" fill="#FDA295"/>
<path d="M316.59 440.803C319.082 444.083 321.765 447.214 324.624 450.18C335.196 460.742 351.097 467.186 369.401 468.324C386.287 469.376 403.185 466.121 419.046 462.691C423.367 461.763 427.687 460.798 432.008 459.798C429.27 446.523 419.046 435.07 405.502 435.813C400.3 436.101 392.962 434.648 388.148 432.658C380.221 429.383 380.073 425.11 385.416 418.399C390.759 411.687 410.436 401.754 417.553 396.965C435.121 385.144 433.34 363.068 437.638 342.324C441.937 321.581 442.017 300.175 445.874 279.365C446.917 273.492 448.44 267.715 450.426 262.091C449.462 261.984 448.471 261.903 447.46 261.85C434.418 261.24 419.95 265.962 406.258 271.16L406.037 271.247C404.143 271.97 402.02 272.787 399.69 272.325C397.508 271.89 395.861 270.43 394.334 268.976C388.443 263.233 382.946 257.099 377.877 250.618C377.382 249.994 376.922 249.343 376.498 248.668L376.458 249.137C368.541 248.533 360.579 249.292 352.918 251.381C346.484 253.136 340.197 255.855 334.118 258.488C330.496 260.061 326.753 261.682 322.977 263.102C308.12 268.682 292.253 271.334 276.908 273.893C266.785 275.587 256.313 277.335 246.271 279.921C240.981 281.26 235.699 282.894 230.55 284.723L233.931 291.066C238.933 300.443 244.108 310.175 247.777 320.436C251.667 331.3 253.87 342.807 255.999 353.925C258.456 366.745 261 380.007 266.128 392.103C266.671 393.395 267.267 394.715 267.836 395.988C270.166 401.165 272.569 406.517 273.045 412.357C273.091 412.9 273.118 413.435 273.132 413.971C286.767 415.697 299.416 421.996 309.011 431.841C311.686 434.699 314.215 437.69 316.59 440.803Z" fill="#FCC1BA"/>
<path d="M419.762 466C405.783 469.02 390.973 471.907 376.009 471.907C373.746 471.907 371.47 471.84 369.2 471.699C350.079 470.507 333.415 463.722 322.267 452.584C319.311 449.513 316.537 446.273 313.959 442.879C311.635 439.932 309.232 436.884 306.594 434.171C297.603 424.955 285.779 419.025 273.018 417.333C272.837 419.811 272.442 422.256 272.054 424.654L271.967 425.196C268.374 447.422 266.34 469.872 265.881 492.382V493.909C265.774 499.663 265.66 505.611 264.394 511.391C261.81 523.213 254.586 533.494 248.212 542.623C242.889 550.232 236.83 558.845 227.845 563.627C222.603 566.414 216.658 567.646 211.496 568.624C206.541 569.544 201.556 570.316 196.539 570.941C192.227 577.358 184.729 585.904 183.356 590.432C179.473 603.118 190.46 615.489 201.868 622.187C213.277 628.884 232.632 624.082 239.468 635.428C242.28 640.117 238.089 655.669 242.602 658.737C249.411 663.372 258.871 659.373 264.883 653.74C270.895 648.107 275.595 640.76 283.04 637.19C292.541 632.629 305.181 636.239 310.845 645.133C315.057 651.744 313.523 660.19 310.176 667.156C309.734 668.101 309.502 669.132 309.498 670.175C309.493 671.219 309.715 672.251 310.149 673.201C310.583 674.15 311.217 674.993 312.009 675.673C312.801 676.352 313.731 676.852 314.735 677.136C328.641 681.154 344.475 678.636 356.138 669.976C370.265 659.48 377.563 640.505 374.128 623.278C369.227 598.637 324.209 578.798 352.596 556.394C361.267 549.642 377.623 564.431 388.081 561.082C392.647 559.609 399.268 546.173 402.141 542.328C412.592 528.323 417.54 511.96 424.904 496.113C430.575 483.943 434.177 475.912 432.523 463.133C428.274 464.129 424.021 465.084 419.762 466Z" fill="#FFE0DE"/>
<rect x="287.8" y="185" width="83" height="29" rx="14.5" fill="#736463"/>
<path d="M307.86 193.765H309.81C309.81 194.835 309.72 195.86 309.54 196.84C309.37 197.82 309.065 198.755 308.625 199.645C308.185 200.525 307.565 201.35 306.765 202.12C305.975 202.88 304.955 203.585 303.705 204.235L302.61 202.72C303.64 202.19 304.49 201.62 305.16 201.01C305.84 200.4 306.375 199.745 306.765 199.045C307.165 198.335 307.445 197.565 307.605 196.735C307.775 195.905 307.86 195 307.86 194.02V193.765ZM303.45 193.765H309.075V195.355H303.45V193.765ZM308.055 197.17V198.7L302.955 199.15L302.7 197.485L308.055 197.17ZM312.36 192.445H314.355V206.335H312.36V192.445ZM309.78 197.755H313.425V199.375H309.78V197.755ZM325.829 192.445H327.824V206.335H325.829V192.445ZM316.589 193.72H324.389V195.295H316.589V193.72ZM316.424 203.155L316.229 201.535C317.069 201.535 317.979 201.53 318.959 201.52C319.939 201.5 320.939 201.465 321.959 201.415C322.989 201.355 323.979 201.265 324.929 201.145L325.049 202.585C324.079 202.745 323.084 202.87 322.064 202.96C321.054 203.04 320.069 203.09 319.109 203.11C318.149 203.13 317.254 203.145 316.424 203.155ZM317.789 194.965H319.724V201.97H317.789V194.965ZM321.254 194.965H323.189V201.97H321.254V194.965ZM330.523 198.505H331.723C332.673 198.505 333.508 198.5 334.228 198.49C334.958 198.47 335.633 198.435 336.253 198.385C336.883 198.335 337.518 198.26 338.158 198.16L338.353 199.705C337.693 199.805 337.038 199.885 336.388 199.945C335.748 199.995 335.053 200.03 334.303 200.05C333.553 200.06 332.693 200.065 331.723 200.065H330.523V198.505ZM330.523 193.225H337.213V194.8H332.503V199.135H330.523V193.225ZM331.888 195.85H336.808V197.41H331.888V195.85ZM339.313 192.445H341.308V200.695H339.313V192.445ZM332.068 201.265H341.308V206.185H332.068V201.265ZM339.358 202.825H334.033V204.61H339.358V202.825ZM352.947 192.415H354.942V206.35H352.947V192.415ZM349.797 197.305H353.517V198.91H349.797V197.305ZM343.797 193.51H345.777V196.885H348.507V193.51H350.472V203.08H343.797V193.51ZM345.777 198.43V201.49H348.507V198.43H345.777Z" fill="white"/>
<rect x="424.8" y="128" width="83" height="29" rx="14.5" fill="#736463"/>
<path d="M443.18 136.21C443.78 136.21 444.31 136.325 444.77 136.555C445.23 136.775 445.59 137.085 445.85 137.485C446.12 137.875 446.255 138.33 446.255 138.85C446.255 139.36 446.12 139.815 445.85 140.215C445.59 140.605 445.23 140.915 444.77 141.145C444.31 141.365 443.78 141.475 443.18 141.475C442.59 141.475 442.065 141.365 441.605 141.145C441.145 140.925 440.78 140.615 440.51 140.215C440.24 139.815 440.105 139.36 440.105 138.85C440.105 138.33 440.24 137.875 440.51 137.485C440.78 137.085 441.145 136.775 441.605 136.555C442.065 136.325 442.59 136.21 443.18 136.21ZM443.18 137.695C442.93 137.695 442.705 137.74 442.505 137.83C442.305 137.92 442.15 138.05 442.04 138.22C441.93 138.39 441.875 138.6 441.875 138.85C441.875 139.09 441.93 139.295 442.04 139.465C442.15 139.635 442.305 139.77 442.505 139.87C442.705 139.96 442.93 140.005 443.18 140.005C443.44 140.005 443.665 139.96 443.855 139.87C444.055 139.77 444.21 139.635 444.32 139.465C444.44 139.295 444.5 139.09 444.5 138.85C444.5 138.6 444.44 138.39 444.32 138.22C444.21 138.05 444.055 137.92 443.855 137.83C443.665 137.74 443.44 137.695 443.18 137.695ZM449.99 135.445H451.895V149.335H449.99V135.445ZM447.23 135.67H449.09V148.705H447.23V135.67ZM445.04 144.37H447.83V145.885H445.04V144.37ZM442.22 142.99H444.11V148.255H442.22V142.99ZM439.745 143.83L439.52 142.21C439.99 142.21 440.515 142.21 441.095 142.21C441.675 142.2 442.28 142.185 442.91 142.165C443.54 142.135 444.165 142.1 444.785 142.06C445.405 142.01 445.985 141.95 446.525 141.88L446.675 143.335C445.925 143.485 445.13 143.595 444.29 143.665C443.45 143.725 442.635 143.77 441.845 143.8C441.055 143.82 440.355 143.83 439.745 143.83ZM462.784 135.415H464.779V149.35H462.784V135.415ZM457.294 136.39C458.004 136.39 458.634 136.595 459.184 137.005C459.734 137.405 460.164 137.98 460.474 138.73C460.794 139.47 460.954 140.345 460.954 141.355C460.954 142.375 460.794 143.26 460.474 144.01C460.164 144.75 459.734 145.325 459.184 145.735C458.634 146.135 458.004 146.335 457.294 146.335C456.594 146.335 455.969 146.135 455.419 145.735C454.869 145.325 454.434 144.75 454.114 144.01C453.804 143.26 453.649 142.375 453.649 141.355C453.649 140.345 453.804 139.47 454.114 138.73C454.434 137.98 454.869 137.405 455.419 137.005C455.969 136.595 456.594 136.39 457.294 136.39ZM457.294 138.205C456.954 138.205 456.654 138.325 456.394 138.565C456.134 138.805 455.929 139.16 455.779 139.63C455.639 140.09 455.569 140.665 455.569 141.355C455.569 142.035 455.639 142.615 455.779 143.095C455.929 143.565 456.134 143.92 456.394 144.16C456.654 144.4 456.954 144.52 457.294 144.52C457.644 144.52 457.949 144.4 458.209 144.16C458.469 143.92 458.669 143.565 458.809 143.095C458.959 142.615 459.034 142.035 459.034 141.355C459.034 140.665 458.959 140.09 458.809 139.63C458.669 139.16 458.469 138.805 458.209 138.565C457.949 138.325 457.644 138.205 457.294 138.205ZM466.773 146.05H479.358V147.685H466.773V146.05ZM468.093 136.33H470.088V138.58H475.998V136.33H477.978V143.755H468.093V136.33ZM470.088 140.14V142.165H475.998V140.14H470.088ZM480.272 142.585H492.842V144.16H480.272V142.585ZM485.552 140.62H487.532V143.29H485.552V140.62ZM481.802 147.49H491.432V149.095H481.802V147.49ZM481.802 145.06H483.797V148.03H481.802V145.06ZM486.557 135.79C487.567 135.79 488.447 135.905 489.197 136.135C489.957 136.365 490.547 136.695 490.967 137.125C491.387 137.555 491.597 138.065 491.597 138.655C491.597 139.245 491.387 139.755 490.967 140.185C490.547 140.605 489.957 140.93 489.197 141.16C488.447 141.39 487.567 141.505 486.557 141.505C485.557 141.505 484.677 141.39 483.917 141.16C483.167 140.93 482.582 140.605 482.162 140.185C481.742 139.755 481.532 139.245 481.532 138.655C481.532 138.065 481.742 137.555 482.162 137.125C482.582 136.695 483.167 136.365 483.917 136.135C484.677 135.905 485.557 135.79 486.557 135.79ZM486.557 137.365C485.947 137.365 485.417 137.415 484.967 137.515C484.517 137.615 484.177 137.76 483.947 137.95C483.717 138.13 483.602 138.36 483.602 138.64C483.602 138.92 483.717 139.155 483.947 139.345C484.177 139.535 484.517 139.68 484.967 139.78C485.417 139.88 485.947 139.93 486.557 139.93C487.187 139.93 487.722 139.88 488.162 139.78C488.602 139.68 488.937 139.535 489.167 139.345C489.407 139.155 489.527 138.92 489.527 138.64C489.527 138.36 489.407 138.13 489.167 137.95C488.937 137.76 488.602 137.615 488.162 137.515C487.722 137.415 487.187 137.365 486.557 137.365Z" fill="white"/>
<rect x="271.8" y="505" width="96" height="29" rx="14.5" fill="#736463"/>
<path d="M296.013 512.43H298.008V526.365H296.013V512.43ZM287.328 521.4H288.528C289.498 521.4 290.348 521.39 291.078 521.37C291.818 521.35 292.493 521.31 293.103 521.25C293.723 521.19 294.343 521.1 294.963 520.98L295.143 522.63C294.513 522.75 293.878 522.845 293.238 522.915C292.608 522.975 291.913 523.015 291.153 523.035C290.393 523.045 289.518 523.05 288.528 523.05H287.328V521.4ZM287.328 513.66H294.018V515.28H289.308V522.03H287.328V513.66ZM300.392 513.705H302.267V516.885H304.067V513.705H305.897V523.035H300.392V513.705ZM302.267 518.445V521.445H304.067V518.445H302.267ZM310.022 512.43H311.927V526.32H310.022V512.43ZM305.582 517.515H307.877V519.12H305.582V517.515ZM307.202 512.67H309.062V525.72H307.202V512.67ZM313.516 523.14H326.101V524.775H313.516V523.14ZM314.941 513.36H324.676V518.01H316.936V520.335H314.956V516.45H322.696V514.965H314.941V513.36ZM314.956 519.555H324.991V521.145H314.956V519.555ZM327.765 521.58H328.965C329.775 521.58 330.535 521.575 331.245 521.565C331.955 521.545 332.645 521.51 333.315 521.46C333.995 521.4 334.69 521.315 335.4 521.205L335.58 522.795C334.86 522.905 334.15 522.99 333.45 523.05C332.75 523.11 332.035 523.15 331.305 523.17C330.575 523.18 329.795 523.185 328.965 523.185H327.765V521.58ZM327.765 513.585H334.8V515.205H329.745V522.105H327.765V513.585ZM329.295 517.455H334.215V519.015H329.295V517.455ZM336.6 512.445H338.595V526.335H336.6V512.445ZM341.279 521.58H342.479C343.289 521.58 344.049 521.575 344.759 521.565C345.469 521.545 346.159 521.51 346.829 521.46C347.509 521.4 348.204 521.315 348.914 521.205L349.094 522.795C348.374 522.905 347.664 522.99 346.964 523.05C346.264 523.11 345.549 523.15 344.819 523.17C344.089 523.18 343.309 523.185 342.479 523.185H341.279V521.58ZM341.279 513.585H348.314V515.205H343.259V522.105H341.279V513.585ZM342.809 517.455H347.729V519.015H342.809V517.455ZM350.114 512.445H352.109V526.335H350.114V512.445Z" fill="white"/>
<rect x="197.8" y="391" width="83" height="29" rx="14.5" fill="#736463"/>
<path d="M217.995 399.765H219.93C219.93 400.845 219.845 401.875 219.675 402.855C219.515 403.835 219.215 404.765 218.775 405.645C218.335 406.525 217.71 407.35 216.9 408.12C216.09 408.89 215.035 409.605 213.735 410.265L212.67 408.735C213.75 408.195 214.635 407.62 215.325 407.01C216.025 406.39 216.565 405.73 216.945 405.03C217.335 404.32 217.605 403.55 217.755 402.72C217.915 401.89 217.995 400.99 217.995 400.02V399.765ZM213.54 399.765H219.165V401.355H213.54V399.765ZM218.04 403.17V404.7L213.06 405.18L212.805 403.485L218.04 403.17ZM221.61 398.415H223.62V412.305H221.61V398.415ZM223.11 403.74H225.555V405.375H223.11V403.74ZM236.414 398.445H238.304V412.335H236.414V398.445ZM232.334 403.5H234.194V405.24H232.334V403.5ZM233.654 398.7H235.514V411.675H233.654V398.7ZM226.349 400.005H232.679V401.595H226.349V400.005ZM226.334 409.185L226.124 407.55C226.554 407.55 227.049 407.55 227.609 407.55C228.169 407.54 228.754 407.525 229.364 407.505C229.974 407.475 230.579 407.44 231.179 407.4C231.789 407.35 232.359 407.29 232.889 407.22L233.009 408.66C232.299 408.82 231.534 408.94 230.714 409.02C229.894 409.09 229.099 409.135 228.329 409.155C227.569 409.175 226.904 409.185 226.334 409.185ZM227.204 401.01H229.004V407.985H227.204V401.01ZM230.009 401.01H231.794V407.985H230.009V401.01ZM246.463 400.47H250.003V402.06H246.463V400.47ZM246.463 403.335H250.063V404.91H246.463V403.335ZM240.343 399.255H242.323V401.175H244.963V399.255H246.928V406.11H240.343V399.255ZM242.323 402.72V404.52H244.963V402.72H242.323ZM241.918 407.34H251.398V412.335H249.388V408.93H241.918V407.34ZM249.388 398.445H251.398V406.725H249.388V398.445ZM258.567 402.36H260.547V405.015H258.567V402.36ZM254.847 401.625H264.372V403.185H254.847V401.625ZM254.847 398.895H264.252V400.47H256.827V402.465H254.847V398.895ZM253.272 404.055H265.842V405.63H253.272V404.055ZM254.712 406.35H264.312V409.935H256.707V411.15H254.727V408.555H262.347V407.835H254.712V406.35ZM254.727 410.73H264.687V412.23H254.727V410.73Z" fill="white"/>
<rect x="289.8" y="626" width="123" height="29" rx="14.5" fill="#736463"/>
<path d="M304.459 635.53H311.104V637.105H304.459V635.53ZM307.804 637.735C308.394 637.735 308.914 637.875 309.364 638.155C309.824 638.435 310.184 638.825 310.444 639.325C310.714 639.815 310.849 640.385 310.849 641.035C310.849 641.685 310.714 642.26 310.444 642.76C310.184 643.25 309.824 643.635 309.364 643.915C308.914 644.195 308.394 644.335 307.804 644.335C307.214 644.335 306.689 644.195 306.229 643.915C305.769 643.635 305.409 643.25 305.149 642.76C304.889 642.26 304.759 641.685 304.759 641.035C304.759 640.385 304.889 639.815 305.149 639.325C305.409 638.825 305.769 638.435 306.229 638.155C306.699 637.875 307.224 637.735 307.804 637.735ZM307.804 639.385C307.564 639.385 307.344 639.45 307.144 639.58C306.944 639.71 306.789 639.9 306.679 640.15C306.569 640.39 306.514 640.685 306.514 641.035C306.514 641.385 306.569 641.685 306.679 641.935C306.789 642.185 306.944 642.375 307.144 642.505C307.344 642.625 307.564 642.685 307.804 642.685C308.054 642.685 308.274 642.625 308.464 642.505C308.654 642.375 308.804 642.185 308.914 641.935C309.024 641.685 309.079 641.385 309.079 641.035C309.079 640.685 309.024 640.39 308.914 640.15C308.804 639.9 308.654 639.71 308.464 639.58C308.274 639.45 308.054 639.385 307.804 639.385ZM314.509 633.43H316.399V647.32H314.509V633.43ZM312.844 639.085H315.124V640.69H312.844V639.085ZM311.584 633.685H313.444V646.735H311.584V633.685ZM306.829 633.805H308.794V636.52H306.829V633.805ZM327.558 633.445H329.553V647.335H327.558V633.445ZM318.318 634.72H326.118V636.295H318.318V634.72ZM318.153 644.155L317.958 642.535C318.798 642.535 319.708 642.53 320.688 642.52C321.668 642.5 322.668 642.465 323.688 642.415C324.718 642.355 325.708 642.265 326.658 642.145L326.778 643.585C325.808 643.745 324.813 643.87 323.793 643.96C322.783 644.04 321.798 644.09 320.838 644.11C319.878 644.13 318.983 644.145 318.153 644.155ZM319.518 635.965H321.453V642.97H319.518V635.965ZM322.983 635.965H324.918V642.97H322.983V635.965ZM331.682 634.72H339.347V636.295H331.682V634.72ZM331.532 644.155L331.322 642.535C332.122 642.535 332.997 642.53 333.947 642.52C334.907 642.5 335.882 642.465 336.872 642.415C337.872 642.355 338.832 642.27 339.752 642.16L339.857 643.6C338.917 643.76 337.952 643.88 336.962 643.96C335.982 644.04 335.027 644.095 334.097 644.125C333.177 644.145 332.322 644.155 331.532 644.155ZM332.867 635.965H334.802V642.97H332.867V635.965ZM336.227 635.965H338.147V642.97H336.227V635.965ZM340.367 633.445H342.377V647.335H340.367V633.445ZM341.942 638.695H344.387V640.345H341.942V638.695ZM354.541 633.415H356.536V647.35H354.541V633.415ZM349.051 634.39C349.761 634.39 350.391 634.595 350.941 635.005C351.491 635.405 351.921 635.98 352.231 636.73C352.551 637.47 352.711 638.345 352.711 639.355C352.711 640.375 352.551 641.26 352.231 642.01C351.921 642.75 351.491 643.325 350.941 643.735C350.391 644.135 349.761 644.335 349.051 644.335C348.351 644.335 347.726 644.135 347.176 643.735C346.626 643.325 346.191 642.75 345.871 642.01C345.561 641.26 345.406 640.375 345.406 639.355C345.406 638.345 345.561 637.47 345.871 636.73C346.191 635.98 346.626 635.405 347.176 635.005C347.726 634.595 348.351 634.39 349.051 634.39ZM349.051 636.205C348.711 636.205 348.411 636.325 348.151 636.565C347.891 636.805 347.686 637.16 347.536 637.63C347.396 638.09 347.326 638.665 347.326 639.355C347.326 640.035 347.396 640.615 347.536 641.095C347.686 641.565 347.891 641.92 348.151 642.16C348.411 642.4 348.711 642.52 349.051 642.52C349.401 642.52 349.706 642.4 349.966 642.16C350.226 641.92 350.426 641.565 350.566 641.095C350.716 640.615 350.791 640.035 350.791 639.355C350.791 638.665 350.716 638.09 350.566 637.63C350.426 637.16 350.226 636.805 349.966 636.565C349.706 636.325 349.401 636.205 349.051 636.205ZM368.46 633.43H370.365V640.375H368.46V633.43ZM366.78 636.235H368.985V637.825H366.78V636.235ZM365.43 633.685H367.29V640.285H365.43V633.685ZM362.46 634.255H364.485C364.485 635.365 364.3 636.345 363.93 637.195C363.57 638.045 363.01 638.775 362.25 639.385C361.5 639.995 360.545 640.505 359.385 640.915L358.455 639.46C359.415 639.16 360.185 638.795 360.765 638.365C361.355 637.935 361.785 637.445 362.055 636.895C362.325 636.335 362.46 635.715 362.46 635.035V634.255ZM359.115 634.255H363.27V635.815H359.115V634.255ZM360.915 640.945H370.365V644.74H362.925V646.36H360.945V643.285H368.4V642.475H360.915V640.945ZM360.945 645.625H370.815V647.185H360.945V645.625ZM381.674 633.415H383.654V647.35H381.674V633.415ZM379.499 638.425H382.079V640.03H379.499V638.425ZM372.509 642.505H373.649C374.409 642.505 375.119 642.495 375.779 642.475C376.449 642.455 377.104 642.42 377.744 642.37C378.384 642.31 379.039 642.225 379.709 642.115L379.889 643.735C379.199 643.845 378.524 643.93 377.864 643.99C377.204 644.05 376.529 644.09 375.839 644.11C375.159 644.13 374.429 644.14 373.649 644.14H372.509V642.505ZM372.494 634.6H378.749V639.835H374.489V642.985H372.509V638.26H376.784V636.19H372.494V634.6ZM395.112 633.415H397.122V647.35H395.112V633.415ZM386.307 642.49H387.537C388.357 642.49 389.132 642.48 389.862 642.46C390.592 642.43 391.307 642.385 392.007 642.325C392.707 642.255 393.422 642.155 394.152 642.025L394.362 643.63C393.242 643.83 392.137 643.965 391.047 644.035C389.967 644.095 388.797 644.125 387.537 644.125H386.307V642.49ZM386.277 634.6H392.832V639.985H388.332V643.105H386.307V638.41H390.807V636.205H386.277V634.6Z" fill="white"/>
<rect x="338.8" y="322" width="137" height="29" rx="14.5" fill="#736463"/>
<path d="M363.272 329.415H365.282V343.35H363.272V329.415ZM354.467 338.49H355.697C356.517 338.49 357.292 338.48 358.022 338.46C358.752 338.43 359.467 338.385 360.167 338.325C360.867 338.255 361.582 338.155 362.312 338.025L362.522 339.63C361.402 339.83 360.297 339.965 359.207 340.035C358.127 340.095 356.957 340.125 355.697 340.125H354.467V338.49ZM354.437 330.6H360.992V335.985H356.492V339.105H354.467V334.41H358.967V332.205H354.437V330.6ZM370.591 330.555H372.226V331.395C372.226 332.215 372.081 332.99 371.791 333.72C371.501 334.45 371.061 335.085 370.471 335.625C369.891 336.155 369.146 336.55 368.236 336.81L367.276 335.265C367.856 335.105 368.351 334.89 368.761 334.62C369.181 334.35 369.526 334.04 369.796 333.69C370.066 333.34 370.266 332.975 370.396 332.595C370.526 332.205 370.591 331.805 370.591 331.395V330.555ZM371.011 330.555H372.631V331.395C372.631 331.775 372.696 332.15 372.826 332.52C372.956 332.88 373.151 333.225 373.411 333.555C373.681 333.875 374.021 334.165 374.431 334.425C374.841 334.685 375.331 334.89 375.901 335.04L374.926 336.585C374.056 336.345 373.326 335.965 372.736 335.445C372.156 334.925 371.721 334.32 371.431 333.63C371.151 332.93 371.011 332.185 371.011 331.395V330.555ZM367.816 330.12H375.376V331.68H367.816V330.12ZM369.526 337.32H378.841V338.775H371.506V342.36H369.526V337.32ZM369.526 341.685H379.096V343.185H369.526V341.685ZM370.861 339.54H378.691V340.89H370.861V339.54ZM376.771 329.445H378.766V336.72H376.771V329.445ZM385.86 330.765H387.81C387.81 331.835 387.72 332.86 387.54 333.84C387.37 334.82 387.065 335.755 386.625 336.645C386.185 337.525 385.565 338.35 384.765 339.12C383.975 339.88 382.955 340.585 381.705 341.235L380.61 339.72C381.64 339.19 382.49 338.62 383.16 338.01C383.84 337.4 384.375 336.745 384.765 336.045C385.165 335.335 385.445 334.565 385.605 333.735C385.775 332.905 385.86 332 385.86 331.02V330.765ZM381.45 330.765H387.075V332.355H381.45V330.765ZM386.055 334.17V335.7L380.955 336.15L380.7 334.485L386.055 334.17ZM390.36 329.445H392.355V343.335H390.36V329.445ZM387.78 334.755H391.425V336.375H387.78V334.755ZM403.829 329.445H405.824V343.335H403.829V329.445ZM394.589 330.72H402.389V332.295H394.589V330.72ZM394.424 340.155L394.229 338.535C395.069 338.535 395.979 338.53 396.959 338.52C397.939 338.5 398.939 338.465 399.959 338.415C400.989 338.355 401.979 338.265 402.929 338.145L403.049 339.585C402.079 339.745 401.084 339.87 400.064 339.96C399.054 340.04 398.069 340.09 397.109 340.11C396.149 340.13 395.254 340.145 394.424 340.155ZM395.789 331.965H397.724V338.97H395.789V331.965ZM399.254 331.965H401.189V338.97H399.254V331.965ZM407.773 340.185H420.358V341.805H407.773V340.185ZM413.053 337.545H415.033V340.83H413.053V337.545ZM409.198 330.33H418.933V334.965H411.193V337.29H409.213V333.405H416.953V331.92H409.198V330.33ZM409.213 336.51H419.248V338.1H409.213V336.51ZM426.447 330.24H428.172V331.245C428.172 331.845 428.087 332.43 427.917 333C427.757 333.56 427.517 334.09 427.197 334.59C426.877 335.09 426.482 335.545 426.012 335.955C425.552 336.355 425.022 336.7 424.422 336.99C423.822 337.28 423.162 337.495 422.442 337.635L421.587 335.97C422.207 335.86 422.772 335.695 423.282 335.475C423.802 335.245 424.257 334.97 424.647 334.65C425.037 334.33 425.367 333.985 425.637 333.615C425.907 333.235 426.107 332.845 426.237 332.445C426.377 332.035 426.447 331.635 426.447 331.245V330.24ZM426.837 330.24H428.577V331.245C428.577 331.645 428.642 332.05 428.772 332.46C428.912 332.87 429.112 333.265 429.372 333.645C429.642 334.015 429.972 334.355 430.362 334.665C430.752 334.975 431.202 335.245 431.712 335.475C432.222 335.695 432.797 335.86 433.437 335.97L432.582 337.635C431.862 337.495 431.202 337.28 430.602 336.99C430.002 336.7 429.467 336.355 428.997 335.955C428.537 335.555 428.142 335.105 427.812 334.605C427.492 334.105 427.247 333.57 427.077 333C426.917 332.43 426.837 331.845 426.837 331.245V330.24ZM421.287 340.005H433.872V341.64H421.287V340.005ZM444.46 329.415H446.455V343.35H444.46V329.415ZM442.075 334.32H444.7V335.94H442.075V334.32ZM435.415 338.61H436.54C437.31 338.61 438.02 338.6 438.67 338.58C439.33 338.56 439.97 338.525 440.59 338.475C441.21 338.425 441.845 338.355 442.495 338.265L442.69 339.84C442.02 339.95 441.36 340.03 440.71 340.08C440.07 340.13 439.41 340.165 438.73 340.185C438.05 340.205 437.32 340.215 436.54 340.215H435.415V338.61ZM435.415 330.585H441.85V332.205H437.41V339.105H435.415V330.585ZM436.945 334.455H441.385V336.015H436.945V334.455ZM453.474 330.24H455.199V331.245C455.199 331.845 455.114 332.43 454.944 333C454.784 333.56 454.544 334.09 454.224 334.59C453.904 335.09 453.509 335.545 453.039 335.955C452.579 336.355 452.049 336.7 451.449 336.99C450.849 337.28 450.189 337.495 449.469 337.635L448.614 335.97C449.234 335.86 449.799 335.695 450.309 335.475C450.829 335.245 451.284 334.97 451.674 334.65C452.064 334.33 452.394 333.985 452.664 333.615C452.934 333.235 453.134 332.845 453.264 332.445C453.404 332.035 453.474 331.635 453.474 331.245V330.24ZM453.864 330.24H455.604V331.245C455.604 331.645 455.669 332.05 455.799 332.46C455.939 332.87 456.139 333.265 456.399 333.645C456.669 334.015 456.999 334.355 457.389 334.665C457.779 334.975 458.229 335.245 458.739 335.475C459.249 335.695 459.824 335.86 460.464 335.97L459.609 337.635C458.889 337.495 458.229 337.28 457.629 336.99C457.029 336.7 456.494 336.355 456.024 335.955C455.564 335.555 455.169 335.105 454.839 334.605C454.519 334.105 454.274 333.57 454.104 333C453.944 332.43 453.864 331.845 453.864 331.245V330.24ZM448.314 340.005H460.899V341.64H448.314V340.005Z" fill="white"/>
<path d="M164.63 66.8818V138.397L138.234 139.098L138.625 65.6289L164.63 66.8818Z" fill="#FCEDEA" stroke="#263238" stroke-width="1.2"/>
<path d="M146.266 73.308C146.718 73.308 146.869 73.6806 146.855 74.0774C146.854 74.1038 146.854 74.1303 146.855 74.1567L146.922 76.9928L147.006 80.788C147.027 81.7231 147.038 82.7098 146.571 83.5241C146.104 84.3383 144.987 84.8765 144.173 84.397C143.358 83.9174 143.291 82.9065 143.267 82.0267L143.112 76.1993C143.091 75.4299 143.088 74.5984 143.53 73.967L143.569 73.9118C143.653 73.7738 144.218 73.032 146.146 73.3045L146.266 73.308Z" fill="#525252"/>
<path d="M152.709 73.1631C153.162 73.1631 153.313 73.5357 153.299 73.9325C153.297 73.9589 153.297 73.9854 153.299 74.0119L153.365 76.8479L153.45 80.6432C153.471 81.5782 153.481 82.5649 153.014 83.3792C152.547 84.1934 151.431 84.7317 150.612 84.2521C149.794 83.7725 149.735 82.7616 149.71 81.8818L149.549 76.0406C149.531 75.2712 149.528 74.4397 149.97 73.8083L150.009 73.7531C150.093 73.6151 150.658 72.8733 152.586 73.1458L152.709 73.1631Z" fill="#525252"/>
<path d="M159.096 73.2115C159.545 73.2115 159.7 73.5842 159.682 73.9809V74.0603L159.745 76.8964L159.833 80.6916C159.854 81.6266 159.861 82.6133 159.398 83.4276C158.934 84.2418 157.814 84.7801 156.996 84.3005C156.178 83.8209 156.115 82.81 156.094 81.9302L155.936 76.0925C155.915 75.3231 155.915 74.4916 156.357 73.8602L156.392 73.805C156.48 73.667 157.045 72.9252 158.973 73.1977L159.096 73.2115Z" fill="#525252"/>
<path d="M146.167 88.2647C146.62 88.2647 146.771 88.6373 146.757 89.0341C146.755 89.0617 146.755 89.0893 146.757 89.1169L146.824 91.953L146.908 95.7482C146.929 96.6832 146.94 97.67 146.473 98.4842C146.006 99.2985 144.889 99.8367 144.074 99.3571C143.26 98.8775 143.193 97.8701 143.169 96.9868L143.014 91.1629C142.993 90.39 142.989 89.562 143.432 88.9271L143.47 88.8719C143.555 88.7339 144.12 87.9956 146.048 88.2681C146.104 88.2578 146.125 88.2647 146.167 88.2647Z" fill="#525252"/>
<path d="M152.61 88.1164C153.063 88.1164 153.214 88.489 153.2 88.8858C153.199 88.9133 153.199 88.941 153.2 88.9686L153.267 91.8046L153.351 95.5999C153.372 96.5349 153.383 97.5216 152.916 98.3359C152.449 99.1501 151.332 99.6884 150.514 99.2088C149.696 98.7292 149.636 97.7218 149.612 96.8385L149.454 91.0145C149.436 90.2417 149.433 89.4137 149.875 88.7788L149.91 88.7236C149.998 88.5856 150.563 87.8473 152.491 88.1198C152.526 88.1164 152.568 88.1164 152.61 88.1164Z" fill="#525252"/>
<path d="M159.004 88.168C159.454 88.168 159.608 88.5406 159.591 88.9374V89.0202L159.654 91.8563L159.742 95.6515C159.763 96.5865 159.77 97.5733 159.306 98.3875C158.843 99.2018 157.723 99.74 156.905 99.2604C156.087 98.7809 156.023 97.7734 156.002 96.8901L155.844 91.0662C155.823 90.2933 155.823 89.4653 156.266 88.8304L156.301 88.7752C156.389 88.6372 156.954 87.8989 158.882 88.1715C158.92 88.1611 158.962 88.168 159.004 88.168Z" fill="#525252"/>
<path d="M146.069 104.677C146.522 104.677 146.673 105.05 146.659 105.447C146.657 105.474 146.657 105.502 146.659 105.53L146.726 108.366L146.81 112.161C146.831 113.096 146.841 114.083 146.374 114.897C145.907 115.711 144.791 116.249 143.973 115.77C143.155 115.29 143.095 114.283 143.07 113.399L142.916 107.575C142.895 106.803 142.891 105.971 143.334 105.34L143.372 105.285C143.457 105.147 144.022 104.408 145.95 104.677C145.989 104.68 146.029 104.68 146.069 104.677Z" fill="#525252"/>
<path d="M152.512 104.543C152.965 104.543 153.116 104.915 153.102 105.312C153.1 105.34 153.1 105.367 153.102 105.395L153.169 108.231L153.253 112.026C153.274 112.961 153.285 113.948 152.818 114.762C152.351 115.577 151.234 116.115 150.416 115.635C149.598 115.156 149.538 114.148 149.514 113.265L149.352 107.438C149.334 106.665 149.331 105.833 149.773 105.202L149.809 105.147C149.896 105.009 150.462 104.27 152.389 104.539C152.43 104.544 152.471 104.545 152.512 104.543Z" fill="#525252"/>
<path d="M158.906 104.591C159.356 104.591 159.51 104.964 159.493 105.361V105.443L159.556 108.279L159.644 112.075C159.665 113.01 159.672 113.996 159.208 114.811C158.745 115.625 157.625 116.163 156.807 115.684C155.988 115.204 155.925 114.197 155.904 113.313L155.746 107.489C155.725 106.716 155.725 105.885 156.167 105.254L156.203 105.198C156.29 105.06 156.856 104.322 158.783 104.591C158.824 104.595 158.865 104.595 158.906 104.591Z" fill="#525252"/>
<path d="M146.069 119.824C146.522 119.824 146.673 120.196 146.659 120.593C146.657 120.621 146.657 120.648 146.659 120.676L146.726 123.512L146.81 127.307C146.831 128.242 146.841 129.229 146.374 130.047C145.907 130.864 144.791 131.396 143.973 130.916C143.155 130.437 143.095 129.429 143.07 128.546L142.916 122.722C142.895 121.953 142.891 121.121 143.334 120.486L143.372 120.431C143.457 120.296 144.022 119.555 145.95 119.827C145.988 119.817 146.027 119.824 146.069 119.824Z" fill="#525252"/>
<path d="M152.512 119.679C152.965 119.679 153.116 120.052 153.102 120.448C153.1 120.476 153.1 120.504 153.102 120.531L153.169 123.367L153.253 127.162C153.274 128.097 153.285 129.084 152.818 129.902C152.351 130.72 151.234 131.251 150.416 130.771C149.598 130.292 149.538 129.284 149.513 128.401L149.355 122.577C149.338 121.808 149.334 120.976 149.777 120.341C149.777 120.324 149.801 120.307 149.812 120.286C149.9 120.152 150.465 119.41 152.393 119.682C152.424 119.672 152.47 119.679 152.512 119.679Z" fill="#525252"/>
<path d="M158.906 119.727C159.356 119.727 159.51 120.1 159.493 120.497V120.579L159.556 123.415L159.644 127.211C159.665 128.146 159.672 129.132 159.208 129.95C158.745 130.768 157.625 131.299 156.807 130.82C155.988 130.34 155.925 129.333 155.904 128.449L155.746 122.618C155.725 121.849 155.725 121.018 156.167 120.383C156.167 120.365 156.192 120.348 156.203 120.328C156.29 120.193 156.856 119.451 158.783 119.724C158.822 119.72 158.864 119.727 158.906 119.727Z" fill="#525252"/>
<path d="M140.799 83.8885V138.914L114.404 139.362L114.792 83.8856L140.799 83.8885Z" fill="#EC644E" stroke="#263238" stroke-width="1.2"/>
<path d="M122.336 90.2658C122.789 90.2658 122.94 90.6384 122.926 91.0352V91.118L122.989 93.9541L123.077 97.7493C123.098 98.6843 123.105 99.6711 122.642 100.485C122.178 101.3 121.058 101.838 120.24 101.358C119.422 100.879 119.359 99.8712 119.334 98.988L119.18 93.164C119.158 92.3912 119.155 91.5631 119.597 90.9283L119.636 90.8731C119.724 90.7385 120.289 89.9967 122.213 90.2693L122.336 90.2658Z" fill="white"/>
<path d="M128.779 90.1209C129.232 90.1209 129.383 90.4935 129.369 90.8903C129.367 90.9179 129.367 90.9455 129.369 90.9731L129.432 93.8092L129.517 97.6044C129.538 98.5394 129.548 99.5262 129.085 100.34C128.621 101.155 127.501 101.693 126.683 101.213C125.865 100.734 125.802 99.7263 125.777 98.843L125.623 92.9915C125.602 92.2186 125.598 91.3906 126.04 90.7557L126.09 90.7143C126.177 90.5763 126.743 89.838 128.667 90.1105L128.779 90.1209Z" fill="white"/>
<path d="M135.173 90.1692C135.626 90.1692 135.777 90.5419 135.763 90.9386C135.761 90.9662 135.761 90.9939 135.763 91.0214L135.826 93.8575L135.911 97.6527C135.932 98.5877 135.942 99.5745 135.475 100.389C135.008 101.203 133.892 101.741 133.077 101.262C132.262 100.782 132.196 99.7746 132.171 98.8914L132.017 93.0674C131.996 92.2946 131.992 91.4665 132.435 90.8317L132.473 90.7765C132.557 90.6385 133.123 89.9001 135.05 90.1727C135.093 90.1623 135.131 90.1692 135.173 90.1692Z" fill="white"/>
<path d="M122.227 105.664C122.68 105.664 122.831 106.037 122.817 106.433V106.516L122.88 109.349L122.968 113.144C122.989 114.079 122.996 115.066 122.533 115.88C122.069 116.694 120.949 117.233 120.131 116.753C119.313 116.273 119.25 115.266 119.225 114.383L119.067 108.545C119.046 107.776 119.043 106.944 119.485 106.313L119.524 106.257C119.611 106.119 120.177 105.381 122.101 105.65L122.227 105.664Z" fill="white"/>
<path d="M128.681 105.519C129.134 105.519 129.285 105.892 129.271 106.289C129.269 106.316 129.269 106.344 129.271 106.371L129.334 109.204L129.419 112.999C129.44 113.934 129.45 114.921 128.987 115.735C128.523 116.549 127.403 117.088 126.585 116.608C125.767 116.129 125.704 115.118 125.679 114.238L125.525 108.41C125.503 107.641 125.5 106.81 125.942 106.178L125.981 106.123C126.069 105.985 126.631 105.247 128.558 105.516L128.681 105.519Z" fill="white"/>
<path d="M135.075 105.567C135.528 105.567 135.679 105.94 135.665 106.337C135.663 106.364 135.663 106.392 135.665 106.42L135.728 109.252L135.813 113.048C135.834 113.983 135.844 114.969 135.377 115.784C134.91 116.598 133.794 117.136 132.979 116.656C132.164 116.177 132.098 115.169 132.073 114.286L131.919 108.448C131.897 107.679 131.894 106.847 132.336 106.216L132.375 106.161C132.459 106.023 133.025 105.285 134.952 105.554L135.075 105.567Z" fill="white"/>
<path d="M122.227 121.825C122.68 121.825 122.831 122.197 122.817 122.594V122.663L122.88 125.499L122.968 129.294C122.989 130.23 122.996 131.216 122.533 132.034C122.069 132.852 120.949 133.383 120.131 132.903C119.313 132.424 119.25 131.416 119.225 130.533L119.067 124.709C119.046 123.94 119.043 123.108 119.485 122.473C119.5 122.456 119.513 122.438 119.524 122.418C119.611 122.284 120.177 121.542 122.101 121.814L122.227 121.825Z" fill="white"/>
<path d="M128.681 121.68C129.134 121.68 129.285 122.053 129.271 122.449C129.269 122.477 129.269 122.505 129.271 122.532L129.334 125.368L129.419 129.164C129.44 130.099 129.45 131.085 128.987 131.903C128.523 132.721 127.403 133.252 126.585 132.772C125.767 132.293 125.704 131.285 125.679 130.402L125.525 124.578C125.503 123.809 125.5 122.977 125.942 122.342L125.981 122.287C126.069 122.153 126.631 121.411 128.558 121.683L128.681 121.68Z" fill="white"/>
<path d="M135.075 121.728C135.528 121.728 135.679 122.101 135.665 122.498C135.663 122.525 135.663 122.553 135.665 122.58L135.728 125.416L135.813 129.212C135.834 130.147 135.844 131.133 135.377 131.951C134.91 132.769 133.794 133.3 132.979 132.821C132.164 132.341 132.098 131.334 132.073 130.45L131.919 124.626C131.897 123.857 131.894 123.026 132.336 122.391L132.375 122.335C132.459 122.201 133.025 121.459 134.952 121.732C134.994 121.721 135.033 121.728 135.075 121.728Z" fill="white"/>
<path d="M205.716 143.769H145.081C144.504 141.895 144.805 139.538 146.085 138.344C147.47 137.027 149.889 137.821 150.291 139.952C151.691 136.643 151.209 132.091 153.418 129.595C154.089 128.83 155.027 128.337 156.047 128.214C157.068 128.091 158.099 128.346 158.939 128.929C160.685 130.064 161.88 132.278 162.452 134.655C162.452 133.038 163.25 131.459 164.424 130.818C165.013 130.524 165.689 130.443 166.333 130.588C166.976 130.733 167.548 131.095 167.948 131.612C168.61 129.28 169.308 126.902 170.553 124.984C173.158 120.955 178.177 119.801 181.735 122.39C185.293 124.979 187.025 131.011 185.575 135.873C186.799 134.704 188.084 133.536 189.494 132.84C190.905 132.145 192.586 131.953 194.011 132.742C194.782 133.237 195.397 133.933 195.788 134.751C196.18 135.57 196.333 136.479 196.23 137.377C197.951 134.418 201.751 133.925 203.929 136.352C205.535 138.167 206.017 140.983 205.716 143.769Z" fill="#87C880" stroke="#263238" stroke-width="1.2" stroke-miterlimit="10" stroke-linejoin="round"/>
<path d="M200.255 142.805H151.27C151.363 142.356 151.622 141.954 152 141.672C152.469 141.367 153.045 141.25 153.604 141.346C154.163 141.442 154.659 141.744 154.986 142.187C155.651 140.869 156.315 139.554 156.978 138.242C157.323 137.55 157.738 136.8 158.49 136.528C159.242 136.257 160.059 136.553 160.746 136.94C162.305 137.777 163.585 139.018 164.435 140.519L166.652 137.266C166.902 136.824 167.261 136.446 167.698 136.166C168.031 136.018 168.398 135.952 168.765 135.975C169.133 135.998 169.488 136.109 169.798 136.298C170.413 136.682 170.95 137.169 171.383 137.735C172.291 135.93 173.476 134.264 174.9 132.793C175.197 132.427 175.591 132.143 176.041 131.97C176.516 131.862 177.014 131.893 177.471 132.056C179.097 132.556 180.511 133.541 181.505 134.865C182.498 136.189 183.019 137.783 182.989 139.411C183.888 138.626 184.908 137.976 186.014 137.484C186.981 137.072 188.174 136.759 189.081 137.286C190.144 137.9 190.313 139.279 190.378 140.465C192.156 139.976 193.996 139.715 195.848 139.691C196.724 139.619 197.603 139.794 198.375 140.194C198.889 140.551 199.309 141.016 199.602 141.553C199.846 141.957 200.064 142.375 200.255 142.805Z" fill="#7ABC71"/>
<path d="M208.144 257.195H197.075C196.979 257.195 196.884 257.174 196.797 257.134C196.71 257.093 196.633 257.034 196.571 256.96C196.51 256.887 196.465 256.801 196.44 256.708C196.416 256.615 196.412 256.518 196.429 256.424L201.964 225.541C201.991 225.389 202.07 225.252 202.188 225.153C202.306 225.054 202.455 225 202.61 225C202.764 225 202.913 225.054 203.031 225.153C203.149 225.252 203.228 225.389 203.255 225.541L208.79 256.424C208.807 256.518 208.803 256.615 208.779 256.708C208.754 256.801 208.709 256.887 208.648 256.96C208.586 257.034 208.509 257.093 208.422 257.134C208.335 257.174 208.24 257.195 208.144 257.195Z" fill="#8DD27F" stroke="#263238" stroke-width="1.2" stroke-linecap="round" stroke-linejoin="round"/>
<path d="M202.61 240.534V263.255" stroke="#263238" stroke-width="1.2" stroke-linecap="round" stroke-linejoin="round"/>
<path d="M200.134 246.602L202.532 248.996" stroke="#263238" stroke-width="1.2" stroke-linecap="round" stroke-linejoin="round"/>
<path d="M205.856 250.929L202.61 254.17" stroke="#263238" stroke-width="1.2" stroke-linecap="round" stroke-linejoin="round"/>
<path d="M204.233 242.958L202.61 244.579" stroke="#263238" stroke-width="1.2" stroke-linecap="round" stroke-linejoin="round"/>
<path d="M468.832 221.037H457.474C457.375 221.037 457.278 221.016 457.188 220.974C457.099 220.932 457.02 220.871 456.957 220.796C456.894 220.72 456.848 220.632 456.823 220.537C456.797 220.442 456.794 220.342 456.811 220.245L462.49 188.555C462.518 188.399 462.599 188.259 462.721 188.157C462.842 188.056 462.995 188 463.153 188C463.311 188 463.464 188.056 463.585 188.157C463.707 188.259 463.788 188.399 463.816 188.555L469.495 220.245C469.512 220.342 469.509 220.442 469.483 220.537C469.458 220.632 469.412 220.72 469.349 220.796C469.286 220.871 469.207 220.932 469.118 220.974C469.028 221.016 468.931 221.037 468.832 221.037Z" fill="#8DD27F" stroke="#263238" stroke-width="1.2" stroke-linecap="round" stroke-linejoin="round"/>
<path d="M463.153 203.941V227.255" stroke="#263238" stroke-width="1.2" stroke-linecap="round" stroke-linejoin="round"/>
<path d="M460.613 210.167L463.074 212.623" stroke="#263238" stroke-width="1.2" stroke-linecap="round" stroke-linejoin="round"/>
<path d="M466.484 214.607L463.153 217.932" stroke="#263238" stroke-width="1.2" stroke-linecap="round" stroke-linejoin="round"/>
<path d="M464.818 206.428L463.153 208.091" stroke="#263238" stroke-width="1.2" stroke-linecap="round" stroke-linejoin="round"/>
<path d="M117.139 304.879H105.491C105.39 304.879 105.29 304.857 105.198 304.814C105.107 304.771 105.026 304.709 104.961 304.631C104.896 304.554 104.849 304.463 104.823 304.366C104.797 304.268 104.793 304.166 104.811 304.067L110.635 271.569C110.664 271.41 110.747 271.265 110.871 271.161C110.996 271.057 111.153 271 111.315 271C111.477 271 111.634 271.057 111.758 271.161C111.883 271.265 111.966 271.41 111.994 271.569L117.818 304.067C117.836 304.166 117.832 304.268 117.806 304.366C117.781 304.463 117.734 304.554 117.669 304.631C117.604 304.709 117.523 304.771 117.431 304.814C117.34 304.857 117.24 304.879 117.139 304.879Z" fill="#8DD27F" stroke="#263238" stroke-width="1.2" stroke-linecap="round" stroke-linejoin="round"/>
<path d="M111.315 287.347V311.255" stroke="#263238" stroke-width="1.2" stroke-linecap="round" stroke-linejoin="round"/>
<path d="M108.71 293.731L111.233 296.25" stroke="#263238" stroke-width="1.2" stroke-linecap="round" stroke-linejoin="round"/>
<path d="M114.73 298.285L111.315 301.695" stroke="#263238" stroke-width="1.2" stroke-linecap="round" stroke-linejoin="round"/>
<path d="M113.023 289.898L111.315 291.602" stroke="#263238" stroke-width="1.2" stroke-linecap="round" stroke-linejoin="round"/>
<path d="M292.221 102.105H280.495C280.394 102.105 280.293 102.083 280.201 102.04C280.109 101.997 280.027 101.934 279.962 101.856C279.897 101.778 279.849 101.687 279.823 101.589C279.797 101.49 279.793 101.388 279.811 101.288L285.674 68.5729C285.703 68.4123 285.787 68.2669 285.912 68.1622C286.037 68.0574 286.195 68 286.358 68C286.522 68 286.68 68.0574 286.805 68.1622C286.93 68.2669 287.014 68.4123 287.042 68.5729L292.905 101.288C292.923 101.388 292.919 101.49 292.893 101.589C292.867 101.687 292.82 101.778 292.755 101.856C292.69 101.934 292.608 101.997 292.516 102.04C292.424 102.083 292.323 102.105 292.221 102.105Z" fill="#8DD27F" stroke="#263238" stroke-width="1.2" stroke-linecap="round" stroke-linejoin="round"/>
<path d="M286.358 84.4559V108.524" stroke="#263238" stroke-width="1.2" stroke-linecap="round" stroke-linejoin="round"/>
<path d="M283.736 90.8831L286.276 93.4191" stroke="#263238" stroke-width="1.2" stroke-linecap="round" stroke-linejoin="round"/>
<path d="M289.797 95.4674L286.358 98.8997" stroke="#263238" stroke-width="1.2" stroke-linecap="round" stroke-linejoin="round"/>
<path d="M288.078 87.0237L286.358 88.7398" stroke="#263238" stroke-width="1.2" stroke-linecap="round" stroke-linejoin="round"/>
<path d="M172.526 524.195H161.457C161.36 524.195 161.266 524.174 161.179 524.134C161.091 524.093 161.014 524.034 160.953 523.961C160.891 523.887 160.847 523.801 160.822 523.708C160.797 523.615 160.794 523.518 160.811 523.424L166.345 492.541C166.372 492.389 166.452 492.252 166.57 492.153C166.688 492.054 166.837 492 166.991 492C167.145 492 167.294 492.054 167.413 492.153C167.531 492.252 167.61 492.389 167.637 492.541L173.171 523.424C173.189 523.518 173.185 523.615 173.16 523.708C173.136 523.801 173.091 523.887 173.029 523.961C172.968 524.034 172.891 524.093 172.804 524.134C172.717 524.174 172.622 524.195 172.526 524.195Z" fill="#5CB56B" stroke="#263238" stroke-width="1.2" stroke-linecap="round" stroke-linejoin="round"/>
<path d="M166.991 507.535V530.255" stroke="#263238" stroke-width="1.2" stroke-linecap="round" stroke-linejoin="round"/>
<path d="M164.516 513.602L166.914 515.996" stroke="#263238" stroke-width="1.2" stroke-linecap="round" stroke-linejoin="round"/>
<path d="M170.237 517.93L166.991 521.17" stroke="#263238" stroke-width="1.2" stroke-linecap="round" stroke-linejoin="round"/>
<path d="M168.614 509.959L166.991 511.579" stroke="#263238" stroke-width="1.2" stroke-linecap="round" stroke-linejoin="round"/>
<path d="M409.336 63.6741H398.446C398.351 63.6742 398.258 63.6535 398.172 63.6136C398.087 63.5737 398.011 63.5155 397.95 63.4431C397.89 63.3706 397.846 63.2858 397.822 63.1946C397.798 63.1034 397.794 63.008 397.811 62.9151L403.256 32.5319C403.282 32.3828 403.36 32.2478 403.476 32.1505C403.592 32.0532 403.739 31.9999 403.891 31.9999C404.043 31.9999 404.189 32.0532 404.306 32.1505C404.422 32.2478 404.5 32.3828 404.526 32.5319L409.971 62.9151C409.988 63.008 409.984 63.1034 409.96 63.1946C409.936 63.2858 409.892 63.3706 409.832 63.4431C409.771 63.5155 409.695 63.5737 409.609 63.6136C409.524 63.6535 409.43 63.6742 409.336 63.6741Z" fill="#5CB56B" stroke="#263238" stroke-width="1.2" stroke-linecap="round" stroke-linejoin="round"/>
<path d="M403.891 47.283V69.6358" stroke="#263238" stroke-width="1.2" stroke-linecap="round" stroke-linejoin="round"/>
<path d="M401.455 53.2521L403.815 55.6073" stroke="#263238" stroke-width="1.2" stroke-linecap="round" stroke-linejoin="round"/>
<path d="M407.084 57.5098L403.891 60.6974" stroke="#263238" stroke-width="1.2" stroke-linecap="round" stroke-linejoin="round"/>
<path d="M405.488 49.6678L403.891 51.2617" stroke="#263238" stroke-width="1.2" stroke-linecap="round" stroke-linejoin="round"/>
<path d="M82.3376 277.309L89.2313 238.836C89.2731 238.602 89.3961 238.39 89.5789 238.237C89.7616 238.084 89.9925 238 90.2309 238C90.4694 238 90.7002 238.084 90.883 238.237C91.0658 238.39 91.1888 238.602 91.2305 238.836L99.785 286.57C99.8105 286.716 99.8039 286.866 99.7655 287.009C99.7271 287.152 99.6579 287.285 99.5627 287.398C99.4675 287.512 99.3486 287.603 99.2143 287.666C99.0801 287.729 98.9337 287.761 98.7854 287.762H84.3713" fill="#5CB56B"/>
<path d="M82.3376 277.309L89.2313 238.836C89.2731 238.602 89.3961 238.39 89.5789 238.237C89.7616 238.084 89.9925 238 90.2309 238C90.4694 238 90.7002 238.084 90.883 238.237C91.0658 238.39 91.1888 238.602 91.2305 238.836L99.785 286.57C99.8105 286.716 99.8039 286.866 99.7655 287.009C99.7271 287.152 99.6579 287.285 99.5627 287.398C99.4675 287.512 99.3486 287.603 99.2143 287.666C99.0801 287.729 98.9337 287.761 98.7854 287.762H84.3713" stroke="#263238" stroke-width="1.2" stroke-linecap="round" stroke-linejoin="round"/>
<path d="M90.231 262.01V297.126" stroke="#263238" stroke-width="1.2" stroke-linecap="round" stroke-linejoin="round"/>
<path d="M86.4019 271.387L90.1119 275.087" stroke="#263238" stroke-width="1.2" stroke-linecap="round" stroke-linejoin="round"/>
<path d="M95.2477 278.078L90.231 283.086" stroke="#263238" stroke-width="1.2" stroke-linecap="round" stroke-linejoin="round"/>
<path d="M92.7378 265.757L90.231 268.262" stroke="#263238" stroke-width="1.2" stroke-linecap="round" stroke-linejoin="round"/>
<path d="M83.5379 289.51H69.6251C69.5044 289.51 69.3851 289.484 69.2757 289.433C69.1662 289.382 69.0694 289.308 68.992 289.215C68.9145 289.123 68.8584 289.014 68.8276 288.898C68.7968 288.781 68.792 288.659 68.8136 288.541L75.7699 249.724C75.8036 249.533 75.9034 249.361 76.0518 249.237C76.2002 249.112 76.3878 249.044 76.5815 249.044C76.7752 249.044 76.9628 249.112 77.1112 249.237C77.2596 249.361 77.3594 249.533 77.3931 249.724L84.3495 288.541C84.371 288.659 84.3662 288.781 84.3354 288.898C84.3046 289.014 84.2485 289.123 84.171 289.215C84.0936 289.308 83.9968 289.382 83.8874 289.433C83.7779 289.484 83.6586 289.51 83.5379 289.51Z" fill="#5CB56B" stroke="#263238" stroke-width="1.2" stroke-linecap="round" stroke-linejoin="round"/>
<path d="M76.5815 268.569V297.126" stroke="#263238" stroke-width="1.2" stroke-linecap="round" stroke-linejoin="round"/>
<path d="M73.47 276.195L76.4844 279.204" stroke="#263238" stroke-width="1.2" stroke-linecap="round" stroke-linejoin="round"/>
<path d="M80.6614 281.635L76.5815 285.707" stroke="#263238" stroke-width="1.2" stroke-linecap="round" stroke-linejoin="round"/>
<path d="M78.6215 271.616L76.5815 273.652" stroke="#263238" stroke-width="1.2" stroke-linecap="round" stroke-linejoin="round"/>
<path d="M434.338 226.309L441.231 187.836C441.273 187.602 441.396 187.39 441.579 187.237C441.762 187.084 441.992 187 442.231 187C442.469 187 442.7 187.084 442.883 187.237C443.066 187.39 443.189 187.602 443.231 187.836L451.785 235.57C451.811 235.716 451.804 235.866 451.765 236.009C451.727 236.152 451.658 236.285 451.563 236.398C451.467 236.512 451.349 236.603 451.214 236.666C451.08 236.729 450.934 236.761 450.785 236.762H436.371" fill="#5CB56B"/>
<path d="M434.338 226.309L441.231 187.836C441.273 187.602 441.396 187.39 441.579 187.237C441.762 187.084 441.992 187 442.231 187C442.469 187 442.7 187.084 442.883 187.237C443.066 187.39 443.189 187.602 443.231 187.836L451.785 235.57C451.811 235.716 451.804 235.866 451.765 236.009C451.727 236.152 451.658 236.285 451.563 236.398C451.467 236.512 451.349 236.603 451.214 236.666C451.08 236.729 450.934 236.761 450.785 236.762H436.371" stroke="#263238" stroke-width="1.2" stroke-linecap="round" stroke-linejoin="round"/>
<path d="M442.231 211.01V246.126" stroke="#263238" stroke-width="1.2" stroke-linecap="round" stroke-linejoin="round"/>
<path d="M438.402 220.387L442.112 224.088" stroke="#263238" stroke-width="1.2" stroke-linecap="round" stroke-linejoin="round"/>
<path d="M447.248 227.078L442.231 232.086" stroke="#263238" stroke-width="1.2" stroke-linecap="round" stroke-linejoin="round"/>
<path d="M444.738 214.757L442.231 217.262" stroke="#263238" stroke-width="1.2" stroke-linecap="round" stroke-linejoin="round"/>
<path d="M435.538 238.51H421.625C421.504 238.511 421.385 238.484 421.276 238.433C421.166 238.382 421.069 238.308 420.992 238.215C420.915 238.123 420.858 238.014 420.828 237.898C420.797 237.781 420.792 237.659 420.814 237.541L427.77 198.724C427.804 198.534 427.903 198.361 428.052 198.237C428.2 198.113 428.388 198.044 428.582 198.044C428.775 198.044 428.963 198.113 429.111 198.237C429.26 198.361 429.359 198.534 429.393 198.724L436.349 237.541C436.371 237.659 436.366 237.781 436.335 237.898C436.305 238.014 436.248 238.123 436.171 238.215C436.094 238.308 435.997 238.382 435.887 238.433C435.778 238.484 435.659 238.511 435.538 238.51Z" fill="#5CB56B" stroke="#263238" stroke-width="1.2" stroke-linecap="round" stroke-linejoin="round"/>
<path d="M428.582 217.569V246.126" stroke="#263238" stroke-width="1.2" stroke-linecap="round" stroke-linejoin="round"/>
<path d="M425.47 225.195L428.484 228.204" stroke="#263238" stroke-width="1.2" stroke-linecap="round" stroke-linejoin="round"/>
<path d="M432.661 230.635L428.582 234.707" stroke="#263238" stroke-width="1.2" stroke-linecap="round" stroke-linejoin="round"/>
<path d="M430.621 220.616L428.582 222.652" stroke="#263238" stroke-width="1.2" stroke-linecap="round" stroke-linejoin="round"/>
<path d="M257.302 581.897V608.933H228.501V581.897H257.302Z" fill="white" stroke="#263238"/>
<path d="M255.492 571.105L261.978 583.642H225.599L231.964 570.534L255.492 571.105Z" fill="#FF6B43" stroke="#263238"/>
<path d="M242.051 601.205C242.694 601.205 243.31 601.456 243.762 601.9C244.213 602.343 244.466 602.941 244.466 603.563V609.033H239.636V603.563L239.647 603.331C239.702 602.794 239.944 602.287 240.34 601.9C240.792 601.456 241.407 601.205 242.051 601.205Z" fill="#2E292B" stroke="#263238"/>
<rect x="231.8" y="586.933" width="4" height="4.91304" rx="1" fill="#525252"/>
<rect x="231.8" y="593.812" width="4" height="4.91304" rx="1" fill="#525252"/>
<rect x="237.8" y="586.933" width="4" height="4.91304" rx="1" fill="#525252"/>
<rect x="237.8" y="593.812" width="4" height="4.91304" rx="1" fill="#525252"/>
<path d="M243.8 587.933C243.8 587.381 244.248 586.933 244.8 586.933H246.8C247.353 586.933 247.8 587.381 247.8 587.933V590.846C247.8 591.398 247.353 591.846 246.8 591.846H244.8C244.248 591.846 243.8 591.398 243.8 590.846V587.933Z" fill="#525252"/>
<path d="M249.8 587.933C249.8 587.381 250.248 586.933 250.8 586.933H252.8C253.353 586.933 253.8 587.381 253.8 587.933V590.846C253.8 591.398 253.353 591.846 252.8 591.846H250.8C250.248 591.846 249.8 591.398 249.8 590.846V587.933Z" fill="#525252"/>
<path d="M243.8 594.812C243.8 594.259 244.248 593.812 244.8 593.812H246.8C247.353 593.812 247.8 594.259 247.8 594.812V597.725C247.8 598.277 247.353 598.725 246.8 598.725H244.8C244.248 598.725 243.8 598.277 243.8 597.725V594.812Z" fill="#525252"/>
<path d="M249.8 594.812C249.8 594.259 250.248 593.812 250.8 593.812H252.8C253.353 593.812 253.8 594.259 253.8 594.812V597.725C253.8 598.277 253.353 598.725 252.8 598.725H250.8C250.248 598.725 249.8 598.277 249.8 597.725V594.812Z" fill="#525252"/>
<path d="M297.267 41.1037L304.125 2.83171C304.166 2.59859 304.289 2.38749 304.471 2.23542C304.652 2.08334 304.882 2 305.119 2C305.356 2 305.586 2.08334 305.768 2.23542C305.95 2.38749 306.072 2.59859 306.114 2.83171L314.623 50.317C314.649 50.462 314.642 50.6109 314.604 50.7531C314.566 50.8953 314.497 51.0275 314.402 51.1404C314.308 51.2533 314.189 51.3442 314.056 51.4067C313.922 51.4693 313.777 51.5019 313.629 51.5025H299.29" fill="#5CB56B"/>
<path d="M297.267 41.1037L304.125 2.83171C304.166 2.59859 304.289 2.38749 304.471 2.23542C304.652 2.08334 304.882 2 305.119 2C305.356 2 305.586 2.08334 305.768 2.23542C305.95 2.38749 306.072 2.59859 306.114 2.83171L314.623 50.317C314.649 50.462 314.642 50.6109 314.604 50.7531C314.566 50.8953 314.497 51.0275 314.402 51.1404C314.308 51.2533 314.189 51.3442 314.056 51.4067C313.922 51.4693 313.777 51.5019 313.629 51.5025H299.29" stroke="#263238" stroke-width="1.2" stroke-linecap="round" stroke-linejoin="round"/>
<path d="M305.119 25.8849V60.8182" stroke="#263238" stroke-width="1.2" stroke-linecap="round" stroke-linejoin="round"/>
<path d="M301.31 35.2134L305.001 38.8943" stroke="#263238" stroke-width="1.2" stroke-linecap="round" stroke-linejoin="round"/>
<path d="M310.11 41.869L305.119 46.8506" stroke="#263238" stroke-width="1.2" stroke-linecap="round" stroke-linejoin="round"/>
<path d="M307.613 29.6125L305.119 32.1049" stroke="#263238" stroke-width="1.2" stroke-linecap="round" stroke-linejoin="round"/>
<path d="M298.461 53.2415H284.621C284.501 53.2417 284.382 53.2154 284.273 53.1647C284.164 53.1139 284.068 53.0399 283.991 52.9479C283.914 52.8559 283.858 52.7481 283.827 52.6321C283.797 52.5162 283.792 52.395 283.813 52.277L290.734 13.6627C290.767 13.4733 290.866 13.3017 291.014 13.178C291.162 13.0544 291.348 12.9866 291.541 12.9866C291.734 12.9866 291.92 13.0544 292.068 13.178C292.215 13.3017 292.315 13.4733 292.348 13.6627L299.268 52.277C299.29 52.395 299.285 52.5162 299.254 52.6321C299.224 52.7481 299.168 52.8559 299.091 52.9479C299.014 53.0399 298.918 53.1139 298.809 53.1647C298.7 53.2154 298.581 53.2417 298.461 53.2415Z" fill="#5CB56B" stroke="#263238" stroke-width="1.2" stroke-linecap="round" stroke-linejoin="round"/>
<path d="M291.541 32.4095V60.8179" stroke="#263238" stroke-width="1.2" stroke-linecap="round" stroke-linejoin="round"/>
<path d="M288.446 39.9958L291.444 42.9892" stroke="#263238" stroke-width="1.2" stroke-linecap="round" stroke-linejoin="round"/>
<path d="M295.6 45.407L291.541 49.4582" stroke="#263238" stroke-width="1.2" stroke-linecap="round" stroke-linejoin="round"/>
<path d="M293.57 35.4409L291.541 37.4665" stroke="#263238" stroke-width="1.2" stroke-linecap="round" stroke-linejoin="round"/>
<path d="M207.901 593.041L214.572 555.809C214.613 555.582 214.732 555.377 214.909 555.229C215.086 555.081 215.309 555 215.54 555C215.771 555 215.994 555.081 216.171 555.229C216.348 555.377 216.467 555.582 216.507 555.809L224.786 602.003C224.81 602.145 224.804 602.289 224.767 602.428C224.73 602.566 224.663 602.695 224.57 602.804C224.478 602.914 224.363 603.003 224.233 603.064C224.103 603.124 223.962 603.156 223.818 603.157H209.869" fill="#8DD27F"/>
<path d="M207.901 593.041L214.572 555.809C214.613 555.582 214.732 555.377 214.909 555.229C215.086 555.081 215.309 555 215.54 555C215.771 555 215.994 555.081 216.171 555.229C216.348 555.377 216.467 555.582 216.507 555.809L224.786 602.003C224.81 602.145 224.804 602.289 224.767 602.428C224.73 602.566 224.663 602.695 224.57 602.804C224.478 602.914 224.363 603.003 224.233 603.064C224.103 603.124 223.962 603.156 223.818 603.157H209.869" stroke="#263238" stroke-width="1.2" stroke-linecap="round" stroke-linejoin="round"/>
<path d="M215.54 578.235V612.219" stroke="#263238" stroke-width="1.2" stroke-linecap="round" stroke-linejoin="round"/>
<path d="M211.834 587.31L215.424 590.891" stroke="#263238" stroke-width="1.2" stroke-linecap="round" stroke-linejoin="round"/>
<path d="M220.395 593.785L215.54 598.631" stroke="#263238" stroke-width="1.2" stroke-linecap="round" stroke-linejoin="round"/>
<path d="M217.966 581.862L215.54 584.287" stroke="#263238" stroke-width="1.2" stroke-linecap="round" stroke-linejoin="round"/>
<path d="M209.062 604.849H195.599C195.482 604.849 195.366 604.823 195.26 604.774C195.154 604.724 195.061 604.652 194.986 604.563C194.911 604.473 194.857 604.369 194.827 604.256C194.797 604.143 194.792 604.025 194.813 603.91L201.545 566.346C201.578 566.161 201.674 565.995 201.818 565.874C201.962 565.754 202.143 565.688 202.33 565.688C202.518 565.688 202.699 565.754 202.843 565.874C202.987 565.995 203.083 566.161 203.116 566.346L209.848 603.91C209.869 604.025 209.864 604.143 209.834 604.256C209.804 604.369 209.75 604.473 209.675 604.563C209.6 604.652 209.507 604.724 209.401 604.774C209.295 604.823 209.179 604.849 209.062 604.849Z" fill="#8DD27F" stroke="#263238" stroke-width="1.2" stroke-linecap="round" stroke-linejoin="round"/>
<path d="M202.331 584.583V612.219" stroke="#263238" stroke-width="1.2" stroke-linecap="round" stroke-linejoin="round"/>
<path d="M199.319 591.963L202.237 594.875" stroke="#263238" stroke-width="1.2" stroke-linecap="round" stroke-linejoin="round"/>
<path d="M206.279 597.227L202.331 601.168" stroke="#263238" stroke-width="1.2" stroke-linecap="round" stroke-linejoin="round"/>
<path d="M204.305 587.532L202.331 589.502" stroke="#263238" stroke-width="1.2" stroke-linecap="round" stroke-linejoin="round"/>
<path d="M408.154 435.063L413.426 405.639C413.458 405.46 413.552 405.298 413.692 405.181C413.831 405.064 414.008 405 414.19 405C414.373 405 414.549 405.064 414.689 405.181C414.829 405.298 414.923 405.46 414.955 405.639L421.497 442.146C421.517 442.257 421.511 442.372 421.482 442.481C421.453 442.59 421.4 442.692 421.327 442.779C421.254 442.866 421.163 442.936 421.061 442.984C420.958 443.032 420.846 443.057 420.733 443.057H409.709" fill="#8DD27F"/>
<path d="M408.154 435.063L413.426 405.639C413.458 405.46 413.552 405.298 413.692 405.181C413.831 405.064 414.008 405 414.19 405C414.373 405 414.549 405.064 414.689 405.181C414.829 405.298 414.923 405.46 414.955 405.639L421.497 442.146C421.517 442.257 421.511 442.372 421.482 442.481C421.453 442.59 421.4 442.692 421.327 442.779C421.254 442.866 421.163 442.936 421.061 442.984C420.958 443.032 420.846 443.057 420.733 443.057H409.709" stroke="#263238" stroke-width="1.2" stroke-linecap="round" stroke-linejoin="round"/>
<path d="M414.19 423.362V450.219" stroke="#263238" stroke-width="1.2" stroke-linecap="round" stroke-linejoin="round"/>
<path d="M411.262 430.534L414.099 433.364" stroke="#263238" stroke-width="1.2" stroke-linecap="round" stroke-linejoin="round"/>
<path d="M418.027 435.651L414.19 439.481" stroke="#263238" stroke-width="1.2" stroke-linecap="round" stroke-linejoin="round"/>
<path d="M416.107 426.228L414.19 428.144" stroke="#263238" stroke-width="1.2" stroke-linecap="round" stroke-linejoin="round"/>
<path d="M409.071 444.394H398.431C398.339 444.394 398.248 444.374 398.164 444.335C398.08 444.296 398.006 444.239 397.947 444.169C397.888 444.098 397.845 444.015 397.821 443.926C397.798 443.837 397.794 443.743 397.81 443.653L403.131 413.966C403.156 413.821 403.233 413.689 403.346 413.594C403.46 413.499 403.603 413.447 403.751 413.447C403.899 413.447 404.043 413.499 404.156 413.594C404.27 413.689 404.346 413.821 404.372 413.966L409.692 443.653C409.709 443.743 409.705 443.837 409.681 443.926C409.658 444.015 409.615 444.098 409.556 444.169C409.496 444.239 409.422 444.296 409.339 444.335C409.255 444.374 409.164 444.394 409.071 444.394Z" fill="#8DD27F" stroke="#263238" stroke-width="1.2" stroke-linecap="round" stroke-linejoin="round"/>
<path d="M403.751 428.379V450.219" stroke="#263238" stroke-width="1.2" stroke-linecap="round" stroke-linejoin="round"/>
<path d="M401.372 434.211L403.677 436.512" stroke="#263238" stroke-width="1.2" stroke-linecap="round" stroke-linejoin="round"/>
<path d="M406.871 438.371L403.751 441.485" stroke="#263238" stroke-width="1.2" stroke-linecap="round" stroke-linejoin="round"/>
<path d="M405.311 430.709L403.751 432.266" stroke="#263238" stroke-width="1.2" stroke-linecap="round" stroke-linejoin="round"/>
<path d="M450.291 36.461L455.633 6.64789C455.665 6.46629 455.76 6.30185 455.902 6.18338C456.044 6.06492 456.223 6 456.407 6C456.592 6 456.771 6.06492 456.913 6.18338C457.054 6.30185 457.15 6.46629 457.182 6.64789L463.811 43.6379C463.831 43.7509 463.826 43.8669 463.796 43.9777C463.766 44.0885 463.712 44.1914 463.639 44.2794C463.565 44.3673 463.473 44.4381 463.369 44.4868C463.265 44.5356 463.151 44.561 463.036 44.5614H451.867" fill="#8DD27F"/>
<path d="M450.291 36.461L455.633 6.64789C455.665 6.46629 455.76 6.30185 455.902 6.18338C456.044 6.06492 456.223 6 456.407 6C456.592 6 456.771 6.06492 456.913 6.18338C457.054 6.30185 457.15 6.46629 457.182 6.64789L463.811 43.6379C463.831 43.7509 463.826 43.8669 463.796 43.9777C463.766 44.0885 463.712 44.1914 463.639 44.2794C463.565 44.3673 463.473 44.4381 463.369 44.4868C463.265 44.5356 463.151 44.561 463.036 44.5614H451.867" stroke="#263238" stroke-width="1.2" stroke-linecap="round" stroke-linejoin="round"/>
<path d="M456.407 24.6058V51.8182" stroke="#263238" stroke-width="1.2" stroke-linecap="round" stroke-linejoin="round"/>
<path d="M453.44 31.8726L456.315 34.74" stroke="#263238" stroke-width="1.2" stroke-linecap="round" stroke-linejoin="round"/>
<path d="M460.295 37.0571L456.407 40.9377" stroke="#263238" stroke-width="1.2" stroke-linecap="round" stroke-linejoin="round"/>
<path d="M458.35 27.5096L456.407 29.4511" stroke="#263238" stroke-width="1.2" stroke-linecap="round" stroke-linejoin="round"/>
<path d="M451.221 45.9163H440.439C440.346 45.9164 440.253 45.8959 440.169 45.8564C440.084 45.8169 440.009 45.7592 439.949 45.6875C439.889 45.6158 439.845 45.5319 439.821 45.4416C439.798 45.3512 439.794 45.2568 439.811 45.1649L445.201 15.0852C445.227 14.9376 445.305 14.8039 445.42 14.7076C445.535 14.6113 445.68 14.5585 445.83 14.5585C445.98 14.5585 446.126 14.6113 446.241 14.7076C446.356 14.8039 446.433 14.9376 446.459 15.0852L451.85 45.1649C451.866 45.2568 451.863 45.3512 451.839 45.4416C451.815 45.5319 451.771 45.6158 451.711 45.6875C451.651 45.7592 451.576 45.8169 451.492 45.8564C451.407 45.8959 451.314 45.9164 451.221 45.9163Z" fill="#8DD27F" stroke="#263238" stroke-width="1.2" stroke-linecap="round" stroke-linejoin="round"/>
<path d="M445.83 29.6885V51.818" stroke="#263238" stroke-width="1.2" stroke-linecap="round" stroke-linejoin="round"/>
<path d="M443.419 35.598L445.755 37.9297" stroke="#263238" stroke-width="1.2" stroke-linecap="round" stroke-linejoin="round"/>
<path d="M448.992 39.8134L445.83 42.9692" stroke="#263238" stroke-width="1.2" stroke-linecap="round" stroke-linejoin="round"/>
<path d="M447.411 32.0498L445.83 33.6277" stroke="#263238" stroke-width="1.2" stroke-linecap="round" stroke-linejoin="round"/>
<path d="M211.604 293.467L216.596 265.605C216.626 265.436 216.715 265.282 216.848 265.171C216.98 265.061 217.147 265 217.32 265C217.493 265 217.66 265.061 217.792 265.171C217.924 265.282 218.014 265.436 218.044 265.605L224.239 300.174C224.257 300.279 224.252 300.387 224.225 300.491C224.197 300.595 224.147 300.691 224.078 300.773C224.009 300.855 223.923 300.921 223.825 300.967C223.728 301.012 223.622 301.036 223.515 301.037H213.076" fill="#5CB56B"/>
<path d="M211.604 293.467L216.596 265.605C216.626 265.436 216.715 265.282 216.848 265.171C216.98 265.061 217.147 265 217.32 265C217.493 265 217.66 265.061 217.792 265.171C217.924 265.282 218.014 265.436 218.044 265.605L224.239 300.174C224.257 300.279 224.252 300.387 224.225 300.491C224.197 300.595 224.147 300.691 224.078 300.773C224.009 300.855 223.923 300.921 223.825 300.967C223.728 301.012 223.622 301.036 223.515 301.037H213.076" stroke="#263238" stroke-width="1.2" stroke-linecap="round" stroke-linejoin="round"/>
<path d="M217.32 282.388V307.818" stroke="#263238" stroke-width="1.2" stroke-linecap="round" stroke-linejoin="round"/>
<path d="M214.547 289.178L217.234 291.858" stroke="#263238" stroke-width="1.2" stroke-linecap="round" stroke-linejoin="round"/>
<path d="M220.953 294.024L217.32 297.65" stroke="#263238" stroke-width="1.2" stroke-linecap="round" stroke-linejoin="round"/>
<path d="M219.135 285.101L217.32 286.916" stroke="#263238" stroke-width="1.2" stroke-linecap="round" stroke-linejoin="round"/>
<path d="M212.473 302.303H202.398C202.31 302.303 202.224 302.284 202.145 302.247C202.065 302.21 201.995 302.156 201.939 302.089C201.883 302.022 201.842 301.943 201.82 301.859C201.798 301.775 201.794 301.686 201.81 301.6L206.848 273.49C206.872 273.352 206.944 273.227 207.052 273.137C207.159 273.047 207.295 272.998 207.435 272.998C207.576 272.998 207.711 273.047 207.819 273.137C207.926 273.227 207.999 273.352 208.023 273.49L213.061 301.6C213.076 301.686 213.073 301.775 213.05 301.859C213.028 301.943 212.988 302.022 212.931 302.089C212.875 302.156 212.805 302.21 212.726 302.247C212.647 302.284 212.56 302.303 212.473 302.303Z" fill="#5CB56B" stroke="#263238" stroke-width="1.2" stroke-linecap="round" stroke-linejoin="round"/>
<path d="M207.435 287.137V307.818" stroke="#263238" stroke-width="1.2" stroke-linecap="round" stroke-linejoin="round"/>
<path d="M205.182 292.66L207.365 294.839" stroke="#263238" stroke-width="1.2" stroke-linecap="round" stroke-linejoin="round"/>
<path d="M210.39 296.599L207.435 299.548" stroke="#263238" stroke-width="1.2" stroke-linecap="round" stroke-linejoin="round"/>
<path d="M208.913 289.344L207.435 290.819" stroke="#263238" stroke-width="1.2" stroke-linecap="round" stroke-linejoin="round"/>
<path d="M135.799 356.882V428.397L109.403 429.098L109.793 355.629L135.799 356.882Z" fill="#EC644E" stroke="#263238" stroke-width="1.2"/>
<path d="M117.434 363.308C117.887 363.308 118.038 363.681 118.024 364.077C118.023 364.104 118.023 364.13 118.024 364.157L118.091 366.993L118.175 370.788C118.196 371.723 118.207 372.71 117.74 373.524C117.273 374.338 116.156 374.877 115.342 374.397C114.527 373.917 114.46 372.906 114.436 372.027L114.281 366.199C114.26 365.43 114.257 364.598 114.699 363.967L114.738 363.912C114.822 363.774 115.387 363.032 117.315 363.305L117.434 363.308Z" fill="#525252"/>
<path d="M123.878 363.163C124.331 363.163 124.482 363.536 124.468 363.932C124.466 363.959 124.466 363.985 124.468 364.012L124.534 366.848L124.619 370.643C124.64 371.578 124.65 372.565 124.183 373.379C123.716 374.193 122.6 374.732 121.781 374.252C120.963 373.772 120.904 372.762 120.879 371.882L120.718 366.041C120.7 365.271 120.696 364.44 121.139 363.808L121.178 363.753C121.262 363.615 121.827 362.873 123.755 363.146L123.878 363.163Z" fill="#525252"/>
<path d="M130.265 363.212C130.714 363.212 130.869 363.584 130.851 363.981V364.06L130.914 366.896L131.002 370.692C131.023 371.627 131.03 372.613 130.567 373.428C130.103 374.242 128.983 374.78 128.165 374.301C127.347 373.821 127.284 372.81 127.263 371.93L127.105 366.093C127.083 365.323 127.083 364.492 127.526 363.86L127.561 363.805C127.649 363.667 128.214 362.925 130.142 363.198L130.265 363.212Z" fill="#525252"/>
<path d="M117.336 378.265C117.789 378.265 117.94 378.637 117.926 379.034C117.924 379.062 117.924 379.089 117.926 379.117L117.993 381.953L118.077 385.748C118.098 386.683 118.109 387.67 117.642 388.484C117.175 389.298 116.058 389.837 115.243 389.357C114.429 388.878 114.362 387.87 114.337 386.987L114.183 381.163C114.162 380.39 114.158 379.562 114.601 378.927L114.639 378.872C114.724 378.734 115.289 377.996 117.217 378.268C117.273 378.258 117.294 378.265 117.336 378.265Z" fill="#525252"/>
<path d="M123.779 378.116C124.232 378.116 124.383 378.489 124.369 378.886C124.368 378.913 124.368 378.941 124.369 378.969L124.436 381.805L124.52 385.6C124.541 386.535 124.552 387.522 124.085 388.336C123.618 389.15 122.501 389.688 121.683 389.209C120.865 388.729 120.805 387.722 120.781 386.839L120.623 381.015C120.605 380.242 120.602 379.414 121.044 378.779L121.079 378.724C121.167 378.586 121.732 377.847 123.66 378.12C123.695 378.116 123.737 378.116 123.779 378.116Z" fill="#525252"/>
<path d="M130.173 378.168C130.623 378.168 130.777 378.541 130.76 378.938V379.02L130.823 381.857L130.911 385.652C130.932 386.587 130.939 387.574 130.475 388.388C130.012 389.202 128.892 389.74 128.074 389.261C127.255 388.781 127.192 387.774 127.171 386.89L127.013 381.066C126.992 380.294 126.992 379.466 127.435 378.831L127.47 378.775C127.557 378.637 128.123 377.899 130.05 378.172C130.089 378.161 130.131 378.168 130.173 378.168Z" fill="#525252"/>
<path d="M117.238 394.677C117.691 394.677 117.842 395.05 117.828 395.447C117.826 395.474 117.826 395.502 117.828 395.53L117.895 398.366L117.979 402.161C118 403.096 118.01 404.083 117.543 404.897C117.076 405.711 115.96 406.249 115.142 405.77C114.324 405.29 114.264 404.283 114.239 403.4L114.085 397.576C114.064 396.803 114.06 395.971 114.503 395.34L114.541 395.285C114.626 395.147 115.191 394.408 117.119 394.677C117.158 394.681 117.198 394.681 117.238 394.677Z" fill="#525252"/>
<path d="M123.681 394.543C124.134 394.543 124.285 394.916 124.271 395.312C124.269 395.34 124.269 395.368 124.271 395.395L124.338 398.231L124.422 402.026C124.443 402.961 124.454 403.948 123.987 404.762C123.52 405.577 122.403 406.115 121.585 405.635C120.767 405.156 120.707 404.148 120.683 403.265L120.521 397.438C120.503 396.665 120.5 395.833 120.942 395.202L120.977 395.147C121.065 395.009 121.631 394.27 123.558 394.539C123.599 394.544 123.64 394.545 123.681 394.543Z" fill="#525252"/>
<path d="M130.075 394.591C130.525 394.591 130.679 394.964 130.662 395.361V395.443L130.725 398.28L130.813 402.075C130.834 403.01 130.841 403.997 130.377 404.811C129.914 405.625 128.794 406.163 127.975 405.684C127.157 405.204 127.094 404.197 127.073 403.313L126.915 397.489C126.894 396.717 126.894 395.885 127.336 395.254L127.372 395.198C127.459 395.06 128.025 394.322 129.952 394.591C129.993 394.595 130.034 394.595 130.075 394.591Z" fill="#525252"/>
<path d="M117.238 409.824C117.691 409.824 117.842 410.196 117.828 410.593C117.826 410.621 117.826 410.648 117.828 410.676L117.895 413.512L117.979 417.307C118 418.242 118.01 419.229 117.543 420.047C117.076 420.864 115.96 421.396 115.142 420.916C114.324 420.437 114.264 419.429 114.239 418.546L114.085 412.722C114.064 411.953 114.06 411.121 114.503 410.486L114.541 410.431C114.626 410.296 115.191 409.555 117.119 409.827C117.157 409.817 117.196 409.824 117.238 409.824Z" fill="#525252"/>
<path d="M123.681 409.679C124.134 409.679 124.285 410.052 124.271 410.448C124.269 410.476 124.269 410.504 124.271 410.531L124.338 413.367L124.422 417.163C124.443 418.098 124.454 419.084 123.987 419.902C123.52 420.72 122.403 421.251 121.585 420.771C120.767 420.292 120.707 419.284 120.682 418.401L120.524 412.577C120.507 411.808 120.503 410.976 120.946 410.341C120.946 410.324 120.97 410.307 120.981 410.286C121.069 410.152 121.634 409.41 123.562 409.682C123.593 409.672 123.639 409.679 123.681 409.679Z" fill="#525252"/>
<path d="M130.075 409.727C130.525 409.727 130.679 410.1 130.662 410.497V410.579L130.725 413.415L130.813 417.211C130.834 418.146 130.841 419.132 130.377 419.95C129.914 420.768 128.794 421.299 127.975 420.82C127.157 420.34 127.094 419.333 127.073 418.449L126.915 412.618C126.894 411.849 126.894 411.018 127.336 410.383C127.336 410.365 127.361 410.348 127.372 410.328C127.459 410.193 128.025 409.451 129.952 409.724C129.991 409.72 130.033 409.727 130.075 409.727Z" fill="#525252"/>
<path d="M140.444 432.575H90.1568C89.804 431.628 89.7109 430.607 89.8871 429.613C90.1991 427.966 91.3944 426.495 92.9229 426.126C93.7095 425.95 94.534 426.052 95.2516 426.414C95.9693 426.776 96.5342 427.375 96.8472 428.106C96.9238 426.587 97.2249 425.086 97.7411 423.652C98.2346 422.246 99.2206 421.058 100.523 420.3C100.999 420.019 101.564 419.921 102.11 420.025C102.646 420.218 103.114 420.559 103.458 421.007C104.224 421.852 104.903 422.769 105.484 423.746C105.763 422.022 106.253 420.338 106.944 418.731C107.695 417.172 108.895 415.779 110.456 415.228C111.578 414.874 112.781 414.845 113.92 415.145C115.74 415.511 117.363 416.516 118.484 417.972C119.706 419.661 120.071 421.875 120.356 423.985C120.547 421.864 122.361 420.295 124.238 419.557C124.687 419.353 125.178 419.254 125.672 419.266C126.095 419.335 126.499 419.486 126.862 419.71C127.226 419.934 127.54 420.226 127.787 420.57C129.134 422.206 129.824 424.269 129.728 426.37C129.856 425.56 130.245 424.812 130.838 424.235C131.431 423.659 132.197 423.285 133.023 423.169C133.834 423.113 134.647 423.244 135.398 423.552C136.148 423.859 136.814 424.335 137.344 424.941C138.463 426.21 139.275 427.711 139.719 429.332C140.054 430.391 140.296 431.476 140.444 432.575Z" fill="#B6DB6B" stroke="#263238" stroke-miterlimit="10" stroke-linejoin="round"/>
<path d="M135.591 432.163H95.4428C95.4452 432.144 95.4452 432.125 95.4428 432.106C95.4019 431.811 95.4421 431.511 95.5593 431.237C95.6765 430.963 95.8664 430.724 96.1092 430.547C96.4072 430.381 96.7455 430.299 97.0877 430.308C97.5733 430.309 98.0536 430.408 98.4986 430.599C98.9435 430.791 99.3436 431.07 99.6739 431.42C99.9648 430.713 100.261 430.006 100.552 429.305C101.023 428.167 101.567 426.945 102.667 426.337C103.252 426.057 103.9 425.93 104.549 425.97C105.198 426.01 105.826 426.216 106.37 426.566C107.443 427.268 108.355 428.183 109.046 429.253C109.262 428.086 109.605 426.945 110.067 425.849C110.284 425.252 110.647 424.716 111.124 424.29C111.965 423.645 113.166 423.702 114.192 423.999C115.309 424.333 116.336 424.907 117.199 425.679C118.063 426.451 118.741 427.402 119.185 428.463C119.591 427.427 120.237 426.498 121.073 425.75C121.498 425.38 122.014 425.124 122.57 425.007C123.126 424.89 123.704 424.917 124.246 425.085C125.706 425.605 126.319 427.288 126.758 428.759C127.941 428.123 129.301 427.882 130.635 428.07C131.969 428.258 133.205 428.867 134.158 429.804C134.791 430.488 135.279 431.29 135.591 432.163Z" fill="#92C25A"/>
<path d="M164.302 412.071V439.107H135.501V412.071H164.302Z" fill="white" stroke="#263238"/>
<path d="M162.492 401.279L168.978 413.816H132.599L138.964 400.708L162.492 401.279Z" fill="#FF6B43" stroke="#263238"/>
<path d="M149.051 431.379C149.694 431.379 150.31 431.63 150.762 432.073C151.213 432.516 151.466 433.115 151.466 433.737V439.207H146.636V433.737L146.647 433.505C146.702 432.968 146.944 432.461 147.34 432.073C147.792 431.63 148.407 431.379 149.051 431.379Z" fill="#2E292B" stroke="#263238"/>
<rect x="138.8" y="417.107" width="4" height="4.91304" rx="1" fill="#8CBBE5"/>
<rect x="138.8" y="423.985" width="4" height="4.91304" rx="1" fill="#8CBBE5"/>
<rect x="144.8" y="417.107" width="4" height="4.91304" rx="1" fill="#8CBBE5"/>
<rect x="144.8" y="423.985" width="4" height="4.91304" rx="1" fill="#8CBBE5"/>
<path d="M150.8 418.107C150.8 417.555 151.248 417.107 151.8 417.107H153.8C154.353 417.107 154.8 417.555 154.8 418.107V421.02C154.8 421.573 154.353 422.02 153.8 422.02H151.8C151.248 422.02 150.8 421.573 150.8 421.02V418.107Z" fill="#8CBBE5"/>
<path d="M156.8 418.107C156.8 417.555 157.248 417.107 157.8 417.107H159.8C160.353 417.107 160.8 417.555 160.8 418.107V421.02C160.8 421.573 160.353 422.02 159.8 422.02H157.8C157.248 422.02 156.8 421.573 156.8 421.02V418.107Z" fill="#8CBBE5"/>
<path d="M150.8 424.985C150.8 424.433 151.248 423.985 151.8 423.985H153.8C154.353 423.985 154.8 424.433 154.8 424.985V427.898C154.8 428.451 154.353 428.898 153.8 428.898H151.8C151.248 428.898 150.8 428.451 150.8 427.898V424.985Z" fill="#8CBBE5"/>
<path d="M156.8 424.985C156.8 424.433 157.248 423.985 157.8 423.985H159.8C160.353 423.985 160.8 424.433 160.8 424.985V427.898C160.8 428.451 160.353 428.898 159.8 428.898H157.8C157.248 428.898 156.8 428.451 156.8 427.898V424.985Z" fill="#8CBBE5"/>
<path d="M252.989 221.082V260.916H224.288V221.073L238.221 207.738L252.989 221.082Z" fill="white" stroke="#263238"/>
<path d="M233.653 233.16H229.735V239.404H233.653V233.16Z" fill="#8CBBE5"/>
<path d="M233.685 224.822H229.766V231.066H233.685V224.822Z" fill="#8CBBE5"/>
<path d="M240.151 233.261H236.232V239.505H240.151V233.261Z" fill="#8CBBE5"/>
<path d="M240.182 224.822H236.263V231.066H240.182V224.822Z" fill="#8CBBE5"/>
<path d="M246.716 232.834H242.797V239.078H246.716V232.834Z" fill="#8CBBE5"/>
<path d="M246.747 224.822H242.828V231.066H246.747V224.822Z" fill="#8CBBE5"/>
<path d="M233.241 242.224H229.322V248.468H233.241V242.224Z" fill="#8CBBE5"/>
<path d="M239.738 242.325H235.819V248.569H239.738V242.325Z" fill="#8CBBE5"/>
<path d="M246.303 241.901H242.384V248.145H246.303V241.901Z" fill="#8CBBE5"/>
<path d="M233.503 251.025H229.585V257.269H233.503V251.025Z" fill="#8CBBE5"/>
<path d="M239.998 251.126H236.079V257.37H239.998V251.126Z" fill="#8CBBE5"/>
<path d="M246.563 250.702H242.644V256.946H246.563V250.702Z" fill="#8CBBE5"/>
<path d="M260.084 225.554L258.664 227.045L238.536 208.741L238.204 208.438L237.868 208.737L217.917 226.45L216.515 224.944L238.219 205.672L260.084 225.554Z" fill="#FF6B43" stroke="#263238"/>
<path d="M237.912 221.01C239.841 221.01 241.404 219.474 241.404 217.579C241.404 215.684 239.841 214.148 237.912 214.148C235.984 214.148 234.421 215.684 234.421 217.579C234.421 219.474 235.984 221.01 237.912 221.01Z" fill="#8CBBE5"/>
<path d="M283.444 265.871H233.157C232.804 264.924 232.711 263.902 232.887 262.909C233.199 261.261 234.394 259.79 235.923 259.421C236.71 259.246 237.534 259.348 238.252 259.71C238.969 260.072 239.534 260.671 239.847 261.402C239.924 259.882 240.225 258.382 240.741 256.948C241.235 255.542 242.221 254.354 243.523 253.596C243.999 253.314 244.564 253.216 245.11 253.32C245.646 253.514 246.114 253.855 246.458 254.303C247.224 255.147 247.903 256.065 248.484 257.041C248.763 255.318 249.253 253.634 249.944 252.026C250.695 250.467 251.895 249.074 253.456 248.524C254.578 248.169 255.781 248.14 256.92 248.44C258.74 248.806 260.363 249.811 261.484 251.268C262.706 252.957 263.071 255.17 263.356 257.28C263.547 255.16 265.361 253.591 267.238 252.853C267.687 252.649 268.178 252.55 268.672 252.562C269.095 252.631 269.499 252.782 269.862 253.006C270.226 253.229 270.54 253.522 270.787 253.866C272.134 255.501 272.824 257.564 272.728 259.666C272.856 258.856 273.245 258.107 273.838 257.531C274.431 256.954 275.197 256.581 276.023 256.464C276.834 256.408 277.647 256.539 278.398 256.847C279.148 257.155 279.814 257.631 280.344 258.237C281.463 259.505 282.275 261.007 282.719 262.628C283.054 263.687 283.296 264.772 283.444 265.871Z" fill="#B6DB6B" stroke="#263238" stroke-miterlimit="10" stroke-linejoin="round"/>
<path d="M278.591 265.459H238.443C238.445 265.44 238.445 265.421 238.443 265.402C238.402 265.107 238.442 264.807 238.559 264.533C238.676 264.258 238.866 264.02 239.109 263.842C239.407 263.677 239.745 263.594 240.088 263.603C240.573 263.604 241.054 263.704 241.499 263.895C241.944 264.086 242.344 264.366 242.674 264.716C242.965 264.009 243.261 263.302 243.552 262.6C244.023 261.462 244.567 260.241 245.667 259.633C246.252 259.352 246.9 259.226 247.549 259.266C248.198 259.306 248.826 259.511 249.37 259.862C250.443 260.564 251.355 261.479 252.046 262.548C252.262 261.381 252.605 260.24 253.067 259.144C253.284 258.547 253.647 258.012 254.124 257.585C254.965 256.941 256.166 256.998 257.192 257.294C258.309 257.629 259.336 258.202 260.199 258.975C261.063 259.747 261.741 260.697 262.185 261.758C262.591 260.722 263.237 259.794 264.073 259.046C264.498 258.675 265.014 258.419 265.57 258.303C266.126 258.186 266.704 258.213 267.246 258.38C268.706 258.9 269.319 260.584 269.758 262.055C270.941 261.419 272.301 261.177 273.635 261.366C274.969 261.554 276.205 262.162 277.158 263.099C277.791 263.783 278.279 264.586 278.591 265.459Z" fill="#92C25A"/>
<path d="M290.737 612.738H245.012C244.577 611.324 244.804 609.547 245.769 608.647C246.814 607.654 248.638 608.252 248.941 609.859C249.997 607.364 249.633 603.931 251.299 602.049C251.805 601.472 252.512 601.1 253.282 601.008C254.051 600.915 254.829 601.107 255.462 601.547C256.779 602.402 257.68 604.072 258.111 605.865C258.111 604.645 258.713 603.455 259.599 602.971C260.043 602.75 260.552 602.688 261.038 602.798C261.523 602.907 261.954 603.181 262.256 603.57C262.755 601.811 263.281 600.019 264.22 598.572C266.184 595.533 269.969 594.663 272.653 596.616C275.336 598.568 276.642 603.117 275.548 606.783C276.472 605.902 277.44 605.021 278.504 604.496C279.568 603.972 280.835 603.827 281.91 604.422C282.491 604.795 282.955 605.32 283.25 605.937C283.546 606.554 283.661 607.24 283.583 607.918C284.881 605.686 287.747 605.314 289.389 607.144C290.6 608.513 290.964 610.636 290.737 612.738Z" fill="#87C880" stroke="#263238" stroke-width="1.2" stroke-miterlimit="10" stroke-linejoin="round"/>
<path d="M286.619 612.01H249.679C249.749 611.672 249.945 611.368 250.23 611.156C250.583 610.926 251.018 610.837 251.439 610.91C251.86 610.983 252.235 611.211 252.481 611.544C252.983 610.551 253.484 609.559 253.983 608.569C254.244 608.048 254.557 607.482 255.124 607.277C255.691 607.072 256.307 607.296 256.825 607.588C258.001 608.219 258.966 609.155 259.607 610.287L261.279 607.833C261.467 607.5 261.738 607.215 262.067 607.004C262.319 606.892 262.596 606.842 262.872 606.86C263.149 606.877 263.417 606.961 263.651 607.103C264.115 607.393 264.52 607.76 264.847 608.187C265.531 606.826 266.425 605.57 267.499 604.461C267.723 604.185 268.02 603.97 268.359 603.839C268.717 603.759 269.093 603.781 269.438 603.905C270.664 604.282 271.73 605.024 272.479 606.023C273.228 607.022 273.621 608.224 273.598 609.451C274.276 608.859 275.046 608.369 275.879 607.998C276.609 607.687 277.508 607.451 278.193 607.849C278.994 608.311 279.121 609.352 279.17 610.246C280.512 609.877 281.899 609.681 283.295 609.662C283.956 609.608 284.619 609.74 285.201 610.041C285.588 610.31 285.905 610.661 286.127 611.066C286.311 611.371 286.475 611.686 286.619 612.01Z" fill="#7ABC71"/>
<path d="M441.289 41.1438V63.9221H417.015V41.1438H441.289Z" fill="white" stroke="#263238"/>
<path d="M439.784 31.9902L445.208 42.4717H414.599L419.923 31.5078L439.784 31.9902Z" fill="#FF6B43" stroke="#263238"/>
<path d="M428.431 57.5199C428.957 57.52 429.46 57.7255 429.829 58.0873C430.197 58.4488 430.403 58.9368 430.403 59.4437V64.0072H426.458V59.4437C426.458 58.9369 426.664 58.4488 427.033 58.0873C427.402 57.7254 427.905 57.5199 428.431 57.5199Z" fill="#2E292B" stroke="#263238"/>
<rect x="419.737" y="45.3395" width="3.39252" height="4.16689" rx="1" fill="#525252"/>
<rect x="419.737" y="51.1731" width="3.39252" height="4.16689" rx="1" fill="#525252"/>
<rect x="424.826" y="45.3395" width="3.39252" height="4.16689" rx="1" fill="#525252"/>
<rect x="424.826" y="51.1731" width="3.39252" height="4.16689" rx="1" fill="#525252"/>
<path d="M429.915 46.3395C429.915 45.7872 430.363 45.3395 430.915 45.3395H432.307C432.86 45.3395 433.307 45.7872 433.307 46.3395V48.5064C433.307 49.0587 432.86 49.5064 432.307 49.5064H430.915C430.363 49.5064 429.915 49.0587 429.915 48.5064V46.3395Z" fill="#525252"/>
<path d="M435.004 46.3395C435.004 45.7872 435.451 45.3395 436.004 45.3395H437.396C437.948 45.3395 438.396 45.7872 438.396 46.3395V48.5064C438.396 49.0587 437.948 49.5064 437.396 49.5064H436.004C435.451 49.5064 435.004 49.0587 435.004 48.5064V46.3395Z" fill="#525252"/>
<path d="M429.915 52.1731C429.915 51.6208 430.363 51.1731 430.915 51.1731H432.307C432.86 51.1731 433.307 51.6208 433.307 52.1731V54.34C433.307 54.8923 432.86 55.34 432.307 55.34H430.915C430.363 55.34 429.915 54.8923 429.915 54.34V52.1731Z" fill="#525252"/>
<path d="M435.004 52.1731C435.004 51.6208 435.451 51.1731 436.004 51.1731H437.396C437.948 51.1731 438.396 51.6208 438.396 52.1731V54.34C438.396 54.8923 437.948 55.34 437.396 55.34H436.004C435.451 55.34 435.004 54.8923 435.004 54.34V52.1731Z" fill="#525252"/>
</svg>
