<svg width="641" height="649" viewBox="0 0 641 649" fill="none" xmlns="http://www.w3.org/2000/svg">
<path d="M310.445 308.397C310.231 309.591 309.74 310.737 309.002 311.768C308.263 312.799 307.292 313.695 306.144 314.405C305.706 314.668 305.252 314.913 304.785 315.137C304.13 315.411 303.533 315.778 303.021 316.221C301.714 317.584 303.288 320.273 304.019 321.35C310.239 330.595 323.513 339.665 337.94 337.592C340.439 337.181 342.904 336.635 345.321 335.958C350.827 334.493 356.505 333.027 362.286 334.624L364.239 335.159L363.705 336.844C362.423 340.903 363.757 345.584 367.258 349.357C370.76 353.13 375.818 355.291 380.747 355.167C389.066 354.947 395.604 349.987 402.521 344.727C405.282 342.632 408.139 340.463 411.124 338.617C422.669 331.467 437.156 328.844 449.939 326.529C457.381 325.181 465.063 323.782 472.952 324.17C482.062 324.617 489.77 327.518 494.665 332.346C495.852 333.565 496.949 334.844 497.952 336.178C499.225 337.998 500.801 339.651 502.631 341.086C505.505 343.101 509.316 343.863 513.342 344.669C516.731 345.343 520.224 346.046 523.407 347.555C526.59 349.064 529.128 351.218 531.571 353.35L532.612 354.251C551.16 370.068 576.4 379.79 602.467 382.039C599.404 371.05 600.961 358.742 609.349 350.09C613.117 346.214 618.029 343.269 622.004 339.548C639.51 323.188 631.122 292.602 606.923 284.529C599.309 281.994 590.345 281.195 584.805 276.067C578.594 270.316 579.188 261.496 576.34 254.089C573.295 246.14 565.303 239.327 555.59 238.147C545.878 236.968 535.184 242.506 533.412 250.734C532.655 254.228 533.412 257.964 531.933 261.29C527.881 270.389 512.49 269.217 501.573 266.353C485.736 262.199 467.85 256.455 462.224 243.18C461.887 242.376 461.6 241.557 461.364 240.726C459.11 241.215 456.856 241.703 454.602 242.191C439.977 245.246 426.093 248.133 416.475 256.624C415.047 257.884 413.67 259.32 412.328 260.704C408.569 264.602 404.68 268.624 398.779 270.228C394.649 271.371 390.305 271.1 386.098 270.844C381.117 270.536 376.42 270.243 372.919 272.397C371.129 273.503 369.633 274.28 368.316 274.968C364.6 276.91 363.215 277.635 361.804 282.236C361.598 282.902 361.236 285.584 360.884 288.17C359.739 296.675 359.103 300.448 358.096 301.796C356.229 304.302 353.976 305.679 351.395 305.892C351.165 305.903 350.936 305.903 350.706 305.892C346.551 305.892 342.68 302.895 339.738 300.229C337.513 298.122 334.85 296.383 331.884 295.1C326.567 292.902 318.756 292.902 314.73 297.166C314.191 297.767 313.689 298.39 313.224 299.034C312.276 300.459 311.041 301.731 309.577 302.793C310.537 304.54 310.841 306.497 310.445 308.397Z" fill="#89DFF9"/>
<path d="M113.618 525.923C117.283 519.373 122.22 513.38 126.952 507.607C131.107 502.552 135.391 497.351 138.746 491.82C140.321 489.241 141.766 486.494 143.16 483.834C146.721 477.028 150.403 469.995 156.829 464.611C161.509 460.691 167.247 458.017 172.788 455.394C176.343 453.804 179.79 452.043 183.111 450.12C190.724 445.504 197.366 437.211 193.968 429.885C192.54 426.815 189.597 424.42 186.483 421.878L184.943 420.61C174.949 412.256 167.387 402.028 162.86 390.742C162.628 390.178 162.404 389.599 162.172 389.013C159.892 383.152 157.526 377.137 151.676 374.991C146.153 372.961 139.71 375.269 133.482 377.489C132.398 377.877 131.322 378.266 130.264 378.617C120.819 381.8 110.638 383.082 100.516 382.361C91.9129 381.738 83.5424 379.672 75.4816 377.672L9.42953 361.291C10.6597 371.152 10.935 380.925 8.72411 390.339C4.85286 406.801 -6.1931 425.27 5.47226 438.83C8.83594 442.735 13.6793 445.482 18.0151 448.61C45.8623 468.713 51.4885 504.127 44.4256 534.641C37.3627 565.154 20.054 593.169 9.08542 622.832C7.1498 628.202 5.42924 634.187 8.48323 639.125C10.4016 642.209 13.9288 644.356 17.6538 645.792C38.894 653.968 62.3882 641.484 85.5125 637.594C89.6848 609.66 96.6961 581.974 103.441 555.022C105.901 545.271 108.439 535.197 113.618 525.923Z" fill="#E8F3F7"/>
<path d="M100.06 205.055C100.671 205.787 101.238 206.586 101.78 207.348C103.363 209.545 104.86 211.611 107.157 212.417C110.349 213.538 114.039 211.97 117.885 210.307C118.883 209.882 119.906 209.443 120.93 209.055C135.753 203.377 152.674 208.776 164.116 213.333C200.291 227.729 231.218 249.795 261.104 271.128L300.212 299.033C301.225 299.793 302.491 300.265 303.834 300.381C306.415 300.565 307.438 299.326 309.219 296.945C309.762 296.186 310.354 295.452 310.991 294.748C316.402 288.975 326.562 288.887 333.358 291.671C336.792 293.132 339.88 295.118 342.469 297.532C345.987 300.718 348.637 302.184 350.59 302.03C351.794 301.935 352.93 301.143 354.031 299.627C354.702 298.491 355.665 291.37 356.182 287.539C356.655 284.015 356.939 281.971 357.205 281.092C359.055 275.07 361.67 273.7 365.636 271.634C366.883 270.975 368.303 270.235 369.937 269.216C374.712 266.286 380.424 266.63 385.947 266.974C389.913 267.224 393.69 267.451 396.985 266.535C401.69 265.231 405.02 261.78 408.547 258.132C409.94 256.667 411.377 255.201 412.917 253.839C423.524 244.637 438.596 241.487 453.204 238.454C455.561 237.963 457.892 237.48 460.189 236.989C459.148 230.351 459.974 223.362 457.798 216.886C451.13 197.106 421.847 191.589 397.785 189.582L381.792 188.241C377.99 187.926 374.093 187.582 370.669 186.139C361.421 182.226 359.021 172.219 353.695 164.673C349.19 158.451 342.357 153.7 334.296 151.186C329.833 149.824 325.996 147.287 323.341 143.942C320.687 140.597 319.353 136.619 319.534 132.585C320.196 120.306 322.923 107.933 322.287 95.6176C319.895 49.859 238.84 32.8918 207.87 68.958C203.517 74.035 200.686 80.101 195.387 84.482C184.642 93.3905 167.549 92.7458 153.586 97.4052C134.66 103.713 122.702 119.281 111.957 133.94C105.557 142.666 99.0963 151.523 95.4229 161.318C91.0699 172.952 90.7344 185.611 89.4009 197.904C93.6695 199.391 97.3624 201.869 100.06 205.055Z" fill="#7DDCFA"/>
<path d="M261.5 455.05L261.758 455.101C264.657 455.673 267.642 456.259 270.154 455.585C271.783 455.029 273.294 454.249 274.627 453.277C275.488 452.742 276.348 452.193 277.208 451.695C285.312 447.299 294.801 448.764 303.971 450.105C311.757 451.262 319.104 452.361 325.676 450.259C332.644 448.061 338.288 441.848 340.404 434.141C342.4 426.866 341.505 419.181 340.645 411.76C340.624 410.533 340.277 409.326 339.63 408.229C338.766 407.337 337.678 406.621 336.447 406.134C326.394 401.28 315.953 397.032 305.202 393.423L301.709 392.265C288.203 387.804 274.249 383.196 266.859 372.566C265.356 370.272 264.054 367.887 262.962 365.43C261.837 362.826 260.42 360.322 258.729 357.95C253.671 351.357 245.103 348.038 236.027 344.507C230.805 342.463 225.402 340.36 220.628 337.562C215.148 334.345 210.537 330.236 206.072 326.236C201.228 321.898 196.652 317.811 191.034 314.748C188.33 313.339 185.536 312.06 182.664 310.917C178.645 309.372 174.815 307.492 171.231 305.305C167.773 302.912 164.603 300.232 161.768 297.305C160.598 296.169 159.393 294.997 158.18 293.898C148.605 285.246 136.243 278.931 124.294 272.828C116.68 268.938 108.809 264.916 101.591 260.279C96.4295 256.982 91.5603 253.312 86.8202 249.751C81.8048 245.986 76.6861 242.154 71.2578 238.762C53.8027 254 26.1706 261.261 12.1309 279.297C-5.26393 301.664 4.78411 329.693 8.87043 357.342L76.6345 374.192C84.4888 376.141 92.6184 378.155 100.825 378.749C110.283 379.42 119.795 378.224 128.621 375.254C129.653 374.903 130.703 374.522 131.761 374.148C138.497 371.745 146.128 369.02 153.328 371.664C160.942 374.463 163.738 381.599 166.232 387.892C166.456 388.471 166.68 389.035 166.903 389.599C171.227 400.309 178.423 410.014 187.92 417.943L189.434 419.189C192.746 421.885 196.17 424.676 197.942 428.493C202.192 437.65 194.501 447.643 185.58 453.057C183.954 454.039 182.268 454.947 180.565 455.812C207.098 450.148 234.825 449.887 261.5 455.05Z" fill="#D0EEF7"/>
<path d="M369.034 443.036C370.29 442.215 370.875 440.523 371.314 439.006C371.546 438.222 371.761 437.431 371.985 436.64C373.396 431.57 374.858 426.332 378.755 422.061C380.779 419.988 383.067 418.113 385.577 416.471C388.33 414.537 390.928 412.706 392.649 410.339C395.849 405.944 395.892 399.563 392.778 392.757C391.33 389.771 389.685 386.858 387.848 384.031C385.915 381.041 384.192 377.957 382.687 374.793C380.369 369.649 379.185 364.186 379.194 358.676C376.219 358.45 373.327 357.722 370.685 356.537C368.043 355.352 365.703 353.731 363.802 351.77C361.901 349.809 360.475 347.546 359.609 345.112C358.742 342.678 358.452 340.122 358.754 337.592C354.805 337.079 350.616 338.17 346.22 339.313C343.623 340.04 340.973 340.622 338.288 341.057C321.831 343.372 306.862 333.335 299.928 323.02C297.407 319.269 297.192 315.972 299.326 313.738C300.159 312.939 301.159 312.281 302.277 311.796C302.664 311.613 303.025 311.43 303.343 311.247C304.025 310.819 304.601 310.28 305.037 309.661C305.472 309.043 305.759 308.356 305.881 307.643C306.148 306.406 305.918 305.128 305.227 304.016C304.655 304.062 304.079 304.062 303.507 304.016C301.281 303.832 299.177 303.064 297.485 301.818L258.351 273.943C228.663 252.756 197.968 230.843 162.301 216.653C151.633 212.404 135.908 207.341 122.728 212.396C121.799 212.748 120.861 213.129 119.863 213.583C115.51 215.444 110.572 217.561 105.566 215.781C101.97 214.521 99.948 211.715 98.1586 209.239C97.6252 208.506 97.1177 207.774 96.5757 207.129C94.6343 204.81 92.048 202.937 89.0483 201.678C87.732 211.986 85.3577 221.92 78.897 230.638C77.499 232.51 75.9466 234.295 74.2515 235.979C79.6712 239.407 84.7555 243.217 89.7365 246.968C94.4164 250.477 99.2512 254.111 104.249 257.32C111.278 261.84 119.055 265.811 126.574 269.657C138.781 275.884 151.393 282.331 161.38 291.349C162.645 292.5 163.875 293.694 165.071 294.851C167.713 297.596 170.666 300.111 173.889 302.36C177.253 304.397 180.843 306.149 184.608 307.591C187.626 308.794 190.561 310.142 193.4 311.628C199.422 314.925 204.429 319.372 209.238 323.672C213.539 327.525 218.004 331.511 223.123 334.507C227.579 337.123 232.809 339.167 237.868 341.137C247.098 344.734 256.648 348.463 262.377 355.907C264.211 358.478 265.744 361.197 266.954 364.024C267.966 366.315 269.177 368.538 270.575 370.676C277.2 380.2 290.456 384.596 303.266 388.823L306.785 389.988C317.724 393.657 328.346 397.978 338.572 402.918C340.408 403.678 342.006 404.798 343.234 406.186C344.534 407.856 344.757 409.805 344.955 411.372C345.815 418.735 346.77 427.08 344.62 434.948C344.094 436.864 343.363 438.735 342.434 440.538C349.136 441.776 355.941 442.809 362.703 443.585C364.974 443.842 367.52 444.039 369.034 443.036Z" fill="#95E1F9"/>
<path d="M622.773 414.434C614.884 405.57 607.288 396.229 603.305 385.679C575.673 383.614 548.807 373.445 529.166 356.698L528.108 355.789C525.777 353.774 523.575 351.877 520.916 350.61C518.258 349.342 515.204 348.741 511.961 348.097C507.659 347.232 503.152 346.331 499.504 343.774C497.337 342.119 495.473 340.198 493.972 338.075C493.068 336.864 492.077 335.702 491.004 334.595C486.944 330.587 480.122 328.075 472.302 327.686C464.998 327.327 457.591 328.675 450.442 329.972C438.072 332.206 424.058 334.749 413.253 341.437C410.439 343.181 407.669 345.284 404.985 347.298C398.533 352.199 391.883 357.232 383.478 358.412C383.426 363.554 384.508 368.658 386.67 373.46C388.136 376.485 389.802 379.437 391.66 382.302C393.584 385.251 395.308 388.291 396.821 391.408C398.946 396.039 401.708 404.91 396.34 412.251C394.24 415.123 391.247 417.233 388.356 419.277C386.087 420.749 384.016 422.429 382.179 424.288C378.859 427.951 377.508 432.771 376.2 437.475C375.977 438.281 375.753 439.087 375.521 439.878C374.91 441.995 374.05 444.383 371.701 445.929C369.932 446.999 367.795 447.535 365.628 447.453C364.475 447.436 363.326 447.353 362.187 447.204C360.801 447.05 359.425 446.867 358.04 446.691C357.524 449.541 355.614 452.134 353.876 454.486C351.605 457.563 349.644 460.215 350.685 462.823C351.657 465.255 355.046 466.64 358.332 467.951L359.752 468.53C369.482 472.633 377.13 479.673 383.84 485.886C388.373 490.069 393.07 494.384 396.589 499.468C397.079 500.201 397.553 500.933 398.017 501.666C399.462 503.864 400.822 506.003 402.792 507.585C406.714 510.75 412.745 511.556 418.681 511.981C427.224 512.562 435.804 512.645 444.36 512.23C448.988 512.01 455.32 511.703 459.398 515.241C460.263 516.036 461.024 516.908 461.669 517.842C462.229 518.7 462.943 519.479 463.785 520.15C465.618 521.402 468.414 521.27 471.373 521.139C472.491 521.08 473.653 521.029 474.814 521.051C484.019 521.219 491.254 526.252 498.257 531.124L498.919 531.586C501.949 531.671 504.928 532.277 507.677 533.366L508.012 533.498C519.832 537.974 533.545 532.765 544.041 526.318C554.536 519.871 564.55 511.856 577.282 509.959C585.798 508.692 595.21 510.23 602.668 506.501C608.045 503.812 611.271 498.897 614.205 494.208C620.141 484.782 626.079 475.353 632.021 465.922C635.738 460.01 639.54 453.871 640.125 447.182C641.175 434.947 631.462 424.2 622.773 414.434Z" fill="#A1E4F9"/>
<path d="M247.167 561.388C245.911 557.725 244.586 553.857 244.93 550.692C245.481 544.912 246.771 543.366 249.404 540.67C250.791 539.292 252.067 537.835 253.223 536.311C253.774 535.578 254.35 534.846 254.944 534.113C257.275 531.183 259.478 528.435 260.045 525.322C260.274 523.523 260.245 521.708 259.959 519.915C259.781 518.519 259.695 517.115 259.701 515.71C259.787 512.047 261.671 507.344 266.67 506.025C267.59 505.802 268.536 505.662 269.491 505.607C270.259 505.578 271.017 505.457 271.745 505.248C273.371 504.67 274.051 503.095 274.98 500.567C275.728 498.523 276.58 496.171 278.584 494.523C281.062 492.45 284.46 492.003 287.454 491.593L288.245 491.49C296.234 490.392 303.804 487.701 310.337 483.636C311.757 482.75 313.245 481.68 313.512 480.428C313.566 479.337 313.322 478.251 312.798 477.255L312.737 477.102C309.83 469.788 308.377 462.112 308.436 454.391C306.716 454.171 304.995 453.922 303.274 453.658C294.517 452.354 286.25 451.123 279.548 454.735C278.782 455.145 278.034 455.629 277.242 456.142C275.528 457.377 273.575 458.348 271.47 459.014C267.84 459.995 264.106 459.263 260.811 458.611L260.553 458.559C229.008 452.461 196.074 454.167 165.63 463.475L165.527 463.233C163.507 464.386 161.613 465.691 159.866 467.131C154.016 472.032 150.661 478.442 147.1 485.234C145.68 487.944 144.218 490.743 142.583 493.417C139.142 499.131 134.729 504.465 130.539 509.615C125.885 515.292 121.076 521.168 117.566 527.439C112.594 536.326 110.108 546.187 107.708 555.725C101.023 582.253 94.1754 609.484 90.0117 636.905C95.9341 636.12 101.978 636.304 107.819 637.447C116.13 639.191 123.545 643.308 131.813 645.162C147.298 648.693 163.531 644.143 178.637 639.631C198.897 633.587 220.318 626.81 233.317 612.275C240.13 604.663 244.001 595.579 248.311 586.685C248.885 581.552 249.212 575.935 249.292 569.835C249.266 567.571 248.199 564.465 247.167 561.388Z" fill="#DCF0F7"/>
<path d="M474.685 524.699C473.713 524.699 472.68 524.699 471.588 524.779C468.147 524.94 464.189 525.116 461.075 522.992C459.854 522.072 458.822 520.985 458.021 519.776C457.526 519.062 456.95 518.392 456.301 517.776C453.789 515.578 449.513 515.622 444.584 515.856C435.83 516.282 427.052 516.199 418.311 515.607C411.592 515.145 404.701 514.186 399.806 510.237C397.346 508.259 395.763 505.841 394.223 503.424C393.776 502.691 393.363 502.032 392.855 501.35C389.569 496.603 385.035 492.435 380.656 488.398C373.843 482.12 366.806 475.636 357.782 471.841L356.414 471.27C352.517 469.687 348.104 467.885 346.555 463.995C344.834 459.731 347.682 455.936 350.177 452.53C351.811 450.332 353.377 448.192 353.738 446.097C349.265 445.457 344.817 444.725 340.395 443.899C337.421 448.333 332.773 451.78 327.207 453.68C322.536 455.145 317.633 455.299 312.703 454.896C312.737 462.057 314.137 469.165 316.85 475.944L316.91 476.098C317.703 477.671 317.999 479.393 317.77 481.094C317.237 483.629 314.888 485.372 312.91 486.61C305.822 491.017 297.613 493.937 288.951 495.131L288.091 495.241C285.51 495.578 283.075 495.9 281.578 497.145C280.348 498.178 279.729 499.871 279.066 501.666C278.086 504.332 276.976 507.358 273.388 508.64C272.27 508.994 271.096 509.202 269.904 509.255C269.237 509.295 268.574 509.386 267.926 509.526C265.293 510.259 264.046 513.189 263.986 515.798C263.983 517.063 264.063 518.327 264.226 519.585C264.554 521.675 264.571 523.792 264.278 525.886C263.555 529.834 260.975 533.065 258.48 536.193C257.921 536.926 257.361 537.593 256.828 538.296C255.575 539.946 254.195 541.525 252.699 543.021C250.496 545.27 249.679 546.113 249.206 550.992C248.965 553.49 250.144 556.992 251.288 560.377C252.432 563.761 253.559 567.08 253.516 569.901C253.476 572.401 253.398 574.819 253.284 577.153C253.37 577 253.456 576.846 253.55 576.692C260.656 564.919 273.561 553.769 289.071 554.545C299.644 555.08 308.6 560.985 317.331 566.084C357.872 589.577 406.969 599.895 455.69 595.161C460.06 594.721 464.731 594.033 467.837 591.373C470.943 588.714 471.665 585.007 472.293 581.432C474.142 570.903 475.348 560.301 475.906 549.666C476.101 545.568 477.858 541.635 480.911 538.463C483.964 535.29 488.148 533.051 492.828 532.083C487.185 528.281 481.352 524.816 474.685 524.699Z" fill="#C4EBF8"/>
<path d="M297.258 82.4034H284.742C284.633 82.4035 284.526 82.3797 284.428 82.3338C284.329 82.2879 284.242 82.221 284.172 82.1378C284.103 82.0546 284.052 81.9571 284.025 81.8523C283.997 81.7474 283.993 81.6378 284.012 81.5311L290.27 46.6115C290.3 46.4401 290.39 46.2849 290.523 46.1731C290.657 46.0613 290.826 46 291 46C291.174 46 291.343 46.0613 291.477 46.1731C291.61 46.2849 291.7 46.4401 291.73 46.6115L297.988 81.5311C298.007 81.6378 298.003 81.7474 297.975 81.8523C297.948 81.9571 297.897 82.0546 297.828 82.1378C297.758 82.221 297.671 82.2879 297.572 82.3338C297.474 82.3797 297.367 82.4035 297.258 82.4034Z" fill="#8DD27F" stroke="#263238" stroke-width="1.2" stroke-linecap="round" stroke-linejoin="round"/>
<path d="M291 63.5649V89.2552" stroke="#263238" stroke-width="1.2" stroke-linecap="round" stroke-linejoin="round"/>
<path d="M288.201 70.4253L290.913 73.1322" stroke="#263238" stroke-width="1.2" stroke-linecap="round" stroke-linejoin="round"/>
<path d="M294.67 75.3186L291 78.9822" stroke="#263238" stroke-width="1.2" stroke-linecap="round" stroke-linejoin="round"/>
<path d="M292.835 66.3059L291 68.1377" stroke="#263238" stroke-width="1.2" stroke-linecap="round" stroke-linejoin="round"/>
<path d="M220.258 608.403H207.742C207.633 608.403 207.526 608.38 207.428 608.334C207.329 608.288 207.242 608.221 207.172 608.138C207.103 608.055 207.052 607.957 207.025 607.852C206.997 607.747 206.993 607.638 207.012 607.531L213.27 572.611C213.3 572.44 213.39 572.285 213.523 572.173C213.657 572.061 213.826 572 214 572C214.174 572 214.343 572.061 214.477 572.173C214.61 572.285 214.7 572.44 214.73 572.611L220.988 607.531C221.007 607.638 221.003 607.747 220.975 607.852C220.948 607.957 220.897 608.055 220.828 608.138C220.758 608.221 220.671 608.288 220.572 608.334C220.474 608.38 220.367 608.403 220.258 608.403Z" fill="#8DD27F" stroke="#263238" stroke-width="1.2" stroke-linecap="round" stroke-linejoin="round"/>
<path d="M214 589.565V615.255" stroke="#263238" stroke-width="1.2" stroke-linecap="round" stroke-linejoin="round"/>
<path d="M211.201 596.425L213.913 599.132" stroke="#263238" stroke-width="1.2" stroke-linecap="round" stroke-linejoin="round"/>
<path d="M217.67 601.319L214 604.982" stroke="#263238" stroke-width="1.2" stroke-linecap="round" stroke-linejoin="round"/>
<path d="M215.835 592.306L214 594.138" stroke="#263238" stroke-width="1.2" stroke-linecap="round" stroke-linejoin="round"/>
<path d="M167.199 626.259H158.515C158.439 626.259 158.365 626.243 158.297 626.211C158.228 626.179 158.168 626.132 158.12 626.075C158.071 626.017 158.036 625.949 158.017 625.877C157.998 625.804 157.995 625.728 158.008 625.654L162.35 601.424C162.371 601.305 162.434 601.198 162.526 601.12C162.619 601.043 162.736 601 162.857 601C162.978 601 163.095 601.043 163.188 601.12C163.28 601.198 163.343 601.305 163.364 601.424L167.706 625.654C167.719 625.728 167.716 625.804 167.697 625.877C167.678 625.949 167.643 626.017 167.594 626.075C167.546 626.132 167.486 626.179 167.417 626.211C167.349 626.243 167.275 626.259 167.199 626.259Z" fill="#8DD27F" stroke="#263238" stroke-width="1.2" stroke-linecap="round" stroke-linejoin="round"/>
<path d="M162.857 613.188V631.013" stroke="#263238" stroke-width="1.2" stroke-linecap="round" stroke-linejoin="round"/>
<path d="M160.915 617.948L162.796 619.826" stroke="#263238" stroke-width="1.2" stroke-linecap="round" stroke-linejoin="round"/>
<path d="M165.404 621.343L162.857 623.885" stroke="#263238" stroke-width="1.2" stroke-linecap="round" stroke-linejoin="round"/>
<path d="M164.13 615.089L162.857 616.36" stroke="#263238" stroke-width="1.2" stroke-linecap="round" stroke-linejoin="round"/>
<path d="M23.4035 415.295H8.86214C8.73593 415.295 8.61123 415.267 8.49687 415.214C8.38252 415.16 8.2813 415.083 8.20037 414.986C8.11945 414.889 8.0608 414.776 8.02858 414.654C7.99635 414.532 7.99134 414.405 8.0139 414.281L15.2846 373.71C15.3198 373.511 15.4241 373.331 15.5792 373.201C15.7343 373.071 15.9304 373 16.1328 373C16.3353 373 16.5314 373.071 16.6865 373.201C16.8416 373.331 16.9459 373.511 16.9811 373.71L24.2518 414.281C24.2743 414.405 24.2693 414.532 24.2371 414.654C24.2049 414.776 24.1462 414.889 24.0653 414.986C23.9844 415.083 23.8832 415.16 23.7688 415.214C23.6545 415.267 23.5298 415.295 23.4035 415.295Z" fill="#8DD27F" stroke="#263238" stroke-width="1.2" stroke-linecap="round" stroke-linejoin="round"/>
<path d="M16.1328 393.407V423.255" stroke="#263238" stroke-width="1.2" stroke-linecap="round" stroke-linejoin="round"/>
<path d="M12.8807 401.378L16.0313 404.523" stroke="#263238" stroke-width="1.2" stroke-linecap="round" stroke-linejoin="round"/>
<path d="M20.397 407.063L16.1328 411.32" stroke="#263238" stroke-width="1.2" stroke-linecap="round" stroke-linejoin="round"/>
<path d="M18.2649 396.592L16.1328 398.72" stroke="#263238" stroke-width="1.2" stroke-linecap="round" stroke-linejoin="round"/>
<path d="M41.4632 430.996L48.8282 389.893C48.8728 389.643 49.0042 389.416 49.1995 389.253C49.3948 389.09 49.6414 389 49.8962 389C50.1509 389 50.3975 389.09 50.5928 389.253C50.7881 389.416 50.9195 389.643 50.9641 389.893L60.1035 440.891C60.1308 441.047 60.1236 441.207 60.0826 441.36C60.0416 441.512 59.9676 441.654 59.8659 441.776C59.7642 441.897 59.6372 441.995 59.4938 442.062C59.3503 442.129 59.194 442.164 59.0355 442.164H43.6359" fill="#5CB56B"/>
<path d="M41.4632 430.996L48.8282 389.893C48.8728 389.643 49.0042 389.416 49.1995 389.253C49.3948 389.09 49.6414 389 49.8962 389C50.1509 389 50.3975 389.09 50.5928 389.253C50.7881 389.416 50.9195 389.643 50.9641 389.893L60.1035 440.891C60.1308 441.047 60.1236 441.207 60.0826 441.36C60.0416 441.512 59.9676 441.654 59.8659 441.776C59.7642 441.897 59.6372 441.995 59.4938 442.062C59.3503 442.129 59.194 442.164 59.0355 442.164H43.6359" stroke="#263238" stroke-width="1.2" stroke-linecap="round" stroke-linejoin="round"/>
<path d="M49.8961 414.652V452.169" stroke="#263238" stroke-width="1.2" stroke-linecap="round" stroke-linejoin="round"/>
<path d="M45.8051 424.67L49.7689 428.623" stroke="#263238" stroke-width="1.2" stroke-linecap="round" stroke-linejoin="round"/>
<path d="M55.2559 431.818L49.8961 437.168" stroke="#263238" stroke-width="1.2" stroke-linecap="round" stroke-linejoin="round"/>
<path d="M52.5743 418.655L49.8961 421.332" stroke="#263238" stroke-width="1.2" stroke-linecap="round" stroke-linejoin="round"/>
<path d="M42.7453 444.032H27.8813C27.7523 444.033 27.6248 444.004 27.5079 443.95C27.391 443.895 27.2875 443.816 27.2048 443.717C27.1221 443.618 27.0621 443.502 27.0292 443.378C26.9963 443.253 26.9911 443.123 27.0142 442.997L34.4462 401.526C34.4822 401.322 34.5888 401.138 34.7474 401.005C34.9059 400.872 35.1063 400.8 35.3133 400.8C35.5203 400.8 35.7206 400.872 35.8792 401.005C36.0378 401.138 36.1444 401.322 36.1804 401.526L43.6124 442.997C43.6354 443.123 43.6303 443.253 43.5974 443.378C43.5644 443.502 43.5045 443.618 43.4218 443.717C43.339 443.816 43.2356 443.895 43.1187 443.95C43.0018 444.004 42.8743 444.033 42.7453 444.032Z" fill="#5CB56B" stroke="#263238" stroke-width="1.2" stroke-linecap="round" stroke-linejoin="round"/>
<path d="M35.3133 421.659V452.169" stroke="#263238" stroke-width="1.2" stroke-linecap="round" stroke-linejoin="round"/>
<path d="M31.989 429.807L35.2096 433.021" stroke="#263238" stroke-width="1.2" stroke-linecap="round" stroke-linejoin="round"/>
<path d="M39.6721 435.618L35.3133 439.969" stroke="#263238" stroke-width="1.2" stroke-linecap="round" stroke-linejoin="round"/>
<path d="M37.4927 424.915L35.3133 427.09" stroke="#263238" stroke-width="1.2" stroke-linecap="round" stroke-linejoin="round"/>
<path d="M289.013 396.592L296.657 353.927C296.704 353.667 296.84 353.432 297.043 353.262C297.246 353.093 297.502 353 297.766 353C298.03 353 298.286 353.093 298.489 353.262C298.692 353.432 298.828 353.667 298.874 353.927L308.361 406.863C308.389 407.024 308.382 407.19 308.339 407.349C308.297 407.507 308.22 407.655 308.115 407.78C308.009 407.906 307.877 408.008 307.728 408.077C307.579 408.147 307.417 408.184 307.253 408.184H291.268" fill="#5CB56B"/>
<path d="M289.013 396.592L296.657 353.927C296.704 353.667 296.84 353.432 297.043 353.262C297.246 353.093 297.502 353 297.766 353C298.03 353 298.286 353.093 298.489 353.262C298.692 353.432 298.828 353.667 298.874 353.927L308.361 406.863C308.389 407.024 308.382 407.19 308.339 407.349C308.297 407.507 308.22 407.655 308.115 407.78C308.009 407.906 307.877 408.008 307.728 408.077C307.579 408.147 307.417 408.184 307.253 408.184H291.268" stroke="#263238" stroke-width="1.2" stroke-linecap="round" stroke-linejoin="round"/>
<path d="M297.766 379.626V418.569" stroke="#263238" stroke-width="1.2" stroke-linecap="round" stroke-linejoin="round"/>
<path d="M293.52 390.025L297.634 394.129" stroke="#263238" stroke-width="1.2" stroke-linecap="round" stroke-linejoin="round"/>
<path d="M303.329 397.445L297.766 402.998" stroke="#263238" stroke-width="1.2" stroke-linecap="round" stroke-linejoin="round"/>
<path d="M300.546 383.782L297.766 386.56" stroke="#263238" stroke-width="1.2" stroke-linecap="round" stroke-linejoin="round"/>
<path d="M290.343 410.123H274.915C274.781 410.123 274.648 410.094 274.527 410.037C274.406 409.981 274.298 409.898 274.213 409.796C274.127 409.693 274.064 409.573 274.03 409.444C273.996 409.314 273.991 409.179 274.015 409.048L281.729 366.001C281.766 365.79 281.877 365.599 282.042 365.461C282.206 365.323 282.414 365.248 282.629 365.248C282.844 365.248 283.052 365.323 283.217 365.461C283.381 365.599 283.492 365.79 283.529 366.001L291.243 409.048C291.267 409.179 291.262 409.314 291.228 409.444C291.194 409.573 291.131 409.693 291.046 409.796C290.96 409.898 290.852 409.981 290.731 410.037C290.61 410.094 290.477 410.123 290.343 410.123Z" fill="#5CB56B" stroke="#263238" stroke-width="1.2" stroke-linecap="round" stroke-linejoin="round"/>
<path d="M282.629 386.9V418.569" stroke="#263238" stroke-width="1.2" stroke-linecap="round" stroke-linejoin="round"/>
<path d="M279.178 395.357L282.521 398.694" stroke="#263238" stroke-width="1.2" stroke-linecap="round" stroke-linejoin="round"/>
<path d="M287.153 401.389L282.629 405.905" stroke="#263238" stroke-width="1.2" stroke-linecap="round" stroke-linejoin="round"/>
<path d="M284.891 390.279L282.629 392.537" stroke="#263238" stroke-width="1.2" stroke-linecap="round" stroke-linejoin="round"/>
<path d="M307.464 269.289L313.302 236.708C313.338 236.51 313.442 236.33 313.596 236.2C313.751 236.071 313.947 236 314.149 236C314.351 236 314.546 236.071 314.701 236.2C314.856 236.33 314.96 236.51 314.995 236.708L322.24 277.132C322.261 277.255 322.256 277.382 322.223 277.503C322.191 277.624 322.132 277.737 322.051 277.833C321.971 277.929 321.87 278.006 321.756 278.06C321.643 278.113 321.519 278.141 321.393 278.141H309.186" fill="#5CB56B"/>
<path d="M307.464 269.289L313.302 236.708C313.338 236.51 313.442 236.33 313.596 236.2C313.751 236.071 313.947 236 314.149 236C314.351 236 314.546 236.071 314.701 236.2C314.856 236.33 314.96 236.51 314.995 236.708L322.24 277.132C322.261 277.255 322.256 277.382 322.223 277.503C322.191 277.624 322.132 277.737 322.051 277.833C321.971 277.929 321.87 278.006 321.756 278.06C321.643 278.113 321.519 278.141 321.393 278.141H309.186" stroke="#263238" stroke-width="1.2" stroke-linecap="round" stroke-linejoin="round"/>
<path d="M314.149 256.333V286.071" stroke="#263238" stroke-width="1.2" stroke-linecap="round" stroke-linejoin="round"/>
<path d="M310.906 264.274L314.048 267.408" stroke="#263238" stroke-width="1.2" stroke-linecap="round" stroke-linejoin="round"/>
<path d="M318.397 269.94L314.149 274.181" stroke="#263238" stroke-width="1.2" stroke-linecap="round" stroke-linejoin="round"/>
<path d="M316.272 259.506L314.149 261.628" stroke="#263238" stroke-width="1.2" stroke-linecap="round" stroke-linejoin="round"/>
<path d="M308.481 279.622H296.699C296.596 279.622 296.495 279.6 296.403 279.556C296.31 279.513 296.228 279.45 296.162 279.372C296.097 279.293 296.049 279.202 296.023 279.103C295.997 279.004 295.993 278.901 296.011 278.801L301.902 245.929C301.931 245.767 302.015 245.621 302.141 245.516C302.267 245.411 302.425 245.353 302.59 245.353C302.754 245.353 302.912 245.411 303.038 245.516C303.164 245.621 303.248 245.767 303.277 245.929L309.168 278.801C309.186 278.901 309.182 279.004 309.156 279.103C309.13 279.202 309.082 279.293 309.017 279.372C308.951 279.45 308.869 279.513 308.777 279.556C308.684 279.6 308.583 279.622 308.481 279.622Z" fill="#5CB56B" stroke="#263238" stroke-width="1.2" stroke-linecap="round" stroke-linejoin="round"/>
<path d="M302.59 261.887V286.071" stroke="#263238" stroke-width="1.2" stroke-linecap="round" stroke-linejoin="round"/>
<path d="M299.954 268.345L302.507 270.894" stroke="#263238" stroke-width="1.2" stroke-linecap="round" stroke-linejoin="round"/>
<path d="M306.045 272.952L302.59 276.401" stroke="#263238" stroke-width="1.2" stroke-linecap="round" stroke-linejoin="round"/>
<path d="M304.317 264.468L302.59 266.192" stroke="#263238" stroke-width="1.2" stroke-linecap="round" stroke-linejoin="round"/>
<path d="M258.158 47.9169L266.386 1.99789C266.435 1.71819 266.582 1.46491 266.8 1.28245C267.018 1.1 267.294 1 267.579 1C267.863 1 268.139 1.1 268.357 1.28245C268.575 1.46491 268.722 1.71819 268.772 1.99789L278.982 58.971C279.012 59.145 279.004 59.3236 278.959 59.4943C278.913 59.6649 278.83 59.8235 278.716 59.959C278.603 60.0944 278.461 60.2035 278.301 60.2785C278.14 60.3535 277.966 60.3927 277.789 60.3934H260.585" fill="#5CB56B"/>
<path d="M258.158 47.9169L266.386 1.99789C266.435 1.71819 266.582 1.46491 266.8 1.28245C267.018 1.1 267.294 1 267.579 1C267.863 1 268.139 1.1 268.357 1.28245C268.575 1.46491 268.722 1.71819 268.772 1.99789L278.982 58.971C279.012 59.145 279.004 59.3236 278.959 59.4943C278.913 59.6649 278.83 59.8235 278.716 59.959C278.603 60.0944 278.461 60.2035 278.301 60.2785C278.14 60.3536 277.966 60.3927 277.789 60.3934H260.585" stroke="#263238" stroke-width="1.2" stroke-linecap="round" stroke-linejoin="round"/>
<path d="M267.579 29.6567V71.5699" stroke="#263238" stroke-width="1.2" stroke-linecap="round" stroke-linejoin="round"/>
<path d="M263.008 40.8494L267.437 45.2658" stroke="#263238" stroke-width="1.2" stroke-linecap="round" stroke-linejoin="round"/>
<path d="M273.566 48.835L267.579 54.8119" stroke="#263238" stroke-width="1.2" stroke-linecap="round" stroke-linejoin="round"/>
<path d="M270.571 34.1294L267.579 37.1197" stroke="#263238" stroke-width="1.2" stroke-linecap="round" stroke-linejoin="round"/>
<path d="M259.59 62.4801H242.984C242.84 62.4802 242.698 62.4487 242.567 62.3878C242.437 62.3269 242.321 62.2381 242.229 62.1277C242.136 62.0173 242.069 61.888 242.033 61.7489C241.996 61.6098 241.99 61.4643 242.016 61.3228L250.319 14.9931C250.359 14.7658 250.478 14.5599 250.655 14.4116C250.832 14.2632 251.056 14.1819 251.287 14.1819C251.518 14.1819 251.742 14.2632 251.919 14.4116C252.097 14.5599 252.216 14.7658 252.256 14.9931L260.559 61.3228C260.584 61.4643 260.579 61.6098 260.542 61.7489C260.505 61.888 260.438 62.0173 260.346 62.1277C260.253 62.2381 260.138 62.3269 260.007 62.3878C259.877 62.4487 259.734 62.4802 259.59 62.4801Z" fill="#5CB56B" stroke="#263238" stroke-width="1.2" stroke-linecap="round" stroke-linejoin="round"/>
<path d="M251.287 37.4856V71.5702" stroke="#263238" stroke-width="1.2" stroke-linecap="round" stroke-linejoin="round"/>
<path d="M247.573 46.5874L251.171 50.1788" stroke="#263238" stroke-width="1.2" stroke-linecap="round" stroke-linejoin="round"/>
<path d="M256.157 53.0801L251.287 57.9408" stroke="#263238" stroke-width="1.2" stroke-linecap="round" stroke-linejoin="round"/>
<path d="M253.722 41.1226L251.287 43.5529" stroke="#263238" stroke-width="1.2" stroke-linecap="round" stroke-linejoin="round"/>
<g clip-path="url(#clip0_333_744)">
<path d="M334.501 404.865V432.398H305.701V404.865H334.501Z" fill="white" stroke="#263238"/>
<path d="M332.688 393.884L339.186 406.659H302.793L309.167 393.302L332.688 393.884Z" fill="#FF6B43" stroke="#263238"/>
<path d="M319.25 424.516C319.891 424.516 320.506 424.77 320.958 425.222C321.411 425.674 321.666 426.286 321.666 426.924V432.5H316.835V426.924C316.835 426.286 317.09 425.674 317.542 425.222C317.995 424.77 318.61 424.516 319.25 424.516Z" fill="#2E292B" stroke="#263238"/>
<rect x="309" y="410" width="4" height="5" rx="1" fill="#8CBBE5"/>
<rect x="309" y="417" width="4" height="5" rx="1" fill="#8CBBE5"/>
<rect x="315" y="410" width="4" height="5" rx="1" fill="#8CBBE5"/>
<rect x="315" y="417" width="4" height="5" rx="1" fill="#8CBBE5"/>
<path d="M321 411C321 410.448 321.448 410 322 410H324C324.552 410 325 410.448 325 411V414C325 414.552 324.552 415 324 415H322C321.448 415 321 414.552 321 414V411Z" fill="#8CBBE5"/>
<path d="M327 411C327 410.448 327.448 410 328 410H330C330.552 410 331 410.448 331 411V414C331 414.552 330.552 415 330 415H328C327.448 415 327 414.552 327 414V411Z" fill="#8CBBE5"/>
<path d="M321 418C321 417.448 321.448 417 322 417H324C324.552 417 325 417.448 325 418V421C325 421.552 324.552 422 324 422H322C321.448 422 321 421.552 321 421V418Z" fill="#8CBBE5"/>
<path d="M327 418C327 417.448 327.448 417 328 417H330C330.552 417 331 417.448 331 418V421C331 421.552 330.552 422 330 422H328C327.448 422 327 421.552 327 421V418Z" fill="#8CBBE5"/>
</g>
<rect x="502" y="444" width="96" height="29" rx="14.5" fill="#736463"/>
<path d="M526.213 451.43H528.208V465.365H526.213V451.43ZM517.528 460.4H518.728C519.698 460.4 520.548 460.39 521.278 460.37C522.018 460.35 522.693 460.31 523.303 460.25C523.923 460.19 524.543 460.1 525.163 459.98L525.343 461.63C524.713 461.75 524.078 461.845 523.438 461.915C522.808 461.975 522.113 462.015 521.353 462.035C520.593 462.045 519.718 462.05 518.728 462.05H517.528V460.4ZM517.528 452.66H524.218V454.28H519.508V461.03H517.528V452.66ZM530.592 452.705H532.467V455.885H534.267V452.705H536.097V462.035H530.592V452.705ZM532.467 457.445V460.445H534.267V457.445H532.467ZM540.222 451.43H542.127V465.32H540.222V451.43ZM535.782 456.515H538.077V458.12H535.782V456.515ZM537.402 451.67H539.262V464.72H537.402V451.67ZM543.716 462.14H556.301V463.775H543.716V462.14ZM545.141 452.36H554.876V457.01H547.136V459.335H545.156V455.45H552.896V453.965H545.141V452.36ZM545.156 458.555H555.191V460.145H545.156V458.555ZM557.964 460.58H559.164C559.974 460.58 560.734 460.575 561.444 460.565C562.154 460.545 562.844 460.51 563.514 460.46C564.194 460.4 564.889 460.315 565.599 460.205L565.779 461.795C565.059 461.905 564.349 461.99 563.649 462.05C562.949 462.11 562.234 462.15 561.504 462.17C560.774 462.18 559.994 462.185 559.164 462.185H557.964V460.58ZM557.964 452.585H564.999V454.205H559.944V461.105H557.964V452.585ZM559.494 456.455H564.414V458.015H559.494V456.455ZM566.799 451.445H568.794V465.335H566.799V451.445ZM571.478 460.58H572.678C573.488 460.58 574.248 460.575 574.958 460.565C575.668 460.545 576.358 460.51 577.028 460.46C577.708 460.4 578.403 460.315 579.113 460.205L579.293 461.795C578.573 461.905 577.863 461.99 577.163 462.05C576.463 462.11 575.748 462.15 575.018 462.17C574.288 462.18 573.508 462.185 572.678 462.185H571.478V460.58ZM571.478 452.585H578.513V454.205H573.458V461.105H571.478V452.585ZM573.008 456.455H577.928V458.015H573.008V456.455ZM580.313 451.445H582.308V465.335H580.313V451.445Z" fill="white"/>
<rect x="388" y="391" width="83" height="29" rx="14.5" fill="#736463"/>
<path d="M408.195 399.765H410.13C410.13 400.845 410.045 401.875 409.875 402.855C409.715 403.835 409.415 404.765 408.975 405.645C408.535 406.525 407.91 407.35 407.1 408.12C406.29 408.89 405.235 409.605 403.935 410.265L402.87 408.735C403.95 408.195 404.835 407.62 405.525 407.01C406.225 406.39 406.765 405.73 407.145 405.03C407.535 404.32 407.805 403.55 407.955 402.72C408.115 401.89 408.195 400.99 408.195 400.02V399.765ZM403.74 399.765H409.365V401.355H403.74V399.765ZM408.24 403.17V404.7L403.26 405.18L403.005 403.485L408.24 403.17ZM411.81 398.415H413.82V412.305H411.81V398.415ZM413.31 403.74H415.755V405.375H413.31V403.74ZM426.614 398.445H428.504V412.335H426.614V398.445ZM422.534 403.5H424.394V405.24H422.534V403.5ZM423.854 398.7H425.714V411.675H423.854V398.7ZM416.549 400.005H422.879V401.595H416.549V400.005ZM416.534 409.185L416.324 407.55C416.754 407.55 417.249 407.55 417.809 407.55C418.369 407.54 418.954 407.525 419.564 407.505C420.174 407.475 420.779 407.44 421.379 407.4C421.989 407.35 422.559 407.29 423.089 407.22L423.209 408.66C422.499 408.82 421.734 408.94 420.914 409.02C420.094 409.09 419.299 409.135 418.529 409.155C417.769 409.175 417.104 409.185 416.534 409.185ZM417.404 401.01H419.204V407.985H417.404V401.01ZM420.209 401.01H421.994V407.985H420.209V401.01ZM436.663 400.47H440.203V402.06H436.663V400.47ZM436.663 403.335H440.263V404.91H436.663V403.335ZM430.543 399.255H432.523V401.175H435.163V399.255H437.128V406.11H430.543V399.255ZM432.523 402.72V404.52H435.163V402.72H432.523ZM432.118 407.34H441.598V412.335H439.588V408.93H432.118V407.34ZM439.588 398.445H441.598V406.725H439.588V398.445ZM448.766 402.36H450.746V405.015H448.766V402.36ZM445.046 401.625H454.571V403.185H445.046V401.625ZM445.046 398.895H454.451V400.47H447.026V402.465H445.046V398.895ZM443.471 404.055H456.041V405.63H443.471V404.055ZM444.911 406.35H454.511V409.935H446.906V411.15H444.926V408.555H452.546V407.835H444.911V406.35ZM444.926 410.73H454.886V412.23H444.926V410.73Z" fill="white"/>
<rect x="289" y="516" width="123" height="29" rx="14.5" fill="#736463"/>
<path d="M303.659 525.53H310.304V527.105H303.659V525.53ZM307.004 527.735C307.594 527.735 308.114 527.875 308.564 528.155C309.024 528.435 309.384 528.825 309.644 529.325C309.914 529.815 310.049 530.385 310.049 531.035C310.049 531.685 309.914 532.26 309.644 532.76C309.384 533.25 309.024 533.635 308.564 533.915C308.114 534.195 307.594 534.335 307.004 534.335C306.414 534.335 305.889 534.195 305.429 533.915C304.969 533.635 304.609 533.25 304.349 532.76C304.089 532.26 303.959 531.685 303.959 531.035C303.959 530.385 304.089 529.815 304.349 529.325C304.609 528.825 304.969 528.435 305.429 528.155C305.899 527.875 306.424 527.735 307.004 527.735ZM307.004 529.385C306.764 529.385 306.544 529.45 306.344 529.58C306.144 529.71 305.989 529.9 305.879 530.15C305.769 530.39 305.714 530.685 305.714 531.035C305.714 531.385 305.769 531.685 305.879 531.935C305.989 532.185 306.144 532.375 306.344 532.505C306.544 532.625 306.764 532.685 307.004 532.685C307.254 532.685 307.474 532.625 307.664 532.505C307.854 532.375 308.004 532.185 308.114 531.935C308.224 531.685 308.279 531.385 308.279 531.035C308.279 530.685 308.224 530.39 308.114 530.15C308.004 529.9 307.854 529.71 307.664 529.58C307.474 529.45 307.254 529.385 307.004 529.385ZM313.709 523.43H315.599V537.32H313.709V523.43ZM312.044 529.085H314.324V530.69H312.044V529.085ZM310.784 523.685H312.644V536.735H310.784V523.685ZM306.029 523.805H307.994V526.52H306.029V523.805ZM326.758 523.445H328.753V537.335H326.758V523.445ZM317.518 524.72H325.318V526.295H317.518V524.72ZM317.353 534.155L317.158 532.535C317.998 532.535 318.908 532.53 319.888 532.52C320.868 532.5 321.868 532.465 322.888 532.415C323.918 532.355 324.908 532.265 325.858 532.145L325.978 533.585C325.008 533.745 324.013 533.87 322.993 533.96C321.983 534.04 320.998 534.09 320.038 534.11C319.078 534.13 318.183 534.145 317.353 534.155ZM318.718 525.965H320.653V532.97H318.718V525.965ZM322.183 525.965H324.118V532.97H322.183V525.965ZM330.882 524.72H338.547V526.295H330.882V524.72ZM330.732 534.155L330.522 532.535C331.322 532.535 332.197 532.53 333.147 532.52C334.107 532.5 335.082 532.465 336.072 532.415C337.072 532.355 338.032 532.27 338.952 532.16L339.057 533.6C338.117 533.76 337.152 533.88 336.162 533.96C335.182 534.04 334.227 534.095 333.297 534.125C332.377 534.145 331.522 534.155 330.732 534.155ZM332.067 525.965H334.002V532.97H332.067V525.965ZM335.427 525.965H337.347V532.97H335.427V525.965ZM339.567 523.445H341.577V537.335H339.567V523.445ZM341.142 528.695H343.587V530.345H341.142V528.695ZM353.741 523.415H355.736V537.35H353.741V523.415ZM348.251 524.39C348.961 524.39 349.591 524.595 350.141 525.005C350.691 525.405 351.121 525.98 351.431 526.73C351.751 527.47 351.911 528.345 351.911 529.355C351.911 530.375 351.751 531.26 351.431 532.01C351.121 532.75 350.691 533.325 350.141 533.735C349.591 534.135 348.961 534.335 348.251 534.335C347.551 534.335 346.926 534.135 346.376 533.735C345.826 533.325 345.391 532.75 345.071 532.01C344.761 531.26 344.606 530.375 344.606 529.355C344.606 528.345 344.761 527.47 345.071 526.73C345.391 525.98 345.826 525.405 346.376 525.005C346.926 524.595 347.551 524.39 348.251 524.39ZM348.251 526.205C347.911 526.205 347.611 526.325 347.351 526.565C347.091 526.805 346.886 527.16 346.736 527.63C346.596 528.09 346.526 528.665 346.526 529.355C346.526 530.035 346.596 530.615 346.736 531.095C346.886 531.565 347.091 531.92 347.351 532.16C347.611 532.4 347.911 532.52 348.251 532.52C348.601 532.52 348.906 532.4 349.166 532.16C349.426 531.92 349.626 531.565 349.766 531.095C349.916 530.615 349.991 530.035 349.991 529.355C349.991 528.665 349.916 528.09 349.766 527.63C349.626 527.16 349.426 526.805 349.166 526.565C348.906 526.325 348.601 526.205 348.251 526.205ZM367.659 523.43H369.564V530.375H367.659V523.43ZM365.979 526.235H368.184V527.825H365.979V526.235ZM364.629 523.685H366.489V530.285H364.629V523.685ZM361.659 524.255H363.684C363.684 525.365 363.499 526.345 363.129 527.195C362.769 528.045 362.209 528.775 361.449 529.385C360.699 529.995 359.744 530.505 358.584 530.915L357.654 529.46C358.614 529.16 359.384 528.795 359.964 528.365C360.554 527.935 360.984 527.445 361.254 526.895C361.524 526.335 361.659 525.715 361.659 525.035V524.255ZM358.314 524.255H362.469V525.815H358.314V524.255ZM360.114 530.945H369.564V534.74H362.124V536.36H360.144V533.285H367.599V532.475H360.114V530.945ZM360.144 535.625H370.014V537.185H360.144V535.625ZM380.873 523.415H382.853V537.35H380.873V523.415ZM378.698 528.425H381.278V530.03H378.698V528.425ZM371.708 532.505H372.848C373.608 532.505 374.318 532.495 374.978 532.475C375.648 532.455 376.303 532.42 376.943 532.37C377.583 532.31 378.238 532.225 378.908 532.115L379.088 533.735C378.398 533.845 377.723 533.93 377.063 533.99C376.403 534.05 375.728 534.09 375.038 534.11C374.358 534.13 373.628 534.14 372.848 534.14H371.708V532.505ZM371.693 524.6H377.948V529.835H373.688V532.985H371.708V528.26H375.983V526.19H371.693V524.6ZM394.312 523.415H396.322V537.35H394.312V523.415ZM385.507 532.49H386.737C387.557 532.49 388.332 532.48 389.062 532.46C389.792 532.43 390.507 532.385 391.207 532.325C391.907 532.255 392.622 532.155 393.352 532.025L393.562 533.63C392.442 533.83 391.337 533.965 390.247 534.035C389.167 534.095 387.997 534.125 386.737 534.125H385.507V532.49ZM385.477 524.6H392.032V529.985H387.532V533.105H385.507V528.41H390.007V526.205H385.477V524.6Z" fill="white"/>
<rect x="419" y="281" width="137" height="29" rx="14.5" fill="#736463"/>
<path d="M443.472 288.415H445.482V302.35H443.472V288.415ZM434.667 297.49H435.897C436.717 297.49 437.492 297.48 438.222 297.46C438.952 297.43 439.667 297.385 440.367 297.325C441.067 297.255 441.782 297.155 442.512 297.025L442.722 298.63C441.602 298.83 440.497 298.965 439.407 299.035C438.327 299.095 437.157 299.125 435.897 299.125H434.667V297.49ZM434.637 289.6H441.192V294.985H436.692V298.105H434.667V293.41H439.167V291.205H434.637V289.6ZM450.791 289.555H452.426V290.395C452.426 291.215 452.281 291.99 451.991 292.72C451.701 293.45 451.261 294.085 450.671 294.625C450.091 295.155 449.346 295.55 448.436 295.81L447.476 294.265C448.056 294.105 448.551 293.89 448.961 293.62C449.381 293.35 449.726 293.04 449.996 292.69C450.266 292.34 450.466 291.975 450.596 291.595C450.726 291.205 450.791 290.805 450.791 290.395V289.555ZM451.211 289.555H452.831V290.395C452.831 290.775 452.896 291.15 453.026 291.52C453.156 291.88 453.351 292.225 453.611 292.555C453.881 292.875 454.221 293.165 454.631 293.425C455.041 293.685 455.531 293.89 456.101 294.04L455.126 295.585C454.256 295.345 453.526 294.965 452.936 294.445C452.356 293.925 451.921 293.32 451.631 292.63C451.351 291.93 451.211 291.185 451.211 290.395V289.555ZM448.016 289.12H455.576V290.68H448.016V289.12ZM449.726 296.32H459.041V297.775H451.706V301.36H449.726V296.32ZM449.726 300.685H459.296V302.185H449.726V300.685ZM451.061 298.54H458.891V299.89H451.061V298.54ZM456.971 288.445H458.966V295.72H456.971V288.445ZM466.06 289.765H468.01C468.01 290.835 467.92 291.86 467.74 292.84C467.57 293.82 467.265 294.755 466.825 295.645C466.385 296.525 465.765 297.35 464.965 298.12C464.175 298.88 463.155 299.585 461.905 300.235L460.81 298.72C461.84 298.19 462.69 297.62 463.36 297.01C464.04 296.4 464.575 295.745 464.965 295.045C465.365 294.335 465.645 293.565 465.805 292.735C465.975 291.905 466.06 291 466.06 290.02V289.765ZM461.65 289.765H467.275V291.355H461.65V289.765ZM466.255 293.17V294.7L461.155 295.15L460.9 293.485L466.255 293.17ZM470.56 288.445H472.555V302.335H470.56V288.445ZM467.98 293.755H471.625V295.375H467.98V293.755ZM484.029 288.445H486.024V302.335H484.029V288.445ZM474.789 289.72H482.589V291.295H474.789V289.72ZM474.624 299.155L474.429 297.535C475.269 297.535 476.179 297.53 477.159 297.52C478.139 297.5 479.139 297.465 480.159 297.415C481.189 297.355 482.179 297.265 483.129 297.145L483.249 298.585C482.279 298.745 481.284 298.87 480.264 298.96C479.254 299.04 478.269 299.09 477.309 299.11C476.349 299.13 475.454 299.145 474.624 299.155ZM475.989 290.965H477.924V297.97H475.989V290.965ZM479.454 290.965H481.389V297.97H479.454V290.965ZM487.973 299.185H500.558V300.805H487.973V299.185ZM493.253 296.545H495.233V299.83H493.253V296.545ZM489.398 289.33H499.133V293.965H491.393V296.29H489.413V292.405H497.153V290.92H489.398V289.33ZM489.413 295.51H499.448V297.1H489.413V295.51ZM506.646 289.24H508.371V290.245C508.371 290.845 508.286 291.43 508.116 292C507.956 292.56 507.716 293.09 507.396 293.59C507.076 294.09 506.681 294.545 506.211 294.955C505.751 295.355 505.221 295.7 504.621 295.99C504.021 296.28 503.361 296.495 502.641 296.635L501.786 294.97C502.406 294.86 502.971 294.695 503.481 294.475C504.001 294.245 504.456 293.97 504.846 293.65C505.236 293.33 505.566 292.985 505.836 292.615C506.106 292.235 506.306 291.845 506.436 291.445C506.576 291.035 506.646 290.635 506.646 290.245V289.24ZM507.036 289.24H508.776V290.245C508.776 290.645 508.841 291.05 508.971 291.46C509.111 291.87 509.311 292.265 509.571 292.645C509.841 293.015 510.171 293.355 510.561 293.665C510.951 293.975 511.401 294.245 511.911 294.475C512.421 294.695 512.996 294.86 513.636 294.97L512.781 296.635C512.061 296.495 511.401 296.28 510.801 295.99C510.201 295.7 509.666 295.355 509.196 294.955C508.736 294.555 508.341 294.105 508.011 293.605C507.691 293.105 507.446 292.57 507.276 292C507.116 291.43 507.036 290.845 507.036 290.245V289.24ZM501.486 299.005H514.071V300.64H501.486V299.005ZM524.66 288.415H526.655V302.35H524.66V288.415ZM522.275 293.32H524.9V294.94H522.275V293.32ZM515.615 297.61H516.74C517.51 297.61 518.22 297.6 518.87 297.58C519.53 297.56 520.17 297.525 520.79 297.475C521.41 297.425 522.045 297.355 522.695 297.265L522.89 298.84C522.22 298.95 521.56 299.03 520.91 299.08C520.27 299.13 519.61 299.165 518.93 299.185C518.25 299.205 517.52 299.215 516.74 299.215H515.615V297.61ZM515.615 289.585H522.05V291.205H517.61V298.105H515.615V289.585ZM517.145 293.455H521.585V295.015H517.145V293.455ZM533.674 289.24H535.399V290.245C535.399 290.845 535.314 291.43 535.144 292C534.984 292.56 534.744 293.09 534.424 293.59C534.104 294.09 533.709 294.545 533.239 294.955C532.779 295.355 532.249 295.7 531.649 295.99C531.049 296.28 530.389 296.495 529.669 296.635L528.814 294.97C529.434 294.86 529.999 294.695 530.509 294.475C531.029 294.245 531.484 293.97 531.874 293.65C532.264 293.33 532.594 292.985 532.864 292.615C533.134 292.235 533.334 291.845 533.464 291.445C533.604 291.035 533.674 290.635 533.674 290.245V289.24ZM534.064 289.24H535.804V290.245C535.804 290.645 535.869 291.05 535.999 291.46C536.139 291.87 536.339 292.265 536.599 292.645C536.869 293.015 537.199 293.355 537.589 293.665C537.979 293.975 538.429 294.245 538.939 294.475C539.449 294.695 540.024 294.86 540.664 294.97L539.809 296.635C539.089 296.495 538.429 296.28 537.829 295.99C537.229 295.7 536.694 295.355 536.224 294.955C535.764 294.555 535.369 294.105 535.039 293.605C534.719 293.105 534.474 292.57 534.304 292C534.144 291.43 534.064 290.845 534.064 290.245V289.24ZM528.514 299.005H541.099V300.64H528.514V299.005Z" fill="white"/>
<rect x="179" y="174" width="83" height="29" rx="14.5" fill="#736463"/>
<path d="M200.215 183.365H204.31V184.97H200.215V183.365ZM200.215 186.74H204.31V188.345H200.215V186.74ZM203.56 181.445H205.57V191.6H203.56V181.445ZM196.39 193.49H205.885V195.095H196.39V193.49ZM196.39 190.61H198.385V194.33H196.39V190.61ZM197.77 182.27C198.46 182.27 199.08 182.425 199.63 182.735C200.19 183.035 200.63 183.455 200.95 183.995C201.28 184.535 201.445 185.155 201.445 185.855C201.445 186.545 201.28 187.165 200.95 187.715C200.63 188.255 200.19 188.68 199.63 188.99C199.08 189.3 198.46 189.455 197.77 189.455C197.09 189.455 196.47 189.3 195.91 188.99C195.36 188.68 194.92 188.255 194.59 187.715C194.27 187.165 194.11 186.545 194.11 185.855C194.11 185.155 194.27 184.535 194.59 183.995C194.92 183.455 195.36 183.035 195.91 182.735C196.47 182.425 197.09 182.27 197.77 182.27ZM197.77 184.01C197.44 184.01 197.14 184.085 196.87 184.235C196.6 184.385 196.385 184.6 196.225 184.88C196.075 185.15 196 185.475 196 185.855C196 186.245 196.075 186.58 196.225 186.86C196.385 187.13 196.6 187.34 196.87 187.49C197.14 187.63 197.44 187.7 197.77 187.7C198.11 187.7 198.41 187.63 198.67 187.49C198.94 187.34 199.15 187.13 199.3 186.86C199.46 186.58 199.54 186.245 199.54 185.855C199.54 185.475 199.46 185.15 199.3 184.88C199.15 184.6 198.94 184.385 198.67 184.235C198.41 184.085 198.11 184.01 197.77 184.01ZM210.669 189.665H212.664V191.9H210.669V189.665ZM216.504 181.445H218.499V195.335H216.504V181.445ZM217.809 187.085H220.254V188.72H217.809V187.085ZM207.549 193.025L207.309 191.405C208.109 191.405 208.984 191.4 209.934 191.39C210.894 191.38 211.874 191.345 212.874 191.285C213.884 191.225 214.859 191.135 215.799 191.015L215.949 192.455C214.979 192.635 213.994 192.77 212.994 192.86C211.994 192.94 211.029 192.99 210.099 193.01C209.179 193.02 208.329 193.025 207.549 193.025ZM207.564 182.96H215.739V184.52H207.564V182.96ZM211.659 185.075C212.329 185.075 212.919 185.185 213.429 185.405C213.939 185.625 214.339 185.93 214.629 186.32C214.919 186.71 215.064 187.165 215.064 187.685C215.064 188.195 214.919 188.65 214.629 189.05C214.339 189.44 213.939 189.745 213.429 189.965C212.919 190.185 212.329 190.295 211.659 190.295C210.999 190.295 210.414 190.185 209.904 189.965C209.394 189.745 208.994 189.44 208.704 189.05C208.414 188.65 208.269 188.195 208.269 187.685C208.269 187.165 208.414 186.71 208.704 186.32C208.994 185.93 209.394 185.625 209.904 185.405C210.414 185.185 210.999 185.075 211.659 185.075ZM211.659 186.575C211.209 186.575 210.844 186.675 210.564 186.875C210.294 187.065 210.159 187.335 210.159 187.685C210.159 188.045 210.294 188.32 210.564 188.51C210.844 188.7 211.209 188.795 211.659 188.795C212.119 188.795 212.484 188.7 212.754 188.51C213.034 188.32 213.174 188.045 213.174 187.685C213.174 187.335 213.034 187.065 212.754 186.875C212.484 186.675 212.119 186.575 211.659 186.575ZM210.669 181.505H212.664V184.13H210.669V181.505ZM230.993 181.43H232.898V195.32H230.993V181.43ZM226.418 186.185H228.728V187.805H226.418V186.185ZM228.188 181.655H230.048V194.69H228.188V181.655ZM223.433 183.695H224.933V185.12C224.933 185.9 224.873 186.67 224.753 187.43C224.643 188.19 224.468 188.91 224.228 189.59C223.988 190.26 223.673 190.865 223.283 191.405C222.893 191.945 222.423 192.39 221.873 192.74L220.688 191.27C221.368 190.84 221.908 190.3 222.308 189.65C222.708 188.99 222.993 188.27 223.163 187.49C223.343 186.7 223.433 185.91 223.433 185.12V183.695ZM223.883 183.695H225.368V185.12C225.368 185.89 225.453 186.65 225.623 187.4C225.793 188.15 226.073 188.835 226.463 189.455C226.853 190.065 227.383 190.565 228.053 190.955L226.898 192.395C226.158 191.955 225.568 191.36 225.128 190.61C224.688 189.86 224.368 189.015 224.168 188.075C223.978 187.125 223.883 186.14 223.883 185.12V183.695ZM221.198 182.825H227.393V184.43H221.198V182.825ZM235.056 182.81H241.056V184.4H235.056V182.81ZM236.856 186.785H238.806V191.51H236.856V186.785ZM240.246 182.81H242.226V183.95C242.226 184.62 242.206 185.385 242.166 186.245C242.136 187.105 242.026 188.115 241.836 189.275L239.886 189.11C240.066 188 240.171 187.03 240.201 186.2C240.231 185.36 240.246 184.61 240.246 183.95V182.81ZM243.411 181.43H245.391V195.32H243.411V181.43ZM244.821 187.01H247.266V188.66H244.821V187.01ZM234.546 192.53L234.366 190.91C235.176 190.91 236.056 190.905 237.006 190.895C237.966 190.875 238.936 190.84 239.916 190.79C240.906 190.73 241.861 190.645 242.781 190.535L242.871 191.99C241.931 192.14 240.971 192.255 239.991 192.335C239.021 192.415 238.071 192.47 237.141 192.5C236.211 192.52 235.346 192.53 234.546 192.53Z" fill="white"/>
<rect x="159" y="302" width="83" height="29" rx="14.5" fill="#736463"/>
<path d="M179.06 310.765H181.01C181.01 311.835 180.92 312.86 180.74 313.84C180.57 314.82 180.265 315.755 179.825 316.645C179.385 317.525 178.765 318.35 177.965 319.12C177.175 319.88 176.155 320.585 174.905 321.235L173.81 319.72C174.84 319.19 175.69 318.62 176.36 318.01C177.04 317.4 177.575 316.745 177.965 316.045C178.365 315.335 178.645 314.565 178.805 313.735C178.975 312.905 179.06 312 179.06 311.02V310.765ZM174.65 310.765H180.275V312.355H174.65V310.765ZM179.255 314.17V315.7L174.155 316.15L173.9 314.485L179.255 314.17ZM183.56 309.445H185.555V323.335H183.56V309.445ZM180.98 314.755H184.625V316.375H180.98V314.755ZM197.029 309.445H199.024V323.335H197.029V309.445ZM187.789 310.72H195.589V312.295H187.789V310.72ZM187.624 320.155L187.429 318.535C188.269 318.535 189.179 318.53 190.159 318.52C191.139 318.5 192.139 318.465 193.159 318.415C194.189 318.355 195.179 318.265 196.129 318.145L196.249 319.585C195.279 319.745 194.284 319.87 193.264 319.96C192.254 320.04 191.269 320.09 190.309 320.11C189.349 320.13 188.454 320.145 187.624 320.155ZM188.989 311.965H190.924V318.97H188.989V311.965ZM192.454 311.965H194.389V318.97H192.454V311.965ZM201.723 315.505H202.923C203.873 315.505 204.708 315.5 205.428 315.49C206.158 315.47 206.833 315.435 207.453 315.385C208.083 315.335 208.718 315.26 209.358 315.16L209.553 316.705C208.893 316.805 208.238 316.885 207.588 316.945C206.948 316.995 206.253 317.03 205.503 317.05C204.753 317.06 203.893 317.065 202.923 317.065H201.723V315.505ZM201.723 310.225H208.413V311.8H203.703V316.135H201.723V310.225ZM203.088 312.85H208.008V314.41H203.088V312.85ZM210.513 309.445H212.508V317.695H210.513V309.445ZM203.268 318.265H212.508V323.185H203.268V318.265ZM210.558 319.825H205.233V321.61H210.558V319.825ZM224.146 309.415H226.141V323.35H224.146V309.415ZM220.996 314.305H224.716V315.91H220.996V314.305ZM214.996 310.51H216.976V313.885H219.706V310.51H221.671V320.08H214.996V310.51ZM216.976 315.43V318.49H219.706V315.43H216.976Z" fill="white"/>
<path d="M120.915 360.352H60.281C59.7038 358.478 60.005 356.12 61.2848 354.927C62.67 353.61 65.0892 354.404 65.4907 356.535C66.891 353.225 66.4092 348.673 68.6175 346.178C69.2888 345.412 70.2263 344.92 71.2471 344.797C72.2679 344.674 73.2987 344.929 74.1384 345.512C75.885 346.646 77.0796 348.861 77.6517 351.238C77.6517 349.62 78.4497 348.042 79.6242 347.401C80.2131 347.107 80.8884 347.025 81.5323 347.171C82.1762 347.316 82.7478 347.678 83.1475 348.195C83.81 345.862 84.5077 343.485 85.7524 341.567C88.3572 337.538 93.3762 336.384 96.9347 338.973C100.493 341.562 102.225 347.593 100.774 352.456C101.999 351.287 103.284 350.118 104.694 349.423C106.104 348.728 107.786 348.535 109.211 349.324C109.981 349.82 110.596 350.515 110.988 351.334C111.38 352.152 111.532 353.061 111.43 353.96C113.151 351.001 116.95 350.508 119.129 352.934C120.735 354.749 121.217 357.565 120.915 360.352Z" fill="#87C880" stroke="#263238" stroke-width="1.2" stroke-miterlimit="10" stroke-linejoin="round"/>
<path d="M115.455 359.387H66.4697C66.5623 358.938 66.8216 358.536 67.1999 358.255C67.6687 357.949 68.2448 357.832 68.8035 357.929C69.3623 358.025 69.8587 358.327 70.1856 358.77C70.851 357.452 71.5149 356.137 72.1775 354.824C72.5231 354.132 72.9379 353.383 73.6897 353.111C74.4416 352.839 75.2582 353.136 75.9452 353.523C77.505 354.36 78.7843 355.601 79.6352 357.102L81.8517 353.848C82.1015 353.406 82.4604 353.029 82.8974 352.749C83.2306 352.6 83.5979 352.534 83.9651 352.557C84.3322 352.58 84.6873 352.692 84.9973 352.88C85.6122 353.265 86.1494 353.752 86.583 354.318C87.4903 352.513 88.6758 350.847 90.1001 349.376C90.3971 349.01 90.7907 348.726 91.2408 348.552C91.716 348.445 92.2139 348.475 92.671 348.639C94.2968 349.138 95.7108 350.123 96.7044 351.448C97.6979 352.772 98.2183 354.366 98.1886 355.994C99.0878 355.208 100.108 354.558 101.213 354.067C102.181 353.655 103.374 353.342 104.281 353.869C105.344 354.482 105.512 355.862 105.577 357.048C107.356 356.558 109.196 356.298 111.047 356.274C111.923 356.202 112.802 356.376 113.575 356.776C114.088 357.133 114.508 357.598 114.802 358.135C115.046 358.54 115.264 358.958 115.455 359.387Z" fill="#7ABC71"/>
<path d="M199.124 444.394V490.134H166.095V444.384L182.13 429.038L199.124 444.394Z" fill="white" stroke="#263238"/>
<path d="M176.898 458.262H172.409V465.416H176.898V458.262Z" fill="#8CBBE5"/>
<path d="M176.934 448.709H172.444V455.863H176.934V448.709Z" fill="#8CBBE5"/>
<path d="M184.343 458.379H179.853V465.532H184.343V458.379Z" fill="#8CBBE5"/>
<path d="M184.378 448.709H179.889V455.863H184.378V448.709Z" fill="#8CBBE5"/>
<path d="M191.864 457.889H187.374V465.043H191.864V457.889Z" fill="#8CBBE5"/>
<path d="M191.9 448.709H187.41V455.863H191.9V448.709Z" fill="#8CBBE5"/>
<path d="M176.425 468.646H171.936V475.8H176.425V468.646Z" fill="#8CBBE5"/>
<path d="M183.87 468.763H179.38V475.917H183.87V468.763Z" fill="#8CBBE5"/>
<path d="M191.391 468.277H186.901V475.43H191.391V468.277Z" fill="#8CBBE5"/>
<path d="M176.727 478.73H172.237V485.883H176.727V478.73Z" fill="#8CBBE5"/>
<path d="M184.167 478.846H179.678V486H184.167V478.846Z" fill="#8CBBE5"/>
<path d="M191.689 478.36H187.199V485.514H191.689V478.36Z" fill="#8CBBE5"/>
<path d="M207.284 449.546L205.557 451.357L182.443 430.34L182.11 430.037L181.775 430.336L158.864 450.677L157.158 448.846L182.13 426.672L207.284 449.546Z" fill="#FF6B43" stroke="#263238"/>
<path d="M181.778 444.342C183.987 444.342 185.778 442.582 185.778 440.412C185.778 438.241 183.987 436.481 181.778 436.481C179.569 436.481 177.778 438.241 177.778 440.412C177.778 442.582 179.569 444.342 181.778 444.342Z" fill="#8CBBE5"/>
<g clip-path="url(#clip1_333_744)">
<path d="M201.501 591.865V619.398H172.701V591.865H201.501Z" fill="white" stroke="#263238"/>
<path d="M199.688 580.884L206.186 593.659H169.793L176.167 580.302L199.688 580.884Z" fill="#FF6B43" stroke="#263238"/>
<path d="M186.25 611.516C186.891 611.516 187.506 611.77 187.958 612.222C188.411 612.674 188.666 613.286 188.666 613.924V619.5H183.835V613.924C183.835 613.286 184.09 612.674 184.542 612.222C184.995 611.77 185.61 611.516 186.25 611.516Z" fill="#2E292B" stroke="#263238"/>
<rect x="176" y="597" width="4" height="5" rx="1" fill="#525252"/>
<rect x="176" y="604" width="4" height="5" rx="1" fill="#525252"/>
<rect x="182" y="597" width="4" height="5" rx="1" fill="#525252"/>
<rect x="182" y="604" width="4" height="5" rx="1" fill="#525252"/>
<path d="M188 598C188 597.448 188.448 597 189 597H191C191.552 597 192 597.448 192 598V601C192 601.552 191.552 602 191 602H189C188.448 602 188 601.552 188 601V598Z" fill="#525252"/>
<path d="M194 598C194 597.448 194.448 597 195 597H197C197.552 597 198 597.448 198 598V601C198 601.552 197.552 602 197 602H195C194.448 602 194 601.552 194 601V598Z" fill="#525252"/>
<path d="M188 605C188 604.448 188.448 604 189 604H191C191.552 604 192 604.448 192 605V608C192 608.552 191.552 609 191 609H189C188.448 609 188 608.552 188 608V605Z" fill="#525252"/>
<path d="M194 605C194 604.448 194.448 604 195 604H197C197.552 604 198 604.448 198 605V608C198 608.552 197.552 609 197 609H195C194.448 609 194 608.552 194 608V605Z" fill="#525252"/>
</g>
<path d="M112.693 315.602V361.857L90.6035 362.232L90.9297 315.6L112.693 315.602Z" fill="#EC644E" stroke="#263238" stroke-width="1.2"/>
<path d="M97.2043 320.891C97.5866 320.891 97.714 321.205 97.7022 321.54V321.61L97.7555 324.004L97.8296 327.207C97.8474 327.996 97.8533 328.829 97.4621 329.516C97.0709 330.203 96.1256 330.657 95.4351 330.253C94.7446 329.848 94.6913 328.998 94.6705 328.252L94.5401 323.337C94.5223 322.684 94.5194 321.986 94.8928 321.45L94.9254 321.403C94.9995 321.29 95.4766 320.664 97.1006 320.894L97.2043 320.891Z" fill="white"/>
<path d="M102.642 320.769C103.025 320.769 103.152 321.083 103.14 321.418C103.139 321.441 103.139 321.464 103.14 321.488L103.193 323.881L103.265 327.085C103.282 327.874 103.291 328.707 102.9 329.394C102.509 330.081 101.564 330.535 100.873 330.13C100.183 329.726 100.129 328.875 100.108 328.13L99.9781 323.191C99.9603 322.539 99.9574 321.84 100.331 321.304L100.372 321.269C100.446 321.153 100.923 320.53 102.547 320.76L102.642 320.769Z" fill="white"/>
<path d="M108.039 320.809C108.421 320.809 108.549 321.124 108.537 321.459C108.535 321.482 108.535 321.505 108.537 321.529L108.59 323.922L108.661 327.125C108.679 327.915 108.688 328.747 108.294 329.435C107.9 330.122 106.957 330.576 106.27 330.171C105.582 329.767 105.526 328.916 105.505 328.171L105.375 323.255C105.357 322.603 105.354 321.904 105.727 321.368L105.76 321.322C105.831 321.205 106.308 320.582 107.935 320.812C107.971 320.804 108.003 320.809 108.039 320.809Z" fill="white"/>
<path d="M97.1124 333.887C97.4947 333.887 97.6221 334.201 97.6103 334.536V334.606L97.6636 336.997L97.7377 340.2C97.7555 340.989 97.7614 341.822 97.3702 342.509C96.9791 343.197 96.0337 343.651 95.3432 343.246C94.6527 342.841 94.5994 341.991 94.5786 341.245L94.4453 336.318C94.4275 335.669 94.4245 334.967 94.7979 334.434L94.8305 334.388C94.9046 334.271 95.3817 333.648 97.0057 333.875L97.1124 333.887Z" fill="white"/>
<path d="M102.559 333.764C102.942 333.764 103.069 334.079 103.057 334.414C103.056 334.437 103.056 334.46 103.057 334.484L103.111 336.874L103.182 340.078C103.199 340.867 103.208 341.7 102.817 342.387C102.426 343.074 101.481 343.528 100.79 343.124C100.1 342.719 100.046 341.866 100.026 341.123L99.8952 336.205C99.8774 335.555 99.8744 334.854 100.248 334.321L100.28 334.274C100.354 334.158 100.829 333.534 102.456 333.762L102.559 333.764Z" fill="white"/>
<path d="M107.956 333.805C108.338 333.805 108.466 334.12 108.454 334.455C108.452 334.478 108.452 334.501 108.454 334.524L108.507 336.915L108.578 340.118C108.596 340.907 108.605 341.74 108.211 342.427C107.817 343.115 106.874 343.569 106.187 343.164C105.499 342.759 105.443 341.909 105.422 341.164L105.292 336.237C105.274 335.587 105.271 334.886 105.644 334.353L105.677 334.306C105.748 334.19 106.225 333.566 107.852 333.794L107.956 333.805Z" fill="white"/>
<path d="M97.1124 347.526C97.4947 347.526 97.6221 347.841 97.6103 348.176V348.234L97.6636 350.628L97.7377 353.831C97.7555 354.62 97.7614 355.453 97.3702 356.143C96.9791 356.833 96.0337 357.281 95.3432 356.877C94.6527 356.472 94.5994 355.622 94.5786 354.876L94.4453 349.961C94.4275 349.311 94.4245 348.61 94.7979 348.074C94.8104 348.059 94.8214 348.044 94.8305 348.027C94.9046 347.914 95.3817 347.288 97.0057 347.518L97.1124 347.526Z" fill="white"/>
<path d="M102.559 347.404C102.942 347.404 103.069 347.719 103.057 348.054C103.056 348.077 103.056 348.1 103.057 348.123L103.111 350.517L103.182 353.72C103.199 354.509 103.208 355.342 102.817 356.032C102.426 356.722 101.481 357.171 100.79 356.766C100.1 356.361 100.046 355.511 100.026 354.766L99.8952 349.85C99.8774 349.201 99.8744 348.499 100.248 347.963L100.28 347.917C100.354 347.803 100.829 347.177 102.456 347.407L102.559 347.404Z" fill="white"/>
<path d="M107.956 347.445C108.338 347.445 108.466 347.759 108.454 348.094C108.452 348.118 108.452 348.141 108.454 348.164L108.507 350.558L108.578 353.761C108.596 354.55 108.605 355.383 108.211 356.073C107.817 356.763 106.874 357.212 106.187 356.807C105.499 356.402 105.443 355.552 105.422 354.806L105.292 349.891C105.274 349.242 105.271 348.54 105.644 348.004L105.677 347.957C105.748 347.844 106.225 347.218 107.852 347.448C107.888 347.439 107.92 347.445 107.956 347.445Z" fill="white"/>
<g clip-path="url(#clip2_333_744)">
<path d="M131.685 343.116V364.013H109.943V343.116H131.685Z" fill="white" stroke="#263238"/>
<path d="M130.346 334.687L135.187 344.26H107.791L112.544 334.243L130.346 334.687Z" fill="#FF6B43" stroke="#263238"/>
<path d="M120.165 358.197C120.622 358.197 121.06 358.379 121.384 358.703C121.707 359.028 121.889 359.468 121.889 359.928V364.091H118.44V359.928C118.44 359.468 118.623 359.028 118.946 358.703C119.27 358.379 119.708 358.197 120.165 358.197Z" fill="#2E292B" stroke="#263238"/>
<rect x="112.342" y="346.94" width="3.05263" height="3.83721" rx="1" fill="#525252"/>
<rect x="112.342" y="352.312" width="3.05263" height="3.83721" rx="1" fill="#525252"/>
<rect x="116.921" y="346.94" width="3.05263" height="3.83721" rx="1" fill="#525252"/>
<rect x="116.921" y="352.312" width="3.05263" height="3.83721" rx="1" fill="#525252"/>
<path d="M121.5 347.94C121.5 347.388 121.948 346.94 122.5 346.94H123.553C124.105 346.94 124.553 347.388 124.553 347.94V349.777C124.553 350.33 124.105 350.777 123.553 350.777H122.5C121.948 350.777 121.5 350.33 121.5 349.777V347.94Z" fill="#525252"/>
<path d="M126.079 347.94C126.079 347.388 126.527 346.94 127.079 346.94H128.132C128.684 346.94 129.132 347.388 129.132 347.94V349.777C129.132 350.33 128.684 350.777 128.132 350.777H127.079C126.527 350.777 126.079 350.33 126.079 349.777V347.94Z" fill="#525252"/>
<path d="M121.5 353.312C121.5 352.76 121.948 352.312 122.5 352.312H123.553C124.105 352.312 124.553 352.76 124.553 353.312V355.149C124.553 355.702 124.105 356.149 123.553 356.149H122.5C121.948 356.149 121.5 355.702 121.5 355.149V353.312Z" fill="#525252"/>
<path d="M126.079 353.312C126.079 352.76 126.527 352.312 127.079 352.312H128.132C128.684 352.312 129.132 352.76 129.132 353.312V355.149C129.132 355.702 128.684 356.149 128.132 356.149H127.079C126.527 356.149 126.079 355.702 126.079 355.149V353.312Z" fill="#525252"/>
</g>
<path d="M97.2379 209.439L103.979 171.818C104.02 171.588 104.14 171.381 104.319 171.231C104.498 171.082 104.723 171 104.957 171C105.19 171 105.415 171.082 105.594 171.231C105.773 171.381 105.893 171.588 105.934 171.818L114.299 218.495C114.324 218.638 114.318 218.784 114.28 218.924C114.243 219.064 114.175 219.194 114.082 219.305C113.989 219.416 113.872 219.505 113.741 219.567C113.61 219.628 113.467 219.66 113.322 219.661H99.2266" fill="#8DD27F"/>
<path d="M97.2379 209.439L103.979 171.818C104.02 171.588 104.14 171.381 104.319 171.231C104.498 171.082 104.723 171 104.957 171C105.19 171 105.415 171.082 105.594 171.231C105.773 171.381 105.893 171.588 105.934 171.818L114.299 218.495C114.324 218.638 114.318 218.784 114.28 218.924C114.243 219.064 114.175 219.194 114.082 219.305C113.989 219.416 113.872 219.505 113.741 219.567C113.61 219.628 113.467 219.66 113.322 219.661H99.2266" stroke="#263238" stroke-width="1.2" stroke-linecap="round" stroke-linejoin="round"/>
<path d="M104.957 194.479V228.818" stroke="#263238" stroke-width="1.2" stroke-linecap="round" stroke-linejoin="round"/>
<path d="M101.212 203.649L104.84 207.267" stroke="#263238" stroke-width="1.2" stroke-linecap="round" stroke-linejoin="round"/>
<path d="M109.862 210.191L104.957 215.088" stroke="#263238" stroke-width="1.2" stroke-linecap="round" stroke-linejoin="round"/>
<path d="M107.408 198.143L104.957 200.593" stroke="#263238" stroke-width="1.2" stroke-linecap="round" stroke-linejoin="round"/>
<path d="M98.4115 221.37H84.8066C84.6885 221.37 84.5718 221.345 84.4648 221.295C84.3579 221.245 84.2632 221.172 84.1874 221.082C84.1117 220.991 84.0569 220.885 84.0267 220.771C83.9966 220.657 83.9919 220.538 84.013 220.422L90.8154 182.464C90.8483 182.278 90.9459 182.11 91.091 181.988C91.2362 181.866 91.4196 181.8 91.609 181.8C91.7985 181.8 91.9819 181.866 92.127 181.988C92.2721 182.11 92.3697 182.278 92.4026 182.464L99.2051 220.422C99.2262 220.538 99.2215 220.657 99.1913 220.771C99.1612 220.885 99.1063 220.991 99.0306 221.082C98.9549 221.172 98.8602 221.245 98.7532 221.295C98.6462 221.345 98.5295 221.37 98.4115 221.37Z" fill="#8DD27F" stroke="#263238" stroke-width="1.2" stroke-linecap="round" stroke-linejoin="round"/>
<path d="M91.609 200.893V228.818" stroke="#263238" stroke-width="1.2" stroke-linecap="round" stroke-linejoin="round"/>
<path d="M88.5663 208.35L91.5141 211.292" stroke="#263238" stroke-width="1.2" stroke-linecap="round" stroke-linejoin="round"/>
<path d="M95.5986 213.669L91.609 217.651" stroke="#263238" stroke-width="1.2" stroke-linecap="round" stroke-linejoin="round"/>
<path d="M93.6038 203.872L91.609 205.863" stroke="#263238" stroke-width="1.2" stroke-linecap="round" stroke-linejoin="round"/>
<path d="M605.29 320.784L611.04 288.697C611.075 288.502 611.177 288.325 611.33 288.197C611.482 288.07 611.675 288 611.873 288C612.072 288 612.265 288.07 612.417 288.197C612.57 288.325 612.672 288.502 612.707 288.697L619.842 328.508C619.863 328.63 619.857 328.754 619.825 328.874C619.793 328.993 619.736 329.104 619.656 329.198C619.577 329.293 619.478 329.369 619.366 329.422C619.254 329.474 619.132 329.501 619.008 329.502H606.986" fill="#8DD27F"/>
<path d="M605.29 320.784L611.04 288.697C611.075 288.502 611.177 288.325 611.33 288.197C611.482 288.07 611.675 288 611.873 288C612.072 288 612.265 288.07 612.417 288.197C612.57 288.325 612.672 288.502 612.707 288.697L619.842 328.508C619.863 328.63 619.857 328.754 619.825 328.874C619.793 328.993 619.736 329.104 619.656 329.198C619.577 329.293 619.478 329.369 619.366 329.422C619.254 329.474 619.132 329.501 619.008 329.502H606.986" stroke="#263238" stroke-width="1.2" stroke-linecap="round" stroke-linejoin="round"/>
<path d="M611.873 308.024V337.312" stroke="#263238" stroke-width="1.2" stroke-linecap="round" stroke-linejoin="round"/>
<path d="M608.68 315.845L611.774 318.931" stroke="#263238" stroke-width="1.2" stroke-linecap="round" stroke-linejoin="round"/>
<path d="M616.057 321.425L611.873 325.602" stroke="#263238" stroke-width="1.2" stroke-linecap="round" stroke-linejoin="round"/>
<path d="M613.964 311.15L611.873 313.239" stroke="#263238" stroke-width="1.2" stroke-linecap="round" stroke-linejoin="round"/>
<path d="M606.291 330.96H594.688C594.587 330.96 594.488 330.938 594.396 330.895C594.305 330.853 594.224 330.791 594.16 330.714C594.095 330.637 594.048 330.546 594.023 330.449C593.997 330.352 593.993 330.25 594.011 330.151L599.813 297.778C599.841 297.619 599.924 297.475 600.048 297.371C600.172 297.268 600.328 297.211 600.49 297.211C600.651 297.211 600.808 297.268 600.931 297.371C601.055 297.475 601.138 297.619 601.166 297.778L606.968 330.151C606.986 330.25 606.982 330.352 606.956 330.449C606.931 330.546 606.884 330.637 606.819 330.714C606.755 330.791 606.674 330.853 606.583 330.895C606.491 330.938 606.392 330.96 606.291 330.96Z" fill="#8DD27F" stroke="#263238" stroke-width="1.2" stroke-linecap="round" stroke-linejoin="round"/>
<path d="M600.49 313.495V337.312" stroke="#263238" stroke-width="1.2" stroke-linecap="round" stroke-linejoin="round"/>
<path d="M597.895 319.855L600.409 322.364" stroke="#263238" stroke-width="1.2" stroke-linecap="round" stroke-linejoin="round"/>
<path d="M603.892 324.391L600.49 327.788" stroke="#263238" stroke-width="1.2" stroke-linecap="round" stroke-linejoin="round"/>
<path d="M602.191 316.036L600.49 317.734" stroke="#263238" stroke-width="1.2" stroke-linecap="round" stroke-linejoin="round"/>
<path d="M418.83 144.882V216.397L392.434 217.098L392.824 143.629L418.83 144.882Z" fill="#FFF1EE" stroke="#263238" stroke-width="1.2"/>
<path d="M400.465 151.308C400.918 151.308 401.069 151.681 401.055 152.077C401.054 152.104 401.054 152.13 401.055 152.157L401.122 154.993L401.206 158.788C401.227 159.723 401.238 160.71 400.771 161.524C400.304 162.338 399.187 162.877 398.373 162.397C397.558 161.917 397.491 160.906 397.467 160.027L397.312 154.199C397.291 153.43 397.288 152.598 397.73 151.967L397.769 151.912C397.853 151.774 398.418 151.032 400.346 151.305L400.465 151.308Z" fill="#525252"/>
<path d="M406.908 151.163C407.361 151.163 407.512 151.536 407.498 151.932C407.497 151.959 407.497 151.985 407.498 152.012L407.565 154.848L407.649 158.643C407.67 159.578 407.681 160.565 407.214 161.379C406.747 162.193 405.63 162.732 404.812 162.252C403.994 161.772 403.934 160.762 403.91 159.882L403.748 154.041C403.731 153.271 403.727 152.44 404.17 151.808L404.208 151.753C404.293 151.615 404.858 150.873 406.786 151.146L406.908 151.163Z" fill="#525252"/>
<path d="M413.295 151.211C413.745 151.211 413.899 151.584 413.882 151.981V152.06L413.945 154.896L414.033 158.691C414.054 159.626 414.061 160.613 413.597 161.427C413.134 162.242 412.014 162.78 411.196 162.3C410.378 161.821 410.314 160.81 410.293 159.93L410.135 154.092C410.114 153.323 410.114 152.491 410.557 151.86L410.592 151.805C410.68 151.667 411.245 150.925 413.173 151.198L413.295 151.211Z" fill="#525252"/>
<path d="M400.367 166.265C400.82 166.265 400.971 166.637 400.957 167.034C400.955 167.062 400.955 167.089 400.957 167.117L401.024 169.953L401.108 173.748C401.129 174.683 401.139 175.67 400.672 176.484C400.205 177.298 399.089 177.837 398.274 177.357C397.46 176.878 397.393 175.87 397.368 174.987L397.214 169.163C397.193 168.39 397.189 167.562 397.632 166.927L397.67 166.872C397.755 166.734 398.32 165.996 400.248 166.268C400.304 166.258 400.325 166.265 400.367 166.265Z" fill="#525252"/>
<path d="M406.81 166.116C407.263 166.116 407.414 166.489 407.4 166.886C407.398 166.913 407.398 166.941 407.4 166.968L407.467 169.805L407.551 173.6C407.572 174.535 407.583 175.522 407.116 176.336C406.649 177.15 405.532 177.688 404.714 177.209C403.896 176.729 403.836 175.722 403.812 174.838L403.654 169.014C403.636 168.242 403.633 167.414 404.075 166.779L404.11 166.723C404.198 166.585 404.763 165.847 406.691 166.12C406.726 166.116 406.768 166.116 406.81 166.116Z" fill="#525252"/>
<path d="M413.204 166.168C413.654 166.168 413.808 166.541 413.791 166.937V167.02L413.854 169.856L413.942 173.652C413.963 174.587 413.97 175.573 413.506 176.388C413.043 177.202 411.923 177.74 411.105 177.26C410.286 176.781 410.223 175.773 410.202 174.89L410.044 169.066C410.023 168.293 410.023 167.465 410.465 166.83L410.501 166.775C410.588 166.637 411.154 165.899 413.081 166.171C413.12 166.161 413.162 166.168 413.204 166.168Z" fill="#525252"/>
<path d="M400.269 182.677C400.722 182.677 400.873 183.05 400.859 183.447C400.857 183.474 400.857 183.502 400.859 183.53L400.925 186.366L401.01 190.161C401.031 191.096 401.041 192.083 400.574 192.897C400.107 193.711 398.991 194.249 398.172 193.77C397.354 193.29 397.295 192.283 397.27 191.4L397.116 185.576C397.094 184.803 397.091 183.971 397.533 183.34L397.572 183.285C397.656 183.147 398.222 182.408 400.149 182.677C400.189 182.681 400.229 182.681 400.269 182.677Z" fill="#525252"/>
<path d="M406.712 182.543C407.165 182.543 407.316 182.915 407.302 183.312C407.3 183.34 407.3 183.367 407.302 183.395L407.368 186.231L407.453 190.026C407.474 190.961 407.484 191.948 407.017 192.762C406.55 193.576 405.434 194.115 404.616 193.635C403.797 193.156 403.738 192.148 403.713 191.265L403.552 185.437C403.534 184.665 403.531 183.833 403.973 183.202L404.008 183.146C404.096 183.008 404.661 182.27 406.589 182.539C406.63 182.544 406.671 182.545 406.712 182.543Z" fill="#525252"/>
<path d="M413.106 182.591C413.555 182.591 413.71 182.964 413.692 183.36V183.443L413.756 186.279L413.843 190.075C413.864 191.01 413.871 191.996 413.408 192.811C412.944 193.625 411.824 194.163 411.006 193.683C410.188 193.204 410.125 192.196 410.104 191.313L409.946 185.489C409.925 184.716 409.925 183.885 410.367 183.253L410.402 183.198C410.49 183.06 411.055 182.322 412.983 182.591C413.024 182.595 413.065 182.595 413.106 182.591Z" fill="#525252"/>
<path d="M400.269 197.824C400.722 197.824 400.873 198.196 400.859 198.593C400.857 198.621 400.857 198.648 400.859 198.676L400.925 201.512L401.01 205.307C401.031 206.242 401.041 207.229 400.574 208.047C400.107 208.864 398.991 209.396 398.172 208.916C397.354 208.437 397.295 207.429 397.27 206.546L397.116 200.722C397.094 199.953 397.091 199.121 397.533 198.486L397.572 198.431C397.656 198.296 398.222 197.555 400.149 197.827C400.188 197.817 400.227 197.824 400.269 197.824Z" fill="#525252"/>
<path d="M406.712 197.679C407.165 197.679 407.316 198.051 407.302 198.448C407.3 198.476 407.3 198.503 407.302 198.531L407.368 201.367L407.453 205.162C407.474 206.097 407.484 207.084 407.017 207.902C406.55 208.719 405.434 209.251 404.616 208.771C403.798 208.292 403.738 207.284 403.713 206.401L403.555 200.577C403.538 199.808 403.534 198.976 403.977 198.341C403.977 198.324 404.001 198.307 404.012 198.286C404.099 198.151 404.665 197.41 406.592 197.682C406.624 197.672 406.67 197.679 406.712 197.679Z" fill="#525252"/>
<path d="M413.106 197.727C413.555 197.727 413.71 198.1 413.692 198.497V198.579L413.756 201.415L413.843 205.211C413.864 206.146 413.871 207.132 413.408 207.95C412.944 208.768 411.824 209.299 411.006 208.82C410.188 208.34 410.125 207.333 410.104 206.449L409.946 200.618C409.925 199.849 409.925 199.018 410.367 198.383C410.367 198.365 410.392 198.348 410.402 198.328C410.49 198.193 411.055 197.451 412.983 197.724C413.022 197.72 413.064 197.727 413.106 197.727Z" fill="#525252"/>
<path d="M394.999 161.889V216.914L368.604 217.362L368.992 161.886L394.999 161.889Z" fill="#EC644E" stroke="#263238" stroke-width="1.2"/>
<path d="M376.536 168.266C376.989 168.266 377.14 168.638 377.126 169.035V169.118L377.189 171.954L377.277 175.749C377.298 176.684 377.305 177.671 376.841 178.485C376.378 179.299 375.258 179.838 374.44 179.358C373.622 178.879 373.558 177.871 373.534 176.988L373.379 171.164C373.358 170.391 373.355 169.563 373.797 168.928L373.836 168.873C373.923 168.738 374.489 167.997 376.413 168.269L376.536 168.266Z" fill="white"/>
<path d="M382.979 168.121C383.432 168.121 383.583 168.493 383.569 168.89C383.567 168.918 383.567 168.945 383.569 168.973L383.632 171.809L383.716 175.604C383.738 176.539 383.748 177.526 383.285 178.34C382.821 179.155 381.701 179.693 380.883 179.213C380.065 178.734 380.002 177.726 379.977 176.843L379.822 170.991C379.801 170.219 379.798 169.39 380.24 168.756L380.289 168.714C380.377 168.576 380.943 167.838 382.867 168.11L382.979 168.121Z" fill="white"/>
<path d="M389.373 168.169C389.826 168.169 389.977 168.542 389.963 168.939C389.961 168.966 389.961 168.994 389.963 169.021L390.026 171.858L390.111 175.653C390.132 176.588 390.142 177.574 389.675 178.389C389.208 179.203 388.092 179.741 387.277 179.262C386.462 178.782 386.396 177.775 386.371 176.891L386.217 171.067C386.195 170.295 386.192 169.467 386.634 168.832L386.673 168.776C386.757 168.638 387.323 167.9 389.25 168.173C389.292 168.162 389.331 168.169 389.373 168.169Z" fill="white"/>
<path d="M376.427 183.664C376.88 183.664 377.031 184.037 377.017 184.434V184.516L377.08 187.349L377.168 191.144C377.189 192.079 377.196 193.066 376.733 193.88C376.269 194.694 375.149 195.233 374.331 194.753C373.513 194.274 373.449 193.266 373.425 192.383L373.267 186.545C373.246 185.776 373.242 184.944 373.685 184.313L373.723 184.258C373.811 184.12 374.376 183.381 376.301 183.65L376.427 183.664Z" fill="white"/>
<path d="M382.881 183.519C383.334 183.519 383.485 183.892 383.471 184.289C383.469 184.316 383.469 184.344 383.471 184.371L383.534 187.204L383.618 190.999C383.639 191.934 383.65 192.921 383.186 193.735C382.723 194.55 381.603 195.088 380.785 194.608C379.966 194.129 379.903 193.118 379.879 192.238L379.724 186.411C379.703 185.641 379.7 184.81 380.142 184.178L380.181 184.123C380.268 183.985 380.83 183.247 382.758 183.516L382.881 183.519Z" fill="white"/>
<path d="M389.275 183.567C389.728 183.567 389.879 183.94 389.865 184.337C389.863 184.364 389.863 184.392 389.865 184.42L389.928 187.252L390.012 191.048C390.033 191.983 390.044 192.969 389.577 193.784C389.11 194.598 387.993 195.136 387.179 194.656C386.364 194.177 386.297 193.169 386.273 192.286L386.118 186.448C386.097 185.679 386.094 184.847 386.536 184.216L386.575 184.161C386.659 184.023 387.224 183.285 389.152 183.554L389.275 183.567Z" fill="white"/>
<path d="M376.427 199.825C376.88 199.825 377.031 200.198 377.017 200.594V200.663L377.08 203.499L377.168 207.295C377.189 208.23 377.196 209.216 376.733 210.034C376.269 210.852 375.149 211.383 374.331 210.904C373.513 210.424 373.449 209.416 373.425 208.533L373.267 202.709C373.246 201.94 373.242 201.108 373.685 200.474C373.7 200.457 373.713 200.438 373.723 200.418C373.811 200.284 374.376 199.542 376.301 199.815L376.427 199.825Z" fill="white"/>
<path d="M382.881 199.68C383.334 199.68 383.485 200.053 383.471 200.449C383.469 200.477 383.469 200.505 383.471 200.532L383.534 203.368L383.618 207.164C383.639 208.099 383.65 209.085 383.186 209.903C382.723 210.721 381.603 211.252 380.785 210.772C379.966 210.293 379.903 209.285 379.879 208.402L379.724 202.578C379.703 201.809 379.7 200.977 380.142 200.342L380.181 200.287C380.268 200.153 380.83 199.411 382.758 199.683L382.881 199.68Z" fill="white"/>
<path d="M389.275 199.728C389.728 199.728 389.879 200.101 389.865 200.498C389.863 200.525 389.863 200.553 389.865 200.58L389.928 203.416L390.012 207.212C390.033 208.147 390.044 209.133 389.577 209.951C389.11 210.769 387.993 211.3 387.179 210.821C386.364 210.341 386.297 209.333 386.273 208.45L386.118 202.626C386.097 201.857 386.094 201.025 386.536 200.391L386.575 200.335C386.659 200.201 387.224 199.459 389.152 199.732C389.194 199.721 389.233 199.728 389.275 199.728Z" fill="white"/>
<path d="M451.643 221.558H401.357C401.004 220.611 400.911 219.589 401.087 218.595C401.399 216.948 402.594 215.477 404.123 215.108C404.909 214.933 405.734 215.035 406.451 215.397C407.169 215.759 407.734 216.358 408.047 217.088C408.124 215.569 408.425 214.069 408.941 212.635C409.434 211.228 410.42 210.04 411.723 209.283C412.199 209.001 412.764 208.903 413.309 209.007C413.846 209.201 414.314 209.542 414.658 209.989C415.424 210.834 416.102 211.751 416.684 212.728C416.962 211.005 417.453 209.321 418.143 207.713C418.894 206.154 420.095 204.761 421.655 204.21C422.778 203.856 423.981 203.827 425.119 204.127C426.94 204.493 428.563 205.498 429.684 206.954C430.906 208.643 431.27 210.857 431.556 212.967C431.746 210.847 433.561 209.277 435.438 208.539C435.887 208.336 436.377 208.236 436.871 208.248C437.294 208.318 437.699 208.468 438.062 208.692C438.425 208.916 438.74 209.209 438.987 209.553C440.334 211.188 441.024 213.251 440.928 215.353C441.056 214.542 441.445 213.794 442.038 213.218C442.631 212.641 443.397 212.267 444.223 212.151C445.034 212.095 445.847 212.226 446.597 212.534C447.348 212.842 448.014 213.317 448.544 213.923C449.663 215.192 450.475 216.694 450.919 218.315C451.254 219.373 451.496 220.458 451.643 221.558Z" fill="#B6DB6B" stroke="#263238" stroke-miterlimit="10" stroke-linejoin="round"/>
<path d="M446.791 221.145H406.643C406.645 221.126 406.645 221.107 406.643 221.088C406.602 220.794 406.642 220.494 406.759 220.219C406.876 219.945 407.066 219.707 407.309 219.529C407.607 219.364 407.945 219.281 408.287 219.29C408.773 219.291 409.253 219.39 409.698 219.582C410.143 219.773 410.543 220.052 410.874 220.402C411.165 219.696 411.461 218.989 411.752 218.287C412.222 217.149 412.767 215.928 413.867 215.32C414.452 215.039 415.1 214.913 415.749 214.953C416.398 214.993 417.025 215.198 417.569 215.548C418.643 216.25 419.554 217.166 420.246 218.235C420.462 217.068 420.804 215.927 421.266 214.831C421.484 214.234 421.847 213.699 422.324 213.272C423.165 212.628 424.366 212.685 425.392 212.981C426.508 213.315 427.536 213.889 428.399 214.661C429.263 215.433 429.941 216.384 430.384 217.445C430.791 216.409 431.437 215.48 432.273 214.732C432.698 214.362 433.214 214.106 433.77 213.989C434.326 213.873 434.903 213.9 435.446 214.067C436.906 214.587 437.519 216.271 437.958 217.741C439.14 217.106 440.501 216.864 441.835 217.052C443.169 217.241 444.405 217.849 445.357 218.786C445.991 219.47 446.478 220.273 446.791 221.145Z" fill="#92C25A"/>
<path d="M189.016 494.956H144.317C144.003 494.114 143.921 493.206 144.077 492.323C144.355 490.858 145.417 489.551 146.776 489.223C147.475 489.067 148.208 489.158 148.846 489.479C149.484 489.801 149.986 490.334 150.264 490.983C150.332 489.632 150.6 488.299 151.058 487.024C151.497 485.774 152.374 484.718 153.531 484.045C153.954 483.794 154.457 483.707 154.942 483.8C155.418 483.972 155.834 484.275 156.141 484.673C156.821 485.424 157.424 486.239 157.941 487.107C158.189 485.575 158.625 484.078 159.239 482.649C159.906 481.264 160.973 480.026 162.36 479.536C163.358 479.221 164.427 479.195 165.44 479.462C167.058 479.787 168.5 480.681 169.497 481.975C170.583 483.476 170.907 485.444 171.161 487.32C171.33 485.435 172.943 484.04 174.612 483.384C175.011 483.203 175.446 483.115 175.886 483.125C176.262 483.187 176.621 483.321 176.944 483.52C177.267 483.719 177.546 483.979 177.766 484.285C178.963 485.738 179.577 487.572 179.492 489.44C179.605 488.72 179.951 488.055 180.478 487.542C181.005 487.03 181.686 486.698 182.42 486.594C183.141 486.545 183.864 486.661 184.531 486.935C185.198 487.208 185.79 487.631 186.261 488.17C187.256 489.298 187.977 490.632 188.372 492.073C188.67 493.014 188.885 493.979 189.016 494.956Z" fill="#B6DB6B" stroke="#263238" stroke-miterlimit="10" stroke-linejoin="round"/>
<path d="M184.703 494.589H149.016C149.018 494.573 149.018 494.555 149.016 494.539C148.979 494.277 149.015 494.01 149.119 493.766C149.223 493.522 149.392 493.311 149.608 493.153C149.873 493.006 150.174 492.932 150.478 492.94C150.909 492.941 151.336 493.029 151.732 493.199C152.127 493.37 152.483 493.618 152.777 493.929C153.035 493.301 153.298 492.672 153.557 492.049C153.975 491.037 154.46 489.951 155.438 489.411C155.957 489.162 156.533 489.049 157.11 489.085C157.687 489.12 158.245 489.303 158.728 489.614C159.682 490.238 160.493 491.052 161.107 492.003C161.3 490.965 161.604 489.951 162.015 488.977C162.208 488.446 162.531 487.97 162.955 487.591C163.702 487.018 164.77 487.069 165.682 487.332C166.674 487.629 167.587 488.139 168.355 488.826C169.122 489.512 169.725 490.357 170.12 491.3C170.481 490.379 171.055 489.554 171.798 488.889C172.176 488.56 172.635 488.332 173.129 488.229C173.623 488.125 174.136 488.149 174.619 488.298C175.916 488.76 176.461 490.256 176.852 491.564C177.903 490.999 179.112 490.784 180.298 490.951C181.484 491.118 182.582 491.659 183.429 492.492C183.992 493.1 184.425 493.814 184.703 494.589Z" fill="#92C25A"/>
<path d="M145.643 235.636H95.3565C95.0037 234.689 94.9106 233.667 95.0868 232.674C95.3988 231.026 96.5941 229.556 98.1226 229.187C98.9092 229.011 99.7337 229.113 100.451 229.475C101.169 229.837 101.734 230.436 102.047 231.167C102.124 229.647 102.425 228.147 102.941 226.713C103.434 225.307 104.42 224.119 105.723 223.361C106.199 223.08 106.764 222.981 107.309 223.085C107.846 223.279 108.314 223.62 108.658 224.068C109.424 224.912 110.102 225.83 110.684 226.806C110.962 225.083 111.453 223.399 112.143 221.791C112.894 220.232 114.095 218.84 115.655 218.289C116.778 217.934 117.981 217.906 119.119 218.206C120.94 218.571 122.563 219.576 123.684 221.033C124.906 222.722 125.27 224.936 125.556 227.045C125.746 224.925 127.561 223.356 129.438 222.618C129.887 222.414 130.377 222.315 130.871 222.327C131.294 222.396 131.699 222.547 132.062 222.771C132.425 222.995 132.74 223.287 132.987 223.631C134.334 225.266 135.024 227.33 134.928 229.431C135.056 228.621 135.445 227.872 136.038 227.296C136.631 226.72 137.397 226.346 138.223 226.23C139.034 226.174 139.847 226.305 140.597 226.612C141.348 226.92 142.014 227.396 142.544 228.002C143.663 229.271 144.475 230.772 144.919 232.393C145.254 233.452 145.496 234.537 145.643 235.636Z" fill="#B6DB6B" stroke="#263238" stroke-miterlimit="10" stroke-linejoin="round"/>
<path d="M140.791 235.224H100.643C100.645 235.205 100.645 235.186 100.643 235.167C100.602 234.872 100.642 234.572 100.759 234.298C100.876 234.023 101.066 233.785 101.309 233.608C101.607 233.442 101.945 233.359 102.287 233.369C102.773 233.37 103.253 233.469 103.698 233.66C104.143 233.851 104.543 234.131 104.874 234.481C105.165 233.774 105.461 233.067 105.752 232.366C106.222 231.227 106.767 230.006 107.867 229.398C108.452 229.117 109.1 228.991 109.749 229.031C110.398 229.071 111.026 229.276 111.569 229.627C112.643 230.329 113.554 231.244 114.246 232.314C114.462 231.147 114.804 230.006 115.266 228.91C115.484 228.313 115.847 227.777 116.324 227.351C117.165 226.706 118.366 226.763 119.392 227.059C120.508 227.394 121.536 227.968 122.399 228.74C123.263 229.512 123.941 230.463 124.384 231.524C124.791 230.487 125.437 229.559 126.273 228.811C126.698 228.44 127.214 228.184 127.77 228.068C128.326 227.951 128.904 227.978 129.446 228.146C130.906 228.665 131.519 230.349 131.958 231.82C133.14 231.184 134.501 230.942 135.835 231.131C137.169 231.319 138.405 231.927 139.357 232.864C139.991 233.549 140.478 234.351 140.791 235.224Z" fill="#92C25A"/>
<defs>
<clipPath id="clip0_333_744">
<rect width="38" height="43" fill="white" transform="translate(302 390)"/>
</clipPath>
<clipPath id="clip1_333_744">
<rect width="38" height="43" fill="white" transform="translate(169 577)"/>
</clipPath>
<clipPath id="clip2_333_744">
<rect width="29" height="33" fill="white" transform="translate(107 331.591)"/>
</clipPath>
</defs>
</svg>
