<svg width="32" height="32" viewBox="0 0 32 32" fill="none" xmlns="http://www.w3.org/2000/svg">
<g clip-path="url(#clip0_473_322)">
<path d="M12.0013 9.69531H20.206C21.9596 9.69531 23.6414 10.3919 24.8814 11.6319C26.1213 12.8719 26.818 14.5537 26.818 16.3073V16.6251H5.38928V16.3073C5.38928 14.5537 6.0859 12.8719 7.32589 11.6319C8.56588 10.3919 10.2477 9.69531 12.0013 9.69531Z" fill="#C6E5E8"/>
<path d="M27.512 17.626H4.69517C4.22912 17.626 3.85132 18.0038 3.85132 18.4698V18.5538C3.85132 19.0199 4.22912 19.3977 4.69517 19.3977H27.512C27.978 19.3977 28.3558 19.0199 28.3558 18.5538V18.4698C28.3558 18.0038 27.978 17.626 27.512 17.626Z" fill="#EC6351"/>
<path d="M26.818 20.3984H5.38928L5.48061 22.8387H26.723L26.818 20.3984Z" fill="#C6E5E8"/>
<path d="M16.5639 9.69514H14.6497V5.41379C14.6497 4.16445 16.2205 3.28042 17.1776 2.85667L22.8142 0L23.68 1.70596L17.9703 4.60282C17.4495 4.81686 16.9727 5.12523 16.5639 5.51242V9.69514Z" fill="#EC6351"/>
<path d="M27.2745 27.6619L27.5558 25.0208C27.5674 24.8699 27.5477 24.7183 27.4978 24.5755C27.448 24.4327 27.3691 24.3018 27.2661 24.1909C27.1632 24.0801 27.0384 23.9918 26.8997 23.9315C26.7609 23.8713 26.6112 23.8404 26.4599 23.8408H5.73628C5.58501 23.8404 5.43529 23.8713 5.29654 23.9315C5.15779 23.9918 5.03301 24.0801 4.93007 24.1909C4.82712 24.3018 4.74824 24.4327 4.69838 24.5755C4.64853 24.7183 4.62877 24.8699 4.64037 25.0208L5.33445 31.5962C14.2332 33.0538 22.1384 30.2957 27.2745 27.6619Z" fill="#EC6351"/>
</g>
<defs>
<clipPath id="clip0_473_322">
<rect width="32" height="32" fill="white"/>
</clipPath>
</defs>
</svg>
