<svg width="288" height="122" viewBox="0 0 288 122" fill="none" xmlns="http://www.w3.org/2000/svg">
<rect width="288" height="122" fill="#FF643C"/>
<g clip-path="url(#clip0_627_63)">
<path d="M59.3939 56.2028C58.5015 56.2028 57.6456 55.8505 57.0146 55.2233C56.3836 54.5961 56.0291 53.7455 56.0291 52.8585V47.3302C56.0291 45.8349 56.7077 43.0283 61.2496 41.0142L68.4777 37.3632C68.8715 37.1639 69.301 37.0436 69.7416 37.0095C70.1822 36.9753 70.6252 37.0279 71.0453 37.1641C71.4655 37.3004 71.8544 37.5177 72.1899 37.8036C72.5254 38.0895 72.8009 38.4384 73.0006 38.8302L74.1254 41.033C74.5276 41.8245 74.5976 42.7422 74.32 43.5849C74.0424 44.4276 73.4399 45.1265 72.6446 45.5283L65.2552 49.2642V52.8632C65.2552 53.7494 64.9013 54.5993 64.2713 55.2264C63.6413 55.8534 62.7866 56.2063 61.895 56.2076L59.3939 56.2028Z" fill="white"/>
<path d="M85.5773 82.4151C84.6224 82.4518 83.671 82.2789 82.7908 81.9087C81.9107 81.5386 81.1234 80.9803 80.4849 80.2736C79.4051 79.0107 78.8123 77.4073 78.8123 75.75C78.8123 74.0927 79.4051 72.4894 80.4849 71.2264C81.0138 70.6174 81.6591 70.1188 82.3833 69.7595C81.7825 69.1038 81.3223 68.3334 81.0307 67.4953C80.591 66.1062 80.3888 64.6537 80.4327 63.1981V52.684C80.398 51.645 80.6163 50.6131 81.0691 49.676C81.5219 48.7389 82.1959 47.9245 83.0335 47.3019C84.4093 46.3259 86.0657 45.8179 87.7557 45.8538C89.4701 45.839 91.1403 46.3935 92.5017 47.4293C93.4292 48.135 94.1447 49.0795 94.5709 50.1604H100.949C101.364 49.0302 102.103 48.0459 103.076 47.3302C104.463 46.3709 106.114 45.8587 107.804 45.8629C109.494 45.8671 111.142 46.3876 112.525 47.3538C113.35 47.9762 114.013 48.7855 114.46 49.7143C114.906 50.6431 115.123 51.6645 115.092 52.6934V68.0755C115.094 68.9353 114.816 69.7726 114.3 70.4623C114.583 70.6953 114.846 70.9509 115.088 71.2264C116.164 72.4922 116.753 74.097 116.748 75.7544C116.744 77.4117 116.147 79.0135 115.064 80.2736C114.425 80.9798 113.638 81.5378 112.758 81.9078C111.878 82.2779 110.926 82.4511 109.972 82.4151H85.5773Z" fill="white"/>
<path d="M126.369 83.2264C125.298 83.2252 124.272 82.8017 123.516 82.0491C122.76 81.2964 122.335 80.2761 122.335 79.2123V76.7123H117.38C116.442 76.7484 115.506 76.5806 114.64 76.2205C113.774 75.8604 112.997 75.3167 112.363 74.6274C111.276 73.3788 110.675 71.784 110.67 70.1326C110.665 68.4813 111.256 66.8828 112.335 65.6274C112.458 65.4906 112.587 65.3538 112.734 65.2123C112.111 63.9339 111.797 62.5287 111.818 61.1085V60.6368C111.78 58.9022 112.268 57.1964 113.218 55.7406C112.503 54.6895 112.126 53.4478 112.136 52.1793C112.13 50.6419 112.686 49.1549 113.702 47.9953C114.28 47.3309 114.998 46.8007 115.805 46.4421C116.612 46.0835 117.488 45.9052 118.372 45.9198H137.973C140.82 45.9198 143.032 46.6651 144.532 48.1368C145.576 49.1557 146.819 51.0189 146.819 54.0802V60C146.818 60.1862 146.806 60.3721 146.781 60.5566C147.241 61.3827 147.519 62.2968 147.595 63.238C147.671 64.1792 147.544 65.1257 147.222 66.0142C148.156 67.2764 148.631 68.8162 148.57 70.3817C148.509 71.9472 147.915 73.4457 146.886 74.6321C146.251 75.3201 145.474 75.8625 144.608 76.2217C143.742 76.581 142.807 76.7484 141.869 76.7123H136.919V79.1934C136.922 79.7229 136.819 80.2477 136.616 80.7376C136.414 81.2274 136.116 81.6725 135.739 82.0474C135.363 82.4223 134.916 82.7195 134.424 82.9218C133.931 83.1242 133.404 83.2277 132.871 83.2264H126.369Z" fill="white"/>
<path d="M155.533 83.1415C152.21 83.1415 149.501 82.1981 147.531 80.3113C146.536 79.3547 145.752 78.2036 145.228 76.9305C144.703 75.6575 144.45 74.2903 144.484 72.9151C144.433 70.4994 145.256 68.1456 146.805 66.283C144.555 64.3302 143.369 61.6179 143.369 58.3727V56.7076C143.369 53.1651 144.793 50.2406 147.507 48.2547C149.88 46.5142 152.889 45.6321 156.458 45.6321C160.027 45.6321 163.055 46.5047 165.423 48.2264C165.642 48.3868 165.855 48.5519 166.059 48.7264C166.41 48.1296 166.852 47.5903 167.369 47.1274C168.743 45.9385 170.504 45.2836 172.326 45.2836C174.148 45.2836 175.909 45.9385 177.283 47.1274C178.025 47.7953 178.612 48.6153 179.004 49.5306C179.395 50.446 179.582 51.435 179.552 52.4293V65.7312C179.555 66.5787 179.286 67.405 178.783 68.0896C179.541 69.5903 179.925 71.2502 179.903 72.9293C179.94 74.3154 179.683 75.6937 179.15 76.9751C178.617 78.2565 177.82 79.4123 176.809 80.3679C174.83 82.2123 172.153 83.1462 168.855 83.1462L155.533 83.1415Z" fill="white"/>
<path d="M190.112 83.2264C189.041 83.2264 188.013 82.8035 187.256 82.0507C186.498 81.2979 186.073 80.2769 186.073 79.2123V76.3962H181.123C180.184 76.4327 179.249 76.265 178.383 75.9049C177.516 75.5448 176.739 75.0009 176.106 74.3113C175.016 73.0621 174.414 71.4654 174.409 69.8119C174.404 68.1584 174.996 66.5579 176.078 65.3019C176.226 65.1353 176.385 64.9778 176.553 64.8302L176.491 64.6604C176.07 63.3924 175.874 62.0612 175.912 60.7264V52.5236C175.877 51.4852 176.095 50.4538 176.548 49.5175C177.001 48.5811 177.675 47.7675 178.513 47.1462C179.885 46.1674 181.541 45.6576 183.23 45.6934C184.944 45.6794 186.614 46.2338 187.976 47.2689C188.474 47.6515 188.915 48.1025 189.286 48.6085H197.354C197.742 48.0503 198.224 47.5622 198.778 47.1651C200.163 46.2013 201.814 45.6844 203.505 45.6844C205.196 45.6844 206.846 46.2013 208.232 47.1651C209.055 47.7889 209.717 48.5985 210.162 49.5271C210.608 50.4556 210.825 51.4764 210.795 52.5047V65.0661C210.795 65.184 210.795 65.3019 210.795 65.4151C211.834 66.6745 212.392 68.259 212.37 69.888C212.347 71.517 211.746 73.0856 210.671 74.3161C210.038 75.0041 209.262 75.5467 208.396 75.906C207.531 76.2653 206.597 76.4326 205.659 76.3962H200.648V79.1934C200.648 79.7203 200.544 80.2422 200.342 80.7292C200.14 81.2162 199.843 81.6588 199.468 82.0316C199.093 82.4044 198.648 82.7001 198.159 82.9019C197.669 83.1037 197.144 83.2076 196.614 83.2076L190.112 83.2264Z" fill="white"/>
<path d="M217.33 83.0472C215.807 83.1 214.292 82.8231 212.887 82.2359C211.309 81.5293 210.074 80.2327 209.451 78.6274C208.956 77.2776 208.725 75.8464 208.768 74.4104V71.1085C208.766 70.5701 208.819 70.0328 208.925 69.5047C208.696 69.3436 208.477 69.1687 208.27 68.9812C207.585 68.3387 207.047 67.5579 206.692 66.6914C206.336 65.8248 206.172 64.8926 206.21 63.9576C206.198 62.5327 206.658 61.1436 207.52 60.0047C208.327 58.9567 209.416 58.157 210.662 57.6981C211.296 57.4781 211.849 57.0719 212.247 56.533C212.403 56.2972 212.764 55.5472 212.807 53.7029V52.4623C212.809 51.4899 213.027 50.5299 213.445 49.6509C213.863 48.7719 214.472 47.9956 215.227 47.3774C216.586 46.3039 218.276 45.7306 220.011 45.7547C221.796 45.73 223.53 46.3501 224.89 47.5C225.63 48.1389 226.221 48.9311 226.62 49.8209C227.019 50.7108 227.218 51.6768 227.201 52.651V53.0378C227.496 53.1651 227.776 53.2972 228.056 53.4434V52.4293C228.024 51.4353 228.21 50.4465 228.601 49.5311C228.992 48.6157 229.578 47.7955 230.319 47.1274C231.694 45.9385 233.454 45.2836 235.276 45.2836C237.099 45.2836 238.859 45.9385 240.234 47.1274C240.975 47.7955 241.561 48.6157 241.952 49.5311C242.343 50.4465 242.529 51.4353 242.497 52.4293V53.8444C243.354 54.2674 244.094 54.8925 244.652 55.6651C245.552 56.92 246.027 58.4263 246.009 59.967C246.023 61.5305 245.523 63.0557 244.586 64.3113C244.036 65.0522 243.315 65.6508 242.483 66.0566V71.75C242.484 72.1067 242.438 72.4619 242.346 72.8066C243.063 73.7876 243.487 74.9497 243.571 76.1595C243.654 77.3693 243.392 78.578 242.816 79.6469C242.24 80.7159 241.373 81.6018 240.313 82.2032C239.254 82.8046 238.045 83.0971 236.826 83.0472H217.33Z" fill="white"/>
<path d="M111.979 73.8444C112.433 74.3686 112.677 75.0398 112.667 75.7312C112.683 76.4235 112.438 77.0967 111.979 77.6179C111.715 77.89 111.394 78.1009 111.039 78.2354C110.684 78.37 110.303 78.4249 109.924 78.3962H85.5773C85.1976 78.4246 84.8162 78.3696 84.4602 78.2351C84.1043 78.1006 83.7825 77.8899 83.5176 77.6179C83.0602 77.0962 82.8163 76.4229 82.8342 75.7312C82.8226 75.0404 83.0657 74.3693 83.5176 73.8444C83.7802 73.5685 84.1012 73.3543 84.4575 73.2172C84.8138 73.0802 85.1963 73.0237 85.5773 73.0519H109.924C110.304 73.0234 110.686 73.0797 111.042 73.2169C111.397 73.354 111.718 73.5684 111.979 73.8444ZM84.4525 52.684C84.4213 52.277 84.4916 51.8686 84.6572 51.495C84.8227 51.1215 85.0785 50.7943 85.4017 50.5425C86.0891 50.0707 86.9115 49.8324 87.7462 49.8632C88.5685 49.8488 89.3714 50.1115 90.0243 50.6085C90.3431 50.8631 90.5958 51.1901 90.7609 51.5619C90.9261 51.9338 90.999 52.3396 90.9735 52.7453V54.1604H104.504V52.684C104.474 52.2771 104.545 51.8691 104.711 51.4958C104.876 51.1224 105.131 50.7951 105.453 50.5425C106.133 50.0696 106.95 49.831 107.779 49.8632C108.606 49.8354 109.419 50.0809 110.09 50.5613C110.411 50.8108 110.666 51.1348 110.831 51.5049C110.997 51.8751 111.068 52.28 111.039 52.684V68.0755H89.0514C88.0598 68.1266 87.0681 67.9757 86.1373 67.6321C85.8223 67.4947 85.5401 67.2925 85.3095 67.0388C85.0788 66.7851 84.9048 66.4858 84.799 66.1604C84.5188 65.1987 84.3954 64.1986 84.4336 63.1981L84.4525 52.684ZM91.2108 62.7217C91.3167 62.8078 91.4388 62.8722 91.57 62.911C91.7012 62.9499 91.8388 62.9625 91.9749 62.9481H104.504V59.1132H90.9592V62C90.947 62.1293 90.9609 62.2598 91 62.3837C91.0391 62.5076 91.1027 62.6225 91.187 62.7217H91.2108Z" fill="#EC6351"/>
<path d="M143.867 68.2689C144.299 68.7875 144.536 69.4398 144.536 70.1132C144.536 70.7866 144.299 71.4389 143.867 71.9576C143.607 72.2187 143.292 72.4205 142.946 72.5492C142.599 72.6779 142.228 72.7303 141.86 72.7028H132.871V79.1934H126.369V72.7028H117.38C117.011 72.7303 116.64 72.6779 116.294 72.5492C115.947 72.4205 115.633 72.2187 115.372 71.9576C114.94 71.4389 114.704 70.7866 114.704 70.1132C114.704 69.4398 114.94 68.7875 115.372 68.2689C115.63 68.0028 115.943 67.7968 116.29 67.6655C116.638 67.5342 117.01 67.4809 117.38 67.5095H141.86C142.23 67.4809 142.602 67.5342 142.949 67.6655C143.296 67.7968 143.61 68.0028 143.867 68.2689ZM117.29 64.6557C116.809 64.2018 116.432 63.6497 116.186 63.0373C115.941 62.425 115.831 61.7669 115.866 61.1085V60.6368C115.831 59.9924 115.941 59.3484 116.187 58.7513C116.433 58.1542 116.81 57.6189 117.29 57.184C118.239 56.3632 119.611 55.9481 121.419 55.9481H136.207V55.151C136.207 54.6793 135.951 54.4245 135.438 54.4245H118.372C118.073 54.4362 117.776 54.3826 117.5 54.2677C117.225 54.1528 116.978 53.9793 116.777 53.7595C116.377 53.3283 116.16 52.7608 116.17 52.1745C116.166 51.5975 116.377 51.0395 116.763 50.6085C116.962 50.3812 117.21 50.2016 117.488 50.0831C117.767 49.9647 118.069 49.9105 118.372 49.9245H137.973C139.735 49.9245 140.977 50.2783 141.698 50.9859C142.42 51.6934 142.785 52.7264 142.785 54.0755V60H123.63C122.998 60 122.689 60.2642 122.705 60.7925C122.694 60.9004 122.709 61.0093 122.748 61.1108C122.787 61.2122 122.848 61.3034 122.928 61.3774C123.136 61.5109 123.383 61.5723 123.63 61.5519H141.38C141.688 61.5275 141.997 61.5735 142.284 61.6863C142.572 61.7992 142.829 61.9759 143.037 62.2028C143.39 62.6438 143.582 63.1909 143.582 63.7547C143.582 64.3185 143.39 64.8657 143.037 65.3066C142.828 65.5328 142.571 65.7086 142.284 65.8206C141.997 65.9326 141.688 65.9778 141.38 65.9528H121.4C119.615 65.9528 118.244 65.5236 117.285 64.6557H117.29Z" fill="#EC6351"/>
<path d="M149.904 51.4812C151.575 50.2547 153.759 49.6415 156.458 49.6415C159.173 49.6415 161.37 50.25 163.036 51.4623C164.702 52.6746 165.537 54.4245 165.537 56.7076V58.3821C165.537 60.6462 164.703 62.39 163.036 63.6132C161.369 64.8365 159.185 65.4481 156.487 65.4481C153.769 65.4481 151.575 64.8412 149.904 63.6274C148.233 62.4135 147.4 60.6651 147.403 58.3821V56.7076C147.403 54.4497 148.237 52.7076 149.904 51.4812ZM150.322 68.4245C151.511 67.2862 153.248 66.717 155.533 66.717H168.855C171.104 66.717 172.835 67.2815 174.047 68.4104C174.656 68.9904 175.134 69.6933 175.447 70.4719C175.761 71.2505 175.903 72.0868 175.864 72.9245C175.902 73.7622 175.759 74.5982 175.446 75.3767C175.132 76.1552 174.655 76.8582 174.047 77.4387C172.835 78.5645 171.104 79.1289 168.855 79.1321H155.533C153.261 79.1321 151.521 78.5613 150.312 77.4198C149.71 76.8389 149.238 76.1382 148.928 75.3636C148.617 74.5889 148.474 73.7578 148.509 72.9245C148.476 72.09 148.62 71.2579 148.933 70.4825C149.245 69.7071 149.718 69.0059 150.322 68.4245ZM154.432 60.1132C155.006 60.5682 155.724 60.8042 156.458 60.7783C157.205 60.8048 157.938 60.5694 158.527 60.1132C158.796 59.9029 159.011 59.6328 159.155 59.3247C159.299 59.0167 159.369 58.6793 159.358 58.3396V56.7689C159.371 56.4305 159.303 56.0938 159.162 55.7858C159.02 55.4778 158.807 55.2071 158.542 54.9953C157.969 54.541 157.252 54.3051 156.52 54.3302C155.769 54.2984 155.03 54.5287 154.432 54.9812C154.164 55.1946 153.951 55.4678 153.81 55.7785C153.669 56.0891 153.604 56.4284 153.62 56.7689V58.3208C153.605 58.6618 153.67 59.0018 153.811 59.3131C153.952 59.6245 154.165 59.8985 154.432 60.1132ZM155.533 74.2642C155.989 74.6322 156.57 74.8128 157.156 74.7689H167.227C167.814 74.8125 168.396 74.6321 168.855 74.2642C169.034 74.093 169.175 73.886 169.269 73.6567C169.362 73.4274 169.405 73.1811 169.396 72.934C169.405 72.6841 169.361 72.435 169.268 72.2027C169.175 71.9704 169.034 71.76 168.855 71.5849C168.401 71.2081 167.817 71.0219 167.227 71.0661H157.156C156.567 71.0217 155.985 71.2079 155.533 71.5849C155.353 71.76 155.212 71.9704 155.119 72.2027C155.026 72.435 154.982 72.6841 154.992 72.934C154.982 73.1811 155.025 73.4274 155.119 73.6567C155.212 73.886 155.353 74.093 155.533 74.2642ZM170.065 50.1274C170.697 49.5948 171.5 49.3025 172.329 49.3025C173.158 49.3025 173.96 49.5948 174.592 50.1274C174.906 50.423 175.15 50.7829 175.309 51.1821C175.468 51.5812 175.538 52.0101 175.513 52.4387V65.7406H169.139V52.4293C169.114 52.0002 169.184 51.571 169.344 51.1717C169.504 50.7724 169.75 50.4127 170.065 50.1179V50.1274Z" fill="#EC6351"/>
<path d="M207.634 67.9481C208.08 68.457 208.318 69.1131 208.303 69.7877C208.325 70.4678 208.086 71.1307 207.634 71.6415C207.37 71.9041 207.051 72.1061 206.7 72.2332C206.349 72.3603 205.975 72.4095 205.602 72.3774H196.614V79.1934H190.112V72.3774H181.123C180.754 72.4048 180.383 72.3524 180.037 72.2237C179.69 72.0951 179.376 71.8932 179.115 71.6321C178.663 71.1213 178.424 70.4583 178.446 69.7783C178.431 69.1036 178.669 68.4476 179.115 67.9387C179.374 67.6754 179.688 67.4718 180.035 67.3422C180.382 67.2126 180.753 67.1602 181.123 67.1887H205.602C205.977 67.1579 206.353 67.21 206.704 67.3414C207.055 67.4727 207.373 67.6799 207.634 67.9481ZM179.97 52.5236C179.937 52.1172 180.007 51.7092 180.173 51.3362C180.339 50.9633 180.595 50.637 180.919 50.3868C181.604 49.9143 182.425 49.6744 183.259 49.7028C184.082 49.6877 184.887 49.9504 185.541 50.4481C185.86 50.7037 186.113 51.0315 186.278 51.4041C186.443 51.7767 186.516 52.1833 186.491 52.5896V52.6179H200.23V52.5236C200.196 52.1197 200.262 51.7137 200.422 51.3412C200.583 50.9686 200.833 50.6409 201.151 50.3868C201.832 49.9129 202.65 49.6727 203.481 49.7028C204.306 49.6778 205.117 49.9231 205.788 50.401C206.108 50.6512 206.362 50.9754 206.527 51.3453C206.692 51.7152 206.764 52.1197 206.737 52.5236V65.066H184.151C183.249 65.1129 182.348 64.9682 181.507 64.6415C181.222 64.5104 180.966 64.3233 180.754 64.0915C180.543 63.8597 180.381 63.5879 180.278 63.2925C180.025 62.4614 179.912 61.5942 179.946 60.7264L179.97 52.5236ZM186.723 59.7783C186.941 59.9476 187.216 60.027 187.492 60H200.24V57.467H186.476V59.0472C186.451 59.3105 186.531 59.5731 186.699 59.7783H186.723Z" fill="#66BBD1"/>
<path d="M215.607 58.6981C216.373 57.522 216.776 55.8695 216.817 53.7406V52.5661C216.808 52.1735 216.889 51.7841 217.054 51.4271C217.218 51.0701 217.462 50.7548 217.766 50.5047C218.408 50.0085 219.204 49.7515 220.016 49.7783C220.835 49.7523 221.634 50.0278 222.261 50.5519C222.563 50.8124 222.801 51.1374 222.959 51.5025C223.117 51.8676 223.19 52.2634 223.172 52.6604V53.7925C223.168 54.5452 223.114 55.2968 223.011 56.0425C225.431 56.3161 227.274 57.3019 228.54 59C229.805 60.6981 230.384 63.1227 230.277 66.2736H224.107C224.134 65.9993 224.145 65.7237 224.14 65.4481C224.19 64.3915 223.954 63.3408 223.457 62.4057C223.233 62.0318 222.935 61.7072 222.581 61.4518C222.227 61.1963 221.824 61.0153 221.397 60.9198C220.759 62.0918 219.93 63.1503 218.943 64.0519C218.065 64.8689 217.058 65.5381 215.963 66.033C215.053 66.4591 214.064 66.6921 213.058 66.717C212.306 66.7515 211.569 66.4944 211.003 66C210.733 65.7356 210.523 65.4162 210.388 65.0637C210.252 64.7113 210.195 64.334 210.22 63.9576C210.203 63.4083 210.37 62.8689 210.695 62.4246C211.063 61.9627 211.558 61.6156 212.119 61.4246C213.539 60.8987 214.758 59.9456 215.607 58.6981ZM214.572 78.5755C214.259 78.4371 213.976 78.2382 213.741 77.9904C213.506 77.7427 213.322 77.4509 213.201 77.1321C212.901 76.2504 212.766 75.3216 212.802 74.3915V71.0896C212.774 70.6673 212.843 70.2441 213.003 69.852C213.164 69.4599 213.411 69.1089 213.728 68.8255C214.398 68.2897 215.241 68.0147 216.101 68.0519C216.938 68.0193 217.757 68.3023 218.393 68.8444C218.699 69.1301 218.938 69.4795 219.092 69.8677C219.246 70.2559 219.312 70.6732 219.285 71.0896V73.4481C219.259 73.6567 219.317 73.8671 219.446 74.033C219.625 74.1518 219.84 74.2036 220.054 74.1793H236.85C237.21 74.1504 237.573 74.1958 237.915 74.3127C238.258 74.4296 238.572 74.6154 238.838 74.8585C239.057 75.089 239.227 75.3602 239.34 75.6566C239.452 75.9529 239.504 76.2684 239.493 76.5849C239.518 77.2387 239.283 77.8758 238.838 78.3585C238.575 78.6074 238.262 78.7983 237.919 78.9186C237.576 79.0389 237.212 79.0859 236.85 79.0566H217.344C216.398 79.0949 215.454 78.9375 214.572 78.5944V78.5755ZM233.01 50.0991C233.642 49.566 234.443 49.2733 235.272 49.2733C236.1 49.2733 236.902 49.566 237.533 50.0991C237.848 50.3938 238.094 50.7535 238.254 51.1528C238.414 51.5521 238.484 51.9814 238.459 52.4104V57.2123H239.432C239.795 57.1788 240.161 57.2349 240.497 57.3756C240.833 57.5163 241.129 57.7373 241.358 58.0189C241.763 58.5876 241.971 59.271 241.952 59.967C241.971 60.6652 241.757 61.35 241.344 61.9151C241.117 62.192 240.825 62.4099 240.495 62.5504C240.164 62.6909 239.804 62.7497 239.446 62.7217H238.482V71.75H232.085V52.4104C232.063 51.9845 232.134 51.5588 232.294 51.163C232.454 50.7672 232.698 50.4106 233.01 50.1179V50.0991Z" fill="#66BBD1"/>
<path d="M78.5628 61.3962V61.8066C78.5628 62.2458 78.4758 62.6807 78.3067 63.0864C78.1376 63.4922 77.8897 63.8609 77.5773 64.1714C77.2648 64.482 76.8939 64.7283 76.4856 64.8964C76.0774 65.0644 75.6398 65.151 75.1979 65.151H47.3582C46.4657 65.151 45.6099 64.7986 44.9788 64.1714C44.3478 63.5442 43.9933 62.6936 43.9933 61.8066V61.3962C43.9933 59.8355 44.3027 58.29 44.9038 56.8481C45.5049 55.4062 46.3859 54.0961 47.4965 52.9927C48.6072 51.8893 49.9256 51.0141 51.3766 50.4173C52.8276 49.8204 54.3827 49.5135 55.9531 49.5142H66.6078C69.7784 49.5142 72.8192 50.766 75.0613 52.9943C77.3033 55.2227 78.5628 58.2449 78.5628 61.3962Z" fill="white"/>
<path d="M80.5609 64.2925V64.1887C80.5609 61.7399 78.5635 59.7547 76.0997 59.7547H46.4612C43.9973 59.7547 42 61.7399 42 64.1887V64.2925C42 66.7413 43.9973 68.7264 46.4612 68.7264H76.0997C78.5635 68.7264 80.5609 66.7413 80.5609 64.2925Z" fill="white"/>
<path d="M47.4816 73.1745C46.6118 73.174 45.7759 72.8386 45.1495 72.2388C44.523 71.639 44.1546 70.8215 44.1215 69.9576L43.9981 66.8113C43.9795 66.3616 44.0527 65.9128 44.2133 65.492C44.3739 65.0711 44.6185 64.6869 44.9325 64.3626C45.2464 64.0382 45.6232 63.7803 46.0401 63.6045C46.457 63.4287 46.9053 63.3386 47.3582 63.3396H75.2217C75.6709 63.345 76.1146 63.4397 76.5264 63.6182C76.9383 63.7967 77.31 64.0554 77.6196 64.3789C77.9293 64.7025 78.1706 65.0845 78.3293 65.5022C78.488 65.92 78.561 66.3651 78.5438 66.8113L78.4205 69.9576C78.3873 70.8215 78.0189 71.639 77.3924 72.2388C76.766 72.8386 75.9302 73.174 75.0603 73.1745H47.4816Z" fill="white"/>
<path d="M53.8032 85C51.4392 85.0023 49.0789 84.813 46.7459 84.434C46.0188 84.3151 45.351 83.9623 44.8452 83.4297C44.3393 82.8971 44.0234 82.2142 43.9458 81.4859L43.0441 72.9953C43.0441 72.9245 43.0441 72.8538 43.0441 72.783C43.017 72.1344 43.1205 71.4868 43.3487 70.8785C43.5769 70.2702 43.9252 69.7133 44.373 69.2406C44.8169 68.7805 45.3495 68.4139 45.939 68.1627C46.5285 67.9114 47.1629 67.7807 47.8043 67.7783H74.747C75.3879 67.7795 76.022 67.9096 76.6109 68.1609C77.1998 68.4123 77.7314 68.7795 78.1736 69.2406C78.6261 69.7118 78.9785 70.2687 79.2101 70.8781C79.4416 71.4875 79.5475 72.1369 79.5215 72.7878C79.5215 72.8585 79.5215 72.9293 79.5215 73L79.1608 76.4057C79.1019 76.9588 78.9053 77.4886 78.5888 77.9473C78.2722 78.406 77.8458 78.7792 77.3478 79.033C72.0039 81.7547 63.5846 85 53.8221 85H53.8032Z" fill="white"/>
<path d="M55.9531 52.8585H66.6077C67.7378 52.8554 68.8574 53.0739 69.9023 53.5016C70.9473 53.9293 71.8971 54.5577 72.6973 55.3508C73.4974 56.1439 74.1323 57.0861 74.5655 58.1235C74.9987 59.1609 75.2216 60.273 75.2216 61.3962V61.8066H47.3582V61.3962C47.3582 60.2746 47.5805 59.164 48.0125 58.1279C48.4445 57.0917 49.0777 56.1503 49.8758 55.3575C50.674 54.5646 51.6215 53.9358 52.6643 53.507C53.7071 53.0782 54.8246 52.8579 55.9531 52.8585Z" fill="#C6E5E8"/>
<path d="M76.1044 63.0991H46.4612C45.8557 63.0991 45.3649 63.5869 45.3649 64.1887V64.2972C45.3649 64.899 45.8557 65.3868 46.4612 65.3868H76.1044C76.7099 65.3868 77.2007 64.899 77.2007 64.2972V64.1887C77.2007 63.5869 76.7099 63.0991 76.1044 63.0991Z" fill="#EC6351"/>
<path d="M75.2027 66.684H47.3582L47.4815 69.8302H75.0793L75.2027 66.684Z" fill="#C6E5E8"/>
<path d="M61.8808 52.8585H59.3939V47.3302C59.3939 45.717 61.4347 44.5802 62.6734 44.0283L70.0011 40.3444L71.1259 42.5472L63.7032 46.283C63.0286 46.5605 62.4109 46.9586 61.8808 47.4576V52.8585Z" fill="#EC6351"/>
<path d="M75.7959 76.0566L76.1708 72.6462C76.1859 72.4515 76.1602 72.2558 76.0955 72.0713C76.0307 71.8869 75.9282 71.7178 75.7945 71.5747C75.6607 71.4316 75.4986 71.3176 75.3184 71.2398C75.1381 71.162 74.9436 71.1221 74.7471 71.1227H47.8138C47.6173 71.1221 47.4227 71.162 47.2425 71.2398C47.0622 71.3176 46.9001 71.4316 46.7664 71.5747C46.6326 71.7178 46.5301 71.8869 46.4654 72.0713C46.4006 72.2558 46.3749 72.4515 46.39 72.6462L47.2965 81.1368C58.8529 83.0236 69.1184 79.4528 75.7959 76.0566Z" fill="#EC6351"/>
<path d="M82.8342 63.5944H77.6848V73.1698H82.8342V63.5944Z" fill="white"/>
</g>
<defs>
<clipPath id="clip0_627_63">
<rect width="204" height="48" fill="white" transform="translate(42 37)"/>
</clipPath>
</defs>
</svg>
