<svg width="281" height="216" viewBox="0 0 281 216" fill="none" xmlns="http://www.w3.org/2000/svg">
<g clip-path="url(#clip0_209_754)">
<rect width="280.392" height="216" fill="white"/>
<g clip-path="url(#clip1_209_754)">
<path d="M124.543 -0.0688476H92.4097C91.9811 -0.0689171 91.5568 0.0164439 91.1616 0.18225C90.7663 0.348056 90.408 0.590982 90.1077 0.896842C89.8073 1.2027 89.5709 1.56536 89.4122 1.96364C89.2536 2.36192 89.1758 2.78784 89.1835 3.21651V23.871C89.1767 24.2991 89.2551 24.7244 89.4141 25.1219C89.5732 25.5194 89.8098 25.8813 90.11 26.1865C90.4103 26.4917 90.7683 26.734 91.1631 26.8994C91.5579 27.0648 91.9817 27.15 92.4097 27.1499H102.734L101.675 34.7275C101.65 34.8807 101.67 35.0378 101.733 35.1798C101.795 35.3218 101.898 35.4425 102.028 35.5273C102.158 35.6121 102.309 35.6573 102.464 35.6574C102.62 35.6575 102.771 35.6125 102.901 35.5279L115.4 27.137H124.536C124.964 27.1371 125.388 27.0519 125.783 26.8865C126.178 26.7211 126.536 26.4787 126.836 26.1736C127.136 25.8684 127.373 25.5065 127.532 25.109C127.691 24.7115 127.769 24.2862 127.762 23.8581V3.2036C127.768 2.77655 127.69 2.35255 127.531 1.95619C127.372 1.55984 127.135 1.199 126.836 0.89461C126.536 0.590215 126.18 0.348314 125.786 0.182929C125.392 0.0175438 124.97 -0.0680353 124.543 -0.0688476Z" fill="white" stroke="#263238" stroke-width="2.03774" stroke-linecap="round" stroke-linejoin="round"/>
<path d="M99.7655 12.6792C99.2917 12.6779 98.8283 12.8173 98.4338 13.0796C98.0393 13.342 97.7314 13.7155 97.5493 14.153C97.3671 14.5904 97.3187 15.0721 97.4104 15.537C97.502 16.002 97.7295 16.4293 98.064 16.7648C98.3986 17.1003 98.8251 17.3291 99.2896 17.422C99.7542 17.5149 100.236 17.4679 100.674 17.2868C101.111 17.1057 101.486 16.7988 101.749 16.4049C102.012 16.011 102.153 15.5477 102.153 15.0738C102.153 14.4399 101.902 13.8318 101.454 13.3829C101.006 12.934 100.399 12.6809 99.7655 12.6792Z" fill="#EC644E"/>
<path d="M108.521 12.6792C108.048 12.6779 107.584 12.8173 107.19 13.0796C106.795 13.342 106.487 13.7155 106.305 14.153C106.123 14.5904 106.075 15.0721 106.166 15.537C106.258 16.002 106.485 16.4293 106.82 16.7648C107.154 17.1003 107.581 17.3291 108.046 17.422C108.51 17.5149 108.992 17.4679 109.43 17.2868C109.867 17.1057 110.242 16.7988 110.505 16.4049C110.768 16.011 110.909 15.5477 110.909 15.0738C110.909 14.4399 110.657 13.8318 110.21 13.3829C109.762 12.934 109.155 12.6809 108.521 12.6792Z" fill="#EC644E"/>
<path d="M117.277 12.6792C116.804 12.6792 116.341 12.8196 115.947 13.0828C115.554 13.3459 115.247 13.7199 115.066 14.1574C114.884 14.595 114.837 15.0765 114.929 15.541C115.022 16.0055 115.25 16.4322 115.585 16.7671C115.919 17.102 116.346 17.3301 116.81 17.4224C117.275 17.5148 117.756 17.4674 118.193 17.2862C118.631 17.1049 119.005 16.798 119.268 16.4042C119.531 16.0104 119.671 15.5474 119.671 15.0738C119.671 14.7594 119.609 14.448 119.489 14.1574C119.369 13.8669 119.192 13.6029 118.97 13.3806C118.748 13.1582 118.484 12.9818 118.193 12.8615C117.903 12.7411 117.592 12.6792 117.277 12.6792Z" fill="#EC644E"/>
<path d="M189.486 270.151H210.418C211.115 266.168 212.353 254.189 214.502 248.793C220.677 233.25 215.147 220.006 214.902 215.81L215.483 211.544C204.23 213.441 192.216 213.661 185.092 210.672L185.899 219.98C187.834 231.153 189.273 265.859 189.486 270.151Z" fill="#FCD8C3"/>
<path d="M189.486 270.151H193.151C193.183 270.035 193.203 269.912 193.229 269.802C192.97 264.529 191.551 230.888 189.647 219.98L189.002 211.879C187.68 211.589 186.384 211.185 185.131 210.672L185.899 219.98C187.834 231.153 189.273 265.859 189.486 270.151Z" fill="white"/>
<path d="M189.486 270.151H210.418C211.115 266.168 212.353 254.189 214.502 248.793C220.677 233.25 215.147 220.006 214.902 215.81L215.483 211.544C204.23 213.441 192.216 213.661 185.092 210.672L185.899 219.98C187.834 231.153 189.273 265.859 189.486 270.151Z" stroke="#263238" stroke-width="2.03774" stroke-linecap="round" stroke-linejoin="round"/>
<path d="M222.845 271.28L242.577 267.853C242.112 263.851 241.976 251.716 242.938 244.223C245.203 226.531 235.305 215.681 234.343 211.588L232.827 202.855C232.839 203.034 232.839 203.213 232.827 203.391C226.897 207.58 217.115 211.976 207.301 214.783L208.534 219.682C212.011 229.442 220.335 263.057 222.845 271.28Z" fill="#FCD8C3"/>
<path d="M222.845 271.28L226.981 270.563C224.471 262.334 216.147 228.725 212.644 218.966L211.411 214.06L211.663 213.983C211.618 213.809 211.573 213.634 211.54 213.454C210.127 213.925 208.701 214.37 207.275 214.777L208.508 219.676C212.011 229.441 220.335 263.057 222.845 271.28Z" fill="white"/>
<path d="M222.845 271.28L242.577 267.853C242.112 263.851 241.976 251.716 242.938 244.223C245.203 226.531 235.305 215.681 234.343 211.588L232.827 202.855C232.839 203.034 232.839 203.213 232.827 203.391C226.897 207.58 217.115 211.976 207.301 214.783L208.534 219.682C212.011 229.442 220.335 263.057 222.845 271.28Z" stroke="#263238" stroke-width="2.03774" stroke-linecap="round" stroke-linejoin="round"/>
<path d="M180.666 145.843C180.614 146.256 178.911 151.329 177.717 169.963C177.214 177.709 181.072 208.794 181.234 218.327C183.814 230.591 225.11 225.872 241.286 219.205C242.067 216.972 239.931 201.875 243.138 173.294C244.564 160.598 239.002 148.308 237.395 145.178C201.772 134.405 181.24 146.695 180.666 145.843Z" fill="#263238"/>
<path d="M201.584 73.5067C192.583 73.5067 180.724 77.2826 175.652 80.9939C170.581 84.7053 161.799 111.078 161.799 111.078L152.656 99.3119C152.656 99.3119 145.61 116.416 140.958 120.037C136.305 123.658 160.786 141.241 166.232 141.537C171.678 141.834 181.259 124.639 181.259 124.639C181.259 124.639 178.969 140.343 181.259 145.158C183.55 149.974 234.55 147.592 238.808 145.158C243.067 142.725 237.84 134.379 238.808 132.069C239.776 129.758 252.287 127.621 253.158 120.315C254.223 111.433 241.544 83.0723 230.762 77.9151C219.98 72.7579 201.584 73.5067 201.584 73.5067Z" fill="#EC644E"/>
<path d="M201.584 73.5067C192.583 73.5067 180.724 77.2826 175.652 80.9939C170.581 84.7053 161.799 111.078 161.799 111.078L152.656 99.3119C152.656 99.3119 145.61 116.416 140.958 120.037C136.305 123.658 160.786 141.241 166.232 141.537C171.678 141.834 181.259 124.639 181.259 124.639C181.259 124.639 178.969 140.343 181.259 145.158C183.55 149.974 234.55 147.592 238.808 145.158C243.067 142.725 237.84 134.379 238.808 132.069C239.776 129.758 252.745 127.66 253.158 120.315C253.726 110.259 241.544 83.0723 230.762 77.9151C219.98 72.7579 201.584 73.5067 201.584 73.5067Z" stroke="#263238" stroke-width="2.03774" stroke-linecap="round" stroke-linejoin="round"/>
<path d="M183.098 98.2339C183.098 98.2339 179.356 105.457 179.601 109.639C179.846 113.822 181.259 124.639 181.259 124.639" stroke="#263238" stroke-width="2.03774" stroke-linecap="round" stroke-linejoin="round"/>
<path d="M178.788 99.2734L180.421 104.179" stroke="#263238" stroke-width="2.03774" stroke-linecap="round" stroke-linejoin="round"/>
<path d="M152.649 104.108C152.649 104.23 152.649 104.359 152.649 104.482C152.656 104.505 152.656 104.53 152.649 104.553C152.648 104.726 152.637 104.898 152.617 105.069C152.617 105.282 152.617 105.489 152.559 105.715C152.556 105.732 152.556 105.749 152.559 105.766C152.559 105.947 152.514 106.115 152.488 106.296C152.488 106.296 152.488 106.296 152.488 106.334L152.43 106.709C152.43 106.806 152.43 106.909 152.378 107.006C152.381 107.055 152.381 107.105 152.378 107.154C152.378 107.257 152.34 107.361 152.314 107.464C152.288 107.567 152.249 107.767 152.217 107.922C152.14 108.264 152.049 108.613 151.953 108.942C151.856 109.271 151.778 109.529 151.675 109.82C151.572 110.11 151.54 110.214 151.462 110.407C150.953 111.741 150.304 113.018 149.526 114.215C149.397 114.409 149.268 114.603 149.126 114.79C148.984 114.977 148.817 115.229 148.649 115.435C147.081 117.281 144.777 118.817 142.842 120.308C140.654 119.444 123.22 112.421 126.233 107.148C126.349 106.952 126.483 106.769 126.633 106.599C126.067 105.847 125.589 105.033 125.207 104.172C124.916 103.498 124.887 102.739 125.126 102.044C125.364 101.349 125.854 100.769 126.498 100.416L126.898 100.19C127.201 100.119 127.369 100.048 127.343 99.9896C127.317 99.9315 127.343 99.9509 127.343 99.9315C127.214 99.7314 126.82 99.6217 126.317 99.5636C125.787 99.3067 125.371 98.8623 125.149 98.3163C124.927 97.7702 124.916 97.1614 125.117 96.6074C125.994 94.6259 128.401 95.3165 128.563 95.3682L129.447 95.4972C129.659 95.4972 129.885 95.5553 130.092 95.5941C130.924 95.7361 138.693 97.9693 138.693 97.9693C138.693 97.9693 138.648 97.7822 138.583 97.4594C138.583 97.3045 138.519 97.1109 138.48 96.9043C138.48 96.8527 138.48 96.8011 138.48 96.7494C138.306 95.678 138.054 93.0768 138.028 92.6637V92.6056C138.028 92.5346 138.028 92.4572 138.028 92.3926V92.2958C138.031 92.2636 138.031 92.2312 138.028 92.199V91.9731C138.033 91.9129 138.033 91.8525 138.028 91.7923C138.028 91.7923 138.028 91.7923 138.028 91.7601C138.028 91.7278 138.028 91.7601 138.028 91.7213C138.028 91.6826 138.028 91.5471 138.067 91.4632C138.08 91.3345 138.104 91.2071 138.138 91.0823C138.138 90.992 138.19 90.9016 138.215 90.8177C138.233 90.7779 138.248 90.7369 138.26 90.6951C138.278 90.6523 138.3 90.6112 138.325 90.5724C138.364 90.5079 138.402 90.4369 138.441 90.3853C138.481 90.3315 138.527 90.2818 138.577 90.2368H138.615C138.648 90.2137 138.682 90.1942 138.719 90.1787C138.758 90.1539 138.802 90.1364 138.848 90.1271C139.493 89.9657 140.254 90.2949 141.1 90.9339C144.442 93.4576 148.771 100.803 148.771 100.803L152.649 104.108Z" fill="#FCD8C3"/>
<path d="M147.5 102.72C147.5 102.72 152.23 107.606 152.256 107.451C152.281 107.349 152.301 107.246 152.314 107.141C152.328 107.093 152.338 107.043 152.346 106.993C152.346 106.896 152.378 106.793 152.391 106.696C152.404 106.599 152.436 106.444 152.456 106.322C152.453 106.309 152.453 106.296 152.456 106.283C152.456 106.115 152.507 105.934 152.52 105.754C152.524 105.737 152.524 105.719 152.52 105.702C152.553 105.495 152.572 105.289 152.585 105.057C152.598 104.824 152.585 104.708 152.617 104.54C152.62 104.514 152.62 104.488 152.617 104.463V104.088L148.701 100.687C148.701 100.687 141.977 89.2236 138.796 90.0304C138.751 90.0409 138.707 90.0583 138.667 90.0821C138.633 90.0976 138.6 90.1171 138.57 90.1401H138.532C138.479 90.1848 138.432 90.2346 138.39 90.2886C138.344 90.3475 138.303 90.4101 138.267 90.4758L138.209 90.5984C138.197 90.6403 138.182 90.6813 138.164 90.7211C138.164 90.805 138.106 90.8953 138.086 90.9857C138.053 91.111 138.027 91.2382 138.009 91.3665C138.009 91.4504 138.009 91.5408 137.977 91.6247V91.6634C137.977 91.799 137.944 92.2056 137.944 92.2121C137.944 92.2185 140.048 92.3412 142.655 95.5232C144.396 97.8349 146.013 100.237 147.5 102.72Z" fill="white"/>
<path d="M152.649 104.108C152.649 104.23 152.649 104.359 152.649 104.482C152.656 104.505 152.656 104.53 152.649 104.553C152.648 104.726 152.637 104.898 152.617 105.069C152.617 105.282 152.617 105.489 152.559 105.715C152.556 105.732 152.556 105.749 152.559 105.766C152.559 105.947 152.514 106.115 152.488 106.296C152.488 106.296 152.488 106.296 152.488 106.334L152.43 106.709C152.43 106.806 152.43 106.909 152.378 107.006C152.381 107.055 152.381 107.105 152.378 107.154C152.378 107.257 152.34 107.361 152.314 107.464C152.288 107.567 152.249 107.767 152.217 107.922C152.14 108.264 152.049 108.613 151.953 108.942C151.856 109.271 151.778 109.529 151.675 109.82C151.572 110.11 151.54 110.214 151.462 110.407C150.969 111.748 150.319 113.027 149.526 114.215C149.397 114.409 149.268 114.603 149.126 114.79C148.984 114.977 148.81 115.222 148.649 115.435C147 117.379 145.053 119.048 142.88 120.379C140.687 119.508 123.246 112.421 126.259 107.148C126.375 106.952 126.509 106.769 126.659 106.599C126.093 105.847 125.614 105.033 125.233 104.172C124.942 103.498 124.913 102.739 125.151 102.044C125.39 101.349 125.879 100.769 126.524 100.416L126.924 100.19C127.214 100.015 127.201 100.022 127.369 99.9896C127.537 99.9573 127.485 99.9573 127.369 99.9315C127.008 99.868 126.662 99.7436 126.343 99.5636C125.813 99.3067 125.397 98.8623 125.175 98.3163C124.953 97.7702 124.942 97.1614 125.143 96.6074C126.02 94.6259 128.427 95.3165 128.588 95.3682L129.472 95.4972C129.685 95.4972 129.911 95.5553 130.118 95.5941C130.95 95.7361 138.719 97.9693 138.719 97.9693C138.719 97.9693 138.673 97.7822 138.609 97.4594C138.609 97.3045 138.544 97.1109 138.506 96.9043C138.506 96.8527 138.506 96.8011 138.506 96.7494C138.269 95.516 138.122 94.267 138.067 93.0123C138.057 92.8963 138.057 92.7797 138.067 92.6637V92.6056C138.067 92.5346 138.067 92.4572 138.067 92.3926V92.2958C138.07 92.2636 138.07 92.2312 138.067 92.199V91.9731V91.7923C138.067 91.7923 138.067 91.7923 138.067 91.7601C138.067 91.7278 138.067 91.7601 138.067 91.7213C138.067 91.6826 138.067 91.5471 138.106 91.4632C138.119 91.3345 138.142 91.2071 138.177 91.0823C138.177 90.992 138.228 90.9016 138.254 90.8177C138.272 90.7779 138.287 90.7369 138.299 90.6951C138.317 90.6523 138.338 90.6112 138.364 90.5724C138.402 90.5079 138.441 90.4369 138.48 90.3853C138.52 90.3315 138.565 90.2818 138.615 90.2368H138.654C138.686 90.2137 138.721 90.1942 138.757 90.1787C138.797 90.1539 138.841 90.1364 138.886 90.1271C139.532 89.9657 140.293 90.2949 141.138 90.9339C144.481 93.4576 148.81 100.803 148.81 100.803L152.649 104.108Z" stroke="#263238" stroke-width="2.03774" stroke-linecap="round" stroke-linejoin="round"/>
<path d="M121.4 92.9799L137.609 82.3751L132.563 75.4365L116.355 86.0478L121.4 92.9799Z" fill="#9ABAE3" stroke="#263238" stroke-width="2.03774" stroke-linecap="round" stroke-linejoin="round"/>
<path d="M147.287 107.432L133.421 85.0928L125.42 90.3338L141.777 110.737L147.287 107.432Z" fill="white" stroke="#263238" stroke-width="2.03774" stroke-linecap="round" stroke-linejoin="round"/>
<path d="M125.769 79.6195C126.683 78.6022 127.157 77.2634 127.085 75.8971C127.014 74.5308 126.404 73.2487 125.388 72.3323C124.357 71.4219 123.008 70.9559 121.635 71.0356C120.262 71.1154 118.977 71.7346 118.058 72.7583C117.143 73.7756 116.67 75.1144 116.741 76.4807C116.813 77.847 117.423 79.1291 118.439 80.0455C119.469 80.9574 120.818 81.4246 122.192 81.3447C123.565 81.2649 124.851 80.6447 125.769 79.6195Z" fill="#263238" stroke="#263238" stroke-width="2.03774" stroke-linecap="round" stroke-linejoin="round"/>
<path d="M127.498 95.1616C130.911 94.5806 136.325 95.5811 136.118 98.5631C136.015 100.099 134.886 99.641 134.725 100.37C135.014 100.375 135.299 100.443 135.559 100.569C135.82 100.694 136.05 100.875 136.234 101.098C136.418 101.322 136.552 101.582 136.625 101.862C136.699 102.142 136.711 102.435 136.66 102.72C136.564 103.604 134.357 104.269 134.079 104.656C134.079 104.656 136.06 104.992 136.151 106.205C136.241 107.528 134.615 109.058 129.885 111.543" fill="#FCD8C3"/>
<path d="M127.498 95.1616C130.911 94.5806 136.325 95.5811 136.118 98.5631C136.015 100.099 134.886 99.641 134.725 100.37C135.014 100.375 135.299 100.443 135.559 100.569C135.82 100.694 136.05 100.875 136.234 101.098C136.418 101.322 136.552 101.582 136.625 101.862C136.699 102.142 136.711 102.435 136.66 102.72C136.564 103.604 134.357 104.269 134.079 104.656C134.079 104.656 136.06 104.992 136.151 106.205C136.241 107.528 134.615 109.058 129.885 111.543" stroke="#263238" stroke-width="2.03774" stroke-linecap="round" stroke-linejoin="round"/>
<path d="M127.324 99.9765C129.793 99.6321 132.306 99.7657 134.725 100.37" stroke="#263238" stroke-width="2.03774" stroke-linecap="round" stroke-linejoin="round"/>
<path d="M126.562 106.612L134.086 104.682" stroke="#263238" stroke-width="2.03774" stroke-linecap="round" stroke-linejoin="round"/>
<path d="M130.492 95.0908C129.272 99.8414 135.931 99.2927 135.931 99.2927" stroke="#263238" stroke-width="2.03774" stroke-linecap="round" stroke-linejoin="round"/>
<path d="M130.705 105.625C130.13 110.214 135.667 107.619 135.667 107.619" stroke="#263238" stroke-width="2.03774" stroke-linecap="round" stroke-linejoin="round"/>
<path d="M152.656 99.312C153.404 101.984 153.649 102.036 153.404 104.25C153.159 106.464 151.617 103.211 151.617 103.211L152.449 99.8026" fill="#263238"/>
<path d="M143.313 121.064C143.313 121.064 141.274 122.51 140.396 121.961C140.627 120.991 141.113 120.1 141.803 119.379L143.313 121.064Z" fill="#263238"/>
<path d="M224.878 99.8027L229.188 112.396" stroke="#263238" stroke-width="2.03774" stroke-linecap="round" stroke-linejoin="round"/>
<path d="M213.083 105.896H184.731V144.92H213.083V105.896Z" fill="#FCFCFC" stroke="#263238" stroke-width="2.03774" stroke-linecap="round" stroke-linejoin="round"/>
<path d="M196.339 139.64C196.435 139.724 189.241 139.492 187.099 136.051C185.06 132.727 190.325 133.895 190.325 133.895C190.325 133.895 182.653 133.353 183.698 130.326C184.847 127.021 188.938 131.985 194.596 128.609C195.855 127.854 190.28 127.602 190.28 127.602C184.395 125.872 188.344 121.148 199.487 123.31C201.055 123.613 206.998 120.728 206.411 120.98C210.598 126.053 212.863 135.122 213.108 139.627C209.769 141.149 206.298 142.365 202.739 143.261C191.983 145.927 188.854 141.054 190.183 138.814L196.339 139.64Z" fill="#FCD8C3" stroke="#263238" stroke-width="2.03774" stroke-linecap="round" stroke-linejoin="round"/>
<path d="M194.035 134.173L190.299 133.896" stroke="#263238" stroke-width="2.03774" stroke-linecap="round" stroke-linejoin="round"/>
<path d="M184.06 129.623C187.931 130.113 190.428 133.566 189.654 133.805" stroke="#263238" stroke-width="2.03774" stroke-linecap="round" stroke-linejoin="round"/>
<path d="M190.047 139.833C195.461 140.001 196.629 143.706 196.629 143.706" stroke="#263238" stroke-width="2.03774" stroke-linecap="round" stroke-linejoin="round"/>
<path d="M187.912 125.633C194.042 126.44 193.887 122.735 193.887 122.735" stroke="#263238" stroke-width="2.03774" stroke-linecap="round" stroke-linejoin="round"/>
<path d="M229.568 113.551L203.449 120.735C203.449 120.735 210.818 139.918 212.141 141.538C213.463 143.158 240.099 130.939 240.099 130.939" fill="#EC644E"/>
<path d="M229.568 113.551L203.449 120.735C203.449 120.735 210.818 139.918 212.141 141.538C213.463 143.158 240.099 130.939 240.099 130.939" stroke="#263238" stroke-width="2.03774" stroke-linecap="round" stroke-linejoin="round"/>
<path d="M194.106 74.2169C193.358 79.103 192.699 89.1011 200.713 88.333C208.727 87.5649 219.954 75.6369 219.948 74.7333C214.98 74.0427 205.243 73.4424 205.243 73.4424L194.106 74.2169Z" fill="#FCD8C3" stroke="#263238" stroke-width="2.03774" stroke-linecap="round" stroke-linejoin="round"/>
<path d="M204.875 78.3674C204.457 78.5903 204.026 78.7886 203.585 78.9612C201.004 79.9552 198.894 79.6066 198.681 77.9736C198.442 76.0889 200.829 73.1973 204.017 71.5191C205.895 70.538 207.624 70.1895 208.785 70.4541C209.153 70.5049 209.493 70.6752 209.755 70.9388C210.016 71.2025 210.183 71.5447 210.231 71.9128C210.456 73.8105 208.063 76.6956 204.875 78.3674Z" fill="#263238" stroke="#263238" stroke-width="2.03774" stroke-linecap="round" stroke-linejoin="round"/>
<path d="M215.309 62.3207C215.341 62.5853 215.36 62.8564 215.373 63.1211C215.376 63.1619 215.376 63.2029 215.373 63.2437C215.373 63.4631 215.373 63.702 215.373 63.9279C215.373 64.1602 215.373 64.3861 215.328 64.6121C215.284 65.1465 215.202 65.6771 215.083 66.1999C215.065 66.3023 215.042 66.4036 215.012 66.5032C214.973 66.6517 214.928 66.8131 214.889 66.9744C214.851 67.1358 214.799 67.2455 214.76 67.394C214.594 67.8947 214.396 68.3841 214.167 68.8591C214.089 69.0399 213.992 69.2206 213.902 69.3949L213.715 69.737C213.489 70.1113 213.257 70.4728 213.012 70.8084C212.954 70.8981 212.892 70.9844 212.824 71.0666C212.804 71.0994 212.781 71.1297 212.754 71.1569C212.586 71.3829 212.418 71.5894 212.237 71.8024C211.876 72.2188 211.486 72.6092 211.069 72.9707C210.708 73.2864 210.324 73.5755 209.921 73.8356L209.669 74.0099C209.347 74.2099 209.024 74.4036 208.682 74.5649C208.408 74.7091 208.126 74.8363 207.837 74.9458L207.656 75.0232C207.411 75.12 207.172 75.191 206.927 75.2685C206.634 75.3597 206.337 75.4351 206.037 75.4944C205.522 75.5999 205 75.6604 204.475 75.6751C204.025 75.6966 203.574 75.6793 203.127 75.6235C202.37 75.5448 201.627 75.3623 200.92 75.0813H200.842C200.842 75.0813 200.81 75.0813 200.804 75.0813C200.769 75.0753 200.736 75.0621 200.707 75.0426C200.484 74.9644 200.268 74.8672 200.062 74.7521L199.875 74.6618C199.8 74.6294 199.729 74.5906 199.662 74.5456C199.482 74.445 199.31 74.3329 199.145 74.2099C198.978 74.0938 198.816 73.984 198.661 73.8549C198.19 73.4826 197.757 73.063 197.371 72.6028C197.235 72.4543 197.113 72.2929 196.997 72.138C196.796 71.8638 196.613 71.577 196.448 71.2796C196.358 71.1339 196.276 70.983 196.203 70.8278C196.122 70.6767 196.049 70.5216 195.984 70.363C195.083 68.2778 194.844 65.9661 195.3 63.7407C195.407 63.1706 195.558 62.6095 195.751 62.0625C196.014 61.3048 196.349 60.5743 196.752 59.8809C197.628 58.316 198.84 56.9647 200.3 55.9243C200.507 55.776 200.723 55.6402 200.946 55.5176C201.159 55.3885 201.365 55.2723 201.591 55.1562C201.817 55.04 202.043 54.9173 202.268 54.8141H202.314C202.595 54.6882 202.884 54.5783 203.178 54.4849C203.364 54.4129 203.554 54.3504 203.746 54.2977C203.746 54.2977 203.81 54.2977 203.836 54.2977C204.081 54.2332 204.307 54.1815 204.553 54.1364C206.521 53.7349 208.567 54.0101 210.36 54.9174C210.515 54.9868 210.666 55.0665 210.811 55.1562C210.915 55.2272 211.018 55.2723 211.128 55.3498L211.192 55.3885C211.219 55.4136 211.25 55.4353 211.282 55.4531C211.311 55.4682 211.337 55.4878 211.36 55.5112L211.702 55.7629L211.908 55.9178L212.166 56.1373L212.412 56.3696L212.547 56.4858L212.676 56.6149C212.793 56.7334 212.903 56.8584 213.005 56.9893L213.037 57.0344C214.329 58.5271 215.121 60.387 215.302 62.353L215.309 62.3207Z" fill="#FCD8C3"/>
<path d="M213.05 56.9957C211.246 56.0676 209.179 55.7852 207.192 56.1953C205.754 56.4862 204.391 57.0659 203.185 57.8993C202.862 58.1188 202.539 58.3576 202.243 58.6029C201.972 58.8214 201.714 59.054 201.468 59.3C200.048 60.7136 198.989 62.4493 198.383 64.3595C197.776 66.2698 197.639 68.2982 197.984 70.2727C198.029 70.505 198.081 70.7503 198.145 70.9762C198.432 72.0735 198.911 73.1114 199.558 74.0421C199.733 74.2874 199.913 74.5198 200.1 74.7457L199.913 74.6553C199.839 74.623 199.768 74.5841 199.7 74.5391C199.519 74.4417 199.344 74.3317 199.178 74.2099C199.01 74.0938 198.849 73.984 198.694 73.8549C198.222 73.4826 197.79 73.063 197.403 72.6028C197.274 72.4479 197.152 72.2929 197.035 72.1316C196.835 71.8581 196.65 71.5736 196.481 71.2796C196.39 71.1339 196.308 70.983 196.235 70.8278C196.158 70.6729 196.087 70.518 196.022 70.3566C195.123 68.2733 194.882 65.9648 195.332 63.7407C195.445 63.172 195.596 62.6114 195.784 62.0625C196.046 61.3048 196.381 60.5743 196.784 59.8809C197.651 58.3193 198.851 56.9683 200.3 55.9243C200.507 55.776 200.723 55.6402 200.946 55.5176C201.152 55.3766 201.368 55.2494 201.591 55.1368C201.804 55.0206 202.023 54.9109 202.236 54.8141H202.281C202.563 54.6882 202.852 54.5783 203.146 54.4849C203.332 54.4129 203.521 54.3504 203.714 54.2977C203.714 54.2977 203.778 54.2977 203.804 54.2977C204.049 54.2332 204.275 54.1815 204.52 54.1364C206.489 53.7349 208.535 54.0101 210.327 54.9174C210.483 54.9868 210.634 55.0665 210.779 55.1562C210.882 55.2272 210.986 55.2723 211.095 55.3498L211.153 55.3885C211.181 55.4136 211.211 55.4353 211.244 55.4531L211.328 55.5047L211.67 55.7564L211.882 55.9113L212.134 56.1308L212.392 56.3632C212.431 56.4019 212.476 56.4342 212.515 56.4793L212.644 56.6084C212.76 56.7269 212.87 56.8519 212.973 56.9828L213.05 56.9957Z" fill="white"/>
<path d="M215.302 62.3212C215.554 64.7933 215.067 67.2845 213.902 69.4793C212.082 72.8356 208.379 75.5853 204.475 75.6756C204.025 75.6971 203.574 75.6799 203.127 75.624C197.358 74.8946 194.254 69.1114 195.313 63.7025C196.203 59.1843 199.887 54.963 204.52 54.0723C206.364 53.7122 208.273 53.9358 209.984 54.7121C211.694 55.4883 213.12 56.7786 214.063 58.4033C214.743 59.6092 215.165 60.9435 215.302 62.3212Z" stroke="#263238" stroke-width="2.03774" stroke-linecap="round" stroke-linejoin="round"/>
<path d="M245.538 60.772C242.467 62.7471 237.202 69.1048 231.678 66.7166C227.852 65.0643 228.73 61.3852 223.6 58.5387C220.935 57.0606 217.296 57.5447 214.928 58.429C214.686 58.5197 214.451 58.6275 214.225 58.7517C214.167 58.6485 214.121 58.5323 214.063 58.429C213.768 57.9228 213.429 57.4434 213.05 56.9961C212.948 56.8652 212.838 56.7402 212.721 56.6217L212.592 56.4926C212.553 56.4475 212.508 56.4152 212.47 56.3765L212.212 56.1441L211.96 55.9246L211.747 55.7697L211.405 55.518C211.382 55.4946 211.356 55.475 211.328 55.4599C211.295 55.4421 211.265 55.4205 211.237 55.3954L211.179 55.3566C211.069 55.2792 210.966 55.234 210.863 55.163C210.718 55.0734 210.567 54.9936 210.411 54.9242C208.619 54.0169 206.573 53.7417 204.604 54.1432C204.359 54.1884 204.133 54.24 203.888 54.3046C203.888 54.3046 203.823 54.3046 203.798 54.3046C203.605 54.3572 203.416 54.4197 203.23 54.4917C202.936 54.5851 202.647 54.695 202.365 54.8209H202.32C202.101 54.9177 201.881 55.0275 201.675 55.1436C201.708 56.3151 201.926 57.4739 202.32 58.5775C204.256 62.6374 208.017 65.9937 211.786 68.2141C212.528 68.653 213.27 69.0532 214.005 69.3953C214.096 69.221 214.192 69.0402 214.27 68.8595C214.499 68.3845 214.697 67.895 214.863 67.3943C214.902 67.2459 214.954 67.1039 214.992 66.9748C215.031 66.8457 215.076 66.6521 215.115 66.5036C215.145 66.404 215.169 66.3027 215.186 66.2003C215.306 65.6775 215.387 65.1469 215.431 64.6124C215.431 64.3865 215.47 64.1606 215.476 63.9283C215.476 63.7024 215.476 63.4635 215.476 63.2441C215.48 63.2033 215.48 63.1623 215.476 63.1214C215.476 62.8568 215.444 62.5857 215.412 62.3211C215.412 62.2824 215.412 62.2501 215.412 62.2114C216.78 61.7724 218.67 61.7531 221.309 63.4248C223.948 65.0965 224.11 67.4912 226.768 70.0278C228.659 71.8912 231.007 73.2232 233.576 73.8895C236.145 74.5559 238.845 74.5329 241.402 73.8231C248.913 71.8092 252.042 70.5312 254.591 68.6078C262.172 62.7923 254.178 55.2276 245.538 60.772Z" fill="#9ABAE3" stroke="#263238" stroke-width="2.03774" stroke-linecap="round" stroke-linejoin="round"/>
<path d="M36.3319 205.722C28.9116 220.612 26.963 253.091 26.6533 264.458H55.3407C56.0633 261.076 66.071 222.658 66.1033 222.845C63.6604 236.581 63.2452 250.601 64.8709 264.458H93.3324C94.2229 240.344 100.307 150.858 99.9655 148.728L99.6235 148.805C96.3973 149.586 95.3778 145.346 91.9968 145.83C88.235 146.372 83.0344 144.061 79.2339 144.216C72.9686 144.474 69.1166 144.494 62.8319 144.216C56.115 143.919 46.6299 152.213 40.0033 151.181L39.4226 151.09C38.9709 151.013 38.0353 150.664 37.6675 151.09C37.531 151.28 37.4485 151.503 37.4288 151.736C36.177 159.146 37.474 166.768 37.5449 174.211C37.603 180.968 37.5449 187.765 37.0546 194.484C36.9836 195.465 36.7836 204.818 36.3319 205.722Z" fill="#EC644E"/>
<path d="M36.3319 205.722C28.9116 220.612 26.963 253.091 26.6533 264.458H55.3407C56.0633 261.076 66.071 222.658 66.1033 222.845C63.6604 236.581 63.2452 250.601 64.8709 264.458H93.3324C94.2229 240.344 100.307 150.858 99.9655 148.728L99.6235 148.805C96.3973 149.586 95.3778 145.346 91.9968 145.83C88.235 146.372 83.0344 144.061 79.2339 144.216C72.9686 144.474 69.1166 144.494 62.8319 144.216C56.115 143.919 46.6299 152.213 40.0033 151.181L39.4226 151.09C38.9709 151.013 38.0353 150.664 37.6675 151.09C37.531 151.28 37.4485 151.503 37.4288 151.736C36.177 159.146 37.474 166.768 37.5449 174.211C37.603 180.968 37.5449 187.765 37.0546 194.484C36.9836 195.465 36.7836 204.818 36.3319 205.722Z" stroke="#263238" stroke-width="2.03774" stroke-linecap="round" stroke-linejoin="round"/>
<path d="M107.283 103.688C107.283 103.688 105.037 71.8353 99.2041 67.8464C95.2552 65.2646 89.1061 62.5278 84.1055 60.5592L83.9958 60.514L83.0086 60.1268L81.5245 59.5652H81.46L80.3115 59.1392L79.1758 58.739C78.4145 58.4679 77.6531 58.2098 76.8788 57.9516L76.7175 57.8612C76.5433 57.7967 76.382 57.7386 76.1755 57.674H76.1303L75.6335 57.5062H75.5948L75.285 57.4094L74.7495 57.2158L74.4204 57.1125L74.0139 56.9769L73.4848 56.8091H73.4268C73.2203 56.7446 73.0074 56.6865 72.7815 56.6155L72.6654 56.5703L71.904 56.325L71.7362 56.2799L71.3878 56.1701L70.9039 56.0281L70.2586 55.8345C70.1678 55.8012 70.0752 55.7732 69.9812 55.7506H69.8844L69.7553 55.6796H69.7102H69.6456H69.5747H69.5037C69.422 55.6745 69.3402 55.6745 69.2585 55.6796H69.1682H69.0004H68.7681L68.2003 55.7828L66.7421 56.0733L66.1614 56.1959L65.4516 56.3509L64.3547 56.5703H64.2579L63.5094 56.7446H63.4062H63.3223L60.7091 57.3448L59.7928 57.5514L59.3799 57.6482H59.2766C59.0508 57.6998 58.825 57.7579 58.6314 57.8031H58.5604H58.483L58.2894 57.8612L58.1346 57.9064L56.1988 58.4938H56.0956C56.0375 58.4938 55.9149 58.5518 55.7536 58.597L55.1084 58.7971L54.7858 58.8939L54.076 59.1069L53.7985 59.1973L53.5017 59.2877C48.4495 60.8497 40.9647 63.2637 36.5835 64.8321L36.4158 64.8837C35.4666 65.1657 34.5411 65.5218 33.6477 65.9487L33.3315 66.0972C30.995 67.2756 29.0447 69.0988 27.7115 71.3512C22.5496 77.7347 21.5301 112.725 24.6724 120.438C25.6596 122.878 30.4796 125.156 36.6739 127.138C36.1512 130.365 35.5253 134.586 35.0801 138.646C34.3833 144.984 34.1316 150.955 35.4156 152.201C36.3706 152.401 37.3191 152.601 38.2483 152.775H38.3063H38.416L38.6418 152.814C46.6428 154.331 65.0967 154.511 76.711 154.285C78.0121 153.103 78.9253 151.555 79.3307 149.845C79.987 151.295 80.737 152.701 81.5761 154.053C84.4991 153.943 89.5449 153.653 89.5449 153.653C90.7912 153.437 92.0188 153.124 93.2163 152.717L93.8615 152.51C94.2745 152.368 94.6745 152.214 95.0552 152.065C95.079 152.05 95.1052 152.039 95.1326 152.033C96.3134 151.555 97.3587 151.052 98.2169 150.613L98.6427 150.393C99.7848 149.793 100.527 149.354 100.708 149.322C101.637 149.199 99.3138 139.801 99.3138 139.776C99.1073 138.982 98.4879 136.632 98.3395 135.664V135.535C97.4362 130.92 96.8554 127.57 96.8554 127.499C96.8554 127.428 103.218 136.89 104.844 137.968C104.907 138.014 104.98 138.045 105.056 138.059C105.053 138.024 105.053 137.99 105.056 137.955C106.437 131.346 108.231 126.086 114.664 121.974C115.394 121.552 116.151 121.177 116.929 120.851C118.439 120.206 120.155 119.605 120.155 119.605C120.155 119.605 108.231 105.425 107.283 103.688Z" stroke="#263238" stroke-width="2.03774" stroke-linecap="round" stroke-linejoin="round"/>
<path d="M107.283 103.688C107.283 103.688 105.037 71.8353 99.2041 67.8464C95.2552 65.2646 89.1061 62.5278 84.1055 60.5592L83.9958 60.514L83.0086 60.1268L81.5245 59.5652H81.46L80.3115 59.1392L79.1758 58.739C78.4145 58.4679 77.6531 58.2098 76.8788 57.9516L76.7175 57.8612C76.5433 57.7967 76.382 57.7386 76.1755 57.674H76.1303L75.6335 57.5062H75.5948L75.285 57.4094L74.7495 57.2158L74.4204 57.1125L74.0139 56.9769L73.4848 56.8091H73.4268C73.2203 56.7446 73.0074 56.6865 72.7815 56.6155L72.6654 56.5703L71.904 56.325L71.7362 56.2799L71.3878 56.1701L70.9039 56.0281L70.2586 55.8345C70.1678 55.8012 70.0752 55.7732 69.9812 55.7506H69.8844L69.7553 55.6796H69.7102H69.6456H69.5747H69.5037C69.422 55.6745 69.3402 55.6745 69.2585 55.6796H69.1682H69.0004H68.7681L68.2003 55.7828L66.7421 56.0733L66.1614 56.1959L65.4516 56.3509L64.3547 56.5703H64.2579L63.5094 56.7446H63.4062H63.3223L60.7091 57.3448L59.7928 57.5514L59.3799 57.6482H59.2766C59.0508 57.6998 58.825 57.7579 58.6314 57.8031H58.5604H58.483L58.2894 57.8612L58.1346 57.9064L56.1988 58.4938H56.0956C56.0375 58.4938 55.9149 58.5518 55.7536 58.597L55.1084 58.7971L54.7858 58.8939L54.076 59.1069L53.7985 59.1973L53.5017 59.2877C48.4495 60.8497 40.9647 63.2637 36.5835 64.8321L36.4158 64.8837C35.4666 65.1657 34.5411 65.5218 33.6477 65.9487L33.3315 66.0972C30.995 67.2756 29.0447 69.0988 27.7115 71.3512C22.5496 77.7347 21.5301 112.725 24.6724 120.438C25.6596 122.878 30.4796 125.156 36.6739 127.138C36.1512 130.365 35.5253 134.586 35.0801 138.646C34.3833 144.984 34.1316 150.955 35.4156 152.201C36.3706 152.401 37.3191 152.601 38.2483 152.775H38.3063H38.416L38.6418 152.814C46.6428 154.331 65.0967 154.511 76.711 154.285C78.0121 153.103 78.9253 151.555 79.3307 149.845C79.987 151.295 80.737 152.701 81.5761 154.053C84.4991 153.943 89.5449 153.653 89.5449 153.653C90.7912 153.437 92.0188 153.124 93.2163 152.717L93.8615 152.51C94.2745 152.368 94.6745 152.214 95.0552 152.065C95.079 152.05 95.1052 152.039 95.1326 152.033C96.3134 151.555 97.3587 151.052 98.2169 150.613L98.6427 150.393C99.7848 149.793 100.527 149.354 100.708 149.322C101.637 149.199 99.3138 139.801 99.3138 139.776C99.1073 138.982 98.4879 136.632 98.3395 135.664V135.535C97.4361 130.92 96.8554 127.57 96.8554 127.499C96.8554 127.428 103.218 136.89 104.844 137.968C104.907 138.014 104.98 138.045 105.056 138.059C105.053 138.024 105.053 137.99 105.056 137.955C106.437 131.346 108.231 126.086 114.664 121.974C115.394 121.552 116.151 121.177 116.929 120.851C118.439 120.206 120.155 119.605 120.155 119.605C120.155 119.605 108.231 105.425 107.283 103.688Z" fill="#EC644E"/>
<path d="M107.283 103.688C107.283 103.688 105.037 71.8353 99.2041 67.8464C95.2552 65.2646 89.1061 62.5278 84.1055 60.5592L83.9958 60.514L83.0086 60.1268L81.5245 59.5652H81.46L80.3115 59.1392L79.1758 58.739C78.4145 58.4679 77.6531 58.2098 76.8788 57.9516L76.7175 57.8612C76.5433 57.7967 76.382 57.7386 76.1755 57.674H76.1303L75.6335 57.5062H75.5948L75.285 57.4094L74.7495 57.2158L74.4204 57.1125L74.0139 56.9769L73.4848 56.8091H73.4268C73.2203 56.7446 73.0074 56.6865 72.7815 56.6155L72.6654 56.5703L71.904 56.325L71.7362 56.2799L71.3878 56.1701L70.9039 56.0281L70.2586 55.8345C70.1678 55.8012 70.0752 55.7732 69.9812 55.7506H69.8844L69.7553 55.6796H69.7102H69.6456H69.5747H69.5037C69.422 55.6745 69.3402 55.6745 69.2585 55.6796H69.1682H69.0004H68.7681L68.2003 55.7828L66.7421 56.0733L66.1614 56.1959L65.4516 56.3509L64.3547 56.5703H64.2579L63.5094 56.7446H63.4062H63.3223L60.7091 57.3448L59.7928 57.5514L59.3799 57.6482H59.2766C59.0508 57.6998 58.825 57.7579 58.6314 57.8031H58.5604H58.483L58.2894 57.8612L58.1346 57.9064L56.1988 58.4938H56.0956C56.0375 58.4938 55.9149 58.5518 55.7536 58.597L55.1084 58.7971L54.7858 58.8939L54.076 59.1069L53.7985 59.1973L53.5017 59.2877C48.4495 60.8497 40.9647 63.2637 36.5835 64.8321L36.4158 64.8837C35.4666 65.1657 34.5411 65.5218 33.6477 65.9487L33.3315 66.0972C30.995 67.2756 29.0447 69.0988 27.7115 71.3512C22.5496 77.7347 21.5301 112.725 24.6724 120.438C25.6596 122.878 30.4796 125.156 36.6739 127.138C36.1512 130.365 35.5253 134.586 35.0801 138.646C34.3833 144.984 34.1316 150.955 35.4156 152.201C36.3706 152.401 37.3191 152.601 38.2483 152.775H38.3063H38.416L38.6418 152.814C46.6428 154.331 65.0967 154.511 76.711 154.285C78.0121 153.103 78.9253 151.555 79.3307 149.845C79.987 151.295 80.737 152.701 81.5761 154.053C84.4991 153.943 89.5449 153.653 89.5449 153.653C90.7912 153.437 92.0188 153.124 93.2163 152.717L93.8615 152.51C94.2745 152.368 94.6745 152.214 95.0552 152.065C95.079 152.05 95.1052 152.039 95.1326 152.033C96.3134 151.555 97.3587 151.052 98.2169 150.613L98.6427 150.393C99.7848 149.793 100.527 149.354 100.708 149.322C101.637 149.199 99.3138 139.801 99.3138 139.776C99.1073 138.982 98.4879 136.632 98.3395 135.664V135.535C97.4362 130.92 96.8554 127.57 96.8554 127.499C96.8554 127.428 103.218 136.89 104.844 137.968C104.907 138.014 104.98 138.045 105.056 138.059C105.053 138.024 105.053 137.99 105.056 137.955C106.437 131.346 108.231 126.086 114.664 121.974C115.394 121.552 116.151 121.177 116.929 120.851C118.439 120.206 120.155 119.605 120.155 119.605C120.155 119.605 108.231 105.425 107.283 103.688Z" stroke="#263238" stroke-width="2.03774" stroke-linecap="round" stroke-linejoin="round"/>
<path d="M82.7118 89.5849C82.0214 98.8795 80.4857 106.515 78.7306 106.541C77.2724 106.541 74.7947 99.3894 71.7749 90.9146C70.0457 86.0801 68.1487 80.8068 66.1549 76.2176C63.4771 70.0535 57.0312 60.3524 56.1408 58.6419L58.0765 58.0545L58.2313 58.0094L58.4249 57.9513H58.5023H58.5733C58.8379 57.8996 59.096 57.8351 59.3541 57.7705L59.767 57.6737L60.6833 57.4672L63.3029 56.8282H63.4126H63.5094L64.2579 56.6539H64.3547L65.4064 56.428L66.1162 56.2731L66.6969 56.1505L68.1551 55.86L68.7229 55.7567H68.9552H69.123H69.2133C69.295 55.7517 69.3769 55.7517 69.4585 55.7567H69.5618H69.6327H69.6973H69.7553L69.8908 55.8019H69.9876C70.0816 55.8245 70.1743 55.8525 70.2651 55.8858L70.9103 56.0795L71.3942 56.2215L71.7427 56.3312L71.9104 56.3764L72.6654 56.6087L72.8009 56.6475C73.0073 56.7185 73.2203 56.7765 73.4461 56.8411H73.5042L74.0333 57.0089L74.4398 57.1445L74.7688 57.2477L75.3044 57.4155L75.6141 57.5124H75.6528L76.1497 57.6802H76.2013L76.8465 57.9125C77.6144 58.1707 78.3757 58.4289 79.1371 58.7L80.2728 59.1002L81.4213 59.5262H81.4858C82.073 62.7534 82.3827 66.4713 82.7118 70.4989C83.1861 76.852 83.1861 83.2318 82.7118 89.5849Z" fill="white" stroke="#263238" stroke-width="2.03774" stroke-linecap="round" stroke-linejoin="round"/>
<path d="M73.5365 27.4473C68.7939 26.9438 70.5425 26.0402 66.271 28.0927C63.5481 29.3836 62.3996 27.628 63.6901 26.4533C65.4387 24.8009 67.2389 24.1167 70.0457 24.007C74.4075 23.8134 75.9368 27.7054 73.5365 27.4473Z" fill="#263238" stroke="#263238" stroke-width="2.03774" stroke-linecap="round" stroke-linejoin="round"/>
<path d="M58.9218 32.1399C58.7605 32.1743 58.5938 32.1746 58.4323 32.141C58.2709 32.1073 58.1182 32.0404 57.984 31.9444C57.8499 31.8485 57.7372 31.7256 57.6531 31.5837C57.569 31.4418 57.5155 31.2839 57.4958 31.1201C57.4584 30.7939 57.5395 30.4651 57.7243 30.1938C57.909 29.9224 58.1852 29.7266 58.5024 29.642C58.6488 29.5949 58.8039 29.5814 58.9562 29.6024C59.1086 29.6234 59.2542 29.6783 59.3825 29.7632C59.5107 29.8481 59.6182 29.9608 59.6971 30.0929C59.7759 30.2249 59.8241 30.3731 59.838 30.5263C59.8925 30.8595 59.8313 31.2013 59.6646 31.4949C59.4979 31.7884 59.2357 32.0161 58.9218 32.1399Z" fill="#263238" stroke="#263238" stroke-width="2.03774" stroke-linecap="round" stroke-linejoin="round"/>
<path d="M72.6525 67.8527L70.2005 63.2894C70.2005 63.2894 72.9106 60.3461 75.1818 62.7085L76.3626 67.8721L72.6525 67.8527Z" fill="#9ABAE3" stroke="#263238" stroke-width="2.03774" stroke-linecap="round" stroke-linejoin="round"/>
<path d="M66.0259 58.9C66.5184 59.257 67.0288 59.5888 67.5551 59.894C70.5877 61.669 73.0203 61.8304 73.2719 60.0489C73.5623 58.0028 70.7877 54.1753 67.0776 51.5031C64.8967 49.9282 62.8771 49.1021 61.5285 49.1021C60.5736 49.1021 59.9477 49.5087 59.8315 50.3542C59.5412 52.4003 62.3157 56.2279 66.0259 58.9Z" fill="#263238" stroke="#263238" stroke-width="2.03774" stroke-linecap="round" stroke-linejoin="round"/>
<path d="M79.7953 51.8519C79.679 52.5382 79.4864 53.2094 79.221 53.8528C78.9097 54.6086 78.4973 55.3186 77.9951 55.9635C77.7431 56.2914 77.4694 56.6019 77.1756 56.8929C77.1154 56.9517 77.0507 57.0057 76.982 57.0543C76.9467 57.1138 76.9032 57.1681 76.853 57.2156L76.6659 57.3706L76.5497 57.4674C76.5083 57.4939 76.4694 57.5241 76.4336 57.5577H76.3884C76.3432 57.5577 76.2981 57.6352 76.2529 57.661L76.1239 57.7578C75.492 58.2086 74.8017 58.5713 74.072 58.8357C73.6537 58.9999 73.2219 59.1273 72.7815 59.2166C72.2597 59.332 71.7284 59.3989 71.1942 59.4166C70.8826 59.4327 70.5703 59.4327 70.2586 59.4166C69.9941 59.4166 69.7424 59.4166 69.4714 59.3586H69.2843C68.9746 59.3134 68.6391 59.2682 68.3487 59.1907C68.0584 59.1133 67.6067 58.9971 67.2324 58.8809L66.9485 58.7712C66.4828 58.6147 66.0298 58.4227 65.5935 58.1967C65.0945 57.942 64.6138 57.653 64.1547 57.3318C63.9313 57.1726 63.716 57.0024 63.5094 56.8219C63.4763 56.8024 63.4459 56.7785 63.4191 56.7509C63.3352 56.6928 63.2513 56.6154 63.1674 56.5444C62.8448 56.2733 62.5222 55.9699 62.2125 55.6537L61.9479 55.3632C61.8189 55.2212 61.6898 55.0663 61.5737 54.9178C61.2331 54.5061 60.9164 54.075 60.6252 53.6269C60.5478 53.4849 60.4703 53.3623 60.3994 53.2397C60.3284 53.117 60.2316 52.9427 60.1606 52.8072C60.0896 52.6717 60.0638 52.62 60.0122 52.5232C59.7625 52.0353 59.5469 51.5306 59.367 51.0128C59.2895 50.7934 59.2186 50.5739 59.154 50.3674C59.096 50.1479 59.0379 49.9091 58.9992 49.6832C58.9957 49.6446 58.9957 49.6057 58.9992 49.567C58.9411 49.3024 58.8959 49.0313 58.8572 48.7602C58.5685 46.7737 58.895 44.7464 59.7928 42.9511V42.893C59.8703 42.7381 59.9477 42.5961 60.0316 42.4412C60.1154 42.2863 60.1542 42.2411 60.2251 42.1379C60.2961 42.0346 60.4832 41.7506 60.6187 41.5634C60.7542 41.3762 60.9091 41.202 61.064 41.0277C61.122 40.9567 61.1865 40.8792 61.2575 40.8082C61.3285 40.7372 61.4382 40.6404 61.5285 40.5436C61.6472 40.4168 61.7744 40.2981 61.9092 40.1886L62.0705 40.0595C62.1867 39.9562 62.3093 39.8594 62.4383 39.7626C63.8568 38.6527 65.5722 37.9879 67.368 37.8521C67.6196 37.8521 67.8648 37.8521 68.1164 37.8521H68.2197C68.4132 37.8521 68.6197 37.8521 68.8262 37.8908C69.1399 37.9132 69.4522 37.952 69.7618 38.007C70.0263 38.0586 70.2973 38.1167 70.5554 38.1877C70.8135 38.2587 71.0394 38.3103 71.2781 38.3878C71.5217 38.4572 71.7608 38.5413 71.9943 38.6395C72.104 38.6782 72.2137 38.7299 72.3169 38.775C73.8794 39.4388 75.2877 40.4189 76.4529 41.6538C77.7699 42.9728 78.7586 44.5829 79.3391 46.3544C79.9197 48.1258 80.076 50.009 79.7953 51.8519Z" fill="#B5846B"/>
<path d="M79.7953 51.8519C79.679 52.5382 79.4864 53.2094 79.221 53.8528C78.9097 54.6086 78.4972 55.3186 77.995 55.9635C77.7431 56.2914 77.4693 56.6019 77.1756 56.8929C77.1154 56.9517 77.0507 57.0057 76.982 57.0543C76.9438 57.1117 76.9006 57.1657 76.853 57.2156C76.9883 56.9501 77.1068 56.6763 77.2079 56.3959C77.6211 55.3155 77.8396 54.1704 77.8531 53.0137C77.8531 52.7749 77.8531 52.5167 77.8531 52.2779C77.7062 50.2366 77.0694 48.2608 75.9967 46.5181C74.924 44.7754 73.4471 43.3171 71.691 42.2669L71.5104 42.1637C71.2652 42.0217 71.0071 41.8861 70.7554 41.77C70.4006 41.6021 70.0199 41.4408 69.6521 41.3052C68.2437 40.7738 66.7426 40.5323 65.2386 40.5952C63.1694 40.6826 61.1917 41.4726 59.6315 42.835V42.7769C59.7089 42.6219 59.7864 42.48 59.8702 42.325C59.9541 42.1701 59.9928 42.125 60.0638 42.0217C60.1348 41.9184 60.3219 41.6344 60.4574 41.4472C60.5929 41.26 60.7478 41.0858 60.9026 40.9115C60.9607 40.8405 61.0252 40.763 61.0962 40.692C61.1672 40.621 61.2769 40.5242 61.3672 40.4274C61.4859 40.3006 61.6131 40.182 61.7479 40.0724L61.9092 39.9433C62.0253 39.84 62.1479 39.7432 62.277 39.6464C63.754 38.548 65.5288 37.9224 67.3679 37.8521C67.6196 37.8521 67.8648 37.8521 68.1164 37.8521H68.2197C68.4132 37.8521 68.6197 37.8521 68.8262 37.8908C69.1398 37.9132 69.4521 37.952 69.7618 38.007C70.0205 38.0492 70.2768 38.1052 70.5296 38.1748C70.7833 38.2299 71.0333 38.3011 71.2781 38.3878C71.5233 38.4588 71.7491 38.5491 71.9943 38.6395C72.104 38.6782 72.2137 38.7299 72.3169 38.775C73.8794 39.4388 75.2876 40.4189 76.4529 41.6538C77.7699 42.9728 78.7585 44.5829 79.3391 46.3544C79.9197 48.1258 80.0759 50.009 79.7953 51.8519Z" fill="white"/>
<path d="M79.7953 51.8519C79.679 52.5382 79.4864 53.2094 79.221 53.8528C78.9097 54.6086 78.4973 55.3186 77.9951 55.9635C77.7431 56.2914 77.4694 56.6019 77.1756 56.8929C77.1154 56.9517 77.0507 57.0057 76.982 57.0543C76.9467 57.1138 76.9032 57.1681 76.853 57.2156L76.6659 57.3706L76.5497 57.4674C76.5083 57.4939 76.4694 57.5241 76.4336 57.5577H76.3884C76.3432 57.5577 76.2981 57.6352 76.2529 57.661L76.1239 57.7578C75.492 58.2086 74.8017 58.5713 74.072 58.8357C73.6537 58.9999 73.2219 59.1273 72.7815 59.2166C72.2597 59.332 71.7284 59.3989 71.1942 59.4166C70.8826 59.4327 70.5703 59.4327 70.2586 59.4166C69.9941 59.4166 69.736 59.3779 69.4714 59.3521H69.2843C68.9746 59.3069 68.6391 59.2617 68.3487 59.1843C68.0584 59.1068 67.6067 58.9906 67.2324 58.8745L66.9485 58.7647C66.4828 58.6083 66.0298 58.4162 65.5935 58.1903C65.0945 57.9355 64.6138 57.6465 64.1547 57.3254C63.9313 57.1661 63.716 56.9959 63.5094 56.8155C63.4763 56.7959 63.4459 56.772 63.4191 56.7445C63.3352 56.6864 63.2513 56.6089 63.1674 56.5379C62.8448 56.2668 62.5222 55.9635 62.2125 55.6472L61.9479 55.3567C61.8189 55.2147 61.6898 55.0598 61.5737 54.9114C61.2331 54.4996 60.9164 54.0686 60.6252 53.6205C60.5478 53.4785 60.4703 53.3558 60.3994 53.2332C60.3284 53.1106 60.2316 52.9363 60.1606 52.8007C60.0896 52.6652 60.0638 52.6136 60.0122 52.5167C59.7625 52.0288 59.5469 51.5242 59.367 51.0064C59.2895 50.7869 59.2186 50.5675 59.154 50.3609C59.096 50.1415 59.0379 49.9027 58.9992 49.6768C58.9957 49.6381 58.9957 49.5992 58.9992 49.5606C58.9411 49.2959 58.8959 49.0248 58.8572 48.7538C58.5685 46.7673 58.895 44.7399 59.7928 42.9447V42.8866C59.8703 42.7317 59.9477 42.5897 60.0316 42.4348C60.1154 42.2799 60.1542 42.2347 60.2251 42.1314C60.2961 42.0281 60.4832 41.7441 60.6187 41.557C60.7542 41.3698 60.9091 41.1955 61.064 41.0212C61.122 40.9502 61.1865 40.8728 61.2575 40.8018C61.3285 40.7308 61.4382 40.634 61.5285 40.5371C61.6472 40.4103 61.7744 40.2917 61.9092 40.1821L62.0705 40.053C62.1867 39.9498 62.3093 39.853 62.4383 39.7561C63.8576 38.6486 65.5729 37.986 67.368 37.8521C67.6196 37.8521 67.8648 37.8521 68.1164 37.8521H68.2197C68.4132 37.8521 68.6197 37.8521 68.8262 37.8908C69.1399 37.9132 69.4522 37.952 69.7618 38.007C70.0205 38.0492 70.2768 38.1052 70.5296 38.1748C70.7834 38.2299 71.0333 38.3011 71.2781 38.3878C71.5217 38.4572 71.7608 38.5413 71.9943 38.6395C72.104 38.6782 72.2137 38.7299 72.3169 38.775C73.8794 39.4388 75.2877 40.4189 76.4529 41.6538C77.7699 42.9728 78.7586 44.5829 79.3391 46.3544C79.9197 48.1258 80.076 50.009 79.7953 51.8519Z" stroke="#263238" stroke-width="2.03774" stroke-linecap="round" stroke-linejoin="round"/>
<path d="M84.1119 60.5654C84.1119 60.5654 87.893 67.5105 87.2994 70.2472L83.5506 72.1384C83.5506 72.1384 90.3385 75.6303 89.8481 80.4325C88.6931 91.6698 85.3314 101.668 82.5053 106.057C79.6791 110.446 79.092 118.475 79.092 118.475" stroke="#263238" stroke-width="2.03774" stroke-linecap="round" stroke-linejoin="round"/>
<path d="M74.1043 35.6185C74.1073 36.2543 73.9462 36.8802 73.6364 37.4354C73.3267 37.9906 72.8789 38.4564 72.3363 38.7877C72.1971 38.8739 72.0527 38.9515 71.904 39.0201C71.9352 39.6186 71.9179 40.2187 71.8524 40.8144C71.7641 41.2675 71.6521 41.7156 71.5168 42.157C70.3425 46.1459 67.7099 49.8701 64.8386 52.6972C64.1934 53.3427 62.4835 54.8401 61.8447 55.3629C61.7156 55.2209 61.5866 55.066 61.4704 54.9176C61.1298 54.5058 60.8131 54.0748 60.5219 53.6267C60.4445 53.4847 60.3671 53.362 60.2961 53.2394C60.2251 53.1167 60.1284 52.9425 60.0574 52.8069C59.9864 52.6714 59.9606 52.6198 59.909 52.5229C59.6592 52.035 59.4436 51.5303 59.2637 51.0126C59.1863 50.7931 59.1153 50.5737 59.0508 50.3671C58.9927 50.1477 58.9347 49.9088 58.8959 49.6829C58.8924 49.6443 58.8924 49.6054 58.8959 49.5668C58.8379 49.3021 58.7927 49.031 58.754 48.7599C58.4652 46.7734 58.7917 44.7461 59.6896 42.9509V42.8928C59.767 42.7379 59.8444 42.5959 59.9283 42.441C60.0122 42.286 60.0509 42.2409 60.1219 42.1376C60.1929 42.0343 60.38 41.7503 60.5155 41.5631C60.651 41.376 60.8059 41.2017 60.9607 41.0274C61.0188 40.9564 61.0833 40.879 61.1543 40.808C61.2253 40.737 61.3349 40.6401 61.4253 40.5433C61.544 40.4165 61.6712 40.2979 61.806 40.1883L61.9673 40.0592H62.0512L62.2447 39.8398C62.2797 39.8124 62.3102 39.7797 62.3351 39.743C62.3983 39.6904 62.4587 39.6344 62.5157 39.5751C62.6361 39.452 62.7632 39.3357 62.8964 39.2266C64.0647 38.2116 65.4766 37.5176 66.9937 37.2128C66.7573 36.7046 66.6385 36.1495 66.6464 35.589C66.6542 35.0285 66.7885 34.477 67.0391 33.9757C67.2897 33.4743 67.6502 33.036 68.0938 32.6934C68.5373 32.3508 69.0524 32.1128 69.6007 31.9972C70.149 31.8815 70.7164 31.8911 71.2604 32.0253C71.8045 32.1595 72.3113 32.4149 72.743 32.7723C73.1746 33.1297 73.5201 33.58 73.7536 34.0896C73.987 34.5992 74.1025 35.1549 74.0914 35.7153L74.1043 35.6185Z" fill="#263238" stroke="#263238" stroke-width="2.03774" stroke-linecap="round" stroke-linejoin="round"/>
<path d="M82.6601 89.5849C81.9697 98.8795 80.4341 106.515 78.6725 106.541C77.2208 106.541 74.743 99.3894 71.7169 90.9146L72.6266 67.8525H76.3368C77.453 72.4675 80.989 83.679 82.6601 89.5849Z" fill="#9ABAE3" stroke="#263238" stroke-width="2.03774" stroke-linecap="round" stroke-linejoin="round"/>
<path d="M73.2977 27.1567C68.5552 26.6533 70.3038 25.7496 66.0323 27.8022C63.3094 29.0931 62.1608 27.3375 63.4513 26.1627C65.1999 24.5104 67.0002 23.8262 69.8069 23.7165C74.1688 23.5228 75.698 27.4149 73.2977 27.1567Z" fill="#263238" stroke="#263238" stroke-width="2.03774" stroke-linecap="round" stroke-linejoin="round"/>
<path d="M58.683 31.8494C58.5217 31.8827 58.3552 31.8821 58.1941 31.8476C58.033 31.8131 57.8809 31.7454 57.7474 31.6489C57.6139 31.5523 57.5019 31.4291 57.4186 31.2869C57.3353 31.1447 57.2825 30.9868 57.2635 30.8231C57.2277 30.4979 57.3096 30.1707 57.4942 29.9008C57.6789 29.6308 57.9541 29.4359 58.2701 29.3515C58.4165 29.3044 58.5716 29.2909 58.7239 29.3118C58.8763 29.3328 59.022 29.3878 59.1502 29.4727C59.2784 29.5576 59.386 29.6703 59.4648 29.8023C59.5437 29.9344 59.5918 30.0825 59.6057 30.2357C59.6585 30.5696 59.5959 30.9115 59.4281 31.2049C59.2603 31.4983 58.9975 31.7257 58.683 31.8494Z" fill="#263238" stroke="#263238" stroke-width="2.03774" stroke-linecap="round" stroke-linejoin="round"/>
<path d="M60.5026 53.5752L59.2121 57.8739L68.8004 68.7175C68.8455 68.6272 71.6653 62.7019 71.6588 62.263L71.0136 61.2755C70.949 61.2109 65.6903 60.4041 60.5026 53.5752Z" fill="white" stroke="#263238" stroke-width="2.03774" stroke-linecap="round" stroke-linejoin="round"/>
<path d="M55.6955 58.771C55.6568 58.9001 53.1146 67.8073 55.4375 69.4468C57.7926 70.9335 60.2996 72.1647 62.9158 73.1194C62.9158 73.1194 53.3211 75.7916 61.9028 87.9003C73.2784 103.966 73.73 102.352 76.4013 107.909C79.0726 113.467 79.3049 122.167 78.9823 127.841" stroke="#263238" stroke-width="2.03774" stroke-linecap="round" stroke-linejoin="round"/>
<path d="M95.152 80.9941C95.152 80.9941 95.4036 97.1305 95.152 101.41C94.9004 105.689 96.7135 127.822 96.7135 127.822" stroke="#263238" stroke-width="2.03774" stroke-linecap="round" stroke-linejoin="round"/>
<path d="M49.9658 81.1553L53.2372 106.205" stroke="#263238" stroke-width="2.03774" stroke-linecap="round" stroke-linejoin="round"/>
<path d="M45.3201 104.889C54.4631 106.115 72.7299 110.259 72.7299 110.259" stroke="#263238" stroke-width="2.03774" stroke-linecap="round" stroke-linejoin="round"/>
<path d="M88.919 125.394C88.919 125.394 93.5582 125.666 93.8873 123.264C94.2551 120.579 91.0225 119.927 91.0225 119.927C91.0225 119.927 98.3588 120.186 96.7586 117.346C95.2294 114.628 90.9515 115.003 84.5507 113.008C83.4473 112.666 95.6166 111.453 90.7127 107.954C88.5705 106.425 78.4532 109.639 78.4532 109.639C78.4532 109.639 74.7624 110.678 72.6976 110.284C69.7618 116.313 69.6198 123 69.0649 129.616C74.4622 129.962 79.8761 129.962 85.2734 129.616C90.7127 129.248 88.919 125.394 88.919 125.394Z" fill="#B5846B" stroke="#263238" stroke-width="2.03774" stroke-linecap="round" stroke-linejoin="round"/>
<path d="M84.2861 119.728L91.2612 119.896" stroke="#263238" stroke-width="2.03774" stroke-linecap="round" stroke-linejoin="round"/>
<path d="M82.4149 124.75C82.4149 124.75 89.6352 125.789 90.7127 125.247" stroke="#263238" stroke-width="2.03774" stroke-linecap="round" stroke-linejoin="round"/>
<path d="M90.403 119.773C90.403 119.773 90.1514 115.842 96.4941 116.958" stroke="#263238" stroke-width="2.03774" stroke-linecap="round" stroke-linejoin="round"/>
<path d="M74.1817 61.5207C74.5108 62.2888 77.866 64.9094 77.866 64.9094C77.866 64.9094 78.0918 59.565 76.4465 57.4673C75.7889 58.0122 75.0483 58.448 74.2527 58.7582C74.4667 59.1896 74.5721 59.6668 74.5597 60.1483C74.5474 60.6297 74.4176 61.1009 74.1817 61.5207Z" fill="white" stroke="#263238" stroke-width="2.03774" stroke-linecap="round" stroke-linejoin="round"/>
<path d="M130.653 142.26C129.021 142.557 126.969 141.615 126.969 141.615C125.678 148.592 107.612 136.109 105.676 134.425C105.779 133.715 105.95 133.017 106.186 132.34C107.231 129.584 107.779 127.918 109.547 125.885C111.127 124.011 113.039 122.444 115.187 121.264C115.49 121.096 115.832 120.935 116.135 120.786C116.284 120.715 116.419 120.651 116.568 120.593C116.664 120.544 116.763 120.501 116.864 120.463L117.006 120.405L117.29 120.296L117.652 120.154L118.2 119.954C118.2 119.954 118.232 119.954 118.245 119.954C118.445 119.883 119.62 119.431 119.742 119.398L124.214 122.226C124.214 122.226 137.435 125.672 137.441 128.68C137.448 128.723 137.448 128.766 137.441 128.809C137.447 128.846 137.447 128.883 137.441 128.919C137.444 128.932 137.444 128.945 137.441 128.958C137.407 129.013 137.371 129.067 137.331 129.119C137.283 129.172 137.231 129.221 137.177 129.267C137.143 129.299 137.106 129.327 137.067 129.351L136.957 129.416C136.879 129.467 136.797 129.513 136.712 129.551C136.595 129.611 136.474 129.663 136.351 129.706L136.099 129.797C135.957 129.847 135.813 129.89 135.667 129.926H135.57L135.228 130.01L134.821 130.094C133.531 130.203 132.924 130.042 131.324 130.152C130.724 130.19 130.963 130.391 131.266 130.687C131.387 130.789 131.519 130.878 131.66 130.952C132.344 131.43 133.034 131.914 133.679 132.417L134.176 132.817C136.441 134.663 138.048 136.587 137.241 137.981C137.19 138.069 137.131 138.154 137.067 138.233C136.911 138.412 136.73 138.568 136.531 138.697C136.157 138.936 133.828 138.575 132.963 138.697C132.098 138.82 135.57 141.35 130.653 142.26Z" fill="#B5846B"/>
<path d="M129.563 132.688C129.692 132.785 129.827 132.869 129.956 132.953C130.647 133.431 131.331 133.915 131.976 134.418L132.473 134.818C134.125 136.167 135.415 137.555 135.699 138.736H135.738C135.975 138.756 136.215 138.728 136.441 138.652C136.64 138.523 136.82 138.366 136.976 138.187C137.041 138.108 137.099 138.024 137.151 137.936C137.938 136.574 136.351 134.65 134.086 132.772L133.589 132.372L131.569 130.907C130.595 130.952 129.619 130.942 128.646 130.875C128.659 131.225 128.748 131.569 128.906 131.882C129.064 132.195 129.288 132.47 129.563 132.688Z" fill="white"/>
<path d="M124.227 122.187L119.755 119.36C119.632 119.392 118.465 119.844 118.258 119.915C118.258 119.915 118.258 119.915 118.213 119.915L117.664 120.115L117.303 120.257H117.232C117.562 120.574 117.857 120.927 118.11 121.309H118.155L122.633 124.136C122.633 124.136 133.802 127.054 135.602 129.881L136.009 129.758L136.26 129.668C136.384 129.624 136.505 129.572 136.622 129.513C136.707 129.474 136.789 129.429 136.867 129.377L136.976 129.313C137.016 129.288 137.052 129.26 137.086 129.229C137.141 129.183 137.193 129.133 137.241 129.08C137.28 129.029 137.317 128.975 137.351 128.919C137.353 128.906 137.353 128.893 137.351 128.88C137.356 128.844 137.356 128.807 137.351 128.771C137.357 128.728 137.357 128.684 137.351 128.641C137.447 125.634 124.227 122.187 124.227 122.187Z" fill="white"/>
<path d="M130.653 142.26C129.021 142.557 126.969 141.615 126.969 141.615C125.678 148.592 107.612 136.109 105.676 134.425C105.779 133.715 105.95 133.017 106.186 132.34C107.231 129.584 107.779 127.918 109.547 125.885C111.127 124.011 113.039 122.444 115.187 121.264C115.49 121.096 115.832 120.935 116.135 120.786C116.284 120.715 116.419 120.651 116.568 120.593C116.664 120.544 116.763 120.501 116.864 120.463L117.006 120.405L117.29 120.296L117.652 120.154L118.2 119.954C118.2 119.954 118.232 119.954 118.245 119.954C118.445 119.883 119.62 119.431 119.742 119.398L124.214 122.226C124.214 122.226 137.435 125.672 137.441 128.68C137.448 128.723 137.448 128.766 137.441 128.809C137.447 128.846 137.447 128.883 137.441 128.919C137.444 128.932 137.444 128.945 137.441 128.958C137.407 129.013 137.371 129.067 137.331 129.119C137.283 129.172 137.231 129.221 137.177 129.267C137.143 129.299 137.106 129.327 137.067 129.351L136.957 129.416C136.879 129.467 136.797 129.513 136.712 129.551C136.595 129.611 136.474 129.663 136.351 129.706L136.099 129.797C135.957 129.847 135.813 129.89 135.667 129.926H135.57L135.228 130.01L134.821 130.094C133.531 130.203 132.924 130.042 131.324 130.152C130.724 130.19 130.963 130.391 131.266 130.687C131.387 130.789 131.519 130.878 131.66 130.952C132.344 131.43 133.034 131.914 133.679 132.417L134.176 132.817C136.441 134.663 138.048 136.587 137.241 137.981C137.19 138.069 137.131 138.154 137.067 138.233C136.911 138.412 136.73 138.568 136.531 138.697C136.157 138.936 133.828 138.575 132.963 138.697C132.098 138.82 135.57 141.35 130.653 142.26Z" stroke="#263238" stroke-width="2.03774" stroke-linecap="round" stroke-linejoin="round"/>
<path d="M130.853 130.3C128.328 131.054 125.658 131.185 123.072 130.681" stroke="#263238" stroke-width="2.03774" stroke-linecap="round" stroke-linejoin="round"/>
<path d="M132.86 138.672L127.214 135.767" stroke="#263238" stroke-width="2.03774" stroke-linecap="round" stroke-linejoin="round"/>
<path d="M127.827 141.938L122.2 139.459" stroke="#263238" stroke-width="2.03774" stroke-linecap="round" stroke-linejoin="round"/>
<path d="M107.308 135.658C107.308 135.658 104.927 139.033 104.811 137.768C104.695 136.503 105.669 134.431 105.669 134.431L107.308 135.658Z" fill="#263238" stroke="#263238" stroke-width="2.03774" stroke-linecap="round" stroke-linejoin="round"/>
<path d="M100.843 105.263C103.205 102.397 107.263 103.404 107.263 103.404" stroke="#263238" stroke-width="2.03774" stroke-linecap="round" stroke-linejoin="round"/>
<path d="M68.9294 131.359C68.9294 131.359 68.3939 134.928 69.5747 134.509C70.8651 134.031 71.9104 129.771 71.9104 129.771L69.1101 129.59L68.9359 131.404L68.9294 131.359Z" fill="#263238" stroke="#263238" stroke-width="2.03774" stroke-linecap="round" stroke-linejoin="round"/>
<path d="M120.168 136.503C120.168 136.503 125.278 132.992 125.278 130.972" stroke="#263238" stroke-width="2.03774" stroke-linecap="round" stroke-linejoin="round"/>
<path d="M36.5964 127.312L68.994 134.431" stroke="#263238" stroke-width="2.03774" stroke-linecap="round" stroke-linejoin="round"/>
<path d="M79.221 150.077V130.3" stroke="#263238" stroke-width="2.03774" stroke-linecap="round" stroke-linejoin="round"/>
<path d="M66.1033 222.858C66.1033 222.858 69.7553 209.219 70.0586 207.916C71.2458 202.474 75.1173 163.089 75.1173 163.089" stroke="#263238" stroke-width="2.03774" stroke-linecap="round" stroke-linejoin="round"/>
<path d="M50.953 158.971C49.7013 163.748 42.9843 169.628 41.7132 169.24" stroke="#263238" stroke-width="2.03774" stroke-linecap="round" stroke-linejoin="round"/>
<path d="M64.4063 173.965C64.4063 174.462 62.5932 203.469 61.5027 208.574C60.4122 213.68 49.1593 259.003 49.1593 259.003" stroke="#263238" stroke-width="2.03774" stroke-linecap="round" stroke-linejoin="round"/>
<path d="M90.7256 171.164L86.3445 259.004" stroke="#263238" stroke-width="2.03774" stroke-linecap="round" stroke-linejoin="round"/>
<path d="M80.3824 162.27L74.3043 171.164" stroke="#263238" stroke-width="2.03774" stroke-linecap="round" stroke-linejoin="round"/>
</g>
</g>
<defs>
<clipPath id="clip0_209_754">
<rect width="280.392" height="216" fill="white"/>
</clipPath>
<clipPath id="clip1_209_754">
<rect width="236.377" height="288.543" fill="white" transform="translate(22.0076 -0.875488)"/>
</clipPath>
</defs>
</svg>
