<svg width="903" height="100" viewBox="0 0 903 100" fill="none" xmlns="http://www.w3.org/2000/svg">
<path d="M103.348 42.1666H107.717L108.102 31.5425H74.937L75.3222 42.1666H99.1064C99.2265 42.1666 99.339 42.1916 99.4465 42.2291H103.008C103.115 42.1916 103.228 42.1666 103.348 42.1666Z" fill="#9ABAE3"/>
<path d="M76.6077 77.9026C76.6377 78.7405 77.3179 79.3932 78.1508 79.3932H104.891C105.724 79.3932 106.402 78.7405 106.434 77.9026L106.764 68.7266H76.28L76.6102 77.9026H76.6077Z" fill="#9ABAE3"/>
<path d="M93.0265 52.1752C92.3437 53.0031 92.3787 54.1285 92.4188 55.434C92.4663 56.9396 92.5213 58.6478 91.3383 60.0658C90.7156 60.8161 89.8578 61.3513 88.7673 61.6639C89.6202 62.0441 90.5555 62.2442 91.5184 62.2442C93.3341 62.2442 95.0398 61.5339 96.3253 60.2509C96.963 59.6131 97.4607 58.8628 97.8008 58.05C98.136 57.2372 98.316 56.3544 98.316 55.444C98.316 53.7684 97.7158 52.1902 96.6104 50.9473C94.8772 50.9723 93.6692 51.3949 93.0265 52.1752Z" fill="#EC644E"/>
<path d="M107.795 22.001C107.795 21.4758 107.375 21.0557 106.854 21.0557H76.1924C75.6672 21.0557 75.2471 21.4783 75.2471 22.001V23.6817H107.795V22.001Z" fill="#EC644E"/>
<path d="M89.7627 58.7502C90.4405 57.9324 90.4055 56.807 90.3655 55.5015C90.318 54.0009 90.2629 52.2927 91.4409 50.8697C92.0886 50.0769 93.019 49.5241 94.197 49.204C93.3491 48.8339 92.4338 48.6538 91.5234 48.6538C89.7802 48.6538 88.0446 49.3166 86.7166 50.6371C84.1631 53.1906 84.0705 57.2822 86.4289 59.9457C88.0221 59.9007 89.1425 59.493 89.7652 58.7477L89.7627 58.7502Z" fill="#EC644E"/>
<path d="M110.035 25.7373H73.0036C72.4784 25.7373 72.0532 26.165 72.0532 26.6877V29.4838H72.8035V29.4437H110.236V29.4838H110.986V26.6877C110.986 26.1625 110.558 25.7373 110.035 25.7373Z" fill="#EC644E"/>
<path d="M97.8333 49.249C97.8183 49.229 97.7983 49.209 97.7758 49.1865C97.7558 49.1614 97.7358 49.1389 97.7082 49.1239C94.2544 45.7301 88.6872 45.7526 85.2584 49.1865C81.8296 52.6103 81.8046 58.1724 85.1859 61.6263C85.2259 61.6788 85.2734 61.7238 85.3259 61.7638C86.9866 63.3995 89.1874 64.2973 91.5208 64.2973C92.7038 64.2973 93.8492 64.0647 94.9072 63.6246C95.9651 63.1869 96.943 62.5391 97.7758 61.7013C99.4514 60.0307 100.372 57.8048 100.372 55.4414C100.372 53.078 99.4764 50.9221 97.8483 49.264L97.8333 49.249ZM86.714 50.637C88.0395 49.3165 89.7777 48.6538 91.5208 48.6538C92.4312 48.6538 93.3466 48.8338 94.1944 49.204C93.0164 49.5216 92.0861 50.0768 91.4383 50.8696C90.2604 52.2927 90.3179 54.0008 90.3629 55.5014C90.4029 56.8069 90.4404 57.9324 89.7602 58.7502C89.1374 59.4955 88.017 59.9006 86.4239 59.9481C84.0654 57.2846 84.158 53.193 86.7115 50.6395L86.714 50.637ZM97.8008 58.0499C97.4607 58.8627 96.963 59.613 96.3252 60.2508C95.0397 61.5363 93.3341 62.244 91.5183 62.244C90.558 62.244 89.6226 62.044 88.7673 61.6638C89.8577 61.3512 90.7155 60.816 91.3383 60.0657C92.5212 58.6476 92.4637 56.9395 92.4187 55.4339C92.3787 54.1284 92.3412 53.0029 93.0264 52.1751C93.6692 51.3948 94.8771 50.9722 96.6103 50.9471C97.7158 52.1901 98.316 53.7682 98.316 55.4439C98.316 56.3542 98.1359 57.2371 97.8008 58.0499Z" fill="#1A1A1A"/>
<path d="M110.036 23.6818H109.85V22.0012C109.85 20.3455 108.51 19 106.854 19H76.1924C74.5368 19 73.1912 20.3455 73.1912 22.0012V23.6818H73.0062C71.3505 23.6818 70 25.0348 70 26.688V30.0643C70 30.8821 70.6628 31.5399 71.4806 31.5399H72.8836L73.2688 42.279C72.9336 42.3916 72.631 42.5817 72.3784 42.8393C71.9558 43.2769 71.7407 43.8472 71.7607 44.4474L72.5685 66.596C72.6085 67.5989 73.2988 68.4217 74.2241 68.6518L74.5593 77.9754C74.6268 79.9187 76.2049 81.4443 78.1532 81.4443H104.894C106.842 81.4443 108.42 79.9187 108.492 77.9754L108.828 68.6518C109.753 68.4217 110.441 67.5989 110.478 66.596L111.286 44.4524C111.306 43.8447 111.091 43.2744 110.668 42.8393C110.416 42.5767 110.113 42.3866 109.778 42.279L110.163 31.5399H111.571C112.384 31.5399 113.047 30.8821 113.047 30.0643V26.688C113.047 25.0323 111.694 23.6818 110.041 23.6818H110.036ZM75.247 22.0012C75.247 21.476 75.6672 21.0558 76.1924 21.0558H106.854C107.375 21.0558 107.795 21.4785 107.795 22.0012V23.6818H75.247V22.0012ZM106.432 77.9029C106.402 78.7407 105.721 79.3935 104.889 79.3935H78.1507C77.3178 79.3935 76.6401 78.7407 76.6076 77.9029L76.2774 68.7268H106.759L106.429 77.9029H106.432ZM108.415 66.526C108.415 66.6035 108.347 66.671 108.27 66.671H74.7719C74.6893 66.671 74.6218 66.6035 74.6218 66.526L73.814 44.3774C73.809 44.3248 73.834 44.2898 73.854 44.2698C73.874 44.2498 73.9115 44.2248 73.9615 44.2248H99.1038C99.669 44.2248 100.132 43.7621 100.132 43.1969C100.132 42.7517 99.8416 42.3716 99.4414 42.2315H74.9369L75.3221 42.169L74.9369 31.5449H108.102L107.717 42.169L108.102 42.2315H103.008C102.608 42.3741 102.32 42.7517 102.32 43.1969C102.32 43.7621 102.778 44.2248 103.348 44.2248H109.08C109.133 44.2248 109.168 44.2498 109.183 44.2698C109.203 44.2898 109.228 44.3273 109.223 44.3774L108.415 66.526ZM110.986 29.4866H110.236V29.4466H72.8036V29.4866H72.0533V26.6905C72.0533 26.1653 72.481 25.7401 73.0037 25.7401H110.033C110.558 25.7401 110.983 26.1678 110.983 26.6905V29.4866H110.986Z" fill="#1A1A1A"/>
<path d="M103.008 42.229H108.102L107.717 42.1665H103.348C103.228 42.1665 103.115 42.1915 103.008 42.229Z" fill="#1A1A1A"/>
<path d="M75.3222 42.1665L74.937 42.229H99.4465C99.339 42.1915 99.2265 42.1665 99.1064 42.1665H75.3222Z" fill="#1A1A1A"/>
<path d="M879.407 61.8686C878.842 61.7436 878.282 62.1012 878.157 62.6689C878.032 63.2341 878.389 63.7943 878.957 63.9194C884.627 65.1674 885.867 66.5954 885.867 67.0406C885.867 68.6437 877.261 71.7624 861.483 71.7624C845.704 71.7624 837.098 68.6437 837.098 67.0406C837.098 66.5904 838.361 65.1449 844.136 63.8919C844.701 63.7693 845.061 63.2116 844.939 62.6439C844.816 62.0787 844.256 61.716 843.691 61.8411C837.924 63.0916 835 64.8398 835 67.0406C835 71.7274 848.728 73.8608 861.483 73.8608C874.238 73.8608 887.966 71.7274 887.966 67.0406C887.966 64.8598 885.087 63.1191 879.407 61.8711V61.8686Z" fill="#1A1A1A"/>
<path d="M887.005 35.2832H885.3L885.552 33.1399C885.582 32.9998 885.602 32.8598 885.602 32.7122C885.602 28.203 870.439 27 861.48 27C852.522 27 837.358 28.203 837.358 32.7122C837.358 32.8598 837.376 33.0048 837.408 33.1474L839.172 48.0632C840.597 59.3951 850.118 68.0009 861.318 68.081C861.373 68.081 861.425 68.081 861.48 68.081C871.129 68.081 879.505 61.9361 882.621 53.1427C882.719 53.1727 882.819 53.1927 882.924 53.1927H887.003C892.01 53.1927 896.081 49.1761 896.081 44.2367C896.081 39.2973 892.01 35.2807 887.003 35.2807L887.005 35.2832ZM881.661 48.1857C880.383 58.3572 871.722 65.9851 861.483 65.9851C861.433 65.9851 861.385 65.9851 861.335 65.9851C851.184 65.9126 842.55 58.0971 841.257 47.8106L839.799 35.4733C844.449 37.7417 854.728 38.4269 861.483 38.4269C865.062 38.4269 868.501 38.2669 871.702 37.9518C872.279 37.8942 872.7 37.3815 872.642 36.8038C872.585 36.2286 872.069 35.8059 871.494 35.8634C868.36 36.1736 864.992 36.3286 861.48 36.3286C847.84 36.3286 840.012 34.0327 839.479 32.7847L839.469 32.6997C839.922 31.4267 847.76 29.1033 861.48 29.1033C875.201 29.1033 883.071 31.4367 883.496 32.6772L883.489 32.7397C883.311 33.1149 881.801 34.2303 876.701 35.1532C876.131 35.2557 875.753 35.8034 875.856 36.3736C875.958 36.9439 876.504 37.3265 877.076 37.219C879.737 36.7363 881.756 36.1586 883.164 35.4833L881.658 48.1882L881.661 48.1857ZM887.005 51.0969H883.239C883.456 50.2315 883.629 49.3462 883.741 48.4383L885.052 37.3815H887.005C890.854 37.3815 893.985 40.4577 893.985 44.2392C893.985 48.0207 890.854 51.0969 887.005 51.0969Z" fill="#1A1A1A"/>
<path d="M839.8 35.4727C844.449 37.7409 854.727 38.4267 861.482 38.4268C865.061 38.4268 868.501 38.2663 871.702 37.9512C872.068 37.9144 872.37 37.6931 872.528 37.3887C873.783 37.2339 874.971 37.0529 876.078 36.8477C876.311 37.1346 876.688 37.2892 877.079 37.2158C879.74 36.7332 881.758 36.1582 883.166 35.4805L881.66 48.1855C880.382 58.3569 871.721 65.9844 861.482 65.9844H861.335C851.184 65.9117 842.551 58.0968 841.258 47.8105L839.8 35.4727Z" fill="#EC644E"/>
<path d="M330.118 70.491C330.118 75.4905 334.185 79.557 339.184 79.557H350.554C355.553 79.557 359.62 75.4905 359.62 70.491V42.0225H330.121V70.491H330.118ZM333.414 46.1791C333.414 45.5938 333.89 45.1187 334.475 45.1187C335.06 45.1187 335.535 45.5938 335.535 46.1791V60.7873C335.535 61.3725 335.06 61.8477 334.475 61.8477C333.89 61.8477 333.414 61.3725 333.414 60.7873V46.1791ZM333.414 65.7317C333.414 65.1464 333.89 64.6713 334.475 64.6713C335.06 64.6713 335.535 65.1464 335.535 65.7317V70.4985C335.535 71.0838 335.06 71.5589 334.475 71.5589C333.89 71.5589 333.414 71.0838 333.414 70.4985V65.7317Z" fill="#EC644E"/>
<path d="M369.591 45.8164V48.4699C370.201 49.1377 370.576 50.023 370.576 50.9959V61.1849C370.576 62.1578 370.201 63.0431 369.591 63.7109V66.3644C371.437 65.3715 372.695 63.4232 372.695 61.1849V50.9959C372.695 48.7575 371.437 46.8093 369.591 45.8164Z" fill="#1A1A1A"/>
<path d="M366.818 64.9466H361.738V47.2397H366.818C367.916 47.2397 368.903 47.7174 369.591 48.4702V45.8167C368.763 45.3715 367.82 45.1189 366.818 45.1189H361.738V41.2549C361.738 40.5096 361.13 39.9019 360.385 39.9019H329.353C328.608 39.9019 328 40.5096 328 41.2549V70.4912C328 76.6586 333.017 81.6756 339.184 81.6756H350.554C356.721 81.6756 361.738 76.6586 361.738 70.4912V67.0674H366.818C367.82 67.0674 368.766 66.8148 369.591 66.3696V63.7161C368.903 64.4714 367.916 64.9491 366.818 64.9491V64.9466ZM359.62 45.1189V70.4887C359.62 75.4882 355.553 79.5548 350.554 79.5548H339.184C334.185 79.5548 330.118 75.4882 330.118 70.4887V42.0202H359.617V45.1189H359.62Z" fill="#1A1A1A"/>
<path d="M334.765 28.6751C335.29 29.2629 335.638 29.653 335.685 30.5884C335.73 31.5238 335.425 31.9439 334.96 32.5817C334.42 33.322 333.747 34.2448 333.83 35.9305C333.857 36.4957 334.325 36.9384 334.888 36.9384C334.905 36.9384 334.923 36.9384 334.94 36.9384C335.525 36.9083 335.975 36.4132 335.945 35.8279C335.898 34.8926 336.206 34.4724 336.671 33.8347C337.211 33.0944 337.886 32.1715 337.801 30.4884C337.719 28.8052 336.956 27.9524 336.346 27.2671C335.82 26.6794 335.473 26.2892 335.425 25.3539C335.38 24.4185 335.685 23.9958 336.151 23.3581C336.691 22.6178 337.363 21.6924 337.281 20.0093C337.251 19.4241 336.743 18.9639 336.171 19.0039C335.585 19.0339 335.135 19.5291 335.165 20.1143C335.21 21.0497 334.905 21.4723 334.44 22.1101C333.9 22.8504 333.227 23.7757 333.309 25.4589C333.392 27.1421 334.155 27.9949 334.765 28.6801V28.6751Z" fill="#1A1A1A"/>
<path d="M343.689 28.6748C344.214 29.2625 344.561 29.6526 344.609 30.588C344.654 31.5234 344.349 31.9435 343.884 32.5813C343.343 33.3216 342.671 34.2444 342.753 35.9276C342.781 36.4953 343.248 36.9355 343.811 36.9355C343.829 36.9355 343.846 36.9355 343.864 36.9355C344.449 36.9055 344.899 36.4103 344.869 35.825C344.824 34.8897 345.129 34.4695 345.594 33.8318C346.134 33.0915 346.807 32.1686 346.725 30.4855C346.642 28.8023 345.879 27.9495 345.269 27.2642C344.744 26.6765 344.396 26.2863 344.349 25.351C344.304 24.4156 344.609 23.9929 345.074 23.3552C345.614 22.6149 346.287 21.6895 346.205 20.0064C346.175 19.4212 345.679 18.976 345.094 19.001C344.509 19.031 344.059 19.5262 344.089 20.1114C344.136 21.0468 343.829 21.467 343.363 22.1047C342.823 22.8475 342.15 23.7704 342.233 25.4535C342.316 27.1367 343.078 27.9895 343.689 28.6748Z" fill="#1A1A1A"/>
<path d="M352.612 28.6747C353.137 29.2624 353.485 29.6526 353.532 30.5879C353.577 31.5233 353.272 31.9435 352.807 32.5812C352.267 33.3215 351.594 34.2444 351.677 35.9275C351.704 36.4952 352.172 36.9354 352.734 36.9354C352.752 36.9354 352.769 36.9354 352.787 36.9354C353.372 36.9054 353.822 36.4102 353.792 35.825C353.747 34.8896 354.052 34.4695 354.518 33.8317C355.058 33.0914 355.731 32.1686 355.648 30.4854C355.563 28.8023 354.803 27.9494 354.193 27.2667C353.667 26.6789 353.32 26.2888 353.272 25.3534C353.227 24.4181 353.532 23.9954 353.997 23.3576C354.538 22.6173 355.21 21.692 355.128 20.0088C355.1 19.4236 354.595 18.9784 354.017 19.0034C353.432 19.0335 352.982 19.5287 353.012 20.1139C353.06 21.0492 352.752 21.4694 352.287 22.1072C351.747 22.8499 351.074 23.7728 351.156 25.456C351.239 27.1391 352.002 27.9919 352.612 28.6772V28.6747Z" fill="#1A1A1A"/>
<path d="M334.475 71.5591C335.06 71.5591 335.535 71.0839 335.535 70.4987V65.7318C335.535 65.1466 335.06 64.6714 334.475 64.6714C333.89 64.6714 333.415 65.1466 333.415 65.7318V70.4987C333.415 71.0839 333.89 71.5591 334.475 71.5591Z" fill="#1A1A1A"/>
<path d="M334.475 61.8477C335.06 61.8477 335.535 61.3725 335.535 60.7872V46.1791C335.535 45.5938 335.06 45.1187 334.475 45.1187C333.89 45.1187 333.415 45.5938 333.415 46.1791V60.7872C333.415 61.3725 333.89 61.8477 334.475 61.8477Z" fill="#1A1A1A"/>
<path d="M609.892 46.4082C607.771 37.5147 601.336 31.2173 594.871 31.2173C594.346 31.2173 593.821 31.2623 593.296 31.3473C592.588 35.0838 592.778 38.5726 593.888 41.7214C594.899 44.585 596.369 46.3657 597.925 48.2489C599.498 50.1521 601.126 52.1229 602.251 55.2241C603.514 58.703 603.747 62.6295 602.952 66.9237C605.558 65.7457 607.684 63.4198 609.047 60.2086C610.752 56.1845 611.052 51.2826 609.892 46.4107V46.4082Z" fill="#EC644E"/>
<path d="M596.217 49.662C594.606 47.7113 592.938 45.6955 591.797 42.4592C590.667 39.2555 590.379 35.7641 590.922 32.0552C584.847 34.7412 581.729 43.4746 583.904 52.6007C585.067 57.4751 587.546 61.7117 590.882 64.5353C593.913 67.0963 597.31 68.1917 600.523 67.659C601.509 63.3073 601.399 59.3783 600.166 55.9795C599.17 53.2384 597.735 51.5027 596.214 49.662H596.217Z" fill="#EC644E"/>
<path d="M619.476 52.7635C619.178 50.6027 618.87 48.3668 619.506 45.4657C620.113 42.6796 621.434 40.0586 623.415 37.6426C619.286 37.2125 614.784 39.856 611.725 44.6579C611.843 45.0655 611.953 45.4757 612.053 45.8958C613.323 51.2279 612.983 56.6175 611.092 61.0767C610.78 61.8145 610.427 62.5098 610.042 63.1676C611.145 65.2809 612.718 66.8015 614.624 67.6143C617.237 64.9332 618.888 62.0746 619.508 59.101C620.013 56.6825 619.753 54.7818 619.476 52.7685V52.7635Z" fill="#EC644E"/>
<path d="M625.806 38.2651C623.667 40.6261 622.272 43.2021 621.674 45.9381C621.124 48.4541 621.391 50.3999 621.674 52.4607C621.964 54.5715 622.264 56.7548 621.679 59.5484C621.044 62.5946 619.496 65.5082 617.082 68.2343C622.544 68.742 628.467 63.8801 630.918 56.4872C633.541 48.5716 631.243 40.6035 625.803 38.2651H625.806Z" fill="#EC644E"/>
<path d="M625.903 35.927C625.903 35.927 625.896 35.9245 625.891 35.922C625.876 35.917 625.861 35.9095 625.846 35.9045C620.734 34.2113 614.891 36.6723 610.835 42.0544C607.266 33.1384 599.483 27.5987 592.148 29.3094C592.143 29.3094 592.14 29.3094 592.138 29.3094C592.123 29.3119 592.105 29.3144 592.09 29.3194C583.734 31.3102 579.095 41.9843 581.746 53.1136C583.017 58.4457 585.753 63.1025 589.452 66.2287C592.393 68.7147 595.672 70.0127 598.913 70.0127C599.851 70.0127 600.788 69.9027 601.711 69.6826C604.422 69.0373 606.791 67.4817 608.649 65.1883C610.1 67.4892 612.093 69.1149 614.471 69.9252C614.481 69.9302 614.494 69.9327 614.504 69.9377C614.524 69.9452 614.541 69.9527 614.559 69.9602C615.629 70.3153 616.727 70.4854 617.83 70.4854C624.018 70.4854 630.385 65.1508 633.026 57.1827C636.13 47.8191 632.933 38.3004 625.903 35.9245V35.927ZM600.526 67.6618C597.312 68.192 593.916 67.0991 590.885 64.5381C587.546 61.717 585.067 57.4778 583.907 52.6034C581.731 43.4749 584.85 34.744 590.925 32.058C590.382 35.7669 590.67 39.2583 591.8 42.462C592.94 45.6983 594.609 47.714 596.219 49.6648C597.74 51.5055 599.175 53.2412 600.171 55.9823C601.404 59.3811 601.514 63.3126 600.528 67.6618H600.526ZM602.954 66.9215C603.75 62.6298 603.517 58.7008 602.254 55.222C601.129 52.1208 599.5 50.1525 597.927 48.2468C596.372 46.3635 594.901 44.5828 593.891 41.7192C592.78 38.5705 592.59 35.0816 593.298 31.3452C593.821 31.2602 594.348 31.2151 594.874 31.2151C601.339 31.2151 607.774 37.5126 609.895 46.406C611.055 51.2779 610.757 56.1798 609.049 60.2039C607.689 63.4151 605.56 65.7411 602.954 66.919V66.9215ZM610.042 63.1626C610.425 62.5048 610.777 61.812 611.092 61.0717C612.983 56.6125 613.323 51.2229 612.053 45.8908C611.953 45.4732 611.843 45.0605 611.725 44.6529C614.786 39.851 619.286 37.2075 623.415 37.6376C621.434 40.0536 620.113 42.6746 619.506 45.4607C618.873 48.3618 619.181 50.5977 619.476 52.7585C619.751 54.7718 620.013 56.6725 619.508 59.091C618.888 62.0646 617.237 64.9232 614.624 67.6043C612.721 66.7915 611.145 65.2709 610.042 63.1575V63.1626ZM630.918 56.4875C628.467 63.8803 622.544 68.7422 617.082 68.2345C619.498 65.5085 621.044 62.5948 621.679 59.5486C622.262 56.7551 621.964 54.5717 621.674 52.4609C621.392 50.4001 621.124 48.4543 621.674 45.9384C622.272 43.2023 623.667 40.6263 625.806 38.2654C631.245 40.6038 633.541 48.5719 630.92 56.4875H630.918Z" fill="#231F20"/>
<path d="M491.48 25.4199H465.748L461.516 35.6664H487.246L491.48 25.4199Z" fill="#9ABAE3"/>
<path d="M496.507 35.6689L492.968 27.1006L489.429 35.6689H496.507Z" fill="#9ABAE3"/>
<path d="M475.436 54.7618C474.774 55.5671 474.809 56.665 474.849 57.9355C474.896 59.4036 474.949 61.0667 473.796 62.4522C473.191 63.1775 472.355 63.6902 471.31 64.0003C473.733 65.0608 476.664 64.6056 478.643 62.6248C481.126 60.1413 481.211 56.1648 478.915 53.5713C477.235 53.6113 476.062 54.009 475.436 54.7643V54.7618Z" fill="#EC644E"/>
<path d="M491.96 21.0181H466.043V23.4015H491.96V21.0181Z" fill="#9ABAE3"/>
<path d="M472.245 61.1589C472.908 60.3636 472.873 59.2657 472.833 57.9977C472.785 56.5321 472.733 54.869 473.881 53.4759C474.516 52.7056 475.416 52.1729 476.564 51.8653C475.737 51.5126 474.851 51.3301 473.963 51.3301C472.268 51.3301 470.575 51.9753 469.284 53.2633C466.803 55.7443 466.716 59.7208 469.009 62.3143C470.552 62.2643 471.642 61.8792 472.245 61.1564V61.1589Z" fill="#EC644E"/>
<path d="M480.073 51.8452C480.073 51.8452 480.071 51.8427 480.068 51.8402C476.702 48.4739 471.225 48.4764 467.858 51.8402C464.497 55.2015 464.492 60.6686 467.846 64.0374C467.848 64.0399 467.851 64.0449 467.856 64.0474C467.856 64.0474 467.856 64.0474 467.858 64.0499C469.542 65.7331 471.752 66.5734 473.963 66.5734C476.174 66.5734 478.385 65.7306 480.068 64.0499C483.427 60.6911 483.432 55.2265 480.086 51.8602C480.081 51.8552 480.078 51.8502 480.073 51.8477V51.8452ZM469.286 53.2658C470.577 51.9753 472.27 51.3325 473.966 51.3325C474.851 51.3325 475.736 51.5126 476.567 51.8677C475.419 52.1778 474.518 52.708 473.883 53.4783C472.735 54.8714 472.788 56.532 472.835 58.0001C472.875 59.2681 472.91 60.366 472.248 61.1613C471.645 61.8841 470.554 62.2693 469.011 62.3193C466.718 59.7233 466.805 55.7492 469.286 53.2683V53.2658ZM478.643 62.6219C476.662 64.6027 473.733 65.0553 471.31 63.9974C472.355 63.6873 473.193 63.1771 473.796 62.4493C474.949 61.0638 474.896 59.4006 474.849 57.9326C474.809 56.6621 474.774 55.5641 475.436 54.7588C476.059 54.0035 477.235 53.6059 478.915 53.5659C481.211 56.1619 481.124 60.1384 478.643 62.6194V62.6219Z" fill="#1A1A1A"/>
<path d="M499.006 36.5068C498.993 36.4368 498.976 36.3718 498.951 36.3067C498.951 36.3017 498.951 36.2942 498.946 36.2892V36.2842C498.946 36.2842 498.943 36.2842 498.943 36.2817L493.981 24.2695C493.981 24.2695 493.976 24.2545 493.976 24.247V20.0079C493.976 19.4502 493.523 19 492.968 19H465.035C464.477 19 464.027 19.4527 464.027 20.0079V24.3021L459.08 36.2792C459.08 36.2792 459.08 36.2842 459.078 36.2867V36.2917C459.078 36.2917 459.073 36.2992 459.073 36.3042C459.048 36.3693 459.028 36.4368 459.018 36.5068C459.013 36.5318 459.013 36.5568 459.01 36.5818C459.008 36.6118 459 36.6419 459 36.6744V80.2188C459 80.7765 459.453 81.2267 460.008 81.2267H487.944L498.035 81.0216C498.583 81.0091 499.023 80.5614 499.023 80.0137V36.6769C499.023 36.6444 499.016 36.6143 499.013 36.5843C499.013 36.5593 499.011 36.5343 499.006 36.5068ZM496.507 35.669H489.432L492.971 27.1006L496.51 35.669H496.507ZM466.043 21.0183H491.96V23.4017H466.043V21.0183ZM465.748 25.42H491.48L487.248 35.669H461.516L465.748 25.42ZM497.005 79.0283L488.929 79.1934V51.4176C488.929 50.8599 488.476 50.4097 487.921 50.4097C487.366 50.4097 486.913 50.8624 486.913 51.4176V79.2134H461.016V37.6848H486.913V46.7608C486.913 47.3185 487.366 47.7687 487.921 47.7687C488.476 47.7687 488.929 47.316 488.929 46.7608V37.6848H497.005V79.0258V79.0283Z" fill="#1A1A1A"/>
<path d="M221.048 76.0462C232.735 76.0462 242.849 68.3607 246.028 57.2289C245.343 56.9413 243.99 56.5336 242.537 56.9763C242.119 57.1039 241.344 57.339 240.783 58.0217C240.478 58.3944 240.346 58.7595 240.158 59.3272C239.903 60.085 239.851 60.6077 239.78 61.268C239.755 61.5156 239.728 61.7732 239.69 62.0583C239.425 64.0291 239.253 65.3321 238.31 66.5275C237.5 67.5554 236.322 68.2582 234.801 68.6158C233.618 68.8959 232.538 68.7234 230.747 68.4383C229.614 68.2582 228.886 68.0806 228.354 67.9531C227.641 67.7805 227.281 67.6955 226.543 67.723C225.82 67.753 224.827 67.7905 224.027 68.4058C223.539 68.7809 223.202 69.2886 222.954 69.6587C222.684 70.0664 222.559 70.3465 222.439 70.6216C222.266 71.0143 222.086 71.4194 221.618 71.9321C221.321 72.2597 220.623 73.0225 219.483 73.3027C219.187 73.3752 218.905 73.4052 218.637 73.4052C217.779 73.4052 217.057 73.1001 216.539 72.88C215.966 72.6374 215.379 72.2297 214.173 71.3519C213.87 71.1318 213.648 70.9592 213.463 70.8167C213.118 70.5491 212.96 70.429 212.637 70.264C212.18 70.0264 211.557 69.7113 210.779 69.7238C209.736 69.7513 208.974 70.389 208.606 70.6941C208.123 71.0993 207.728 71.6195 207.44 72.2047C207.45 72.2122 207.46 72.2197 207.473 72.2247C211.545 74.7282 216.236 76.0487 221.043 76.0487L221.048 76.0462Z" fill="#EC644E"/>
<path d="M221.048 24.0558C224.405 24.0558 227.668 24.6835 230.752 25.9265C231.092 26.0616 231.437 26.2116 231.783 26.3692H236.079C235.214 25.8215 234.324 25.3138 233.413 24.8686L233.361 24.8386C232.753 24.546 232.133 24.2684 231.515 24.0208C228.184 22.6803 224.662 22 221.043 22C215.684 22 210.502 23.5131 206.01 26.3692H210.317C213.665 24.8511 217.309 24.0558 221.043 24.0558H221.048Z" fill="#1A1A1A"/>
<path d="M205.227 26.8843C203.794 27.8672 202.441 28.9876 201.213 30.2206L201.033 30.4006C200.848 30.5857 200.668 30.7758 200.493 30.9659C200.083 31.4085 199.675 31.8712 199.29 32.3439C199.197 32.4614 199.1 32.5815 199.007 32.699L198.695 33.1092C198.345 33.5719 198.007 34.0396 197.697 34.5072L197.307 35.1075C197.204 35.2675 197.107 35.4301 197.004 35.6002L196.761 36.0103C196.586 36.3079 196.416 36.6106 196.259 36.9207L196.079 37.2658C196.016 37.3784 195.961 37.4959 195.904 37.616C195.841 37.7285 195.786 37.846 195.734 37.9661C195.671 38.0836 195.621 38.1962 195.563 38.3212C194.223 41.2249 193.4 44.3261 193.113 47.5223C193.06 48.0825 193.03 48.6527 193.015 49.203C193.005 49.4856 193 49.7682 193 50.0508C193 50.2559 193.005 50.4609 193.01 50.6685C193.015 50.9411 193.025 51.2137 193.035 51.4863L193.045 51.6814C193.055 51.819 193.065 51.954 193.075 52.0916L193.12 52.6918C193.135 52.8244 193.145 52.9644 193.16 53.087L193.185 53.3171C193.2 53.4721 193.22 53.6247 193.243 53.7797C193.278 54.0273 193.315 54.2774 193.355 54.53L193.458 55.1428C193.515 55.4404 193.575 55.743 193.638 56.0331L193.963 57.3636C194.04 57.6562 194.123 57.9439 194.21 58.2315C194.278 58.4465 194.343 58.6591 194.416 58.8792L194.561 59.3019C194.638 59.512 194.716 59.7245 194.791 59.9396L194.873 60.1447C194.951 60.3498 195.033 60.5599 195.121 60.7674L195.208 60.9725C195.296 61.1776 195.383 61.3827 195.476 61.5903L195.949 62.5882C196.016 62.7207 196.086 62.8558 196.154 62.9833L196.359 63.3685L196.389 63.431L196.481 63.601C196.631 63.8737 196.784 64.1413 196.944 64.3989L197.864 65.8444C198.009 66.0595 198.157 66.2721 198.312 66.4872C198.657 66.9549 199.017 67.4225 199.382 67.8702C199.475 67.9778 199.563 68.0853 199.655 68.1928C199.888 68.4604 200.118 68.728 200.355 68.9856C200.5 69.1407 200.638 69.2933 200.783 69.4433C200.933 69.5984 201.076 69.7459 201.231 69.896C202.789 71.4541 204.529 72.8271 206.403 73.9776C210.802 76.6761 215.871 78.1042 221.053 78.1042C234.058 78.1042 245.27 69.2883 248.316 56.6634C248.842 54.51 249.102 52.2892 249.102 50.0533C249.102 49.5906 249.092 49.1329 249.072 48.6753C249.062 48.4502 249.047 48.2226 249.032 47.9975C249.017 47.8324 249.007 47.6624 248.992 47.4948L248.957 47.1347C248.937 46.9546 248.917 46.7795 248.894 46.5994C248.874 46.4344 248.854 46.2693 248.832 46.1168C248.812 45.9942 248.797 45.8692 248.774 45.7466L248.754 45.6141C248.702 45.2964 248.647 44.9813 248.589 44.6787L248.554 44.4886C248.534 44.3811 248.507 44.2785 248.492 44.206L248.457 44.0359L248.524 43.9084L248.349 43.5583L248.261 43.1981C248.214 43.0231 248.169 42.848 248.121 42.6729L247.931 42.0102C247.874 41.8151 247.814 41.62 247.751 41.4249L247.654 41.1323C247.581 40.9172 247.509 40.6997 247.434 40.4946L246.996 39.3741C246.913 39.1641 246.821 38.9515 246.718 38.7164L246.221 37.6485C246.163 37.5409 246.113 37.4384 246.061 37.3358L245.958 37.1358C245.881 36.9857 245.798 36.8382 245.715 36.6831C245.638 36.533 245.555 36.3905 245.468 36.2404C245.385 36.0904 245.303 35.9478 245.215 35.7977L244.865 35.2275L244.68 34.9349C244.593 34.7949 244.5 34.6523 244.402 34.5122C244.217 34.2296 244.022 33.952 243.807 33.6494L243.73 33.5469C243.632 33.4093 243.53 33.2743 243.427 33.1417L243.119 32.7416C242.914 32.474 242.697 32.2114 242.482 31.9563C242.302 31.7462 242.117 31.5286 241.927 31.3235C241.591 30.9484 241.244 30.5782 240.889 30.2231C240.163 29.4978 239.393 28.81 238.595 28.1723C238.22 27.8697 237.83 27.5695 237.44 27.2869C237 26.9693 236.544 26.6692 236.087 26.3766H231.79C232.025 26.4841 232.26 26.5917 232.5 26.7092C233.801 27.352 235.061 28.1073 236.237 28.9551C236.602 29.2177 236.962 29.4903 237.312 29.7729C238.052 30.3631 238.768 31.0059 239.436 31.6736C239.766 32.0038 240.088 32.3464 240.401 32.6915C240.576 32.8866 240.746 33.0817 240.909 33.2818C241.114 33.5194 241.309 33.7595 241.504 34.007L241.786 34.3772C241.879 34.4997 241.977 34.6248 242.074 34.7623L242.162 34.8799C242.342 35.1325 242.522 35.3876 242.697 35.6502C242.779 35.7777 242.867 35.9128 242.954 36.0403C243.007 36.1279 243.062 36.2154 243.119 36.3079L243.45 36.8432C243.527 36.9757 243.605 37.1158 243.682 37.2483C243.76 37.3859 243.837 37.5259 243.912 37.6585C243.985 37.796 244.062 37.9361 244.127 38.0686L244.21 38.2287L244.22 38.2487C244.272 38.3512 244.322 38.4538 244.375 38.5513L244.575 38.974L244.848 39.5642C244.935 39.7593 245.018 39.9544 245.1 40.1494L245.495 41.1823C245.568 41.3824 245.64 41.5825 245.705 41.7851L245.793 42.0527C245.856 42.2327 245.911 42.4128 245.963 42.5979L246.138 43.2056C246.178 43.3707 246.226 43.5282 246.266 43.6933L246.568 45.0613C246.626 45.349 246.676 45.6416 246.723 45.9342L246.743 46.0617C246.758 46.1693 246.773 46.2818 246.796 46.4019C246.816 46.5519 246.836 46.6995 246.853 46.8495C246.873 47.0146 246.893 47.1797 246.911 47.3572L246.941 47.6699C246.956 47.8299 246.971 47.9875 246.981 48.1425C246.996 48.3526 247.006 48.5652 247.016 48.7753C247.036 49.198 247.046 49.6231 247.046 50.0508C247.046 51.789 246.866 53.5196 246.526 55.2153C245.518 54.8426 243.815 54.44 241.944 55.0077C241.409 55.1703 240.158 55.5529 239.203 56.7159C238.64 57.4011 238.415 58.0764 238.215 58.6741C237.89 59.647 237.817 60.3298 237.742 61.0526C237.717 61.2826 237.692 61.5202 237.657 61.7853C237.397 63.7161 237.27 64.5289 236.699 65.2517C235.924 66.2371 234.729 66.5172 234.336 66.6097C233.576 66.7873 232.833 66.6822 231.08 66.4021C230.024 66.2346 229.372 66.0745 228.844 65.9495C228.061 65.7619 227.496 65.6193 226.47 65.6644C225.585 65.6994 224.105 65.7569 222.784 66.7698C222.024 67.3525 221.539 68.0828 221.246 68.523C220.881 69.0732 220.706 69.4708 220.566 69.7885C220.426 70.1061 220.348 70.2786 220.108 70.5437C219.895 70.7788 219.535 71.1715 219.005 71.299C218.435 71.4391 217.907 71.2165 217.347 70.9789C216.962 70.8164 216.352 70.3812 215.391 69.6809C215.109 69.4758 214.901 69.3158 214.726 69.1807C214.348 68.8881 214.076 68.678 213.588 68.4279C213.008 68.1278 212.05 67.6151 210.734 67.6601C208.976 67.7051 207.756 68.723 207.296 69.1082C206.665 69.6359 206.135 70.2937 205.735 71.0314C204.655 70.2436 203.632 69.3783 202.681 68.4329C202.541 68.3004 202.409 68.1553 202.271 68.0178C202.139 67.8727 202.003 67.7302 201.876 67.5901C201.656 67.3475 201.438 67.1024 201.228 66.8598C201.146 66.7573 201.063 66.6597 200.976 66.5572C200.635 66.1395 200.303 65.7094 199.983 65.2717C199.845 65.0766 199.705 64.8765 199.568 64.6815L199.037 63.8737L199.007 63.8211L198.715 63.3434C198.57 63.0959 198.427 62.8508 198.287 62.6032L197.984 62.0329C197.922 61.9104 197.862 61.7903 197.789 61.6528L197.732 61.5402C197.679 61.4377 197.634 61.3352 197.582 61.2326L197.352 60.7349C197.269 60.5499 197.187 60.3598 197.109 60.1747L197.027 59.9796C196.944 59.7896 196.867 59.5945 196.796 59.3994L196.719 59.2093C196.646 59.0143 196.574 58.8192 196.509 58.6291L196.376 58.234C196.309 58.0339 196.249 57.8338 196.186 57.6312C196.104 57.3636 196.026 57.096 195.956 56.8284L195.659 55.6004C195.596 55.3228 195.541 55.0502 195.493 54.7726L195.396 54.2024C195.356 53.9723 195.323 53.7397 195.293 53.5096C195.273 53.3721 195.258 53.237 195.241 53.0995L195.216 52.8744C195.201 52.7518 195.191 52.6268 195.181 52.5042L195.128 51.944C195.123 51.8215 195.113 51.6964 195.108 51.5639L195.098 51.3788C195.083 51.1262 195.078 50.8761 195.073 50.6235C195.068 50.4334 195.063 50.2434 195.063 50.0533C195.063 49.7907 195.068 49.5281 195.078 49.268C195.088 48.7528 195.126 48.2301 195.171 47.7099C195.433 44.7437 196.199 41.8751 197.437 39.1816C197.489 39.074 197.539 38.9665 197.592 38.8514C197.644 38.7439 197.699 38.6363 197.752 38.5288C197.804 38.4213 197.859 38.3137 197.917 38.2112L198.082 37.8886C198.232 37.6059 198.385 37.3283 198.55 37.0507L198.775 36.6606C198.867 36.5105 198.96 36.358 199.052 36.2079L199.417 35.6527C199.705 35.22 200.013 34.7849 200.338 34.3572L200.63 33.982C200.718 33.8695 200.806 33.757 200.898 33.6469C201.253 33.2092 201.628 32.7791 202.008 32.3664C202.174 32.1913 202.339 32.0163 202.506 31.8462L202.676 31.6711C203.817 30.5357 205.067 29.4978 206.398 28.5824C206.48 28.5249 206.568 28.4699 206.655 28.4074C207.831 27.6246 209.061 26.9493 210.332 26.3716H206.025C205.857 26.4791 205.687 26.5842 205.52 26.6942C205.427 26.7567 205.33 26.8218 205.237 26.8843H205.227ZM208.611 70.6913C208.979 70.3862 209.741 69.7484 210.784 69.7209C211.562 69.7084 212.182 70.0235 212.643 70.2611C212.965 70.4262 213.123 70.5487 213.468 70.8139C213.653 70.9564 213.876 71.129 214.178 71.3491C215.384 72.2269 215.971 72.6371 216.544 72.8772C217.064 73.0972 217.785 73.4024 218.642 73.4024C218.913 73.4024 219.195 73.3723 219.488 73.2998C220.628 73.0222 221.326 72.2569 221.624 71.9293C222.091 71.4166 222.271 71.0089 222.444 70.6188C222.564 70.3462 222.689 70.0636 222.959 69.6559C223.207 69.2833 223.544 68.7756 224.032 68.4029C224.835 67.7877 225.825 67.7502 226.548 67.7202C227.286 67.6926 227.646 67.7777 228.359 67.9502C228.889 68.0778 229.617 68.2554 230.752 68.4354C232.54 68.7205 233.621 68.8931 234.806 68.613C236.324 68.2554 237.505 67.5526 238.315 66.5247C239.258 65.3292 239.431 64.0287 239.696 62.0555C239.733 61.7703 239.761 61.5127 239.786 61.2651C239.856 60.6049 239.908 60.0822 240.163 59.3244C240.353 58.7567 240.483 58.3915 240.789 58.0189C241.349 57.3361 242.124 57.0985 242.542 56.9735C243.992 56.5333 245.348 56.941 246.033 57.2261C242.852 68.3579 232.74 76.0434 221.053 76.0434C216.247 76.0434 211.555 74.7229 207.483 72.2194C207.473 72.2119 207.463 72.2044 207.451 72.1994C207.738 71.6142 208.131 71.094 208.616 70.6888L208.611 70.6913Z" fill="#1A1A1A"/>
<path d="M228.344 42.5309C226.38 40.6251 223.789 39.5747 221.051 39.5747C216.024 39.5747 211.695 43.1511 210.759 48.083L210.749 48.1405C210.672 48.5732 210.617 49.0134 210.594 49.456L210.579 49.7337C210.579 49.8362 210.574 49.9437 210.574 50.0513C210.574 50.8316 210.662 51.6094 210.832 52.3697C211.182 53.9128 211.895 55.3808 212.863 56.5788L212.91 56.6363C213.25 57.064 213.63 57.4642 214.036 57.8293L214.061 57.8493C215.984 59.5775 218.465 60.5278 221.051 60.5278C226.13 60.5278 230.467 56.9039 231.362 51.912C231.377 51.8345 231.387 51.7619 231.402 51.6744L231.422 51.5369C231.49 51.0492 231.525 50.549 231.525 50.0513V49.9888C231.525 49.8712 231.52 49.7512 231.515 49.6286C231.437 47.6403 230.795 45.7221 229.664 44.0815C229.592 43.9839 229.519 43.8814 229.444 43.7838C229.196 43.4487 228.924 43.1261 228.636 42.8285C228.544 42.7259 228.441 42.6284 228.344 42.5309ZM229.464 49.7111C229.469 49.8137 229.469 49.9162 229.469 50.0463V50.0513C229.469 50.4514 229.444 50.8541 229.387 51.2392L229.334 51.5469C228.619 55.5559 225.135 58.472 221.048 58.472C218.977 58.472 216.992 57.7118 215.451 56.3387L215.426 56.3187C215.091 56.0211 214.783 55.691 214.491 55.3308C213.688 54.3329 213.118 53.1575 212.84 51.917C212.703 51.3043 212.63 50.679 212.63 50.0513C212.63 49.9687 212.635 49.8862 212.635 49.7837L212.645 49.5686C212.665 49.2135 212.708 48.8583 212.778 48.4682C213.533 44.5041 217.009 41.6305 221.048 41.6305C223.249 41.6305 225.33 42.4733 226.913 44.0064C226.991 44.084 227.068 44.1665 227.151 44.244C227.376 44.4866 227.598 44.7467 227.798 45.0143C227.861 45.0969 227.916 45.1744 227.973 45.2569C228.884 46.5724 229.402 48.1155 229.464 49.7136V49.7111Z" fill="#1A1A1A"/>
<path d="M207.776 54.7878C207.513 54.2851 206.89 54.0901 206.388 54.3527C205.885 54.6153 205.69 55.2355 205.953 55.7407L207.321 58.3617C207.503 58.7144 207.861 58.9144 208.233 58.9144C208.393 58.9144 208.556 58.8769 208.709 58.7969C209.211 58.5343 209.406 57.914 209.144 57.4089L207.776 54.7878Z" fill="#1A1A1A"/>
<path d="M205.97 62.8911C205.97 62.8911 205.955 62.8911 205.945 62.8911L202.989 62.9586C202.421 62.9711 201.971 63.4413 201.986 64.009C201.998 64.5693 202.456 65.0144 203.014 65.0144C203.021 65.0144 203.029 65.0144 203.039 65.0144L205.995 64.9469C206.563 64.9344 207.013 64.4642 206.998 63.8965C206.985 63.3363 206.528 62.8911 205.97 62.8911Z" fill="#1A1A1A"/>
<path d="M237.335 48.4633C236.975 48.9034 237.04 49.5512 237.48 49.9088L239.768 51.7795C239.958 51.9346 240.191 52.0121 240.418 52.0121C240.716 52.0121 241.011 51.8846 241.214 51.6345C241.574 51.1943 241.509 50.5466 241.069 50.1889L238.78 48.3182C238.34 47.9581 237.692 48.0231 237.335 48.4633Z" fill="#1A1A1A"/>
<path d="M233.953 44.3238C234.133 44.4513 234.341 44.5113 234.546 44.5113C234.869 44.5113 235.186 44.3613 235.386 44.0762L237.092 41.6627C237.42 41.2001 237.31 40.5573 236.847 40.2297C236.382 39.902 235.741 40.0121 235.414 40.4748L233.708 42.8882C233.381 43.3509 233.491 43.9936 233.953 44.3213V44.3238Z" fill="#1A1A1A"/>
<path d="M234.546 35.4257C234.656 35.4257 234.766 35.4082 234.876 35.3707L237.677 34.4228C238.215 34.2403 238.503 33.6575 238.323 33.1198C238.14 32.5821 237.557 32.2945 237.02 32.4746L234.218 33.4224C233.681 33.605 233.393 34.1877 233.573 34.7254C233.718 35.1531 234.118 35.4232 234.546 35.4232V35.4257Z" fill="#1A1A1A"/>
<path d="M223.639 35.2905C223.527 35.8482 223.889 36.3884 224.445 36.501L227.343 37.0837C227.411 37.0962 227.478 37.1037 227.546 37.1037C228.026 37.1037 228.454 36.7661 228.554 36.2784C228.666 35.7207 228.304 35.1805 227.748 35.0679L224.85 34.4852C224.295 34.3752 223.752 34.7328 223.639 35.2905Z" fill="#1A1A1A"/>
<path d="M222.311 25.9543C221.986 25.4891 221.346 25.3741 220.881 25.6967C220.646 25.8617 220.501 26.1068 220.456 26.3669H222.601L222.314 25.9518L222.311 25.9543Z" fill="#1A1A1A"/>
<path d="M220.623 27.1299L222.314 29.5559C222.514 29.8435 222.834 29.996 223.159 29.996C223.362 29.996 223.567 29.936 223.744 29.811C224.21 29.4858 224.325 28.8456 224.002 28.3804L222.601 26.3696H220.456C220.413 26.6272 220.463 26.8998 220.626 27.1299H220.623Z" fill="#1A1A1A"/>
<path d="M218.167 62.9465L216.272 65.2148C215.906 65.65 215.966 66.3003 216.402 66.6629C216.594 66.823 216.827 66.903 217.062 66.903C217.357 66.903 217.647 66.7779 217.852 66.5353L219.748 64.267C220.113 63.8318 220.053 63.1815 219.618 62.8189C219.183 62.4538 218.535 62.5138 218.17 62.949L218.167 62.9465Z" fill="#1A1A1A"/>
<path d="M215.156 37.4136C215.273 37.4561 215.391 37.4761 215.509 37.4761C215.929 37.4761 216.321 37.216 216.474 36.8009L217.489 34.0248C217.684 33.4921 217.409 32.9018 216.877 32.7068C216.344 32.5142 215.754 32.7868 215.559 33.3195L214.543 36.0956C214.348 36.6283 214.623 37.2185 215.156 37.4136Z" fill="#1A1A1A"/>
<path d="M200.836 50.1389C200.303 49.9463 199.713 50.2189 199.518 50.7516L198.502 53.5277C198.307 54.0604 198.582 54.6507 199.115 54.8457C199.232 54.8882 199.35 54.9083 199.468 54.9083C199.888 54.9083 200.28 54.6482 200.433 54.233L201.448 51.4569C201.643 50.9242 201.368 50.334 200.836 50.1389Z" fill="#1A1A1A"/>
<path d="M207.298 45.7172C207.478 46.0749 207.841 46.2825 208.216 46.2825C208.371 46.2825 208.531 46.2474 208.679 46.1724C209.186 45.9148 209.389 45.2971 209.131 44.7919L207.798 42.1534C207.541 41.6457 206.923 41.4431 206.418 41.7007C205.91 41.9583 205.707 42.576 205.965 43.0812L207.298 45.7197V45.7172Z" fill="#1A1A1A"/>
<path d="M200.735 38.5689C200.165 38.5339 199.68 38.9641 199.642 39.5293L199.455 42.4804C199.42 43.0481 199.848 43.5358 200.415 43.5734C200.438 43.5734 200.46 43.5734 200.483 43.5734C201.02 43.5734 201.473 43.1557 201.508 42.6105L201.696 39.6593C201.731 39.0916 201.303 38.6039 200.735 38.5664V38.5689Z" fill="#1A1A1A"/>
<path d="M230.71 60.7202C230.897 61.0578 231.247 61.2479 231.607 61.2479C231.777 61.2479 231.95 61.2054 232.108 61.1179L234.689 59.6773C235.184 59.3997 235.361 58.7745 235.084 58.2793C234.806 57.7841 234.181 57.6065 233.686 57.8841L231.105 59.3247C230.61 59.6023 230.432 60.2275 230.71 60.7227V60.7202Z" fill="#1A1A1A"/>
<path d="M207.678 32.9772L210.634 32.9897H210.639C211.205 32.9897 211.665 32.532 211.667 31.9668C211.67 31.3991 211.212 30.9364 210.644 30.9339L207.688 30.9214H207.683C207.118 30.9214 206.658 31.3791 206.655 31.9443C206.653 32.512 207.11 32.9747 207.678 32.9772Z" fill="#1A1A1A"/>
<path d="M723.812 83.3094C723.837 83.9821 724.382 84.5123 725.055 84.5123H748.182C748.849 84.5123 749.4 83.9821 749.42 83.3094L749.702 75.4663H723.527L723.81 83.3094H723.812Z" fill="#9ABAE3"/>
<path d="M750.54 52.312L750.865 43.271H722.367L722.692 52.312H743.18H746.846H750.54Z" fill="#9ABAE3"/>
<path d="M735.027 66.69C735.592 66.0072 735.562 65.0493 735.524 63.9389C735.484 62.6234 735.437 61.1328 736.475 59.8673C737.005 59.2246 737.728 58.7569 738.648 58.4693C738.01 58.2267 737.323 58.0991 736.612 58.0991C735.064 58.0991 733.616 58.7069 732.521 59.7948C730.357 61.9581 730.27 65.4195 732.248 67.6853C733.574 67.6378 734.504 67.3052 735.024 66.6875L735.027 66.69Z" fill="#EC644E"/>
<path d="M737.988 61.1182C737.423 61.806 737.453 62.7689 737.49 63.8793C737.53 65.1948 737.578 66.6904 736.535 67.9459C736.032 68.5536 735.352 68.9988 734.514 69.2764C736.59 70.0892 739.038 69.6515 740.709 67.9809C742.872 65.8176 742.96 62.3587 740.976 60.0903C739.516 60.1203 738.525 60.4705 737.99 61.1182H737.988Z" fill="#EC644E"/>
<path d="M719.961 39.3894V41.1326C719.961 41.2301 720.038 41.3077 720.136 41.3077H753.096C753.194 41.3077 753.271 41.2301 753.271 41.1326V39.3894C753.271 39.2919 753.194 39.2144 753.096 39.2144H720.136C720.038 39.2144 719.961 39.2919 719.961 39.3894Z" fill="#EC644E"/>
<path d="M742.097 58.4096C739.076 55.3934 734.161 55.3934 731.138 58.4096C728.136 61.4108 728.114 66.2751 731.075 69.3013C731.095 69.3213 731.115 69.3488 731.138 69.3688C731.158 69.3889 731.183 69.4089 731.205 69.4314C732.706 70.9019 734.664 71.6372 736.617 71.6372C737.61 71.6372 738.601 71.4472 739.531 71.072C740.466 70.6919 741.339 70.1266 742.097 69.3713C745.121 66.3502 745.121 61.4408 742.102 58.4171C742.102 58.4171 742.097 58.4171 742.097 58.4121V58.4096ZM732.526 59.7976C733.621 58.7072 735.069 58.102 736.617 58.102C737.328 58.102 738.015 58.2295 738.653 58.4721C737.733 58.7597 737.007 59.2274 736.48 59.8702C735.442 61.1356 735.487 62.6262 735.529 63.9417C735.564 65.0522 735.597 66.0075 735.032 66.6928C734.511 67.3105 733.581 67.6432 732.256 67.6907C730.277 65.4248 730.365 61.9635 732.528 59.8001L732.526 59.7976ZM740.709 67.9808C739.038 69.6515 736.592 70.0891 734.514 69.2763C735.352 68.9987 736.029 68.551 736.535 67.9458C737.578 66.6928 737.533 65.1947 737.49 63.8792C737.455 62.7688 737.423 61.8084 737.988 61.1181C738.523 60.4704 739.513 60.1203 740.974 60.0902C742.957 62.3561 742.87 65.8175 740.706 67.9808H740.709Z" fill="#1A1A1A"/>
<path d="M737.503 14H735.542V18.0791H737.503V14Z" fill="#1A1A1A"/>
<path d="M737.503 18.0791H735.542V20.5801H737.503V18.0791Z" fill="#1A1A1A"/>
<path d="M720.621 37.2516H720.138C718.96 37.2516 718 38.2119 718 39.3899V41.1331C718 42.311 718.96 43.2714 720.138 43.2714H720.411L720.741 52.4375C720.463 52.54 720.206 52.7051 719.996 52.9251C719.616 53.3203 719.421 53.8355 719.441 54.3857L720.133 73.5432C720.168 74.426 720.761 75.1513 721.566 75.3839L721.854 83.382C721.917 85.1152 723.32 86.4707 725.055 86.4707H748.182C749.915 86.4707 751.318 85.1127 751.383 83.382L751.671 75.3839C752.478 75.1513 753.064 74.4285 753.099 73.5432L753.796 54.3857C753.816 53.8355 753.616 53.3228 753.236 52.9251C753.026 52.7051 752.769 52.54 752.491 52.4375L752.821 43.2714H753.094C754.272 43.2714 755.232 42.311 755.232 41.1331V39.3899C755.232 38.2119 754.272 37.2516 753.094 37.2516H752.721C752.153 30.2939 745.613 24.7342 737.503 24.3766V20.5801H735.542V24.3966C727.569 24.8767 721.181 30.3789 720.621 37.2516ZM735.542 26.3623V37.2516H722.589C723.152 31.4543 728.659 26.8225 735.542 26.3623ZM749.42 83.3095C749.4 83.9822 748.849 84.5124 748.182 84.5124H725.055C724.383 84.5124 723.837 83.9822 723.812 83.3095L723.53 75.4664H749.705L749.422 83.3095H749.42ZM751.143 73.4706C751.138 73.4906 751.123 73.5056 751.108 73.5056H722.132C722.112 73.5056 722.097 73.4906 722.097 73.4706L721.396 54.3132L721.431 54.2782H743.18C743.72 54.2782 744.155 53.8355 744.155 53.2953C744.155 52.7551 743.718 52.3124 743.18 52.3124H722.367H722.689L722.367 43.2714H750.865L750.543 52.3124H750.865H746.846C746.306 52.3124 745.863 52.7501 745.863 53.2953C745.863 53.8405 746.306 54.2782 746.846 54.2782H751.801L751.836 54.3132L751.143 73.4706ZM753.096 39.2148C753.194 39.2148 753.271 39.2923 753.271 39.3899V41.1331C753.271 41.2306 753.194 41.3081 753.096 41.3081H720.136C720.038 41.3081 719.961 41.2306 719.961 41.1331V39.3899C719.961 39.2923 720.038 39.2148 720.136 39.2148H753.096ZM737.503 26.3423C744.523 26.6875 750.183 31.3718 750.753 37.2516H737.503V26.3423Z" fill="#1A1A1A"/>
</svg>
