<svg width="791" height="520" viewBox="0 0 791 520" fill="none" xmlns="http://www.w3.org/2000/svg">
<path opacity="0.1" d="M57.0551 90.5108C101.976 41.9573 161.263 35.5067 217.037 30.8594L544.806 3.18388C598.918 -1.38015 655.157 -5.45864 705.338 24.3255C755.52 54.1096 797.858 128.216 790.072 206.582C784.328 264.374 752.861 311.138 716.799 336.344C680.737 361.55 640.231 368.833 600.542 375.784L169.79 451.236C100.362 463.346 17.6127 451.902 2.13579 331.198C-7.36875 257.147 15.5428 135.36 57.0551 90.5108Z" fill="#FF644C"/>
<g clip-path="url(#clip0_98_2084)">
<path d="M67.99 488.98H714.84" stroke="#1A2E35" stroke-width="2.5" stroke-linecap="round" stroke-linejoin="round"/>
<path d="M555.83 233.34H490.29V302.05H555.83V233.34Z" stroke="#8CBBE5" stroke-width="2.5" stroke-linecap="round" stroke-linejoin="round"/>
<path d="M627.77 233.34H561.17V302.05H627.77V233.34Z" stroke="#8CBBE5" stroke-width="2.5" stroke-linecap="round" stroke-linejoin="round"/>
<path d="M555.83 159.29H490.29V228H555.83V159.29Z" stroke="#8CBBE5" stroke-width="2.5" stroke-linecap="round" stroke-linejoin="round"/>
<path d="M627.77 159.29H561.17V228H627.77V159.29Z" stroke="#8CBBE5" stroke-width="2.5" stroke-linecap="round" stroke-linejoin="round"/>
<path d="M555.83 98.59H490.29V153.95H555.83V98.59Z" stroke="#8CBBE5" stroke-width="2.5" stroke-linecap="round" stroke-linejoin="round"/>
<path d="M627.77 98.59H561.17V153.95H627.77V98.59Z" stroke="#8CBBE5" stroke-width="2.5" stroke-linecap="round" stroke-linejoin="round"/>
<path d="M485 93.25V307.4H633.11V93.25H485ZM555.88 302.06H490.29V233.34H555.83L555.88 302.06ZM555.88 228H490.29V159.29H555.83L555.88 228ZM555.88 154H490.29V98.59H555.83L555.88 154ZM627.82 302.11H561.22V233.34H627.82V302.11ZM627.82 228.05H561.22V159.29H627.82V228.05ZM627.82 154.05H561.22V98.59H627.82V154.05Z" fill="white" stroke="#8CBBE5" stroke-width="2.5" stroke-linecap="round" stroke-linejoin="round"/>
<path d="M509.02 191.58L532.05 168.55" stroke="#8CBBE5" stroke-width="2.5" stroke-linecap="round" stroke-linejoin="round"/>
<path d="M595.98 142.4L619.02 119.37" stroke="#8CBBE5" stroke-width="2.5" stroke-linecap="round" stroke-linejoin="round"/>
<path d="M497.5 130.88L520.54 107.85" stroke="#8CBBE5" stroke-width="2.5" stroke-linecap="round" stroke-linejoin="round"/>
<path d="M561.17 275.95L584.2 252.92" stroke="#8CBBE5" stroke-width="2.5" stroke-linecap="round" stroke-linejoin="round"/>
<path d="M520.54 257.05L543.57 234.01" stroke="#8CBBE5" stroke-width="2.5" stroke-linecap="round" stroke-linejoin="round"/>
<path d="M490.29 223.5L533.38 180.42" stroke="#8CBBE5" stroke-width="2.5" stroke-linecap="round" stroke-linejoin="round"/>
<path d="M576.71 202.54L619.8 159.45" stroke="#8CBBE5" stroke-width="2.5" stroke-linecap="round" stroke-linejoin="round"/>
<path d="M561.37 146.26L604.45 103.18" stroke="#8CBBE5" stroke-width="2.5" stroke-linecap="round" stroke-linejoin="round"/>
<path d="M220.61 233.34H155.07V302.05H220.61V233.34Z" stroke="#8CBBE5" stroke-width="2.5" stroke-linecap="round" stroke-linejoin="round"/>
<path d="M292.55 233.34H225.95V302.05H292.55V233.34Z" stroke="#8CBBE5" stroke-width="2.5" stroke-linecap="round" stroke-linejoin="round"/>
<path d="M220.61 159.29H155.07V228H220.61V159.29Z" stroke="#8CBBE5" stroke-width="2.5" stroke-linecap="round" stroke-linejoin="round"/>
<path d="M292.55 159.29H225.95V228H292.55V159.29Z" stroke="#8CBBE5" stroke-width="2.5" stroke-linecap="round" stroke-linejoin="round"/>
<path d="M220.61 98.59H155.07V153.95H220.61V98.59Z" stroke="#8CBBE5" stroke-width="2.5" stroke-linecap="round" stroke-linejoin="round"/>
<path d="M292.55 98.59H225.95V153.95H292.55V98.59Z" stroke="#8CBBE5" stroke-width="2.5" stroke-linecap="round" stroke-linejoin="round"/>
<path d="M149.73 93.25V307.4H297.89V93.25H149.73ZM220.61 302.06H155.07V233.34H220.61V302.06ZM220.61 228H155.07V159.29H220.61V228ZM220.61 154H155.07V98.59H220.61V154ZM292.55 302.11H226V233.34H292.6L292.55 302.11ZM292.55 228.05H226V159.29H292.6L292.55 228.05ZM292.55 154.05H226V98.59H292.6L292.55 154.05Z" fill="white" stroke="#8CBBE5" stroke-width="2.5" stroke-linecap="round" stroke-linejoin="round"/>
<path d="M177.53 122.03L200.56 99" stroke="#8CBBE5" stroke-width="2.5" stroke-linecap="round" stroke-linejoin="round"/>
<path d="M225.95 197.17L248.98 174.14" stroke="#8CBBE5" stroke-width="2.5" stroke-linecap="round" stroke-linejoin="round"/>
<path d="M269.2 147.75L292.23 124.72" stroke="#8CBBE5" stroke-width="2.5" stroke-linecap="round" stroke-linejoin="round"/>
<path d="M266.23 276.86L289.26 253.83" stroke="#8CBBE5" stroke-width="2.5" stroke-linecap="round" stroke-linejoin="round"/>
<path d="M158.8 153.95L201.88 110.87" stroke="#8CBBE5" stroke-width="2.5" stroke-linecap="round" stroke-linejoin="round"/>
<path d="M226.45 301.76L269.53 258.68" stroke="#8CBBE5" stroke-width="2.5" stroke-linecap="round" stroke-linejoin="round"/>
<path d="M163.94 277.1L207.03 234.01" stroke="#8CBBE5" stroke-width="2.5" stroke-linecap="round" stroke-linejoin="round"/>
<path d="M590.76 399.93H598.3V420.93C598.3 437.901 596.16 454.804 591.93 471.24L584.75 506.53H576.52L584 470.36C588.289 454.036 590.507 437.238 590.6 420.36L590.76 399.93Z" fill="white" stroke="#1A2E35" stroke-width="2.5" stroke-linecap="round" stroke-linejoin="round"/>
<path d="M622.42 399.93H630V420.93C629.996 437.901 627.853 454.805 623.62 471.24L616.44 506.53H608.22L615.74 470.39C620.021 454.065 622.235 437.267 622.33 420.39L622.42 399.93Z" fill="white" stroke="#1A2E35" stroke-width="2.5" stroke-linecap="round" stroke-linejoin="round"/>
<path d="M676.37 399.93H668.82V420.93C668.819 437.902 670.962 454.806 675.2 471.24L682.37 506.53H690.6L683.08 470.39C678.799 454.065 676.585 437.267 676.49 420.39L676.37 399.93Z" fill="white" stroke="#1A2E35" stroke-width="2.5" stroke-linecap="round" stroke-linejoin="round"/>
<path d="M642.73 399.93H635.18V420.93C635.184 437.901 637.327 454.805 641.56 471.24L648.74 506.53H657L649.48 470.39C645.199 454.065 642.985 437.267 642.89 420.39L642.73 399.93Z" fill="white" stroke="#1A2E35" stroke-width="2.5" stroke-linecap="round" stroke-linejoin="round"/>
<path d="M644.25 399.93H636.7L635.18 357.74H642.73L644.25 399.93Z" fill="white" stroke="#1A2E35" stroke-width="2.5" stroke-linecap="round" stroke-linejoin="round"/>
<path d="M657.64 399.93H665.19L666.7 357.74H659.15L657.64 399.93Z" fill="white" stroke="#1A2E35" stroke-width="2.5" stroke-linecap="round" stroke-linejoin="round"/>
<path d="M690.6 399.93H575.76V417.3H690.6V399.93Z" fill="white" stroke="#1A2E35" stroke-width="2.5" stroke-linecap="round" stroke-linejoin="round"/>
<path d="M695.88 311.85C691.69 343.39 685.1 380.33 684.88 399.93H677.7C678.61 385.93 681.41 359.57 684.34 339.75C685.77 330.14 687.24 320.2 688.48 310.86C690.6 294.86 686.98 279.69 678.8 270.35C675.56 266.65 670.11 262.24 662.51 262.24C642.29 262.24 627.51 282 624.51 312.55C620.28 355.04 627.09 399.34 627.16 399.93H619.56C619.24 391.66 613.04 354.52 617.07 311.85C620.69 273.55 641.13 254.77 662.55 254.77C683.97 254.77 700.07 280.3 695.88 311.85Z" fill="white" stroke="#1A2E35" stroke-width="2.5" stroke-linecap="round" stroke-linejoin="round"/>
<path d="M659.56 272C642.02 272 623.68 292.23 623.68 322.32C623.68 352.41 637.11 365.13 652.21 365.13C668.1 365.13 684.21 352.44 686.87 322.44C689.26 295.14 678.75 272 659.56 272Z" fill="#8CBBE5" stroke="#1A2E35" stroke-width="2.5" stroke-linecap="round" stroke-linejoin="round"/>
<path d="M649.87 359.85C663.95 359.85 678.28 348.6 680.6 322C682.71 297.8 673.4 277.28 656.38 277.28" stroke="#1A2E35" stroke-width="2.5" stroke-linecap="round" stroke-linejoin="round"/>
<path d="M573.24 490.79L573.36 506.38L517.06 506.76L534.68 491.06L540.49 471.31L581.06 471.2L573.25 490.79H573.24Z" fill="#FFBB91" stroke="#1A2E35" stroke-width="2.5" stroke-linecap="round" stroke-linejoin="round"/>
<path d="M534.68 491.06C534.68 491.06 527.68 500.34 531.54 501.11C542.94 503.41 573.25 490.79 573.25 490.79L573.36 506.38L517.06 506.76L534.68 491.06Z" fill="#1A2E35" stroke="#1A2E35" stroke-width="2.5" stroke-linecap="round" stroke-linejoin="round"/>
<path d="M678.59 347.6C678.59 347.6 688.99 389.94 668.86 397.94C648.73 405.94 603.66 409.58 603.11 410.81C602.56 412.04 604.17 420.05 601.92 431.33C598.54 448.33 586.49 482.13 579.35 484.57C577.23 485.29 584.21 478.27 567.49 479.38C559.7 479.9 537.84 484.88 533.29 481.25C528.74 477.62 534.41 470.66 535.4 470.42C536.39 470.18 547.84 391.42 556.18 381.02C570.77 362.91 620.75 355 620.75 355L620.46 349.92" fill="#FF644C"/>
<path d="M668.86 397.94C648.73 405.94 603.66 409.58 603.11 410.8C602.56 412.02 604.17 420.05 601.92 431.33C598.54 448.33 586.49 482.12 579.35 484.56C577.75 485.11 581.35 481.23 575.97 479.79C582.83 469.39 591.11 444.98 593.82 431.33C596.07 420.05 594.46 412.03 595.01 410.8C595.56 409.57 640.63 405.94 660.76 397.94C679.89 390.33 671.45 351.73 670.57 347.94L678.57 347.63C678.57 347.63 689 389.93 668.86 397.94Z" fill="white"/>
<path d="M678.59 347.6C678.59 347.6 688.99 389.94 668.86 397.94C648.73 405.94 603.66 409.58 603.11 410.81C602.56 412.04 604.17 420.05 601.92 431.33C598.54 448.33 586.49 482.13 579.35 484.57C577.23 485.29 584.21 478.27 567.49 479.38C559.7 479.9 537.84 484.88 533.29 481.25C528.74 477.62 534.41 470.66 535.4 470.42C536.39 470.18 547.84 391.42 556.18 381.02C570.77 362.91 620.75 355 620.75 355L620.46 349.92" stroke="#1A2E35" stroke-width="2.5" stroke-linecap="round" stroke-linejoin="round"/>
<path d="M576.67 480.26L573.87 486.2C575.591 486.185 577.304 485.98 578.98 485.59C581.29 485 576.67 480.26 576.67 480.26Z" fill="#1A2E35"/>
<path d="M576.88 451.82L571.79 432.98L610.02 419.44L613.2 438.8H613.19L618.45 453.46L592.3 467.73L565.47 472.48L576.88 451.82Z" fill="#FFBB91" stroke="#1A2E35" stroke-width="2.5" stroke-linecap="round" stroke-linejoin="round"/>
<path d="M576.88 451.82C576.88 451.82 576.88 463.57 586.32 461.34C595.76 459.11 613.2 438.8 613.2 438.8L618.45 453.46L592.3 467.73L565.47 472.48L576.88 451.82Z" fill="#1A2E35" stroke="#1A2E35" stroke-width="2.5" stroke-linecap="round" stroke-linejoin="round"/>
<path d="M620.86 356.94L598.39 363.68C606.7 377.68 615.39 431.14 615.39 431.14C607.92 441.31 584.59 441.78 578.39 441.95C572.19 442.12 571.57 443.71 571.57 443.71C568.18 440.08 570.4 437.5 569.41 435.28C568.42 433.06 544.62 382.38 550.08 358.12C552.55 347.12 565.51 339.78 572.99 339.36C591.09 338.36 628.7 349.55 628.7 349.55L620.86 356.94Z" fill="#FF644C" stroke="#1A2E35" stroke-width="2.5" stroke-linecap="round" stroke-linejoin="round"/>
<path d="M725.78 254.36C723.21 254.31 723.03 258.26 725.65 258.3C725.935 258.359 726.23 258.355 726.514 258.288C726.797 258.221 727.063 258.092 727.291 257.912C727.52 257.732 727.707 257.504 727.838 257.244C727.97 256.984 728.043 256.698 728.053 256.407C728.062 256.116 728.008 255.826 727.894 255.558C727.78 255.29 727.609 255.05 727.392 254.855C727.176 254.66 726.919 254.515 726.641 254.429C726.362 254.344 726.069 254.32 725.78 254.36Z" fill="#1A2E35"/>
<path d="M718 244C717 245.93 719.13 246.4 721.21 248.59C722.93 250.41 723.66 253.37 725.32 253.04C726.98 252.71 728.08 250.19 725.21 246.45C722.8 243.32 719.1 242 718 244Z" fill="#1A2E35"/>
<path d="M642.72 232.53C645.44 234.48 649.03 231.26 651.36 235.1C653.69 238.94 656.36 248.36 665.14 250.68C673.92 253 684.38 248.55 689.88 261.82C695.75 275.97 710.77 281.7 719.76 273.62C728.75 265.54 718.54 243.62 701.76 239.27C687.76 235.64 677.31 242.92 667.57 240.59C659.93 238.75 657.51 228.01 650.8 226.59C644.09 225.17 639.71 230.38 642.72 232.53Z" fill="#1A2E35"/>
<path d="M647.1 230.71C647.242 231.456 647.161 232.227 646.865 232.926C646.569 233.625 646.073 234.221 645.439 234.638C644.805 235.056 644.061 235.276 643.302 235.27C642.543 235.265 641.802 235.035 641.174 234.609C640.545 234.183 640.057 233.581 639.771 232.877C639.485 232.174 639.414 231.402 639.567 230.658C639.719 229.915 640.089 229.233 640.629 228.699C641.169 228.166 641.855 227.804 642.6 227.66C643.601 227.472 644.635 227.687 645.478 228.259C646.321 228.83 646.904 229.711 647.1 230.71Z" fill="#FF644C" stroke="#1A2E35" stroke-width="2.5" stroke-linecap="round" stroke-linejoin="round"/>
<path d="M607.39 298.69C594.21 316.49 578.51 337.77 569.67 338.84C553.8 340.75 552.38 325.71 556.67 317.1C561.46 307.54 580.37 273.4 596.32 261.72C607.22 253.72 617.27 255.09 629.64 255.52" fill="#8CBBE5"/>
<path d="M607.39 298.69C594.21 316.49 578.51 337.77 569.67 338.84C553.8 340.75 552.38 325.71 556.67 317.1C561.46 307.54 580.37 273.4 596.32 261.72C607.22 253.72 617.27 255.09 629.64 255.52" stroke="#1A2E35" stroke-width="2.5" stroke-linecap="round" stroke-linejoin="round"/>
<path d="M615.73 255C618.57 255 629.85 255.83 633.47 256C647.47 256.79 657.68 254 666.17 267C674 279 675.7 301.58 675.98 324.28C675.98 324.28 688.82 351.22 682.82 355.86C682.82 355.86 683.15 352.26 679.31 353.53C666.31 357.84 656.06 360.14 639.31 358.9C621.17 357.55 605.89 346.78 597.55 341.6C588.85 336.19 579.44 339.73 581.55 331.28C582.99 325.67 593.08 295.82 596.04 285.42" fill="#8CBBE5"/>
<path d="M615.73 255C618.57 255 629.85 255.83 633.47 256C647.47 256.79 657.68 254 666.17 267C674 279 675.7 301.58 675.98 324.28C675.98 324.28 688.82 351.22 682.82 355.86C682.82 355.86 683.15 352.26 679.31 353.53C666.31 357.84 656.06 360.14 639.31 358.9C621.17 357.55 605.89 346.78 597.55 341.6C588.85 336.19 579.44 339.73 581.55 331.28C582.99 325.67 593.08 295.82 596.04 285.42" stroke="#1A2E35" stroke-width="2.5" stroke-linecap="round" stroke-linejoin="round"/>
<path d="M624.37 344.45C624.37 344.45 608.37 340.99 603.51 330.87" stroke="#1A2E35" stroke-width="2.5" stroke-linecap="round" stroke-linejoin="round"/>
<path d="M621.11 337.47C621.11 337.47 614.45 337.71 611.6 334.68" stroke="#1A2E35" stroke-width="2.5" stroke-linecap="round" stroke-linejoin="round"/>
<path d="M683.3 356C683.02 357.07 680.52 357.37 680.52 357.37L679.3 353.62C679.3 353.62 683.89 353.75 683.3 356Z" fill="#1A2E35"/>
<path d="M616.41 316.7C618.66 316.7 618.81 316.05 627.7 316.7C653.61 318.47 661.7 334.85 655.64 334.8C655.64 334.8 658.77 337.72 657.64 339.64C654.64 344.74 646.71 334.27 639.64 334.81C639.64 334.81 652.49 343.99 649.91 346.95C647.33 349.91 643.1 345.95 634.7 342.42C631.01 345.12 619.33 348.13 614.04 343.64L600.58 341.45L609.36 314.22L616.41 316.7Z" fill="#FFBB91" stroke="#1A2E35" stroke-width="2.5" stroke-linecap="round" stroke-linejoin="round"/>
<path d="M655.45 334.5C652.45 331.56 643.32 327.28 643.32 327.28" stroke="#1A2E35" stroke-width="2.5" stroke-linecap="round" stroke-linejoin="round"/>
<path d="M555.33 331.7C559.05 344.45 568.23 347.12 577.8 347.94C600.92 349.94 608.86 352.74 612.8 348.23C614.31 346.51 611.14 349.52 609.4 345.82C603.32 332.87 615.05 321.21 612.74 311.04C612.74 311.04 598.44 306.85 577.16 307.85" fill="#8CBBE5"/>
<path d="M555.33 331.7C559.05 344.45 568.23 347.12 577.8 347.94C600.92 349.94 608.86 352.74 612.8 348.23C614.31 346.51 611.14 349.52 609.4 345.82C603.32 332.87 615.05 321.21 612.74 311.04C612.74 311.04 598.44 306.85 577.16 307.85" stroke="#1A2E35" stroke-width="2.5" stroke-linecap="round" stroke-linejoin="round"/>
<path d="M614.17 348.22C615.6 347.43 614.86 343.69 614.86 343.69L607.86 343.12C607.86 343.12 611 350 614.17 348.22Z" fill="#1A2E35"/>
<path d="M651.28 297.26C659.83 315.26 668.99 338.03 677.11 340.09C691.69 343.79 699.72 326.61 697.54 318.09C695.12 308.7 684.2 277.24 671.69 264.53C663.13 255.83 647.88 255.6 639.8 256.83" fill="#8CBBE5"/>
<path d="M691 336.61C694 331.71 695.1 325.83 694.06 321.81C691.5 311.87 679.94 278.58 666.71 265.13C660.71 259.01 651.53 256.85 643.56 256.47C652 255.88 664.32 257.09 671.69 264.57C684.2 277.28 695.12 308.75 697.54 318.14C698.87 323.3 696.41 331.68 691 336.61Z" fill="white"/>
<path d="M651.28 297.26C659.83 315.26 668.99 338.03 677.11 340.09C691.69 343.79 699.72 326.61 697.54 318.09C695.12 308.7 684.2 277.24 671.69 264.53C663.13 255.83 647.88 255.6 639.8 256.83" stroke="#1A2E35" stroke-width="2.5" stroke-linecap="round" stroke-linejoin="round"/>
<path d="M630 256.46C630 256.46 626.29 260.96 629 261.81C633.23 263.14 639.83 256.88 639.83 256.88L630 256.46Z" fill="#1A2E35"/>
<path d="M624 240.27C621.61 247.58 624.66 255.14 630.81 257.16C636.96 259.18 643.9 254.89 646.3 247.58C648.7 240.27 645.65 232.71 639.49 230.69C633.33 228.67 626.43 233 624 240.27Z" fill="#FFBB91"/>
<path d="M639.52 230.69C637.835 230.14 636.034 230.043 634.3 230.41C635.164 230.446 636.019 230.6 636.84 230.87C642.67 232.79 645.56 239.95 643.29 246.87C641.02 253.79 634.44 257.87 628.61 255.96L628.17 255.8C628.987 256.381 629.887 256.836 630.84 257.15C637 259.15 643.93 254.88 646.33 247.57C648.73 240.26 645.68 232.71 639.52 230.69Z" fill="white"/>
<path d="M624 240.27C621.61 247.58 624.66 255.14 630.81 257.16C636.96 259.18 643.9 254.89 646.3 247.58C648.7 240.27 645.65 232.71 639.49 230.69C633.33 228.67 626.43 233 624 240.27Z" stroke="#1A2E35" stroke-width="2.5" stroke-linecap="round" stroke-linejoin="round"/>
<path d="M647.37 260.22C647.37 260.22 646.94 254.71 645.89 254.29C644.84 253.87 636.99 256.29 632.57 255.56C628.15 254.83 624.49 253.08 623.36 253.16C622.23 253.24 619.9 259.23 619.9 259.23C619.9 259.23 624.97 265.58 636.53 263.64" fill="#8CBBE5"/>
<path d="M647.37 260.22C647.37 260.22 646.94 254.71 645.89 254.29C644.84 253.87 636.99 256.29 632.57 255.56C628.15 254.83 624.49 253.08 623.36 253.16C622.23 253.24 619.9 259.23 619.9 259.23C619.9 259.23 624.97 265.58 636.53 263.64" stroke="#1A2E35" stroke-width="2.5" stroke-linecap="round" stroke-linejoin="round"/>
<path d="M624.93 238.08C624.93 238.08 633.21 240 637.66 232.9C637.66 232.9 636.25 243.41 646.33 247.58C646.33 247.58 649.57 233.69 639.52 230.69C629.47 227.69 624.93 238.08 624.93 238.08Z" fill="#1A2E35"/>
<path d="M620.12 253.91L624.41 245.8L628.33 245.4" stroke="#1A2E35" stroke-width="2" stroke-linecap="round" stroke-linejoin="round"/>
<path d="M601.16 289.97L619.23 293.55L627.91 260.65L605.67 256.25L601.16 289.97Z" fill="#FF644C"/>
<path d="M605.67 256.25L601.16 289.97L619.23 293.55L627.91 260.65L605.67 256.25Z" fill="white"/>
<path d="M609.1 256.93L604.59 290.65L619.23 293.55L627.91 260.65L609.1 256.93Z" fill="#FF644C"/>
<path d="M601.16 289.97L619.23 293.55L627.91 260.65L605.67 256.25L601.16 289.97Z" stroke="#1A2E35" stroke-width="2" stroke-linecap="round" stroke-linejoin="round"/>
<path d="M603.915 257.265L629.155 262.263L630.196 257.005L604.956 252.007L603.915 257.265Z" fill="white" stroke="#1A2E35" stroke-width="2" stroke-linecap="round" stroke-linejoin="round"/>
<path d="M609.27 249.46L627.16 253L627.67 256.52L607.46 252.52L609.27 249.46Z" fill="white" stroke="#1A2E35" stroke-width="2" stroke-linecap="round" stroke-linejoin="round"/>
<path d="M611.62 280.32C611.406 279.432 611.487 278.498 611.85 277.66C612.46 276.09 614.09 274.5 614.35 271.44C614.61 268.38 613.35 267.34 613.35 267.34C613.35 267.34 609.44 267.48 608.35 273.01C607.26 278.54 610.64 280.12 611.62 280.32Z" fill="white"/>
<path d="M613.1 280.61C612.929 280.137 612.856 279.634 612.887 279.131C612.918 278.629 613.052 278.139 613.28 277.69C614.1 275.85 615.64 274.02 615.65 271.14C615.7 269.862 615.482 268.588 615.01 267.4C615.01 267.4 620.52 268.4 619.01 274.99C617.51 281.71 613.1 280.61 613.1 280.61Z" fill="white"/>
<path d="M654.17 283.77C652.14 280.588 649.773 277.635 647.11 274.96C629.45 255.96 611.65 259.96 615.47 264.59C615.47 264.59 611.24 263.99 610.47 266.08C608.4 271.64 621.47 271.21 625.53 277.08C625.53 277.08 610.3 272.84 609.62 276.71C608.94 280.58 614.7 281.37 622.7 285.71C622.92 290.28 627.91 301.26 634.7 302.56L644.86 311.65L660.53 287.72L654.17 283.77Z" fill="#FFBB91" stroke="#1A2E35" stroke-width="2.5" stroke-linecap="round" stroke-linejoin="round"/>
<path d="M615.79 264.58C619.98 265.08 629.03 269.48 629.03 269.48" stroke="#1A2E35" stroke-width="2.5" stroke-linecap="round" stroke-linejoin="round"/>
<path d="M689.21 337.94C679.56 345.03 663.8 340.7 657.15 333.78C641.07 317.04 630.87 312.29 631.88 306.35C632.26 304.1 631.88 308.46 635.88 307.49C649.77 304.08 651.48 287.63 660.88 283.05C660.88 283.05 673.12 291.54 685.71 308.72" fill="#8CBBE5"/>
<path d="M689.21 337.94C679.56 345.03 663.8 340.7 657.15 333.78C641.07 317.04 630.87 312.29 631.88 306.35C632.26 304.1 631.88 308.46 635.88 307.49C649.77 304.08 651.48 287.63 660.88 283.05C660.88 283.05 673.12 291.54 685.71 308.72" stroke="#1A2E35" stroke-width="2.5" stroke-linecap="round" stroke-linejoin="round"/>
<path d="M631 305.31C630.73 303.71 634.1 301.93 634.1 301.93L639 307C639 307 631.68 308.94 631 305.31Z" fill="#1A2E35"/>
<path d="M323.87 399.93H331.42V420.93C331.401 437.893 329.244 454.786 325 471.21L317.82 506.5H309.6L317.12 470.36C321.401 454.035 323.615 437.237 323.71 420.36L323.87 399.93Z" fill="white" stroke="#1A2E35" stroke-width="2.5" stroke-linecap="round" stroke-linejoin="round"/>
<path d="M355.53 399.93H363.08V420.93C363.081 437.902 360.938 454.806 356.7 471.24L349.53 506.53H341.3L348.82 470.39C353.101 454.065 355.315 437.267 355.41 420.39L355.53 399.93Z" fill="white" stroke="#1A2E35" stroke-width="2.5" stroke-linecap="round" stroke-linejoin="round"/>
<path d="M409.48 399.93H401.93V420.93C401.934 437.901 404.077 454.805 408.31 471.24L415.49 506.53H423.71L416.19 470.39C411.909 454.065 409.695 437.267 409.6 420.39L409.48 399.93Z" fill="white" stroke="#1A2E35" stroke-width="2.5" stroke-linecap="round" stroke-linejoin="round"/>
<path d="M375.84 399.93H368.29V420.93C368.294 437.901 370.437 454.805 374.67 471.24L381.85 506.53H390.08L382.56 470.39C378.271 454.066 376.053 437.268 375.96 420.39L375.84 399.93Z" fill="white" stroke="#1A2E35" stroke-width="2.5" stroke-linecap="round" stroke-linejoin="round"/>
<path d="M377.36 399.93H369.81L368.3 357.74H375.84L377.36 399.93Z" fill="white" stroke="#1A2E35" stroke-width="2.5" stroke-linecap="round" stroke-linejoin="round"/>
<path d="M390.75 399.93H398.3L399.82 357.74H392.27L390.75 399.93Z" fill="white" stroke="#1A2E35" stroke-width="2.5" stroke-linecap="round" stroke-linejoin="round"/>
<path d="M423.72 399.93H308.88V417.3H423.72V399.93Z" fill="white" stroke="#1A2E35" stroke-width="2.5" stroke-linecap="round" stroke-linejoin="round"/>
<path d="M429 311.85C424.81 343.39 418.22 380.33 418 399.93H410.84C411.75 385.93 414.55 359.57 417.48 339.75C418.91 330.14 420.38 320.2 421.62 310.86C423.75 294.86 420.13 279.69 411.94 270.35C408.7 266.65 403.25 262.24 395.65 262.24C375.43 262.24 360.65 282 357.65 312.55C353.42 355.04 360.24 399.34 360.3 399.93H352.7C352.39 391.66 346.18 354.52 350.21 311.85C353.83 273.55 374.28 254.77 395.69 254.77C417.1 254.77 433.18 280.3 429 311.85Z" fill="white" stroke="#1A2E35" stroke-width="2.5" stroke-linecap="round" stroke-linejoin="round"/>
<path d="M392.67 272C375.13 272 356.8 292.23 356.8 322.32C356.8 352.41 370.22 365.13 385.33 365.13C401.21 365.13 417.33 352.44 419.99 322.44C422.37 295.14 411.87 272 392.67 272Z" fill="#8CBBE5" stroke="#1A2E35" stroke-width="2.5" stroke-linecap="round" stroke-linejoin="round"/>
<path d="M383 359.85C397.09 359.85 411.41 348.6 413.73 322C415.85 297.8 406.53 277.28 389.51 277.28" stroke="#1A2E35" stroke-width="2.5" stroke-linecap="round" stroke-linejoin="round"/>
<path d="M376.69 456.9L386.7 468.56L344.59 504.73L347.84 481.68L376.69 456.9Z" fill="#FF644C" stroke="#1A2E35" stroke-width="2.5" stroke-linecap="round" stroke-linejoin="round"/>
<path d="M332.16 469.44L347.84 481.68L376.69 456.9L363.09 443.09L332.16 469.44Z" fill="#C6856A" stroke="#1A2E35" stroke-width="2.5" stroke-linecap="round" stroke-linejoin="round"/>
<path d="M360.34 475.55L351.25 483.17" stroke="#1A2E35" stroke-width="2.5" stroke-linecap="round" stroke-linejoin="round"/>
<path d="M361.66 478.94L352.57 486.55" stroke="#1A2E35" stroke-width="2.5" stroke-linecap="round" stroke-linejoin="round"/>
<path d="M306.37 340.74L302.83 345.2C290.83 345.38 272.77 345.12 266.83 347.5C257.75 351.13 244.73 363.61 248.89 382.5C253.82 404.84 318.24 462.67 319.65 464.87C324.23 472.02 328.97 473.93 328.97 473.93C335.97 464.87 346.26 463.27 352.87 460.55C359.48 457.83 366 445.46 369.15 445C372.3 444.54 373.2 446.49 373.2 446.49C373.2 446.49 353.47 413.16 342 400.83C333.65 391.88 314.79 385.03 314.79 385.03C314.79 385.03 356.79 396.83 368.1 379.49C377.58 364.99 368.52 340.79 368.52 340.79L306.37 340.74Z" fill="#8CBBE5" stroke="#1A2E35" stroke-width="2.5" stroke-linecap="round" stroke-linejoin="round"/>
<path d="M370.29 450.19C370.29 450.19 373.78 448.19 374.09 446.91C374.4 445.63 371.34 445.07 366.47 446.65L370.29 450.19Z" fill="#1A2E35"/>
<path d="M333.87 470.17L335.99 472.55C335.99 472.55 329.85 476.21 328.64 475.06C327.43 473.91 329.92 471 333.87 470.17Z" fill="#1A2E35"/>
<path d="M362.32 490.85L362.43 506.22L306.92 506.6L324.29 491.11L362.32 490.85Z" fill="#FF644C" stroke="#1A2E35" stroke-width="2.5" stroke-linecap="round" stroke-linejoin="round"/>
<path d="M320.23 471.64L324.29 491.11L362.32 490.85L360.87 471.52L320.23 471.64Z" fill="#C6856A" stroke="#1A2E35" stroke-width="2.5" stroke-linecap="round" stroke-linejoin="round"/>
<path d="M337.79 494.52L325.93 494.45" stroke="#1A2E35" stroke-width="2.5" stroke-linecap="round" stroke-linejoin="round"/>
<path d="M336.61 497.95L324.76 497.89" stroke="#1A2E35" stroke-width="2.5" stroke-linecap="round" stroke-linejoin="round"/>
<path d="M329.29 340.74H334.69L334.03 346.47C334.03 346.47 331.4 346.32 327.52 346.35L329.29 340.74Z" fill="white"/>
<path d="M318.85 479.54L319.25 479.64L318.97 479.8L318.85 479.54Z" fill="white"/>
<path d="M325.27 346.38H327.52L327.45 346.5C327.45 346.5 326.65 346.42 325.27 346.38Z" fill="white"/>
<path d="M329.29 340.74H391.67C400.3 370.85 393.13 391.13 380.81 397.49C367.52 404.35 348.47 400.18 346.09 402.36C346.09 402.36 348.09 405.1 352.51 415.85C360.42 435.11 357.62 448.12 368.29 472.39C368.615 472.963 368.802 473.604 368.837 474.262C368.872 474.92 368.753 475.577 368.49 476.181C368.227 476.786 367.828 477.321 367.323 477.744C366.817 478.167 366.221 478.467 365.58 478.62C365.58 474.24 357.86 473.23 335.58 479.38C321.19 483.38 317.51 476.76 312.38 479.8C312.38 479.88 283.82 410.16 283.82 375.6C283.82 363.98 291.97 355.6 295.01 352.89C304.01 344.89 327.44 346.47 327.44 346.47L329.29 340.74Z" fill="#8CBBE5" stroke="#1A2E35" stroke-width="2.5" stroke-linecap="round" stroke-linejoin="round"/>
<path d="M361.78 480.82C361.78 480.82 365.45 480.56 366.25 479.52C367.05 478.48 365.75 476.82 360.87 475.88L361.78 480.82Z" fill="#1A2E35"/>
<path d="M321.65 480.12L322.65 483.12C322.65 483.12 312.36 482.48 311.72 480.93C311.08 479.38 317.7 479.26 321.65 480.12Z" fill="#1A2E35"/>
<path d="M346.09 402.36C342.6 394.63 332.16 388.31 332.16 388.31" stroke="#1A2E35" stroke-width="2.5" stroke-linecap="round" stroke-linejoin="round"/>
<path d="M327 295.64C316.82 319.43 306.19 344.71 296.12 346.53C278 349.8 270 332 272.53 322C275.37 310.9 294.95 269.65 310.65 258C318.46 252.2 326.53 250.81 342.52 253.25" fill="#FF644C"/>
<path d="M327 295.64C316.82 319.43 306.19 344.71 296.12 346.53C278 349.8 270 332 272.53 322C275.37 310.9 294.95 269.65 310.65 258C318.46 252.2 326.53 250.81 342.52 253.25" stroke="#1A2E35" stroke-width="2.5" stroke-linecap="round" stroke-linejoin="round"/>
<path d="M318.14 282.54C317.3 295.32 310.35 323.98 309.14 334.29C307.93 344.6 311.88 344.36 311.88 344.36C313.98 342.29 336.23 347.03 350.33 347.45C366.727 347.787 383.061 345.308 398.62 340.12C402.55 342.62 392.34 311.52 391.8 307.4C388.8 284.64 385.38 264.09 373.03 256.07C362.92 249.52 357.18 252.26 345.93 252.47C336.75 252.63 333.45 252.26 328.3 256.42C319.14 263.79 318.53 276.42 318.14 282.54Z" fill="white" stroke="#1A2E35" stroke-width="2.5" stroke-linecap="round" stroke-linejoin="round"/>
<path d="M333.08 252.85C329.935 262.576 327.538 272.528 325.91 282.62C323.58 298 316.91 346.09 316.91 346.09L300.78 348.32C301.07 344.07 306.59 327.22 308.42 317.83C309.72 311.18 311.42 294.77 315.01 280.4C317.65 269.95 320.32 259.21 325.76 254.77C326.54 254.12 330 253.46 333.08 252.85Z" fill="#FF644C"/>
<path d="M333.47 252.47C330.12 262.293 327.591 272.378 325.91 282.62C323.58 298 316.91 346.09 316.91 346.09L300.78 348.32C301.07 344.07 306.59 327.22 308.42 317.83C309.72 311.18 311.92 295.83 315.01 281.33" stroke="#1A2E35" stroke-width="2.5" stroke-linecap="round" stroke-linejoin="round"/>
<path d="M407.55 365.68C406.24 361.94 401.24 363.09 401.24 363.09L402.39 367.87C402.39 367.87 408.19 367.54 407.55 365.68Z" fill="#1A2E35"/>
<path d="M355.39 251.37C355.39 251.37 352.24 279.57 352.02 297.6C351.74 320 359.41 371 359.41 371C359.41 371 370.58 374.6 400.12 364.36C410.24 360.85 406.33 365.93 406.33 365.93C406.33 365.93 413.16 361.68 411.98 354.22C410.8 346.76 398.88 316.22 398.12 312.66C397.36 309.1 389.32 269.42 379.65 258.85C373.11 251.67 355.39 251.37 355.39 251.37Z" fill="#FF644C"/>
<path d="M406.34 365.88C406.49 365.68 408.47 362.97 405.24 363.1C406.193 361.903 406.889 360.523 407.285 359.045C407.681 357.567 407.768 356.023 407.54 354.51C406.34 347 394.33 316.21 393.54 312.64C392.75 309.07 384.7 269.08 375 258.43C370.88 253.94 362.37 252.13 356.56 251.43C360.56 251.63 374.15 252.77 379.68 258.83C389.36 269.4 397.4 309.1 398.16 312.65C398.92 316.2 410.8 346.72 412 354.17C413.2 361.62 406.65 365.69 406.34 365.88Z" fill="white"/>
<path d="M355.39 251.37C355.39 251.37 352.24 279.57 352.02 297.6C351.74 320 359.41 371 359.41 371C359.41 371 370.58 374.6 400.12 364.36C410.24 360.85 406.33 365.93 406.33 365.93C406.33 365.93 413.16 361.68 411.98 354.22C410.8 346.76 398.88 316.22 398.12 312.66C397.36 309.1 389.32 269.42 379.65 258.85C373.11 251.67 355.39 251.37 355.39 251.37Z" stroke="#1A2E35" stroke-width="2.5" stroke-linecap="round" stroke-linejoin="round"/>
<path d="M339.6 256.37C339.6 256.37 336.6 261.37 339.42 261.8C343.79 262.46 349.34 255.28 349.34 255.28L339.6 256.37Z" fill="#1A2E35"/>
<path d="M332.74 242.17C333.88 234.81 339.82 229.62 346.02 230.57C352.22 231.52 356.33 238.27 355.2 245.63C354.07 252.99 348.12 258.18 341.92 257.23C335.72 256.28 331.61 249.54 332.74 242.17Z" fill="#C6856A"/>
<path d="M341.92 257.23C340.225 256.98 338.626 256.29 337.28 255.23C338.043 255.581 338.85 255.823 339.68 255.95C345.56 256.85 351.19 251.95 352.27 244.95C353.35 237.95 349.45 231.58 343.57 230.67L343.12 230.62C344.081 230.475 345.059 230.475 346.02 230.62C352.22 231.62 356.33 238.32 355.2 245.68C354.07 253.04 348.12 258.18 341.92 257.23Z" fill="white"/>
<path d="M332.74 242.17C333.88 234.81 339.82 229.62 346.02 230.57C352.22 231.52 356.33 238.27 355.2 245.63C354.07 252.99 348.12 258.18 341.92 257.23C335.72 256.28 331.61 249.54 332.74 242.17Z" stroke="#1A2E35" stroke-width="2.5" stroke-linecap="round" stroke-linejoin="round"/>
<path d="M332.91 243C332.91 243 337.91 243.27 340.37 238.89C340.37 238.89 347.82 241.09 349.63 235.21C349.63 235.21 352.53 238.88 355.1 237.66C355.1 237.66 352.01 227.39 342.04 230.2C332.07 233.01 332.91 243 332.91 243Z" fill="#1A2E35"/>
<path d="M359 236C358.574 236.719 357.944 237.296 357.19 237.658C356.436 238.019 355.591 238.149 354.763 238.031C353.936 237.913 353.161 237.552 352.538 236.994C351.916 236.436 351.472 235.706 351.264 234.896C351.056 234.086 351.093 233.233 351.369 232.443C351.646 231.654 352.151 230.965 352.819 230.462C353.487 229.96 354.29 229.667 355.125 229.62C355.96 229.573 356.79 229.775 357.51 230.2C357.99 230.482 358.41 230.855 358.745 231.3C359.08 231.744 359.324 232.251 359.462 232.79C359.601 233.329 359.631 233.89 359.552 234.441C359.472 234.992 359.285 235.522 359 236Z" fill="#1A2E35"/>
<path d="M350.66 229.32C349.54 230.2 348.17 228.09 346.43 227.69C344.69 227.29 342.74 227.77 342.43 226.69C342.23 225.94 344.02 223.69 347.78 225.02C350.61 226 351.32 228.8 350.66 229.32Z" fill="#1A2E35"/>
<path d="M361.8 285.53C361.8 285.53 367.29 314.13 370.29 319.4C373.29 324.67 390 345.54 390 345.54C390 345.54 401.54 331.54 418.72 323.67C418.72 323.67 404.18 306.04 402.51 300.45C400.84 294.86 397.11 271.15 386.03 260.06C380.18 254.21 361.25 251.72 361.25 251.72" fill="#FF644C"/>
<path d="M418.7 323.67C416.98 324.46 415.31 325.31 413.7 326.21C409.45 320.89 399.77 308.49 398.38 303.84C396.59 297.84 392.61 272.5 380.75 260.64C377.05 256.94 368.45 253.79 362.04 251.84C365.75 252.4 380.88 254.94 386.04 260.06C397.12 271.14 400.85 294.84 402.52 300.44C404.19 306.04 418.7 323.67 418.7 323.67Z" fill="white"/>
<path d="M361.8 285.53C361.8 285.53 367.29 314.13 370.29 319.4C373.29 324.67 390 345.54 390 345.54C390 345.54 401.54 331.54 418.72 323.67C418.72 323.67 404.18 306.04 402.51 300.45C400.84 294.86 397.11 271.15 386.03 260.06C380.18 254.21 361.25 251.72 361.25 251.72" stroke="#1A2E35" stroke-width="2.5" stroke-linecap="round" stroke-linejoin="round"/>
<path d="M441.09 361.72C441.09 361.72 451.84 384.18 449.74 387.15C447.95 389.69 444.5 388.86 437.51 377.9C430.52 366.94 441.09 361.72 441.09 361.72Z" fill="#C6856A" stroke="#1A2E35" stroke-width="2.5" stroke-linecap="round" stroke-linejoin="round"/>
<path d="M431.28 345.53C435.157 349.71 438.237 354.563 440.37 359.85C442.566 365.629 443.94 371.689 444.45 377.85C445.04 383.37 446.58 389.27 443.02 390.21C439.02 391.21 434.42 372.99 427.75 370.5C424.06 369.13 419.12 368.43 416.51 366.82C413.1 364.72 409.02 360.43 405.18 355.82L393.18 344.59L419.78 326.24L431.28 345.53Z" fill="#C6856A" stroke="#1A2E35" stroke-width="2.5" stroke-linecap="round" stroke-linejoin="round"/>
<path d="M411.46 362.1C413.12 369.35 419.59 373.95 420.23 374.51C420.87 375.07 424.68 384.85 428.93 384.36C432.75 383.92 429.49 374.59 427.86 371.27C426.23 367.95 425.66 362.46 425.66 362.46" fill="#C6856A"/>
<path d="M411.46 362.1C413.12 369.35 419.59 373.95 420.23 374.51C420.87 375.07 424.68 384.85 428.93 384.36C432.75 383.92 429.49 374.59 427.86 371.27C426.23 367.95 425.66 362.46 425.66 362.46" stroke="#1A2E35" stroke-width="2.5" stroke-linecap="round" stroke-linejoin="round"/>
<path d="M428.18 373.22C428.18 373.22 424.03 377.8 428.61 381.71" stroke="#1A2E35" stroke-width="2.5" stroke-linecap="round" stroke-linejoin="round"/>
<path d="M398.55 356.66C398.94 351.66 400.99 343.16 407.35 337.25C415.98 329.25 427.69 329.92 428.08 330.36C428.08 330.36 419.98 320.47 416.72 319.15C416.72 319.15 402.48 320.49 394.66 331.04C387.45 340.77 387.58 346.8 387.58 346.8C391.48 353.23 398.55 356.66 398.55 356.66Z" fill="#FF644C" stroke="#1A2E35" stroke-width="2.5" stroke-linecap="round" stroke-linejoin="round"/>
<path d="M423.61 331L425.96 334.65C425.96 334.65 429.86 331.72 429.17 330.3C428.7 329.37 423.61 331 423.61 331Z" fill="#1A2E35"/>
<path d="M318.32 345.94C318.32 345.94 327.75 347.04 331.14 347.31C332.75 347.44 343.46 347.03 343.46 347.03C346.97 348.46 354.19 351.78 356.19 349.79C358.03 347.96 355.81 345.79 355.81 345.79C355.81 345.79 359.48 347.09 360.81 345.25C362.14 343.41 360.92 340.68 360.92 340.68C360.92 340.68 363.18 338.92 362.19 336.68C361.2 334.44 346.71 322.68 342.33 321.29C337.95 319.9 324.71 318.4 324.01 318.35C323.31 318.3 301.47 308.88 294.01 308.29C286.55 307.7 273.21 317.94 273.89 326.68C274.316 331.33 276.119 335.748 279.069 339.367C282.019 342.987 285.981 345.645 290.45 347C300.2 349.94 318.32 345.94 318.32 345.94Z" fill="#C6856A" stroke="#1A2E35" stroke-width="2.5" stroke-linecap="round" stroke-linejoin="round"/>
<path d="M355.81 345.8C354.2 344.8 345.89 340.3 345.89 340.3" stroke="#1A2E35" stroke-width="2.5" stroke-linecap="round" stroke-linejoin="round"/>
<path d="M360.9 340.69C358.77 339.49 349.49 333.45 349.49 333.45" stroke="#1A2E35" stroke-width="2.5" stroke-linecap="round" stroke-linejoin="round"/>
<path d="M311.88 309.77C298.31 316.91 293.31 320.67 288.6 329.15C281.02 342.79 286.95 350.07 288.03 350.45C288.03 350.45 275.14 346.21 272.64 343.45C272.64 343.45 265.74 331.73 276.83 316.53C281.092 310.472 287.55 306.317 294.83 304.95C303.74 304.63 311.88 309.77 311.88 309.77Z" fill="#FF644C" stroke="#1A2E35" stroke-width="2.5" stroke-linecap="round" stroke-linejoin="round"/>
<path d="M284.79 344.7L289.49 346.8C289.49 346.8 289.44 350.45 288.41 350.94C287.38 351.43 284.79 344.7 284.79 344.7Z" fill="#1A2E35"/>
<path d="M171 399.93H163.49V420.93C163.489 437.902 165.632 454.806 169.87 471.24L177 506.5H185.23L177.71 470.36C173.424 454.036 171.21 437.237 171.12 420.36L171 399.93Z" fill="white" stroke="#1A2E35" stroke-width="2.5" stroke-linecap="round" stroke-linejoin="round"/>
<path d="M139.38 399.93H131.83V420.93C131.829 437.902 133.972 454.806 138.21 471.24L145.38 506.53H153.61L146.09 470.39C141.806 454.065 139.588 437.267 139.49 420.39L139.38 399.93Z" fill="white" stroke="#1A2E35" stroke-width="2.5" stroke-linecap="round" stroke-linejoin="round"/>
<path d="M85.42 399.93H93V420.93C93.0013 437.902 90.8577 454.806 86.62 471.24L79.42 506.5H71.19L78.71 470.36C82.9944 454.035 85.2117 437.237 85.31 420.36L85.42 399.93Z" fill="white" stroke="#1A2E35" stroke-width="2.5" stroke-linecap="round" stroke-linejoin="round"/>
<path d="M119.06 399.93H126.61V420.93C126.611 437.902 124.468 454.806 120.23 471.24L113.06 506.5H104.83L112.35 470.36C116.636 454.036 118.85 437.237 118.94 420.36L119.06 399.93Z" fill="white" stroke="#1A2E35" stroke-width="2.5" stroke-linecap="round" stroke-linejoin="round"/>
<path d="M117.55 399.93H125.1L126.61 357.74H119.06L117.55 399.93Z" fill="white" stroke="#1A2E35" stroke-width="2.5" stroke-linecap="round" stroke-linejoin="round"/>
<path d="M104.15 399.93H96.6L95.09 357.74H102.64L104.15 399.93Z" fill="white" stroke="#1A2E35" stroke-width="2.5" stroke-linecap="round" stroke-linejoin="round"/>
<path d="M186.03 399.93H71.19V417.3H186.03V399.93Z" fill="white" stroke="#1A2E35" stroke-width="2.5" stroke-linecap="round" stroke-linejoin="round"/>
<path d="M65.92 311.85C70.11 343.39 76.7 380.33 76.92 399.93H84.1C83.18 385.93 80.38 359.57 77.45 339.75C76.02 330.14 74.56 320.2 73.32 310.86C71.19 294.86 74.81 279.69 83 270.35C86.24 266.65 91.69 262.24 99.29 262.24C119.51 262.24 134.29 282 137.29 312.55C141.51 355.04 134.7 399.34 134.63 399.93H142.23C142.55 391.66 148.76 354.52 144.73 311.85C141.1 273.55 120.66 254.77 99.25 254.77C77.84 254.77 61.72 280.3 65.92 311.85Z" fill="white" stroke="#1A2E35" stroke-width="2.5" stroke-linecap="round" stroke-linejoin="round"/>
<path d="M102.23 272C119.77 272 138.11 292.23 138.11 322.32C138.11 352.41 124.69 365.13 109.58 365.13C93.69 365.13 77.58 352.44 74.92 322.44C72.54 295.14 83 272 102.23 272Z" fill="#8CBBE5" stroke="#1A2E35" stroke-width="2.5" stroke-linecap="round" stroke-linejoin="round"/>
<path d="M111.93 359.85C97.84 359.85 83.51 348.6 81.19 322C79.08 297.8 88.39 277.28 105.41 277.28" stroke="#1A2E35" stroke-width="2.5" stroke-linecap="round" stroke-linejoin="round"/>
<path d="M157.44 491.06V506.5H166.36L167.89 501.82L174.35 506.5H213.19L195.64 491.06H157.44Z" fill="#FF644C" stroke="#1A2E35" stroke-width="2.5" stroke-linecap="round" stroke-linejoin="round"/>
<path d="M197.49 471.24L195.64 491.06C195.64 491.06 201.64 498.78 196.92 500.78C191.92 502.88 157.44 491.06 157.44 491.06L155.44 471.92L197.49 471.24Z" fill="#FFD9C3" stroke="#1A2E35" stroke-width="2.5" stroke-linecap="round" stroke-linejoin="round"/>
<path d="M125.57 401C77.26 401.42 92.07 346 95.73 343.64H136.83C136.83 343.64 140.65 351.06 145.04 352.15C183.67 361.76 192.81 370.4 196.04 376.53C206.32 396.03 203.18 476.93 203.18 476.93C194.63 481.93 185.31 482.77 167.18 479.09C150 475.63 153.1 483.84 153.1 483.84C153.1 483.84 149.76 483.37 149.16 478.45C147.27 462.8 144.65 431.16 145.25 418.82C145.59 411.82 148.63 401.12 148.63 401.12C150.38 396.72 140.43 400.89 125.57 401Z" fill="#FF644C" stroke="#1A2E35" stroke-width="2.5" stroke-linecap="round" stroke-linejoin="round"/>
<path d="M157 485.29L156.78 479.15C156.78 479.15 152.02 481.54 151.63 483.15C151.24 484.76 154.2 485.65 157 485.29Z" fill="#1A2E35"/>
<path d="M224.53 461.55L225.53 476.95L234.43 476.38L235.65 471.61L242.4 475.86L281.17 473.36L262.65 459.09L224.53 461.55Z" fill="#FF644C" stroke="#1A2E35" stroke-width="2.5" stroke-linecap="round" stroke-linejoin="round"/>
<path d="M254 441.09L262.63 459.09C262.63 459.09 269.12 466.4 264.54 468.7C259.7 471.12 224.54 461.55 224.54 461.55L212.69 443.76L254 441.09Z" fill="#FFD9C3" stroke="#1A2E35" stroke-width="2.5" stroke-linecap="round" stroke-linejoin="round"/>
<path d="M153 343.66H92C83.69 372.66 91.59 391.78 103.39 398.12C111.73 402.6 129.3 402.83 142.75 397.56C157.08 392 162.37 376 178.32 376C207.32 376 195.19 411.14 205.11 452.81C206.99 460.67 218.63 459.25 218.63 459.25C218.63 459.25 207.05 455.53 241.54 451.25C260.87 448.86 262.45 437.99 262.45 437.99C262.45 437.99 236.87 353.88 204.32 343.64C185.32 337.64 154.79 346.58 154.79 346.58L153 343.66Z" fill="#FF644C"/>
<path d="M262.45 438C262.45 438 261.89 441.89 257.31 445.51C257.385 445.264 257.445 445.013 257.49 444.76C257.49 444.76 230.77 356.52 196.78 345.82C176.89 339.56 144.48 348.9 144.48 348.9L142.64 345.82H91.4C91.5933 345.113 91.7933 344.393 92 343.66H153L154.77 346.6C154.77 346.6 185.28 337.67 204.31 343.66C236.87 353.9 262.45 438 262.45 438Z" fill="white"/>
<path d="M153 343.66H92C83.69 372.66 91.59 391.78 103.39 398.12C111.73 402.6 129.3 402.83 142.75 397.56C157.08 392 162.37 376 178.32 376C207.32 376 195.19 411.14 205.11 452.81C206.99 460.67 218.63 459.25 218.63 459.25C218.63 459.25 207.05 455.53 241.54 451.25C260.87 448.86 262.45 437.99 262.45 437.99C262.45 437.99 236.87 353.88 204.32 343.64C185.32 337.64 154.79 346.58 154.79 346.58L153 343.66Z" stroke="#1A2E35" stroke-width="2.5" stroke-linecap="round" stroke-linejoin="round"/>
<path d="M220.31 455.22L223.15 459.16C223.15 459.16 220.02 460.74 217.47 460.16C214.92 459.58 216.91 457.36 220.31 455.22Z" fill="#1A2E35"/>
<path d="M134.52 262.52C139.32 264.43 137.59 270.12 143.03 271.07C146.03 271.6 146.3 270.57 152.03 267.53C155.94 265.44 158.79 269.04 163.23 265.97C167.44 263.06 168.23 259.56 167.05 253.49C166.42 250.08 169.24 249.37 169.99 245.91C170.8 242.21 169.41 236.91 162.89 235.73C161.06 235.39 160.5 230.1 155.52 228.73C151.79 227.63 151 230.13 147 231C145.11 231.42 140.55 228.08 136.16 231.09C131.24 234.47 134.69 238.64 132.67 241.95C130.88 244.95 128.21 245.2 126.67 249.63C124.81 255 128.76 260.23 134.52 262.52Z" fill="#1A2E35"/>
<path d="M124.51 249.51C123.51 248.63 120.9 251.51 121.56 254.43C122.22 257.35 124.09 258.14 124.56 257.74C125.56 256.95 124.04 255.25 124.22 253.59C124.4 251.93 125.08 250 124.51 249.51Z" fill="#1A2E35"/>
<path d="M222.59 313.08C226.394 309.637 230.437 306.469 234.69 303.6C239.11 300.93 250.17 295.89 250.17 291.04C250.149 289.706 249.603 288.434 248.65 287.5C248.65 287.5 250.97 284.96 249.85 282.77C248.85 280.85 245.38 281.48 245.38 281.48C245.38 281.48 248.02 279.03 246.67 276.77C244.43 272.99 223.23 278.45 222.76 278.6C218.15 280.07 205.47 290.03 205.47 290.03L222.59 313.08Z" fill="#FFD9C3" stroke="#1A2E35" stroke-width="2.5" stroke-linecap="round" stroke-linejoin="round"/>
<path d="M216.07 282.32C218.238 280.251 220.272 278.047 222.16 275.72C223.39 273.9 224.94 270.92 225.64 269.77C227.3 267.07 231.18 268.12 230.52 274.24C230.17 277.42 229.72 277.16 228.89 281.45C228.89 281.45 232.47 286.62 230.19 292.5" fill="#FFD9C3"/>
<path d="M216.07 282.32C218.238 280.251 220.272 278.047 222.16 275.72C223.39 273.9 224.94 270.92 225.64 269.77C227.3 267.07 231.18 268.12 230.52 274.24C230.17 277.42 229.72 277.16 228.89 281.45C228.89 281.45 232.47 286.62 230.19 292.5" stroke="#1A2E35" stroke-width="2.5" stroke-linecap="round" stroke-linejoin="round"/>
<path d="M248.37 287.78C246.18 290.48 238.87 293.39 238.87 293.39L248.37 287.78Z" fill="#A25A3B"/>
<path d="M248.37 287.78C246.18 290.48 238.87 293.39 238.87 293.39" stroke="#1A2E35" stroke-width="2.5" stroke-linecap="round" stroke-linejoin="round"/>
<path d="M245.9 281.18C242.666 282.944 239.295 284.446 235.82 285.67L245.9 281.18Z" fill="#A25A3B"/>
<path d="M245.9 281.18C242.666 282.944 239.295 284.446 235.82 285.67" stroke="#1A2E35" stroke-width="2.5" stroke-linecap="round" stroke-linejoin="round"/>
<path d="M162.91 259.13C176.52 261.59 187.82 267.13 196.05 295.8L209.12 284.61C218.82 290.37 221.89 303.67 226.87 308.31C229.7 310.95 231.81 307.31 231.81 307.31C231.81 307.31 233.71 311.1 230.46 313.31C228.56 314.63 205.46 336.23 192.02 334.13C173.59 331.25 164.02 299.98 161.48 291.89C158.94 283.8 158.69 258.37 162.91 259.13Z" fill="white" stroke="#1A2E35" stroke-width="2.5" stroke-linecap="round" stroke-linejoin="round"/>
<path d="M196.05 295.8C192.569 298.279 189.31 301.057 186.31 304.1" stroke="#1A2E35" stroke-width="2.5" stroke-linecap="round" stroke-linejoin="round"/>
<path d="M168.56 260.42C161.2 258.59 159.64 258.92 152.2 258.18C140.72 257.05 133.2 255.32 122.63 261.62C108 270.3 106.8 292.05 102.38 314C102.38 314 86.38 338.53 88.74 346.66C88.74 346.66 101.65 361.34 143.68 350.32C169.68 343.5 180.8 345.85 183.68 343.86L179.13 310.75C180.001 310.014 180.698 309.094 181.172 308.057C181.646 307.02 181.884 305.89 181.87 304.75C181.87 299.99 176.03 284.56 176.03 284.56" fill="white"/>
<path d="M168.56 260.42C161.2 258.59 159.64 258.92 152.2 258.18C140.72 257.05 133.2 255.32 122.63 261.62C108 270.3 106.8 292.05 102.38 314C102.38 314 86.38 338.53 88.74 346.66C88.74 346.66 101.65 361.34 143.68 350.32C169.68 343.5 180.8 345.85 183.68 343.86L179.13 310.75C180.001 310.014 180.698 309.094 181.172 308.057C181.646 307.02 181.884 305.89 181.87 304.75C181.87 299.99 176.03 284.56 176.03 284.56" stroke="#1A2E35" stroke-width="2.5" stroke-linecap="round" stroke-linejoin="round"/>
<path d="M168.44 310C168.44 310 156.58 308.37 145.81 311.21" stroke="#1A2E35" stroke-width="2.5" stroke-linecap="round" stroke-linejoin="round"/>
<path d="M156.82 312.63C159.857 312.748 162.859 313.314 165.73 314.31" stroke="#1A2E35" stroke-width="2.5" stroke-linecap="round" stroke-linejoin="round"/>
<path d="M134 286.21C131.87 303.87 129.3 334.85 123.36 339.42C112.71 347.63 98.36 339.69 96.36 330.04C94.66 321.82 102.16 281.76 109.71 269.56C113.71 263.14 124.16 257.28 136.91 257.07" fill="white"/>
<path d="M134 286.21C131.87 303.87 129.3 334.85 123.36 339.42C112.71 347.63 98.36 339.69 96.36 330.04C94.66 321.82 102.16 281.76 109.71 269.56C113.71 263.14 124.16 257.28 136.91 257.07" stroke="#1A2E35" stroke-width="2.5" stroke-linecap="round" stroke-linejoin="round"/>
<path d="M199.17 336.8C200.254 337.915 201.671 338.648 203.207 338.889C204.743 339.131 206.316 338.868 207.69 338.14C208.259 339.338 209.088 340.393 210.118 341.229C211.147 342.065 212.351 342.66 213.64 342.97C215.818 343.246 218.017 343.33 220.21 343.22C222.406 343.33 224.608 343.246 226.79 342.97C231.37 342.03 233.48 337.5 234.79 332.88C236.008 328.122 236.927 323.293 237.54 318.42H202.87C202.87 318.42 203.08 320.13 203.46 322.55C202.634 322.455 201.802 322.418 200.97 322.44C200.243 322.4 199.516 322.533 198.85 322.829C198.184 323.124 197.598 323.574 197.14 324.14C194.74 327.82 196.69 334.25 199.17 336.8ZM199.54 325.53C199.63 325.37 200.1 325.06 202.15 325.17C202.54 325.17 202.96 325.23 203.46 325.29L203.94 325.34C204.39 327.8 204.94 330.53 205.63 332.88C205.9 333.88 206.2 334.77 206.55 335.68C205.721 336.181 204.743 336.379 203.784 336.241C202.825 336.102 201.944 335.635 201.29 334.92C199.3 332.89 198.05 327.77 199.54 325.53Z" fill="#8CBBE5" stroke="#1A2E35" stroke-width="2.5" stroke-linecap="round" stroke-linejoin="round"/>
<path d="M165.12 319.65C191.67 310.35 210.55 327.27 204.78 328.17C204.78 328.17 208.23 330.47 207.44 332.48C205.35 337.83 196.15 329.06 189.44 330.69C189.44 330.69 203.17 337.45 201.17 340.69C199.17 343.93 194.5 340.78 185.92 338.75C182.81 341.9 172.12 346.62 166.36 343.16H153.2L155.9 319.55L165.12 319.65Z" fill="#FFD9C3" stroke="#1A2E35" stroke-width="2.5" stroke-linecap="round" stroke-linejoin="round"/>
<path d="M204.56 328C201.21 325.66 191.83 323 191.83 323" stroke="#1A2E35" stroke-width="2.5" stroke-linecap="round" stroke-linejoin="round"/>
<path d="M96.41 330C95.73 343.62 110.85 349.57 122.08 349.86C139.08 350.29 164.3 351.86 166.93 346.86C167.93 344.97 166.21 348.63 163.77 345.69C157.71 338.4 167.25 325.55 162.94 316.83C162.94 316.83 151.58 313.83 125.26 314.05" fill="white"/>
<path d="M96.41 330C95.73 343.62 110.85 349.57 122.08 349.86C139.08 350.29 164.3 351.86 166.93 346.86C167.93 344.97 166.21 348.63 163.77 345.69C157.71 338.4 167.25 325.55 162.94 316.83C162.94 316.83 151.58 313.83 125.26 314.05" stroke="#1A2E35" stroke-width="2.5" stroke-linecap="round" stroke-linejoin="round"/>
<path d="M167.94 346.57C169.06 345.57 166.48 342.21 166.48 342.21L161.95 342.94C161.95 342.94 165.4 348.9 167.94 346.57Z" fill="#1A2E35"/>
<path d="M134 258C134 258 144.62 281.12 157.28 284C169.94 286.88 167.28 260.09 167.28 260.09C167.28 260.09 146.37 256.87 134 258Z" fill="#FFD9C3" stroke="#1A2E35" stroke-width="2.5" stroke-linecap="round" stroke-linejoin="round"/>
<path d="M156.29 261.32C156.29 261.32 158.83 267 155.82 267.11C151.1 267.28 146.08 258.97 146.08 258.97L156.29 261.32Z" fill="#1A2E35"/>
<path d="M143.25 251.48C141.25 243.77 144.91 236.17 151.4 234.48C157.89 232.79 164.77 237.7 166.76 245.41C168.75 253.12 165.09 260.72 158.6 262.41C152.11 264.1 145.23 259.19 143.25 251.48Z" fill="#FFD9C3" stroke="#1A2E35" stroke-width="2.5" stroke-linecap="round" stroke-linejoin="round"/>
<path d="M158.6 262.4C156.82 262.859 154.951 262.842 153.18 262.35C154.077 262.371 154.972 262.266 155.84 262.04C161.99 260.45 165.45 253.24 163.57 245.93C161.69 238.62 155.17 234 149 235.58L148.53 235.71C149.414 235.164 150.375 234.753 151.38 234.49C157.87 232.82 164.75 237.71 166.74 245.42C168.73 253.13 165.09 260.73 158.6 262.4Z" fill="white"/>
<path d="M143.25 251.48C141.25 243.77 144.91 236.17 151.4 234.48C157.89 232.79 164.77 237.7 166.76 245.41C168.75 253.12 165.09 260.72 158.6 262.41C152.11 264.1 145.23 259.19 143.25 251.48Z" stroke="#1A2E35" stroke-width="2.5" stroke-linecap="round" stroke-linejoin="round"/>
<path d="M143.61 252.7C143.61 252.7 162.98 249.7 161.8 237.34C161.8 237.34 156.5 230.61 148.55 235.71C140.6 240.81 143.61 252.7 143.61 252.7Z" fill="#1A2E35"/>
<path d="M166.11 247.16C166.11 247.16 172.87 236.02 161.85 236.51L166.11 247.16Z" fill="#1A2E35"/>
<path d="M720.88 467.36C720.88 473.84 711.88 503.12 706.15 511.36C706.15 511.36 711.54 509.78 714.89 512.04C716.987 513.578 718.536 515.747 719.31 518.23H698.18V517L692.39 516.89V518.27H648.17C646.443 513.922 645.049 509.449 644 504.89C640.8 504.352 637.755 503.125 635.077 501.293C632.399 499.46 630.151 497.068 628.49 494.28C621.09 482.47 625.93 466.67 625.93 466.67C627.09 491.67 643.44 494.67 643.93 494.79C646.66 488.36 658.29 480.52 658.29 480.52C658.29 480.52 677.56 451.6 681.79 444.26C683.04 442.08 682.73 434.54 682.4 429.82C682.4 429.82 678.54 444.82 676.48 444.66C674.42 444.5 668.82 428.93 668.71 425.29C668.6 421.65 675 413.6 676.38 411.74C677.76 409.88 682.69 410.06 682.69 410.06C682.69 410.06 690.23 407.12 696.13 406.62C700.248 406.4 704.377 406.699 708.42 407.51C708.42 407.51 714.02 406.82 715.2 407.41C716.38 408 723.55 415.47 724.04 419.2C724.53 422.93 719.51 440.63 717.65 440.92C715.79 441.21 712.05 428.75 712.05 428.75C711.54 433.09 710.88 441.31 712.43 445.93C714.59 452.42 720.88 460.87 720.88 467.36Z" fill="#8CBBE5"/>
<path d="M702.87 407.51C700.662 407.067 698.427 406.769 696.18 406.62C699.694 406.416 703.22 406.611 706.69 407.2C704.83 407.27 702.87 407.51 702.87 407.51Z" fill="#FF644C"/>
<path d="M712.42 445.93C714.59 452.42 720.88 460.87 720.88 467.36C720.88 473.85 712.13 502.19 706.41 510.97C704.468 510.736 702.5 510.875 700.61 511.38C706.31 503.12 715.35 473.84 715.35 467.38C715.35 460.92 711.77 454.66 709.59 448.17C708.04 443.55 711.53 431.32 712.04 428.77C712 428.75 711.92 444.47 712.42 445.93Z" fill="white"/>
<path d="M719.31 518.25H713.78C713.004 515.765 711.452 513.596 709.35 512.06C708.692 511.63 707.965 511.319 707.2 511.14C708.94 510.8 712.46 510.41 714.89 512.06C716.987 513.598 718.536 515.767 719.31 518.25Z" fill="white"/>
<path d="M709.66 407.41H709.59C711.3 407.24 714.35 407.02 715.19 407.41C716.37 408 723.54 415.47 724.03 419.2C724.52 422.93 719.5 440.63 717.64 440.92C716.84 441.05 715.64 438.8 714.64 436.2C716.64 430.6 718.84 421.72 718.5 419.2C718 415.47 710.83 408 709.66 407.41Z" fill="white"/>
<path d="M706.41 511C706.68 511 706.93 511.1 707.2 511.17C706.54 511.3 706.15 511.41 706.15 511.41C706.15 511.41 706.33 511.11 706.41 511Z" fill="#FF644C"/>
<path d="M709.59 407.39C708.88 407.45 708.41 407.51 708.41 407.51C708.41 407.51 707.76 407.37 706.69 407.2C707.66 407.1 708.641 407.164 709.59 407.39Z" fill="#FF644C"/>
<path d="M712.42 425.89C712.42 425.89 710.25 439.45 712.42 445.89C714.59 452.33 720.88 460.83 720.88 467.31C720.88 473.79 711.88 503.08 706.14 511.31C706.14 511.31 711.55 509.73 714.89 511.99C716.987 513.528 718.536 515.697 719.31 518.18H698.18L701.52 481.34" stroke="#1A2E35" stroke-width="2.5" stroke-linecap="round" stroke-linejoin="round"/>
<path d="M698.18 516.98H693.86" stroke="#1A2E35" stroke-width="2.5" stroke-linecap="round" stroke-linejoin="round"/>
<path d="M692.39 481.41V518.25H676.86C676.86 518.25 677.94 512.75 681.28 512.06C683.026 511.673 684.803 511.446 686.59 511.38C686.59 511.38 674.9 487.76 673.42 480.23C671.42 470.23 677.06 464.01 677.06 464.01" stroke="#1A2E35" stroke-width="2.5" stroke-linecap="round" stroke-linejoin="round"/>
<path d="M664.77 483C664.77 483 673.62 491.74 675.48 497C677.34 502.26 661.73 514 661.73 514C661.73 514 669.83 511.54 673 512.23C676.17 512.92 676.86 518.23 676.86 518.23H648.17C648.17 518.23 641.78 502.41 643.55 495.83C645.32 489.25 658.29 480.5 658.29 480.5C658.29 480.5 677.55 451.58 681.77 444.24C683.64 441 682.05 425.87 682.05 425.87" stroke="#1A2E35" stroke-width="2.5" stroke-linecap="round" stroke-linejoin="round"/>
<path d="M682.38 429.82C682.38 429.82 678.53 444.82 676.47 444.66C674.41 444.5 668.8 428.93 668.7 425.3C668.6 421.67 674.99 413.6 676.37 411.74C677.75 409.88 682.68 410.07 682.68 410.07C682.68 410.07 690.22 407.12 696.12 406.63C700.234 406.402 704.36 406.698 708.4 407.51C708.4 407.51 714 406.82 715.18 407.41C716.36 408 723.54 415.47 724.03 419.2C724.52 422.93 719.51 440.63 717.64 440.92C715.77 441.21 712.04 428.75 712.04 428.75" stroke="#1A2E35" stroke-width="2.5" stroke-linecap="round" stroke-linejoin="round"/>
<path d="M643.93 494.78C643.93 494.78 627.14 492.02 625.93 466.67C625.93 466.67 621.09 482.47 628.48 494.28C630.141 497.07 632.39 499.464 635.07 501.296C637.75 503.129 640.798 504.355 644 504.89" stroke="#1A2E35" stroke-width="2.5" stroke-linecap="round" stroke-linejoin="round"/>
<path d="M701.91 436.81C701.91 437.99 699.45 439.25 698.18 439.25C696.91 439.25 694.46 437.99 694.46 436.81C694.46 435.63 696.46 435.15 698.18 435.15C699.9 435.15 701.91 435.64 701.91 436.81Z" fill="#1A2E35" stroke="#1A2E35" stroke-width="2.5" stroke-linecap="round" stroke-linejoin="round"/>
<path d="M689.24 437.2C689.24 437.2 687.33 442.89 690.15 445.13C692.97 447.37 696.59 445.87 698.15 445.87C699.71 445.87 703.8 447.19 706.09 444.76C708.38 442.33 706.75 437.2 706.75 437.2" stroke="#1A2E35" stroke-width="2.5" stroke-linecap="round" stroke-linejoin="round"/>
<path d="M686.54 451.24C686.053 454.07 686.29 456.977 687.23 459.69" stroke="#1A2E35" stroke-width="2.5" stroke-linecap="round" stroke-linejoin="round"/>
<path d="M702.61 462.54C702.61 462.54 702.9 470.2 700.35 473.15" stroke="#1A2E35" stroke-width="2.5" stroke-linecap="round" stroke-linejoin="round"/>
<path d="M705.36 454.58C705.36 454.58 707.03 459.94 706.24 464.41" stroke="#1A2E35" stroke-width="2.5" stroke-linecap="round" stroke-linejoin="round"/>
<path d="M485.12 470.24C485.12 470.24 458 444.15 444.36 460.4C425.22 483.18 467.3 508.63 465.48 508.76C463.66 508.89 445.48 505.89 441.7 507.19C437.92 508.49 434.01 516.38 435.96 516.38H487.25C489.72 516.38 490.11 512.15 488.42 509.54C488.42 509.54 504.18 508.86 507.08 493.41" fill="white"/>
<path d="M485.12 470.24C485.12 470.24 458 444.15 444.36 460.4C425.22 483.18 467.3 508.63 465.48 508.76C463.66 508.89 445.48 505.89 441.7 507.19C437.92 508.49 434.01 516.38 435.96 516.38H487.25C489.72 516.38 490.11 512.15 488.42 509.54C488.42 509.54 504.18 508.86 507.08 493.41" stroke="#1A2E35" stroke-width="2.5" stroke-linecap="round" stroke-linejoin="round"/>
<path d="M505.39 505.31C516.23 501.05 534.31 480.92 522.19 441.77C522.19 441.77 528.14 489.67 502.07 496.15" fill="white"/>
<path d="M505.39 505.31C516.23 501.05 534.31 480.92 522.19 441.77C522.19 441.77 528.14 489.67 502.07 496.15" stroke="#1A2E35" stroke-width="2.5" stroke-linecap="round" stroke-linejoin="round"/>
<path d="M425.34 427.55C426.55 432.04 410.6 506.55 410.34 507.19C410.08 507.83 401.87 508.84 400.11 510.49C398.35 512.14 395.92 516.38 397.24 516.38H420C421.43 516.38 421.65 510.38 421.76 509.61C421.87 508.84 438.05 455.15 441.57 451.84C443.861 449.729 446.326 447.815 448.94 446.12" fill="white"/>
<path d="M425.34 427.55C426.55 432.04 410.6 506.55 410.34 507.19C410.08 507.83 401.87 508.84 400.11 510.49C398.35 512.14 395.92 516.38 397.24 516.38H420C421.43 516.38 421.65 510.38 421.76 509.61C421.87 508.84 438.05 455.15 441.57 451.84C443.861 449.729 446.326 447.815 448.94 446.12" stroke="#1A2E35" stroke-width="2.5" stroke-linecap="round" stroke-linejoin="round"/>
<path d="M399.78 516.38C400.362 514.887 401.24 513.526 402.36 512.38" stroke="#1A2E35" stroke-width="2.5" stroke-linecap="round" stroke-linejoin="round"/>
<path d="M405.84 512.34C405.84 512.34 403.75 514.48 403.44 516.34" stroke="#1A2E35" stroke-width="2.5" stroke-linecap="round" stroke-linejoin="round"/>
<path d="M394.85 354C391.77 354.59 380.65 352.59 379.36 354.48C378.07 356.37 374.36 365.07 378.5 369.33C382.64 373.59 398.5 375.38 400.5 376.53C402.5 377.68 410.73 391.23 411.04 393.47C411.1 393.9 408.14 430.87 415.37 440.15C421.88 448.52 451.88 466.27 469.23 504.68C473.93 515.07 504.9 511.12 510 500.74C514.8 490.96 515.68 468.59 506.41 455.12C503.41 450.72 450.84 403.55 446.95 396.85C442.53 389.23 435.69 379.09 434.73 375.06C433.77 371.03 433.12 364.06 429.73 358.99C426.34 353.92 411.78 347.32 408.11 347.67C404.44 348.02 397.14 353.51 394.85 354Z" fill="white"/>
<path d="M470.69 420.8C464.07 425.07 454.18 430.05 449.15 425.7C441.15 418.79 445.69 409.38 440.86 403.55C436.03 397.72 431.4 399.55 429.38 392.89C428.06 388.52 432.52 381.89 435.73 377.89L435.94 378.04C438.29 382.93 443.42 390.71 446.94 396.84C448.64 399.64 459 409.75 470.69 420.8Z" fill="#FF644C"/>
<path d="M513.33 487.18C502.79 486.64 486.04 485.13 480.18 480.87C471.39 474.46 475.77 464.06 475.67 457.75C475.57 451.44 471.27 448.1 471.26 437.05C471.289 432.811 472.918 428.74 475.82 425.65C490.22 439.22 504.89 452.81 506.45 455.07C512.57 464 514.27 476.71 513.33 487.18Z" fill="#FF644C"/>
<path d="M462.62 436.82C457.82 438.89 459.83 450.99 465.08 449.27C468.46 448.16 465.47 443.99 466 441.86C466.53 439.73 466.23 435.26 462.62 436.82Z" fill="#FF644C"/>
<path d="M510 500.68C506.74 507.34 492.86 511.35 482.07 510.68C491.75 510.12 502.16 506.37 504.93 500.68C509.73 490.91 510.62 468.54 501.34 455.07C498.34 450.67 445.77 403.5 441.88 396.8C437.5 389.18 430.66 379 429.7 375C428.74 371 428.09 364 424.7 358.93C421.95 354.81 411.9 349.71 406.22 348.11C406.838 347.856 407.487 347.688 408.15 347.61C411.82 347.26 426.37 353.84 429.77 358.93C433.17 364.02 433.77 370.98 434.77 375C435.77 379.02 442.56 389.17 446.98 396.79C450.88 403.49 503.42 450.66 506.45 455.06C515.72 468.54 514.84 490.91 510 500.68Z" fill="white"/>
<path d="M394.85 354C391.77 354.59 380.65 352.59 379.36 354.48C378.07 356.37 374.36 365.07 378.5 369.33C382.64 373.59 398.5 375.38 400.5 376.53C402.5 377.68 410.73 391.23 411.04 393.47C411.1 393.9 408.14 430.87 415.37 440.15C421.88 448.52 451.88 466.27 469.23 504.68C473.93 515.07 504.9 511.12 510 500.74C514.8 490.96 515.68 468.59 506.41 455.12C503.41 450.72 450.84 403.55 446.95 396.85C442.53 389.23 435.69 379.09 434.73 375.06C433.77 371.03 433.12 364.06 429.73 358.99C426.34 353.92 411.78 347.32 408.11 347.67C404.44 348.02 397.14 353.51 394.85 354Z" stroke="#1A2E35" stroke-width="2.5" stroke-linecap="round" stroke-linejoin="round"/>
<path d="M377.28 359.38C377.28 359.38 375.55 354.78 376.63 353.51C377.71 352.24 382.72 353.64 384.23 355.75C385.74 357.86 377.28 359.38 377.28 359.38Z" fill="#1A2E35" stroke="#1A2E35" stroke-width="2.5" stroke-linecap="round" stroke-linejoin="round"/>
<path d="M477.35 484.07C477.35 484.07 467.7 440.07 449.69 460.4C429.96 482.67 472.63 508.63 470.81 508.76C468.99 508.89 450.81 505.89 447.03 507.19C443.25 508.49 439.34 516.38 441.29 516.38H492.58C495.05 516.38 495.44 512.15 493.75 509.54C493.75 509.54 509.85 508.75 512.41 493.41" fill="white"/>
<path d="M490.45 470.24C490.45 470.24 463.36 444.15 449.69 460.4C430.54 483.18 472.63 508.63 470.81 508.76C468.99 508.89 450.81 505.89 447.03 507.19C443.25 508.49 439.34 516.38 441.29 516.38H492.58C495.05 516.38 495.44 512.15 493.75 509.54C493.75 509.54 509.51 508.86 512.41 493.41" stroke="#1A2E35" stroke-width="2.5" stroke-linecap="round" stroke-linejoin="round"/>
<path d="M437 375.78C437.79 376.27 440.42 379.98 439.9 381.15C439.38 382.32 429.23 390.55 426.14 391.71C422.2 393.21 409.78 395.23 408.68 394.26C407.58 393.29 406.44 388.46 406.68 388.1C406.92 387.74 419.77 385.43 423.68 383.77C429.79 381.19 436.12 375.23 437 375.78Z" fill="#8CBBE5" stroke="#1A2E35" stroke-width="2.5" stroke-linecap="round" stroke-linejoin="round"/>
<path d="M425.36 405.6C425.36 405.6 399 418.66 396.88 418.35C394.76 418.04 376.88 399.85 369.55 399.64C362.22 399.43 353.29 403.25 354.02 405.92C354.75 408.59 359.7 410.44 361.41 410.84C363.12 411.24 370.19 409.75 370.19 409.75C370.19 409.75 390.48 437.26 395.19 437.38C399.9 437.5 426.44 432 426.44 432C428.87 431.69 431.73 433.7 431.73 433.7" fill="white"/>
<path d="M425.36 405.6C425.36 405.6 399 418.66 396.88 418.35C394.76 418.04 376.88 399.85 369.55 399.64C362.22 399.43 353.29 403.25 354.02 405.92C354.75 408.59 359.7 410.44 361.41 410.84C363.12 411.24 370.19 409.75 370.19 409.75C370.19 409.75 390.48 437.26 395.19 437.38C399.9 437.5 426.44 432 426.44 432C428.87 431.69 431.73 433.7 431.73 433.7" stroke="#1A2E35" stroke-width="2.5" stroke-linecap="round" stroke-linejoin="round"/>
<path d="M359.81 404.63C359.81 404.63 356.91 405.36 355.65 406.81" stroke="#1A2E35" stroke-width="2.5" stroke-linecap="round" stroke-linejoin="round"/>
<path d="M362.19 406.57C362.19 406.57 359.3 407.3 358.03 408.75" stroke="#1A2E35" stroke-width="2.5" stroke-linecap="round" stroke-linejoin="round"/>
<path d="M411.9 364.12C413.48 366.58 410.48 383.84 415.12 388.62C419.76 393.4 430.59 384.56 432.25 380.35C433.91 376.14 430.08 375.14 428.66 370.7C427.11 365.85 426.98 359.79 424.17 358.7" fill="white"/>
<path d="M411.9 364.12C413.48 366.58 410.48 383.84 415.12 388.62C419.76 393.4 430.59 384.56 432.25 380.35C433.91 376.14 430.08 375.14 428.66 370.7C427.11 365.85 426.98 359.79 424.17 358.7" stroke="#1A2E35" stroke-width="2.5" stroke-linecap="round" stroke-linejoin="round"/>
<path d="M302.6 337.41C303.531 338.376 304.715 339.059 306.017 339.383C307.319 339.707 308.685 339.657 309.96 339.24C310.364 339.111 310.755 338.947 311.13 338.75C311.701 339.956 312.537 341.016 313.576 341.853C314.615 342.689 315.83 343.28 317.13 343.58C319.308 343.856 321.507 343.94 323.7 343.83C325.893 343.939 328.092 343.856 330.27 343.58C334.85 342.64 336.96 338.11 338.27 333.49C339.48 328.721 340.392 323.882 341 319H306.3C306.3 319 306.51 320.71 306.9 323.13C306.07 323.035 305.235 322.998 304.4 323.02C303.673 322.979 302.947 323.113 302.282 323.411C301.618 323.708 301.034 324.161 300.58 324.73C298.17 328.43 300.12 334.86 302.6 337.41ZM302.97 326.14C303.06 325.98 303.54 325.67 305.59 325.78C305.97 325.78 306.4 325.84 306.89 325.9H307.38C307.82 328.36 308.38 331.09 309.06 333.44C309.33 334.39 309.63 335.33 309.99 336.25C309.157 336.747 308.178 336.942 307.218 336.801C306.258 336.661 305.376 336.194 304.72 335.48C302.73 333.5 301.49 328.39 303 326.14H302.97Z" fill="white" stroke="#1A2E35" stroke-width="2.5" stroke-linecap="round" stroke-linejoin="round"/>
<path d="M528.5 330.34C527.04 333.72 515.58 329.07 504.24 324.16C492.9 319.25 481.65 314.08 483.11 310.7C486.45 302.98 500.11 305.28 510.46 309.76C520.81 314.24 531.84 322.62 528.5 330.34Z" fill="#8CBBE5"/>
<path d="M528.5 330.34C527.81 331.95 524.83 331.74 520.67 330.53C522.5 330.7 523.75 330.39 524.17 329.42C527.51 321.7 516.5 313.34 506.17 308.85C503.521 307.698 500.79 306.745 498 306C502.284 306.729 506.462 307.982 510.44 309.73C520.84 314.25 531.84 322.62 528.5 330.34Z" fill="white"/>
<path d="M528.5 330.34C527.04 333.72 515.58 329.07 504.24 324.16C492.9 319.25 481.65 314.08 483.11 310.7C486.45 302.98 500.11 305.28 510.46 309.76C520.81 314.24 531.84 322.62 528.5 330.34Z" stroke="#1A2E35" stroke-width="2.5" stroke-linecap="round" stroke-linejoin="round"/>
<path d="M501.26 307C500.099 307.233 499.007 307.731 498.069 308.454C497.131 309.177 496.371 310.106 495.85 311.17" stroke="#1A2E35" stroke-width="2.5" stroke-linecap="round" stroke-linejoin="round"/>
<path d="M521.18 316.06C520.019 316.294 518.927 316.791 517.989 317.514C517.051 318.237 516.291 319.167 515.77 320.23" stroke="#1A2E35" stroke-width="2.5" stroke-linecap="round" stroke-linejoin="round"/>
<path d="M508.17 309.15C507.009 309.383 505.917 309.881 504.979 310.604C504.041 311.327 503.281 312.257 502.76 313.32" stroke="#1A2E35" stroke-width="2.5" stroke-linecap="round" stroke-linejoin="round"/>
<path d="M514.77 312C513.609 312.237 512.517 312.737 511.579 313.461C510.641 314.186 509.882 315.116 509.36 316.18" stroke="#1A2E35" stroke-width="2.5" stroke-linecap="round" stroke-linejoin="round"/>
<path d="M504.19 339.69H516.33C521.791 339.69 527.028 337.521 530.889 333.659C534.751 329.798 536.92 324.561 536.92 319.1H483.59C483.59 321.805 484.123 324.483 485.158 326.982C486.194 329.48 487.711 331.751 489.624 333.663C491.537 335.575 493.808 337.091 496.307 338.126C498.807 339.16 501.485 339.691 504.19 339.69Z" fill="white" stroke="#1A2E35" stroke-width="2.5" stroke-linecap="round" stroke-linejoin="round"/>
<path d="M500.33 343.85H520.11V339.7H500.33V343.85Z" fill="white" stroke="#1A2E35" stroke-width="2.5" stroke-linecap="round" stroke-linejoin="round"/>
<path d="M575.55 339.69H587.69C599.06 339.69 608.28 337.64 608.28 335.11H555C555 337.64 564.17 339.69 575.55 339.69Z" fill="white" stroke="#1A2E35" stroke-width="2.5" stroke-linecap="round" stroke-linejoin="round"/>
<path d="M571.68 343.85H591.46V339.7H571.68V343.85Z" fill="white" stroke="#1A2E35" stroke-width="2.5" stroke-linecap="round" stroke-linejoin="round"/>
<path d="M292.79 341.55C290.469 341.52 288.224 340.718 286.41 339.27C285.96 338.897 285.677 338.361 285.623 337.78C285.569 337.199 285.747 336.62 286.12 336.17C286.493 335.721 287.029 335.437 287.61 335.383C288.191 335.329 288.77 335.507 289.22 335.88C290.225 336.721 291.506 337.159 292.815 337.111C294.124 337.063 295.369 336.532 296.31 335.62C297.88 334.17 300.18 327.62 300.05 322.38C299.99 319.92 299.41 318.11 298.42 317.28C295.09 314.5 289.2 320.33 289.14 320.39C288.94 320.606 288.7 320.779 288.432 320.9C288.165 321.021 287.876 321.087 287.582 321.095C287.289 321.102 286.997 321.051 286.723 320.944C286.45 320.836 286.201 320.676 285.99 320.471C285.78 320.266 285.613 320.021 285.499 319.75C285.385 319.48 285.326 319.189 285.326 318.895C285.326 318.602 285.385 318.311 285.499 318.041C285.613 317.77 285.78 317.525 285.99 317.32C289.21 314.01 296.05 309.57 301.24 313.91C303.24 315.61 304.35 318.42 304.45 322.27C304.6 328.27 302.14 336.22 299.29 338.85C297.556 340.56 295.225 341.528 292.79 341.55Z" fill="#8CBBE5" stroke="#1A2E35" stroke-width="2.5" stroke-linecap="round" stroke-linejoin="round"/>
<path d="M294.91 330.21C294.91 339.76 288.49 343.84 288.49 343.84L272.02 343.64L255.53 343.84C255.53 343.84 249.11 339.76 249.11 330.21C249.11 320.66 260.11 312.66 260.11 312.66H283.87C283.87 312.66 294.91 320.67 294.91 330.21Z" fill="#8CBBE5" stroke="#1A2E35" stroke-width="2.5" stroke-linecap="round" stroke-linejoin="round"/>
<path d="M286.87 309.41V312.73H257.14V309.41H259.46C259.46 309.41 261.77 301.26 272.01 301.26C282.25 301.26 284.56 309.41 284.56 309.41H286.87Z" fill="#8CBBE5" stroke="#1A2E35" stroke-width="2.5" stroke-linecap="round" stroke-linejoin="round"/>
<path d="M254.91 339.94C254.91 339.94 246.29 337.89 244.91 326.8C244.03 319.63 241.71 317.9 241.71 317.9L244.91 314.85C248.755 317.939 252.427 321.238 255.91 324.73" fill="#8CBBE5"/>
<path d="M254.91 339.94C254.91 339.94 246.29 337.89 244.91 326.8C244.03 319.63 241.71 317.9 241.71 317.9L244.91 314.85C248.755 317.939 252.427 321.238 255.91 324.73" stroke="#1A2E35" stroke-width="2.5" stroke-linecap="round" stroke-linejoin="round"/>
<path d="M342.88 343.84H155.38V353.54H342.88V343.84Z" fill="white" stroke="#1A2E35" stroke-width="2.5" stroke-linecap="round" stroke-linejoin="round"/>
<path d="M254.21 353.54H244.06V516.2H254.21V353.54Z" fill="white" stroke="#1A2E35" stroke-width="2.5" stroke-linecap="round" stroke-linejoin="round"/>
<path d="M244.06 476.14V490.6C244.06 490.6 231.31 491.5 228.12 501.6C227.013 505.294 224.872 508.594 221.95 511.11L215.95 516.16H206.33L213.56 508.46C216.058 505.767 217.785 502.451 218.56 498.86C220.32 490.87 226 476.14 244.06 476.14Z" fill="white" stroke="#1A2E35" stroke-width="2.5" stroke-linecap="round" stroke-linejoin="round"/>
<path d="M254.21 476.14V490.6C254.21 490.6 266.96 491.5 270.14 501.6C271.247 505.294 273.388 508.594 276.31 511.11L282.31 516.16H292L284.76 508.46C282.261 505.767 280.534 502.451 279.76 498.86C277.94 490.87 272.24 476.14 254.21 476.14Z" fill="white" stroke="#1A2E35" stroke-width="2.5" stroke-linecap="round" stroke-linejoin="round"/>
<path d="M256.48 465.16H241.79V472.42H256.48V465.16Z" fill="white" stroke="#1A2E35" stroke-width="2.5" stroke-linecap="round" stroke-linejoin="round"/>
<path d="M256.48 365.49H241.79V372.75H256.48V365.49Z" fill="white" stroke="#1A2E35" stroke-width="2.5" stroke-linecap="round" stroke-linejoin="round"/>
<path d="M249.13 378.84L189.03 343.84H309.23L249.13 378.84Z" fill="white" stroke="#FF644C" stroke-width="2.5" stroke-linecap="round" stroke-linejoin="round"/>
<path d="M645.85 343.84H458.35V353.54H645.85V343.84Z" fill="white" stroke="#1A2E35" stroke-width="2.5" stroke-linecap="round" stroke-linejoin="round"/>
<path d="M557.17 353.54H547.02V516.2H557.17V353.54Z" fill="white" stroke="#1A2E35" stroke-width="2.5" stroke-linecap="round" stroke-linejoin="round"/>
<path d="M547 476.14V490.6C547 490.6 534.25 491.5 531.06 501.6C529.961 505.295 527.822 508.596 524.9 511.11L518.9 516.16H509.28L516.51 508.46C519.012 505.769 520.739 502.452 521.51 498.86C523.29 490.87 529 476.14 547 476.14Z" fill="white" stroke="#1A2E35" stroke-width="2.5" stroke-linecap="round" stroke-linejoin="round"/>
<path d="M557.17 476.14V490.6C557.17 490.6 569.92 491.5 573.11 501.6C574.217 505.294 576.358 508.594 579.28 511.11L585.28 516.16H594.9L587.67 508.46C585.168 505.769 583.441 502.452 582.67 498.86C580.9 490.87 575.2 476.14 557.17 476.14Z" fill="white" stroke="#1A2E35" stroke-width="2.5" stroke-linecap="round" stroke-linejoin="round"/>
<path d="M559.44 465.16H544.75V472.42H559.44V465.16Z" fill="white" stroke="#1A2E35" stroke-width="2.5" stroke-linecap="round" stroke-linejoin="round"/>
<path d="M559.44 365.49H544.75V372.75H559.44V365.49Z" fill="white" stroke="#1A2E35" stroke-width="2.5" stroke-linecap="round" stroke-linejoin="round"/>
<path d="M552.1 378.84L491.99 343.84H612.2L552.1 378.84Z" fill="white" stroke="#FF644C" stroke-width="2.5" stroke-linecap="round" stroke-linejoin="round"/>
<path d="M86.26 175.6C95.42 172.1 107.46 173.06 115.19 179.46C122.06 185.16 124.31 195.46 121.05 203.67C117.17 213.46 106 218.8 95.83 217.11C95.15 217 96.41 221.7 99.34 224.35C100.429 225.407 101.653 226.315 102.98 227.05C96.75 226.56 90.65 223.92 88.98 217.21C81.54 214.89 70.58 208.06 70.3 198.31C70 188.19 77 179.14 86.26 175.6Z" fill="white" stroke="#1A2E35" stroke-width="2.5" stroke-linecap="round" stroke-linejoin="round"/>
<path d="M103.43 197.13C103.428 197.609 103.569 198.079 103.834 198.478C104.099 198.878 104.477 199.189 104.919 199.374C105.362 199.558 105.849 199.607 106.32 199.514C106.79 199.421 107.222 199.19 107.561 198.851C107.9 198.512 108.131 198.08 108.224 197.61C108.317 197.139 108.268 196.652 108.084 196.209C107.899 195.767 107.588 195.389 107.188 195.124C106.789 194.859 106.319 194.718 105.84 194.72C105.201 194.72 104.588 194.974 104.136 195.426C103.684 195.878 103.43 196.491 103.43 197.13Z" fill="#1A2E35"/>
<path d="M94 197.13C94 197.607 94.1413 198.073 94.4062 198.469C94.671 198.865 95.0474 199.174 95.4877 199.357C95.9281 199.539 96.4127 199.587 96.8802 199.494C97.3477 199.401 97.7771 199.171 98.1141 198.834C98.4512 198.497 98.6807 198.068 98.7737 197.6C98.8667 197.133 98.819 196.648 98.6366 196.208C98.4541 195.767 98.1452 195.391 97.7489 195.126C97.3526 194.861 96.8867 194.72 96.41 194.72C95.7708 194.72 95.1578 194.974 94.7059 195.426C94.2539 195.878 94 196.491 94 197.13Z" fill="#1A2E35"/>
<path d="M84.57 197.13C84.57 197.606 84.7109 198.071 84.9748 198.467C85.2388 198.863 85.614 199.172 86.0532 199.355C86.4924 199.538 86.9759 199.586 87.4429 199.495C87.9098 199.404 88.3393 199.176 88.6771 198.841C89.0149 198.506 89.246 198.079 89.3412 197.612C89.4365 197.146 89.3916 196.662 89.2122 196.222C89.0329 195.781 88.7271 195.403 88.3334 195.136C87.9398 194.869 87.4758 194.724 87 194.72C86.6818 194.717 86.3663 194.778 86.0716 194.898C85.7769 195.018 85.5088 195.195 85.2829 195.419C85.057 195.643 84.8777 195.909 84.7554 196.203C84.633 196.497 84.57 196.812 84.57 197.13Z" fill="#1A2E35"/>
<path d="M399.37 174.1C390.21 170.6 378.17 171.56 370.45 177.96C363.57 183.66 361.32 193.96 364.58 202.17C368.46 211.96 379.66 217.31 389.81 215.61C390.48 215.5 389.22 220.2 386.3 222.85C385.208 223.907 383.98 224.815 382.65 225.55C388.89 225.07 394.98 222.42 396.65 215.71C404.09 213.39 415.05 206.56 415.33 196.81C415.62 186.69 408.62 177.64 399.37 174.1Z" fill="white" stroke="#1A2E35" stroke-width="2.5" stroke-linecap="round" stroke-linejoin="round"/>
<path d="M397.14 197.45C395.166 200.443 392.433 202.858 389.22 204.45C386.009 202.86 383.278 200.444 381.31 197.45C379.31 194.01 379.06 188.97 383.31 187.73C387.1 186.64 389.22 191.46 389.22 191.46C389.22 191.46 391.34 186.64 395.13 187.73C399.38 189 399.16 194 397.14 197.45Z" fill="#FF644C"/>
</g>
<defs>
<clipPath id="clip0_98_2084">
<rect width="663.81" height="427.5" fill="white" transform="translate(64 92)"/>
</clipPath>
</defs>
</svg>
