<svg width="179" height="43" viewBox="0 0 179 43" fill="none" xmlns="http://www.w3.org/2000/svg">
<g clip-path="url(#clip0_606_62)">
<path d="M15.2358 16.9236C14.4541 16.9236 13.7044 16.613 13.1517 16.0603C12.5989 15.5075 12.2884 14.7579 12.2884 13.9762V9.10406C12.2884 7.78626 12.8829 5.31278 16.8612 3.5377L23.1925 0.320108C23.5374 0.144396 23.9136 0.038452 24.2995 0.00834388C24.6854 -0.0217642 25.0735 0.0245547 25.4415 0.144648C25.8095 0.264742 26.1502 0.45625 26.4441 0.708207C26.738 0.960164 26.9793 1.26762 27.1542 1.61297L28.1394 3.55433C28.4917 4.25186 28.553 5.06064 28.3099 5.80331C28.0667 6.54598 27.539 7.16191 26.8424 7.51604L20.3698 10.8085V13.9803C20.3698 14.7613 20.0598 15.5104 19.508 16.063C18.9561 16.6156 18.2075 16.9266 17.4266 16.9277L15.2358 16.9236Z" fill="white"/>
<path d="M38.1705 40.0245C37.334 40.0568 36.5007 39.9045 35.7297 39.5783C34.9588 39.2521 34.2692 38.7601 33.7099 38.1372C32.7641 37.0242 32.2448 35.6112 32.2448 34.1506C32.2448 32.69 32.7641 31.2769 33.7099 30.1639C34.1732 29.6272 34.7384 29.1878 35.3727 28.8711C34.8465 28.2932 34.4434 27.6143 34.188 26.8757C33.8028 25.6515 33.6258 24.3713 33.6642 23.0885V13.8224C33.6338 12.9067 33.825 11.9973 34.2216 11.1714C34.6183 10.3456 35.2086 9.62777 35.9423 9.07912C37.1474 8.21894 38.5983 7.77128 40.0786 7.80289C41.5802 7.78988 43.0433 8.27853 44.2357 9.19136C45.0481 9.81331 45.6749 10.6457 46.0482 11.5983H51.6353C51.998 10.6022 52.6457 9.73483 53.4977 9.10406C54.713 8.25862 56.1589 7.80718 57.6394 7.8109C59.1198 7.81462 60.5634 8.27331 61.7745 9.12485C62.4971 9.67341 63.0781 10.3866 63.4693 11.2052C63.8605 12.0237 64.0505 12.9239 64.0235 13.8307V27.387C64.0253 28.1447 63.7817 28.8827 63.3292 29.4905C63.5771 29.6959 63.8079 29.9211 64.0193 30.1639C64.9622 31.2794 65.4778 32.6938 65.474 34.1544C65.4702 35.615 64.9472 37.0267 63.9985 38.1372C63.4389 38.7596 62.7492 39.2513 61.9784 39.5775C61.2075 39.9036 60.3744 40.0563 59.538 40.0245H38.1705Z" fill="white"/>
<path d="M73.9007 40.7396C72.9632 40.7385 72.0644 40.3653 71.4019 39.7019C70.7393 39.0386 70.3672 38.1394 70.3672 37.2019V34.9986H66.0272C65.2052 35.0305 64.3862 34.8825 63.6272 34.5652C62.8683 34.2478 62.1878 33.7687 61.6331 33.1612C60.6806 32.0608 60.1543 30.6553 60.1497 29.1999C60.1452 27.7446 60.6626 26.3358 61.6082 25.2294C61.7163 25.1089 61.8285 24.9883 61.9574 24.8636C61.4119 23.737 61.1372 22.4985 61.1551 21.2469V20.8312C61.1224 19.3025 61.5496 17.7992 62.3814 16.5162C61.7554 15.5899 61.4249 14.4955 61.4336 13.3776C61.4283 12.0227 61.9159 10.7122 62.8054 9.69021C63.312 9.10466 63.9408 8.63738 64.6476 8.32133C65.3544 8.00529 66.1219 7.84818 66.896 7.86109H84.0648C86.5591 7.86109 88.4963 8.51791 89.8099 9.81492C90.7245 10.7129 91.8137 12.3549 91.8137 15.0529V20.27C91.8131 20.4341 91.802 20.5979 91.7804 20.7606C92.1835 21.4885 92.4265 22.2942 92.4932 23.1237C92.5599 23.9532 92.4487 24.7873 92.167 25.5703C92.9848 26.6827 93.401 28.0398 93.3474 29.4194C93.2937 30.7991 92.7735 32.1197 91.8719 33.1653C91.3165 33.7716 90.6357 34.2497 89.8769 34.5663C89.1181 34.8829 88.2994 35.0304 87.4778 34.9986H83.142V37.1852C83.1441 37.6519 83.054 38.1144 82.8767 38.5461C82.6993 38.9778 82.4384 39.3701 82.1088 39.7005C81.7791 40.0309 81.3874 40.2928 80.9562 40.4711C80.5249 40.6494 80.0626 40.7407 79.5959 40.7396H73.9007Z" fill="white"/>
<path d="M99.4461 40.6647C96.5361 40.6647 94.1624 39.8333 92.4372 38.1705C91.5661 37.3274 90.8791 36.3129 90.4198 35.191C89.9604 34.0691 89.7386 32.8641 89.7684 31.6522C89.7232 29.5231 90.4446 27.4488 91.8012 25.8073C89.8307 24.0862 88.7914 21.6959 88.7914 18.8358V17.3684C88.7914 14.2464 90.0386 11.669 92.4164 9.91885C94.495 8.38488 97.1306 7.6075 100.257 7.6075C103.383 7.6075 106.035 8.37656 108.109 9.8939C108.301 10.0352 108.488 10.1807 108.667 10.3346C108.974 9.80859 109.361 9.33324 109.814 8.9253C111.018 7.87751 112.56 7.3004 114.156 7.3004C115.752 7.3004 117.294 7.87751 118.498 8.9253C119.148 9.51394 119.662 10.2366 120.005 11.0433C120.348 11.85 120.512 12.7216 120.485 13.5979V25.3209C120.488 26.0678 120.252 26.7961 119.812 27.3994C120.476 28.722 120.812 30.1848 120.793 31.6646C120.825 32.8862 120.6 34.1009 120.133 35.2302C119.667 36.3595 118.968 37.3782 118.082 38.2204C116.349 39.8458 114.004 40.6689 111.115 40.6689L99.4461 40.6647Z" fill="white"/>
<path d="M129.735 40.7396C128.796 40.7396 127.897 40.3668 127.233 39.7034C126.57 39.04 126.197 38.1401 126.197 37.2019V34.7201H121.861C121.039 34.7522 120.22 34.6044 119.461 34.287C118.702 33.9697 118.022 33.4904 117.467 32.8827C116.512 31.7817 115.985 30.3745 115.98 28.9173C115.976 27.46 116.494 26.0495 117.442 24.9426C117.572 24.7958 117.711 24.657 117.858 24.5269L117.804 24.3772C117.435 23.2597 117.263 22.0866 117.297 20.9102V13.681C117.266 12.7659 117.457 11.8569 117.854 11.0317C118.25 10.2064 118.841 9.48946 119.575 8.94193C120.777 8.07924 122.227 7.62995 123.707 7.66155C125.208 7.64918 126.671 8.13776 127.864 9.05002C128.3 9.3872 128.687 9.78472 129.011 10.2306H136.078C136.419 9.73872 136.84 9.30851 137.326 8.95856C138.539 8.10916 139.985 7.65356 141.466 7.65356C142.947 7.65356 144.393 8.10916 145.607 8.95856C146.328 9.50826 146.907 10.2218 147.298 11.0402C147.688 11.8585 147.878 12.7581 147.851 13.6644V24.7347C147.851 24.8387 147.851 24.9426 147.851 25.0424C148.762 26.1523 149.251 27.5487 149.231 28.9843C149.211 30.42 148.684 31.8024 147.743 32.8868C147.189 33.4932 146.509 33.9714 145.751 34.2881C144.992 34.6047 144.174 34.7521 143.353 34.7201H138.963V37.1853C138.964 37.6496 138.873 38.1096 138.696 38.5388C138.518 38.9679 138.258 39.358 137.93 39.6865C137.602 40.0151 137.212 40.2757 136.783 40.4536C136.354 40.6314 135.894 40.7229 135.43 40.7229L129.735 40.7396Z" fill="white"/>
<path d="M153.576 40.5816C152.242 40.6281 150.914 40.3842 149.685 39.8666C148.302 39.2439 147.221 38.1012 146.675 36.6864C146.241 35.4968 146.038 34.2355 146.076 32.97V30.06C146.075 29.5854 146.121 29.1119 146.213 28.6466C146.013 28.5045 145.821 28.3504 145.64 28.1851C145.04 27.619 144.569 26.9308 144.258 26.1671C143.946 25.4034 143.802 24.5819 143.836 23.7578C143.825 22.5021 144.228 21.2778 144.983 20.2742C145.69 19.3505 146.644 18.6457 147.735 18.2414C148.291 18.0475 148.775 17.6894 149.123 17.2146C149.261 17.0067 149.577 16.3457 149.614 14.7203V13.627C149.616 12.77 149.806 11.9239 150.173 11.1493C150.539 10.3746 151.073 9.69043 151.734 9.14563C152.924 8.19956 154.404 7.6943 155.924 7.71558C157.488 7.69375 159.007 8.24031 160.198 9.25371C160.846 9.81675 161.363 10.5149 161.713 11.2991C162.063 12.0834 162.237 12.9347 162.222 13.7933V14.1341C162.48 14.2464 162.725 14.3628 162.971 14.4917V13.5979C162.943 12.7219 163.106 11.8504 163.449 11.0437C163.791 10.2369 164.305 9.51415 164.954 8.9253C166.158 7.87751 167.7 7.3004 169.296 7.3004C170.892 7.3004 172.434 7.87751 173.638 8.9253C174.287 9.51415 174.8 10.2369 175.143 11.0437C175.485 11.8504 175.648 12.7219 175.621 13.5979V14.845C176.371 15.2178 177.019 15.7687 177.508 16.4496C178.296 17.5556 178.712 18.8831 178.697 20.2409C178.709 21.6188 178.271 22.963 177.45 24.0696C176.968 24.7226 176.337 25.2501 175.608 25.6077V30.6253C175.609 30.9397 175.568 31.2527 175.488 31.5565C176.116 32.4211 176.488 33.4452 176.561 34.5114C176.634 35.5777 176.405 36.6429 175.9 37.5849C175.395 38.527 174.635 39.3078 173.707 39.8378C172.779 40.3678 171.721 40.6256 170.653 40.5816H153.576Z" fill="white"/>
<path d="M61.2964 32.4711C61.6937 32.9331 61.9081 33.5246 61.8992 34.1339C61.9133 34.7441 61.6982 35.3374 61.2964 35.7968C61.0654 36.0366 60.7842 36.2224 60.4731 36.341C60.1619 36.4595 59.8284 36.5079 59.4964 36.4827H38.1705C37.8379 36.5077 37.5038 36.4592 37.192 36.3407C36.8802 36.2221 36.5983 36.0364 36.3663 35.7968C35.9656 35.337 35.752 34.7436 35.7677 34.1339C35.7576 33.5252 35.9705 32.9337 36.3663 32.4711C36.5963 32.228 36.8775 32.0392 37.1896 31.9184C37.5017 31.7976 37.8368 31.7478 38.1705 31.7727H59.4964C59.8295 31.7476 60.164 31.7972 60.4755 31.9181C60.7869 32.0389 61.0674 32.2279 61.2964 32.4711ZM37.1852 13.8224C37.1579 13.4637 37.2195 13.1037 37.3645 12.7745C37.5095 12.4453 37.7335 12.157 38.0167 11.935C38.6187 11.5192 39.3391 11.3093 40.0703 11.3364C40.7905 11.3237 41.4938 11.5552 42.0657 11.9932C42.345 12.2176 42.5662 12.5058 42.7109 12.8335C42.8556 13.1612 42.9195 13.5189 42.8971 13.8764V15.1235H54.749V13.8224C54.7227 13.4638 54.7848 13.1042 54.9297 12.7752C55.0747 12.4462 55.2981 12.1577 55.5804 11.935C56.1758 11.5183 56.8912 11.308 57.6174 11.3364C58.3417 11.3119 59.0537 11.5283 59.6419 11.9517C59.9231 12.1715 60.1461 12.4571 60.291 12.7833C60.436 13.1095 60.4986 13.4663 60.4733 13.8224V27.387H41.2135C40.3449 27.432 39.4763 27.299 38.661 26.9962C38.3851 26.8751 38.1379 26.6969 37.9358 26.4733C37.7338 26.2498 37.5814 25.9859 37.4887 25.6992C37.2433 24.8516 37.1352 23.9703 37.1686 23.0885L37.1852 13.8224ZM43.105 22.6687C43.1978 22.7445 43.3047 22.8012 43.4196 22.8355C43.5345 22.8697 43.655 22.8809 43.7742 22.8682H54.749V19.4885H42.8846V22.0326C42.8739 22.1466 42.886 22.2615 42.9203 22.3708C42.9546 22.48 43.0103 22.5812 43.0842 22.6687H43.105Z" fill="#EC6351"/>
<path d="M89.2279 27.5574C89.6065 28.0145 89.8136 28.5894 89.8136 29.1828C89.8136 29.7763 89.6065 30.3512 89.2279 30.8083C88.9998 31.0384 88.7244 31.2163 88.4208 31.3297C88.1172 31.4431 87.7927 31.4893 87.4695 31.4651H79.5959V37.1853H73.9007V31.4651H66.0272C65.704 31.4893 65.3794 31.4431 65.0758 31.3297C64.7723 31.2163 64.4969 31.0384 64.2687 30.8083C63.8902 30.3512 63.683 29.7763 63.683 29.1828C63.683 28.5894 63.8902 28.0145 64.2687 27.5574C64.4942 27.323 64.7689 27.1413 65.0729 27.0256C65.3769 26.9099 65.7028 26.8629 66.0272 26.8881H87.4695C87.7938 26.8629 88.1197 26.9099 88.4237 27.0256C88.7278 27.1413 89.0024 27.323 89.2279 27.5574ZM65.9482 24.3731C65.5267 23.9731 65.197 23.4865 64.9817 22.9468C64.7664 22.4071 64.6707 21.8272 64.7011 21.2469V20.8312C64.6707 20.2633 64.7668 19.6958 64.9825 19.1695C65.1982 18.6433 65.528 18.1715 65.9482 17.7882C66.7796 17.0649 67.981 16.6991 69.5649 16.6991H82.5184V15.9965C82.5184 15.5808 82.2939 15.3563 81.8449 15.3563H66.896C66.6345 15.3666 66.3739 15.3194 66.1326 15.2181C65.8913 15.1169 65.6751 14.964 65.4992 14.7702C65.1491 14.3902 64.9585 13.89 64.9671 13.3734C64.9635 12.8649 65.1486 12.3731 65.4868 11.9932C65.6609 11.7929 65.8782 11.6346 66.1222 11.5302C66.3663 11.4258 66.6308 11.3781 66.896 11.3905H84.0648C85.6085 11.3905 86.6963 11.7022 87.3281 12.3258C87.96 12.9494 88.2801 13.8598 88.2801 15.0487V20.27H71.5021C70.9478 20.27 70.6776 20.5028 70.6914 20.9684C70.6823 21.0636 70.6952 21.1595 70.7291 21.2489C70.763 21.3383 70.8169 21.4187 70.8868 21.4839C71.0693 21.6016 71.2856 21.6557 71.5021 21.6377H87.0496C87.3192 21.6162 87.5901 21.6567 87.8416 21.7562C88.0931 21.8556 88.3185 22.0113 88.5004 22.2114C88.8101 22.6 88.9786 23.0822 88.9786 23.5791C88.9786 24.076 88.8101 24.5581 88.5004 24.9468C88.3181 25.1461 88.0925 25.301 87.8411 25.3997C87.5896 25.4984 87.3189 25.5383 87.0496 25.5163H69.5482C67.9852 25.5163 66.7838 25.138 65.944 24.3731H65.9482Z" fill="#EC6351"/>
<path d="M94.5158 12.7623C95.979 11.6815 97.8927 11.141 100.257 11.141C102.635 11.141 104.559 11.6773 106.018 12.7457C107.478 13.8141 108.209 15.3563 108.209 17.3684V18.8441C108.209 20.8395 107.479 22.3763 106.018 23.4544C104.558 24.5324 102.646 25.0715 100.282 25.0715C97.901 25.0715 95.979 24.5366 94.5158 23.4668C93.0525 22.3971 92.3222 20.8562 92.325 18.8441V17.3684C92.325 15.3785 93.0552 13.8432 94.5158 12.7623ZM94.8816 27.6946C95.9236 26.6914 97.4451 26.1897 99.4461 26.1897H111.115C113.086 26.1897 114.601 26.6872 115.663 27.6821C116.197 28.1933 116.615 28.8127 116.89 29.4989C117.164 30.1851 117.289 30.9221 117.255 31.6605C117.288 32.3987 117.163 33.1355 116.889 33.8216C116.614 34.5076 116.196 35.1272 115.663 35.6388C114.601 36.631 113.086 37.1284 111.115 37.1312H99.4461C97.4562 37.1312 95.9319 36.6282 94.8733 35.6222C94.346 35.1102 93.9327 34.4927 93.6605 33.81C93.3882 33.1273 93.2632 32.3948 93.2936 31.6605C93.2647 30.925 93.3913 30.1916 93.6649 29.5083C93.9385 28.8249 94.3531 28.207 94.8816 27.6946ZM98.4816 20.3698C98.9844 20.7708 99.614 20.9787 100.257 20.9559C100.911 20.9793 101.553 20.7718 102.069 20.3698C102.304 20.1844 102.493 19.9464 102.619 19.6749C102.745 19.4034 102.806 19.106 102.797 18.8067V17.4224C102.808 17.1241 102.749 16.8274 102.625 16.556C102.501 16.2846 102.315 16.046 102.082 15.8593C101.58 15.459 100.952 15.2511 100.311 15.2732C99.6528 15.2452 99.0057 15.4481 98.4816 15.8469C98.2475 16.035 98.0611 16.2758 97.9376 16.5495C97.814 16.8233 97.7569 17.1224 97.7708 17.4224V18.7901C97.7572 19.0907 97.8145 19.3903 97.938 19.6646C98.0614 19.939 98.2477 20.1806 98.4816 20.3698ZM99.4461 32.8411C99.8458 33.1654 100.354 33.3246 100.868 33.2859H109.689C110.204 33.3244 110.714 33.1653 111.115 32.8411C111.272 32.6903 111.396 32.5078 111.478 32.3057C111.559 32.1037 111.597 31.8866 111.589 31.6688C111.597 31.4485 111.559 31.229 111.477 31.0243C111.396 30.8196 111.272 30.6342 111.115 30.4799C110.717 30.1477 110.206 29.9837 109.689 30.0226H100.868C100.352 29.9834 99.8421 30.1476 99.4461 30.4799C99.2887 30.6342 99.1653 30.8196 99.0837 31.0243C99.0021 31.229 98.9641 31.4485 98.9722 31.6688C98.9638 31.8866 99.0018 32.1037 99.0835 32.3057C99.1651 32.5078 99.2887 32.6903 99.4461 32.8411ZM112.175 11.5692C112.729 11.0999 113.432 10.8423 114.158 10.8423C114.884 10.8423 115.587 11.0999 116.141 11.5692C116.415 11.8297 116.63 12.1469 116.769 12.4987C116.908 12.8505 116.969 13.2285 116.947 13.6062V25.3292H111.364V13.5979C111.343 13.2198 111.404 12.8415 111.544 12.4895C111.684 12.1376 111.899 11.8207 112.175 11.5609V11.5692Z" fill="#EC6351"/>
<path d="M145.083 27.2747C145.473 27.7232 145.682 28.3014 145.669 28.896C145.688 29.4953 145.479 30.0795 145.083 30.5297C144.851 30.7612 144.572 30.9392 144.265 31.0512C143.958 31.1632 143.629 31.2066 143.303 31.1782H135.43V37.1852H129.735V31.1782H121.861C121.538 31.2024 121.213 31.1562 120.91 31.0429C120.606 30.9295 120.331 30.7516 120.103 30.5214C119.707 30.0712 119.497 29.487 119.517 28.8877C119.503 28.2931 119.712 27.7149 120.103 27.2664C120.33 27.0344 120.605 26.855 120.909 26.7408C121.212 26.6265 121.538 26.5804 121.861 26.6054H143.303C143.631 26.5783 143.961 26.6243 144.268 26.74C144.576 26.8557 144.854 27.0384 145.083 27.2747ZM120.851 13.681C120.823 13.3228 120.884 12.9633 121.029 12.6346C121.174 12.3059 121.399 12.0184 121.682 11.7979C122.283 11.3814 123.002 11.17 123.732 11.1951C124.453 11.1817 125.158 11.4132 125.731 11.8519C126.011 12.0771 126.232 12.366 126.377 12.6944C126.521 13.0228 126.585 13.3811 126.563 13.7392V13.7642H138.598V13.681C138.568 13.3251 138.626 12.9673 138.766 12.6389C138.907 12.3106 139.126 12.0218 139.404 11.7979C140.001 11.3802 140.717 11.1685 141.445 11.1951C142.168 11.1731 142.878 11.3892 143.466 11.8103C143.746 12.0309 143.968 12.3166 144.113 12.6426C144.258 12.9686 144.321 13.3251 144.297 13.681V24.7347H124.513C123.724 24.776 122.934 24.6485 122.198 24.3606C121.948 24.245 121.723 24.0801 121.538 23.8758C121.353 23.6716 121.211 23.4321 121.121 23.1717C120.899 22.4393 120.801 21.675 120.83 20.9102L120.851 13.681ZM126.767 20.0746C126.958 20.2238 127.199 20.2938 127.44 20.27H138.606V18.0377H126.55V19.4303C126.529 19.6624 126.599 19.8937 126.746 20.0746H126.767Z" fill="#66BBD1"/>
<path d="M152.067 19.1227C152.737 18.0862 153.091 16.6298 153.127 14.7536V13.7184C153.119 13.3725 153.19 13.0293 153.334 12.7147C153.478 12.4001 153.691 12.1221 153.958 11.9018C154.52 11.4645 155.217 11.2379 155.929 11.2616C156.646 11.2387 157.346 11.4815 157.895 11.9434C158.159 12.1729 158.368 12.4593 158.507 12.7811C158.645 13.1029 158.709 13.4517 158.693 13.8016V14.7993C158.689 15.4626 158.642 16.1251 158.552 16.7822C160.672 17.0233 162.286 17.8922 163.395 19.3887C164.503 20.8853 165.01 23.022 164.916 25.799H159.512C159.535 25.5572 159.545 25.3143 159.541 25.0715C159.585 24.1402 159.378 23.2142 158.942 22.3901C158.747 22.0607 158.486 21.7746 158.175 21.5494C157.865 21.3243 157.512 21.1648 157.138 21.0807C156.58 22.1135 155.853 23.0463 154.989 23.841C154.22 24.561 153.338 25.1507 152.378 25.5869C151.581 25.9625 150.715 26.1678 149.834 26.1897C149.175 26.2201 148.53 25.9936 148.034 25.5579C147.797 25.3248 147.613 25.0433 147.495 24.7327C147.376 24.4221 147.326 24.0895 147.348 23.7578C147.333 23.2738 147.479 22.7984 147.764 22.4068C148.087 21.9997 148.52 21.6938 149.011 21.5255C150.255 21.062 151.323 20.2221 152.067 19.1227ZM151.16 36.6407C150.886 36.5187 150.638 36.3434 150.432 36.1251C150.226 35.9067 150.065 35.6496 149.959 35.3686C149.696 34.5916 149.578 33.773 149.61 32.9533V30.0434C149.585 29.6711 149.646 29.2982 149.786 28.9526C149.926 28.607 150.143 28.2977 150.42 28.048C151.007 27.5758 151.746 27.3334 152.499 27.3662C153.232 27.3374 153.95 27.5869 154.507 28.0646C154.775 28.3164 154.984 28.6244 155.119 28.9665C155.254 29.3086 155.312 29.6763 155.288 30.0434V32.1219C155.265 32.3057 155.316 32.4911 155.43 32.6374C155.586 32.7421 155.775 32.7877 155.962 32.7663H170.674C170.99 32.7408 171.307 32.7809 171.607 32.8839C171.907 32.9869 172.182 33.1506 172.416 33.3649C172.607 33.568 172.756 33.807 172.855 34.0682C172.953 34.3294 172.999 34.6074 172.989 34.8864C173.011 35.4625 172.805 36.024 172.416 36.4494C172.185 36.6688 171.911 36.837 171.61 36.943C171.31 37.0491 170.991 37.0905 170.674 37.0647H153.588C152.759 37.0984 151.933 36.9597 151.16 36.6573V36.6407ZM167.311 11.5443C167.864 11.0744 168.566 10.8165 169.292 10.8165C170.017 10.8165 170.719 11.0744 171.272 11.5443C171.548 11.804 171.763 12.121 171.903 12.4729C172.044 12.8248 172.105 13.2031 172.083 13.5813V17.8132H172.935C173.253 17.7837 173.574 17.8331 173.868 17.9571C174.163 18.0811 174.422 18.2758 174.623 18.524C174.977 19.0253 175.159 19.6276 175.143 20.2409C175.159 20.8562 174.972 21.4598 174.611 21.9578C174.411 22.2018 174.156 22.3939 173.867 22.5177C173.577 22.6415 173.262 22.6933 172.948 22.6687H172.104V30.6254H166.5V13.5813C166.481 13.2059 166.543 12.8308 166.683 12.4819C166.823 12.1331 167.037 11.8188 167.311 11.5609V11.5443Z" fill="#66BBD1"/>
<path d="M32.0263 21.5005V21.8622C32.0263 22.2492 31.95 22.6325 31.8019 22.9901C31.6538 23.3477 31.4367 23.6726 31.163 23.9463C30.8893 24.22 30.5644 24.4371 30.2068 24.5852C29.8492 24.7333 29.4659 24.8096 29.0789 24.8096H4.69336C3.91167 24.8096 3.16199 24.499 2.60925 23.9463C2.05651 23.3936 1.74598 22.6439 1.74598 21.8622V21.5005C1.74598 20.125 2.01698 18.763 2.54349 17.4922C3.07 16.2214 3.84172 15.0669 4.81455 14.0944C5.78738 13.122 6.94226 12.3507 8.21323 11.8247C9.4842 11.2987 10.8463 11.0282 12.2219 11.0288L21.5545 11.0288C24.3318 11.0288 26.9953 12.1321 28.9592 14.0959C30.923 16.0597 32.0263 18.7232 32.0263 21.5005Z" fill="white"/>
<path d="M33.7764 24.053V23.9615C33.7764 21.8034 32.0269 20.0538 29.8688 20.0538L3.90768 20.0538C1.74953 20.0538 1.14441e-05 21.8034 1.14441e-05 23.9615V24.053C1.14441e-05 26.2111 1.74953 27.9606 3.90768 27.9606H29.8688C32.0269 27.9606 33.7764 26.2111 33.7764 24.053Z" fill="white"/>
<path d="M4.80143 31.8808C4.03952 31.8803 3.30741 31.5847 2.75868 31.0561C2.20995 30.5275 1.88722 29.807 1.85821 29.0457L1.75012 26.2729C1.73385 25.8765 1.79798 25.481 1.93864 25.1101C2.0793 24.7392 2.29358 24.4006 2.56858 24.1147C2.84358 23.8289 3.1736 23.6016 3.53877 23.4467C3.90393 23.2918 4.29668 23.2123 4.69335 23.2132H29.0997C29.4932 23.218 29.8818 23.3014 30.2425 23.4587C30.6033 23.616 30.9289 23.844 31.2001 24.1292C31.4713 24.4144 31.6827 24.751 31.8217 25.1191C31.9608 25.4873 32.0247 25.8796 32.0096 26.2729L31.9016 29.0457C31.8725 29.807 31.5498 30.5275 31.0011 31.0561C30.4523 31.5847 29.7202 31.8803 28.9583 31.8808H4.80143Z" fill="white"/>
<path d="M10.3387 42.3026C8.26803 42.3047 6.20064 42.1378 4.1571 41.8038C3.52018 41.699 2.93526 41.3881 2.49217 40.9187C2.04908 40.4493 1.77233 39.8475 1.70441 39.2056L0.914561 31.7228C0.914561 31.6605 0.914561 31.5981 0.914561 31.5358C0.890805 30.9641 0.981536 30.3934 1.18142 29.8573C1.38131 29.3211 1.68633 28.8304 2.07855 28.4138C2.46742 28.0083 2.93393 27.6852 3.45029 27.4638C3.96666 27.2424 4.52231 27.1272 5.08413 27.1251H28.684C29.2454 27.1261 29.8007 27.2408 30.3166 27.4623C30.8324 27.6838 31.298 28.0074 31.6854 28.4138C32.0817 28.8291 32.3904 29.3199 32.5933 29.8569C32.7961 30.394 32.8888 30.9663 32.866 31.5399C32.866 31.6023 32.866 31.6646 32.866 31.727L32.5501 34.7284C32.4985 35.2159 32.3263 35.6828 32.049 36.0871C31.7718 36.4913 31.3982 36.8202 30.9621 37.0439C26.2812 39.4426 18.9065 42.3026 10.3553 42.3026H10.3387Z" fill="white"/>
<path d="M12.2219 13.9762H21.5545C22.5444 13.9734 23.5251 14.166 24.4404 14.543C25.3557 14.9199 26.1876 15.4737 26.8885 16.1726C27.5894 16.8716 28.1455 17.702 28.5249 18.6163C28.9044 19.5305 29.0997 20.5107 29.0997 21.5005V21.8622H4.69336V21.5005C4.69336 20.5121 4.88812 19.5333 5.26651 18.6201C5.64491 17.707 6.19952 16.8773 6.89866 16.1785C7.5978 15.4798 8.42777 14.9256 9.34114 14.5477C10.2545 14.1699 11.2334 13.9756 12.2219 13.9762Z" fill="#C6E5E8"/>
<path d="M29.8729 23.0012H3.90768C3.37732 23.0012 2.94739 23.4312 2.94739 23.9615V24.0571C2.94739 24.5875 3.37732 25.0174 3.90768 25.0174H29.8729C30.4033 25.0174 30.8332 24.5875 30.8332 24.0571V23.9615C30.8332 23.4312 30.4033 23.0012 29.8729 23.0012Z" fill="#EC6351"/>
<path d="M29.083 26.1606H4.69336L4.80144 28.9334H28.975L29.083 26.1606Z" fill="#C6E5E8"/>
<path d="M17.4141 13.9762H15.2357V9.10405C15.2357 7.68233 17.0233 6.68046 18.1083 6.19408L24.5269 2.94739L25.5121 4.88876L19.0104 8.18118C18.4195 8.42571 17.8784 8.77655 17.4141 9.21629V13.9762Z" fill="#EC6351"/>
<path d="M29.6027 34.4208L29.9311 31.4152C29.9443 31.2436 29.9218 31.071 29.8651 30.9085C29.8083 30.746 29.7186 30.597 29.6014 30.4709C29.4843 30.3447 29.3423 30.2442 29.1844 30.1756C29.0265 30.1071 28.8561 30.0719 28.684 30.0724H5.09244C4.9203 30.0719 4.74992 30.1071 4.59202 30.1756C4.43413 30.2442 4.29214 30.3447 4.17499 30.4709C4.05784 30.597 3.96807 30.746 3.91133 30.9085C3.85459 31.071 3.83212 31.2436 3.84532 31.4152L4.63932 38.898C14.7619 40.5608 23.7537 37.4139 29.6027 34.4208Z" fill="#EC6351"/>
<path d="M35.7677 23.4377H31.2572V31.8766H35.7677V23.4377Z" fill="white"/>
</g>
<defs>
<clipPath id="clip0_606_62">
<rect width="178.689" height="42.3026" fill="white"/>
</clipPath>
</defs>
</svg>
